<?xml version="1.0" encoding="utf-8"?>
<!-- Generator: Adobe Illustrator 27.9.0, SVG Export Plug-In . SVG Version: 6.00 Build 0)  -->
<svg version="1.1" id="Layer_1" xmlns="http://www.w3.org/2000/svg" xmlns:xlink="http://www.w3.org/1999/xlink" x="0px" y="0px"
	 viewBox="0 0 100 100" style="enable-background:new 0 0 100 100;" xml:space="preserve">
<g>
	<g transform="translate(0,0)">
		<path d="M0.3,0.7L0.3,0.7C52.7,8.5,78.3,36.4,83.7,59c-0.4,1.3-0.9,2.3-1.5,3.1c-3.6,5.5-13.1,8.4-21.3,6
			c1.3-4.1,2.1-8.4,2.5-12.4c-20,1.7-44.6,1.8-63.2-4.8C8.9,71,21,85.5,34.8,99.3c3.8-0.5,7.5-2.4,10.9-5.3
			c17.9,7.3,39.5-0.5,47.6-12.7c9.8-14.8,15.5-66.6-35.1-80.6H45c33.6,11.5,41.1,35.2,40.2,50.2C77.4,31.2,56.3,10.6,19.6,0.7
			L0.3,0.7L0.3,0.7z"/>
	</g>
</g>
</svg>
