<?xml version="1.0" encoding="utf-8"?>
<!-- Generator: Adobe Illustrator 27.9.0, SVG Export Plug-In . SVG Version: 6.00 Build 0)  -->
<svg version="1.1" id="Layer_1" xmlns="http://www.w3.org/2000/svg" xmlns:xlink="http://www.w3.org/1999/xlink" x="0px" y="0px"
	 viewBox="0 0 100 100" style="enable-background:new 0 0 100 100;" xml:space="preserve">
<path d="M62.9,1.7c-5.7,11.9-10.4,24.1-14.2,36.4c-2.7-8.4-6.1-16.7-10.3-24.8c0.1,7.6,0.7,15,2,22.3c-8.1-7.4-16.7-14.4-25.8-21
	c6.3,9.2,13,17.8,20.2,25.8c-5.5-1.7-11.9-2.1-18.4-1.2c4.1,3.1,8.9,5.9,14,7.5C20.4,47.3,10.2,48.3,0,49.9
	c8.7,1.6,17.3,2.8,25.9,3.5c-4.6,1.9-9.2,3.9-13.7,6.3c8.5-0.1,16.7-0.9,24.7-2.4c-3.5,4.5-6.6,9.4-9.4,14.6
	c5.4-3.2,10.4-6.7,15.2-10.6c-2.6,12.2-4.5,24.5-5.7,36.9C41.6,87.7,45.6,77,49.2,66c2.4,5.9,5.1,11.6,8.1,17.3
	c-0.5-7.8-1.5-15.5-2.9-23.1c9.8,9,20.2,17.3,31,25.1c-8.1-10.8-16.8-21.2-26-31.1c13.6-0.5,27.2-2,40.7-4.2
	c-9.9-1.4-19.9-2.5-29.9-3.1c4.1-1.8,8.1-3.8,12.1-5.9c-7.6,0.5-15.2,1.4-22.7,2.8c2.5-3.4,4.9-7,7-10.9c-3.5,1.7-6.8,3.6-9.9,5.7
	C59.5,26.5,61.6,14.3,62.9,1.7L62.9,1.7z"/>
</svg>
