<?xml version="1.0" encoding="utf-8"?>
<!-- Generator: Adobe Illustrator 27.9.0, SVG Export Plug-In . SVG Version: 6.00 Build 0)  -->
<svg version="1.1" id="Layer_1" xmlns="http://www.w3.org/2000/svg" xmlns:xlink="http://www.w3.org/1999/xlink" x="0px" y="0px"
	 viewBox="0 0 100 100" style="enable-background:new 0 0 100 100;" xml:space="preserve">
<g>
	<g transform="translate(0,0)">
		<path d="M0.3,1v11.2C13.9,26,26.5,47.9,32.7,69.8L22.2,56C16.3,42.5,8.6,30.2,0.3,20.9V27c5.8,7.2,11.3,15.9,15.9,25.5l6.1,26.3
			L4.9,69.4l9.8,19.2L1.5,87.4L13.3,99h19l-6-8.8L36.6,93l0.4-13.6l8.5,9.8l8.5-17l-0.2,19l8.7-6.5L56.3,99h29l14-21l-17.9,4.9
			l11-21.9l-21.9,6.9l12-40.7l-27,33.3c-4.9-22-16.1-44.5-28-59.5h-5.1c8.8,10.4,17.6,25.7,23.7,42l-1.7,8.6C36.9,32,25.4,13.6,15,1
			L0.3,1L0.3,1z M77.9,11.3L65.3,23l-0.4,16.5l10.4-15.6L77.9,11.3L77.9,11.3z M99.7,62l-7.2,11.9l7.2-3.6V62z"/>
	</g>
</g>
</svg>
