<?xml version="1.0" encoding="utf-8"?>
<!-- Generator: Adobe Illustrator 27.9.0, SVG Export Plug-In . SVG Version: 6.00 Build 0)  -->
<svg version="1.1" id="Layer_1" xmlns="http://www.w3.org/2000/svg" xmlns:xlink="http://www.w3.org/1999/xlink" x="0px" y="0px"
	 viewBox="0 0 100 100" style="enable-background:new 0 0 100 100;" xml:space="preserve">
<g>
	<path d="M43.9,60.1C37,63.8,28.3,63,22.8,59.7v0c-4.5,3.1-8.1,8.6-9.5,16.5c-1.3,7.6,0.8,12.9,4.5,16.4c3.7,3.5,9.3,5.4,15,5.3
		c5.7-0.1,11.3-2,15.1-5.6c3.8-3.6,6-8.8,4.8-16.1C51.4,68.6,48.1,63.3,43.9,60.1z"/>
	<path d="M41.8,56.8l9.8-18.2c-1.9-0.8-3.7-1.6-5.2-1.9c-0.5-0.1-1-0.2-1.5-0.2v0c-1.5,0-2.8,0.5-4.6,2.4l-1.4,1.5l-1.4-1.4
		c-1.8-1.8-3.3-2.3-4.9-2.3c-1.5,0.1-3.3,0.9-5.2,2.4l-1.3,1.1L24.9,39c-2.2-2-4.1-2.6-6-2.5c-1.4,0.1-2.9,0.6-4.3,1.6l10.1,18.2
		C28.6,58.6,36.4,59.5,41.8,56.8z"/>
	<polygon points="64.9,2.1 64.9,2.1 64.9,2.1 	"/>
	<path d="M99.4,53.1l-2.7-24.8c-16.3,0.5-34.8-1.2-43.5-4.6c-2.2,1.3-4.3,3-6.7,4.6L44.4,25c2.8-1.8,5.6-4.3,9.1-6
		c6.6-4,12.7-6.3,23,1l-11.5-18L31.3,24.9c-5.7,2.9-20.6,3.3-30.8,2.8v28.6c5.2-2.3,10.9-4.2,16.5-5.8l-6.7-12.1l-0.8-1.4l1.2-1
		c2.3-2,5-3.3,7.9-3.5c2.5-0.1,5.1,0.7,7.6,2.5c1.9-1.3,4-2.2,6.2-2.3c2.2-0.1,4.3,0.7,6.3,2.2c2.8-2.2,5.8-2.7,8.4-2.1
		c3,0.6,5.6,2.1,7.8,2.8l2.3,0.7l-8.9,16.4c12.2,5.6,21.9,15.2,19.7,34l11-21L56.6,48.4c10.8-4,31.5,5.7,30.7,24.5L92.4,51
		L61.6,37.5C72.4,31.3,91.4,32.6,99.4,53.1z"/>
</g>
</svg>
