<?xml version="1.0" encoding="utf-8"?>
<!-- Generator: Adobe Illustrator 27.9.0, SVG Export Plug-In . SVG Version: 6.00 Build 0)  -->
<svg version="1.1" id="Layer_1" xmlns="http://www.w3.org/2000/svg" xmlns:xlink="http://www.w3.org/1999/xlink" x="0px" y="0px"
	 viewBox="0 0 100 100" style="enable-background:new 0 0 100 100;" xml:space="preserve">
<path d="M36.2,73.4c1.2,0.2,2.4,0.5,3.6,0.6c3.5,0.4,7,0.3,10.4-0.8c1.5-0.5,3-1.1,4.2-2.2c1.7-1.6,1.8-3.5,0.1-5.2
	c-2-2-4.4-3-7.2-3.3c-2.4-0.2-4.6-0.1-6.9,0.3c-2.9,0.4-5.7,1-8.6,1.5c-2.5,0.4-5,0.6-7.6,0.3c-4.2-0.6-7.3-2.8-9.5-6.4
	c-0.8-1.4-1.5-2.9-2.1-4.4c0-0.1-0.1-0.2-0.1-0.3c0.3,0.2,0.7,0.4,1,0.6c3.7,2.2,7.7,3.1,11.9,2.3c1.5-0.3,2.9-0.8,4-1.8
	c1.4-1.3,1.6-2.9,0.6-4.5c-0.7-1.2-1.7-2.1-2.9-3c-0.1-0.1-0.3-0.2-0.3-0.3c0.3,0.1,0.6,0.2,0.9,0.2c3,0.9,6.1,1.4,9.2,1
	c2.2-0.3,4.1-0.9,5.9-2.3c1.8-1.5,2.8-3.2,2.5-5.7c-0.2-1.6-1.1-2.9-2.3-3.9c-2.1-1.7-4.5-2.4-7.2-2.8c-2.4-0.3-4.8-0.3-7.1-0.1
	c-0.1,0-0.2,0-0.3,0c0,0-0.1-0.1-0.2-0.1c0.2-0.1,0.3-0.2,0.4-0.2c5.7-3,11.5-5.6,17.6-7.6C52,23.5,58,22,64.1,21.6
	c5.1-0.4,10.1-0.1,15,1.2c3.8,1,7.3,2.6,10.5,5c5.8,4.4,9.1,10.3,10.1,17.5c0.9,6.9-0.9,13.4-4.9,19.3c-3.3,4.6-7.7,8-12.8,10.3
	c-4.3,1.9-8.8,3-13.4,3.4c-6.1,0.6-12.1,0.1-18.1-1.1c-4.8-0.9-9.4-2.2-14-3.8C36.4,73.5,36.3,73.4,36.2,73.4z M69.5,34.1
	c0.8,0.2,1.5,0.5,2.3,0.6c3.3,0.4,6.5-0.3,9.4-1.8c0.8-0.4,1.6-1,2.2-1.7c0.6-0.8,0.5-1.6-0.2-2.3c-0.2-0.2-0.3-0.3-0.6-0.4
	c-1.3-0.8-2.7-1.4-4.3-1.7c-2.4-0.4-4.7-0.3-7,0.2c-6.9,1.6-12.2,5.5-15.6,11.8c-0.5,0.8-0.8,1.7-1.2,2.7c0.4-0.1,0.7-0.1,1-0.1
	c1.6-0.4,3.3-0.8,5-1.3c2-0.6,4-1.2,6.1-1.1c2.7,0.1,5.2,1.1,7.4,2.6c-0.9,0.3-1.7,0.6-2.6,1.1c-2,1-3.7,2.5-5.5,3.8
	c-1.5,1.1-3,2.2-4.6,2.9c-2.2,1-4.5,1.1-6.7-0.4c-0.4-0.3-0.8-0.6-1.3-1c-0.6,8.2,4.1,17.4,13.4,21.2c3.3,1.4,6.8,1.9,10.5,1.6
	c3.4-0.3,9-2.3,9.9-3.5C83.1,68,78.8,64.9,77,63c0.9,0.2,1.8,0.4,2.7,0.6c1.9,0.3,3.9,0.5,5.8-0.1c2.7-0.8,4.1-3.1,3.3-5.9
	c-0.4-1.7-1.3-3-2.6-4.1c-1.9-1.9-4.2-3.1-6.8-3.8c-3.5-1-7.1-0.8-10.7-0.1c-0.2,0.1-0.3,0.1-0.6,0.1c0.2-0.2,0.2-0.2,0.2-0.3
	c1.3-1.5,2.9-2.7,4.6-3.7c3.1-1.7,6.3-2.4,9.9-1.6c3.1,0.8,5.6,2.5,7.3,5.3c0.4,0.8,0.7,1.7,1,2.5c0.2-1,0.4-2.2,0.4-3.3
	c0-3-1.3-5.3-4.1-6.7c-1.3-0.6-2.7-1.1-4.1-1.4c-2.2-0.5-4.4-1-6.6-1.5c-2-0.5-3.8-1.1-5.4-2.4C70.6,35.8,70,35,69.5,34.1z
	 M10.1,37.8c0.4-0.2,0.7-0.4,1.1-0.6c2.2-1,4.7-1.5,7.1-1.5c1.6-0.1,3.2,0,4.8,0.5c0.5,0.2,1.1,0.4,1.5,0.7c1.1,0.7,1.3,1.7,1.1,2.9
	c-0.5,1.7-1.5,3.2-2.8,4.4c-2.6,2.5-5.7,3.9-9,4.9c-2.7,0.8-5.5,1.3-8.5,1.2c-1.6-0.1-3.2-0.3-4.6-1.3c-0.2-0.1-0.4-0.3-0.7-0.4
	c0.7-0.2,1.5-0.2,2.2-0.4c3.6-0.8,6.8-2.2,9.7-4.4c0.7-0.5,1.4-1.2,1.8-2c0.7-1.1,0.5-2.2-0.7-2.8c-0.8-0.4-1.6-0.6-2.5-0.9
	C10.4,37.9,10.3,37.9,10.1,37.8C10.1,37.9,10.2,37.9,10.1,37.8z M58.5,57.5c1-1.1,2.1-1.9,3.4-2.5c4-1.9,8.2-2.5,12.7-1.7
	c1.1,0.2,2.1,0.6,2.9,1.2c1.8,1.5,1.8,3.8-0.2,5.1c-2,1.3-4.3,1.8-6.7,1.5c-0.3,0-0.6-0.2-1.1-0.3c0.6-0.2,1-0.4,1.3-0.6
	c0.2-0.1,0.3-0.2,0.4-0.3c0.3-0.3,0.3-0.7,0-1c-0.4-0.3-0.9-0.7-1.3-0.8c-3.1-1.1-6.4-1.6-9.7-1.2c-0.3,0.1-0.6,0.1-0.9,0.2
	C59.1,57.2,58.9,57.3,58.5,57.5z"/>
</svg>
