<?xml version="1.0" encoding="utf-8"?>
<!-- Generator: Adobe Illustrator 27.8.1, SVG Export Plug-In . SVG Version: 6.00 Build 0)  -->
<svg version="1.1" id="Layer_1" xmlns="http://www.w3.org/2000/svg" xmlns:xlink="http://www.w3.org/1999/xlink" x="0px" y="0px"
	 viewBox="0 0 100 100" style="enable-background:new 0 0 100 100;" xml:space="preserve">
<g transform="translate(0,0)">
	<path d="M44.9,0c-1.3,8.8-5.6,13.5-13.4,13.4c6.6,0.9,13.4,1.7,13.4,13.5c-0.1-9.7,5.1-13.2,13.5-13.5C50.4,13.1,44.7,10,44.9,0
		L44.9,0z M71.7,2.4c-1.9,3-4.4,4.5-8.2,2.2c3.1,2.5,3.9,5.2,2.1,8.2c1.9-2.3,3.7-4.8,8.2-2.2C70.1,8.5,69.9,5.7,71.7,2.4L71.7,2.4z
		 M7.6,4.4c-0.6,3.9-2.5,6-6,6c3,0.4,6,0.8,6,6c-0.1-4.3,2.3-5.9,6-6C10,10.2,7.5,8.9,7.6,4.4z M85.5,9.6c-0.6,3.9-2.5,6-6,6
		c3,0.4,6,0.8,6,6c-0.1-4.3,2.3-5.9,6-6C88,15.4,85.4,14,85.5,9.6z M20.3,20.1c-3.3,11.3-10,10.1-16.7,9.1
		c7.5,2.1,10.4,7.8,9.1,16.7c2.7-9.7,8.9-11,16.7-9.1C21.5,34.2,17.5,29.3,20.3,20.1L20.3,20.1z M59.6,21.1
		c-1.8,12.9-8.3,19.7-19.7,19.7c9.7,1.4,19.7,2.5,19.7,19.7c-0.2-14.1,7.5-19.4,19.7-19.7C67.6,40.3,59.3,35.8,59.6,21.1z
		 M88.3,29.2c-2.8,4.5-6.2,6-10.4,4.2c3.4,2,6.9,4,4.2,10.4c2.2-5.3,5.9-6,10.4-4.2C88.2,37.6,85.9,34.6,88.3,29.2z M5.7,46.7
		c1.9,3.5,1.6,6.3-1.2,8.4c2.6-1.4,5.2-3,8.4,1.2c-2.6-3.4-1.7-6.1,1.2-8.4C11.1,49.9,8.3,50.3,5.7,46.7L5.7,46.7z M34.5,46.8
		c2.4,5.6-0.1,8.7-4.6,10.7c4.8-1.8,8.6-0.9,10.7,4.6c-2.7-6.7,1-8.7,4.6-10.7C40.8,53.1,37.2,51.5,34.5,46.8L34.5,46.8z M82.4,49.4
		c-5.6,13.6-14.4,19.3-26.8,16c10.2,4.2,20.7,8.1,16,26.9c3.7-15.5,13.5-19,26.9-16.1C85.8,72.6,78.1,65.3,82.4,49.4L82.4,49.4z
		 M16,57.7c3.3,12.1,0.2,20.6-9.9,24.9c9.1-2.5,18.3-5.3,24.9,10c-5.5-12.5-0.7-20,9.9-24.9C30.4,71.6,21.4,70.7,16,57.7L16,57.7z
		 M51.6,70.5c-4.6,4.3-9,5-13.3,1.5c3.3,3.4,6.6,6.8,1.5,13.3c4.2-5.4,8.7-5.1,13.3-1.5C48.9,80.1,47.1,75.9,51.6,70.5z M88.1,80.5
		c-0.6,3.9-2.5,6-6,6c3,0.4,6,0.8,6,6c-0.1-4.3,2.3-5.9,6-6C90.5,86.3,88,84.9,88.1,80.5z M52.5,88c-0.6,3.9-2.5,6-6,6
		c3,0.4,6,0.8,6,6c-0.1-4.3,2.3-5.9,6-6C54.9,93.9,52.4,92.5,52.5,88z"/>
</g>
</svg>
