<?xml version="1.0" encoding="utf-8"?>
<!-- Generator: Adobe Illustrator 27.9.0, SVG Export Plug-In . SVG Version: 6.00 Build 0)  -->
<svg version="1.1" id="Layer_1" xmlns="http://www.w3.org/2000/svg" xmlns:xlink="http://www.w3.org/1999/xlink" x="0px" y="0px"
	 viewBox="0 0 100 100" style="enable-background:new 0 0 100 100;" xml:space="preserve">
<g transform="translate(0,0)">
	<path d="M0.8,43.2C0.3,43.7,0,44.4,0,45.1h5.6c0.2-0.7-0.1-1.5-0.7-2.1C3.6,41.7,1.8,42.2,0.8,43.2z M11.9,42.8
		c-0.6,0.6-1,1.4-1,2.3L33.6,45c0.3-1.1,0.1-2.4-1.1-3.6c-1.8-1.8-4.1-1.5-5.8-0.3c-0.2-0.8-0.6-1.5-1.2-2.1
		c-3.4-3.4-8.5-0.6-9.3,2.9C14.6,41.1,12.9,41.7,11.9,42.8L11.9,42.8z M33.4,22.4c-0.9,0.9-1.2,2.4-0.1,3.5c2.4,2.4,6.6-1.2,4.2-3.7
		C36.2,20.9,34.4,21.3,33.4,22.4L33.4,22.4z M3.7,52.3c-0.5,1.3-0.3,2.8,0.9,4c2.9,2.9,7.1,0.5,7.8-2.5c0.1,0.1,0.1,0.1,0.1,0.1
		c2.4,2.4,6.6-1.2,4.2-3.7c-1.9-1.9-4.7-0.1-4.9,1.9L3.7,52.3z M41.8,25.8c-0.6,0.6-1.1,1.4-1.3,2.4c-1.8,6.5,8.8,8.7,10.6,2.3
		c0.1-0.1,0-0.1,0.1-0.2c1.6,0.7,3.9-0.9,2.8-2.7c-0.7-1.2-2.2-1.2-3.1-0.5C49.2,24.1,44.3,23.2,41.8,25.8L41.8,25.8z M14.6,61
		c-0.9,0.9-1.2,2.4-0.1,3.5c2.4,2.4,6.6-1.2,4.2-3.7C17.4,59.4,15.6,59.9,14.6,61L14.6,61z M24.7,52.3c-0.2,1.3,0.2,2.7,1.4,3.9
		c2.1,2.1,4.8,1.9,6.9,0.6c0.3,0.5,0.7,1,1.2,1.6c3.6,3.6,8.6,2.4,11.4-0.5c2.1,1.3,4.5,0.9,6.3-0.5c0.2,0.2,0.3,0.4,0.5,0.6
		c0.9,0.9,2.1,1.4,3.1,1.6c-1.4,1-2.5,2.4-3,3.9c-1.3-2-4.9-0.2-3.6,2c0.8,1.3,2.5,1.2,3.3,0.3c0.1,1.2,0.7,2.4,1.8,3.5
		c4,4,10,1.2,11.6-3c0.1,0.1,0.2,0.2,0.3,0.3c4,4,10.3-0.4,9.4-4.8c1.3-0.2,2.6-0.9,3.6-1.8c0.3,0.8,0.8,1.5,1.5,2.1
		c5.2,5.2,13.5-0.9,11.7-6.5c4.9,0.4,10.2-4.3,7.1-9.5c-2.1-3.6-5.9-4-8.9-2.8c1.8-2.2,2.3-5.3-0.3-7.8c-2.3-2.3-5.1-2.3-7.4-1.1
		c-0.2-0.2-0.3-0.3-0.5-0.5c-0.7-0.7-1.5-1.2-2.3-1.6c0.4-1.1,0.4-2.3-0.7-3.4c-0.8-0.8-1.7-1.1-2.5-1c0-0.1,0.1-0.2,0.1-0.3
		c0.6-2.5-3.2-3.8-3.9-1.3c-0.4,1.2,0.4,2.2,1.5,2.5c-0.8,0.5-1.3,1.4-1.5,2.3c-2.3-1.8-5.2-1.2-7.1,0.5c-0.2-0.4-0.5-0.9-1-1.3
		c-4.6-4.6-12.4,2.1-8.4,6.9c-1.7,1-3.1,2.5-3.9,4.2c-0.3-0.5-0.6-1-1.1-1.5c-4.8-4.8-12.2,0.1-12,5.3l22.5-0.1
		c0,0.3,0.1,0.6,0.3,0.9c1.3,2.3,5,0.3,3.7-1.8c-0.5-1-1.5-1.2-2.3-0.9c-0.2-2.2-0.6-6-2.3-9.5c10.4,1.7,23.6,6.2,31.1,14.4
		C84,55.3,70.8,61.1,60.8,63.1c2.9-8.1,2.7-11,2.7-11L42,52.2c0.3-0.8,0.2-1.7-0.6-2.5c-2.1-2.1-5.3,0.3-4.9,2.5L24.7,52.3
		L24.7,52.3z M63.5,22.4c-0.9,0.9-1.2,2.4-0.1,3.5c2.4,2.4,6.6-1.2,4.2-3.7C66.3,20.9,64.5,21.3,63.5,22.4L63.5,22.4z M36.4,69.6
		c-0.8,0.8-1.1,2.1-0.4,3.2c1.3,2.3,4.3,1.1,4.9-0.9c2.7,2.5,7.8-1.2,5.7-5c-1.9-3.3-6.5-1.2-6.9,1.9C38.6,68.3,37.2,68.7,36.4,69.6
		L36.4,69.6z M61.6,75.5c-0.5,0.5-0.8,1.3-0.2,2.2c0.9,1.5,2.9,1.1,3.7,0c3.2,3,8.5-1.7,5.3-4.9c-2.4-2.4-6-0.4-6.4,2.2
		C63.2,74.6,62.2,74.9,61.6,75.5L61.6,75.5z M77.4,65.3c-0.2,0.2-0.4,0.5-0.4,0.9c-0.6,2.5,3.2,3.8,3.9,1.3
		C81.5,65.4,78.7,64.1,77.4,65.3C77.5,65.3,77.4,65.3,77.4,65.3L77.4,65.3z"/>
</g>
</svg>
