<?xml version="1.0" encoding="utf-8"?>
<!-- Generator: Adobe Illustrator 27.8.1, SVG Export Plug-In . SVG Version: 6.00 Build 0)  -->
<svg version="1.1" id="Layer_1" xmlns="http://www.w3.org/2000/svg" xmlns:xlink="http://www.w3.org/1999/xlink" x="0px" y="0px"
	 viewBox="0 0 100 100" style="enable-background:new 0 0 100 100;" xml:space="preserve">
<g id="EvCnn9.tif">
	<g>
		<path d="M34.6,86.6C34,89.7,31.2,92,28,92.2c-1.7,0.1-3.4,0.4-5.1,0.6c-0.4,0.1-0.8,0.3-1.2,0.6c-0.7,0.6-0.6,1,0.2,1.5
			c0,0,0.1,0,0.2,0c1.7-0.4,3.2,0.4,4.6,1c1.5,0.7,2.6,0.1,3.8-0.7c0.2-0.1,0.5-0.3,0.6-0.4c1.5,1.4,2.9,1.4,4.3-0.2
			c1.4-1.6,2.7-3.3,4-5.1c0.2-0.2,0.3-0.6,0.5-0.7c1.6-0.6,3.3-1.7,4.7-1.4c5.4,1.2,10.7,0.9,16,0.3c8.3-1,16.7-2,25-3.2
			c4.3-0.6,8.2-1.8,11.5-4.6c3.1-2.6,3.8-7.5,1.7-10.9c-0.3-0.5-0.6-0.9-1.1-1.1c-1.1-0.6-2.1,0-2,1.4c0.1,1.6,0.4,3.2,0.6,4.6
			c0.3,1.3-0.3,2.2-1.3,3.1c-2.9,2.2-6.2,3.2-9.7,3.7c-5.6,0.8-11.1,1.9-16.7,2.4c-6.8,0.7-13.4,0.6-20.2-0.2
			c-0.2,0-0.5-0.2-0.6-0.2c0.1-2.2,0.2-4.4,0.3-6.5c0.4,0.1,0.6,0.3,1.2,0.5c-0.6-1.9-1.1-3.7-1.7-5.8c0.7,0.6,1.2,0.9,1.7,1.2
			c0.1,0,0.2-0.1,0.3-0.1c-0.3-1-0.6-1.9-0.9-3c-0.5-1.4-1.2-2.7-0.9-4.4c0.3-1.2-0.8-2.6-0.7-3.8c0.4-3.9-1.2-7.4-1.8-11.1
			c0-0.3,0.2-0.7,0.4-1c0.4-0.6,0.8-0.9,1.2-1.5c1.3-1.6,1.3-1.6,3-0.3c1.6,1.3,3.6,0.5,3.9-1.5c0.3-2-0.6-3.7-2.6-4.5
			c-0.6-0.3-1.3-0.4-1.9-0.6c-0.6-0.3-1-0.6-0.2-1.3c0.2-0.1,0.2-0.6,0.1-0.7c-0.3-1.2-0.6-2.4-1.1-3.8c0.5,0.1,0.6,0.1,1.1,0.2
			c-0.5-1.3-0.9-2.5-1.4-3.7c-0.2-0.6-0.5-1.2-0.6-1.8c-0.3-0.9,0-1.4,0.9-1.8c2.9-1.3,5.8-2.6,7.3-5.7c0.1-0.3,0.6-0.6,0.8-0.6
			c2.7-0.6,4.4-3.5,3.8-6.3c-0.1-0.6-0.2-1.2-0.1-1.9c0.4-1.9-0.5-3.3-2.4-3.9c-3.2-0.9-6.6-1.9-9.9-2.6c-1.4-0.3-2.7-0.4-3.5-1.8
			c-0.6-0.9-1.5-0.3-1.8,0.4c-0.7,2.2-2.6,2-4.3,2.4c-3,0.6-5.6,0.2-7.7-2.3c-1.2-1.5-4.1-1.3-5.7-0.1c-1.4,1-1.7,2.6-0.6,4.6
			c0.6,1.3,1.5,2.5,2.3,3.7c0.6,0.7,0.7,1.5,0.2,2.3c-0.9,1.2-1.9,2.3-2.8,3.5c-1.2,1.7-2.9,3.2-3.5,5c-0.6,1.9-1.9,3.1-3.2,4.4
			c-3.4,3.7-5.7,8.1-7.7,12.7c-0.2,0.6-0.9,1.3,0.2,1.9c0.1,0-0.1,0.9-0.3,1.3c-1.1,2.3-1.7,4.7-1.6,7.2c0,0.4,0.4,0.7,0.6,1
			c0.2,0,0.4-0.1,0.6-0.1C8.2,55,8,57.6,7.7,60.2c0,0,0.3-0.1,0.7-0.4c-0.6,1.4-0.9,2.5-1.4,3.6c-0.4,0.8-0.8,1.6-1,2.4
			c-0.3,0.8-0.8,1.6,0.2,2.6c0.4,0.4,0,1.7-0.1,2.6c-0.1,1.5-0.3,3-0.4,4.7c0.6-0.2,0.8-0.3,1.3-0.4c-0.6,6.3,4.4,7.8,9.1,9.9
			c-1.2,0.6-2,1.3-3,1.4c-2.8,0.4-5.7,0.5-8.4,0.6c-1,0.1-1.9,0-2.9,0.3C1.1,87.8,0,88.8,0,89c0.3,0.9,0.8,1.9,1.6,2.4
			c1.2,0.7,2.6,0.8,4.1,0c1.1-0.6,2.5-1.1,3.7,0.3c0.3,0.3,1,0.3,1.6,0.3c4.2-0.1,7.6-2,10.8-4.4c0.5-0.3,1-0.7,1.5-0.6
			c3.5,0.6,7.1,0.7,10.7,0.3C34.1,86.6,34.3,86.6,34.6,86.6z"/>
	</g>
</g>
</svg>
