<?xml version="1.0" encoding="utf-8"?>
<!-- Generator: Adobe Illustrator 27.8.1, SVG Export Plug-In . SVG Version: 6.00 Build 0)  -->
<svg version="1.1" id="Layer_1" xmlns="http://www.w3.org/2000/svg" xmlns:xlink="http://www.w3.org/1999/xlink" x="0px" y="0px"
	 viewBox="0 0 100 100" style="enable-background:new 0 0 100 100;" xml:space="preserve">
<g>
	<path d="M70.1,49c0.7,0.5,2,1.1,3,0.5c0.3,1.3,0.3,2.5,1.1,3.8c0,0,0,0-0.1,0c-0.4-0.1-1.1-0.2-1.5,0.1c-0.3,0.3-0.2,0.7-0.2,1.1
		c-0.2,0-0.6-0.1-0.8,0.2c-0.2,0.2-0.2,0.4-0.3,0.8c-0.2-0.1-0.2-0.2-0.4-0.2c-0.1-1.6-0.2-2.8-0.3-4.6C70.6,50.2,69.8,49.5,70.1,49
		 M66.9,39.5c0.9,0.3,1.5,1.1,2.4,1.6c0.4,0.2,0.6,0,1.1,0.1c0.5,0.2,1,0.6,1.5,0.8c0.5,0.3,1,0.7,1.5,1c-0.2,0.3-0.3,0.7-0.4,1
		c-0.2,0.7-0.2,1.3-0.4,1.9c-1.1-0.2-2.5-0.4-3.7-0.2c-0.4,0.1-0.5,0.3-0.7,0.5c-0.4,0.3-1.1,0.2-1.5,0.3c-0.7,1.3-0.1,2.8,0.7,4.8
		c-0.4-0.1-0.8-0.2-1.2-0.2c0.1-1.9-1.6-1.9-1.6-2.8c0-0.3,0.2-0.4,0.2-0.7c-0.1-0.7-2.7-5.4-3.1-5.9v-0.1c1.1-0.2,2.4,0.2,3.5-0.5
		C65.5,40.5,66.2,39.8,66.9,39.5 M50.3,35.6c0.8,0.3,1.7,1,2.5,1.2c1.6,0.4,4.3,0.2,5.4,1.6l0.1-0.1c0-0.1,0.1-0.2,0.1-0.2
		c0.2,0.1,0.5,0.2,0.7,0.4c-0.7,0.3-0.3,0.7-0.7,1.1c-0.3,0.2-0.7,0.1-0.8,0.5c0,0.1,0,0.1,0,0.1c-0.3,1,0.7,1.5,1.1,2.3
		c0.9,1.4,1.8,2.8,2.7,4.1c0.7,1.1,0.7,2.4,1.3,2.9c-0.1,0.2-0.1,0.5-0.2,0.7c-1-0.2-2.4-0.2-3.2-0.9c0.7-1.5-1.2-5.9-3.2-5.4
		c-1.8-3.3-5.4-4-7.6-6.5c0,0,0,0,0-0.1C49.7,37.3,49.8,36.4,50.3,35.6 M31.4,40.5c3.1,0.6,8.3,0.2,10.2,2.8
		c-0.7-0.2-1.3-0.2-1.9-0.4c-0.4,0-0.9,0.1-1.3,0.1c-0.2-0.2-0.4-0.3-0.7-0.6c-1-0.6-2.4-1.1-3.6-1.1C33.6,41.1,30.9,41.1,31.4,40.5
		 M0.8,28.5c-0.4,0.2-0.4,0.2-0.6,0.5c0.4,4.5,3.7,8.1,6.2,9.8c0.1,2,3.4,5,5,5.7c0.7,0.4,1.6,0.4,2.4,0.8c0.2,0.3,0.3,0.7,0.5,1
		c-0.2,0.1-0.4,0.2-0.7,0.2c-0.2,1.5,3.7,4.6,4.6,5c-1.4,4.3-0.8,10.3-1.2,15.2c-1.2,0-4.1,1.7-3.9,2.7c0.3,0.2,0.2,0.3,0.4,0.7
		c0.2,0,0.5-0.1,0.7-0.1c0.1,0.1,0.1,0.2,0.2,0.4c0.1-0.1,0.2-0.2,0.3-0.3c0.2,0.2,0.3,0.2,0.5,0.3c0.1-0.1,0.1-0.2,0.2-0.3
		c0.3-0.3,0.6-0.7,0.9-1c0.2,0,0.4-0.1,0.6-0.2c0-0.2,0.1-0.3,0.1-0.4c0.1,0,0.2,0,0.3,0c0.2-0.2,0.2-0.6,0.7-0.8
		c0.1,0.2,0.1,0.4,0.2,0.7c0.1-0.1,0.2-0.2,0.2-0.3c0-0.2,0-0.4,0.1-0.6c0.1,0,0.2,0,0.2,0.1c0.2,0.2,0.2,0.3,0.4,0.5
		c0.1-0.7,0.2-1.4,0.2-2c0.1,0,0.2,0.1,0.2,0.1c-0.5-1.4,0-2.1,0.1-3.1c0-0.9-0.1-1.8-0.1-2.6c0.2-0.4,0.2-0.7,0.4-1.1
		c0.2-1.2-0.4-2.7-0.2-3.8c0.5-0.3,1.2-0.7,1.8-1c0.7,0.4,2.4,0.7,2.8,1.1c0.4,0.3,0.6,1,1,1.3c1.2,1,2.9,1.5,4.5,1.7
		c0.3,0.7,0.8,1.1,1.2,1.5c-0.5-0.1-1.8-0.4-2.4,0.2c-0.2,0.2-0.5,0.6-0.7,0.8s-0.6-0.1-1,0.2c-1.8,1.2-2.8,3.5-3.7,5.3
		c-0.4,0.7-1.2,2.1-1.2,3.1c0,0.6,0.5,0.6,0.5,0.8c-0.7,0.7-0.3,1.8-0.3,2.8c0,1.2,0.3,2.3,0.5,3.8c0.2,1.7,0.2,3.8,0.3,5.4
		c-1,0.7-2.4,1.1-2.9,2c-0.1,0.3-0.1,0.7-0.2,1c-0.2,0.4-0.5,0.6-0.6,1.1c0.1,0.1,0.1,0.1,0.2,0.2c0-0.4,0.2-0.7,0.6-1
		c0,0,0,0,0,0.1c0,0.3-0.2,1.1,0.2,1.3c-0.2-0.5-0.2-0.8,0-1.1c0.2-0.1,0.5-0.2,0.7-0.2c0.2,0.2,0.6,0.5,0.8,0.3
		c0.2-0.2,0.2-0.6,0.3-0.8c0.3-0.4,1.5-1.5,2.2-1.9c0.2,0.2,0.1,0.1,0.2,0.3c0.1-0.1,0.1-0.1,0.1-0.2c0.1-0.3,0.2-0.2,0.3-0.2
		c0.1-1.5,0.2-3.6,0.1-5.1c-0.1-0.7-0.2-1.1-0.2-1.7c0-0.3,0.3-0.7,0.4-0.9c-0.2-1.2-0.5-2.4-0.8-3.6c1.5-1.1,3.6-2.9,4.1-4.4
		c0.3-1,0.1-3,1.1-3.7c0.7,0,1.5,0.1,2.1,0.1c0.5,0.5,1.1,0.9,1.5,1.4c1.3,0.8,4.7,2.2,6.3,2.2c0.5-0.2,1.1-0.2,1.6-0.4h0.1
		c0.1,0.2,0.1,0.5,0.2,0.7c-0.7,0.2-1.5,0.7-1.6,1.3c0,0.2,0.1,0.5,0.1,0.7c-1.3,0.7-2,7.2,0,8.7c0.2,0,0.3,0,0.4,0
		c0.4,1.7,2,2.3,2,3.5c0.2-0.2,0.2-0.2,0.3-0.2c0.3,0.3,0.7,0.7,1,1c0.3-0.2,0.3-0.1,0.6,0c0.3,0.2,0.6,0.5,0.9,0.7
		c0.2,0.4,0.3,0.7,0.5,1.1c0,0,0-0.1-0.1-0.1c0-0.2,0.1-0.2,0.1-0.4h0.1c0.7,0.6,1.4,1.1,2,1.8c0.7,1-0.2,3.3,1,3.2
		c0.1,0.4,0.2,0.8,0.2,1.2c0.1,0,0.2,0.1,0.2,0.1c-0.2-0.5-0.2-1,0-1.3c0.7-0.1,0.9,0.7,1.5,0.8c-0.2-0.3-0.6-0.5-0.7-1
		c0.1,0,0.2,0,0.3,0c-0.5-1.3-0.7-2.4-0.7-3.4h0.1c0.2,0.2,0.3,0.3,0.5,0.5c0,0,0,0,0.1,0c-0.7-2-2-2.6-3.2-3.7
		c-0.7-0.6-1.2-1.6-2-2.3c-0.7-0.6-1.5-0.9-2.2-1.5c-0.2-1.3,0.7-2.4,0.7-3.7c0-1.3-1-2.1-1.2-3.3c1.2-1,2.6-0.2,3.6-0.2
		c1.4-0.2,2.8-0.3,4.1-0.5c0.2,1-0.1,1.6-0.1,2.5c0.2,0.7,0.4,1.5,0.7,2.2c0.8,4,3,7.8,6.6,7.3c-0.2,3.3,3.6,4.1,5.6,4.6
		c4.5,1.1,9.2,2.4,14.4,2c0.6-0.1,1.1-0.6,1.5-0.6c0.2,0.1,0.3,0.1,0.6,0.2c0.8-0.2,1.7-0.5,2.6-0.7c3.2-0.6,5.7-2.6,7.2-4.1
		c0.4-0.5,1.7-1.9,0.6-2.4c-1.1,1.2-2.7,2.3-4.3,2c-0.6,0.5-1.8,1.5-2.8,1.5c0-0.1-0.1-0.2-0.1-0.3c-0.8,0.4-1.4-0.5-2-0.7
		c-0.7,0.4-0.7,1-1.1,1.5c-0.7,0.8-2-0.2-2.5-0.7c-0.7,0.5-1.1,0-1.5-0.2c0.2-0.4,0.4-0.7,0.8-1c0.6,0.1,1.8,1.1,2.3,0.5
		c0.6-0.6,0.5-1.4,1.7-1.5c1.8,1.8,2.5,0.4,4.2-0.7c0.7-0.4,1.4-0.2,1.9-0.2c0.9-0.7,1.7-1.4,2.5-2.1c0.1,0.1,0.2,0.2,0.2,0.2
		c0-0.1,0.1-0.1,0.1-0.2c0.7-0.8-0.6-1.5-1.1-1.5c-1.4-0.2-6.6,0.7-7.3,0.1c-0.1-0.1-0.1-0.2-0.2-0.3c-0.2,0.1-0.2,0.2-0.4,0.3
		c-0.1-0.1-0.2-0.2-0.3-0.2c-0.1,0.1-0.2,0.2-0.2,0.2c0-0.2-0.1-0.3-0.1-0.4c-0.3,0.1-0.4,0.2-0.6-0.2c0-0.2,0-0.3,0-0.5
		c-0.1,0-0.2,0.1-0.3,0.1c0-0.2,0-0.3,0-0.6c-0.2,0-0.2,0-0.3,0c0-0.1-0.1-0.2-0.1-0.2c0.1-0.2,0.2-0.5,0.3-0.7c-0.2,0-0.4,0-0.6,0
		c0.1-0.2,0.2-0.3,0.2-0.4c-0.2-0.1-0.3-0.1-0.5-0.2c0-0.1,0.1-0.2,0.1-0.3c-0.2-0.1-0.3-0.1-0.5-0.2c0-0.1,0-0.2,0-0.2
		c0.1-0.1,0.2-0.2,0.3-0.2c-0.3-0.1-0.5,0.1-0.7-0.3c0.1-0.2,0.1-0.4,0.2-0.6c0,0,0,0,0-0.1c-0.4,0.1-0.5,0.1-0.7-0.1
		c0-0.2,0.1-0.3,0.1-0.4c-0.2,0-0.3,0.1-0.5,0.1c0-0.3,0.2-0.3,0.3-0.6c-0.2,0-0.3-0.1-0.5-0.1c0-0.2,0.1-0.3,0.1-0.5
		c-0.3,0.1-0.7,0.2-0.8-0.2c0.1-0.2,0.2-0.3,0.3-0.5c-0.4,0.1-0.8,0-1.1-0.2c-0.2-0.2-0.1-0.6,0-0.8c-0.6,0.1-0.8,0.2-1.1-0.2
		c0-0.2,0.1-0.4,0.1-0.6c-0.7,0.2-1,0-1-0.7c0,0,0,0,0-0.1c-0.5,0.2-0.7,0.2-1,0.1c-0.1-0.2-0.1-0.3-0.1-0.5
		c-0.3,0.1-0.7-0.1-1.1-0.3c0-0.2,0-0.2,0.1-0.4c-0.8,0.2-1.1-0.2-1.5-0.5c1.5-0.5,2.3-1.2,3-2c-0.2-0.2-0.3-0.5-0.5-0.8
		c2.4,0,1.5-2.1,1.5-3.7c0.5-0.2,0.7,0,1.1-0.1c0.7,1.3,2.6,1.3,3.5,0.7c0.1-0.1,1.1-1.5,1.2-1.8c0,0,0,0,0.1,0
		c0.2,0.4,0.4,0.6,0.7,0.8c0.2-0.2,0.5-0.2,0.7-0.1c-0.1-0.2-0.1-0.2,0.1-0.4c0.2,0,0.2,0,0.3,0.1c0.2,0.2,0.3,0.7,0.4,1
		c0,0,0,0,0.1,0v-0.1c0-0.3,0-0.7,0-1.1l0.1,0.1c0.2,0.2,0.4,0.5,0.7,0.7h0.1c0,0,0,0,0-0.1c-0.3-1.5-1.4-1.9-2-2.7
		c-0.1-0.3-0.2-0.7-0.3-1.1C79,56,78.5,55.5,78,55c0.4-0.1,1.3-0.5,1.2-0.9c0-0.2,0-0.2,0.1-0.4c0.2-0.2,0.3-0.2,0.5-0.3
		c-0.2-0.2-0.3-0.2-0.3-0.5c0.2-0.2,0.3-0.5,0.3-0.8l-0.5-0.3c0.5,0.5,1.1,0.7,1.4,1.1c0.1,0.3,0.2,0.6,0.3,0.9
		c0.4,0.5,1.4,0.9,1.8,1.4c0.2,0.2,1.1,1.4,1.1,1.5c1.3,0.3,0.5,0.7,1.1,1.1c0.3-0.1,0.5-0.2,0.8-0.1c0.1,0.2,0.2,0.4,0.3,0.6
		c0.2,0,0.3-0.1,0.4-0.1c0.4,0.2,0.4,0.4,0.7,0.8c0.4-0.2,0.7-0.2,1-0.2c0.2,0.2,0.6,0.2,0.8,0.4c0.2,0.2,0.2,0.4,0.4,0.6
		c0.2-0.2,0.4-0.2,0.6-0.2c0.2,0.2,0.1,0.7,0.5,0.3c0.1,0,0.1,0,0.2,0c0.2,0.2,0.3,0.3,0.6,0.5c0.1-0.1,0.2-0.2,0.2-0.2
		c0.7,1.6,2,1.6,2.4,4c0.2,1.1,0.3,5.6,0.6,5.9c0.2,0.1,0.3,0.2,0.4,0.2c1.1-0.3,2-1.6,2-2.4c-0.1-0.4-0.2-0.7-0.3-1.1
		c0.2-0.5,0.4-1,0.8-1.7c1.1,3.1,0.4,5.6-0.7,7.6c0.3,2.2,2.5-1.1,2.7-1.5c0.6-2.1,1.1-7-0.2-9.4c0.2-0.2,0.2-0.3,0.3-0.5
		c0.1-0.7-0.5-0.9-0.7-1.5c-0.1-0.6-0.1-1.1-0.2-1.6c-0.2-0.3-0.3-0.6-0.4-1c-1.1-3.9-4.4-8.7-7.8-10.3c-0.2,0-0.3,0-0.5,0.1
		c-0.3-0.2-0.7-0.4-1-0.7c-0.2,0-0.5,0-0.7,0c-0.7-0.3,0.2-1.9-2-1.9c-1-2.6-6-3.3-8.4-3.3c-1.3,0-2.7,0.5-3.8,0.7
		c-0.3-0.4-0.6-0.3-0.8-0.6c-1.7-1.3-3.3-2.3-5.3-3c-0.8-0.3-1.5-1.1-2.5-0.5c-0.2-0.2-0.4-0.5-0.6-0.7c-1.6,0.3-3.1,0.2-5,0.9
		c-0.2-0.2-0.3-0.3-0.6-0.5c0,0,0,0,0-0.1c0.2,0,0.5,0,0.7,0c0-0.7,0.6-0.6,1.1-0.8c0,0,0,0,0-0.1c-0.1-0.1-0.2-0.2-0.2-0.3
		c0.2-0.1,0.3-0.2,0.4-0.2c-0.2-0.2-0.4-0.7-0.2-1.1c0.2-0.1,0.3,0,0.7,0.1c-0.3-0.5-0.8-0.3-1.3-0.1c-0.1-0.1-0.1-0.2-0.2-0.3
		c-0.1,0-0.1-0.1-0.2-0.2c-1.1,0.4-1.5,1.3-1.7,2.1c-0.1,0-0.2,0.1-0.2,0.1c-1.1-0.8-2.8-0.9-4.1-1.3c-3.3-1.1-7.8-4.3-11.1,0.5
		c-0.4,0.6-0.2,1.6-0.4,2.3c0.3,0.5,1.1,1.2,1.5,1.3c0.3,0,0.6,0.1,0.9,0.1c2.3,1.5,5,2.1,7.2,4.1c0.6,0.5,2.5,3,1.5,3.6
		c-0.9-1.1-2.4-1.1-3.4-1.7c-1.7-1.2-3.2-2.4-5-3.5c-0.2,0.2-0.2,0.2-0.4,0.2c-0.9-0.3-1.8-0.6-2.7-0.9c-2.4-0.7-4.7-1.5-6.9-2.4
		c-1.5-0.6-3.1-1.7-4.9-1.6c-0.3-1.1-0.9-1.5-1.5-1.9v-0.1c0.7-0.2,1.3-0.6,1.7-0.2c0.2-0.2,0.3-0.4,0.7-0.4c0-0.3,0-0.3,0.2-0.6
		c-0.4-0.2-0.5-0.4-0.4-0.9c-0.4-0.1-0.7-0.1-1.1-0.2c-0.4-0.2-1.5-1.7-1.3-1.9c-0.2-0.2-0.2-0.3-0.5-0.4c0.2,0.6,0.2,0.8,0.2,1.1
		c-0.2-0.1-0.2-0.2-0.4-0.2c0-0.1,0-0.1,0-0.2c-0.2,0.2-0.2,0.2-0.2,0.4c0,0.3,0.2,0.5,0.3,0.7c-0.2,0.1-0.4,0.1-0.6,0.2
		c0.6,0.4,1.1,0.7,1.7,1.1c0,0,0,0-0.1,0c-1.2,0.1-4.4,0.6-4.6,1.6c-0.3,2.3,3.5,3.8,4.5,4.6c-0.7,0-1.4-0.1-2-0.1
		c-0.4,0.2-0.8,0.2-1.2,0.4c-0.3-0.1-0.7-0.2-1.1-0.3c-0.7-0.1-1.5-0.2-2.3-0.2c-0.9-0.2-1.9-0.7-2.8-0.9c-0.7-0.2-1.1,0.6-1.9,0.4
		c-0.3-0.4-0.7-0.3-1.1-0.7c-0.2-0.3-0.4-0.7-0.6-1c-0.7-0.7-1.5-1.5-2.3-2.1c-0.2-0.2-0.4-0.5-0.6-0.7c-0.4-0.2-1.1-0.3-1.5-0.7
		c-0.2,0.2-0.2,0.3-0.6,0.5c-0.4-0.1-0.8-0.1-1.2-0.2c-0.6-1.3-0.5-2.7-0.7-4c-0.2-0.2-0.2-0.4-0.4-0.6c0-0.2-0.1-0.6-0.1-0.8
		c-0.2-0.7-0.6-1.2-0.8-2v-0.1c-0.2-0.2-0.3-0.1-0.5-0.5c-0.9,0.5-1.4,0.1-1.9-0.5C5.1,26,4.8,26,4.6,26.2c0-0.1,0-0.1,0-0.2
		c0.1-0.4,0.2-0.7,0.2-1.1c0.5-0.2,1.1-0.5,1.6-0.7c-0.2-0.1,0,0-0.2-0.1c1-0.7,1.9-2.8,2.2-3.7c0.1-0.4-0.2-0.5,0.2-0.9
		c-0.1-0.2-0.2-0.2-0.3-0.4c0.1-0.3,0.2-0.6,0.3-0.9c0.8,0.2,3.2-0.7,3.3-0.7c0.2-0.2,0.3-0.5,0.7-0.7c0.2-0.1,0.5-0.2,0.7-0.2
		c0.5-0.4,0.9-2,2-1.9c0.2,0,0.1,0,0.2,0.1c-0.2,0.7-0.3,1.6-0.5,2.4c0.3,0.6,0.4,2,0.7,2.4c0.1,0,0.3,0.1,0.4,0.2
		c0.2,0.2,0.1,0.8,0.2,1c0.5,0.6,1.1,1.5,1.5,2c0.1,0.2,0.1,0.4,0.2,0.7c0.1,0,0.2,0,0.3,0.1c0.1,0.2,0.1,0.3,0.1,0.5
		c0.2,0.2,0.4,0.1,0.7,0.3c-3.2,0.4-5.6-4.1-8.6-0.4l0.1,0.1c1.6-1.7,3.2-1.1,4.4,0.3c0.3,0.3,0.9,1,0.9,1.4c0.2,1-0.5,2.7,0.2,3.7
		c0.7,1.2,2.1,2,2.8,2.9c0.8-0.2,2,0.2,2.9,0.2c1.1-0.1,3.3-2.8,4.1-3.3c-0.2-0.2-0.2-0.5-0.4-0.7c0.6-0.7,0-1.9,0.5-2.4
		c0.4-0.2,0.9-0.2,1.4-0.4c0,0-0.1,0-0.2,0c-0.1-0.1-0.2-0.1-0.2-0.2c0,0,0,0,0-0.1c0.2-0.1,0.2-0.2,0.4-0.2
		c-0.2-0.1-0.4-0.2-0.6-0.2c-0.4-0.3-0.7-0.6-1.1-0.9c-0.2-0.3-0.2-0.8-0.3-1.1c-0.2-0.4-0.6-0.8-0.9-1.3c0.1-0.2,0.2-0.2,0.3-0.4
		c-0.3-0.2-0.5-0.2-0.7-0.7v-0.1c0.1-0.1,0.2-0.1,0.2-0.2c-0.5-0.5-0.7-1-1-1.2c0.1-0.1,0.2-0.2,0.3-0.3c-0.5-0.4-1.2-1.3-1.1-2
		c-0.3-0.3-0.7-0.7-1-1.1c0-0.2-0.1-0.5-0.1-0.7c-0.2-0.4-2-2.4-2.3-2.7c-0.2-0.2-0.6-0.3-0.8-0.4c-0.2-0.3-0.4-0.7-0.6-1.1
		c-0.3-0.4-2.2-1.5-2.8-1.5c-1.5-0.3-6.3,1.6-7.7,2.4c-1.6,1-2.7,1.6-3.8,2.6c-0.2,0.3-0.4,0.7-0.7,1c-0.3,0.3-0.8,0.2-1.1,0.6
		C0.1,17.8-0.7,24.9,0.8,28.5"/>
</g>
</svg>
