<?xml version="1.0" encoding="utf-8"?>
<!-- Generator: Adobe Illustrator 27.9.0, SVG Export Plug-In . SVG Version: 6.00 Build 0)  -->
<svg version="1.1" id="Layer_1" xmlns="http://www.w3.org/2000/svg" xmlns:xlink="http://www.w3.org/1999/xlink" x="0px" y="0px"
	 viewBox="0 0 100 100" style="enable-background:new 0 0 100 100;" xml:space="preserve">
<g>
	<path d="M61.5,28.1c0.1-0.1,0.2-0.3,0.3-0.4c0.7-0.9,1.5-1.9,1.9-3.1c0.8-1.8,1-4.4-1.6-4.5c-0.3,0-0.4,0.1-0.5,0.3
		c0.2,0.3,0.3,0.7,0.3,1.1c0.1,0.8-0.2,1.7-0.7,2.3c-1.7,2.2-2.8,4.8-3.1,7.8c-0.4,3-0.7,6.3-0.5,10.5c0.9-5.8,2.3-11.8,4.1-14.1
		C61.5,28.1,61.5,28.1,61.5,28.1z"/>
	<path d="M57.9,47.3c0.5-1.3,1.2-2.9,1.3-3.6c0.1,0,1.9-5.3,1.1-7.6c-0.1-0.1-0.1-0.2-0.1-0.3c2.5-4.5,2.6-5.1,2.3-6.7
		c0-0.1-0.1-0.2-0.1-0.3C60.3,31.5,58.5,39.8,57.9,47.3L57.9,47.3z"/>
	<path d="M48.2,53.5c0,0.3,0,2.9,0.1,3.7c0,0.1,0,0.3,0.1,0.3c-1.5,6.2-5.8,9.6-13.3,14.1c-0.1,0.1-0.1,0.1-0.1,0.3
		c0.1,1.7,7.1,9.5,9.9,7.9c13-6.9,15.1-4.8,17.2-16.9c0.3-1.6,3-12.4,3.3-14.2c0.1-0.5,0.1-1,0.1-1.4c-0.2-3.1-2.7-4.8-3.5-1.8
		c-0.9,3.1-1.5,3.5-1.9,5.5c-0.2,0.9-0.5,4.5-1.3,6.3c-1.1-5.2-1.7-9.5-2-13.1c-0.3-4.9-0.1-8.8,0.5-12.6c0.4-3,1.4-5.8,3.4-8.3
		c0.5-0.5,0.6-1.1,0.5-1.7c-0.1-1.4-1.7-2.4-2.8-0.9c-0.3,0.4-1.1,1.3-1.3,1.5C49.4,30.2,49,40,48.2,53.5"/>
</g>
</svg>
