<?xml version="1.0" encoding="utf-8"?>
<!-- Generator: Adobe Illustrator 27.8.1, SVG Export Plug-In . SVG Version: 6.00 Build 0)  -->
<svg version="1.1" id="Layer_1" xmlns="http://www.w3.org/2000/svg" xmlns:xlink="http://www.w3.org/1999/xlink" x="0px" y="0px"
	 viewBox="0 0 100 100" style="enable-background:new 0 0 100 100;" xml:space="preserve">
<g>
	<path d="M66.7,13.5c0.1,0.1,0.2-0.1,0.2-0.2s0-0.2,0-0.2l-0.2-0.2c0,0,0.1,0.2,0.2,0.2C67,13.2,67,13,67,13l-0.2-0.3
		c0,0,0.2,0.2,0.3,0.2s0.1-0.2,0.1-0.2L67,12.2c0,0,0.2,0.2,0.3,0.3c0.2,0.1,0.2,0,0.2-0.1s0-0.2,0-0.2l0.2,0.1c0,0,0.1,0.1,0.1-0.1
		V12l0.1,0.1c0,0,0.1,0.2,0.2,0c0-0.2,0-0.2,0-0.2s0,0.1,0.1,0.2c0.1,0.1,0.2,0.1,0.4-0.1c0.1-0.2,0-0.2,0.1-0.2s0.1,0,0.2,0
		c0.1,0,0.1,0,0.2,0.1c0.1,0.1,0.1,0.1,0.2,0.2S69,12.2,69,12.2s0,0.2,0.1,0.2s0.1,0.1,0.2,0.2c0,0.2,0,0.1,0,0.2s0,0.1,0,0.2
		s0,0.3,0,0.4s-0.1,0.2-0.2,0.2c0,0,0,0.1,0,0.2c0,0.2-0.1,0.5-0.2,0.5c-0.2,0.1-0.2,0.5-0.2,0.5c0,0.2,0.1,0.5,0.1,0.5l0.6-0.2
		l-0.5,0.2c-0.1,0-0.1,0.2-0.1,0.2l0.2,0.1l-0.3,0.1v0.2l0.3,0h-0.5l-0.1,0.3c0,0.1,0.2,0.2,0.1,0.2s-0.4-0.2-0.4-0.2l-0.2,0.2
		l0.2,0.3c-0.1,0-0.4-0.2-0.4-0.2l0.2,0.5l-0.3-0.2l-0.2,0.1c0,0,0.4,0.5,0.3,0.5c-0.1,0-0.3-0.3-0.3-0.3v0.2c0,0,0.3,0.4,0.2,0.3
		c-0.1,0-0.4-0.5-0.5-0.5S66.6,17,66.6,17l-0.1-0.2l-0.2-0.1v0.2l-0.2-0.3h-0.2l0.2,0.5l-0.2-0.5c0,0.1-0.1,0.2-0.1,0.2l-0.1-0.3
		h-0.2v0.4l-0.4-0.5l-0.2-0.1l-0.1,0.8l-0.1-0.5c0,0-0.1,0-0.2-0.1c0-0.1,0-0.2,0-0.2l-0.2-0.1l0.8,0.8l-0.3-0.5l-0.1,0.2V17
		l-0.1-0.5h-0.3v0.3l-0.2-0.2c0,0-0.1,0-0.2,0.2c0,0.2-0.1,0.2-0.2,0.2c-0.2,0-0.2,0-0.2,0c0,0.1,0.5,0.5,0.5,0.5l-0.4-0.2h-0.4
		l0.1,0.4l0.2,0.2c0,0-0.3-0.2-0.4-0.3c-0.1-0.1-0.2-0.1-0.2-0.1v0.3l-0.3-0.5c0,0-0.2-0.1-0.2,0c-0.1,0,0.1,0.2,0,0.2
		s-0.2-0.2-0.2-0.2L62,17.2c-0.1,0,0,0.2-0.2,0.2s-0.2,0.2-0.2,0.2l0.6,0.7l-0.6-0.6l0.6,0.3c0,0-0.4-0.3-0.5-0.4s-0.2,0.1-0.4,0.3
		s0,0.4-0.1,0.8S61,19.5,61,20c-0.1,0.5-0.2,1.2-0.2,1.4s0,0.1,0,0.2s0,0.2-0.1,0.2c-0.1,0.2-0.1,0.2-0.1,0.3c0,0.1,0,0.3-0.2,0.5
		c-0.1,0.2-0.1,0.3-0.2,0.5c-0.1,0.2,0,0.2-0.1,0.3c0,0.2-0.2,0.2-0.2,0.2s-0.1,0.2-0.1,0.3s0,0.2-0.1,0.4c-0.1,0.2-0.2,0.4-0.2,0.5
		c-0.1,0.2,0.1,0.2,0,0.3c-0.1,0.2-0.1,0.1-0.1,0.2c0,0.2,0.1,0.2-0.1,0.2c-0.1,0.1-0.1,0.2-0.1,0.3c0,0.2,0.1,0.2,0,0.3
		c-0.1,0.2-0.2,0.2-0.1,0.2c0,0.1,0,0.2,0,0.2s-0.2,0.1-0.1,0.2c0.1,0.1,0,0.1,0,0.2c-0.1,0.1-0.1,0.1,0,0.2s0,0.2-0.1,0.2
		s-0.1,0.2-0.1,0.4s0.1,0.2,0,0.2c-0.2,0-0.1,0.2-0.1,0.2s0.1,0.1-0.1,0.2c-0.2,0.1,0,0.2,0,0.4c-0.1,0.2-0.1,0.2-0.2,0.2
		c-0.1,0-0.2,0-0.1,0.1c0.1,0.1,0.1,0,0,0.2s-0.1,0.2-0.1,0.3c0,0.2,0.1,0.1,0,0.2s-0.1,0.2-0.2,0.4c-0.1,0.2,0,0.2,0,0.2l0.6,0.1
		h-0.7l-0.1,0.3l0.3,0.2c0,0-0.3-0.2-0.4-0.1s-0.2,0.2-0.2,0.4s1-0.2,1-0.2l0.3-0.1c0,0-0.6,0-0.6,0.1s0,0.2-0.1,0.2
		C58,31.4,58,31.3,58,31.4c0.1,0.1,0.2,0.2,0,0.2c-0.1,0.1-0.2,0-0.2,0.2s0.2,0.2,0,0.3c-0.2,0.2-0.2,0-0.2,0.2
		c0.1,0.2-0.2,0-0.2,0.1s-0.1,0.2,0,0.3s0.2,0.2,0.2,0.2s-0.1,0.1-0.1,0.2c0,0.1,0.1,0.2,0.2,0.2c0.1,0,0.1,0.1,0.2,0s0-0.1,0.2-0.1
		s0.2-0.1,0.2-0.2c0-0.1,0-0.2,0-0.2l0.1,0.1v-0.4l0.2,0.1l0.2-0.2l-0.1-0.2H59V32h0v-0.4h0.2c0,0-0.1-0.2,0-0.2s0.2,0,0.2-0.2
		c0-0.1-0.1-0.1,0.1-0.1c0.2-0.1,0.2,0,0.2-0.1v-0.2l0.2,0.2c0,0,0-0.1,0-0.2s0.1-0.2,0.1-0.2s0.2,0,0.2-0.2v-0.2h0.2l0.1-0.2
		c0-0.2,0-0.2,0-0.2h0.2c0,0-0.1,0-0.1-0.2v-0.2h0.2c0,0,0,0,0-0.2s0-0.2,0-0.2l0.2-0.2c0,0,0.2,0,0.2-0.1s0.1-0.1,0-0.2
		s0-0.2,0-0.2h0.2c0,0,0,0,0.1-0.2s0.1-0.2,0.1-0.2s0.1,0,0.1-0.2v-0.1l0.2-0.1c0,0,0,0,0-0.2s0-0.2,0-0.2h0.2c0,0,0.1,0,0-0.2
		c-0.1-0.1,0-0.2,0-0.2s0.2,0,0.2-0.2c0.1-0.2,0-0.2,0-0.2L62,27.1v-0.2c0,0,0.2,0,0.2-0.1c0.1-0.2,0.1-0.2,0.2-0.2
		c0.1-0.1,0-0.1,0.2-0.2c0.1,0,0.1-0.2,0.2-0.2C62.9,26,62.9,26,63,26c0.1,0,0.1,0,0.1-0.1c0-0.2,0-0.3,0-0.3s0.1,0,0.2-0.1
		c0.2-0.1,0.1-0.1,0.1-0.2c0-0.2,0.1-0.2,0.1-0.2s0.1,0.1,0.2-0.1c0.1-0.2,0.1-0.2,0.1-0.3s0.1,0,0.1-0.1s0.1-0.1,0.1-0.1h0.2v-0.3
		l0.2,0.1L64,24.2l0.1-0.1v-0.2h0.2c0,0,0.1,0,0.1-0.1c0-0.2,0-0.2,0-0.2h0.2c0,0,0.3-0.3,0.8-0.8c0.5-0.4,0.3-0.3,0.5-0.5
		c0.2-0.1,0.2-0.2,0.3-0.2c0.2-0.1,0.3-0.1,0.3-0.1s0.1-0.1,0.2-0.1c0,0,0.2-0.2,0.4-0.4c0.2-0.2,0.5-0.3,0.8-0.5
		c0.6-0.2,0.8-0.2,0.9-0.3c0.2-0.1,0.5-0.2,0.5-0.2l0.1-0.3c0,0,0,0.1,0,0.2c0,0.2,0,0.2,0.2,0.2c0.2,0,0.3,0,0.5,0
		c0.2,0,0.4,0,0.5,0.1s0.2,0.1,0.2,0.1c0.1,0,0.2,0.1,0.2,0.2c0.1,0.1,0.1,0.2,0.2,0.1C71,21.3,71,21.2,71,21.2s0,0.1,0.1,0.2
		c0,0.1,0,0.2,0.1,0.2l0.1-0.1c0,0-0.1,0.2,0,0.2c0,0.1,0.1,0.2,0.2,0.2s0.2,0,0.2-0.2s0.1-0.3,0.1-0.3s-0.1,0.3,0.1,0.3
		c0.1,0,0.2-0.2,0.2-0.2l0.2-0.2c0,0,0,0.2-0.2,0.2c-0.2,0-0.4,0.2-0.4,0.3s0,0.2,0,0.2s0.1,0.1,0.2,0c0.2,0,0.2-0.1,0.2-0.1
		c0.1,0,0.5-0.2,0.5-0.2s-0.2,0.2-0.3,0.2c-0.1,0.1-0.2,0.1-0.2,0.2c-0.1,0.1,0,0.2,0.2,0.2c0.1,0,0.3-0.1,0.4-0.1s0.8-0.1,0.8-0.1
		s-0.6,0.2-0.7,0.2c0,0.1,0.1,0.1,0.2,0.2c0.1,0.1,0.1,0.1,0.2,0.2s0.1,0.2,0.2,0.1c0.1-0.1,0.2-0.1,0.2-0.1l0.2-0.2
		c0,0-0.2,0.1-0.2,0.2s0,0.2,0.2,0.1c0.2,0,0.3-0.1,0.3-0.1s-0.2,0.1-0.2,0.2c0,0.2,0.2,0.2,0.3,0.2s0.2,0.2,0.2,0.2s0,0.1,0.2,0.1
		c0.2,0,0.3,0,0.3,0s-0.2,0-0.1,0.2c0.1,0.2,0.1,0.2,0.2,0.2s0,0,0.2,0c0.1,0.1,0.2,0.1,0.2,0s0-0.2,0-0.2l0.1,0.3l0.2,0.1
		c0,0,0-0.2,0.1-0.2s0.2-0.2,0.2-0.2s-0.3,0.2-0.2,0.3C75.9,24.1,76,24,76,24s0-0.2,0.1-0.3c0.1-0.2,0.2-0.2,0.2-0.2
		s-0.2,0.2-0.1,0.4c0,0.2,0.2,0.2,0.3,0.2c0.1,0,0,0,0.2,0c0.2,0,0.2,0,0.2,0.1c0.1,0,0.3,0.1,0.5,0.1h0.2l0.2-0.2
		c0.1,0,0.1,0,0.1,0s-0.2,0.1-0.2,0.2c0,0.2,0.3,0.2,0.3,0.2c0.1,0,0.2-0.4,0.3-0.5s0.5-0.7,0.5-0.7s-0.2,0.3-0.3,0.5
		c-0.2,0.3-0.2,0.5-0.3,0.5c0.5,0.1,0.5,0.2,0.5,0.2s0.2,0,0.4-0.1s0.2-0.1,0.3-0.1c0.1,0,0.6-0.3,0.6-0.3s-0.6,0.4-0.7,0.5
		s-0.1,0.2,0.1,0.2c0.1,0,0.2,0,0.2,0c0.1-0.1,0.1-0.1,0.2-0.1c0.2,0,0.1,0.1,0.2,0l0.2-0.2c0,0-0.2,0.1-0.1,0.2
		c0.1,0.2,0.2,0.2,0.2,0.1c0.2-0.1,0.2-0.5,0.2-0.5s-0.1,0.3,0,0.4s0.2,0.1,0.2,0c0.3,0,0.3-0.1,0.3-0.1s0.1,0,0.2-0.1
		c0.1-0.1,0.2-0.2,0.2-0.2l-0.2,0.5c0.1,0.1,0.3,0,0.4-0.1c0.1-0.1,0.1-0.2,0.1-0.3s-0.1-0.2-0.1-0.2s0.1,0.2,0.2,0.3
		c0.1,0.2,0.2-0.1,0.2-0.1l-0.1-0.5c0,0,0,0.4,0.2,0.4c0.2,0.1,0.1-0.1,0.2-0.1c0.2,0,0.1,0,0.1-0.1c0-0.2,0-0.2,0.2-0.2
		c0.1-0.2,0.2-0.2,0.2-0.2L82,23.3c0,0,0.1-0.1,0.1-0.2v-0.2l0.1,0.1c0,0,0.1,0.1,0.1-0.2v-0.2l0.2-0.1c0,0,0.1,0,0.1-0.1
		s0-0.1,0.1-0.1c0.2,0,0.2,0.1,0.2-0.1c0.1-0.2,0-0.2,0.2-0.2c0.1,0,0.4-0.1,0.5-0.1c0.1,0,0.1,0.1,0.2-0.1s0.1-0.2,0.3-0.2
		c0.2,0,0.2-0.1,0.5-0.1c0.3,0,0.3-0.2,0.5,0c0.2,0.2,0.3,0.3,0.2,0.3C85,22,85,22.2,85,22.5s0,0.7-0.5,1.3c-0.5,0.6-0.8,0.9-0.9,1
		s-0.2,0.1-0.2,0.2s0,0.2-0.2,0.2c-0.1,0.1-0.1,0-0.2,0.1c-0.1,0.2-0.1,0.2-0.2,0.2s-0.1,0-0.2,0.2c0,0.2,0.1,0.2-0.1,0.2
		c-0.2,0-0.2-0.1-0.2,0c0,0.2,0.1,0.2-0.1,0.2c-0.1,0-0.2,0-0.2,0.1s0.1,0.2,0.2,0.2c0.1,0.1,0.1,0.2,0.1,0.2s-0.2-0.1-0.2-0.2
		c-0.2-0.1-0.2-0.1-0.2-0.1s0,0.1,0,0.2c0.1,0.2-0.1,0.3-0.2,0.2c-0.2,0-0.2,0-0.2,0s0.1,0.2,0,0.1l-0.2-0.1c-0.1,0-0.2-0.1-0.2,0
		c-0.2,0.2-0.1,0.2-0.2,0.2c-0.2-0.1-0.2,0.1-0.4,0.1c-0.2,0-0.3-0.1-0.3,0s0.2,0.3,0.2,0.3s-0.2-0.2-0.4-0.2c-0.2,0-0.3,0-0.5-0.1
		c-0.2-0.1-0.2-0.2-0.2-0.2l0.2,0.5c-0.1,0-0.2-0.2-0.2-0.2c0-0.1-0.1-0.1-0.2-0.2s-0.2-0.1-0.3-0.1s-0.1,0-0.2,0
		c-0.1-0.1-0.1-0.1-0.2-0.2c-0.1-0.2-0.1-0.1-0.1-0.1l-0.2,0.2c0,0,0.1-0.2,0-0.3c-0.1-0.1-0.2-0.2-0.2-0.1v0.3c0,0-0.1-0.1-0.1-0.2
		c-0.1-0.1,0-0.2-0.2-0.2c-0.1,0-0.1,0-0.2-0.1c0-0.1-0.1-0.2-0.1-0.2s-0.2-0.1-0.2,0s0.1,0.5,0.1,0.5L77,25.9c-0.1,0,0,0.3,0,0.3
		s0-0.3-0.2-0.3c-0.2-0.1-0.3,0-0.3,0v0.4V26c0,0-0.2,0-0.3,0H76c0,0-0.1,0.3-0.1,0.2v-0.3c0,0-0.2-0.1-0.2,0v0.5L75.6,26l-0.1,0.2
		l-0.3,0.5c0,0,0.2-0.5,0.2-0.7s-0.2-0.2-0.4-0.2c-0.2,0-0.4,0.2-0.5,0.2h-0.2c0,0-0.1,0.1,0.2,0.2c0.2,0.1,0.3,0.2,0.3,0.2
		s-0.3-0.1-0.5-0.2c-0.2-0.1-0.2-0.1-0.3-0.1c-0.2,0-0.2,0.1-0.2,0.1s0.1,0.2,0.2,0.4c0.1,0.2,0.2,0.2,0.2,0.2s-0.2-0.2-0.3-0.3
		c-0.2-0.2-0.2-0.2-0.2-0.2h-0.2c0,0,0.2,0.4,0.3,0.5c0.2,0.1-0.1,0-0.3-0.2c-0.2-0.2-0.3-0.2-0.4-0.3c-0.1,0-0.2-0.1-0.2-0.1
		c0,0.1,0.1,0.7,0.1,0.7s0-0.5-0.2-0.6c-0.2-0.1-0.2,0-0.2,0l0.1,0.3c0,0-0.2-0.2-0.2-0.4c0-0.2-0.2-0.3-0.3-0.4s-0.1-0.1-0.1-0.2
		c-0.1-0.1-0.1,0-0.2-0.1c0-0.1,0-0.1-0.2-0.2c-0.2,0-0.2,0.1-0.2,0C72.3,25.1,72,25,72,25c0-0.1-0.1-0.1-0.2-0.1l0.1,0.6
		c0,0-0.2-0.3-0.2-0.5c-0.1-0.2,0-0.2-0.1-0.2s-0.1,0-0.2-0.1c-0.1-0.1-0.2-0.1-0.2-0.1c-0.1,0-0.2,0.1-0.2,0.1s0,0.2,0,0.4
		c0,0.1,0.2,0.6,0.2,0.6S71,25.1,71,25c0-0.2,0-0.2,0-0.2c-0.1,0-0.2,0.1-0.2,0.1L70.6,25l0.1,0.8L70.5,25c0,0-0.3,0.1-0.4,0.1
		s-0.2-0.1-0.1,0c0,0.1,0.1,0.3,0.1,0.3s-0.1-0.2-0.2-0.3C69.8,25,69.7,25,69.7,25s0,0.2-0.3,0.7c-0.2,0.5-0.5,1-0.6,1.1
		s0,0.1-0.1,0.2c-0.1,0.2,0,0.2-0.2,0.2c-0.1,0.1-0.2,0-0.2,0.2s-0.2,0.3-0.2,0.4c-0.1,0.1-0.7,0.9-0.8,1.1s-0.1,0.2-0.2,0.3
		c-0.1,0.2-0.4,0.4-0.4,0.4s-0.1,0.2-0.2,0.2c-0.2,0.2-0.2,0.2-0.4,0.5c-0.2,0.2-0.1,0.2-0.2,0.3c-0.2,0.2-0.1,0.2-0.2,0.2
		c-0.1,0-0.2,0.2-0.2,0.2c-0.1,0.1,0,0.1-0.1,0.2c-0.2,0.1,0,0.1-0.1,0.3c-0.2,0.3-0.2,0.3-0.3,0.3c-0.2,0.1-0.1-0.1-0.2,0.1
		c-0.1,0.2-0.1,0.2-0.2,0.2c-0.1,0.1-0.1-0.1-0.2,0.1c-0.1,0.2,0,0.2-0.1,0.2s-0.2,0-0.2,0.1c0,0.2,0.2,0.1,0,0.2
		c-0.1,0.1-0.1,0-0.2,0.2c0,0.1,0,0.1-0.2,0.2c-0.1,0-0.3,0.2-0.3,0.3c-0.1,0.2,0,0.2-0.1,0.2s1.1,0,1.1,0s-1.2,0-1.3,0.2
		S63,34,62.9,34c-0.2,0.1-0.2,0.2-0.2,0.2l1.2-0.2c0,0-0.9-0.2-0.9-0.1c-0.1,0.2-0.2,0.2-0.2,0.2c0.1,0.1,0.5,0.5,0.5,0.5
		s-0.5-0.3-0.6-0.3s-0.2,0-0.2,0.1s-0.2,0.1-0.2,0.1c0,0.2,0,0.2-0.2,0.2s-0.2,0.2-0.2,0.2s0.8,0.5,1.1,0.6c0.2,0.1-0.1,0-0.5-0.2
		c-0.3-0.2-0.6-0.4-0.7-0.3c-0.2,0.2-0.2,0.2-0.2,0.3c-0.1,0.1-0.2,0-0.3,0.1s-0.1,0.2-0.1,0.2s0,0.3-0.2,0.3
		c-0.2,0.1-0.2,0.2-0.2,0.3c-0.1,0.1-0.2,0.2-0.2,0.2c0,0.1-0.2,0.2,0.3,0.3c0.4,0,0.6-0.1,0.8-0.2c0.2,0,0.2-0.1,0.2,0.1
		c0,0.2,0,0.2,0.2,0.3s0.3,0.2,0.5,0s0.3-0.3,0.5-0.2s0.2,0.2,0.3,0.2s0.2,0.2,0.2,0.1c0.1-0.1,0.1-0.2,0.1-0.3s0-0.3,0.2-0.4
		c0.1-0.1,0.2,0,0.2-0.2s-0.2-0.1,0-0.2c0.2-0.1,0.2,0,0.2-0.2c0-0.1,0-0.1,0.2-0.2c0.2,0,0.2-0.1,0.2-0.2s-0.1-0.2,0-0.2
		c0.2,0,0.2,0,0.2-0.2s0-0.2,0.2-0.2c0.1,0,0.1,0.2,0.2,0s0-0.2,0.1-0.2c0.1,0.1,0.2,0,0.2-0.2s0.2-0.3,0.3-0.3s0.2,0,0.2-0.2
		s0.1-0.3,0.2-0.2c0.1,0.1,0.3,0,0.2-0.2c0-0.2,0.1-0.2,0.1-0.2s0.2,0,0.2-0.2c0.1-0.2,0.1-0.2,0.2-0.2c0.1,0,0.1,0.1,0.2-0.1
		c0-0.2-0.1-0.2,0.1-0.2s0.2-0.1,0.2-0.2c0.2-0.2,0.1-0.1,0.2-0.2c0.2-0.2,0.2-0.2,0.3-0.2c0.1-0.1,0.1,0,0.2-0.1
		c0.1-0.1-0.2,0.4-0.1,0.2c0.1-0.1,0-0.2,0.2-0.2c0.2-0.1,0.7-0.4,1.1-0.8c0.5-0.4,0.9-0.6,1.1-0.6c0.2,0,0.4-0.2,0.6-0.2
		c0.2-0.1,0.3,0,0.5-0.1c0.2-0.1,0.2-0.2,0.4-0.2s0.2,0.1,0.2,0c0.1,0.1,0.2,0.1,0.3,0.1c0.2,0,0.3-0.1,0.5-0.2
		c0.2-0.1,0.3-0.1,0.5,0c0.2,0.1,0,0.2,0.3,0.2c0.3-0.1,0.5-0.2,0.5-0.2c0.2,0,0.4,0.1,0.5,0.1c0.1,0,0.8,0,1,0c0.2,0,0.5,0,1,0.2
		s0.5,0.1,0.5,0.1s0.1-0.2,0.2-0.5c0.1-0.2,0.2-0.2,0.2-0.2s-0.2,0.3-0.2,0.5s0,0.3,0,0.3l0.3,0.1c0,0,0.1-0.1,0.3-0.2
		s0.5-0.2,0.5-0.2s-0.4,0.1-0.5,0.2s-0.4,0.2-0.3,0.2c0.2,0.1,0.2,0.1,0.2,0.2c0.2,0.2,0.2,0.2,0.2,0.2c0.1,0,0.1-0.1,0.1,0
		S78.2,31,78.4,31c0.2,0,0.3,0,0.3,0s0.5,0.1,0.7,0.2c0.1-0.2,0.1-0.2,0.1-0.2s-0.8-0.2-0.8-0.1s0.1,0.2,0.2,0.2s0.1,0.1,0.1,0.1
		c0.1,0,0-0.1,0.1,0c0.1,0.2,0,0.1,0.1,0.2c0.1,0,0.1,0.1,0.3,0.2c0.5,0.5,0.9,1,0.9,1.1s0.1,0.3,0.2,0.3s0,0,0.3,0.1
		c0.3,0,0.6,0.2,0.6,0.2c-0.1,0-0.5-0.1-0.5-0.1c0,0.1,0,0.2,0.1,0.3l0.3,0.3c0.1,0.1,0.2,0.2,0.2,0.2c0.1,0,0.1,0.1,0.2,0.2
		c0.1,0.1,0.1,0.2,0.1,0.2c0.1,0,0.1,0,0.1,0.1c0.2,0,0.1,0,0.2,0.1c0,0.1,0.1,0.2,0.2,0.3c0.2,0.1,0.1,0.1,0.2,0.2
		c0.1,0.1,0,0,0.2,0.2c0.2,0.1,0.2,0.1,0.2,0.2c0.1,0.1,0.2,0.2,0.2,0.3c0.1,0.1,0.2,0.2,0.3,0.2c0.1,0,0.1,0,0.2,0.1
		s0.1,0.2,0.2,0.2c0.1,0.1,0.2,0.1,0.2,0.2c0.1,0.1,0.2,0.2,0.3,0.3c0.1,0.1,0.1,0.1,0.2,0.2c0,0.1,0,0.1,0.2,0.2
		c0.2,0.2,0.3,0.2,0.3,0.2c0,0.1,0,0.2,0.2,0.3c0.2,0.2,0.2,0.2,0.2,0.2c0,0.1,0.3,0.2,0.4,0.3c0.1,0.1,0.1,0,0.1,0.2
		s0.1,0.1,0.2,0.2c0.2,0.1,0.1,0.1,0.1,0.2c0,0.1,0.2,0.2,0.2,0.2c0.1,0.1,0,0.1,0.2,0.2c0.1,0,0.1,0.1,0.2,0.1
		c0.1,0.1,0,0.3,0.2,0.4c0.1,0.1,0.1,0.1,0.1,0.2c0,0.1,0.1,0.2,0.2,0.2c0.1,0,0-0.1,0.1,0c0.1,0.1,0.1,0.1,0.2,0.1s0.1,0.1,0.1,0.1
		c0,0.1,0.2,0.3,0.2,0.3c0.1,0,0.1,0,0.2,0.1l0.4-0.3c0,0-0.4,0.2-0.3,0.3c0,0.2,0.2,0.2,0.2,0.2c0.1,0,0-0.1,0.2,0l0.3,0.2
		c0,0,0.2,0,0.2-0.2s-0.1-0.2,0.1-0.2C88.8,40,89.1,40,89.2,40c0.2,0,0,0.1,0.3,0H90c0,0-0.3,0.1-0.5,0.2c-0.2,0.1-0.1,0.1-0.2,0.1
		c-0.2-0.1-0.1-0.1-0.2-0.1c-0.2,0-0.2,0.2-0.2,0.2c0,0.1-0.2,0.2-0.2,0.2h-0.2c0,0,0.2,0.2,0.3,0.2c0.1,0,0.1-0.1,0.2,0.1
		c0,0.1,0,0.1,0,0.1c0.1,0,0.1,0,0.2,0.1c0,0.1,0,0.2,0.1,0.2c0.1,0,0.2,0,0.2,0.1c0.2,0.1,0.2,0.1,0.2,0.2c0.1,0.1,0.1,0.2,0.2,0.2
		c0.1,0,0.2,0.1,0.2,0.2c-0.1-0.1,0,0,0.1,0c0.1,0.1,1.2-0.2,1.1-0.2c-0.1,0-1.1,0.2-1.1,0.2c0.1,0.1,0.2,0.2,0.2,0.2
		c0.1,0,1.1-0.1,1-0.1c-0.1,0-1.1,0.1-0.9,0.2c0.2,0.1,0.2,0.1,0.2,0.2c0.2,0.2,0.3,0.2,0.3,0.2s0,0.2,0.1,0.2
		c0.1,0.1,0.2,0.1,0.2,0.1c0.2,0,0.1,0,0.2,0.1c0.1,0.2,0.2,0.2,0.3,0.2c0.1,0.1,0.2,0.1,0.2,0c0-0.1,1.1-0.3,1.1-0.3
		s-1.3,0.1-1.2,0.2c0.1,0.2,0.2,0.3,0.4,0.3c0.2,0,0.2,0,0.3,0c0.2,0,0.2,0.1,0.1,0.1c-0.2,0-0.2,0-0.2,0.2c0.1,0.2,0.1,0.2,0.2,0.1
		c0.1,0.1,0.1,0.1,0.3,0c0.2-0.1,0.5,0,0.5,0s-0.5,0-0.5,0.2s0,0,0,0.1c0,0.1-0.1,0.1,0.1,0.2c0.2,0.1,0.2,0.1,0.2,0.1h0.3
		c0,0-0.3-0.1-0.2,0.1c0.1,0.1,0.2,0.1,0.2,0.2c0,0.1,0,0.1,0.2,0.1c0.2,0,0.4,0.1,0.5,0.1c0.2,0,0.3,0,0.3,0s-0.4,0-0.5,0
		c-0.2,0-0.2,0-0.2,0.1c0.1,0.1,0,0.1,0.2,0.1c0.1,0,0.3,0.2,0.2,0.2C94.2,45.1,94,44.9,94,45s0,0.1,0.1,0.1s0.3,0,0.3,0
		s-0.2,0-0.3,0.1c0,0.1,0.2,0.2,0.3,0.2c0.1,0,0.1,0,0.2,0.1s0.2,0.2,0.2,0.2l0.2-0.3c0,0-0.1,0.3,0,0.4c0.1,0.1,0.4,0.2,0.5,0.2
		s0.2,0,0.2,0c0.1,0,0.1,0.1,0.2,0.1c0.1,0,0.1,0,0.2,0.1s0,0.1,0.2,0.1c0.2,0,0.2,0.1,0.3,0.1s0.2,0.1,0.2,0.1
		c0,0.1,0.2,0.2,0.2,0.2c0.1-0.1,0.2-0.1,0.2,0s0,0.2,0.2,0.2c0.2,0,0.2,0,0.2,0l0.8-0.5l-0.8,0.5c0,0,0.1,0.2,0.2,0.1
		c0.1,0,0.2,0,0.2,0l0.8-0.4c0,0-0.7,0.3-0.6,0.4c0,0.1,0.1,0.2,0.2,0.2c0.2,0,0.2,0.1,0.2,0.1s0.1,0.1,0.2,0.1h-0.1l-0.2,0.2
		c0,0,0.3-0.2,0.5-0.2c0.2,0,0.3,0,0.3,0l-0.4,0.2c0,0,0.2,0.2,0.3,0.2s0.2-0.1,0.2-0.1s-0.2,0.2-0.1,0.2h0.1c0,0-0.1,0.2,0,0.2l0,0
		v0.2c0,0,0.2,0.2,0.3,0.2s0.2-0.1,0.3-0.1c0.2,0.1,0.2,0.2,0.3,0.2c-0.1,0-0.1-0.1-0.2,0s-0.1,0,0,0.2s0.1,0.2,0.1,0.4
		s0.1,0.2-0.2,0.2c-0.2,0-0.1,0.2-0.5,0.3c-0.5,0.2-1,0.3-2-0.2s-1.8-1.1-2-1.1h-0.2v-0.1c0,0-0.3-0.2-0.5-0.2
		c-0.2-0.1-1.3-0.5-1.4-0.6c-0.2-0.1-0.2,0.8-0.2,0.8L93,47.4h-0.1v1l-0.1-0.7l0.2,0l-0.2,0.5l0.1-0.6h-0.1l-0.1,0.5l0.1-0.5h-0.1
		l-0.1,0.3l-0.1-0.5l-0.3-0.2l-0.1,0.5v-0.5L92,47.5v-0.4c0,0-0.8-0.5-1.5-1c-0.4-0.4-0.8-0.7-1.1-1c-0.2-0.2-0.5-0.4-0.6-0.5
		c-0.5-0.5-1.1-1-1.1-1.1c-0.1-0.1-0.1,0-0.2-0.2c-0.1-0.1-0.2-0.2-0.2-0.2v0.3c0,0-0.1-0.3-0.1-0.4c0-0.1-0.3-0.5-0.3-0.5
		s0,0.2,0,0.4s0,0.3,0,0.3s-0.1-0.5-0.1-0.8c0-0.2-0.2-0.2-0.2-0.2s0-0.2,0-0.4s-0.1,0.1-0.1-0.1c0-0.2-0.2-0.5-0.3-0.5
		c-0.2,0-0.2,0-0.2,0s0.1,0-0.1-0.2c-0.2-0.2-0.2-0.2-0.3-0.2c-0.1,0-0.4-0.1-0.6-0.2c-0.2,0-0.2,0-0.3-0.1c-0.1,0-0.1,0-0.2-0.2
		c-0.1-0.1-0.2-0.1-0.2-0.2C84.2,40,84.1,40,84.1,40c-0.1,0.1,0,0.2,0.1,0.4l0.2,0.2c0,0-0.3-0.5-0.4-0.5c-0.1,0-0.1,0-0.2-0.1
		c-0.1,0-0.1,0-0.2-0.1c-0.1-0.1-0.2-0.1-0.2-0.1l-0.1,0.5c0,0,0-0.5-0.1-0.5c-0.1,0-0.1,0-0.1-0.1s0-0.1,0-0.2
		c0-0.1-0.2-0.1-0.2-0.1v-0.2c0,0,0-0.1-0.1-0.1c-0.1-0.1,0-0.2-0.1-0.2h-0.2c0,0,0.1,0,0.1-0.2s0-0.2,0-0.2h-0.1h-0.2
		c0,0.1-0.1,0.2-0.1,0.2s0.1-0.2,0.1-0.3s-0.2-0.2-0.2-0.2h-0.2V38c0,0,0-0.1-0.1-0.1s-0.1,0.2-0.1,0.2v-0.3c0-0.1,0-0.2-0.1-0.2
		c-0.1,0-0.2,0-0.2,0v-0.2c0,0,0,0-0.1,0c-0.1,0-0.1,0-0.2-0.1c0-0.1-0.1-0.2-0.2-0.2l-0.2,0.2l0.1-0.2c0-0.2,0-0.2-0.1-0.2
		s-0.1,0.2-0.1,0.2v-0.2c-0.2,0-0.2,0.2-0.2,0.2v-0.3c0-0.1-0.2-0.2-0.2-0.2c-0.1,0-0.2,0.2-0.2,0.2s0.2-0.2,0.1-0.3
		c-0.1-0.2-0.2-0.2-0.2-0.3c0,0-0.1-0.1-0.1,0v0.2l-0.1-0.2l-0.2,0.3c0,0,0.1-0.3,0.1-0.5c0-0.1-0.3-0.2-0.3-0.2v0.5
		c0,0,0-0.5,0-0.6l-0.2-0.2c-0.1,0-0.1-0.1-0.1,0l-0.1,0.2c0,0,0-0.2,0-0.3s0-0.1-0.1-0.2c-0.1,0-0.2-0.1-0.2-0.1v0.2
		c0,0,0-0.3-0.1-0.4c-0.1-0.1-0.1-0.1-0.2-0.1c-0.1,0-0.1-0.2-0.1-0.2v0.5v-0.5c0-0.1-0.1-0.2-0.1-0.1S78,34.7,78,34.7
		s-0.1-0.1-0.1,0S77.8,35,77.8,35s0-0.3,0-0.4c0-0.1,0.1-0.1,0.1-0.2c-0.1-0.1-0.2-0.1-0.2-0.2c0-0.1-0.1-0.1-0.1-0.2h-0.2
		c0,0-0.2,0.4-0.2,0.3s0.1-0.4,0.1-0.5s-0.2-0.2-0.2-0.1L77,34.2V35c0,0-0.1-0.1-0.2-0.2c-0.1-0.1-0.2-0.2-0.2-0.1V35l-0.2-0.2
		l-0.2,0.5v-0.5L76,35.1v-0.3c0,0-0.1,0-0.2-0.1s-0.2-0.1-0.2-0.1c0-0.1-0.2-0.1-0.2-0.1s0.2,0.2,0,0.2c0.2,0.2,0.2,0.3,0.2,0.3
		l-0.3-0.3l-0.1-0.2c-0.2,0.1-0.2-0.1-0.3-0.2c0-0.1-0.1-0.2-0.2-0.2s-0.2-0.1-0.2-0.2c-0.1-0.1-0.1-0.1-0.2-0.2
		c-0.2-0.1-0.2,0-0.2,0c0.1-0.1,0.2-0.2-0.1-0.2c-0.2,0-0.2,0-0.2,0l-0.1-0.1h-0.2v-0.1h-0.2c0-0.1,0-0.2-0.1-0.2L73,33.3v-0.2
		c0,0-0.1-0.1-0.2,0s-0.2,0.2-0.2,0.2s0.2-0.2,0.1-0.2s-0.2-0.2-0.2-0.1c-0.1,0-0.2,0.1-0.2,0.1s0.1-0.1,0-0.2
		c-0.1-0.1-0.2-0.1-0.2-0.1V33c0,0-0.2,0-0.3,0c0,0-0.1,0.1-0.2,0.2c0,0-0.1,0.1-0.1,0.2c0,0.1,0,0.2-0.1,0.2s-0.2,0.2-0.4,0.3
		s-0.4,0.1-0.5,0.2c0,0.1-0.1,0.2-0.2,0.2c-0.1,0.1-0.1,0-0.2,0.1c0,0.1-0.1,0.2-0.2,0.2l-0.1,0.1c0,0,0,0.1-0.1,0.1s0,0.1-0.1,0.2
		c-0.1,0.1-0.1-0.1-0.2,0.1c-0.1,0.2,0,0.2-0.2,0.2c-0.1,0-0.2,0.2-0.2,0.2s0,0.1-0.1,0.1c-0.1,0.1-0.2,0.2-0.2,0.2
		C68.5,36,68.5,36,68.5,36s0,0.1-0.1,0.2c-0.1,0.1-0.1,0-0.1,0.1c-0.1,0.1-0.1,0.1-0.2,0.2c-0.1,0-0.1,0-0.2,0.1
		c0,0.1,0,0.1-0.1,0.2c-0.1,0.1-0.2,0.1-0.2,0.2c-0.1,0.1-0.1,0.1-0.2,0.1c-0.1,0.2-0.1,0.2-0.2,0.2s-0.1,0.1-0.2,0.2
		c0,0.1,0,0.2-0.2,0.2c-0.1,0-0.2,0-0.2,0c0,0.1,0.1,0.2,0.1,0.2h-0.2c-0.1,0.1-0.2,0.2-0.2,0.2c-0.1,0.2-0.1,0.2-0.1,0.2l0.3,0.2
		l-0.4-0.2l-0.2,0.1c0,0,0.2,0.2,0.2,0.3s0,0.1,0,0.1s-0.2-0.2-0.2-0.3s-0.1-0.1-0.1-0.1s-0.2,0-0.2,0.1s0,0.1,0,0.1
		c-0.1,0-0.1,0-0.2,0c-0.1,0-0.1,0-0.2,0c-0.1,0.1-0.2,0.2-0.2,0.2l0.8,0.8l-0.7-0.7c0,0-0.1-0.1-0.2-0.1c-0.1,0-0.1,0.1-0.2,0.1
		l-0.2,0.2l0.2,0.3l0.5,0.2l-0.5-0.2l0.2,0.2c0,0,0.2,0.2,0.3,0.2c0.1,0.1,0.5,0.4,0.5,0.4l-0.5-0.3c-0.1-0.1-0.2-0.2-0.2-0.2V39
		l-0.2-0.3l-0.2-0.3c0-0.1-0.2-0.3-0.2-0.4s-0.1-0.2-0.2-0.2c-0.1,0,0,0.2,0,0.2l0.2,0.3l0.5,0.2h-0.2l-0.2,0.1c0,0,0.1,0.2,0.2,0.2
		c0.1,0,0.2,0.1,0.2,0.1l4.1,0.4c0,0-0.2-0.2-0.4-0.3c-0.2-0.2-0.2-0.2-0.3-0.2l-0.2,0.1V39l0.2,0.5c0,0-0.3-0.5-0.4-0.5
		c-0.1,0-0.1,0-0.2,0l0.2,0.7c0,0-0.2-0.6-0.3-0.6s-0.2,0-0.2,0l0.1,0.2l-0.2-0.2l0.2,0.3c0,0-0.2-0.2-0.3-0.2l0.2,0.5l-0.2-0.3H67
		c0,0,0,0.2,0,0.3l-0.2-0.1l0.1,0.2l-0.2-0.2v0.2l-0.1-0.2c0,0-0.1,0.1-0.2,0.2L66.3,40c0,0,0-0.1-0.1-0.1s-0.2,0-0.2,0v0.2
		c0,0-0.1-0.1-0.2-0.1c-0.1,0-0.2,0-0.2,0s-0.1,0.1-0.2,0.1c-0.1,0-0.3,0.2-0.3,0.2l0.1-0.2c0-0.1-0.1-0.1-0.2-0.1
		c-0.1,0.1-0.2,0.1-0.2,0s-0.1-0.1-0.2-0.1c-0.1,0-0.2,0-0.2,0c-0.1-0.1-0.2,0-0.2,0L64,40.1c0,0.1,0.2,0.1,0.2,0.1
		c0,0.1,0.1,0.2,0.2,0.2c0.2,0.1,0.2,0.2,0,0.1c-0.2-0.1-0.2-0.1-0.3-0.1c-0.1,0-0.2,0-0.2,0l0.6,0.6c0,0,0.1,0,0.2,0
		c0.1,0.1,0.2,0.2,0.3,0.2c0.2,0,0.1,0,0.2,0c0.2,0,0.2,0,0.2,0c0.1,0,0-0.2,0.1-0.2c0.1-0.1,0.2-0.2,0.2-0.2L65.6,41
		c-0.1,0.1-0.1,0.2-0.1,0.2s0.1,0,0.2,0L65.6,41c0.1-0.2,0.2-0.2,0.2-0.2s0.1,0,0.2-0.1c0.1-0.1,0,0.1,0.1,0.1s0.2,0.1,0.2,0
		s0.1-0.1,0.2-0.1c0.1-0.2,0.1-0.1,0.1-0.1s0.1,0,0.2,0s0.2,0,0.2-0.1c0.1-0.1,0.1,0,0.2-0.1s0.2-0.1,0.2-0.1c0.1,0,0.2,0,0.3-0.1
		c0.1,0,0-0.2,0-0.2l0.2,0.2c0.1,0.1,0.1,0,0.2,0c0.2,0,0.2,0.1,0.3,0S68.3,40,68.3,40c0.1,0,0.4,0.1,0.5,0.1c0.2,0,0.2,0,0.2,0
		c0.1,0,0.1-0.2,0.1-0.2s-0.1,0.1,0,0.2c0.1,0,0.2,0.1,0.2,0c0.1-0.1,0.1-0.1,0.1,0s0.1,0.1,0.2,0.1c0.1,0,0.2,0,0.2,0
		c0.1,0,0.2-0.1,0.2-0.1l0.1,0.2H70h0.2v0.1c0,0,0.2,0.1,0.3,0.1s0.2,0.1,0.3,0.1c0.1,0,0.2,0,0.3,0.1c0.1,0,0.2,0,0.3,0.2
		c0.2,0.1,0.2,0.1,0.3,0.1c0.2,0,0.1,0.1,0.2,0.1c0-0.1,0.1-0.2,0.1-0.1s0.2,0.2,0.3,0.2c0.2,0,0.2,0,0.2,0.1c0.1,0,0.1,0,0.2,0.1
		c0.1,0,0.1,0,0.2,0.1c0.1,0,0.1,0,0.2,0.1c0,0.1,0.1,0.1,0.2,0.1s0.2,0.1,0.2,0.2c0.2,0.2,0.1,0.2,0.2,0.2c0.1,0.1,0.1,0.1,0.2,0.2
		c0.1,0.1,0.2,0.2,0.3,0.2c0.1,0.1,0,0.1,0.2,0.1c0.1,0,0.2,0,0.2,0.1c0.1,0,0.2,0.2,0.3,0.2c0.2,0.1,0.2,0.1,0.2,0.2
		c0.1,0.1,0.1,0,0.2,0.1c0.2,0.1,0.2,0.2,0.2,0.2s0,0.2,0.2,0.2c0.1,0,0.2,0,0.2,0c0.2,0.2,0.2,0.2,0.4,0.3c0.2,0.1,0.2,0.1,0.2,0.2
		c0.2,0.1,0.2,0.2,0.3,0.2c0.1,0.1,0.4,0.4,0.5,0.5c0.2,0.1,0.2,0.1,0.2,0.2c0.2,0.1,0.2,0.1,0.2,0.2c0.1,0.1,0.2,0.2,0.3,0.2
		c0-0.5,0-0.4,0.1-0.3c0.2,0.1,0.2,0.1,0.2,0.2c0.1,0.1,0.1,0,0.2,0.2c0.1,0.1,0.1,0.1,0.2,0.1c0,0,0,0,0.1,0.2
		c0.2,0,0.2,0.2,0.3,0.3c0.2,0.2,0.2,0.5,0.3,0.5c0.2,0.1,0.3,0.1,0.3,0.2c0,0.1,0.2,0.3,0.2,0.3s0.3,0,0.5,0
		c0.2,0.1,0.7,0.2,0.7,0.2s-0.6-0.2-0.9-0.2c-0.2,0-0.3,0.1-0.2,0.1c0.2,0.1,0.2,0,0.2,0.1s0.1,0.2,0.2,0.2c0,0.1,0.1,0.2,0.2,0.2
		c0.1,0,0.3,0,0.3,0l-0.1,0.1c0,0,0.1,0.1,0.2,0.1h0.9c0,0-1,0-0.9,0.1s0.2,0.2,0.2,0.2c0.1,0,0.1,0.1,0.1,0.1
		c0.1,0.1,0.2,0,0.2,0.1s0.9,0,0.9,0l-1,0.1c0,0,0.1,0.2,0.2,0.2c0.1,0,1.1,0,1.1,0s-1.1,0-1,0.1c0,0.1,0.2,0.2,0.2,0.2
		c0,0.1,0,0.1,0.2,0.2c0.2,0.1,0.2,0.2,0.3,0.2c0,0.1,1.3,0.2,1.3,0.2s-1.3-0.2-1.2,0c0.1,0.2,0.2,0.3,0.2,0.3s0,0.1,0.2,0.2
		c0.1,0,0.1,0.1,0.2,0.1l0.2,0.2C83,50,83.2,50,83.2,50.1s0.2,0.2,0.2,0.3c0.1,0.1,0.1,0.2,0.2,0.2c0.1,0,0.6,0,0.6,0
		s-0.5,0-0.5,0.1s0.3,0.4,0.4,0.5c0.1,0.1,0.2,0.1,0.2,0.2s0.1,0.2,0.2,0.2c0.1,0.1,0.2,0.2,0.3,0.2c0,0.1,0,0.2,0.2,0.2
		c0.2,0,0.2,0,0.2,0.1s0.1,0.2,0.2,0.3s0.2,0.2,0.3,0.2c0.2,0,0.8,0.5,0.8,0.5s-0.8-0.5-0.9-0.4c-0.1,0.1,0.1,0.2,0.2,0.3
		c0.1,0,0.2,0.1,0.2,0.1c0,0.1-0.1,0.2,0.1,0.2c0.2,0.2,0.2,0.1,0.2,0.2c0.2,0.1,0.2,0.2,0.2,0.3s0.2,0.2,0.2,0.2l0.1-0.2V54
		c0,0.1,0.2,0.2,0.2,0.3c0.1,0.2,0.2,0.1,0.2,0.1c0.1,0,0.1-0.1,0-0.2c0-0.2,0-0.1,0-0.1s0.1,0.2,0.1,0.3s-0.1,0.2-0.1,0.2
		s0,0.2,0.1,0.2c0.1,0.1,0.1,0.2,0.2,0.2c0.1,0.1,0.2,0.2,0.3,0.3s0.1,0.1,0.2,0.2s0,0.3,0.1,0.4c0,0.1,0.1,0.1,0.1,0.2
		c0,0.1,0.1,0.1,0.2,0.2c0.2,0.2,0.5,0.5,0.8,0.7c0.3,0.2,0.4,0.3,0.7,0.7c0.4,0.3,0.7,0.6,0.8,0.8c0.2,0.2,0.2,0.2,0.2,0.1
		c0-0.1-0.1-0.2-0.2-0.3c-0.1-0.1-0.2-0.2-0.2-0.2l0.3,0.3c0.2,0.2,0.2,0.2,0.4,0.3c0.2,0.1,0.4,0.2,0.5,0.2c0.1,0,0.1,0,0.2,0
		c-0.1,0,0.1,0.1,0.3,0.2c0.1,0,0.2,0.1,0.2,0.1S91.8,59,91.9,59c0.1,0,0.1,0.1-0.2,0c-0.3-0.1-0.5-0.3-0.8-0.3
		c-0.2,0-0.2,0-0.2,0.1s0,0.2,0.2,0.2h0.2l0.2,0.2l0.1-0.2l-0.2,0.3h0.4l0.1,0.2l0.5,0.1h0.2l0.5,0.1l-0.5,0.1c0,0,0.2,0.1,0.1,0.1
		s-0.1,0.2,0,0.2s0.7-0.1,0.6,0c-0.1,0-0.6,0-0.5,0.1c0,0.1,0.1,0.2,0.2,0.2c0.1,0,0.6-0.1,0.6-0.1s-0.5,0.1-0.5,0.2
		c0.1,0.1,0,0.2,0.2,0.2s0.8,0.1,0.8,0.1s-0.6,0-0.5,0.1c0.1,0.2,0.2,0.2,0.3,0.2s0.6,0,0.6,0s-0.2,0.1-0.3,0.1
		c-0.1,0-0.2,0-0.1,0.1c-0.1-0.3,0-0.3,0-0.3l0.1,0.2c0,0,0.2,0.1,0.3,0.1c0.1,0,0.4,0,0.4,0s-0.5,0-0.4,0.1
		c0.1,0.1,0.2,0.1,0.2,0.2c0.2,0,0.5,0.2,0.5,0.2c-0.1,0-0.5-0.2-0.4-0.1c0.1,0.1,0.1,0.2,0.2,0.2c0.1,0,0.4,0.1,0.5,0.2
		c0-0.1,0.1-0.1,0.1-0.1s-0.5-0.2-0.4,0s0.1,0.2,0.2,0.3s0.2,0.2,0.2,0.3c0,0.2,0.1,0.3,0.1,0.4c0.1,0.1,0.2,0.2,0.2,0.2
		c0.2,0,0.1,0,0.2,0c0.1,0.1,0.1,0,0.1,0s-0.2,0.1-0.1,0.2c0,0.1,0.1,0.2,0.2,0.2c0.1,0.2,0.2,0.1,0.2,0.2s0,0.1,0.2,0.1h0.6
		L96.6,64c0,0.1,0.2,0.2,0.2,0.2s0.3,0,0.4,0s0.7-0.1,0.6-0.1c-0.1,0-0.4,0.2-0.5,0.2c-0.2,0-0.2,0.1-0.2,0.1s0.1,0.2,0.2,0.2
		c0.1,0,0.2,0.1,0.2,0.1l0.1-0.2l0.1,0.2h0.5l-0.3,0.1l0.2,0.1c-0.1,0-0.2,0.1-0.2,0.1s0.1-0.1,0.2-0.1c0.2,0.1,0.3,0.1,0.3,0.1
		s0-0.2,0.1-0.1s0.2,0.2,0.2,0.3c0.1,0.1,0.2,0.1,0.2,0.1s0.1,0.1,0.2,0.2c0,0.1,0.1,0.1,0.2,0.2c0.1,0.1,0.2,0.2,0.4,0.2
		c0.2,0,0.1,0.1,0.2,0.1c0.1,0,0.1,0,0.1,0v0.2c0,0-0.1,0.1,0,0.1s0.2,0,0.2,0l-0.2,0.1c0,0,0.2,0.2,0.3,0.2c0.1,0,0.5,0,0.5,0
		l-0.2,0.1c0.2,0.2,0.2,0.2,0.2,0.2s0,0.2,0,0.3c0,0.2,0.1,0.1,0.1,0.2s-0.1,0.2,0,0.3c0.1,0.2,0.2,0.2,0.2,0.2s-0.1-0.1-0.1,0
		s0,0.2,0,0.2c0,0.1-0.1,0.1-0.2,0.1l-0.2,0.4c0,0,0,0-0.2,0c-0.2,0-0.2,0-0.2,0.2c-0.1,0.1-0.1,0.1-0.3,0.1c-0.5,0-0.8-0.1-1.4-0.2
		c-0.3-0.1-0.8-0.3-1.3-0.6c-0.5-0.3-0.9-0.6-1.3-0.9c-0.8-0.6-1.6-1.2-1.9-1.5l-0.5-0.4v0.2l-0.1-0.3l-0.1-0.3
		c-0.1-0.2,0.1-0.2-0.2-0.3c-0.2-0.1-0.2-0.1-0.2-0.1l0.3,0.6c0,0-0.2-0.5-0.3-0.6c-0.1,0-0.5-0.1-0.8-0.2c-0.5-0.2-0.7-0.5-0.7-0.5
		v0.5c0,0,0-0.5-0.1-0.5c-0.1-0.2-0.6-0.5-0.6-0.5v0.8l-0.1-0.8c0,0-0.5-0.5-0.7-0.7c-0.2-0.2-0.2-0.2-0.2-0.2l0.3,0.5
		c0,0-0.2-0.6-0.2-0.8c-0.1-0.2-1.1-1-1.1-1v0.2c0,0,0.2,0.2,0.1,0.2c0,0,0.2,0.2,0.2,0.4v0.2c0,0-0.2-0.3-0.3-0.5
		c-0.2-0.2,0-0.4-0.1-0.5c-0.1-0.2-0.2-0.2-0.2-0.2s-0.1,0.2,0,0.5c0.2,0.3,0.2,0.4,0.2,0.4s-0.2-0.5-0.3-0.7c0-0.2,0.1-0.3,0.1-0.3
		l-0.6-0.5c-0.3-0.3-0.8-0.8-1-0.9c-0.2-0.2-0.2-0.3-0.2-0.3c-0.1,0-0.2,0-0.2,0s0.1,0,0.1-0.2c0-0.1,0-0.2,0-0.3s-0.1-0.2-0.1-0.2
		c-0.1,0-0.2,0-0.2,0C86.1,58.5,86,59,86,59s0.1-0.5,0.1-0.7s0.2-0.2,0.1-0.2c-0.1-0.1-0.4-0.5-0.5-0.6c-0.2-0.1-0.2-0.1-0.2-0.2
		c0-0.1,0-0.1-0.2-0.1c-0.2,0-0.1,0-0.2-0.1s-0.1-0.2-0.2-0.2c-0.2,0-0.1,0-0.2,0c-0.1-0.1-0.2-0.1-0.2,0s0.1,0.2,0.1,0.2l0.1,0.1
		l-0.2-0.3c-0.1-0.2-0.3-0.3-0.3-0.3c-0.1,0-0.1-0.1-0.1,0s0,0.7,0.1,0.9l0.1,0.3c0,0-0.2-0.8-0.3-1.1c0-0.3-0.1-0.2-0.2-0.2
		c-0.1,0.1,0,0.5,0,0.5l-0.2-0.5l-0.2,0.1l0.1-0.2l-0.2-0.1c0,0-0.1,0.2,0,0.5c0.1,0.3,0.1,0.4,0.1,0.4s-0.2-0.7-0.2-0.9
		S83,56.1,83,56.1c-0.1,0-0.1-0.1-0.1-0.2c0-0.2-0.1-0.1-0.1-0.2c0-0.1-0.1-0.1-0.2-0.2c-0.1-0.2-0.2-0.2-0.2-0.1
		c0,0.1-0.1,0.5-0.1,0.5v-0.7c0,0-0.2-0.1-0.3-0.2c-0.1-0.1-0.1-0.1-0.2-0.2c-0.1-0.1-0.2-0.2-0.2-0.2v0.3v-0.3c0,0-0.1-0.1-0.2-0.2
		s-0.2-0.2-0.2-0.2v0.2l-0.1-0.2C81,54.2,81,54,80.9,54c-0.1-0.1-0.1-0.1-0.2-0.2c-0.1-0.1-0.1-0.1-0.1-0.1v0.5c0,0,0-0.5-0.1-0.5
		c-0.1-0.2-0.1-0.2-0.1-0.2s-0.1,0.1-0.1,0s-0.1-0.2-0.1-0.2c0,0.1,0,0.6,0,0.6s0-0.6,0-0.7c-0.1-0.1-0.2-0.5-0.4-0.5
		c-0.2-0.1-0.2-0.1-0.2-0.2c0-0.1-0.1-0.2-0.2-0.2s-0.1,0-0.1-0.1s0-0.1-0.1-0.2c-0.1,0-0.2-0.2-0.2-0.3c-0.1-0.1-0.1-0.1-0.2-0.1
		c-0.1-0.1-0.2-0.3-0.2-0.4c-0.2-0.2-0.5-0.5-0.6-0.6s-0.3-0.2-0.5-0.4C77.3,50,77.3,50,77.3,50c-0.1-0.1-0.2-0.2-0.4-0.3
		c-0.2-0.2-0.2-0.1-0.2-0.2c-0.1-0.1-0.5-0.4-0.7-0.5c-0.2-0.1-0.2-0.1-0.3-0.2c-0.2-0.1-0.2,0-0.3-0.1c-0.2-0.1-0.5-0.2-0.6-0.5
		c-0.2-0.2-0.8-0.8-1.2-1.1s-0.6-0.5-0.8-0.7c-0.3-0.2-1-0.8-1.2-0.9c-0.2-0.2-0.3-0.2-0.6-0.2c-0.3,0-0.2,0-0.4-0.1
		c-0.2-0.1-0.2-0.1-0.2-0.1c-0.1,0-0.1-0.1-0.2,0.1c-0.1,0.2,0,0.3-0.2,0.3c-0.2,0-0.4,0-0.7,0c-0.2,0-0.3-0.1-0.5-0.2
		c-0.2,0-0.2,0-0.2,0s-0.1,0,0.2,0.2c1.2,1.2,1.5,1.5,1.5,1.5s-0.6-0.8-0.8-0.8c-0.2,0-0.2,0-0.2,0s0.1,0.2,0.2,0.3
		c0,0.1,0,0.2,0.1,0.2c0.2,0.2,0.2,0.2,0.2,0.2s-0.2-0.3-0.3-0.5c0.2-0.2,0.1-0.2,0.1-0.2c-0.1,0-0.2-0.1-0.2,0s0.1,0.2,0.1,0.2
		c0.1,0,0.2,0.3,0.3,0.5c0,0-0.3-0.8-0.5-0.8c-0.2,0-0.1,0.1-0.1,0.2c0,0.1-0.1-0.2-0.1-0.2c-0.1,0-0.2,0-0.2,0s0.1,0.2,0.2,0.3
		c0.1,0.1,0.2,0.2,0.3,0.3c0.2,0.2,0.5,1.2,0.5,1.2s-0.5-1.3-0.6-1.3l0.2,0.8c0,0-0.3-0.5-0.3-0.7c-0.1-0.2-0.1-0.2-0.2-0.4
		s-0.1-0.2-0.2-0.2s-0.1-0.1-0.1,0l0.2,0.3c0,0-0.1,0-0.2-0.1c0-0.1,0-0.1-0.1-0.2C68.5,46,68.4,46,68.4,46s0,0.1,0,0.2
		s0,0.2,0.1,0.2c0.1,0.1,0.3,0.3,0.3,0.3s-0.4-0.4-0.5-0.5S68.1,46,68.1,46s-0.1-0.1-0.2,0c0,0.1,0,0,0,0.1s0.1,0.4,0.1,0.5
		s-0.1-0.5-0.2-0.5c-0.1,0-0.2,0-0.2,0s0.1,0.2,0,0.2l-0.2-0.2h-0.1v0.5l-0.1-0.4H67c-0.1,0,0.2,0.4,0.2,0.4c-0.1,0-0.2-0.2-0.3-0.3
		s-0.2-0.1-0.2-0.1s0,0.2,0,0.3s0,0.2,0.1,0.2l0.6,0.6c0,0-0.6-0.5-0.7-0.5c-0.2,0-0.2,0.1-0.1,0.2c0.2,0.2,0.2,0.3,0.4,0.5
		c0.2,0.1,0.7,0.4,0.7,0.4s-0.5-0.2-0.7-0.2c-0.1,0,0.2,0.2,0.2,0.5c0.2,0.2,0.2,0.2,0.2,0.4c0,0.1,0.2,0.3,0.2,0.5
		c0.1,0.1,0,0.2,0.2,0.4c0.1,0.2,0.2,0.3,0.3,0.4c0.1,0.3,0.2,0.5,0.2,0.5c0,0.2,0,0.7,0,0.8c0.1,0.1,0.2,0.2,0.2,0.2
		c0.1,0,0.2,0.2,0.3,0.3c0.2,0.2,0.4,0.4,0.4,0.4S69,52,68.8,51.8c-0.2-0.2-0.3-0.3-0.3-0.2s0,0.2,0,0.2S69,51.9,69,52
		c0.1,0.1,0.2,0.2,0.5,0.3c0.2,0.2,0.5,0.6,0.5,0.6s-0.3-0.3-0.5-0.5c-0.1-0.2-0.4-0.3-0.5-0.3s0,0.2,0.1,0.4s0.3,0.2,0.5,0.3
		c0.2,0.1,0.6,0.4,0.8,0.5c0.2,0.2,0.2,0.2,0.2,0.2S70.1,53.2,70,53c-0.2-0.2-0.2-0.2-0.4-0.2c-0.1-0.1-0.1,0-0.1,0s0.5,0.5,0.5,0.6
		c0.1,0.1-0.4-0.3-0.5-0.5c-0.2-0.2-0.3-0.3-0.5-0.4c-0.1-0.1-0.1,0.2,0,0.2c0.1,0.1,0.1,0,0.1,0.2c0,0.1-0.1,0.2,0,0.2
		s0.5,0.2,0.7,0.3c0.2,0.1,0.6,0.4,0.6,0.4c-0.1,0-0.8-0.5-1-0.5c-0.2-0.1-0.2,0.2,0,0.2c0.1,0.1,0.9,0.4,0.9,0.4l-0.9-0.3
		c0,0,0.1,0.2,0.2,0.3c0,0.1,0.2,0.1,0.4,0.2s0.3,0.3,0.3,0.3l-0.5-0.3c-0.1-0.1-0.1,0.1-0.1,0.2c0.1,0.1,0.2,0.2,0.2,0.2
		s0,0.1,0,0.2c0,0.2,0.1,0.2,0.2,0.3c0.2,0.2,0.5,0.5,0.5,0.5l-0.5-0.3l0.2,0.2l-0.2-0.2c-0.1-0.1-0.2-0.2-0.2-0.1
		c0,0.2,0.2,0.2,0.2,0.3c0.1,0.1,0.1,0.1,0.2,0.2c0.2,0.1,0.3,0.3,0.3,0.3s-0.3-0.2-0.4-0.2c-0.1,0-0.2-0.1-0.2,0s0,0.2,0.2,0.2
		c0.1,0,0.2,0.2,0.2,0.2s0,0.1,0.1,0.2c0.1,0.1,0.1,0.1,0.2,0.2c0,0.1,0.1,0.2,0,0.2c0,0.1,0.5,0.2,0.5,0.2L71,57c0,0,0,0,0,0.1
		c0-0.2,0-0.1,0-0.1h-0.3l0.1,0.2l0.6,0.5l-0.7-0.5v0.2l0.6,0.6c0,0-0.2-0.2-0.3-0.2s-0.1,0-0.1,0s-0.1,0.2,0,0.3
		c0.1,0.1,0,0.1,0.2,0.2c0.2,0.1,0.2,0.1,0.2,0.2c0,0.2,0,0.2-0.1,0.2c0,0.1,0,0.3,0,0.3H71v-0.2h-0.2c0,0,0,0.1,0.1,0.2
		c0.1,0.1,0.1,0.1,0.1,0.2c0,0.1,0.2,0.2,0.2,0.2l0.8,0.1c0,0-0.8-0.1-0.8,0s-0.1,0.2,0,0.2l0.5,0.3c-0.1,0-0.5-0.3-0.5-0.2
		s0.1,0.3,0.1,0.3c0.1,0.1,0.2,0,0.1,0.1c0,0.1-0.1,0.1,0,0.2l0.2,0.2c0,0-0.2,0-0.2-0.1s-0.1-0.2-0.1-0.1c0,0.1-0.1,0.2,0,0.3
		c0.1,0.1,0.1,0,0.2,0.1c0,0.1,0,0.1,0.1,0.2c0.2,0.1,0.1,0.2,0.1,0.2c0,0.1,0,0.2,0,0.2s0.3,0.2,0.4,0.3c-0.1,0-0.1,0-0.1,0
		s-0.4-0.5-0.5-0.3s0,0.7,0,0.7s0.2,0.1,0.2,0.2c0,0.1,0.1,0.2-0.1,0.2c-0.2,0-0.2,0.1-0.1,0.2c0.2,0.1,0.2,0.2,0.2,0.2
		c0.1,0.1,0,0.1,0,0.1l-0.2-0.2c-0.1,0-0.1,0-0.1,0.2c0,0.1,0.1,0.2,0.2,0.3c0.1,0.2,0.1,0.3,0.1,0.5c0,0.2,0.1,0.2,0.1,0.2h-0.2
		c0,0,0,0.1,0,0.2l-0.2,0.2v0.2l-0.1,0.5L71.1,65L71,65.2l-0.2,0.2c0,0-0.1,0.1-0.2,0.2c-0.1,0.2-0.1,0.2-0.2,0.2
		c-0.2,0-0.2,0-0.3,0.1c-0.2,0.1-0.2,0.1-0.3-0.1c-0.2-0.2-0.2-0.2-0.2-0.2l-0.2,0.2h-0.2v-0.2c0,0,0-0.2-0.2-0.2c0-0.3,0-0.4,0-0.4
		s-0.1,0-0.2-0.3c-0.1-0.2-0.1-0.5-0.1-0.5c0-0.2,0.1-0.1,0.1-0.2s0-0.3-0.2-0.2c-0.1,0.1-0.2,0-0.2,0s0-0.5-0.1-0.5
		c0-0.1-0.1,0-0.1-0.2s0-0.8-0.1-0.8C68,62.2,68,62.2,68,62.2s0.1-0.1,0.2-0.2c0-0.2,0.1-0.4,0.1-0.4l0.2-0.1c0,0,0.1-0.2,0-0.2
		s-0.3,0-0.3,0s0-0.4,0.1-0.5c0-0.2,0-0.3,0-0.3s0.2-0.2,0.3-0.3s0.1-0.2,0.1-0.2l-0.1-0.2L68.4,60h-0.2c-0.1,0-0.2,0-0.2,0.1
		c-0.1,0,0-0.2,0.1-0.2c0.1-0.1-0.1-0.1,0-0.2c0.1-0.1,0.2-0.2,0.2-0.2s0.2-0.1,0.3-0.2c0.1-0.1,0,0,0.1-0.1s0-0.1-0.1-0.2
		c-0.1,0-0.1-0.1-0.1,0s-0.2,0.2-0.2,0.2s0,0.1-0.1,0C68.1,59,68.1,59.1,68,59c-0.1-0.1-0.1-0.2-0.1-0.1c-0.1,0-0.1,0.2-0.2,0.3
		c0,0.1-0.2,0-0.1-0.3c0-0.3,0-0.6,0-0.8s0-0.3,0-0.3s-0.1,0-0.2,0.2l-0.2,0.2c0,0,0-0.2,0.1-0.3s0.2-0.2,0.2-0.3
		c0.1-0.1,0.1-0.1,0.1-0.2c0-0.2-0.1-0.2-0.1-0.2s-0.2,0.1-0.2,0.3c-0.1,0.2-0.2,0.3-0.2,0.3s0.2-0.5,0.2-0.6s0-0.2,0-0.2
		s0-0.2-0.1-0.1S67,57.1,67,57.1s0.1-0.3,0.1-0.4s0.1,0.1,0.2-0.1c0-0.2,0-0.2-0.1-0.2s-0.2,0.1-0.2,0c0.1-0.2,0-0.3,0-0.4
		c0-0.2,0.1-0.4,0-0.4l-0.3,0.5l0.2-0.5c0-0.1,0-0.2,0-0.1l-0.3,0.4c0,0,0.2-0.3,0.2-0.5s0-0.4,0-0.5s0-0.2,0-0.1
		c0,0.1-0.2,0.5-0.2,0.5s0.1-0.3,0.1-0.5s-0.1-0.5-0.1-0.5s-0.2,0.4-0.2,0.5s0.3-0.5,0.2-0.7s-0.2-0.1-0.2,0
		c-0.1,0.2-0.2,0.4-0.2,0.4s0.3-0.5,0.2-0.7c0-0.2-0.2-0.2-0.2,0c-0.1,0.2-0.2,0.5-0.3,0.6c-0.1,0.2,0,0,0.2-0.4
		c0.2-0.4,0.2-0.3,0.2-0.6c0-0.2-0.1-0.3-0.2-0.2c0,0-0.1,0.1-0.1-0.2c0-0.2-0.1-0.2-0.1-0.2s0.2-0.2-0.2,0.4
		c-0.2,0.3-0.3,0.5-0.3,0.5s0-0.1,0.1-0.2c0.2-0.4,0.4-0.5,0.4-0.8s-0.1-0.3-0.1-0.3L65.4,53c0,0,0.4-0.6,0.4-0.8S65.7,52,65.6,52
		c-0.2,0.2-0.6,0.9-0.6,0.9l0.2-0.7c0,0-0.1-0.2-0.1-0.4s0-0.2,0-0.2c-0.1,0-0.2,0-0.2,0v-0.3c-0.1,0-0.2,0.4-0.2,0.5s0-0.3,0.1-0.5
		c0-0.2-0.2-0.4-0.2-0.5l-0.1-0.2c-0.1,0.1-0.2,0.2-0.5,0.6c-0.2,0.5-0.2,0.4-0.2,0.4s1-0.3,1.2-0.6c0.2-0.3,0.2-0.3,0.3-0.4
		c0-0.1,0-0.2-0.1-0.2s-0.1,0-0.1-0.2c0-0.1-0.1-0.2-0.1-0.2c-0.1-0.2-0.2-0.4-0.2-0.4s-0.2,0.3-0.3,0.4c-0.1,0.1,0.2-0.2,0.2-0.5
		s-0.2-0.2-0.2-0.2s-0.1,0.3-0.1,0.5c0,0.1,0-0.3,0-0.4s-0.2-0.2-0.2-0.2v0.6l-0.1-0.5c0-0.1-0.2-0.2-0.2-0.2l-0.2,0.5v-0.7
		l-0.2,0.4l0.1-0.6c0,0-0.2,0-0.2,0.1c-0.1,0.1-0.2-0.2-0.2-0.2H63V49l-0.1-0.3L62.8,49v-0.6c0,0,0-0.1-0.2-0.2
		c-0.2-0.1-0.2-0.2-0.2-0.1c0,0,0.2,0.5,0.2,0.7s-0.1-0.5-0.2-0.6c-0.1-0.2-0.2,0-0.2,0c-0.1-0.1-0.1-0.1-0.2-0.2
		c-0.1,0-0.2-0.1-0.2-0.2c0,0-0.1-0.1-0.2-0.2c-0.1-0.1-0.2-0.1-0.2-0.1c-0.1,0,0,0-0.2,0s-0.1,0-0.1,0.2c0.1,0.2,0.1,0.4,0.1,0.4
		s-0.1-0.2-0.2-0.2c-0.1-0.1-0.2-0.1-0.2-0.1s0,0.2,0,0.3s0.2,0.2,0.2,0.3c0.1,0.2-0.1,0-0.2-0.1l0.1,0.4c0,0-0.2-0.2-0.2-0.4
		c-0.1-0.2-0.1-0.5-0.1-0.5s-0.2-0.3-0.2-0.2v0.6c0,0-0.1-0.5-0.2-0.6c-0.1-0.1-0.2-0.2-0.3-0.3c-0.1,0-0.2,0-0.2,0V48
		c0,0,0.5,0.5,0.7,0.7s0.6,0.4,1.1,0.5s0.7,0.1,0.7,0.1s-0.8,0.1-1.4-0.2c-0.5-0.3-1.1-1-1.2-0.8c0,0.2,0,0.9,0,1.4
		c-0.1,0.5-0.2,1-0.2,1.3s-0.1,0.5-0.1,0.5l1,0.5l-0.1-0.5v0.2l0.1,0.5l-0.2-0.3V52l0.2,0.6c0,0-0.2-0.5-0.3-0.5
		c-0.1-0.1-0.2,0-0.2,0.1s0.2,0.6,0.2,0.6l-0.2-0.6c0,0,0,0-0.1,0.1l0.1,0.8l-0.2-0.8h-0.1v0.4l-0.2-0.3l-0.1,0.1l0.1,0.3l-0.2-0.3
		V53l-0.2-0.5h-0.2V53v-0.4h-0.2v1.5l-0.1-1.6h-0.2l-0.1,0.3c-0.2,0.2-0.2,0.5-0.2,0.5v-0.5l-0.1-0.2c0,0-0.1,0-0.1,0.1
		s0,0.1-0.1,0.1s-0.2,0.1-0.2,0.1s-0.2,0.7-0.2,0.8s0.3-0.7,0.2-0.8c-0.2-0.1-0.2,0.2-0.2,0.2s-0.1,0.5-0.2,0.7
		c-0.2,0.2,0.2-0.3,0.2-0.5c0.1-0.8-0.2,0.1-0.2-0.1c-0.1,0.2-0.3,0-0.3,0l-0.1,0.6v-0.7c0,0-0.1,0.1-0.2,0c-0.1,0-0.2,0.2-0.2,0.2
		s-0.1-0.1-0.1-0.2s-0.1,0-0.2-0.1c-0.1,0-0.2,0-0.2,0l-0.2-0.2l-0.2-0.1c0,0-0.1-0.2-0.2-0.1c0.1,0.5,0.1,0.7-0.1,0.8
		c-0.1,0-0.2,0.1-0.2,0.2s-0.1,0.3-0.1,0.3s-0.1,0.5,0,0.6l0.1,0.2c0,0-0.1-0.1-0.2-0.2c0-0.1,0-0.2,0-0.4c0-0.3-0.2-0.1-0.2-0.1
		v0.7l-0.1-0.8L53.9,54l0.2,0.8L53.8,54l0.2,0.8l-0.3-0.7l-0.2,0.4l0.3,0.6l-0.3-0.6V54v-0.1l-0.2-0.2c0,0-0.1,0.1-0.1,0.2l-0.1,0.8
		L53,54.4l-0.2-0.1v0.6l-0.2-0.3c0,0,0,0-0.1,0.3s-0.1,1-0.1,1c0,0.1,0,0.2,0.1,0.2s0.4,0.3,0.4,0.3s-0.2-0.2-0.3-0.2
		s-0.1,0.2-0.1,0.2s0.6,0.3,0.8,0.5l0.2,0.1c0.3,0.2,0.8,0.5,1.1,0.8c0.3,0.4,0.5,0.8,0.5,0.8s-0.2-0.6-0.8-1
		c-0.5-0.4-0.8-0.7-0.8-0.7s0.5,0.5,0.7,0.9s0.4,0.6,0.4,0.6s-0.4-0.6-0.8-1.1c-0.4-0.5-0.7-0.7-0.8-0.8c-0.2-0.1-0.2,0-0.2,0
		s0,0.2,0.2,0.3c0.8,0.2,0.8,0.2,0.9,0.2c0.2,0,0.2,0.1,0.4,0.2c0.2,0.2,0.2,0.2,0.2,0.2s-0.2-0.2-0.5-0.3S53.7,57,53.7,57
		s0,0.2,0.1,0.4s0.2,0.4,0.2,0.4s1.1,0.5,1.5,0.8l0.4,0.4c0,0-0.7-0.6-1.2-0.9c-0.6-0.3-0.7-0.3-0.7-0.3l0.2,0.5
		c0,0,0.6,0.2,1.1,0.5c0.4,0.3,0.5,0.4,0.5,0.4s-0.5-0.3-0.8-0.6c-0.2-0.1-0.3-0.2-0.4-0.2c-0.5,0-0.4,0-0.4,0v0.2l0.4,0.4
		c0.1,0.1-0.4-0.2-0.5-0.2s0.1,0.3,0.1,0.3s0.6,0.5,0.8,0.6l0.2,0.2l-0.9-0.7l0.3,0.3l-0.3-0.1c0,0,0.1,0.3,0.2,0.5
		c0.2,0.1,0.2,0.2,0.2,0.2L54.4,60l0.1,0.2c0,0,0.3,0.1,0.5,0.2c0.3,0.2,0.6,0.5,0.6,0.5s-1.1-0.6-1.1-0.5s0.2,0.5,0.2,0.5
		s0.3,0,0.6,0.1c0.3,0.2,0.4,0.3,0.4,0.3s-0.5-0.3-0.8-0.4l-0.4-0.2c0,0,0,0.2,0.1,0.5c0.1,0.2,0.4,0.2,0.6,0.6
		c0.3,0.3,0.3,0.3,0.3,0.3s-0.9-0.9-0.9-0.8c0,0.2,0.1,0.4,0.2,0.5s0.4,0.2,0.7,0.9c0.2,0.5,0.2,0.8,0.2,0.8s-0.2-0.8-0.5-1.2
		c-0.2-0.3-0.4-0.5-0.4-0.4c0,0.2,0,0.2,0,0.2c-0.1,0,0,0.1,0,0.1s0.1,0.3,0.1,0.5c0,0.1,0.1,0.1,0.2,0.3c0.1,0.2,0.2,0.2,0.2,0.4
		s0,0.2,0.1,0.2l0.4,0.2c0.1,0.1-0.1,0-0.2,0V64l0.2,0l-0.2-0.1c-0.1,0-0.1,0.1-0.1,0.1s-0.1,0,0.1,0.3c0.2,0.2,0.3,0.5,0.5,1.1
		c0,0.2,0.1,0.2,0.1,0.3c0.1,0.4,0.1,0.6,0.1,0.7c0,0.2,0,0.1,0.1,0.3c0.1,0.2,0.1,0.5,0.1,0.6s0,0.2-0.1,0.2
		c-0.1-0.1-0.2-0.1-0.2,0.1c0.1,0.2,0.1,0.2,0.2,0.2c0.1,0.1,0.1,0.2,0,0.2c-0.1,0.1-0.2,0.1,0,0.3c0.1,0.1,0.2,0.3,0,0.3
		s-0.2-0.1-0.2,0.1c0,0.1,0,0.1,0,0.2c0.1,0.1,0.2,0.2,0.1,0.2s0,0.2-0.1,0.4C56.1,69.7,56,70,55.9,70c-0.2,0.1-0.3,0.1-0.3,0.2
		s0,0.2-0.1,0.2c0.2,0.1,0.3,0.3,0.3,0.3c0,0.1-0.1,0.1-0.2,0.2c-0.1,0.1,0,0.1-0.2,0.2s-0.2,0.1-0.2,0.1c-0.1,0-0.1,0-0.2,0
		s-0.2,0-0.3-0.1c-0.2-0.1-0.2-0.2-0.3-0.2c-0.2,0-0.1,0-0.2,0s-0.3-0.1-0.3-0.1L53.8,71v-0.3l-0.2-0.2c-0.1-0.1-0.2-0.2-0.3-0.4
		c-0.1-0.2-0.2-0.4-0.2-0.5c-0.1-0.1-0.1-0.1-0.2-0.2c0-0.2,0.1-0.1,0-0.2S53,69.1,53,69s-0.1-0.2-0.1-0.3c0-0.1-0.1-0.1-0.1-0.2
		c0-0.2-0.1-0.4-0.1-0.6s0-0.2-0.1-0.3c-0.1-0.1-0.2-0.6-0.2-0.8c0-0.1-0.1-0.3-0.1-0.3L52,66.7c0,0,0.3-0.2,0.3-0.3
		c0-0.1,0-0.3,0-0.3s-0.2,0.1-0.2,0.2L52,66.5c0,0,0.2-0.4,0.3-0.5s0.1-0.4,0.1-0.4s-0.6,0.3-0.6,0.4c-0.1,0.1,0.1-0.2,0.3-0.3
		c0.2-0.2,0.2-0.2,0.2-0.2l0.2-0.5c0,0-0.2,0.2-0.3,0.4C52,65.6,52,65.6,52,65.6l0.5-0.7c-0.1,0-0.4,0.2-0.4,0.2s0.2-0.2,0.3-0.3
		c0.1-0.2,0.2-0.2,0.2-0.2s0-0.2-0.1-0.1s-0.2,0.1-0.2,0.1l0.2-0.2v-0.2l-0.4,0.2c0,0,0.2-0.2,0.3-0.3c0.1-0.2,0.2-0.3,0.2-0.5
		s-0.1-0.1-0.1-0.1l-0.2,0.3c0,0,0.2-0.2,0.2-0.3s-0.1-0.1-0.1-0.1l-0.3,0.3c0,0,0.1-0.2,0.1-0.4s0-0.3,0-0.5s0-0.2,0-0.2l-0.3,0.3
		c0,0,0-0.1,0-0.3s0.1-0.2,0.1-0.4s-0.1-0.3-0.1-0.3l-0.2,0.5l0.1-0.5c0,0-0.3,0.4-0.3,0.5s-0.1,0.2-0.1,0.2s0.3-0.6,0.3-0.8
		s0-0.2,0-0.4s0-0.2,0-0.2s-0.2-0.2-0.3,0.2c-0.2,0.4-0.2,0.6-0.2,0.6s0,0,0.2-0.4c0.1-0.4,0.2-0.5,0.3-0.6c0.1-0.2,0.1-0.5,0.2-0.6
		s-0.1-0.5-0.1-0.4c-0.1,0.1-0.3,0.5-0.3,0.8s0,0.3,0,0.3s0.2-0.7,0.2-1c0.1-0.3,0.2-0.4,0.2-0.5s0-0.2,0-0.2s-0.2,0-0.2,0.2
		s0,0.4-0.2,0.7C51.1,60.6,51,61,51,61s0.2-1,0.3-1.4c0.2-0.4,0-0.4,0-0.5c0-0.2,0-0.2,0-0.3s-0.2,0-0.2,0.2L51,59.4l0.1-0.5
		c0-0.2,0.1-0.3,0-0.2S51,59,50.9,59.1c-0.1,0.1,0.1-0.2,0.2-0.4s0-0.3,0-0.3s-0.2,0.2-0.3,0.4s0.2-0.3,0.2-0.4s0-0.3,0-0.5
		s0.1-0.2,0-0.3c0-0.1-0.2-0.1-0.2,0c-0.1,0.1,0-0.2-0.2,0.3s-0.3,0.5-0.3,0.5s0.3-0.8,0.5-1s0.2-0.2,0.2-0.3s-0.1-0.2-0.2-0.2
		s-0.1-0.1-0.2,0.2c-0.2,0.2-0.3,0.6-0.3,0.6s0.3-0.8,0.5-0.9c0.2-0.2,0.2-0.2,0.1-0.3c-0.1-0.1-0.2,0-0.3,0.1
		c0,0.1-0.2,0.4-0.4,0.6S50,57.6,50,57.6s0.3-0.6,0.5-0.8c0.2-0.3,0.2-0.4,0.2-0.4l-0.1-0.2c0,0-0.5,0.5-0.5,0.7
		c-0.1,0.1,0-0.1,0.2-0.3s0.4-0.5,0.4-0.5c0.1-0.1,0-0.2,0-0.4v-0.2L50.2,56c0,0,0.4-0.4,0.5-0.5c0.1-0.2,0.1-0.2,0-0.3
		c-0.2,0,0,0-0.2,0.1s-0.2,0.1-0.2,0.1S50,55,50.1,54.9c0.2-0.1,0-0.3,0-0.3l-0.5,0.6c0,0,0.2-0.6,0.2-0.7c0-0.1,0-0.4,0-0.5
		c-0.1-0.1-0.1,0-0.1-0.2s-0.1-0.2-0.2-0.3c-0.1,0-0.2-0.2-0.3-0.1C49,53.6,49,53.6,49,53.6l-0.2-0.4c0,0-0.2,0-0.2,0.1l0.4,1
		l-0.4-0.7V54l0.6,1.1c0,0-0.6-1.1-0.6-0.9c0,0.2,0,0.2,0,0.2v0.8l-0.2-1.1c0,0-0.2-0.3-0.2-0.2s0.1,1.1,0.1,1.1l-0.2-0.8l-0.2,0.5
		c0,0,0.1-0.3,0.1-0.5l0.1-0.6L48,53.4v1.2l-0.2-0.7l-0.1,1.8v-1.9L47.5,54l-0.1,1.1v-0.8c0,0.1-0.1,0.2-0.1,0.2l-0.1,1.2v-1.4v-0.6
		L47,54l-0.1,0.5v-0.8l-0.2,0.4v-0.3l0.1-0.6l-0.2,0.1l-0.1,0.5l-0.1-0.2h-0.2v0.3c0,0,0.2,0.2,0.2,0.3v0.2c0,0-0.1,0.1,0,0.4
		l0.2,0.5c0,0-0.2-0.5-0.3-0.8c-0.1-0.2-0.1-0.3-0.2-0.5L46,55.2c0,0-0.1-1.4-0.1-1.5s-0.2-0.6-0.2-0.6L45.6,54l-0.2-0.6
		c0,0-0.1,0-0.1,0.2v0.2c0,0,0,0.2,0,0.3c0.7,0.1,0.7,0.1,0.7,0.1l-0.2-0.5c0,0-0.1-0.3-0.1-0.5s0-0.4,0-0.4s-0.2,0.2-0.2,0.5
		s-0.1,0.8-0.1,0.9c0,0.2,0,0.2,0,0.3c0,0.2-0.1,0.4,0,0.5c0,0.2,0,0.2,0,0.2s0.3,0,0.5,0.2s0.2,0.3,0.2,0.3s-0.2-0.3-0.5-0.4
		c-0.2-0.1-0.2,0-0.2,0.2s0.2,0.2,0.2,0.4s0.2,0.2,0.2,0.3c0.1,0.1-0.1,0-0.2-0.2c-0.2-0.2-0.1-0.2-0.2-0.3s-0.2-0.2-0.2-0.2
		s0,0.4,0,0.5s0.1,0.2,0,0.2s-0.1,0.1-0.1,0.2s0.1,0.6-0.1,0.5c-0.1-0.2-0.3-0.1-0.3,0.2v0.5c0,0,0.5,0.5,0.6,0.7l0.2,0.2
		c0,0-0.5-0.6-0.6-0.8l0.2,0.3c0,0,0.1,0.2,0,0.2s0,0.2,0,0.3v0.1l-0.2-0.2v0.2c0,0,0.2,0.4,0.3,0.5c0,0.1,0.2,0.2,0.2,0.2
		c0,0.1,0.1,0.2,0.1,0.2s-0.4-0.7-0.5-0.7s0.3,0.5,0.3,0.5s-0.3-0.5-0.4-0.5c-0.1,0-0.2,0.2,0,0.3l0.2,0.2c0.2,0.2,0.4,0.5,0.5,0.5
		c0.1,0.2,0.2,0.2,0.2,0.2s-0.5-0.5-0.6-0.6s0.3,0.9,0.3,1.5s0,0.5,0,0.5s0-0.7-0.2-1.3c-0.1-0.4-0.3-0.7-0.3-0.7
		c-0.1,0,0,0.5,0,0.8v0.6l-0.1-0.5v0.9l-0.2-1.1c0,0,0-0.5,0-0.7v-0.2l-0.2,0.2c0,0,0,0.4,0,0.5l0.2,0.6L44.5,60l-0.2,0.5
		c0,0,0.2,0.8,0.2,1.1c0,0.4,0,0.4,0,0.4s-0.1-0.6-0.2-1.1c-0.1-0.2-0.2-0.3-0.2-0.3s0,0.3-0.1,0.4c-0.1,0.2-0.1,0.1-0.1,0.2
		c0,0.2,0,0.2,0,0.2c0,0.2,0,0.2-0.1,0.3s-0.1,0.2-0.1,0.2s0.2,0.4,0.3,1c0.1,0.7,0.1,0.7,0.1,0.7s-0.1-0.8-0.2-1.2
		c-0.1-0.3-0.2-0.4-0.2-0.4l-0.1,0.4l0.5,0.6c0,0-0.3-0.8-0.3-0.6l-0.1,0.4l0.4,0.8c0,0-0.4-0.8-0.5-0.7s0,0.2-0.1,0.2s0,0.2,0,0.2
		v0.2l0.6,0.9c0,0-0.5-0.6-0.6-0.8c-0.2,0.1-0.2,0.4-0.2,0.5l0.2,0.8c0,0-0.3-0.8-0.3-0.7c0,0.1-0.2,0.4-0.2,0.4s0.4,0.5,0.5,0.9
		c0.2,0.3,0.2,0.3,0.2,0.5c0.1,0.2-0.5-0.8-0.6-1.1c-0.2-0.2-0.2-0.2-0.2-0.2s-0.1,0.1-0.1,0.2s0,0.2,0,0.3c0,0.1,0.5,0.9,0.5,0.9
		l-0.5-0.8c0,0,0,0.2-0.1,0.2c0,0.1,0,0.3,0,0.3s0.1,0,0.2,0.5c0,0.1,0,0.2,0,0.2V67c0,0-0.1-0.5-0.1-0.6s-0.1-0.5-0.2-0.4
		c-0.1,0.2,0,0.2-0.1,0.4c0,0.2-0.1,0.2-0.1,0.2l0.1,1.2l-0.2-1.1c0,0,0,0.2-0.1,0.2c-0.1,0.2,0,0.2-0.1,0.3
		C42,67.4,42,67.4,42,67.5c0,0.2,0,0.2,0,0.2c-0.1,0.1,0,0.3,0,0.3l0.1,0.8c0,0-0.1-0.6-0.2-0.7c-0.1-0.1-0.2,0.2-0.2,0.3
		c0,0-0.1,0.2-0.2,0.2c-0.1,0.1-0.1,0-0.1,0.2s0,0.8,0,0.8s0-0.4-0.1-0.5S41.1,69,41.1,69L41,69.4c0,0.2-0.1,0.2-0.1,0.2l-0.2-0.2
		h-0.2l-0.1,0.2l-0.2,0.2v0.3l0.4,0.3c0,0-0.4-0.3-0.5-0.2c0,0.2,0,0.2-0.1,0.3c0,0.2,0,0.3,0,0.3c-0.1,0-0.1,0.2-0.1,0.3
		c0,0.1,0,0.2,0.1,0.2c0.1,0.1,0.2,0.1,0.2,0.3c0,0.2-0.1,1.4-0.2,2c-0.1,0.6-0.2,0.9-0.2,1s0,0.2-0.1,0.2c0,0,0-0.1-0.1,0.1
		c0,0.2-0.1,0.4-0.1,0.5s0,0.2-0.1,0.4c0,0.2-0.1,0.2-0.2,0.4c0,0.2,0,0.3-0.1,0.4s-0.2,0.4-0.2,0.5s-0.1,0.2-0.1,0.3
		c0,0.2-0.1,0.4,0,0.6s0.1,0.3,0,0.5s-0.5,1-0.6,1.2c-0.2,0.2-0.3,0.2-0.4,0.3c-0.1,0.1-0.2,0.2-0.2,0.1s-0.2-0.1-0.2,0
		s-0.1,0.1-0.1,0.2c0,0.2,0.2,0.3,0.4,0.5C38.9,81,39,81,39,81.7s0.1,1.5,0,2.7c-0.1,1.1-0.2,1.4-0.5,1.9c-0.2,0.5-0.5,0.6-0.5,0.6
		c-0.1,0-0.2,0-0.2,0.2c-0.1,0.2-0.1,0.4-0.3,0.5c-0.2,0.2-0.2,0.2-0.4,0.3C37,88,37,88.2,37,88.2s0-0.1-0.1-0.1s-0.3,0-0.4,0
		c-0.2,0-0.2-0.2-0.2-0.2l-0.2,0.2c0,0,0.1-0.1,0-0.2s-0.3-0.2-0.3-0.5c0-0.2-0.2-0.4-0.3-0.5c-0.1-0.1-0.5-0.7-0.6-1.5
		c-0.1-0.5-0.2-0.9-0.1-1.8c0-0.3,0.2-0.8,0.2-1.2c0.2-1.5,0.3-1.7,0.5-1.9c0.1-0.2,0.1-0.3,0.2-0.5c0.2-0.2,0.3-0.2,0.4-0.2
		s0.1-0.4-0.2-0.4s-0.5-0.2-0.6-0.7s0-0.8,0-1s0-0.1,0-0.2c0.1-0.1,0.2-0.2,0.2-0.4s0-0.2,0-0.3c0-0.1-0.1-0.1-0.1-0.1l-0.2,0.4
		c0,0,0.3-0.5,0.5-0.6c0.1-0.2,0.1-0.3,0.2-0.5c0.2-0.2,0.2-0.1,0.2-0.3c0.1-0.2,0.1-0.3,0.1-0.3l-0.4,0.2c0,0,0.3-0.1,0.4-0.2
		c0.1-0.2,0.3-0.6,0.3-0.6s-0.2-0.1-0.4,0.1c-0.2,0.2-0.2,0.2-0.2,0.2s0.2-0.2,0.3-0.2c0.1-0.1,0.2-0.1,0.3-0.1
		c0.2,0,0.2-0.4,0.3-0.5v-0.1c0,0-0.2,0-0.5,0.2s-0.5,0.3-0.5,0.3s0.2-0.2,0.4-0.3c0.2-0.2,0.6-0.2,0.6-0.2l0.2,0.1c0,0-0.2,0-0.3,0
		c-0.2,0.1-0.2,0.1-0.2,0.1s0.3-0.2,0.4-0.2c0.2,0,0.2-0.2,0.2-0.3c0-0.2,0-0.1,0.1-0.2s0.3-0.5,0.5-0.7s0.2-0.5,0.4-0.7
		c0.2-0.3,0.1-0.3,0.1-0.3s-0.2,0-0.4,0.2c-0.3,0.2-0.3,0.2-0.5,0.3h-0.2c0,0,0.3-0.1,0.4-0.3c0.2-0.2,0.7-0.3,0.7-0.3
		s0.1-0.2,0.1-0.3v-0.2c0,0-0.2,0-0.5,0.2s-0.4,0.2-0.4,0.2s0.2-0.2,0.5-0.3c0.2-0.2,0.5-0.2,0.5-0.2l0.1-0.5c0-0.1,0-0.2,0-0.2
		s-0.2,0.1-0.5,0.2C37.8,71,37.5,71,37.5,71s0.5-0.2,0.6-0.2c0.2-0.1,0.3-0.2,0.3-0.2c0-0.2,0.1-0.8,0.1-0.8s-0.2-0.2-0.6-0.1
		c-0.4,0-0.9,0.1-0.9,0.1s1-0.2,1.1-0.1c0.2,0,0.4,0.1,0.4,0.1v-0.2c0,0-0.5-0.2-0.7-0.1h-0.2c0,0,0.2-0.1,0.3-0.1s0.4,0,0.5,0
		c0.2,0,0.2,0.1,0.2-0.2c0-0.2,0-0.2,0.1-0.3c0.1-0.1,0-0.4-0.1-0.4s-0.4,0.1-0.4,0s-0.1-0.1-0.2,0c0,0.1-0.2,0.2-0.2,0.2l0.2-0.3
		c0.1-0.1,0.2,0.1,0.2,0c0.1-0.1,0.1-0.2,0-0.2c0,0-0.1-0.1,0-0.1c0.1-0.1,0.1-0.2,0.2-0.3c0.1-0.1,0.1-0.1,0-0.2c0-0.2,0-0.2,0-0.3
		c0-0.1-0.1,0-0.1,0l-0.2,0.5l0.3-0.4c0.1-0.1,0.1-0.2,0.1-0.4c0-0.2,0.1-0.2,0.1-0.2s0,0-0.1,0c-0.2,0-0.5,0.2-0.6,0.4l-0.2,0.2
		c0,0,0.1-0.2,0.3-0.4c0.2-0.2,0.4-0.2,0.5-0.3c0.2-0.1,0.2,0,0.2-0.2s0-0.3,0-0.3s-0.3,0.2-0.5,0.2S38,66.5,38,66.6
		c-0.1,0.1,0-0.1,0.2-0.2c0.2-0.2,0.6-0.2,0.6-0.3c0-0.1,0-0.2,0-0.2s-0.2,0.1-0.3,0.2l-0.2,0.2c0,0,0.2-0.2,0.3-0.3
		c0.2-0.1,0.1-0.1,0.2-0.2c0.1-0.1,0.2-0.1,0.2-0.2s-0.5,0.2-0.5,0.3c-0.2,0.2-0.1,0-0.1,0s0.2-0.2,0.4-0.3c0.2-0.2,0.2-0.2,0.2-0.2
		s0.1-0.1,0.1-0.2V65c0,0-0.3,0-0.4,0.2s0,0.2-0.2,0.4c-0.2,0.2-0.3,0.2-0.5,0.3V66c0.1,0,0.2-0.2,0.2-0.2c0.2,0,0.5-0.2,0.5-0.4
		c0-0.2,0.1-0.3,0.2-0.4c0.2-0.1,0.2,0,0.3-0.2c0.1-0.1,0.2-0.6,0.2-0.5c0,0-0.1,0-0.5,0.2s-0.5,0.2-0.8,0.2s-0.2,0-0.2,0
		s0.3-0.1,0.5-0.2s0.3-0.1,0.5-0.2s0.2-0.1,0.3-0.2s0.1-0.2,0.1-0.2s-0.2,0-0.3,0.2c-0.2,0.2-0.2,0.2-0.2,0.2c0-0.1,0.2-0.3,0.4-0.4
		s0.2-0.1,0.2-0.1s0-0.1,0.1-0.2c0.1-0.1,0.1-0.2,0.1-0.2s-0.3,0-0.5,0.1c-0.3,0.1-0.5,0.1-0.5,0.1c-0.1,0-0.2,0.1-0.2,0.1
		c-0.1,0.1-0.2,0.1-0.2,0.1s0.5-0.2,0.6-0.3c0.2,0,0.2-0.2,0.5-0.2c0.2,0,0.2-0.1,0.2-0.1s0-0.1,0.1-0.3l0.1-0.2c0,0-0.2,0-0.3,0.1
		C39.2,63,39.2,63,39.2,63l0.5-0.4c0,0,0,0.1,0.1-0.2c0-0.2,0.1-0.2,0.1-0.2s-0.2,0-0.4,0.2c-0.1,0.1-0.2,0.2-0.2,0.3
		C39,63,39,63,39,63l0.5-0.6c0-0.1-0.2,0-0.5,0c-0.2,0-0.2,0-0.4,0.2c-0.1,0.2-0.2,0.2-0.2,0.2l0.2-0.3c0,0,0.4-0.1,0.5-0.2
		c0.2-0.1,0.3,0,0.5-0.1c0.1-0.1,0.2,0,0.3-0.1s0.2-0.2,0.1-0.2c-0.1,0,0.1,0-0.4,0c-0.3,0-0.4-0.1-0.6,0.1
		c-0.2,0.1-0.2,0.2-0.3,0.2c-0.2,0-0.2,0-0.2,0S39,62,39.2,62s0.3,0,0.5-0.1c0.2,0,0.4,0,0.5,0s0.1,0,0.1-0.1s0-0.1,0-0.2
		c0-0.1-0.2-0.1-0.1-0.1s0.2-0.2,0.2-0.5l0.1-0.2c0,0-0.4,0.1-0.6,0.3c-0.2,0.2-0.2,0.2-0.2,0.2s0.1-0.2,0.2-0.3
		c0.2-0.2,0.3-0.2,0.4-0.2c0.2-0.1,0.2,0,0.2,0c0.1-0.2,0.1-0.2,0.1-0.3c0.1-0.1,0.1-0.1,0.1-0.2c0-0.1,0-0.1,0.1-0.2
		c0.1-0.1,0.1-0.3,0.1-0.5s0.1-0.2,0.2-0.3c0.1-0.1,0.2-0.5,0.2-0.6s0.1-0.2,0.2-0.3c0.1-0.2,0.2-0.2,0.1-0.2c0-0.1-0.2-0.2-0.3-0.2
		s-0.2,0.2-0.4,0.2c-0.2,0.1-0.1-0.1-0.3,0.1l-0.3,0.2c0,0,0.3-0.3,0.5-0.5s0.3-0.2,0.4-0.2c0.2,0,0.2-0.2,0.2-0.1
		c0.1,0,0.1,0.2,0.2,0.1c0.1-0.1,0.2-0.3,0.1-0.4c0-0.1-0.1-0.1-0.2-0.1c-0.1,0-0.2,0-0.4,0c-0.1,0.1-0.2,0.1-0.2,0.1s0,0,0.2-0.1
		s0.5-0.1,0.5-0.2c0.1,0,0.2,0,0.1-0.2c0-0.1,0-0.1-0.2-0.1c-0.2,0.1-0.2,0-0.2,0.1c-0.1,0-0.2,0,0.1-0.1c0.2-0.1,0.2-0.1,0.3-0.2
		c0-0.1,0.2-0.2,0-0.2c-0.1,0-0.2,0-0.2,0s0,0-0.1,0.1l-0.5,0.7c-0.1,0.1,0.1-0.1,0.2-0.2s0.2-0.2,0.4-0.3c0.1-0.1,0.2-0.2,0.2-0.2
		s0.1-0.2-0.1-0.2c-0.1-0.1-0.1-0.2-0.1-0.3s0-0.3,0-0.5s-0.1-0.2-0.1-0.2l-0.2,0.4c-0.1,0.1-0.2,0-0.2,0.2s-0.1,0.2-0.1,0.4
		c0,0.3,0,0.3,0,0.4s0-0.2,0-0.5c0-0.1,0-0.2,0-0.2c0.1-0.2,0.2-0.2,0.2-0.3s-0.1,0-0.1-0.2s0-0.2,0-0.2c0-0.1,0-0.3,0-0.3
		s-0.2,0.3-0.2,0.5c-0.1,0.2-0.1,0.4-0.2,0.5c0,0.1,0-0.1,0-0.3c0.1-0.2-0.1-0.2-0.1-0.2s-0.2,0.2-0.2,0.4c-0.1,0.2-0.1,0.1,0-0.1
		c0.1-0.2-0.1,0-0.1,0s0,0-0.1,0.3c0,0.2,0,0.3,0,0.4c0,0-0.1-0.1-0.1-0.3V56c0,0,0.2-0.4,0.2-0.5c0.1-0.2-0.1-0.2-0.2,0
		c-0.1,0.2-0.1,0.2-0.2,0.4c0,0.1,0.2-0.5,0.3-0.8s0.2,0,0.3-0.5c0-0.5,0-0.7,0-0.7s-0.1-0.3-0.1-0.2s-0.3,1.1-0.5,1.5
		c-0.2,0.3-0.3,0.4-0.3,0.4s0.5-0.7,0.5-1.1c0.2-0.5,0.2-0.8,0.3-0.9c0.1-0.2,0.1-0.2,0.1-0.4c-0.1-0.2-0.2,0-0.2,0.2
		c-0.1,0.2-0.3,0.6-0.5,1.1c-0.2,0.4-0.2,0.9-0.3,1.1c0,0.2,0,0,0.1-0.5c0.1-0.4,0.4-1.2,0.5-1.5c0.2-0.3,0.2-0.5,0.2-0.5
		s-0.3,0.6-0.5,1.1s-0.2,0.5-0.2,0.5s0.4-0.8,0.5-1.1l0.1-0.2c0,0-0.1-0.1-0.3,0.3c-0.3,0.5-0.4,0.7-0.5,0.8l-0.1,0.2l0.2-0.5
		l0.9-1.5l-0.8,1.1l0.7-1.1l-0.5,0.6l0.3-0.8l-0.3,0.4l0.2-0.5l-0.2,0.4c0,0-0.4,0.5-0.5,1C39,54.3,39,54.4,39,54.4s0.3-0.9,0.5-1.3
		c0.2-0.5,0.2-0.3,0.4-0.5c0.2-0.3,0.1-0.2,0.1-0.2s-0.3,0.2-0.5,0.5s-0.3,0.5-0.4,0.6C39,53.7,39,53.7,39,53.7l0.3-0.7
		c0,0-0.2,0.2-0.5,0.5c-0.2,0.2-0.3,0.3-0.3,0.3s0.1-0.1,0.2-0.2c0.3-0.4,0.8-0.9,1.1-1.1c0.2-0.2,0.2-0.2,0.2-0.2v-0.2
		c0-0.1-0.3,0.1-0.4,0.2l-0.5,0.4c0,0,0,0,0.3-0.3s0.6-0.5,0.6-0.5s-0.2-0.1-0.6,0.2c-0.4,0.3-0.5,0.3-0.7,0.6
		c-0.2,0.2,0.1-0.2,0.3-0.5c0.2-0.2,0.9-0.5,0.9-0.5s-0.1-0.5-0.1-0.6s0-0.1,0.1-0.2c0-0.2,0-0.2,0.1-0.4c0-0.1,0-0.3,0-0.5
		s0.2-0.3,0.1-0.4C40,49.4,40,49.2,39.9,49c-0.1-0.2-0.2-0.2-0.2-0.2s-0.1,0-0.1,0.1s0.2,0.8,0.2,0.8l-0.2-0.8l0.1,0.6
		c0,0,0.1-0.6,0.1-0.8s0-0.2-0.1-0.2s-0.2,0.1-0.2,0.1s-0.2,0.4,0,0.8c0.2,0.3,0.3,1.1,0.3,1.1l-0.4-1.4c0,0-0.1,0.2-0.2,0.8
		l-0.1,0.8c0,0,0-0.7,0-1s0.2-0.8,0.1-0.9H39c0,0,0.1,0.2,0,0.4c0,0.1,0,0.1-0.1,0.3s0-0.1,0-0.3s0.1-0.4,0.1-0.4h0
		c0,0-0.4,1.1-0.4,0.9c0-0.1,0.3-0.9,0.3-0.9h-0.2l-0.2,0.8c0,0,0.3-0.9,0.2-0.8c-0.2,0,0,0.2,0,0.2l-0.5,1.1l0.2-0.3
		c0.2-0.3,0.3-1,0.3-1h-0.2c0,0-0.1,0.1-0.2,0.6c0-0.1,0-0.6,0-0.6h-0.1l-0.1,0.5L38,48.8l-0.1,0.6v-0.6l-0.2,0.8v-0.8l-0.2,1.3
		l0.1-1.3c-0.1,0-0.2,1.2-0.2,1.1s0-1.1,0-1.1h-0.1c0,0,0,0.1-0.1,0.2l-0.5,1.1c0,0,0,0,0.2-0.5c0.2-0.5,0.3-0.9,0.3-0.9
		s-0.1-0.1-0.2,0c-0.1,0-0.5,0.9-0.5,0.9l0.5-0.9c-0.1,0-0.5,1.1-0.5,0.8c0.1-0.2,0.3-0.8,0.3-0.8h-0.2l-0.2,0.5
		c0-0.1,0.1-0.5,0-0.5c0-0.1,0,0-0.1,0.2S36,49.6,36,49.6s0.1-0.2,0.2-0.3c0.1-0.2,0.2-0.5,0.2-0.5c-0.2,0-0.2,0-0.2,0.1
		c-0.1,0.2-0.1,0.3-0.2,0.5s-0.3,0.8-0.3,0.6s0.2-0.5,0.3-0.8c0.2-0.4,0-0.5,0-0.5s-0.2-0.1-0.2,0c0,0-0.1,0.3-0.2,0.5
		c-0.2,0.3-0.3,0.5-0.2,0.5c0.2-0.2,0.3-1,0.3-1l-0.1,0.2c-0.1,0.1-0.8,1.4-0.5,0.6c0.1-0.2,0.5-0.8,0.5-0.8s0-0.1-0.1-0.1
		s-0.2,0-0.2,0l-0.5,0.8l0.5-1.1l-0.8,1.1l0.8-1.1l-1.4,2.1l1.5-2.4c0,0,0-0.1-0.1-0.1s-0.4,0.5-0.4,0.5l0.3-0.5l-0.9,0.9L35,48
		l0.1-0.2L34.6,48l0.4-0.2l-0.3-0.1l-0.3,0.2l0.2-0.2l-0.2-0.1l-0.3,0.7l0.2-0.7L34,47.5c0,0-0.1,0-0.1,0.2s0,0.7,0,0.7v-0.2
		c0-0.2,0-0.3,0-0.3l-0.3,0.4c0,0,0,0,0.2-0.2c0.1-0.2,0.2-0.8,0.2-0.8s-0.2-0.1-0.3,0c-0.2,0.1-0.1,0-0.2,0.3
		c-0.1,0.2-0.1,0.3-0.2,0.5s-0.2,0.2-0.2,0.2s0.1-0.1,0.2-0.3c0.1-0.3,0.1-0.6,0.1-0.6s-0.2,0-0.3,0.2S33,47.8,33,47.9
		s0,0.1-0.1,0.2c0,0.1-0.4,1-0.4,1l0.1-0.2c0.1-0.2,0.2-0.5,0.2-0.7c0-0.1,0.1-0.2,0.1-0.2l-0.1,0.1l0.1,0.2l-0.1,0.2l-0.1,0.1v0.2
		h-0.1v0.7L32.5,49c0,0,0,0-0.1,0.1s-0.1,0.1-0.1,0.1l0.1,0.7l-0.1-0.5c0,0-0.1,0.1-0.2,0.2c-0.1,0.1,0,0.2,0,0.2l0.2,0.7L32,50
		c0,0-0.1,0-0.2,0s-0.1,0.1-0.2,0.2c0,0.1,0,0.1,0,0.2c0,0.1,0,0.1-0.1,0.2c-0.1,0.1-0.1,0.2-0.1,0.2c0,0.1-0.1,0.1-0.2,0.1v0.2
		l-0.1,0.8v-0.8c0,0-0.1-0.2-0.1,0s-0.1,0.2-0.1,0.2l-0.1,0.1c-0.1,0.1,0,0-0.1,0s-0.1,0-0.1,0.1s0.2,0.5,0.2,0.5l0.2-1
		c-0.1,0-0.2,0-0.2,0.1s0.1,0.5,0.1,0.5l-0.1-0.5l-0.2,0.1c-0.1,0.1-0.1,0-0.1,0.1s0.1,0.4,0.1,0.4l-0.2-0.2c0,0,0,0-0.1,0
		s-0.2,0.2-0.2,0.2c0,0.1,0.1,0.8,0.1,0.8l-0.1-0.6H30v0.6L29.9,52l-0.2,0.1V53l-0.1-0.8c0,0-0.1,0-0.2,0.2c0,0.2,0.1,0.8,0.1,0.8
		l-0.2-0.7c0,0,0,0-0.1,0.1s-0.1,0.1-0.1,0.2c0,0-0.1,0.1-0.2,0.2c-0.1,0.1-0.1,0.1-0.2,0.2c0,0.1,0.2,0.3,0.2,0.5
		c0,0.1,0.1,0.3,0,0.3c-0.1,0.1-0.1,0.5-0.1,0.5v-0.3c0-0.2,0-0.2,0.1-0.3c0-0.2,0-0.2-0.1-0.3l-0.1-0.4c-0.1,0.1-0.2,0.1-0.2,0.2
		c-0.1,0.1,0,0.1,0,0.2s-0.1,0.1-0.1,0.1c-0.1,0.2-0.2,0.2-0.2,0.2v0.2c0,0.2-0.1,0.5-0.1,0.6l-0.2,0.5c0,0,0,0,0.2-0.5
		c0.1-0.2,0.1-0.3,0.1-0.4c0-0.2,0-0.3,0-0.3s0,0.1-0.1,0.2c-0.1,0.2-0.1,0.2-0.2,0.3c-0.2,0.1-0.1,0.1-0.1,0.2
		c0,0.1-0.1,0.2-0.2,0.2c-0.1,0.1-0.2,0.3-0.4,0.5C27,55.6,27,55.7,27,55.7s0,0.2-0.1,0.2c0,0.2,0.2,0.5,0.2,0.5l-0.3-0.5h-0.2v0.2
		l-0.1,0.1v0.6v-0.6c-0.2,0-0.2,0.2-0.2,0.2l-0.1,0.8c0,0,0.1-0.2,0.1-0.4s0-0.4,0-0.4H27l-0.1,0.4L26.7,57v0.2
		c0,0.2,0.1,0.7,0.1,0.7l-0.1-0.5v0.4l-0.1-0.3c0,0-0.1,0.1-0.1,0.2c0,0,0,0.1-0.1,0.2l-0.2,0.5l0.2-0.4l-0.2-0.4
		c0,0-0.1,0.1-0.2,0.2c-0.1,0.1,0,0-0.1,0.1s0,0.1,0.1,0.2c0.1,0.2,0,0.5,0,0.5s0,0,0-0.2s-0.1-0.3-0.1-0.3s-0.1,0.4-0.1,0.5v0.2
		v0.8c0,0-0.1-0.7-0.1-0.8c0-0.2-0.1-0.2-0.1-0.2s-0.2,0.2-0.2,0.5c-0.1,0.2-0.2,0.3-0.2,0.4L25,59.7v-0.2c0,0-0.1-0.1-0.2,0
		s-0.2,0.1-0.2,0.1v-0.2l-0.2,0.1l-0.1,0.2c-0.1,0.2-0.2,0.3-0.2,0.3v-0.4H24v0.5l-0.1-0.5c-0.1,0-0.2,0-0.3,0.2
		c-0.2,0.1-0.2,0.2-0.2,0.2c-0.1,0.1-0.1,0.1-0.1,0.2c0,0.1,0,0.1-0.2,0.1c-0.1,0-0.1,0.2-0.1,0.2c0,0.1,0.2,0.3,0.2,0.3L23,60.5
		c0,0-0.1,0.1,0,0.2c0,0.1,0.2,0.3,0.2,0.3L23,60.7l-0.1,0.2c0,0.1,0,0.2,0,0.2s0.1,0.1,0.1,0.2c0.1,0.2,0.2,0.6,0.2,0.6
		s-0.1-0.2-0.2-0.4c0-0.1-0.2-0.2-0.2-0.2l0.1,0.3l-0.2-0.2l0.1,0.5l-0.1-0.2c0-0.1-0.1-0.1-0.1-0.2l-0.1-0.2v0.2l0.1,0.3v0.5v-0.2
		c0-0.1-0.1-0.4-0.1-0.5s-0.1-0.2-0.1-0.2l0,0c-0.1,0.1-0.1,0.1-0.1,0.2c0,0.2,0,0.3-0.1,0.4c-0.2,0.1,0,0,0,0.2s0,0.1-0.2,0.1
		c-0.1,0-0.1,0-0.2,0.2s-0.6,1-1.1,1.6c-0.2,0.2-0.6,0.8-1.1,1.4c-0.7,0.8-1.4,1.5-1.6,1.7c-0.3,0.3-1,0.8-1.1,0.9
		c-0.2,0.2-0.2,0.2-0.2,0.2v0.3c0,0,0-0.4-0.1-0.5c0-0.2,0-0.1-0.2,0c-0.1,0.1-0.1,0.1-0.1,0c0-0.2,0-0.2-0.2-0.1s-0.2,0.2-0.1,0.3
		c0.1,0.1,0.2,0.4,0.2,0.5c0,0.2,0.1,0.2,0.1,0.2s-0.2-0.2-0.2-0.4c-0.1-0.2-0.2-0.2-0.2-0.2v0.2c0,0,0,0.1,0.1,0.3
		c0.1,0.2,0.2,0.8,0.2,0.8v-0.2c0-0.2-0.2-0.4-0.2-0.6c-0.1-0.2-0.2-0.2-0.2-0.2c0,0.2,0,0.3-0.1,0.2c-0.1,0,0.1,0.5,0.2,0.8
		s0.4,0.7,0.4,0.7L16,69.9v0.4c0,0-0.2-0.8-0.3-1.1c0-0.3-0.1-0.4-0.1-0.4s-0.1,0-0.1,0.2c0,0.1-0.2,0.1-0.2,0.2
		c-0.1,0.1,0,0.1-0.2,0.1c-0.1,0-0.1,0-0.1,0.2c0,0.1,0,0.3-0.1,0.5c0,0.2-0.1,0.2-0.1,0.2s0.1-0.2,0.1-0.3c0-0.2,0-0.2,0-0.2
		c-0.2,0.1-0.4,0.4-0.4,0.4v0.5l0.1-0.3c0,0-0.4,0.3-0.5,0.5c-0.2,0.2-0.2,0.2-0.4,0.3c-0.2,0.1-0.4,0.2-0.5,0.3
		c-0.1,0.1-0.1,0.1-0.2,0.2s0,0-0.2,0.2s-0.6,0.5-0.7,0.5c-0.1,0.1-0.4,0.4-0.4,0.4c0.1-0.1,0.2-0.3,0.2-0.3s-0.1,0-0.2,0.1
		c0,0-0.2,0.2-0.8,0.3c-0.3,0-1.1,0-1.1,0c-0.1,0-0.2-0.1-0.2-0.1l-0.1-0.2c0-0.2-0.2-0.2-0.2-0.2c-0.1,0-0.1-0.1,0-0.2
		c0-0.2,0-0.2,0-0.3s0.1-0.3,0.2-0.5c0-0.2,0-0.2,0-0.3c0-0.1,0-0.1,0-0.2s0.2,0,0.2-0.2c0-0.1,0.1-0.2,0.2-0.2s0.1-0.1,0.1-0.2
		s0.1-0.1,0.2-0.2c0.1-0.2,0.1-0.2,0.2-0.3c0.2-0.2,0.3-0.2,0.4-0.2c0.1-0.1,0.1-0.1,0.3-0.2c0.2,0,0.2-0.1,0.2-0.2s0-0.1,0.2-0.2
		s0.2-0.1,0.1-0.2c-0.2-0.1,0.1-0.1,0-0.2s-0.3-0.3-0.5-0.4s-0.3-0.1-0.4-0.2c-0.2,0-0.2,0,0,0s0.3,0,0.5,0.2
		c0.2,0.1,0.3,0.2,0.3,0.2c0.1,0.1,0.1,0.1,0.2,0s0.2-0.1,0.2-0.1s0-0.1,0.1-0.1c0.2,0,0.2,0,0.2-0.1c0.1-0.1,0,0,0.2,0
		c0.1,0,0.2-0.1,0.3-0.2c0.1-0.1,0.2-0.2,0.2-0.2s0,0-0.2,0s-0.5-0.1-0.7-0.2l-0.8-0.1c0,0,0.2-0.1,0.8,0c0.2,0,0.5,0.1,0.5,0.1
		c0.3,0,0.3,0,0.4,0c0.2,0,0.4-0.2,0.4-0.2c0-0.1-0.2-0.2-0.2-0.2c-0.1,0-0.2-0.1-0.2-0.1s0.1,0,0.2,0s0.2,0,0.3,0.1
		c0.1,0,0,0.1,0.1,0.1c0.2,0.1,0.1-0.2,0.2-0.2s0.1,0,0.2-0.1s0.2,0,0.3-0.1c0.1,0,0-0.2,0.1-0.2c0.1,0.1,0.1,0,0.1,0s0.1-0.2,0-0.2
		s-0.1,0-0.2-0.1S14,66.1,13.9,66c-0.2-0.1-0.7-0.5-0.7-0.5s0.2,0.2,0.4,0.2c0.3,0.2,0.6,0.3,0.6,0.3c0-0.2-0.7-0.8-0.7-0.8
		c0.1,0.1,0.4,0.3,0.5,0.5c0.1,0.1,0.3,0.4,0.3,0.3c0.1,0.1,0.1,0.1,0.2,0.2s0.2,0,0.2-0.1c0-0.2,0.1-0.1,0.1-0.2
		c0-0.2,0-0.2-0.1-0.2h-0.2c0,0,0.2,0,0.2-0.1c0.1,0,0.1,0,0-0.2c0-0.2,0-0.1,0.1-0.2s0.1-0.1,0.2-0.2c0.1-0.2,0.1-0.2-0.2,0
		c-0.3,0.2-0.5,0.4-0.5,0.4s0,0,0.2-0.2s0.6-0.3,0.6-0.3s0,0,0.2,0s0,0,0.1-0.2c0-0.1,0.2-0.1,0.2-0.2c0.1-0.1,0-0.2-0.3-0.1
		c-0.4,0.2-0.8,0.4-0.8,0.4s0.1-0.1,0.5-0.2c0.4-0.2,0.6-0.2,0.6-0.2c0.1,0,0.2,0,0.2-0.1c0.1-0.1,0.2-0.1,0.2-0.2
		c0.1-0.1,0,0,0.1,0s0.1,0,0.1-0.2c0-0.1,0.1-0.2,0.2-0.1c0.1,0,0.1-0.1,0.1-0.2c0-0.1-0.2-0.1-0.5-0.1s-0.8,0.1-0.8,0.1H16
		c0.2,0,0.2-0.1,0.4-0.1c0.2,0,0.5,0,0.5,0s0.1,0.6,0.2,0.5c0.2-0.1,0.2-0.2,0.1-0.2c0-0.1-0.1,0-0.2-0.1l-0.4-0.1c0,0,0.1,0,0.2,0
		c0.2,0,0.5,0.1,0.5,0s0.2,0,0.2-0.1c0,0-0.1-0.1-0.2-0.1s-0.2,0-0.4,0c-0.2,0-0.5,0-0.5,0s0,0,0.3,0h0.6h0.2c0.2,0,0.2,0,0.2-0.1
		l0.1-0.1c0,0-0.3,0-0.6,0c-0.3,0.1-0.8,0.2-0.8,0.2l0.2-0.2c0.2-0.1,0.8-0.2,0.6-0.2c-0.2,0,0.6-0.1,0.7-0.1C18,63.2,18,63,18,63
		c0-0.1,0.2-0.1,0.2-0.2c0-0.1,0.2-0.1,0.2-0.2c-0.1-0.2-0.7-0.2-0.9-0.1s-0.3,0.2-0.5,0.2c-0.1,0-0.4,0-0.5,0
		c-0.2,0-0.2,0.1-0.4,0.1c-0.2,0-0.5,0.1-0.3,0s0.5-0.2,1.4-0.3c0.3-0.1,0.4-0.1,0.5-0.1c0.3,0,0.5,0.1,0.6,0.1c0.2,0,0.2,0.1,0.2,0
		s0.1-0.2,0.2-0.2c-0.2-0.1-0.3-0.2-0.6-0.2c-0.3-0.1-1.6-0.3-1.6-0.3h0.4c0.4,0,1.8,0.3,1.9,0.2c0.1,0,0.2-0.2,0.1-0.2
		s-0.8-0.2-0.9-0.3c-0.2,0-0.3-0.1-0.3-0.1s1.1,0.3,1.3,0.4c0.2,0.1,0.2,0,0.1-0.1s-1.2-0.6-1.3-0.7s-0.2-0.2-0.2-0.2
		s1.4,0.7,1.5,0.8c0.2,0.1,0.2-0.1,0.2-0.2s-0.7-0.3-0.6-0.3s0.5,0.2,0.7,0.2s0.2,0,0.2-0.1s-0.2-0.1-0.3-0.2
		c-0.1,0-0.5-0.2-0.8-0.3c-0.2-0.1-0.3-0.2-0.3-0.2l0.2,0.1c-0.1,0,1.2,0.5,1.3,0.5l0.2-0.2c0,0-0.1,0-0.3-0.1
		c-0.2,0-0.3-0.3-0.3-0.3s0-0.1,0.2,0.1C19.4,61,19.6,61,19.6,61s0.2,0,0.3-0.1s0.5-0.6,0.6-0.7c0.1-0.2,0.2-0.2,0.2-0.2
		s-0.1-0.1-0.2-0.2c-0.2-0.1-0.2-0.1-0.4-0.1c-0.2,0-0.3-0.1-0.3-0.1s0.3,0,0.5,0s0.4,0.2,0.5,0.2s0.2,0,0.2-0.1s0-0.1,0.1-0.1
		c0.1-0.2,0.1-0.2,0.2-0.2c0.1-0.1,0.1-0.2,0.1-0.3s0.1-0.3,0.1-0.4c0,0,0,0,0.2,0c0.1-0.1,0.2-0.2,0-0.2c-0.1,0-0.1,0-0.3-0.1
		c-0.2,0-0.7-0.1-0.7-0.1s0,0,0.3,0c0.2,0,0.5,0,0.8-0.1c0.2,0,0.2,0.1,0.4-0.1c0.1-0.1,0-0.2,0-0.4s0.1-0.3,0.2-0.4
		s0.2-0.2,0.1-0.2c-0.1-0.1-0.4,0.2-0.4,0.2l0.2-0.2c0.2-0.2,0.2-0.1,0.2-0.2c0.1-0.1,0.2-0.2,0.2-0.2c0.1-0.1,0.2-0.2,0.1-0.2
		c0-0.1-0.2,0-0.4,0.1c-0.2,0.1-0.5,0.2-0.2,0s0.6-0.2,0.7-0.2s0.2-0.2,0.2-0.2c0.1,0,0.2-0.2,0.1-0.2s-0.2,0-0.4,0.1
		c-0.2,0.1-0.5,0.3-0.6,0.3c-0.2,0,0.2-0.1,0.5-0.3s0.2-0.1,0.3-0.2c0.2,0,0.2,0,0.3-0.1c0.2,0,0.2-0.2,0.2-0.2
		c0-0.1,0.2-0.2,0.2-0.2c0.1,0,0,0,0-0.1c0.2-0.1,0.2-0.2,0.1-0.2c-0.1-0.1-0.2,0-0.2-0.1s-0.2-0.2-0.2-0.2s0,0,0.1,0.1
		s0.2,0.1,0.2,0.1c0.1,0,0.2,0,0.2,0c0.4,0.3,0.4,0.2,0.4,0.1c0-0.1,0-0.2,0.2-0.2c0.1,0,0.1-0.1,0-0.2c0-0.2,0-0.1,0.1-0.1
		c0.2,0,0.1-0.2,0.1-0.2c0.1-0.2,0.1-0.1,0.2-0.2c0.1-0.1,0.2-0.2,0.2-0.2h-0.2c-0.1,0-0.1,0-0.1,0.1c-0.2,0.1-0.2,0.1-0.2,0.2
		c0,0.1,0,0-0.1,0.1c-0.1,0-0.2,0.2-0.3,0.2s-0.2,0-0.2,0.1c-0.1,0.1-0.2,0.2-0.3,0.3c-0.2,0.2-0.3,0.2-0.3,0.2s0,0,0.1-0.1
		s0.2-0.3,0.4-0.4c0.2-0.2,0.2-0.1,0.3-0.1s0.2-0.1,0.2-0.2c0.2-0.1,0.2-0.1,0.2-0.1c0.1,0,0.1-0.1,0.1-0.2c0-0.1,0.2,0,0.2-0.1
		c0.1,0,0.1-0.1,0.2-0.2c0.1-0.1,0-0.1,0.1-0.2c0-0.1,0.1-0.1,0.2-0.2c0-0.1,0-0.2,0-0.2c-0.1,0-0.2,0.1-0.3,0.2
		c-0.2,0.1-0.2,0.2-0.3,0.2c-0.2,0.1-0.2,0.1-0.2,0c0.1,0,0.1-0.1,0.3-0.2c0.2-0.2,0.1-0.1,0.2-0.1l0.2-0.1c0.1-0.1,0.2,0,0.2-0.1
		c0.1-0.1,0.2-0.3,0.2-0.3l-0.2-0.1c-0.2,0-0.2,0-0.4,0.1c-0.2,0-0.3,0-0.3,0s0.2-0.1,0.4-0.2c0.2,0,0.4,0,0.5,0s0.2,0,0.2,0
		l0.1-0.1c0,0,0.1-0.1,0.1-0.2c0.1-0.1,0-0.2,0.2-0.2c0.2-0.1,0.2-0.2,0.2-0.3s-0.1-0.1-0.2-0.1s0,0-0.2,0s-0.8,0-0.8,0
		c0-0.1,0-0.1,0.2-0.1s0.5,0,0.6-0.1c0.2,0,0.3,0.2,0.3,0.1c0,0,0.1-0.1,0.1-0.2c0.2,0,0.2-0.2,0.2-0.2s-0.1-0.1-0.2-0.1
		s-0.2,0-0.3,0C26.1,51,26,50.9,26,50.7c-0.1-0.2,0.1,0,0.2,0.2s0.2,0.2,0.2,0.1c0.1,0,0.2,0,0.2,0c0.1,0,0.1-0.1,0.1-0.2
		c0-0.1,0.1,0,0.2-0.1c0-0.2,0-0.1,0.1-0.2c0.1,0,0.2-0.2,0.2-0.2s-0.3,0-0.5,0c-0.3,0-0.5,0-0.5,0s0.3-0.1,0.6-0.2
		c0.3-0.1,0.5,0,0.5,0L26.4,51h-0.2c0-0.1,0.2-0.1,0.2-0.1c0.1,0,0.2-0.2,0.2-0.2s0.1,0,0.2-0.1c0.1,0,0.1-0.2,0.1-0.2s0,0-0.2,0
		s-0.2-0.1-0.2-0.1H27c0,0,0,0,0.1,0c0.1-0.1,0.1-0.1,0-0.2c0.2-0.1,0.1-0.2,0.1-0.2V50c0-0.1,0.1-0.2,0.1-0.2c-0.1,0-0.2-0.1-0.2,0
		V50H27c0,0,0,0.1-0.2,0.2c-0.2,0-0.1,0-0.2,0s-0.2,0-0.2-0.1S26.2,50,26.1,50c-0.2,0-0.2-0.1-0.2-0.1s0.1,0,0.2,0
		c0.2,0,0.2,0,0.3,0s0.1,0.1,0.2,0.1c0,0,0.1,0.1,0.1,0l0.1-0.2c0,0,0.1,0,0.2,0s0.1-0.2,0.1-0.2h0.3c0.2,0,0.2-0.1,0.2-0.2
		s0-0.1,0-0.2c0-0.2-0.1-0.2,0-0.2s0-0.2,0-0.2h-0.2c-0.1,0-0.2,0-0.2-0.1c-0.1-0.1-0.2-0.1-0.2,0c-0.1,0.1-0.2,0.2-0.2,0.2l0.2-0.3
		l0,0c0.1,0,0.2,0.2,0.2,0.2h0.2v-0.2c0,0,0-0.1,0.1-0.1s0.2,0,0.2-0.2c0-0.1,0-0.2-0.2-0.1c-0.2,0.1-0.2,0.2-0.2,0.2
		s-0.1-0.2,0.2-0.2c0.2-0.1,0.3-0.2,0.3-0.2l0,0c0,0-0.1,0-0.2,0c-0.2,0-0.5,0-0.5,0s0.2,0,0.4,0s0.4,0,0.4,0c0.1-0.2,0-0.2,0-0.2
		s0.1-0.1,0.2-0.1S28,47.6,28,47.6l0.2-0.1c0,0,0-0.2,0-0.3s0-0.1,0.2-0.1c0.1-0.1,0.1,0,0.1-0.2c0.2-0.1,0.2-0.2,0.2-0.2
		c0-0.1,0,0-0.2-0.1c-0.1,0-0.1,0-0.2,0c-0.1,0.1-0.2,0.2-0.2,0.2l-0.1,0c0.1-0.1,0.1-0.2,0.2-0.2s0.2,0,0.3,0c0.2,0,0.2,0,0.2-0.1
		c0.1-0.2,0.2-0.2,0.2-0.3s0,0,0.2-0.1C29,46.1,29,46,29,45.9s0,0,0.2-0.1c0.1,0,0,0,0.1-0.1c0-0.1,0.1-0.1,0.1-0.1s0.1-0.1,0.2-0.2
		c0-0.1,0-0.1,0.2-0.1c0.1,0,0.2-0.2,0.2-0.2s0,0,0.2-0.1s0.2-0.2,0.2-0.2c0-0.1,0-0.1,0.1-0.1s0.1-0.1,0.1-0.2c0-0.1,0-0.1,0.2-0.1
		s0.2-0.2,0.1-0.2c-0.1-0.1-0.4,0-0.4,0s0,0,0.2-0.1c0.2,0,0.3,0,0.4,0s0.2-0.1,0.2-0.1l0.3-0.1c0,0,0.1-0.2-0.2-0.2
		s-0.5,0.1-0.7,0.2c-0.3,0.5-0.5,0.6-0.5,0.5c0.1-0.1,0.2-0.2,0.6-0.2c0.2,0,0.3-0.1,0.4-0.1s0.1,0,0.2,0s0.1,0.1,0.2,0.1
		s0.2-0.1,0.2-0.2c0.2-0.2,0.1-0.3,0.2-0.3c0,0,0.1,0.1,0.2,0c0-0.1,0.1-0.2,0.2-0.2c0.1-0.1,0.2-0.1,0.4-0.2c0.2-0.1,0.1,0,0.2-0.2
		c0.2-0.2,0.2-0.2,0.5-0.2s0.5-0.2,0.7-0.3s0.2-0.1,0.3-0.1s0.1-0.1,0.2-0.2c0.2,0,0.5-0.1,0.6-0.2c0.1-0.1,0.1,0,0.2,0s0,0,0.1-0.1
		c0-0.1,0.1,0,0.2,0.1s0.2,0,0.3,0.1c0.2,0.1,0.2,0,0.2,0c0-0.1,0.1-0.1,0.1-0.1s0,0.1,0.1,0.2c0.1,0.1,0.2,0.1,0.3,0
		c0.1,0,0.2,0,0.2,0c0.2,0,0.2,0.2,0.5,0.2c0.2,0,0.9,0.5,1.2,0.7s0.7,0.5,1.1,0.4c0.5-0.1,0.8-0.3,0.8-0.5c0.1-0.2-0.2-0.5-0.2-0.5
		s-0.4,0-0.4-0.1s-0.1-0.2-0.2-0.2c-0.2-0.1-0.5,0-0.7,0c-0.1,0-0.2,0.1-0.7,0.1c-0.4,0-1.1-0.1-1-0.1s-0.2-0.1-0.2-0.1L37,42.1
		l-0.2-0.2l-0.1,0.2c0,0,0-0.1,0-0.2s-0.1-0.1-0.2,0c-0.1-0.1-0.2-0.2-0.3-0.2H36l-0.2,0.2l0.1-0.2V42l-0.1,0.3v-0.2
		c0,0-0.1-0.2-0.2-0.1c-0.1,0-0.1,0.2-0.1,0.2s0-0.2,0-0.3s-0.2-0.1-0.2-0.1s-0.2,0.5-0.2,0.3s0.1-0.4,0.1-0.4L35,41.5
		c0,0-0.2,0.2-0.2,0.3c-0.1,0.1-0.2,0.1-0.2,0.2l-0.3,0.2c0,0,0,0,0.1-0.1s0.3-0.2,0.5-0.3c0.2-0.2,0.2-0.2,0.1-0.2
		c-0.2,0-0.2-0.2-0.2-0.1c-0.1,0.1-0.2,0.2-0.2,0.2c0,0.1-0.6,0.5-0.6,0.5l0.2-0.2c0.2-0.2,0.5-0.5,0.5-0.5s-0.1,0-0.2,0.1
		c-0.2,0.1-0.2,0.1-0.2,0.1s0,0,0.3-0.2c0.2-0.2,0.3-0.2,0.3-0.2s-0.2-0.2-0.3-0.1c-0.1,0-0.5,0.3-0.5,0.3l0.4-0.3
		c0,0,0-0.1-0.2-0.1S34.2,41,34.1,41s-0.1,0-0.2,0.1s-0.3,0.3-0.4,0.4c-0.2,0.1-0.4,0.1-0.4,0.1s0.2,0,0.5-0.2
		c0.2-0.1,0.4-0.4,0.3-0.3c-0.1,0.1,0.1-0.2,0.1-0.2c-0.1-0.1-0.2-0.2-0.4-0.1c-0.2,0.1-0.1,0.2-0.2,0.3c-0.2,0.2-0.6,0.5-0.6,0.5
		l0.5-0.3c-0.3,0.2-0.3,0-0.3,0c0-0.1,0.1-0.2,0.1-0.2s-0.2,0.2-0.3,0.2c-0.2,0.1-0.4,0.2-0.4,0.2l0.2-0.1c0.2-0.1,0.4-0.2,0.5-0.3
		C33.1,41,33,41,33,41s0,0-0.2-0.1s-0.1,0-0.1,0s-0.2,0-0.4,0.2c-0.2,0.1-0.5,0.3-0.5,0.3l0.2-0.2c0.2-0.2,0.5-0.2,0.5-0.2
		c-0.2-0.1-0.2-0.2-0.3-0.1L32,41c-0.1,0.1-0.2,0.2-0.3,0.2c-0.2,0.1-0.4,0.1-0.4,0.1s0,0,0.3-0.1c0.1,0,0.1-0.1,0.2-0.2
		c0.2-0.1,0.3-0.2,0.3-0.2c-0.2,0-0.2-0.1-0.2-0.1c0-0.1-0.1-0.1-0.3,0c-0.3,0.1-0.4,0.4-0.4,0.4s0-0.1,0.1-0.2
		c0.1-0.1,0.1-0.1,0.2-0.2c0.1-0.1,0.2-0.2,0.2-0.2s0.2,0,0.1-0.1c-0.1,0-0.1-0.1-0.2-0.1s-0.2-0.1-0.2-0.1s-0.3,0.3-0.5,0.5
		s-0.3,0.3-0.5,0.4c-0.1,0.1-0.2,0.3-0.4,0.4c-0.2,0.1-0.4,0.2-0.4,0.2s0,0,0.3-0.2s0.3-0.3,0.5-0.5s0.8-0.8,0.8-0.8
		C31.2,40,31,40,31,40c-0.1,0-1.1,0.5-1.1,0.5s0,0,0.3-0.2s0.3-0.2,0.4-0.2s0.3-0.1,0.3-0.2c0-0.1,0-0.1-0.1-0.1s-0.1,0-0.2-0.1
		c-0.2,0-0.2,0.1-0.3,0.2c-0.2,0.1-0.9,0.3-0.9,0.3s0,0,0.2-0.1c0.6-0.1,0.8-0.1,0.8-0.1s0.8-0.2,0.6-0.3c-0.2,0-0.1,0-0.1-0.1
		s-0.2,0-0.2,0s-0.6,0.2-0.8,0.2s-0.3,0-0.3,0s0,0,0.5,0s0.5-0.1,0.5-0.1s0.2-0.1,0.1-0.1s0-0.1-0.1-0.2c-0.1-0.1-0.1,0-0.2-0.1
		c-0.2,0-0.1,0-0.1-0.1c0,0,0-0.1-0.2-0.1s-0.1,0-0.2-0.1c0-0.1-0.1-0.1-0.2,0c0,0-0.2,0.2-0.4,0.2s-0.2,0-0.2,0s0.1,0,0.3-0.1
		c0.2-0.1,0.3-0.2,0.3-0.2l-0.2-0.2c-0.2,0-0.2,0-0.3,0c-0.2,0-0.4-0.1-0.4-0.1h0.5c0,0,0.1-0.1,0-0.1c0,0-0.2-0.1-0.3-0.2
		c-0.2,0-0.2-0.1-0.5-0.1c-0.2,0-0.2-0.1-0.2-0.1l0.2,0.1c0,0,0.1,0,0.2,0.1c0.2,0.1,0.2,0,0.2,0c-0.1-0.2-0.2-0.2-0.2-0.2
		s0.1,0,0.2,0.1c0.2,0,0-0.2,0-0.2c-0.1,0,0,0-0.1,0s-0.2-0.1-0.2-0.2c0-0.1,0-0.1-0.2-0.2c-0.1-0.1-0.2-0.1-0.3-0.1
		c-0.2,0-0.1-0.1-0.1-0.1s0,0.1-0.2,0.2c-0.1,0.2-0.4,0.4-0.4,0.4s0,0,0.2-0.2s0.4-0.1,0.4-0.1s0,0-0.2,0s-0.2,0-0.3,0
		c-0.1,0.1,0,0.4,0,0.3v-0.3c0,0-0.1,0.1-0.2,0.2c0,0.1,0,0.2,0,0.2s0,0,0-0.2c0-0.1,0-0.1-0.1,0s0,0.4,0,0.4v-0.4c0,0,0,0-0.2,0.1
		s-0.1,0.2-0.1,0.2v0.3c0,0,0-0.3-0.1-0.3c0,0-0.1,0.1-0.2,0.2c-0.1,0.1-0.2,0.1-0.2,0.1v-0.2c0-0.1-0.2-0.1-0.2,0s0,0.6,0,0.6v-0.5
		c0,0-0.2,0.1-0.2,0.2c0,0.1-0.1,0.2-0.1,0.2L26,39c-0.1,0,0,0-0.1,0.2c0,0.1,0,0.2,0,0.2c0-0.1-0.1-0.1-0.1-0.1l-0.1,0.2v-0.3
		c0,0-0.1,0-0.2,0.2s-0.1,0.1-0.2,0s-0.2-0.1-0.2,0s0.2,0.8,0.2,0.8l-0.2-0.8c-0.2,0-0.2,0-0.2-0.1s-0.2,0.1-0.2,0.1
		s-0.1,0.1-0.2,0.1s-0.2,0-0.2,0l-0.1,0.3c0,0,0-0.4,0-0.5s-0.2,0-0.2,0c-0.1,0.1,0,0.8,0,0.8v-0.7c0,0,0-0.1-0.2-0.1
		c-0.1,0-0.2,0-0.2,0.2c-0.1,0.2-0.1,1-0.1,1v-1.1c0,0,0,0-0.2,0.1c-0.2,0-0.2,0-0.3,0.1c-0.1,0.1,0,0.7,0,0.7v-0.5c0,0-0.1,0-0.2,0
		s-0.2,0.1-0.2,0.1l-0.1,0.8v-0.9c0,0-0.1,0.1-0.2,0.2c-0.1,0-0.2-0.1-0.2,0.1c0,0.2-0.1,0.7-0.1,0.7v-0.7c0,0,0-0.1-0.1,0.2
		c-0.1,0.2,0,0.5,0,0.5V40c0,0-0.2-0.1-0.2,0.1s-0.2,0.7-0.2,0.7l0.8-0.8l-0.2,0.1c0,0.2,0.1,0.5,0.1,0.5L22,40.4L21.8,41l0.1-0.2
		c0.1-0.1,0.1-0.5,0.1-0.5s-0.1,0-0.2,0c-0.2,0.1-0.2,0.1-0.2,0.2c0,0.2-0.1,0.8-0.1,0.8v-0.8h-0.1c-0.1,0-0.2,0-0.2,0.2
		s-0.1,0.8-0.1,0.8v-0.8h-0.2c0,0,0,0-0.1,0.2c0,0.2,0,0.2,0,0.1c0-0.1-0.1,0-0.2-0.1c-0.2-0.1-0.2,0.2-0.2,0.2
		c-0.1,0.1-0.1,0.5-0.1,0.5s0-0.2,0-0.3s0-0.2-0.1-0.2s-0.1,0-0.2,0.1c0,0.1-0.2,0.1-0.2,0.2c0,0.1-0.2,0.8-0.2,0.8l0.1-0.3
		c0-0.2,0-0.3-0.1-0.5s-0.1,0-0.2,0.1s-0.1,0.1-0.1,0.5c-0.1,0.3-0.2,0.5-0.2,0.3c0.1-0.2,0.1-0.3,0-0.5c0-0.2-0.2,0-0.2,0
		s0,0.1,0,0.2s-0.2,0.3-0.2,0.2s0.1-0.3,0.1-0.3s-0.2,0.1-0.2,0.2c-0.1,0.1-0.1,0-0.1,0.1c0,0,0,0-0.1,0.2s-0.2,0.3-0.2,0.3
		s0,0,0.1-0.2s0-0.2,0-0.2s-0.1-0.1-0.2-0.1l-0.2,0.1c0,0.1-0.2,0.3-0.2,0.3s0,0,0-0.1s0.1-0.2,0.1-0.3s-0.2-0.1-0.2,0
		c-0.2,0-0.4,0-0.4,0s-0.1-0.1-0.2-0.1c-0.2,0.1-0.2,0.1-0.3,0.1c-0.2,0-0.5,0-0.7,0.1s-0.3,0.2-0.3,0.2c0,0.1-0.1,0.3-0.1,0.3V43
		c0,0,0-0.1-0.1-0.2c-0.1,0-0.2,0.1-0.2,0.1s0.1,0.1,0,0.1c0.7-0.3,0.7,0,0.7,0.2s0,0.4,0,0.4s0-0.4,0-0.5s0.2-0.5,0-0.5
		c-0.1-0.1-0.2,0.1-0.2,0.1s-0.5,0.5-0.6,0.5s-0.1,0.1-0.1,0.1s0.2-0.2,0.2-0.4c-0.1-0.2-0.2-0.1-0.2-0.1c-0.1,0.1,0,0-0.1,0.1
		s-0.1,0-0.2,0.1c0,0.1-0.2,0.1-0.2,0s-0.1,0.2-0.1,0.2V43c-0.1-0.1-0.2,0-0.2,0c-0.1,0-0.1,0.1-0.2,0.2c0,0.1-0.1,0.1-0.1,0.2
		c0,0.1-0.1,0.2-0.1,0.2l-0.1,0.2c0,0,0-0.2,0.1-0.3s0.1-0.1,0.1-0.2c0-0.1-0.1-0.2-0.2-0.2s-0.1,0.2-0.1,0.2v-0.1l-0.1,0.1
		l-0.1,0.2v-0.2c0,0-0.1-0.2-0.2-0.1c-0.1,0.2-0.1,0.2-0.2,0.2s-0.2,0.2-0.2,0.2s0,0.1-0.2,0.2c-0.1,0-0.3,0.5-0.3,0.5s0-0.1,0-0.2
		c0-0.1,0.2-0.2,0.2-0.2v-0.2c0,0-0.2,0-0.2,0.1c-0.2,0.1-0.1,0.2-0.2,0.2S12,44.1,12,44.1v0.3c0,0,0-0.3-0.1-0.3s-0.1,0-0.1,0
		c-0.1,0-0.2,0-0.2,0.1c-0.1,0.1,0,0.2,0,0.3L11.5,45c0,0,0.1-0.5,0-0.5c-0.1-0.1-0.2,0-0.2,0.1s0.1,0.2-0.1,0.2
		c-0.1,0-0.1,0-0.2,0.1c0,0.1-0.2,0.2-0.2,0.2l0.2,0.8l-0.2-0.6c-0.2,0,0,0.2-0.2,0.2c-0.1,0-0.2,0.5-0.3,0.8
		c-0.2,0.2-0.2,0.2-0.2,0.2s0.2-0.3,0.3-0.5c0.1-0.2,0.1-0.4,0.1-0.4s0-0.1-0.1,0s-0.1,0.1-0.2,0.1s-0.2-0.1-0.3,0.1
		c-0.1,0-0.1,0-0.2,0.1c-0.1,0-0.2,0.1-0.3,0.2c-0.1,0.1-0.3,0.3-0.3,0.3l0.2-0.3c0,0-0.3,0-0.4,0.1s-0.8,0.9-0.8,0.9
		s0.3-0.5,0.4-0.6c0.1-0.2-0.6-0.1-0.8,0c-0.2,0-0.5,0.2-0.5,0.2l-0.5,0.2l0.2-0.3H6.6c0,0-0.1,0.4-0.2,0.5s-0.2,0.2-0.2,0.2
		s0.2-0.2,0.2-0.3c0.1-0.2,0-0.2,0-0.2l-0.5,0.1c-0.1,0-0.2,0-0.2,0l-0.2,0.2l0.1-0.3H4.9l-0.3,0.5l0.2-0.5l-1.1,0.1l-0.8,0.4
		c0,0,0.6-0.4,0.4-0.5c-0.2,0-0.9-0.1-1.1,0S2,46.9,2,46.9l0.1-0.2c0,0-0.5,0-0.6,0H1.3l0.1-0.2H0.9v-0.4c0,0,0-0.1-0.1-0.1
		l-0.2-0.2H0.4v-0.2c0,0,0,0-0.1-0.1c-0.1,0-0.2-0.2-0.2-0.2c-0.1,0-0.2,0-0.2,0L0,45.2C0,45.1,0,45,0,45s0-0.2,0.1-0.2
		c0.1-0.1,0.2-0.1,0.2-0.2l0.2-0.1c0,0,0-0.1,0.2-0.1c0.1,0,0.3,0,0.5,0s0.2-0.2,0.2-0.2L1.3,44c0,0-0.2-0.1-0.2,0
		c0,0-0.2,0.1-0.3,0c-0.1,0-0.2-0.2-0.2-0.2c-0.1,0-0.1-0.1,0-0.2s0.2-0.1,0.2-0.2c0-0.1,0-0.2,0.1-0.1C1.9,43.1,2,43,2,43.1
		s0.1,0.1,0.1,0.2h0.2c0.1,0.1,0.1,0.1,0.2,0.1s0.2-0.1,0.2,0s0,0.1,0,0.2v0.2l0.2-0.1c0,0-0.1-0.2-0.2-0.2
		c-0.1-0.1-0.1-0.2-0.1-0.2l0.2,0.3H3v-0.2l0.1,0.2h0.2c0,0,0.1-0.1,0.2-0.1s0.2,0,0.2,0h0.2c0.1,0,0.3,0,0.4,0s0.2,0,0.2-0.1
		s-0.2-0.2-0.2-0.2c-0.1,0-0.4-0.2-0.6-0.2s-0.4-0.2-0.5-0.2c-0.2,0-0.4-0.1-0.5-0.2c-0.2,0-0.2,0-0.2,0l-0.2-0.1c0,0,0.3,0,0.4,0
		c0,0,0.2,0.2,0.4,0.2c0.2,0,0.7,0.2,0.8,0.2c0.2,0.1,0.5,0.2,0.5,0.4c0.1,0.2,0.2,0.1,0.3,0.1c0.1,0,0.2,0.1,0.2,0.1h0.2
		c0,0,0-0.2-0.2-0.3c-0.2-0.2-0.7-0.4-0.7-0.4s0.4,0.1,0.6,0.2C5,43.2,5,43.2,5.2,43.3c0.2,0.1,0.2,0.1,0.2,0.1s0.1,0,0.2,0
		c0,0.1,0.2,0.2,0.2,0C5.9,43.3,6,43.2,6,43.2s0.2,0.1,0.4,0.2c0.2,0,0.5,0,0.5,0s0.1,0.1,0.2,0.1s0.2,0,0.3,0c0.2,0,0.5,0,0.5-0.1
		c0.1,0,0.4-0.2,0.5-0.3c0.1-0.2,0.1-0.2,0.1-0.2s0.1-0.1,0.2,0c0.1,0,0.2-0.1,0.2-0.1c0.2-0.2,0.2-0.2,0.2-0.1
		c0.1,0.1,0.2,0.1,0.3,0c0.2-0.1,0.2-0.2,0.2-0.2l-0.2-0.1c0.1,0-0.2-0.1-0.2-0.2c-0.1,0-0.2-0.1-0.2-0.1c-0.1,0-0.2-0.1-0.2-0.2
		c-0.1,0-0.3-0.1-0.3-0.1L9,42c0,0,0.4,0.2,0.5,0.3c0.2,0.1,0.2,0.1,0.3,0.1c0.1,0,0.2-0.1,0.2-0.1s-0.1-0.2-0.2-0.2
		S9.6,42,9.4,41.9c-0.2-0.1-0.3-0.2-0.3-0.2s0.2,0,0.3,0.1L9.9,42l0.2,0.2c0,0,0.2,0,0.1-0.1s-0.1-0.2-0.1-0.2l0.2,0.1
		c0.1,0.1,0.2,0,0.2-0.1l-0.7-0.4l0.4,0.1c0,0,0.4,0.2,0.5,0.3c0.1,0,0.2,0,0.2,0.1c0,0,0.1-0.2,0-0.2s-0.3-0.2-0.3-0.2
		s0.1,0,0.3,0.1c0.2,0.2,0.3,0.1,0.3,0.1s0-0.2,0.1-0.1c0,0,0-0.1,0-0.2c-0.1-0.1-0.3-0.3-0.3-0.3s0.1,0,0.2,0.2
		c0.2,0.1,0.2,0.3,0.2,0.3S11,42.1,11,42c0-0.2,0-0.2,0-0.2l0.2,0.2c0,0,0.4,0,0.3-0.1c-0.1-0.2-0.5-0.4-0.5-0.4s0.3,0.2,0.5,0.2
		c0.2,0.1,0.2,0,0.2,0l-0.2-0.2c0,0,0.2,0.1,0.4,0.1c0.1,0,0.4,0,0.4,0s-0.1-0.2,0-0.1c0.2,0,0.2,0,0.1-0.1c-0.1,0-0.3-0.2-0.4-0.2
		c-0.1-0.1-0.3-0.2-0.3-0.2s0.2,0.1,0.3,0.2c0.2,0.1,0.5,0.2,0.5,0.2s0.2-0.1,0.2-0.2c0,0.4-0.2,0.3-0.2,0.3l0.3,0.1
		c0.1,0,0.2,0,0.2,0c0.1,0,0.1-0.1,0.2-0.1s0.2-0.1,0.2-0.1l-0.2-0.2l-1.4-1c0,0,0.6,0.4,0.8,0.5c0.2,0.1,0.2,0,0.2,0.1
		C12.9,40.9,13,41,13,41s0.2,0.2,0.3,0.3c0.2,0.1,0.2,0.2,0.2,0.2l0.1-0.2c0.1,0,0.3,0,0.3-0.1s-0.2-0.3-0.3-0.3s-0.8-0.2-0.8-0.2
		s0.2,0,0.3,0c0.2,0,0.5,0.1,0.5,0.2c0.1,0.1,0.3,0.3,0.3,0.3s0.3,0.1,0.3-0.2c0-0.2,0-0.2,0-0.2s0.3,0.2,0.2,0.2
		c0,0,0.3-0.1,0.3-0.2c0-0.1-0.5-0.3-0.5-0.3s0.4,0.1,0.6,0.2c0.2,0.1,0.2-0.1,0.2-0.1s0-0.1-0.3-0.2L14,40.1c0,0,0.6,0.2,0.8,0.3
		c0.2,0.1,0.3,0.3,0.3,0.3H15c0.1,0,0.2-0.2,0.2-0.2s-0.1-0.1-0.4-0.2c-0.3-0.1-0.7-0.3-0.7-0.3s0.5,0.2,0.8,0.3s0.4,0.1,0.5,0.1
		s0.2-0.1,0.2-0.1V40c0,0-0.2-0.2-0.5-0.3c-0.2-0.2-0.5-0.2-0.5-0.2s0.5,0.1,0.7,0.2s0.3,0.3,0.4,0.3c0.2,0,0.2-0.2,0.2-0.2
		s-0.1-0.2-0.2-0.2c-0.2-0.1-1.1-0.5-1.1-0.5s0.8,0.3,1,0.4c0.2,0.2,0.3,0.2,0.4,0.2c0.2,0,0.2,0,0.2-0.1s0.2-0.2,0.3-0.2
		c0.2-0.1,0.2-0.1,0.3-0.1c0.1,0,0.2,0,0.2-0.1c0,0,0,0,0-0.1c0-0.1,0.2-0.1,0.2-0.1l0.2-0.2c0-0.2,0-0.2,0.1,0c0.1,0.1,0.2,0,0.3,0
		c0.1,0,0.2,0,0.2-0.1s0-0.2,0-0.2h-0.3c0,0,0.1-0.1,0.2,0c0.2,0,0.3,0.1,0.4,0.1c0.1-0.1,0-0.2-0.2-0.3s-0.3-0.1-0.3-0.1
		s0.3,0.2,0.6,0.2c0.2,0.1,0.5,0,0.5,0c0.1,0,0-0.2,0-0.2s-0.2-0.1-0.4-0.2c-0.1,0-0.1,0-0.1,0l0.5,0.1c0.1,0,0.1,0.2,0.2,0.2
		c0.2,0.1,0.3-0.2,0.3-0.2S19.2,38,19.1,38c-0.2,0-0.2,0-0.2,0s0.4,0,0.5,0.1c0.2,0,0.2,0,0.2,0c0.1-0.1,0.1-0.1,0.2-0.1
		s0.1,0,0.2-0.1s0.2-0.2,0.2-0.2h-0.3h-0.2h0.2c0.1,0,0.4,0.2,0.4,0.2c0.1-0.2,0.1-0.2,0.2-0.2s0.1-0.2,0-0.2s-0.2-0.2-0.3-0.2
		c-0.1,0,0.2,0,0.3,0.1c0.2,0.1,0.5,0,0.5,0s0-0.2-0.2-0.2l-0.3-0.1h0.4c0,0,0,0.1,0.1,0.2c0.1,0,0.1-0.2,0.1-0.2l0.1,0.2h0.2
		l0.1-0.1c0,0,0.1-0.1-0.1-0.1S21.1,37,21.1,37s0.4,0,0.5,0c0.2,0,0.4,0,0.4,0v-0.1c0,0,0-0.1-0.2-0.1l-0.2-0.1
		c0.1,0-0.3-0.1-0.3-0.1s0.2,0,0.3,0c0.1,0,0.2,0.2,0.3,0.2c0.1,0,0.2-0.1,0.2-0.1s0-0.2-0.1-0.2c-0.1-0.2-0.5-0.4-0.5-0.4
		s0.4,0.2,0.5,0.2c0.2,0.1,0.3,0.1,0.4,0s0.1,0,0.1-0.1s0-0.1,0-0.1s0.1,0,0.2-0.1c0-0.1,0-0.1,0.2-0.1s0.2,0,0.2-0.1s0.1-0.2,0-0.2
		l-0.9-0.1c0,0,0.9,0,1,0s0.3,0,0.3,0s0.4-0.1,0.5-0.2c-0.1,0.7-0.1,0.7,0,0.6c0.2,0,0.2-0.1,0.2-0.2c0-0.1-0.6-0.1-0.6-0.1H24
		c0.2,0,0.2,0,0.3,0s0-0.1,0.1-0.1s0.2,0,0.3-0.1c0-0.1,0-0.2-0.2-0.2c-0.2-0.1-0.3-0.1-0.5,0l-0.5,0.2c0,0,0.2-0.2,0.4-0.2
		c0.2-0.1,0.3-0.1,0.5,0s0.2,0.2,0.3,0.2c0.2,0,0.2-0.1,0.3,0c0.2,0.1,0.3,0,0.3,0c0-0.1,0-0.1,0.1-0.1s0.1,0,0.2-0.1s0-0.2,0.2-0.1
		c0.2,0,0.4,0.1,0.5,0s0.1-0.1,0.2-0.1s0.2-0.1,0.5-0.1c0.2,0,0.2,0,0.3,0c0.1,0,0.1-0.1,0.2-0.1s0.3,0,0.3,0s0-0.2-0.2-0.3
		s-0.3-0.2-0.6-0.2c-0.3,0-0.5,0-0.6,0l-0.2,0.1c0,0,0.3-0.2,0.5-0.2s0.4-0.1,0.5,0c0.2,0.1,0.5,0.2,0.5,0.3
		c0.2,0.2,0.2,0.2,0.2,0.2h0.4l-0.2-0.3l0.2,0.2l0.3,0.4c0,0,0-0.2-0.2-0.3s-0.2-0.1-0.2-0.1s0.3,0.2,0.3,0.3c0.1,0.2,0.1,0,0.2,0
		c0.2,0,0.2,0,0.2-0.1s0-0.1,0.2-0.1s0.3,0.1,0.4,0.2c0.1,0.1,0.2,0.1,0.3,0c0.1,0,0.1-0.1,0.1,0s0.3,0.2,0.4,0.1
		c0.1-0.1,0.1-0.1,0.1,0s0.2,0.1,0.2,0.1c0.1,0,0.1,0,0.2,0c0.1,0.1,0.2,0.2,0.2,0.1v-0.1c0,0,0,0,0.1,0.1s0.2,0.2,0.2,0
		c0-0.1,0-0.1,0-0.1h0.2c0,0,0.7-0.5,0.6-0.5l0.3-0.2l-0.2,0.2c-0.1,0-0.8,0.5-0.8,0.5v0.2h0.2v0.2h0.2c0,0,0.2,0,0.2,0.1
		c0.1,0.1,0.2,0,0.2-0.1s0.9-0.4,0.9-0.4s-0.2,0.1-0.3,0.2c-0.2,0.1-0.5,0.2-0.5,0.2c0,0.2,0.1,0.1,0.1,0.2c0.1,0.1,0.2,0.1,0.2,0.1
		c0.1,0,0.1,0,0.1,0c0.1,0,0.1-0.1,0.2,0s0,0.1,0.2,0.2c0.1,0,0.2,0.1,0.2,0c0,0,0-0.2,0-0.1c0.1,0.1,0.1,0.2,0.2,0.2
		c0.2,0.2,0.2,0.2,0.2,0.2s0.1,0,0.2,0.1s0.1,0.1,0.2,0c0.1,0.2,0.2,0.2,0.2,0.2s0.1,0,0.2,0.1s0.2,0.2,0.2,0.1c0-0.1,0-0.2,0-0.2
		s0.1,0,0.1,0.2s-0.1,0.2,0,0.1c0.1,0,0.2,0,0.2,0.1s0.1,0.1,0.2,0.1c0.1-0.1,0.1,0,0.1,0.1s0.1,0.2,0.2,0.1c0.1-0.1,0.2,0,0.2,0
		c0,0.1,0.1-0.1,0.2-0.1s0.1,0,0.1,0.1s0.1,0.2,0.1,0.2h0.2v0.2l0.1,0.1l0.1-0.1V38L36,37.4v-0.2L35.8,37l-0.2-0.1l-0.2-0.3
		c0,0-0.1,0-0.2-0.1C35,36.4,35,36.4,35,36.4s0-0.2-0.1-0.2s0-0.2,0-0.2h-0.2l-0.1-0.2l-0.2-0.2l0.1-0.4l-0.2-0.1v-0.2l-0.2-0.1V35
		l-0.2-0.2c-0.2,0-0.2,0-0.2,0l-0.1-0.3l-0.2-0.1v-0.2h-0.2V34H33l0.2-0.6l-0.1-0.2l-0.2,0.1v-0.2h-0.1L32.7,33l-0.1-0.2h-0.1v-0.2
		h-0.2v-0.2c0,0-0.2-0.1-0.2-0.2c-0.2-0.1-0.2-0.2-0.2-0.2s0-0.2-0.2-0.2c-0.1,0-0.2-0.1-0.2-0.1l0.1-0.2l-0.2-0.1
		c0,0-0.1-0.2-0.2-0.2c-0.2,0-0.1-0.1-0.1-0.1v-0.2h-0.2V31c0,0-0.1,0-0.2-0.1s-0.1-0.2-0.2-0.3c0-0.1-0.1-0.1-0.2-0.1
		s0-0.2-0.2-0.2c-0.1,0-0.1,0-0.1,0v-0.1l-0.2-0.1V30h-0.2v-0.3c0,0-0.1-0.1-0.2-0.1s0.1-0.2,0-0.2s-0.1-0.1-0.2-0.1
		c0,0-0.1,0-0.1-0.2c0-0.1,0-0.1-0.2-0.2c-0.1-0.1-0.1-0.1-0.2-0.2c0-0.1,0-0.2-0.1-0.2l-0.2-0.1c-0.2-0.1-0.3-0.2-0.3-0.2
		c0-0.2-0.1-0.2-0.2-0.2c-0.1-0.1-0.2-0.2-0.2-0.2c0.2-0.1,0.1-0.2,0.1-0.2c0-0.1-0.1-0.2-0.2-0.2c0-0.1-0.1-0.1-0.1-0.2
		c0-0.2-0.1-0.2-0.2-0.2s-0.2,0-0.2,0v0.2H28l0.1,0.2l-0.2-0.2c0,0-0.1,0.1-0.2,0.2s-0.1,0.1-0.2,0.1s-0.2,0-0.2,0.1s0,0.2-0.1,0.2
		s-0.1-0.1-0.2,0s0,0.2-0.2,0.1c-0.1,0-0.2-0.1-0.2,0c-0.2,0-0.2-0.1-0.2,0s-0.1,0.2-0.1,0.2s-0.2-0.2-0.2-0.1s-0.2,0.2-0.2,0.2
		l-0.1,0.2c0,0,0.2-0.3,0.1-0.4s-0.2-0.1-0.2,0c-0.1,0.1-0.2,0-0.2,0.1s-0.1,0.2-0.1,0.2V28c0,0-0.2-0.2-0.2-0.1
		C25.1,28,25,28.1,25,28.1c0,0.1,0,0.2,0,0.2l-0.2,0.3c0,0,0.1-0.4,0.1-0.5c0-0.2-0.1-0.2-0.2-0.2S24.6,28,24.5,28s-0.2-0.1-0.2,0
		c-0.1,0,0,0.1-0.2,0.1s-0.3,0-0.4,0c0,0-0.2,0.3-0.2,0.5c-0.1,0.3-0.1,0.5-0.1,0.5v-0.9l-0.3,0.1L23,28.4l-0.2,0.8l0.2-0.8
		c-0.1-0.1-0.3,0-0.3,0.1c-0.1,0.1-0.1,0.1-0.2,0.1s-0.2,0.1-0.2,0.1s-0.1,0.3-0.2,0.6c-0.2,0.3-0.2,0.4-0.2,0.4s0.2-0.5,0.2-0.7
		s0-0.2-0.1-0.2S21.8,29,21.8,29s-0.1,0-0.1,0.1c-0.1,0.1-0.1,0.2-0.2,0.2s-0.2-0.1-0.2,0v0.2L21.1,30l0.9-0.6c0-0.1-0.2-0.1-0.2,0
		s-0.1,0.2-0.1,0.2h-0.2c0,0.1-0.1,0.1-0.1,0.1c-0.1,0-0.2,0-0.2,0.1S21.1,30,21.1,30L21,30.2c0,0-0.2-0.1-0.2,0
		c-0.1,0-0.1,0.1-0.2,0.1s-0.2,0-0.2,0v0.2c0,0-0.1,0.1-0.1,0.2v0.2c0-0.2,0,0.2,0,0.2h-0.1c0,0,0.1-0.2,0.1-0.3c0-0.2,0-0.3,0-0.4
		V30c0,0,0,0-0.2,0.1c-0.2,0-0.2,0-0.2,0V30c0,0-0.2,0-0.2,0.1c-0.1,0.1-0.2,0.2-0.4,0.2l-0.5,0.4l0.3-0.3c0.2-0.2,0.2-0.1,0.2-0.2
		S19.1,30,19.1,30l-0.3,0.3c0,0,0.2-0.2,0.2-0.3c0-0.1-0.1-0.1-0.1-0.1h-0.6H18v-0.2c-0.1,0-0.2-0.1-0.3-0.1c-0.2,0-0.5,0-0.5,0
		s-0.1,0.1-0.2,0.1s-0.1,0-0.2,0c-0.1,0.1-0.1,0.2-0.1,0.2l-0.1-0.2c0,0-0.1,0.1-0.2,0.2s-0.2,0-0.2,0l-0.1,0.6L16,30.2l-0.2,0.4
		l0.1-0.2c0,0,0.1-0.2,0.2-0.3c0.1-0.2-0.2-0.3-0.2-0.2c-0.1,0.2,0,0.1,0,0s-0.2,0-0.2,0c0,0.1-0.2,0.5-0.2,0.5s0.8-0.4,0.7-0.4
		c0-0.1-0.2-0.1-0.2,0c-0.1,0.1-0.2,0.2-0.1,0c0-0.2-0.2-0.2-0.2,0c-0.1,0.2-0.2,0.2-0.2,0.1c0.1-0.1-0.2,0-0.2,0v0.2V30
		c0,0-0.2,0-0.3,0.2c-0.2,0.1-0.4,0.4-0.4,0.4l-0.3,0.2l0.2-0.2c0.1,0,0.2-0.2,0.2-0.2c0-0.1,0-0.2,0-0.2l-0.2,0.1l-0.1,0.2v-0.2
		l-0.2,0.2l-0.3,0.3c0,0,0.2-0.2,0.2-0.3c0.1-0.1,0.2-0.2,0.2-0.2s-0.1-0.1-0.2,0s-0.2,0.1-0.2,0.1l-0.3,0.5l0.2-0.5
		c0,0-0.2,0-0.2,0.1c-0.1,0.1-0.1,0.2-0.3,0.2c-0.2,0-0.3-0.2-0.3,0c-0.1,0.2-0.2,0.2-0.2,0.2v-0.3l-0.3,0.2L12.1,31v-0.2l-0.2-0.1
		l-0.2,0.4v-0.4c0,0-0.2,0-0.2,0.1c-0.1,0.1-0.2,0.2-0.2,0.2v-0.2V31l-0.1,0.4v-0.3H11v0.5l-0.1-0.4l-0.2,0.2v0.3l-0.1-0.2l-0.2,0.1
		c0,0,0.2-0.2,0.3-0.3c0.1-0.1,0.2-0.2,0.2-0.2s-0.2,0-0.2,0.1s-0.2,0.2-0.2,0.2s-0.2-0.1-0.2,0.2c-0.1,0.2-0.4,0.6-0.4,0.6l0.2-0.5
		H9.9l-0.8,0.5l-0.2,0.1v-0.2l-0.4,0.2V32l-0.3,0.2V32H8v-0.2c0,0-0.2-0.1-0.3-0.1c-0.2,0-0.2-0.2-0.2-0.2l-0.3-0.2H7v-0.2
		c0,0-0.3-0.2-0.5-0.3s-0.3-0.2-0.4-0.2S6,30.5,6,30.5c0-0.1-0.1,0-0.2-0.1c-0.2,0-0.2,0-0.2-0.2C5.5,30.1,5.4,30,5.3,30
		c-0.2,0-0.3-0.2-0.5-0.2c-0.2-0.1-0.2-0.1-0.3-0.2c-0.1-0.2-0.1-0.2-0.2-0.2c-0.2-0.1-0.1-0.1-0.2-0.1c-0.1,0-0.1,0.1-0.2-0.1
		s0-0.1-0.2-0.2c-0.2,0-0.1,0-0.2-0.2s-0.2-0.1-0.2-0.2c-0.1-0.2-0.2-0.2-0.2-0.5s0-0.5-0.2-0.5s-0.5-0.1-0.6-0.1
		c-0.2,0-0.2,0-0.2,0s0.5,0,0.7-0.1s-0.1-0.1,0-0.2S3.1,27,3.2,27c0.2-0.1,0.1-0.1,0.2,0c0.2,0.1,0.2,0.2,0.3,0.2
		c0.2,0.1,0.3,0,0.3,0L3.8,27c0,0,0.2,0.2,0.3,0.2c0.1,0,0.2-0.1,0.2-0.1L5,27c0,0,0.2,0,0.2,0.2c0.2,0.2,0.2,0.1,0.2,0.1v-0.2
		c0,0,0,0.1,0,0.2s0.2,0.1,0.2,0.1l-0.1-0.2l0.2,0.2l0.1-0.2l0.1,0.2h0.2L6,27.2l0,0.2l-0.1-0.8l0.2,0.5c0,0.1,0.1,0.2,0.1,0.2
		l0.2,0.2l0.1-0.2l0.1,0.2c0,0,0.4,0.2,0.5,0.3S7.3,28,7.3,28s-0.1-0.5,0-0.4s0.1,0.5,0.1,0.5l0.2,0.1v-0.3V28l0.2,0.1
		c0,0.1,0,0.1,0.1,0.2s0.3,0.2,0.4,0.2s0.2,0.2,0.2,0.2v-0.4l0.1,0.4c0,0,0,0.2,0.1,0.2s0.2,0.2,0.2,0.2l0-0.1
		c0.1,0,0.2-0.1,0.2-0.2s0-0.2-0.2-0.2c-0.2-0.1-0.2-0.2-0.2-0.2s0.5,0.2,0.5,0.3c0.2,0.1,0.2,0.2,0.4,0.2c0.2,0,0.2,0,0.2,0v-0.3
		c0,0,0.1,0.2,0.2,0.2s0.2,0,0.2,0l-0.5-0.4c0,0,0.5,0.2,0.5,0.3s0.3,0.1,0.3,0.1s0.1-0.2,0-0.3c-0.2-0.1-0.5-0.3-0.5-0.3
		c0.1,0,0.5,0.2,0.6,0.3c0,0-0.2,0.2,0.1,0.3c0.2,0.1,0.2,0,0.2,0v-0.3l0.2,0.3v-0.3l0.3,0.2c0,0,0.2,0,0.3,0c0.1,0,0.2,0.1,0.2,0
		l-0.6-0.5l0.5,0.3c0,0,0.1,0.2,0.2,0.2c0.2,0,0.3-0.2,0.3-0.2l-0.5-0.4c0,0,0.5,0.3,0.5,0.4c0.2,0.1,0.2,0,0.2,0l-0.2-0.2l0.3,0.2
		h0.2l-0.3-0.4c0,0,0.3,0.3,0.4,0.4s0.1,0,0.2,0c0.1-0.1,0.2,0,0.2,0c0.1,0,0.2,0,0.3,0c0.2,0,0.1-0.1,0.2-0.1
		c0.2,0-0.3-0.4-0.3-0.4L13,27.5c0,0,0.8,0.7,0.9,0.8c0.1,0.1,0.2,0.1,0.2,0.1l0.4-0.2c0,0-0.2-0.4-0.3-0.4c-0.2,0-0.3-0.1-0.3-0.1
		s-0.4-0.3-0.3-0.3s0.5,0.2,0.6,0.3c0.2,0.1,0.3,0.5,0.4,0.5s0.1-0.1,0.1-0.1l-0.2-0.5l0.3,0.3l0.3-0.1c0,0,0-0.2-0.2-0.2
		c-0.2-0.1-0.2-0.1-0.2-0.1s0.1,0.5,0.3,0.6s0.5,0,0.6-0.1c0.2,0,0.5-0.1,0.5-0.1s-0.3-0.3-0.4-0.3s-0.2-0.1-0.2-0.1s0.1-0.1,0.2,0
		c0.2,0.1,0.3,0.2,0.4,0.3c0.2,0.1,0.3,0,0.3,0s-0.1-0.1-0.2-0.2c-0.2-0.1-0.1-0.1,0.1,0c0.1,0.1,0.2,0.1,0.2,0.2
		c0.1,0,0.1-0.1,0.2-0.1s0.2,0,0.3,0c0.1,0,0.1-0.1,0.1-0.1l-0.5-0.2c0,0,0.4,0,0.5,0.1s0,0.2,0.2,0.2s0.5,0,0.6,0s0.1-0.2,0.1-0.2
		l0.2,0.2h0.3c0-0.1,0.1-0.1,0.2-0.1s0.2-0.1,0.2-0.2c0.1-0.1,0.2-0.1,0.1-0.1s-0.2-0.2-0.2-0.2l0.2,0.2c0.1,0,0.2-0.2,0.3-0.2
		c0.2,0,0.3-0.2,0.5-0.2s0.2,0,0.2,0s-0.1-0.2,0-0.2h0.4c0,0-0.1-0.1,0.1-0.2c0.2,0,0.2,0,0.2-0.1s0-0.2,0.2-0.2s0.1,0.1,0.2,0.1
		c0.1-0.1,0.1-0.2,0.2-0.2s0.2-0.1,0.2-0.1l-0.2-0.1h-0.5c0,0,0.2-0.1,0.3-0.1h0.2l0.2,0.2c0.1,0,0.1,0,0.1,0s0.1-0.1,0.2-0.1
		s0.2-0.1,0.1-0.1s-0.2-0.2-0.2-0.2l-0.2-0.1c0,0,0.3,0,0.4,0.1s0,0.2,0.2,0.2s0.1,0,0.2-0.1h0.2c0.2,0,0.4-0.1,0.3-0.1
		s-0.8-0.5-0.9-0.5h-0.2c0,0,0.5,0,0.6,0.2s0.5,0.4,0.5,0.4H23l0.2-0.1v-0.2h0.3v-0.1H24l0.1-0.2h0.2l0.3-0.2l-0.7-0.2
		c0,0,0.5,0.1,0.6,0.2c0.2,0.1,0.2,0.2,0.3,0.1c0.1-0.1,0.1-0.2,0.1-0.2l-0.5-0.3c0,0,0.5,0.3,0.6,0.3c0.2,0.1,0.3,0.1,0.2,0
		S25,24.6,25,24.6S24.7,25,24.8,25c0.2,0,0.3-0.1,0.2-0.2c-0.2-0.1-0.2-0.2-0.3-0.2c-0.1-0.1-0.2-0.2-0.2-0.2s0.2,0.2,0.5,0.4
		c0.3,0.1,0.5-0.1,0.5-0.1s-0.3-0.3-0.5-0.3c0.2,0,0.5,0.2,0.6,0.2c0.2,0.2,0.2,0,0.2-0.1s0-0.2,0.1,0c0.1,0.1,0.2,0,0.2,0
		c0.1,0,0.5,0.1,0.6-0.1c0.2-0.2,0.2-0.2,0.5-0.2s0.4,0,0.5,0.1l0.2,0.2c0.2-0.2,0.2-0.2,0.5-0.2c0.2,0,0.4,0,0.5,0.1
		c0.2,0.1,0.2,0.1,0.4,0.1c0.1,0,0.5,0.1,0.6,0.2s0.1,0.2,0.2,0.2c0.2,0,0.1-0.1,0.2,0c0.2,0.1,0,0.1,0.2,0.2c0.1,0,0.2,0,0.2,0
		c0.1,0,0.2,0.2,0.2,0.2l0.3,0.1c0,0,0.2,0.2,0.3,0.1c0.2-0.1,0.2-0.2,0.4,0.1c0.2,0.3,0.6,0.5,0.8,0.5c0.1,0.1,0.2,0.2,0.3,0.2
		c0.1,0.1,0.2,0.2,0.3,0.2c0.2,0.1,0.2-0.1,0.2,0.2c0,0.2,0.2,0.2,0.2,0.2s0.2,0.2,0.2,0.1c0.1-0.1,0.2-0.1,0.2,0.1s0,0.1,0.1,0.2
		s0.2-0.2,0.2,0s0.2,0.2,0.2,0.2s-0.1-0.5-0.2-0.9c0-0.5-0.1-0.5-0.1-0.7s0.1-0.1,0.1-0.2c0-0.2,0-0.2,0-0.2c0-0.1-0.1-0.1,0-0.2
		c0-0.1,0.1-0.2,0.1-0.2s0-0.2,0.1-0.5c0.1-0.2,0.2-0.6,0.3-0.8c0-0.2,0.1-0.1,0.1-0.2s0-0.2,0-0.2c0.1,0.1,0.1-0.2,0.1-0.2
		s-0.1,0.3,0.1,0.3s0.2-0.2,0.2-0.4c0-0.1,0-0.1,0-0.2c0.1-0.1,0.2-0.4,0.2-0.5s0.4-0.9,0.5-1c0.1-0.2,0.2-0.5,0.2-0.5l-0.1,0.5
		c0,0.1-0.1,0.2-0.2,0.5c-0.1,0.2-0.2,0.2,0,0.2s0.2,0,0.2-0.2c0-0.1-0.1-0.2-0.1-0.2s0,0.1,0.2,0.1s0.2,0.1,0.2-0.2
		c0-0.2,0-0.2,0-0.2h0.2c0,0,0.1-0.2,0.2-0.3s0.1-0.2,0.2-0.2c0.1,0,0-0.2,0-0.2c0,0.1,0,0.1,0,0.1s0-0.1,0.2-0.1s0.2,0,0.2,0
		l0.2-0.2c0.2,0,0.2,0,0.2-0.1s0-0.1,0.1-0.1s0.1-0.2,0-0.2S37.8,20,37.8,20H38c0.1,0,0-0.1,0.1-0.1s0.2,0,0.2,0l0.1-0.2h0.2v-0.2
		h0.2c0,0,0.2,0,0.2-0.1s0.1-0.2,0.1-0.2h0.2c0,0,0.1,0,0.2-0.2c-0.6,0.1-0.5,0-0.6,0s-0.3,0-0.3,0s0.2,0,0.3-0.1c0.2,0,0.5,0,0.5,0
		v-0.2l0.2,0.1l0.1-0.1h0.2c0,0,0.1,0,0.2-0.1c0-0.1,0.2-0.2,0.3-0.3c0.1-0.1,0-0.2,0.2-0.2c0.2-0.1,0.1-0.1,0.1-0.1s0,0,0.2,0.1
		c0.2,0,0.2,0,0.2,0c0.1-0.1,0.2-0.1,0.2-0.1c0-0.1,0.2-0.1,0.3-0.1s0.2,0,0.3,0s0.1-0.2,0.2-0.2s0.1,0.3,0.1,0.3v-0.1
		c0,0,0.3,0,0.4,0c0.2,0.1,0.3,0,0.5,0c0.1,0,0.2,0,0.2,0c0.1-0.1,0.2-0.1,0.3-0.1c0.2,0,0.3,0,0.3,0l-0.4-0.4L43.2,17
		c0,0,0.5,0.5,0.6,0.6s0.2,0.2,0.2,0.2s0-0.2,0.2-0.2s0.7,0,0.7,0l-0.8-1l0.8,1c0,0,0.2,0,0.4,0.1c0.2,0,0.2,0.1,0.2,0.1
		c0.1,0,0.1-0.1,0.2,0c0.1,0-0.5-0.5-0.3-0.4l-0.6-0.5c0,0,0.6,0.5,0.8,0.6s0.2,0.2,0.3,0.3s0.4,0.2,0.5,0.2h0.2c0,0-0.7-0.6-1-0.8
		c-0.3-0.2-0.5-0.3-0.5-0.3l0.5,0.2c0.1,0.1,0.3,0.3,0.5,0.5s0.3,0.3,0.3,0.3c0.1,0.1,0.2,0.2,0.2,0.2l0.2-0.1
		c0.2,0.2,0.2,0.2,0.2,0.2c0.2,0,0.1,0,0.2,0c0.1,0.1,0.2,0.2,0.3,0.2c0.2,0,0.5,0.2,0.5,0.2c0.2,0,0.2,0,0.3,0.1s0.2,0.1,0.4,0.1
		s0.2,0,0.3,0.1s0.1,0.1,0.2,0.1c0.2,0,0.1,0,0.2,0.1c0.2,0.1,0.2,0.2,0.2,0.1c0.1-0.1,0.2-0.1,0.2,0c0,0.2,0.1,0.1,0.2,0.1
		s0-0.3,0-0.2c0,0.2,0,0.2,0.2,0.3c0.2,0,0.2,0.2,0.2,0.2c0.2,0.1,0.3,0.1,0.3,0.1s0.1-0.2,0-0.2s-0.2-0.2-0.2-0.2s0.3,0.2,0.4,0.3
		c0.1,0.2,0.5,0.5,0.6,0.7c0.2,0.2,0.1,0.1,0.2,0.2c0.2,0.1,0.1,0.1,0.2,0.2c0.2,0.2,0.1,0,0.2,0c0.1-0.1,0.1,0,0.2,0
		c0,0.1,0.2,0.1,0.1,0.2c-0.1,0-0.2-0.1-0.2,0s0.1,0.2,0.2,0.3c0.1,0.2,0,0.2,0.2,0.3c0.2,0.1,0.1,0,0.2,0.2c0,0.2,0.1,0.3,0.2,0.4
		c0.1,0.2,0.2,0.2,0.2,0.3c0.1,0.2,0.1,0.2,0.2,0.2c0.1,0.1,0.1,0.2,0.1,0.4c0,0.2,0,0.3,0.1,0.5s0.2,0.6,0.4,1
		c0.1,0.2,0.1,0.2,0.2,0.3c0,0,0,0.1,0.1,0.2c-0.4,0-0.3,0-0.3,0.1c0,0.2,0,0.3,0,0.3c0,0.1,0,0.2-0.1,0.5s-0.1,0.4-0.1,0.5
		c0,0.2,0,0.3-0.1,0.5s0,0.3-0.1,0.5c-0.1,0.1-0.1,0.2-0.1,0.4s0,0.1-0.1,0.2s-0.2,0.1-0.1,0.2s0.2,0.2,0.2,0.2s-0.2,0-0.2,0.2
		c0,0.1,0.1,0.2,0,0.3c0,0.2,0,0.2,0,0.2h0.2c0,0,0,0.2-0.1,0.2s-0.2,0-0.2,0l0.1,0.2l0.2,0.1c-0.2,0-0.2,0.1-0.2,0.1
		s-0.1,0.2,0,0.3c0,0.2,0.1,0.2,0.1,0.2l-0.2,0.2l0.1,0.2l-0.2,0.1c0,0-0.2,0.2-0.1,0.2c0.2,0.1,0.2,0.1,0.2,0.1L53,31.2l0.2-0.2H53
		v0.2l-0.2,0.2l0.1,0.3h-0.2v0.5c0,0,0.2,0,0.3,0c0.1-0.1,0-0.2,0.2-0.2c0.1-0.1,0.5-0.4,0.5-0.5c0-0.2,0-0.2,0-0.2l0.1-0.3
		c0,0,0.3-0.4,0.3-0.5s0-0.2,0-0.2l0.2,0.2c0,0,0.1,0,0.1-0.2v-0.2l0.1,0.1l-0.1-0.3l0,0.1c0,0,0.1,0,0.1-0.2v-0.2l0.2,0.1v-0.2
		l0.1-0.2H55V29v0.1v-0.2c0-0.1,0.1-0.1,0.1-0.2v-0.2h0.2c0,0,0.1-0.1,0.1-0.3c0-0.2,0-0.3,0-0.3l0.1,0.1l0.1-0.3l-0.1-0.2l0.2-0.1
		v-0.2l-0.2-0.1l0.2-0.1c0,0,0.1-0.3,0-0.3l-0.1-0.1c0,0,0.2,0.2,0.2,0c0.1-0.1,0-0.2,0.1-0.2c0-0.2,0-0.2,0-0.2l-0.2-0.1
		c0,0,0.2,0,0.2-0.1s0-0.3,0-0.3s0.1-0.1,0.1-0.2c0-0.2,0.1-0.2,0.1-0.2v-0.4l0.2-0.2v-0.2l-0.1-0.1c0,0,0.2,0,0.2-0.2
		c0-0.1,0-0.2,0-0.3c0.1-0.2,0.1-0.2,0-0.3l-0.1-0.2l0.2-0.2c0,0,0-0.2,0-0.5s0-0.5,0-0.5s0.1-0.3,0-0.5c0.2,0,0.1-0.2,0.1-0.2
		s0.1-0.1,0.1-0.2s0.1-0.2,0-0.3s-0.1-0.1,0-0.2s0.1-0.3,0.2-0.5c0-0.2,0.1-0.5,0.1-0.7s0-0.2,0.1-0.3c0.1-0.2,0.2-0.7,0.2-1.1
		c0.1-0.4,0.3-0.8,0.4-0.9c0.1-0.1,0.2,0,0.2-0.2c0.1-0.1,0.2-0.7,0.3-1c0.2-0.3,0.3-0.2,0.5-0.5C58.9,15.2,59,15,59,15
		s0.1-0.1,0.2-0.1c0.2,0,0.2-0.1,0.2-0.2s0.2-0.5,0.2-0.5s-0.2,0.3,0,0.3c0.1,0.1,0.3-0.1,0.5-0.1l0.1-0.1v-0.2L60,14.8l0.2-0.1
		v-0.3c0,0,0.1,0.3,0.2,0.3s0.2-0.1,0.2-0.1l-0.1-0.3l0.2,0.2l0.1-0.2l0.1-0.2v0.2c0,0,0.1,0,0.1,0.1s0,0.1,0.1,0.2
		c0.1,0,0.2,0,0.2,0c0-0.1-0.2-0.2-0.1-0.4c0-0.2,0.2-0.5,0.2-0.5s0,0.2-0.1,0.3c0,0.2-0.1,0.2,0,0.3S61,14.6,61,14.6s0-0.5,0.1-0.6
		c0-0.2,0.1-0.3,0.1-0.2s-0.1,0.6-0.1,0.7c0,0.2,0,0.2,0,0.2c0.1,0.1,0.2,0.1,0.2,0.1l0.2-0.7c0,0-0.2,0.5-0.2,0.6s0.2,0.1,0.2,0
		c0.1,0,0.1-0.1,0.1-0.2s0-0.3,0-0.3l0.1,0.2l0.2-0.2v-1.5l0.1,1.5l0.2-0.5L62,14.2c0.1,0.1,0.2,0.1,0.3,0c0-0.1,0-0.4,0-0.4
		s-0.1,0.3,0.1,0.3c0.1,0,0.2,0.1,0.2,0c0.1,0,0.2-0.1,0.3,0c0.2,0.1,0.2,0,0.2,0l0.2-0.5c0.1-0.1-0.1,0.3-0.1,0.5s0.2,0.2,0.2,0.1
		c0.1,0,0.1-0.1,0.1-0.1c0-0.1,0.2-0.4,0.2-0.4l-0.1,0.5l0.2-0.1l0.2-0.8l-0.4,0.8v0.2c0,0,0.2,0.1,0.3,0c0.1,0,0.2-0.1,0.2-0.2
		c0.1-0.1,0.1-0.1,0.1-0.1v0.2h0.2l0.6-0.7c0,0-0.4,0.6-0.4,0.7s0.2,0.2,0.2,0.1c0.1-0.1,0.5-0.8,0.5-0.8s-0.5,0.7-0.4,0.8
		s0.3,0,0.3,0l0.3-0.2l-0.2,0.4h0.2l0.4-0.5c0,0-0.4,0.4-0.3,0.5s0.1,0.1,0.2,0c0.1-0.1,0.2-0.1,0.2,0s0.1,0.1,0.2,0.1
		c0.1-0.1,0-0.1,0-0.2c-0.1-0.1-0.1-0.1,0-0.1s0.2-0.3,0.1-0.3s-0.1-0.2,0-0.2c0.2,0,0.2,0,0.2,0.1s0,0.2,0.1,0.2
		c0,0.2,0,0.2,0.2,0.2c0.2,0,0.2,0,0.2-0.2C66.7,13.8,66.5,13.3,66.7,13.5"/>
</g>
</svg>
