<?xml version="1.0" encoding="utf-8"?>
<!-- Generator: Adobe Illustrator 28.0.0, SVG Export Plug-In . SVG Version: 6.00 Build 0)  -->
<svg version="1.1" id="Layer_1" xmlns="http://www.w3.org/2000/svg" xmlns:xlink="http://www.w3.org/1999/xlink" x="0px" y="0px"
	 viewBox="0 0 100 100" style="enable-background:new 0 0 100 100;" xml:space="preserve">
<g>
	<path d="M99.8,44c-1.3-6.6-6-6.5-6-6.5c0.2-1,0.2-1.9,0-2.9c-2.4-6.1-8.9-4.2-8.9-4.2c1.5,2.6,2.3,5.6,2.3,8.6
		c0,1.4-0.2,2.8-0.5,4.2c-3.1,8.6-13.5,7.8-15,7.6c3,0.1,6-1,8.3-3.3c4.5-4.4,4.5-11.6,0.1-16.1c-1.8-1.8-4.2-3-6.7-3.3
		c1.1-6.2-3-12-9.2-13.1c-1.4-0.2-2.8-0.2-4.2,0c-4.2-3.6-10.4-3.7-14.6-0.1C40,11.5,33,13.1,29.6,18.3c-1.3,2-1.9,4.4-1.8,6.8
		c0,0.3,0.1,0.6,0.1,0.9c-6.1,1.4-9.9,7.5-8.5,13.7c1,4.5,4.7,7.9,9.2,8.6c-10.4,1.5-14-8.5-14-8.5c-0.2-0.7-0.2-1.5-0.3-2.3
		c-0.3-1.8-0.3-3.7,0-5.5c-10.2,0-8.6,10.8-8.6,10.8s-6.9,0.8-5.7,9c1.2,8.2,10.6,6.5,10.6,6.5c0.7,4.2,4.1,7.5,8.4,7.8
		c2.4,0.4,4.9-0.6,6.3-2.5l1,0.8c0,0,9.6,5,10.6,12.6c0.5,5,0.6,10,0.3,15c-0.1,2.2,1.6,4.1,3.8,4.3c4.8,0.4,9.7,0.4,14.5,0.2
		c2.1-0.2,3.7-1.9,3.8-3.9c0.2-6.1,1.6-18.5,9.2-23.4l11.5-7.6c2.3,1.8,6.5,4,11.3,1.4c7.3-4,4.4-10.4,4.4-10.4S101.1,50.6,99.8,44z
		 M32,58c-0.3-0.2-0.6-0.5-1-0.7c3.4-2.4,2.9-7.1,2.6-9.2c1.5-0.4,2.8-1.1,4-2.1c0.8,1.7,1.5,3.4,2.1,5.2c1.3,4.5,2.2,9.1,2.9,13.7
		C42.5,65,38.9,62.7,32,58z M50.9,51.3c-1.6,4.9-2.7-0.8-4.2-5.7c0.3,0,0.6,0,0.9,0c2-0.1,4-0.8,5.7-1.9c0.5,0.4,1,0.7,1.5,1
		C53.2,46.7,51.9,48.9,50.9,51.3z M57.9,64.4c0,0-0.8-1.7,0.6-7.8c0.7-2.8,3-6.3,5.4-9.1c2.1,2.1,4.8,3.2,7.6,3.3
		c0.2,1.9,1.5,3.6,3.3,4.4C69.9,58.7,61.4,64.5,57.9,64.4z"/>
	<path d="M7.9,28.8c3.1-1.4,6.5-2.1,9.9-2.3c0,0,3-3.2,5.3-4c0,0,2.6-9.9,10.1-12.1c0,0-4.9-2.6-8.8-1S20.9,13,20.9,13
		s-1.8-2-6.1,0.4c-4.1,2.3-3.4,6-3.4,6S2.6,24.5,7.9,28.8z"/>
	<path d="M78.3,26c0,0,6.3-0.5,10.9,1.2c0,0,1.1-7.6-4.1-9.8c0,0,1.2-7.5-5.1-9.4c-2-0.6-4.3-0.4-6.1,0.7c0,0-7.2-3.8-10.7,2.4
		C63.2,11.2,76.2,11.7,78.3,26z"/>
	<path d="M44.9,10.7c0,0,6.3-4.6,14.6,0h1.6c-1.1-3.6-4.1-6.2-7.8-7c-5.9-1.2-12,1-15.7,5.8C37.7,9.5,42.5,9.1,44.9,10.7z"/>
</g>
</svg>
