<?xml version="1.0" encoding="utf-8"?>
<!-- Generator: Adobe Illustrator 27.8.1, SVG Export Plug-In . SVG Version: 6.00 Build 0)  -->
<svg version="1.1" id="Layer_1" xmlns="http://www.w3.org/2000/svg" xmlns:xlink="http://www.w3.org/1999/xlink" x="0px" y="0px"
	 viewBox="0 0 100 100" style="enable-background:new 0 0 100 100;" xml:space="preserve">
<g>
	<path d="M85.8,9.4l0.5,22.4l-9.6-13.1C64.9,30,75,41.1,84,42.7c-0.2,3.5-0.9,8.6-2.8,11.1c-1.7,2.2-6.1,3.5-9.1,4.2
		c-1.5-5.5-6.5-10.1-13.1-12.4l4-8.3c2.5,0,4.6-2.1,4.6-4.6c0-2.6-2.1-4.6-4.6-4.6s-4.6,2.1-4.6,4.6c0,0.7,0.1,1.4,0.5,2l-5.1,9.6
		c-1.2-0.1-2.4-0.2-3.5-0.2c-0.1,0-0.1,0-0.2,0c-0.1,0-0.1,0-0.2,0c-1.2,0-2.4,0.1-3.5,0.2l-5.1-9.6c0.4-0.6,0.5-1.3,0.5-2
		c0-2.6-2.1-4.6-4.6-4.6c-2.5,0-4.6,2.1-4.6,4.6s2,4.6,4.6,4.6l4,8.3c-6.6,2.2-11.4,6.7-13.1,12.4c-2.9-0.7-7.4-2-9.1-4.2
		c-1.8-2.5-2.5-7.7-2.8-11.1c9-1.7,19.1-12.7,7.2-24.1l-9.6,13.1l0.5-22.4c0,0-14.2,9.8-14.2,19.8c0,8.1,4,12.1,11.1,13.6
		c0.4,4.7,1.2,11.1,3.2,13.7c2.1,2.7,6.1,5.8,13.1,6.6c0.1,0.8,0.2,1.5,0.4,2.4c-2.5,0.1-4.8,0.4-7.1,2.1c-3.1,2.4-3.9,9.3-3.9,10.7
		c0,1.4,0,4.5,0,4.5s4.5-9.2,5.7-11c1.7-0.2,5.2-0.7,8-1.1c0.4,0.5,0.8,1.1,1.3,1.5c-2.6,0.6-4.6,1.2-5.7,2.4
		c-1.5,1.5-3.8,7.7-3.8,9.7s0,5.2,0,6.4c1.8-3.3,5.3-10.6,5.9-11.2c0.5-0.5,7.4-1.4,11.4-1.9c3.1,1.2,6.5,1.9,10.1,1.9
		c0.1,0,0.1,0,0.2,0c0.1,0,0.1,0,0.2,0c3.7,0,7.1-0.7,10.1-1.9c4.1,0.5,11.1,1.4,11.4,1.9c0.6,0.6,4.1,7.9,5.9,11.2
		c0-1.2,0-4.4,0-6.4c0-2-2.2-8.1-3.8-9.7c-1.1-1.1-3.2-1.8-5.7-2.4c0.5-0.5,0.9-0.9,1.3-1.5c2.7,0.4,6.4,0.8,8,1.1
		c1.2,1.8,5.7,11,5.7,11s0-3.1,0-4.5c0-1.4-0.8-8.4-3.9-10.7c-2.2-1.8-4.7-2-7.1-2.1c0.2-0.7,0.4-1.5,0.4-2.4c7-0.8,11-3.9,13.1-6.6
		c2-2.6,2.8-9,3.2-13.7C96,41.3,100,37.3,100,29.2C100,19.2,85.8,9.4,85.8,9.4z"/>
</g>
</svg>
