<?xml version="1.0" encoding="utf-8"?>
<!-- Generator: Adobe Illustrator 27.9.0, SVG Export Plug-In . SVG Version: 6.00 Build 0)  -->
<svg version="1.1" id="Layer_1" xmlns="http://www.w3.org/2000/svg" xmlns:xlink="http://www.w3.org/1999/xlink" x="0px" y="0px"
	 viewBox="0 0 100 100" style="enable-background:new 0 0 100 100;" xml:space="preserve">
<g>
	<g transform="translate(0,0)">
		<path d="M57.9,4.8c-4.1,9.2-8.5,14.4-14.8,15.3c-5.4,0.8-12.4-5.6-20.2-14.5c4.5,8.9,6.1,16,3.1,17.8c-3.6,2.1-10.7-0.4-21.3-4.8
			v2c7.3,4.6,14,9.1,12.7,10.8c-1.1,1.5-6.1,1.2-12.7,0.3v5.2c9.6,4.8,14.8,9.8,14.8,14.4c0,4-8,12.1-14.8,18.6V73
			c6.1-2,13.6-2.8,16.2,1.7c2.6,4.6,0.8,11.1-2.5,20.5h5.7c6-8.1,11.7-14.6,14.8-14.3c2.2,0.2,1.1,6.8-0.3,14.3h1.7
			c5.3-14.9,11.9-24,21.7-23.6c8.6,0.3,16.7,8.9,25.7,15.1C83,81,74.3,72.8,76.2,71.3c2-1.6,10.3,1.3,19,4.5V73
			c-5.7-3.9-11-7.6-9.6-9c1.2-1.2,4.9-1.4,9.6-1.1v-5.6c-10.3-4.1-16.3-7.9-18.2-14c-1.5-5,3.1-11.7,11.8-19.7
			c-9.1,5-15.8,8.3-18.4,3.6c-2.4-4.2,0.3-12.2,4.5-22.6h-3c-3.4,5.3-6.2,9.3-7.3,8.3c-0.9-0.9-0.9-4-0.5-8.3L57.9,4.8L57.9,4.8
			L57.9,4.8z M59.3,10.9c-1.1,8.1-3.2,18.3-1.9,19.5c1,0.9,5-6.6,8.1-11.4c-3.5,8.9-6.9,15.5-5.2,18.5c1.3,2.4,4.8,0.7,9.4-1.8
			c-4.4,4.1-6.8,7.5-6,10c1.5,5.1,8.8,7,21.7,11.6c-6.6-0.9-15.7-2.6-17.3-1.1c-1,1,5.4,4.8,9.1,7.5c-5.6-1.9-12.6-4.9-13.9-3.8
			c-0.9,0.8,3.4,4.9,5.8,7.8c-4.6-3.1-8.7-7.5-13.1-7.7C49.6,60,46,67.7,42.8,79.4c0.8-5.6,3.3-14.4,1.5-14.5
			c-2.6-0.2-8.7,8.9-13.3,15.7c3.2-9.8,6.2-15.3,4.2-18.8c-1.8-3.2-8.4-1.2-11.3,0.4c3.4-3.2,10.6-9.6,10.6-12.3
			c0-3.9-7.1-8.4-20.2-12.1c7.9,1.2,18.1,3.5,19.2,1.9c0.9-1.2-6.7-5.6-11.4-8.6c8.2,3.5,13.4,5.9,15.7,4.5c1.5-0.9,0.7-4.5-1.6-9
			c4,4.6,7.6,7.8,10.3,7.4C52.3,33.1,54.8,25.5,59.3,10.9L59.3,10.9z"/>
	</g>
</g>
</svg>
