<?xml version="1.0" encoding="utf-8"?>
<!-- Generator: Adobe Illustrator 27.9.0, SVG Export Plug-In . SVG Version: 6.00 Build 0)  -->
<svg version="1.1" id="Layer_1" xmlns="http://www.w3.org/2000/svg" xmlns:xlink="http://www.w3.org/1999/xlink" x="0px" y="0px"
	 viewBox="0 0 100 100" style="enable-background:new 0 0 100 100;" xml:space="preserve">
<g transform="translate(0,0)">
	<path d="M71.7,0c-9.7,6-18.4,12.1-26.3,18.3c-6-4.4-12.4-8.7-19.3-13C31.9,11,37,16.2,42,21.1c-2.6,2.2-5.1,4.3-7.5,6.5
		c-8.9-6.7-18.8-13.4-29.6-20c9.2,8.9,17.4,16.7,25.2,24.1c-2.2,2.1-4.3,4.3-6.3,6.4C17,33,9.5,27.9,1.3,22.9
		c7,7,13.3,13.2,19.2,19.1c-9.4,11-16,22.1-19.8,33.3c9.1-11,17.1-20.1,24.8-28.4c1.9,1.9,3.7,3.7,5.5,5.6
		c-9.6,11.1-16.3,22.4-20.1,33.7c9.2-11.2,17.3-20.3,25-28.7c2,2,3.9,4,5.9,6.1C31.3,75.2,24,87.1,19.9,99
		c9.9-11.9,18.4-21.6,26.7-30.5C55.1,77.7,64,87.7,74.1,100C70,87.7,62.4,75.4,51.6,63.3c1.7-1.8,3.5-3.6,5.2-5.4
		C67.7,69,78.9,81.1,92,96.3c-5.6-14.9-15.5-29.6-29.5-44.2c1.7-1.7,3.4-3.4,5.1-5.1c9.8,10.3,19.8,21.5,31.7,35.8
		C94.6,69,85.8,55.3,72.8,41.9c5.7-5.6,11.6-11.5,18.2-18.1c-7.8,4.8-15,9.7-21.5,14.7c-2.5-2.5-5.2-4.9-8-7.4
		c6.3-6.3,13-12.8,20.4-20.3C73,16.4,64.8,22,57.5,27.7c-2.4-2-4.9-4-7.6-6C56.7,15,63.8,8,71.7,0L71.7,0z M46.3,25.3
		c2.1,2.1,4.2,4.2,6.3,6.3c-2.2,1.8-4.3,3.6-6.3,5.4c-2.1-1.8-4.2-3.5-6.4-5.2C42,29.6,44.1,27.5,46.3,25.3L46.3,25.3z M56.8,35.8
		c2.3,2.4,4.6,4.7,7,7.1c-2,1.6-3.8,3.1-5.7,4.7c-2.2-2.1-4.4-4.2-6.8-6.3C53.1,39.5,54.9,37.7,56.8,35.8L56.8,35.8z M35.1,36.6
		c1.9,1.8,3.8,3.6,5.7,5.5c-1.9,1.8-3.7,3.6-5.4,5.5c-1.9-1.7-3.9-3.3-6-5C31.3,40.6,33.2,38.6,35.1,36.6L35.1,36.6z M45.8,47
		c2.1,2,4.1,4.1,6.2,6.1c-1.8,1.7-3.5,3.4-5.2,5.1c-1.9-2-3.9-3.9-6.1-5.9C42.4,50.5,44.1,48.7,45.8,47L45.8,47z"/>
</g>
</svg>
