<?xml version="1.0" encoding="utf-8"?>
<!-- Generator: Adobe Illustrator 26.3.1, SVG Export Plug-In . SVG Version: 6.00 Build 0)  -->
<svg version="1.1" id="Layer_1" xmlns="http://www.w3.org/2000/svg" xmlns:xlink="http://www.w3.org/1999/xlink" x="0px" y="0px"
	 viewBox="0 0 100 100" style="enable-background:new 0 0 100 100;" xml:space="preserve">
<g transform="translate(0,0)">
	<path d="M0.2,0l7.5,9.8c-1.2,1.5-1.9,3-2.3,4.7c-0.4,2.1-0.1,4.3,1.4,5.9c1.5,1.5,3.8,1.9,5.9,1.4c1.1-0.2,2.1-0.7,3.2-1.3l4.1,5.4
		c-1,1.6-1.8,3.4-2.1,5.1c-0.6,2.9-0.2,6,1.9,8c2.1,2.1,5.1,2.5,8,1.9c1-0.2,2-0.5,3-1l5.5,7.1c-1,1.8-1.7,3.7-2.1,5.6
		c-0.9,4.1-0.2,8.2,2.5,10.9c2.7,2.7,6.8,3.4,10.9,2.5c0.9-0.2,1.8-0.5,2.7-0.8l5.8,7.6c-1.3,2.6-2.3,5.2-2.8,7.7
		c-1.3,5.9-0.3,11.6,3.5,15.4c3.8,3.8,9.6,4.8,15.4,3.5c1.1-0.2,2.2-0.6,3.4-0.9c2.2,1,4.6,1.5,7.1,1.5c9.6,0,17.4-7.8,17.4-17.4
		c0-2.5-0.5-4.9-1.5-7.1c0.4-1.1,0.7-2.3,1-3.4c1.3-5.9,0.3-11.6-3.5-15.4c-2.7-2.7-6.5-4-10.5-4c-1.6,0-3.2,0.2-4.9,0.5
		c-2.4,0.5-4.8,1.4-7.2,2.6l-7.8-5.9c0.3-0.9,0.6-1.8,0.8-2.6c0.9-4.1,0.2-8.2-2.5-10.9c-1.9-1.9-4.5-2.8-7.3-2.9
		c-0.2,0-0.4,0-0.6,0c-1,0-2,0.1-3,0.4C50.9,34.3,49,35,47.1,36L40,30.5c0.4-1,0.8-2,1-3c0.6-2.9,0.2-6-1.9-8
		c-1.5-1.5-3.6-2.2-5.8-2.1c-0.7,0-1.5,0.1-2.2,0.3c-1.7,0.4-3.4,1.1-5.1,2.1l-5.4-4.1c0.6-1,1-2.1,1.3-3.2c0.4-2.1,0.1-4.3-1.4-5.9
		C19.3,5.4,17.7,5,16.2,5c-0.5,0-1.1,0.1-1.6,0.2C13,5.5,11.4,6.3,9.9,7.5L0.2,0L0.2,0z M16.2,8.9c0.7,0,1.2,0.2,1.5,0.5
		c0.4,0.4,0.6,1.1,0.4,2.3c-0.1,0.5-0.3,1-0.6,1.6L13.2,10c0.8-0.5,1.6-0.8,2.2-1C15.7,8.9,16,8.9,16.2,8.9z M10.1,13l3.3,4.3
		c-0.6,0.3-1.1,0.5-1.6,0.6c-1.2,0.3-1.9,0-2.3-0.4c-0.4-0.4-0.6-1.1-0.4-2.3C9.3,14.6,9.6,13.8,10.1,13L10.1,13z M33.3,21.2
		c1.3,0,2.3,0.3,3,1c0.9,0.9,1.3,2.4,0.8,4.5c-0.1,0.4-0.2,0.9-0.4,1.3l-7.5-5.7c0.9-0.4,1.7-0.7,2.5-0.9
		C32.4,21.3,32.9,21.3,33.3,21.2L33.3,21.2z M22.5,29.2l5.7,7.5c-0.5,0.2-0.9,0.3-1.3,0.4c-2,0.4-3.6,0.1-4.5-0.8
		c-0.9-0.9-1.3-2.4-0.8-4.5C21.8,30.9,22.1,30.1,22.5,29.2L22.5,29.2z M56.2,37.4c2,0,3.5,0.6,4.7,1.7c1.6,1.6,2.1,4.1,1.5,7.3
		c-0.1,0.3-0.2,0.6-0.2,1l-11.5-8.8c1-0.4,2-0.8,2.9-1c0.8-0.2,1.6-0.3,2.3-0.3C55.9,37.4,56.1,37.4,56.2,37.4L56.2,37.4z
		 M38.8,50.4l8.8,11.5c-0.3,0.1-0.7,0.2-1,0.2c-3.2,0.7-5.7,0.1-7.3-1.5c-1.6-1.6-2.1-4.1-1.5-7.3C38,52.4,38.4,51.4,38.8,50.4
		L38.8,50.4z M85.2,56.6c3.2,0,5.9,1,7.9,2.9c2.6,2.6,3.5,6.8,2.5,11.7c-2.5-2.8-5.8-4.8-9.6-5.6l-9.3-7.1c1.5-0.7,3.1-1.2,4.6-1.5
		C82.6,56.7,83.9,56.6,85.2,56.6L85.2,56.6z M58.6,76.2l6.7,8.8c0.6,4.2,2.7,8,5.7,10.7c-4.9,1-9,0.2-11.7-2.5
		c-2.7-2.7-3.5-6.9-2.4-11.9C57.2,79.7,57.8,78,58.6,76.2L58.6,76.2z"/>
</g>
</svg>
