<?xml version="1.0" encoding="UTF-8"?>
<svg id="Layer_1" xmlns="http://www.w3.org/2000/svg" version="1.1" viewBox="0 0 100 100">
  <!-- Generator: Adobe Illustrator 30.1.0, SVG Export Plug-In . SVG Version: 2.1.1 Build 136)  -->
  <path d="M88.1,87.1l1.2,1.2c.3.3.6.9.4,1.4-.8,2.5-2,4.7-3.6,6.7-1.5,1.9-3.9,3.5-6.4,3.6s-4.2,0-6.3-.5l-11.2-2.1c-8.3-1.5-16.6-2.8-25-3.4s-14-.7-21.1-.5-10.3-.7-12.7-6.1-.8-2.2-1.1-3.3.2-.9.6-.9c1.3,0,2.4,0,3.7-.2-1.3-1-2.5-1.8-3.8-2.6s-.7-.5-.7-1.1c.2-2.2,1-4.2,2.3-6s.8-.5,1.2-.3c.8.3,1.6.6,2.5.8,1.3-1.8-1.6-3.2,0-4.1l2.4-1.4c1.1-.6,2.2-1,3.4-1.5l-2.4-1.8c-.2-.2-.3-.8-.2-1.1.7-1.9,1.1-3.8,1.4-5.8s.6-4.3.6-6.5.1-1.3.7-1.9l1.7-1.4-1.8-.9c-1.3-.7,0-2,0-3.2v-5.1c0-3.1-.3-6.1-1-9s-2.3-2.4-1.2-4.5.9-1.8,1.2-2.8l1.7-1.4-2.8-2.2c-.5-.4-.6-.9-.4-1.5.8-2.1.5-3.5-.1-5.5s.2-1.2.9-1.3c1.1-.2,2.1-.4,3.3-.7-1.1-.9-1.9-1.6-3-2.3s-.5-.5-.6-.8.1-.8.3-1.1c.9-1.4,1-3.1.6-4.6s0-.8.1-.9.8-.4,1.1-.3c3.3.8,6.6,1.4,10,1.7s2,.2,2.9.4c.7-.6,3.3-.3,4.2,0,1.6.4,1.5,1.9,2.6,3.2l1.3-2c.3-.5.8-.7,1.4-.6,6.4,1.5,12,1.7,18.5,1.7s6.1-.2,9.2-.5,1.3.4,1.9.9c.6-.8,1.5-1.1,2.4-.7l2.7,1.2c.7-1.1,1.6-2,3-2h2.3s10.7-1,10.7-1l2.4-.2c.9,0,1.8,0,2.5.3,2.1.9,1,2.6,1.9,3.2,1.9,1.2,3.1,3.2,3.3,5.5.3,3.3-.5,6.5-1.8,9.5s-2.1,3.8-4,3.3-3.2-.8-3.8-1.4c0,0-.2,0-.2,0,0,.4-.2.9-.3,1.2l-1.6,1,1.1,1.7v4.1c-.2.4-.2.8-.6.9-1.4.8-2.8,1.6-4.1,2.5s-.3.1-.2.2.2.2.3.2h3.4c.8.2,1.3.7,1.3,1.5l-.2,5.7c0,1.2.3,2.5-.3,3.5l-1.1,2.1,1,.6c.4.2.4.8.4,1.2,0,5.7.4,10.7,2,16.2s0,1.3-.7,1.7-1.3.8-2,1.3l3.3,2c.7.4,1.1,1.2.9,2.1-.8,3.4-.6,7.6.6,10.9s.1,1.2-.2,1.5l-2.8,2.4ZM11.8,72.2c3.3,4,3.2,3.6,7.8,4.4s1.6.6,2,1.2.5.7.8,1.1l1.9-.9c.4-.2.8-.2,1.3,0,5.5,1.8,12.2,3.2,18,4,.7,0,1.5-.1,2.1.1s1.5.7,2.2,1c1.5.7,2.9,1.6,4.2,2.9l1.6-1.4c.3-.3.7-.4,1.2-.3,2.4.5,4.7.9,7.1,1.1,4,.4,7.9.4,11.9.4,2.4,0,4.7-.2,7.1-.4s.7,0,.8.3c.6,1.2-2.1,2.9,0,7,.3,0,.7,0,.9,0l2.2-.9c0-1.6.4-3.1,1-4.6s.6-2.8,1.6-4c-.3-2.9-.4-5.6-.4-8.5s0-1.7.2-2.6c-1.1-1.1-2.5-1.9-4.1-2.3s-.6-.3-.6-.5c0-.6,1.4-1.7,2-2.7l.9-1.5c-.1-3.3-.4-6.5-.9-9.8s-.5-2.3-1-3.4l.8-2.4c-.6-.9-.9-.8-.7-2,.4-2.8.9-7.6.2-10.2-1.8-.9-5-.3-7-.2-.1-.5,0-1,.5-1.4,2.2-2.2,4.2-3.3,6.5-5.3v-4.3c0-4.5,2.3-12.4,3.8-16.8s1.3-2.7,1.7-4.1c-2.9.6-5.7.7-8.7,1l-4.3.4c-1.4.1-2.6.9-3.8,1.7s-.8.3-1.3,0c-.9-.4-1.8-.7-2.7-1.1l-1.8,1.5c-.4.3-.8.4-1.2,0-1.9-1.4-1.9-1.3-4.3-1.9s-1.6,0-2.5,0c-4.6.2-9.1.2-13.7,0h-6.3c-.8-.2-1.4-.2-2.2-.4l-3,3.5c-.3.4-.5.7-1,1-.8-1.7-.7-3-1.7-4.8-1.3-.4-2.5-.8-3.9-.8s-2.6-.1-3.9,0-3.3.8-4.9,1.5-.8.6-1.2.9c.9,1,1.8,1.8,2.7,2.7s.2.3.2.4-.2.4-.3.4c-1.5.6-3,1.2-4.6,1.6v3.5c-.1.5-.2,1-.3,1.5.9.9,1.8,1.8,2.8,2.6s.4.6.2.9l-1.8,2.2-1.2,2.9.7,1.6c.2.4,0,1,0,1.4.7,4.9,1.3,9.9,1.1,14.9l2.6,2.2c.3.2.3.6.1.9-.8,1.5-1.8,2.8-2.9,4-.3,2.5-.6,4.9-1,7.2.8,0,1.5,0,2.2,0-.5,1.4-1.2,2.4-2.1,3.4s-.5.6-.5,1v1.6c.1,0,4.4,1.4,4.4,1.4.1,0,.2.2.2.3s0,.2-.2.3c-3.3,2.1-5,1.9-7.8,5.6ZM88.6,16.3c1.2.1,2-.5,2.6-1.4s1.2-1.3,1.8-1.8c-.5-2.2,1-3.2,0-4.6l-2,3.2v1.2c-1.4,1.3-1.7,1.4-2.4,3.3ZM91.9,18.1c-.2-.3-.5-.5-.6-.8l-.8-1.1c-1.3,1.9.2,4.3,1.5,5.9.5-.5-.5-2.4-.1-4ZM72.9,90.5c.3-.9.6-1.6,1.2-2.3h-.1c0,0-13.6-.9-13.6-.9-2.2-.1-4,.4-5.5-.2-.8.8-1.6,1.6-2.4,2.5s-.4.3-.6.2-.3-.2-.3-.4l-2.2-3.2c-1.4-.3-2.7-.9-3.8-1.7s-1-.5-1.6-.6l-17.3-3.4c-.8-.2-1.6-.2-2.3-.3l-2.7,1.6c-.3.2-.7,0-.8-.4-.3-.8-.7-1.7-1.1-2.5-4.5-1-8.6-2.1-13-3.4-.2,1.6.2,3,0,4.5,2.1,1.6,9.9,4.7,12.3,5.5l4.1,1.3,5.8,1.7c5.4,1.6,10.9,3.6,16.5,3.5h2.9c.6,0,2.5,1.3,3.2,1.3l2.6-.2,3.4.6,2.3-.2c4,.9,8.1,1.5,12.4,1.3-1.2-1.2-2.5-1.8-3.8-2.8.2-.2.4-.3.7-.3,1.3-.4,2.7-.7,4-1.2ZM81.1,97.3c-.7-.5-1.6-.9-2.2-1.6s-.4-1.3-.8-1.7c-1.3-1.1-.6-1.1-.5-2.7s.4-1.8.7-2.8c-.9,0-1.9,2.4-2.2,3.1v2.5s1.1.9,1.1.9c.8,1.9,1.8,2.7,4,2.3ZM72.9,47.5h-12.6c-1.9,0-3.6.2-5.5.6-2.1-.5-4.2-.6-6.4-.6h-9.5c-1.5,0-2.9.2-4.4.5-1.5-.4-2.9-.5-4.4-.5h-4.3c-.7,0-2.6.4-2.6,1.2s2.2,1.1,2.8,1.1h5.4c1,0,2-.4,2.9-.4s2.5.4,3.8.4h11.5c1.8,0,3.5-.2,5.3-.5,1.4.3,2.8.5,4.3.5h13c.6,0,6.1-.2,5.6-1.2s-4-1.1-5-1.1ZM68.9,26.3c-1.7,0-3.4,0-5.1,0s-1.6.5-2.3.4c-2-.3-3.8-.4-5.8-.4h-16.1c-1.6,0-2.9.2-4.4.5-.9.1-1.8-.4-2.8-.4h-6.2c-.7,0-2.9.3-2.8,1.2s2.4,1.1,3.1,1.1h5.5c1,0,2.1-.5,3-.4,1.6.2,3,.4,4.7.4h16.8c1.8,0,3.4-.2,5.1-.7.7.1,1.4.5,2.1.5,2.1.2,4.1.2,6.2,0s3-.5,2.7-1.1-2.9-1-3.7-1ZM72.9,20.3c-.3-.7-3.3-1.1-4.1-1.1h-9.5s-3.8.4-3.8.4l-4.8-.5h-6.7c-1.5,0-2.8.2-4.3.7s-1.2-.3-1.6-.4c-1.3-.4-2.6-.2-4-.2h-8.2c-.6,0-2.6.2-2.6,1.1s2,1.2,2.8,1.2h10c1.2,0,2.4,0,3.5-.4,1.1.3,2.1.4,3.2.4h7.9c1.6,0,3.2-.2,4.8-.5,1.3.2,2.6.4,3.9.4h8.8c.8,0,5-.4,4.7-1.2ZM66.5,33.3h-27.3c-1.6,0-2.9.2-4.4.4s-1.9-.4-2.9-.4h-5.5c-.6,0-3.2.3-3.1,1.2s2,1,2.7,1c2.1,0,4.1,0,6.2,0s1.8-.5,2.6-.5c1.6.3,2.9.5,4.6.5h26.9c.9,0,4.9-.2,5.4-1.1,0-.9-4.5-1.2-5.1-1.2ZM74.4,56.7c.5,0,3.5-.5,3.2-1s-4.2-1.1-5.3-1.1h-15c-1.6,0-3.1.2-4.7.3s-2-.4-3-.4h-8.8c-.9,0-2.9.2-2.8,1.3s2.1,1,2.9,1h7.1c2.8,0,4-1.1,4.9-.8s2.3.8,3.6.8h12.9c1.7,0,3.3,0,5-.1ZM57.1,40.4h-17.9c-1.6,0-3,.2-4.6.4s-1.9-.4-2.8-.4h-5.6c-.6,0-3.2.3-2.9,1.2.4,1.5,8.1,1.1,9.2.9l2.2-.5c1.3.4,2.4.7,3.7.7h19.5c1,0,4.6-.2,5.1-1.1-.6-.9-4.8-1.1-5.8-1.1Z"/>
</svg>