<?xml version="1.0" encoding="utf-8"?>
<!-- Generator: Adobe Illustrator 27.8.1, SVG Export Plug-In . SVG Version: 6.00 Build 0)  -->
<svg version="1.1" id="Layer_1" xmlns="http://www.w3.org/2000/svg" xmlns:xlink="http://www.w3.org/1999/xlink" x="0px" y="0px"
	 viewBox="0 0 100 100" style="enable-background:new 0 0 100 100;" xml:space="preserve">
<g transform="translate(0,0)">
	<path d="M50,0C22.4,0,0,22.4,0,50s22.4,50,50,50s50-22.4,50-50S77.6,0,50,0z M50,12.5c20.7,0,37.5,16.8,37.5,37.5
		S70.7,87.5,50,87.5S12.5,70.7,12.5,50S29.3,12.5,50,12.5z M50,18.8c-13.8,0-25,8.4-25,18.8c0,6.2,12.5,6.2,12.5,0
		c0-3.5,5.6-6.2,12.5-6.2s12.5,2.8,12.5,6.2s-6.2,3.1-12.5,6.2c-0.4,0.2-0.7,0.4-1,0.7c-5.2,3.3-5.3,8.9-5.3,11.8v3.1
		c0,3.5,2.8,6.2,6.2,6.2s6.2-2.8,6.2-6.2v-3.1c0-9.4,18.8-8.4,18.8-18.8S63.8,18.8,50,18.8z M50,68.8c-3.5,0-6.2,2.8-6.2,6.2l0,0
		c0,3.5,2.8,6.2,6.2,6.2l0,0c3.5,0,6.2-2.8,6.2-6.2l0,0C56.2,71.5,53.5,68.8,50,68.8L50,68.8z"/>
</g>
</svg>
