<?xml version="1.0" encoding="utf-8"?>
<!-- Generator: Adobe Illustrator 27.8.1, SVG Export Plug-In . SVG Version: 6.00 Build 0)  -->
<svg version="1.1" id="Layer_1" xmlns="http://www.w3.org/2000/svg" xmlns:xlink="http://www.w3.org/1999/xlink" x="0px" y="0px"
	 viewBox="0 0 100 100" style="enable-background:new 0 0 100 100;" xml:space="preserve">
<path d="M98.2,42.3l-13.1-33L50.1,0L15,9.3l-13.3,33l12.6,22.6l-2,14.9l17.4-3.6l2.4,15.5l17.9,8.4l17.9-8.4l2.6-15.5l17.3,3.6
	l-2-14.9L98.2,42.3z M34.4,68.2l-13.5-5.5L15,44H22l16.4,14.6h5.8L34.4,68.2z M50,77.6l-4.7-5.3l4.7-7.1l5,7.1L50,77.6z M79.3,60.9
	l-13.5,7.3l-9.9-9.6h5.8L78.2,44h6.9L79.3,60.9z"/>
</svg>
