<?xml version="1.0" encoding="utf-8"?>
<!-- Generator: Adobe Illustrator 27.8.1, SVG Export Plug-In . SVG Version: 6.00 Build 0)  -->
<svg version="1.1" id="Layer_1" xmlns="http://www.w3.org/2000/svg" xmlns:xlink="http://www.w3.org/1999/xlink" x="0px" y="0px"
	 viewBox="0 0 100 100" style="enable-background:new 0 0 100 100;" xml:space="preserve">
<g transform="translate(0,0)">
	<path d="M56.6,0l0.7,23.3L64,0L56.6,0L56.6,0z M36.5,0l-0.4,49.5L0.4,40.4L23.7,76L5.1,74.9l24,23.6l-9.3-15.9l15.8,1.7l-10.8-23
		l23.1,16.8l-2.6-38.8l0,0l15.8,35.8L76.7,56l-1.4,32.4L88,80l-4.3,16.7l15.9-29.9l-15.9,0.4l14.8-37.7L70.9,44.8l-2.6-29.3
		L54.7,44.9L36.5,0L36.5,0L36.5,0z M5.9,6l-1.3,6.7l24.1,29.8h0l-16.3-35L5.9,6L5.9,6z M94.4,11.2l-6.5,1.5l-9.2,22.5l17-17.3
		L94.4,11.2L94.4,11.2z M54.9,81.4c-8.4,0-15.2,6.8-15.2,15.2c0,1.2,0.1,2.2,0.4,3.4c1.5-6.8,7.6-11.9,14.8-11.9
		c7.3,0,13.3,5,14.8,11.9c0.3-1.1,0.4-2.2,0.4-3.4C70.1,88.2,63.3,81.4,54.9,81.4L54.9,81.4z"/>
</g>
</svg>
