<?xml version="1.0" encoding="utf-8"?>
<!-- Generator: Adobe Illustrator 27.8.1, SVG Export Plug-In . SVG Version: 6.00 Build 0)  -->
<svg version="1.1" id="Layer_1" xmlns="http://www.w3.org/2000/svg" xmlns:xlink="http://www.w3.org/1999/xlink" x="0px" y="0px"
	 viewBox="0 0 100 100" style="enable-background:new 0 0 100 100;" xml:space="preserve">
<g>
	<path d="M50.7,49.1c-0.3-0.1-0.6-0.2-0.8-0.3c-0.1,0-0.1-0.2-0.1-0.3c0.1-0.2,0.3-0.3,0.4-0.5c0.1-0.1,0.3-0.1,0.3,0.1
		C50.6,48.4,50.6,48.7,50.7,49.1 M47.8,44c0.3,0.2,0.5,0.4,0.8,0.7c0.2,0.1,0.2,0.3,0.1,0.6c-0.1,0.1-0.1,0.3-0.2,0.3
		c-0.4,0.4-0.8,0.8-1.1,1.3c-0.1,0.1-0.2,0.3-0.3,0.4c-0.2,0.3-0.3,0.3-0.7,0.1c0-0.1,0.1-0.3,0.1-0.4c0.3-0.8,0.6-1.6,0.9-2.3
		C47.5,44.4,47.6,44.1,47.8,44 M39.4,38.8c0.1,0.1,0.1,0.2,0.1,0.3c0,0.2-0.1,0.5-0.1,0.7c-0.1,0.3-0.2,0.7-0.3,1
		c-0.1,0.5-0.2,1.1-0.3,1.7c-0.1,0.2-0.2,0.3-0.4,0.2s-0.4-0.2-0.7-0.3c-0.5-0.1-1-0.2-1.5-0.1c-0.1,0-0.2,0-0.3,0
		c-0.2-0.3-0.4-0.5-0.5-0.8c-0.1-0.2-0.1-0.3,0.1-0.4c0.5-0.3,1-0.7,1.5-0.9s1.1-0.5,1.6-0.9C38.8,39.1,39.1,39,39.4,38.8
		 M41.2,44.1c0.1-0.2,0.1-0.3,0.1-0.5s0.1-0.4,0.1-0.5c0.1-0.6,0.3-1.2,0.4-1.8c0.2-0.8,0.3-1.5,0.5-2.3c0-0.1,0.1-0.3,0.2-0.3
		c0.1,0,0.2,0.1,0.3,0.1c0.1,0.1,0.3,0.3,0.4,0.4c0.3,0.3,0.5,0.5,0.8,0.7c0.2,0.1,0.3,0.4,0.1,0.6c-0.1,0.4-0.3,0.8-0.5,1.2
		c-0.3,0.8-0.7,1.6-1,2.3c-0.1,0.3-0.1,0.5-0.3,0.7c-0.1,0.1-0.1,0.2-0.3,0.1c-0.3-0.1-0.6-0.3-0.9-0.5
		C41.3,44.4,41.3,44.2,41.2,44.1 M61.5,34.4c-0.3,0.4-0.7,0.7-1,0.9c-0.6,0.5-1.2,0.9-1.8,1.3c-0.1,0.1-0.3,0.2-0.5,0.1
		c-0.2-0.1-0.4-0.1-0.6-0.2c-0.3-0.1-0.6-0.3-0.9-0.5c-0.7-0.3-1.3-0.7-2-1c-0.1-0.1-0.2-0.2-0.3-0.3s-0.2-0.3-0.3-0.5
		c-0.4-0.4-0.9-0.8-1.5-0.9c-0.3-0.1-0.5-0.2-0.7-0.3c0-0.1,0-0.2,0.1-0.3c0.1-0.5,0.5-1,0.9-1.5c0.1-0.2,0.3-0.2,0.5,0
		c0.5,0.3,0.9,0.6,1.3,0.9c0.5,0.4,1.1,0.7,1.8,0.9c0.9,0.3,1.8,0.6,2.7,0.9c0.3,0.1,0.6,0.1,0.9,0.2C60.4,34.3,60.9,34.4,61.5,34.4
		 M48.7,41c0-0.1,0-0.1,0-0.2c0.3-0.9,0.5-1.9,0.9-2.7c0.3-0.7,0.6-1.4,0.9-2.1c0.1-0.3,0.3-0.3,0.6-0.2c0.1,0,0.1,0.1,0.1,0.1
		c0.5,0.3,0.9,0.7,1.5,1c0.5,0.3,1,0.5,1.5,0.7c0.5,0.3,1.1,0.5,1.7,0.8c0.3,0.2,0.3,0.4,0.1,0.7c-0.1,0.1-0.1,0.1-0.1,0.1
		c-0.5,0.4-1.1,0.7-1.6,1.1c-0.3,0.2-0.5,0.5-0.8,0.7c-0.8,0.7-1.7,1.5-2.5,2.2c-0.3,0.2-0.5,0.2-0.7-0.1c-0.3-0.6-0.9-1-1.3-1.5
		C48.8,41.4,48.7,41.2,48.7,41 M63,57.2L63,57.2c-0.2-0.2-0.4-0.4-0.5-0.7c-0.5-0.6-0.9-1.3-1.3-1.9c-0.2-0.3-0.4-0.4-0.7-0.5
		c-0.3-0.2-0.7-0.4-0.8-0.9c0-0.1-0.1-0.1-0.1-0.2c-0.4-0.4-0.9-0.8-1.5-1c-0.3-0.1-0.7-0.3-1.1-0.4c-0.5-0.2-1.1-0.4-1.6-0.7
		c-0.5-0.2-1-0.4-1.5-0.6c-0.5-0.2-1.1-0.4-1.6-0.6c-0.2-0.1-0.3-0.2-0.3-0.4c-0.1-0.6-0.3-1.2-0.4-1.8c-0.1-0.3,0-0.5,0.1-0.7
		c0.3-0.3,0.5-0.5,0.7-0.7c0.5-0.5,1.1-1.1,1.7-1.6c0.4-0.4,0.8-0.8,1.3-1.2c0.6-0.6,1.3-1.2,1.9-1.7c0.5-0.4,0.9-0.8,1.4-1.2
		c0.1-0.1,0.3-0.1,0.5-0.1c0.3,0.1,0.6,0.3,0.9,0.4c0.4,0.1,0.7,0.5,0.7,0.9c0.1,0.6,0.3,1.3,0.5,1.9c0.1,0.5,0.2,0.9,0.3,1.3
		c0.1,0.9,0.3,1.9,0.5,2.9c0.1,0.3,0.1,0.7,0.2,1.1c0.1,0.5,0.1,1.1,0.2,1.6c0.1,0.6,0.1,1.3,0.2,1.9c0.1,0.5,0,1,0.1,1.5
		c0.1,0.7,0.3,1.4,0.2,2.1c0,0.1,0,0.2,0,0.3C63.2,56.5,63,56.9,63,57.2 M64.9,36.3c0.3,0.2,0.5,0.4,0.7,0.6
		c0.4,0.3,0.8,0.7,1.3,0.9c0.8,0.4,1.6,0.8,2.5,1.1c0.7,0.2,1.4,0.5,2.1,0.7c0.5,0.2,1,0.4,1.5,0.5c0.1,0,0.1,0.1,0.1,0.1
		c0.2,0.2,0.5,0.4,0.7,0.6c0.4,0.5,0.8,1.1,1.2,1.6c0.1,0.1,0.2,0.3,0.3,0.5c0.4,0.5,0.9,1.1,1.3,1.7c0.4,0.8,0.9,1.4,1.4,2.1
		c0.3,0.4,0.5,0.9,0.7,1.3c0.2,0.3,0.4,0.7,0.5,1c0.2,0.5,0.5,1,0.7,1.5c0.3,0.5,0.5,1.1,0.7,1.6c0.2,0.5,0.5,0.9,0.7,1.4
		c0.3,0.7,0.5,1.4,0.8,2.1c0.1,0.3,0.3,0.7,0.4,1.1c0,0.1,0.1,0.1,0.1,0.2c0,0.4,0.3,0.7,0.4,1c0.1,0.1,0.2,0.2,0.4,0.2
		c0.1,0,0.2-0.1,0.2-0.3c0.1-0.2,0.1-0.3,0-0.5c-0.3-0.8-0.6-1.6-0.9-2.4c-0.3-0.7-0.5-1.3-0.7-2c-0.1-0.2-0.2-0.3-0.3-0.5
		c-0.2-0.4-0.3-0.9-0.5-1.3c-0.3-0.9-0.7-1.7-1.2-2.5c-0.2-0.3-0.3-0.7-0.5-1.1c-0.3-0.5-0.5-1.1-0.8-1.6c-0.3-0.5-0.7-1.1-1.1-1.5
		c-0.4-0.6-0.8-1.2-1.2-1.7c-0.3-0.4-0.6-0.7-0.9-1.1c-0.1-0.1-0.3-0.3-0.2-0.5c0.1-0.1,0.3-0.1,0.5,0c0.5,0.2,0.9,0.4,1.3,0.6
		c0.3,0.1,0.7,0.3,1.1,0.4c0.5,0.2,1.1,0.4,1.5,0.7c0.1,0.1,0.1,0.1,0.3,0.1c1,0.5,2,1.1,3,1.5c0.6,0.3,1.3,0.4,1.9,0.3
		c0.3-0.1,0.4,0,0.5,0.2c0.3,0.4,0.6,0.7,0.9,1.1c0.3,0.3,0.5,0.7,0.9,1c0.3,0.5,0.7,0.9,1.1,1.4c0.7,0.9,1.3,1.9,2,2.9
		c0.3,0.2,0.5,0.4,0.7,0.7c0.3,0.4,0.5,0.9,0.8,1.3c0.5,0.9,0.9,1.7,1.5,2.5c0.6,0.8,0.9,1.7,1.4,2.6c0.4,0.9,0.8,1.8,1.3,2.7
		c0.2,0.4,0.4,0.9,0.4,1.3c0,0.2,0.1,0.3,0.3,0.5c0.3,0.1,0.3,0.3,0.4,0.6c0.1,0.4,0.2,0.9,0.4,1.3c0.3,0.6,0.5,1.2,0.6,1.8
		c0.3,0.9,0.5,1.8,0.7,2.7c0.1,0.3,0.3,0.7,0.5,1c0.1,0.1,0.2,0.1,0.3,0.1c0.2,0,0.4-0.3,0.4-0.4c-0.1-0.5-0.1-0.9-0.3-1.3
		c-0.2-0.7-0.5-1.4-0.7-2.1c-0.1-0.4-0.2-0.9-0.3-1.3c-0.1-0.3-0.2-0.6-0.3-0.9s-0.3-0.7-0.4-1c-0.2-0.5-0.4-1.1-0.4-1.7
		c0-0.1-0.1-0.2-0.1-0.3c-0.5-0.7-0.9-1.6-1.3-2.4c-0.1-0.2-0.3-0.5-0.3-0.7c-0.3-0.5-0.6-1.1-0.9-1.7c-0.4-0.7-0.8-1.5-1.2-2.3
		c-0.2-0.5-0.5-0.9-0.7-1.3c-0.3-0.4-0.5-0.9-0.8-1.3c-0.3-0.4-0.5-0.9-0.7-1.3c0-0.1-0.1-0.1-0.1-0.1c-0.4-0.6-0.7-1.2-1.1-1.8
		c-0.1-0.2-0.3-0.3-0.4-0.5c-0.3-0.5-0.7-1.1-1.1-1.5c-0.4-0.5-0.8-1.1-1.2-1.7c-0.2-0.3-0.5-0.7-0.7-1c-0.1-0.1-0.2-0.1-0.3-0.2
		c-0.5-0.3-0.9-0.6-1.3-1c-0.1-0.1-0.2-0.2-0.3-0.3c-0.5-0.3-1.1-0.5-1.6-0.9c-0.8-0.4-1.6-0.8-2.4-1.1c-0.9-0.4-1.9-0.8-2.8-1.1
		c-0.6-0.3-1.3-0.5-1.9-0.7c-0.4-0.1-0.9-0.3-1.3-0.4c-0.5-0.1-0.9-0.4-1.4-0.5c-0.1,0-0.2-0.1-0.3-0.1c-0.3-0.1-0.6-0.3-0.9-0.6
		c-0.4-0.5-0.8-1-1.3-1.4c-0.7-0.6-1.4-1.1-2.3-1.5c-0.5-0.1-0.9-0.4-1.4-0.6c-0.3-0.1-0.5-0.2-0.8-0.3c-0.1,0-0.1,0-0.2,0
		c-1-0.5-2.1-0.7-3.1-1.1c-0.5-0.1-1-0.2-1.5-0.3c-1.1-0.2-2.2-0.5-3.2-0.8c-0.1,0-0.2-0.1-0.3-0.1c-0.4-0.1-0.8-0.3-1.1-0.6
		c-0.3-0.3-0.7-0.5-1.1-0.5c-0.2,0-0.4-0.1-0.6-0.2c-0.5-0.2-0.9-0.4-1.3-0.7c-0.1,0-0.2-0.1-0.3-0.1c-0.3,0-0.7,0-1,0
		c-0.6-0.1-1.1,0.2-1.4,0.7c-0.1,0.2-0.3,0.2-0.5,0.2c-0.4,0-0.7,0.2-0.9,0.5c-0.3,0.7-0.7,1.5-1.1,2.1c-0.3,0.5-0.5,1.1-0.9,1.6
		c-0.2,0.2-0.3,0.5-0.5,0.8c-0.4,0.7-0.8,1.4-1.2,2.1c-0.1,0.3-0.2,0.5-0.3,0.7c-0.1,0.1-0.1,0.3-0.2,0.3c-0.2,0.2-0.5,0.1-0.6-0.2
		l0,0c0-1-0.7-1.5-1.5-2c-0.6-0.4-1.2-0.5-1.9-0.3c-0.1,0-0.1,0-0.1,0c-0.2,0-0.3-0.1-0.3-0.3c0.1-1.1,0.1-2.3,0.1-3.4
		c0-0.4-0.1-0.8-0.2-1.2c-0.1-0.3-0.1-0.5-0.2-0.8c-0.1-0.5-0.3-1-0.5-1.5s-0.5-1.1-0.7-1.6c-0.3-0.5-0.5-1-0.9-1.5
		c-0.2-0.2-0.4-0.5-0.5-0.7c-0.7-0.9-1.5-1.7-2.4-2.5c-0.2-0.2-0.4-0.3-0.7-0.5c-0.6-0.3-1.1-0.7-1.7-1.1c-0.4-0.2-0.7-0.5-1.1-0.7
		c-0.5-0.1-0.9-0.3-1.3-0.5c-0.5-0.1-1-0.3-1.5-0.5h-0.1c-0.5-0.1-1.1-0.1-1.6-0.2s-0.9-0.1-1.3-0.1c-0.7-0.1-1.5-0.1-2.2,0.1
		c-0.5,0.1-1.1,0.1-1.6,0.3c-0.7,0.2-1.5,0.3-2.3,0.7c-0.5,0.2-1.1,0.4-1.5,0.6c-0.5,0.2-1.1,0.5-1.6,0.7c-1.5,0.7-2.7,1.6-3.8,2.9
		c-0.5,0.5-0.8,1.1-1.3,1.7C12,26,11.8,27,11.4,28c-0.1,0.4-0.3,0.8-0.5,1.2c-0.1,0.3-0.1,0.7-0.3,1c-0.1,0.5-0.3,0.9-0.5,1.3v0.1
		c0,0.7-0.2,1.5-0.4,2.2c-0.1,0.3-0.1,0.7-0.1,1.1c0,0.1-0.1,0.2-0.1,0.3s-0.1,0.3-0.1,0.5c0,0.3,0.1,0.5,0.1,0.8
		c0.1,0.7,0.1,1.3,0.2,2c0,0.3,0.1,0.5,0.2,0.7c0.1,0.1,0,0.3-0.1,0.4c-0.1,0.1-0.2,0.3-0.3,0.4c-0.5,0.5-0.9,1-1.4,1.5
		c-0.3,0.3-0.5,0.6-0.8,0.9c-0.3,0.3-0.6,0.5-0.9,0.9c-0.3,0.3-0.7,0.7-1.1,1.1c-0.1,0.1-0.3,0.3-0.4,0.5c-0.4,0.4-0.9,0.9-1.3,1.3
		c-0.3,0.3-0.5,0.5-0.7,0.7c-0.8,0.4-1.2,0.9-1.6,1.3C1.2,48.4,1,48.6,1,48.9C0.9,50,0.9,51,0.9,52.1c-0.1,0.9-0.1,1.8-0.2,2.8
		c0,1.5,0,2.9-0.1,4.3c0,0.7-0.1,1.3-0.1,2c0,1.2-0.1,2.3-0.1,3.5c0,1-0.1,2-0.1,3c0,0.9,0,1.8,0,2.7c0,0.8-0.1,1.6-0.2,2.3
		C0,73.2,0,73.7,0,74.2c0,0.1,0.1,0.3,0.1,0.3c0.1,0.2,0.5,0.2,0.6,0s0.2-0.4,0.3-0.7c0.2-0.7,0.3-1.3,0.5-2c0-0.1,0-0.1,0-0.3
		c0-1.1,0-2.3,0-3.4c0-0.3,0-0.5,0.1-0.8c0.1-0.4,0.1-0.9,0-1.3c-0.1-0.5-0.1-1.1-0.1-1.6c0-0.4,0-0.9,0-1.3c0-0.6,0-1.3,0.1-1.9
		c0.1-0.9,0.1-1.7,0.1-2.6c0-0.3,0-0.5,0.1-0.7C2,57.9,2,57.4,2,56.8c0-0.5,0-1,0.1-1.5c0.1-0.6,0.1-1.3,0.1-1.9
		c0.1-0.6,0.2-1.2,0.4-1.7C2.9,51,3.3,50.5,4,50.2c0.1-0.1,0.2-0.2,0.3-0.3c0.3-0.8,0.8-1.4,1.3-2.1c0.5-0.7,1.1-1.3,1.7-2
		C7.8,45.2,8.4,44.6,9,44c0.3-0.3,0.5-0.7,0.8-0.9c0.3-0.3,0.4-0.3,0.6,0.1c0.1,0.3,0.1,0.5,0.2,0.7c0.1,0.5,0.3,1.1,0.7,1.5
		c0.4,0.5,0.7,1,1,1.5c0.1,0.1,0.1,0.3,0.1,0.4c0.1,0.5,0.4,0.7,0.8,0.8c0.7,0.3,1.5,0.2,2.3,0.2c0.3,0,0.6-0.1,0.8-0.3
		c0.3-0.3,0.7-0.2,1.1-0.2c0.9,0,1.9,0,2.9,0c0.2,0,0.4,0,0.7,0c0.1,0.3-0.1,0.5-0.2,0.7c-0.5,0.7-0.9,1.5-1.4,2.2
		c-0.3,0.5-0.5,1-0.8,1.5c-0.1,0.1-0.1,0.3,0,0.4c0.3,0.5,0.3,1.2,0.5,1.8c0.1,0.8,0.3,1.6,0.5,2.4c0,0.1,0.1,0.1,0.1,0.2
		c0.1,0.5,0.1,1.1,0.2,1.7c0,0.3,0.1,0.5,0.2,0.7c0.1,0.6,0.3,1.3,0.3,1.9c0,0.5,0.1,0.9,0.2,1.5c0.1,0.2,0.2,0.5,0.3,0.6
		c0.1,0.1,0.3,0.1,0.4,0.1s0.3-0.1,0.3-0.3c0.1-0.3,0.1-0.7,0-1.1c-0.1-0.7-0.2-1.4-0.3-2.1c-0.1-0.3-0.1-0.6-0.1-0.9
		c-0.1-0.7-0.2-1.3-0.3-1.9c0-0.1-0.1-0.3-0.1-0.5c-0.1-0.7-0.3-1.4-0.2-2.1c0-0.5,0.1-0.9,0.5-1.3c0.2-0.2,0.3-0.5,0.5-0.8
		c0.3-0.5,0.5-1,0.7-1.5c0.1-0.3,0.2-0.6,0.4-0.9c0.3-0.5,0.5-1.1,0.8-1.6c0.1-0.3,0.3-0.6,0.5-0.9c0.1-0.1,0.1-0.2,0.3-0.2
		c0.3-0.1,0.7-0.2,1-0.3s0.5-0.1,0.9-0.2c0.5-0.1,0.5-0.1,0.8,0.3c0.2,0.3,0.5,0.7,0.7,0.9c0.3,0.3,0.6,0.5,1,0.7
		c0.5,0.3,1.1,0.5,1.6,1c0.7,0.7,0.5,0.4,0.5,1.3c0,0.4,0,0.9,0,1.3c0,0.1,0.1,0.3,0.1,0.4c0.2,0.2,0.2,0.5,0.2,0.7c0,1,0,2.1,0,3.1
		c0,1.3,0,2.5,0,3.9c0,1.5,0,2.9,0,4.3c0,0.1,0,0.3,0,0.4c0,0.2,0.1,0.3,0.3,0.3c0.1,0,0.4-0.1,0.4-0.3c0-0.2,0-0.3,0.1-0.5
		c0-0.5-0.1-0.9,0.1-1.3l0,0c0.1-0.7,0.1-1.5,0.2-2.3c0-0.6,0-1.2,0.1-1.7c0-0.5,0.1-0.9,0.1-1.3c0-0.5,0-1.1,0.1-1.7
		c0.1-0.7,0.1-1.5,0.2-2.3l0,0c0-0.5,0.1-0.8,0.5-1.1c0.2-0.2,0.2-0.5,0.2-0.8c0-0.1,0-0.3,0-0.5c0-0.1,0.1-0.3,0.3-0.3
		c0.3-0.1,0.7-0.3,1-0.4c0.2-0.1,0.3-0.1,0.4,0.1c0.1,0.2,0.2,0.5,0.4,0.7c0.4,0.7,0.9,1.3,1.7,1.6c0.3,0.1,0.5,0.3,0.7,0.4
		c0.3,0.1,0.7,0.1,1.1,0c0.1-0.1,0.3-0.1,0.5-0.1c0.2,0.4,0.4,0.7,0.6,1.1c0.2,0.3,0.5,0.6,0.9,0.8s1.1,0.1,1.5-0.3
		c0.2-0.2,0.4-0.3,0.6-0.5c0.3-0.3,0.6-0.5,0.7-0.9c0.1-0.3,0.3-0.5,0.6-0.5c0.1,0,0.1,0,0.3,0.1c-0.3,0.7-0.7,1.3-1.2,1.8
		c-0.3,0.3-0.7,0.7-1.1,1.1c-0.1,0.2-0.3,0.4-0.5,0.6c-0.1,0.3-0.2,0.5,0,0.9c0.4,0.1,0.9-0.1,1.2-0.3c0.6-0.5,1.1-1,1.7-1.5
		c0.5-0.5,0.9-1.1,1.4-1.6c0.3-0.4,0.5-0.9,0.8-1.3c0.3-0.5,0.2-0.9,0-1.5c-0.1-0.3-0.3-0.6-0.4-0.9c0.2-0.1,0.4-0.1,0.6,0
		c0.6,0.5,1.3,0.7,2.1,1.1c0.2,0.1,0.4,0.2,0.7,0.3s0.5,0.2,0.8,0.3c0.6,0.1,1.1,0.4,1.5,0.7c0.1,0.1,0.1,0.1,0.1,0.2
		c0.3,0.5,0.3,1.1,0.5,1.7c0.1,0.7,0.3,1.3,0.4,2c0.1,0.6,0.3,1.1,0.5,1.7c0.1,0.5,0.2,0.9,0.3,1.4c0.1,0.7,0.3,1.5,0.5,2.2
		c0.1,0.4,0.2,0.8,0.5,1.1c0.1,0.1,0.2,0.1,0.3,0.1c0.1-0.1,0.1-0.2,0.1-0.3c0-0.6,0-1.3-0.2-1.9c-0.2-0.9-0.4-1.7-0.5-2.5
		c-0.1-0.2-0.1-0.5-0.1-0.7c-0.1-0.3-0.1-0.7-0.1-1.1c0-0.1-0.1-0.3-0.1-0.4c0-0.1-0.1-0.1-0.1-0.1c-0.1-0.4-0.1-0.9-0.3-1.3
		c-0.1-0.6-0.3-1.2-0.5-1.8c0.1,0,0.2-0.1,0.3,0c0.5,0.2,1.1,0.3,1.6,0.6c0.8,0.3,1.6,0.7,2.3,1.1c0.7,0.3,1.4,0.5,2.1,0.5
		c0.4,0,0.7,0.2,0.9,0.5c0.5,0.6,0.9,1.2,1.5,1.7c0.3,0.2,0.4,0.5,0.6,0.8c0.1,0.2,0.3,0.4,0.5,0.6c0.3,0.4,0.5,0.7,0.7,1.1
		c0.2,0.3,0.5,0.6,0.7,0.9c0.4,0.5,0.8,1.1,1.2,1.7c0.3,0.4,0.5,0.9,0.8,1.3C66.4,65,66.7,65.5,67,66c0.5,0.9,1,1.8,1.4,2.7
		c0.2,0.5,0.5,0.9,0.7,1.3c0.4,0.9,0.9,1.9,1.3,2.9c0.1,0.2,0.1,0.4,0.1,0.5c0.1,0.1,0.1,0.3,0.2,0.4c0.5,0.3,0.5,0.7,0.7,1.2
		c0.1,0.3,0.2,0.6,0.3,0.9c0.1,0.5,0.3,1.1,0.5,1.6c0.3,0.9,0.5,1.9,0.8,2.9c0.1,0.3,0.3,0.6,0.5,0.9c0.1,0.2,0.3,0.2,0.4,0
		c0.3-0.3,0.2-0.5,0.2-0.9c-0.1-0.4-0.2-0.9-0.3-1.3c-0.3-0.9-0.6-1.9-0.9-2.8c-0.1-0.3-0.2-0.5-0.3-0.8c-0.2-0.7-0.5-1.3-0.7-1.9
		c-0.1-0.3-0.2-0.7-0.3-0.9c0-0.2-0.1-0.3-0.2-0.5c-0.1-0.1-0.1-0.2-0.2-0.3c-0.3-0.6-0.6-1.2-0.9-1.8c-0.4-0.7-0.8-1.5-1.2-2.3
		c-0.5-0.9-1.1-1.9-1.6-2.9c-0.4-0.8-0.9-1.6-1.4-2.3c-0.3-0.5-0.7-0.9-1-1.4s-0.6-1.1-0.9-1.6c0.3-0.3,0.3-0.5,0.3-0.5
		c0-0.6,0-1.2-0.1-1.8c-0.1-0.3-0.1-0.5-0.1-0.7c-0.1-0.7-0.2-1.4-0.3-2.1c-0.1-0.5,0-1-0.1-1.5c-0.1-0.7-0.1-1.5-0.3-2.2
		c-0.1-0.3,0-0.5-0.1-0.8c-0.1-1.4-0.3-2.7-0.5-4.1c-0.1-0.5-0.2-1-0.3-1.5c0-0.3-0.1-0.5-0.1-0.7c-0.1-0.9-0.2-1.7-0.4-2.6
		c-0.1-0.5-0.3-1.1-0.5-1.7c-0.1-0.2-0.2-0.3-0.3-0.5c-0.3-0.3-0.3-0.4,0-0.7c0.4-0.4,0.9-0.7,1.5-0.8c0.5-0.1,0.9-0.5,1.4-0.7
		C64.4,36.6,64.6,36.5,64.9,36.3"/>
</g>
</svg>
