<?xml version="1.0" encoding="UTF-8"?>
<svg id="Layer_1" xmlns="http://www.w3.org/2000/svg" version="1.1" viewBox="0 0 100 100">
  <!-- Generator: Adobe Illustrator 29.4.0, SVG Export Plug-In . SVG Version: 2.1.0 Build 152)  -->
  <g id="HrWKrn.tif">
    <path d="M49.9,21.8c1.1-2.7,2.1-5.1,3.2-7.5,1.3-3.1,2.5-6.1,3.8-9.1.6-1.7,1.5-1.9,3.1-1.1.8.4,1.7.7,2.4,1.2,1.4.7,1.7,1.4,1.1,2.9-3,7.4-6,14.9-9,22.4-.2.5-.3,1.1,0,1.6,7,14.5,14.7,28.4,24.4,41.3,6,8.1,12.8,15.5,20.4,22.3.2.2.5.4.8.7-.5,0-.7,0-1.1,0h-44.4c-.7,0-1.1-.3-1.4-.9-2.1-5.3-3.4-10.7-4.5-16.1-1.5-8.2-2.1-16.5-2.2-24.8,0-.2,0-.4-.2-.6,0,.4-.2.7-.3,1-3.7,13.2-9.6,25.1-18.6,35.5-1.7,1.9-3.6,3.5-5.5,5.3-.3.3-.7.5-1.2.5H.3c0,0,0,0-.3,0,0-.2.2-.3.4-.4,12.9-11.3,23.3-24.7,31.9-39.4,4.6-7.9,8.7-16.1,13.1-24.2.3-.5.3-1.2,0-1.8-2.9-7.3-5.8-14.7-8.8-22-.8-2-.6-2.6,1.3-3.5.7-.4,1.5-.7,2.2-1.1,1.4-.6,2.2-.3,2.9,1.1,2.1,5.1,4.3,10.1,6.3,15.2,0,.6.3.9.6,1.7Z"/>
  </g>
</svg>