<?xml version="1.0" encoding="utf-8"?>
<!-- Generator: Adobe Illustrator 28.0.0, SVG Export Plug-In . SVG Version: 6.00 Build 0)  -->
<svg version="1.1" id="Layer_1" xmlns="http://www.w3.org/2000/svg" xmlns:xlink="http://www.w3.org/1999/xlink" x="0px" y="0px"
	 viewBox="0 0 100 100" style="enable-background:new 0 0 100 100;" xml:space="preserve">
<path d="M99.9,56.1c0,3.3,0.2,6.6-0.1,9.8c-0.4,4.9-3.3,8.4-7.2,11.1c-4.2,2.9-8.9,4.6-13.8,5.7c-5.8,1.3-11.6,1.7-17.4,1.1
	c-6.6-0.6-13-2-18.5-5.9c-1.9-1.3-3.4-3.1-5-4.8c-3.5-3.7-6.8-7.6-11.5-9.9c-2.8-1.4-5.9-2.1-9-2.5c-2.4-0.3-4.8-0.5-7.2-0.9
	c-3.6-0.7-6.7-2.2-8.8-5.5C0.5,53,0,51.3,0,49.6C0,44,0,38.4,0,32.8c0.1-4.3,2.4-7.4,5.7-9.8c3.3-2.3,7.1-3,10.9-3.8
	c11.9-2.4,23.8-3.7,35.9-3.2c5.6,0.2,11.1,1,16.5,2.3c5.1,1.3,10,3.1,14.5,5.8c3.7,2.2,6.9,4.9,9.6,8.3c2.2,2.7,4,5.5,5.3,8.7
	c0.9,2.1,1.4,4.3,1.4,6.6C100,50.6,100,53.3,99.9,56.1C100,56.1,99.9,56.1,99.9,56.1z M46.9,18.7c-4.9,0.4-9.8,0.6-14.6,1.2
	c-5.5,0.7-10.9,1.7-16.3,2.8c-3.6,0.7-7,2-9.8,4.5C2.9,30,2.7,34,5.9,36.8c1.7,1.5,3.6,2.5,5.8,2.9c2.8,0.6,5.7,0.9,8.5,1.3
	c2.7,0.3,5.2,1,7.7,2.1c4.5,2.1,7.8,5.5,11.1,9c1.5,1.6,3,3.4,4.7,4.8c4,3.3,8.8,4.9,13.9,5.7C65,64,72.3,63.8,79.6,62
	c4-1,7.8-2.6,11.1-5.1c4.7-3.7,6.3-8.8,4.4-14.5c-2.2-6.5-6.6-11.4-12.2-15.1c-5.8-3.8-12.3-5.9-19.1-7.1
	C58.2,19.3,52.6,18.8,46.9,18.7z M43.6,21.8c10.3,0.1,18.9,0.7,27.3,3.3c5.2,1.6,10.1,4,14.1,7.8c3.4,3.2,6,7,6.6,11.8
	c0.5,3.9-1,7.1-3.9,9.6c-3,2.7-6.6,4.2-10.4,5.1c-5,1.2-10.1,1.3-15.2,0.7c-5.7-0.7-11-2.5-15.7-5.8c-2.1-1.5-4-3.4-5.9-5.3
	c-2.9-2.9-5.7-5.9-9.4-8.1c-2.9-1.7-6-2.4-9.2-2.8c-3-0.4-6.1-0.9-9.1-1.4c-1.1-0.2-2.1-0.8-3-1.4c-3-1.9-3-4.6-0.2-6.7
	c2.2-1.7,4.7-2.8,7.4-3.3c4.6-0.9,9.2-1.7,13.8-2.3C35.7,22.3,40.5,22.1,43.6,21.8z M75.1,41.2c-2.3,0-4.1,0.5-5.8,1.4
	c-2.3,1.3-2.4,3.8-0.6,5.6c2.7,2.7,8.2,2.2,10.9-0.8c1.2-1.3,1.1-3.5-0.3-4.7C78.1,41.7,76.5,41.1,75.1,41.2z"/>
</svg>
