<?xml version="1.0" encoding="utf-8"?>
<!-- Generator: Adobe Illustrator 26.3.1, SVG Export Plug-In . SVG Version: 6.00 Build 0)  -->
<svg version="1.1" id="Layer_1" xmlns="http://www.w3.org/2000/svg" xmlns:xlink="http://www.w3.org/1999/xlink" x="0px" y="0px"
	 viewBox="0 0 100 100" style="enable-background:new 0 0 100 100;" xml:space="preserve">
<g transform="translate(0,0)">
	<path d="M49.1,0C22.1,0.4,0.9,18.4,0.9,39.4c0,9.9,4.6,19,12.4,26l1.1,1l0,1.5l0.9,23.7c1.8,1,5.7,3,11.5,4.9V80.8h7.2v17.6
		c3.9,0.8,8.4,1.4,13.3,1.6V83.7h7.2V100c5.1-0.3,9.7-1,13.6-1.9V80.8h7.2v15.1c4.6-1.6,7.6-3.3,9.1-4.2l0.7-23.5l0-1.6l1.2-1
		c8-7.1,12.6-16.2,12.6-26.2C99.1,18.2,77.5,0,50,0L49.1,0L49.1,0z M19.3,34.3c9-0.1,22.5,7.1,22.5,7.1c0,8.4-6.8,15.2-15.2,15.2
		c-8.4,0-15.2-6.8-15.2-15.2C11.6,36.2,14.9,34.4,19.3,34.3L19.3,34.3z M80.7,34.3c4.4,0.1,7.7,1.9,7.9,7.1
		c0,8.4-6.8,15.2-15.2,15.2c-8.4,0-15.2-6.8-15.2-15.2C58.2,41.5,71.7,34.2,80.7,34.3z M50,52.9l7.8,17.5H42.1L50,52.9L50,52.9z"/>
</g>
</svg>
