<?xml version="1.0" encoding="utf-8"?>
<!-- Generator: Adobe Illustrator 27.7.0, SVG Export Plug-In . SVG Version: 6.00 Build 0)  -->
<svg version="1.1" id="Layer_1" xmlns="http://www.w3.org/2000/svg" xmlns:xlink="http://www.w3.org/1999/xlink" x="0px" y="0px"
	 viewBox="0 0 100 100" style="enable-background:new 0 0 100 100;" xml:space="preserve">
<path transform="translate(0,0)" class="" d="M95.5,4.5c-0.4-0.4-0.8-0.7-1.3-1l-1.2,2.2L93.6,3c-1.1-0.5-2.3-0.7-3.4-0.4
	l-0.2,0.2c0.1,1.6,1,3.4,2.4,4.7s3.1,2.2,4.7,2.4l0.2-0.2C97.9,8,97,5.9,95.5,4.5L95.5,4.5z M86.9,6L54.6,38.3l1.4,1.4l8.4-8.4
	l-6.6,10.3l3.9,3.9L94,13.1c-0.4-0.2-0.8-0.3-1.2-0.5l-5.5,2.9l3.9-3.9c-0.5-0.4-1-0.8-1.5-1.3C88.6,9,87.6,7.6,86.9,6L86.9,6z
	 M51.9,41l-3.4,3.4l10.2,3.4L51.9,41L51.9,41z M56.2,50.9l-10.6-3.5l-2.3,2.3l10.6,3.5L56.2,50.9z M50.9,56.2L47.1,55l-2.3,7.3
	L50.9,56.2z M43.6,53.8l-3.3-1.1l-2.5,2.5l4.1,4.1L43.6,53.8z M42.2,64.9l-1.6-1.6l-5.5-5.5L2.7,90.2c-0.7,2.1,0.7,4.7,2.7,6.1
	l12.8-12.8L7.1,97.2c0.9,0.3,1.9,0.4,2.7,0.1L42.2,64.9L42.2,64.9z"/>
</svg>
