<?xml version="1.0" encoding="utf-8"?>
<!-- Generator: Adobe Illustrator 27.7.0, SVG Export Plug-In . SVG Version: 6.00 Build 0)  -->
<svg version="1.1" id="Layer_1" xmlns="http://www.w3.org/2000/svg" xmlns:xlink="http://www.w3.org/1999/xlink" x="0px" y="0px"
	 viewBox="0 0 100 100" style="enable-background:new 0 0 100 100;" xml:space="preserve">
<path d="M98.1,9.7c-13.3,4.8-29.6,12.2-46.6,20.4h30.8C88.9,23.3,94,16.1,98.1,9.7z M100,13.7C93.9,23.2,85.5,34.3,72.9,43
	c-14.3,9.9-34,16.6-61.4,14.2C12,69,17.7,78,26,87.8c39.2-13.2,56.7-27.1,65-40.6C97.9,36,98.6,24.8,100,13.7L100,13.7z M43.6,33.9
	c-2,1-4.1,2-6.1,3h37.2c1.2-1,2.4-2,3.5-3H43.6z M29.9,40.8C22.8,44.3,15.8,47.8,9,51.3c0.1,0,0.1,0.1,0.2,0.1
	c0.9,0.5,1.7,1.2,2.2,2.1c26.1,2.5,44.6-3.6,58.2-12.7L29.9,40.8z M4,53.9c-1.3,0-2.5,0.3-3.2,0.7C0.1,55.1,0,55.4,0,55.4
	s0.1,0.3,0.8,0.7c0.7,0.4,1.9,0.7,3.2,0.7s2.5-0.3,3.2-0.7C7.9,55.7,8,55.4,8,55.4s-0.1-0.3-0.8-0.7C6.5,54.3,5.3,53.9,4,53.9z
	 M7.9,60c-1.2,0.4-2.5,0.7-3.9,0.7c-0.9,0-1.8-0.1-2.6-0.3c0.5,6,2.7,12.8,5.7,18.3c2,3.8,4.4,7.1,6.6,9.2c2.2,2.1,3.9,2.6,4.9,2.3
	c1.2-0.4,2.4-0.8,3.6-1.1C14.6,80.1,9.1,71.2,7.9,60z"/>
</svg>
