<?xml version="1.0" encoding="UTF-8"?>
<svg id="Layer_1" xmlns="http://www.w3.org/2000/svg" version="1.1" viewBox="0 0 100 100">
  <!-- Generator: Adobe Illustrator 29.4.0, SVG Export Plug-In . SVG Version: 2.1.0 Build 152)  -->
  <path d="M85.1,56c-10.3-13-8.6-27.4-16.8-27.4s-8.8,2.4-11.3,6.4c-2.9-12.4-8.4-20.6-14.7-20.6s-14,11.8-16.1,28.2c-1.5-1.4-5.1-2.2-6.9-2.2-6.5,0-9.5,8.7-11.7,22.6-2.1,14-12,22.6-5.6,22.6h31.8c0-.9,0-1.7,0-2.5,0-13,6.5-23.4,14.5-23.4s14.5,10.5,14.5,23.4,0,1.7,0,2.5h34c8.3,0-1.4-16.7-11.7-29.6h0Z"/>
</svg>