<?xml version="1.0" encoding="utf-8"?>
<!-- Generator: Adobe Illustrator 27.8.1, SVG Export Plug-In . SVG Version: 6.00 Build 0)  -->
<svg version="1.1" id="Layer_1" xmlns="http://www.w3.org/2000/svg" xmlns:xlink="http://www.w3.org/1999/xlink" x="0px" y="0px"
	 viewBox="0 0 100 100" style="enable-background:new 0 0 100 100;" xml:space="preserve">
<g transform="translate(0,0)">
	<path d="M50,0C37.5,0,23.8,9,4.6,9.7L10,24.5C23.2,15.5,36.6,10.9,50.1,11c13.3,0,26.7,4.6,39.9,13.3l5.3-14.6C76,9.7,61.9,0,50,0
		L50,0L50,0z M49.4,14.9c-3.9,0-7.7,0.5-11.6,1.3l7.5,22.5L49.4,14.9L49.4,14.9z M50.6,14.9l4.2,23.8l7.3-22.5
		C58.3,15.4,54.4,15,50.6,14.9L50.6,14.9z M36.1,16.6c-4.1,1-8.1,2.5-12.2,4.4l6.4,29.7L36.1,16.6L36.1,16.6z M63.9,16.6l5.8,34.1
		l6.4-29.8C72,19.1,67.9,17.6,63.9,16.6L63.9,16.6z M77.4,21.5l5,23.7l6.3-17.2C84.9,25.5,81.1,23.3,77.4,21.5L77.4,21.5z
		 M22.7,21.6c-3.7,1.9-7.5,4.1-11.3,6.7l6.2,16.9L22.7,21.6z M31.9,59l-5.7,24.4c3.6,1,7.3,1.7,10.9,2.2L31.9,59L31.9,59z M68.1,59
		l-5.2,26.6c3.6-0.5,7.2-1.2,10.8-2.2L68.1,59L68.1,59z M20.2,59l-7.6,19.7c4.1,1.7,8.1,3.2,12.2,4.3L20.2,59L20.2,59z M79.8,59
		l-4.6,24c4.1-1.1,8.1-2.5,12.2-4.2L79.8,59L79.8,59z M43.9,68.9l-5,16.9c3.4,0.4,6.7,0.6,10.1,0.7L43.9,68.9z M56.2,68.9l-5.1,17.6
		c3.4,0,6.7-0.3,10.1-0.7L56.2,68.9L56.2,68.9z M11.3,82.3l-3,7.7c12,7.9,30.2,10,41.7,10c10.9,0,31.5-1.8,41.7-10l-2.9-7.5
		C62.8,93,36.8,93.1,11.3,82.3L11.3,82.3z"/>
</g>
</svg>
