<?xml version="1.0" encoding="utf-8"?>
<!-- Generator: Adobe Illustrator 27.9.0, SVG Export Plug-In . SVG Version: 6.00 Build 0)  -->
<svg version="1.1" id="Layer_1" xmlns="http://www.w3.org/2000/svg" xmlns:xlink="http://www.w3.org/1999/xlink" x="0px" y="0px"
	 viewBox="0 0 100 100" style="enable-background:new 0 0 100 100;" xml:space="preserve">
<g>
	<g transform="translate(0,0)">
		<path d="M0.7,0.8l28.5,34.3L6.7,28.3l35.4,23.4l-28.8-8.2l40.4,23.5l-27.4-0.4L85.5,93c2.9,1.5,5.9,2.9,9,4l0.5,0.2l4.4,2
			l-3.5-7.9c-0.8-1.9-1.6-3.8-2.5-5.7L66.9,26.7l0.2,27.2L43.8,13.7l8.1,28.6L28.6,7.1l6.6,22.3L0.7,0.8z M48,48
			c19.8,8.1,35.6,24.4,43.7,43.6C72.6,83.1,56.2,67.3,48,48L48,48z"/>
	</g>
</g>
</svg>
