<?xml version="1.0" encoding="utf-8"?>
<!-- Generator: Adobe Illustrator 27.9.0, SVG Export Plug-In . SVG Version: 6.00 Build 0)  -->
<svg version="1.1" id="Layer_1" xmlns="http://www.w3.org/2000/svg" xmlns:xlink="http://www.w3.org/1999/xlink" x="0px" y="0px"
	 viewBox="0 0 100 100" style="enable-background:new 0 0 100 100;" xml:space="preserve">
<g>
	<g transform="translate(0,0)">
		<path d="M55.4,0c-16.6,8.1,1.9,31.8-15.5,39.9c4.6-9,6.4-24.6-8.3-35.2v0c11.9,19.2-8.2,21,2.2,48.9c0.2,0.4,0.4,0.9,0.5,1.3
			c-0.2-0.4-0.4-0.9-0.5-1.3c-3.5-8.4-12.1-14.5-10-30.5C4.7,52,36.7,60.3,32.2,84.7C28,73.8,12.2,76.8,18.5,65
			c-17,13.4,14.2,20.8-5.3,35h72.6c-9.3-7.4-8.1-22.6-1.9-19.3c-3-8.9-11.3-2.2-11.8,4.7C69,64.2,90.1,62.8,87.7,38.3
			c-4,14.1-15.3,13.6-19.3,11.5c14.4-6.8,19.1-26,3.6-33.6c4.8,6,3.3,25.8-6.9,17.7C61.2,31,50.4,21.4,55.4,0L55.4,0z M20.9,1
			c-1.3,0-2.7,0.5-4.1,1.4c7.9,1.5,12,12.8,11,25.4C35,15.4,29,0.8,20.9,1z M66.3,10.3c1.8,9.9-3.6,15.6-8.1,6.4
			C62.9,33.9,78.2,36,66.3,10.3z M87.9,29.8c7.4,7.6,5.3,21.8-2.9,33.3C101.9,55.5,101.9,31.1,87.9,29.8L87.9,29.8z M9,46.2
			c4.1,11.4-18.7,11.7,1.2,32.8C2.1,64.8,24.2,64.6,9,46.2L9,46.2z"/>
	</g>
</g>
</svg>
