<?xml version="1.0" encoding="utf-8"?>
<!-- Generator: Adobe Illustrator 27.9.0, SVG Export Plug-In . SVG Version: 6.00 Build 0)  -->
<svg version="1.1" id="Layer_1" xmlns="http://www.w3.org/2000/svg" xmlns:xlink="http://www.w3.org/1999/xlink" x="0px" y="0px"
	 viewBox="0 0 100 100" style="enable-background:new 0 0 100 100;" xml:space="preserve">
<g transform="translate(0,0)">
	<path d="M28.5,0l3.1,27.1L22,21.8l7.8,15.3c3.9-5.7,10.4-9.4,17.8-9.4c12,0,21.6,9.7,21.6,21.6c0,6.4-2.8,12.2-7.3,16.2l14.2,6.2
		l-5.5-12.6l28.9-3.3l-26.5-9.4l17.1-11.2H70.6l22-34.9L65.3,22.8L64.7,7.5L50,25.2L46,7.5l-4.7,14.3L28.5,0L28.5,0z M0.4,26.1
		l10.2,11.4l15,5.4L14.8,30.7L0.4,26.1z M26,49.7l-10.4,5.8l9.2,1l-16,19.9l19-10.1L10.4,99.9l26.1-26.8l1.3,15l5.6-17.6
		C33.6,68.7,26.2,60.1,26,49.7L26,49.7z M58.7,68c-2.5,1.5-5.4,2.5-8.5,2.9l15.7,28.5L58.7,68L58.7,68z M47.5,74.7L47.5,74.7
		l-2.4,12.5l4,12.7l2.6-13.4L47.5,74.7L47.5,74.7z M75.1,77.6l7.2,10.1l11,2.6v0l-6.8-9.4L75.1,77.6L75.1,77.6z"/>
</g>
</svg>
