<?xml version="1.0" encoding="utf-8"?>
<!-- Generator: Adobe Illustrator 27.9.0, SVG Export Plug-In . SVG Version: 6.00 Build 0)  -->
<svg version="1.1" id="Layer_1" xmlns="http://www.w3.org/2000/svg" xmlns:xlink="http://www.w3.org/1999/xlink" x="0px" y="0px"
	 viewBox="0 0 100 100" style="enable-background:new 0 0 100 100;" xml:space="preserve">
<g>
	<g transform="translate(0,0)">
		<path d="M45.4,0C25.4,1.5,0.6,10.1,0.6,24.6c0,13.5,24.5,22.4,51.1,19.5c18.9-2.1,34.8-9.5,41.7-18.6
			c-9.2,17.1-29.9,22.1-48.7,24.2c23.4,1.1,54.6-6.9,54.6-25.9c0-13.4-24.5-22.4-51.1-19.5C29.4,6.5,13.7,13.9,6.7,23
			C10.6,12.7,25.8,3.4,45.4,0z M57.1,8.5c16.1-0.1,28.4,4.9,28.4,12.1c0,1-0.2,2-0.7,2.9c-6.6-4.2-18.3-7.6-31-8.1
			c-1.3-0.1-2.6-0.1-3.8-0.1c-0.4,0-0.9,0-1.3,0C38,15.6,27,18.1,18.5,24.7c1-7.6,15.6-14.7,33.5-16C53.7,8.6,55.4,8.5,57.1,8.5
			L57.1,8.5z M50,19.2c1.2,0,2.4,0,3.6,0.1c12,0.5,23.3,4,28.9,7.4c-1.4,1.4-3.2,2.8-5.4,4c-5.2-2.4-13.2-4-22-4c-0.7,0-1.4,0-2,0
			c-9.2,0.2-19,2.3-26.7,7.5c-3.3-1.4-5.7-3.2-7-5.3C27.5,22,38.8,19.3,50,19.2L50,19.2z M55.1,30.6c6.5,0,12.7,1.1,17.1,2.4
			c-5.6,2.2-12.7,3.9-20.3,4.4c-7.8,0.6-15.1-0.1-20.8-1.6c6.5-3.5,14.4-5.1,22-5.3C53.8,30.6,54.5,30.6,55.1,30.6L55.1,30.6z
			 M14,45.2c1.1,0.9,2.1,1.8,3.2,2.6c0,0,0.1,0.1,0.1,0.1l0.1,0c12.8,9.6,24.9,10.9,39.1,10.8c0,0,0,0,0,0v0h0
			C41.1,63,28.6,62.8,17.9,57c15.6,20.4,50.4,10.9,69.8-9.7c-9,4.8-22.9,7.5-38.6,6.6C35.3,53.2,22.9,49.9,14,45.2L14,45.2z
			 M64.5,66.9c-14.1,7-29.9,8.9-41.4,2.3c1,3.5,3.1,5.9,5.9,7.4c3.2,1.8,7.6,2.5,12.3,2c7.1-0.7,15-4.1,21-9.4
			C62.9,68.5,63.7,67.7,64.5,66.9L64.5,66.9z M51.5,80.2c-3.3,1.2-6.6,2-9.9,2.4c-4.8,0.5-9.4,0-13.3-1.8c3.1,3.1,6.7,5.3,10,6.2
			c3.3,1,6.2,0.8,8.6-0.5C48.8,85.3,50.4,83.4,51.5,80.2L51.5,80.2z M25.9,83.9c1.6,5.3,3.9,10.7,7.9,16.1h8
			c0.1-0.2,0.3-0.3,0.4-0.5c1.1-3,2.3-5.9,3.7-8.6c-2.8,0.8-5.8,0.6-8.8-0.3C33.3,89.5,29.4,87.2,25.9,83.9L25.9,83.9z"/>
	</g>
</g>
</svg>
