<?xml version="1.0" encoding="utf-8"?>
<!-- Generator: Adobe Illustrator 28.0.0, SVG Export Plug-In . SVG Version: 6.00 Build 0)  -->
<svg version="1.1" id="Layer_1" xmlns="http://www.w3.org/2000/svg" xmlns:xlink="http://www.w3.org/1999/xlink" x="0px" y="0px"
	 viewBox="0 0 100 100" style="enable-background:new 0 0 100 100;" xml:space="preserve">
<g>
	<path d="M21.3,3c0,4.1,1.7,16.8,21.6,19.8c0.8,0.1,1.6-0.6,1.5-1.4c0,0,0-0.1,0-0.1c-0.9-8.6-6.8-15.9-15.1-18.4
		c-2-0.6-4.2-1-6.6-1.1C21.9,1.7,21.3,2.3,21.3,3z"/>
	<path d="M78.7,3c0,4.1-1.7,16.8-21.6,19.8c-0.8,0.1-1.6-0.6-1.5-1.4c0,0,0-0.1,0-0.1c0.9-8.6,6.8-15.9,15.1-18.4
		c2-0.6,4.2-1,6.6-1.1C78.1,1.7,78.7,2.3,78.7,3z"/>
	<path d="M49.8,22.1L49.8,22.1c-0.5,0-1-0.4-1.1-0.9C48.2,17.9,46.6,6.2,52,0.3c0.4-0.5,1.2-0.4,1.5,0.2c0.4,0.7,0.8,1.9,0.8,3.5
		c0,0.9-0.2,1.7-0.6,2.5c-1,2.1-3.2,7.6-2.9,14.4C51,21.6,50.5,22.1,49.8,22.1z"/>
	<path d="M74.8,29c-2.3-1.5-5-2.4-7.8-2.8c-3.1-0.4-7.6-0.4-12.3,1.5c-3,1.2-6.4,1.2-9.4,0c-4.7-1.9-9.2-1.9-12.3-1.5
		c-2.8,0.4-5.4,1.3-7.8,2.8c-12.5,8.1-10.7,26.7-10.7,26.7C17,80.6,36.6,94,45.6,98.9c2.8,1.5,6.1,1.5,8.8,0
		c9-4.9,28.6-18.2,31-43.2C85.5,55.7,87.3,37.1,74.8,29z M25.8,59.9c-0.8,0-1.5-1.3-1.5-2.9c0-1.6,0.7-2.9,1.5-2.9s1.5,1.3,1.5,2.9
		C27.3,58.6,26.6,59.9,25.8,59.9z M37.1,74.5c-0.8,0-1.5-1.3-1.5-2.9c0-1.6,0.7-2.9,1.5-2.9c0.8,0,1.5,1.3,1.5,2.9
		C38.7,73.2,38,74.5,37.1,74.5z M37.1,43.1c-0.8,0-1.5-1.3-1.5-2.9c0-1.6,0.7-2.9,1.5-2.9c0.8,0,1.5,1.3,1.5,2.9
		C38.7,41.8,38,43.1,37.1,43.1z M50,87.5c-0.8,0-1.5-1.3-1.5-2.9s0.7-2.9,1.5-2.9s1.5,1.3,1.5,2.9S50.8,87.5,50,87.5z M50,59
		c-0.8,0-1.5-1.3-1.5-2.9c0-1.6,0.7-2.9,1.5-2.9s1.5,1.3,1.5,2.9C51.5,57.7,50.8,59,50,59z M62.9,74.5c-0.8,0-1.5-1.3-1.5-2.9
		c0-1.6,0.7-2.9,1.5-2.9c0.8,0,1.5,1.3,1.5,2.9C64.4,73.2,63.7,74.5,62.9,74.5z M62.9,43.1c-0.8,0-1.5-1.3-1.5-2.9
		c0-1.6,0.7-2.9,1.5-2.9c0.8,0,1.5,1.3,1.5,2.9C64.4,41.8,63.7,43.1,62.9,43.1z M74.2,59.9c-0.8,0-1.5-1.3-1.5-2.9
		c0-1.6,0.7-2.9,1.5-2.9s1.5,1.3,1.5,2.9C75.7,58.6,75.1,59.9,74.2,59.9z"/>
</g>
</svg>
