<?xml version="1.0" encoding="utf-8"?>
<!-- Generator: Adobe Illustrator 27.8.1, SVG Export Plug-In . SVG Version: 6.00 Build 0)  -->
<svg version="1.1" id="Layer_1" xmlns="http://www.w3.org/2000/svg" xmlns:xlink="http://www.w3.org/1999/xlink" x="0px" y="0px"
	 viewBox="0 0 100 100" style="enable-background:new 0 0 100 100;" xml:space="preserve">
<g>
	<g>
		<g>
			<g>
				<path d="M44.6,59.8c0.2-0.1,0.3-0.2,0.4-0.2s0.1-0.1,0.1,0c0.2,0.3,0.5,0.1,0.8,0.2c0.1,0,0.1-0.1,0.2-0.1
					c-0.1-0.1-0.1-0.1-0.1-0.2l-0.1-0.1c-0.1-0.2-0.2-0.4-0.3-0.5c-0.2-0.2-0.4-0.4-0.4-0.7c0,0,0-0.1-0.1-0.1
					c-0.2-0.1-0.3-0.3-0.4-0.5c0-0.1-0.1-0.1-0.1-0.2c-0.2-0.2-0.4-0.4-0.5-0.6c-0.1-0.1-0.2-0.2-0.2-0.3c0-0.4-0.5-0.4-0.5-0.8
					c-0.1,0-0.1,0-0.2,0c0,0.1,0.1,0.3,0.1,0.4s0.1,0.2,0.1,0.2c0,0.1,0,0.2,0.1,0.2c0.1,0.2,0.3,0.4,0.4,0.7c0.1,0.2,0,0.4,0.2,0.6
					c0.1,0.1,0.1,0.4,0.2,0.7C44.4,59,44.5,59.4,44.6,59.8 M51,59.6c-0.2-0.1-0.4,0-0.5-0.2c0-0.1-0.2-0.2-0.3-0.2
					c-0.3-0.2-0.5-0.4-0.8-0.5c-0.1-0.1-0.2-0.2-0.3-0.3c-0.1-0.1-0.2-0.3-0.3-0.4c-0.3-0.3-0.7-0.3-0.9-0.7
					c-0.1-0.1-0.3-0.2-0.4-0.3c-0.1-0.1-0.2-0.1-0.2-0.2c-0.1,0-0.1,0-0.2,0c0,0.1,0,0.2,0,0.2c0.1,0.2,0.3,0.4,0.4,0.6
					c0.1,0.1,0.2,0.2,0.2,0.3c0.1,0.3,0.3,0.5,0.4,0.7c0.1,0.1,0.2,0.2,0.3,0.3c0.2,0.3,0.4,0.6,0.5,0.9c0.1,0.1,0.2,0.2,0.3,0.4
					c0.1,0.1,0.3,0.2,0.3,0.4c0.1,0.3,0.3,0.5,0.6,0.6h0.1c0.1,0.2,0.3,0.2,0.5,0.2c0.4,0.1,0.8-0.1,1.1,0.2c0.1,0.1,0.2,0,0.2,0
					c0.1,0,0.1-0.1,0.1-0.1v-0.1c-0.4-0.2-0.4-0.6-0.6-0.8c-0.1-0.1-0.2-0.1-0.2-0.2C51.2,60,51.1,59.8,51,59.6 M52.3,2.1
					c0,0.2,0.1,0.2,0.3,0.2c0.4,0,0.8,0,1.1,0c0.1,0,0.3,0.1,0.4,0.1c0.2,0,0.4,0.1,0.6,0.1c0.1,0,0.3,0.1,0.4,0.2
					c0.1,0,0.2,0.1,0.3,0.1c0.2,0,0.4-0.1,0.5,0.2h0.1c0.3,0,0.6,0.2,0.8,0.4c0,0,0.1,0,0.1,0.1c0.2,0,0.3,0.3,0.5,0.4
					c0.2,0.1,0.2,0.4,0.4,0.5c0.1,0,0.1,0.1,0.1,0.2c0,0.2,0,0.3,0,0.5c0.5,0,0.9,0,1.2,0c0.2,0,0.5,0,0.6,0.2h0.1
					c0.4-0.1,0.7,0.1,1,0.3c0.3,0.2,0.6,0.3,0.8,0.6c0.1,0.2,0.4,0.3,0.6,0.5c0.1,0.1,0.2,0.2,0.3,0.3c0.1,0.3,0.1,0.5,0.3,0.8
					c0.1,0.2,0.3,0.4,0.4,0.6l0,0c0.1,0.2,0.2,0.5,0.3,0.7c0.1,0.2,0.2,0.4,0.4,0.7c0,0,0.1,0,0.1,0.1c0.1,0.2,0.2,0.5,0.3,0.7
					c0,0.1,0.1,0.1,0.1,0.2l0.1,0.1c-0.1,0.2,0,0.6,0.1,0.8c0.2,0.2,0.1,0.6,0.4,0.7l0,0c0.1,0.3,0.2,0.6,0.3,0.9
					c0.1,0.3,0.3,0.6,0.4,0.9c0,0.1,0,0.2,0.1,0.2c0,0.2-0.1,0.4,0.2,0.5c0,0,0,0,0,0.1c0.1,0.4,0.2,0.7,0.2,1.1
					c0.1,0.4,0.1,0.7,0.2,1.1c0.1,0.4,0.2,0.9-0.1,1.3c-0.1,0.2-0.1,0.5-0.1,0.7c0,0.1-0.1,0.3-0.2,0.4c0,0,0,0,0,0.1
					c-0.1,0.3-0.2,0.5-0.3,0.8c0,0.1-0.1,0.2-0.1,0.2c0.1,0.2,0.1,0.4,0.1,0.6c0,0.3,0.2,0.7-0.2,1c0,0,0,0.1,0,0.2
					c0,0.3-0.2,0.5-0.4,0.7c-0.2,0.2-0.3,0.4-0.5,0.6c-0.3,0.2-0.5,0.5-0.8,0.6c-0.2,0.1-0.4,0.2-0.7,0.4h-0.1
					c-0.6,0-1.1,0.4-1.7,0.2c-0.3-0.1-0.8-0.1-1-0.3c-0.2-0.2-0.5-0.1-0.7-0.4c-0.1-0.1-0.4-0.1-0.5-0.3c-0.3-0.3-0.6-0.5-0.8-0.8
					c-0.1-0.1-0.2-0.2-0.4-0.4c-0.1-0.1-0.2-0.2-0.2-0.3c-0.1-0.2-0.2-0.5-0.3-0.7c0-0.1-0.1-0.1-0.1-0.2c0,0-0.1,0-0.1-0.1
					c-0.1-0.3-0.2-0.5-0.3-0.8c-0.1-0.3-0.3-0.5-0.4-0.8l-0.1-0.1c0-0.3-0.2-0.5-0.4-0.7c-0.2-0.2-0.3-0.4-0.5-0.6c0,0,0,0-0.1,0
					c-0.5-0.1-1-0.4-1.4-0.2c-0.4,0.2-0.7,0.1-1.1,0.2c-0.1,0-0.1,0.1-0.2,0.1L52.5,18c-0.3-0.1-0.5,0.2-0.7,0.3
					c-0.2,0.1-0.4,0.2-0.6,0.4c-0.3,0.2-0.5,0.4-0.8,0.6c-0.1,0.1-0.3,0.2-0.4,0.3c-0.1,0.1-0.2,0.2-0.3,0.3c0,0-0.1,0-0.2,0
					c0-0.1,0-0.1,0.1-0.2c0,0,0.1,0,0.1-0.1c0-0.3,0.2-0.5,0.4-0.7c0.1-0.1,0.2-0.3,0.3-0.5c0.1-0.1,0.2-0.3,0.4-0.4
					c0.1,0,0.2-0.2,0.2-0.2c0.3-0.2,0.5-0.4,0.8-0.7l0,0c0.3-0.1,0.5-0.2,0.8-0.3c0.1,0,0.2-0.1,0.3-0.2c0.1,0,0.2-0.1,0.2-0.1
					c0.5,0,1.1,0,1.5,0c0.1,0,0.2,0,0.3,0l0.1-0.1v-0.1c-0.2,0-0.4-0.1-0.5-0.3c-0.1-0.1-0.2-0.1-0.3-0.2c-0.2-0.3-0.6-0.3-0.8-0.7
					c-0.1-0.2-0.4-0.3-0.6-0.5c-0.1-0.1-0.2-0.2-0.2-0.3c-0.1-0.2-0.2-0.3-0.3-0.5c-0.1-0.1-0.2-0.2-0.2-0.3
					c-0.1-0.2-0.3-0.4-0.4-0.6c0,0,0-0.1-0.1-0.1c0-0.1,0-0.3-0.2-0.3c0,0,0-0.1-0.1-0.2c0-0.1,0-0.3,0-0.5
					c-0.2,0.1-0.3,0.2-0.4,0.3c-0.1,0.1-0.2,0.3-0.4,0.4c-0.2,0.1-0.4,0.2-0.6,0.3c-0.2,0.1-0.5,0.3-0.7,0.4
					c-0.1,0.1-0.2,0.1-0.3,0.1c-0.2,0-0.5,0-0.7,0.2c-0.1,0.1-0.2,0-0.3,0c-0.5,0-0.9,0-1.3,0c-0.3,0-0.5,0-0.7-0.2
					c-0.2-0.1-0.4,0-0.7-0.1c-0.2,0-0.3-0.1-0.4-0.2c0,0,0,0-0.1,0c-0.4-0.1-0.8-0.1-1.1-0.3c-0.2-0.1-0.4,0-0.7-0.2
					c-0.2-0.1-0.5,0-0.8,0c0,0-0.1,0-0.1,0.1c-0.1,0.2-0.2,0.4-0.2,0.6c-0.1,0.2-0.2,0.4-0.3,0.7c0,0.1-0.1,0.1-0.2,0.2
					c-0.3,0.2-0.3,0.6-0.7,0.8c-0.1,0.1-0.2,0.2-0.3,0.4c-0.1,0.1-0.2,0.2-0.2,0.3c-0.3,0.1-0.4,0.5-0.8,0.6c-0.1,0-0.2,0.2-0.4,0.3
					l-0.1,0.1c-0.3,0-0.5,0.2-0.7,0.4c0,0-0.1,0-0.2,0.1c-0.1,0-0.2,0.1-0.3,0.2l0,0c-0.3,0.1-0.5,0.2-0.8,0.3
					c-0.3,0.2-0.6,0.1-0.8,0.4c0,0,0,0-0.1,0c-0.4,0.1-0.8,0.2-1.1,0.3c-0.2,0-0.3,0.1-0.4,0.2h-0.1c-0.3,0-0.7,0.1-1,0.2
					c-0.7,0.2-1.3,0.2-2,0.3c0,0,0,0-0.1,0c0.1,0.1,0.1,0.2,0.2,0.3c0.4,0.7,0.3,1.5,0.3,2.2c0,0.2-0.2,0.4-0.4,0.6l-0.1,0.1
					c0,0.3-0.2,0.4-0.4,0.6c-0.1,0.1-0.2,0.2-0.3,0.3c-0.3,0.3-0.5,0.5-0.8,0.8c-0.1,0.1-0.2,0.2-0.3,0.2c-0.3,0.1-0.4,0.3-0.6,0.5
					c-0.1,0.1-0.3,0.2-0.5,0.3c-0.2,0.2-0.4,0.2-0.6,0.4c-0.2,0.1-0.4,0.2-0.6,0.4c-0.1,0.1-0.3,0.1-0.3,0.2
					c-0.1,0.3-0.4,0.1-0.6,0.4c-0.1,0.1-0.3,0.2-0.5,0.3c-0.1,0.1-0.3,0.2-0.4,0.3c0,0,0,0.2,0.1,0.3c0,0,0,0.1,0.1,0.1
					c0.2,0.1,0.4,0.2,0.6,0.3c0.1,0.1,0.3,0.2,0.4,0.3c0.2,0.2,0.5,0.5,0.7,0.7c0.1,0.1,0.2,0.3,0.3,0.5c0.4,0.7,0.2,1.4,0.2,2.1
					c0,0.1-0.1,0.2-0.1,0.3l-0.1,0.1c0,0.3-0.3,0.5-0.4,0.7c-0.1,0.2-0.2,0.4-0.3,0.5c-0.1,0.1-0.2,0.2-0.2,0.3
					c-0.3,0.4-0.6,0.8-1,1c-0.2,0.1-0.4,0.4-0.6,0.6c-0.3,0.3-0.7,0.5-1,0.8L25.1,35l0.1,0.1c0.3,0.2,0.7,0.3,0.8,0.6
					c0,0,0.1,0,0.1,0.1c0.2,0.1,0.4,0.2,0.5,0.4c0.2,0.2,0.4,0.4,0.6,0.5c0.1,0.1,0.2,0.2,0.3,0.4c0.1,0.2,0.3,0.3,0.4,0.5
					c0.2,0.3,0.5,0.5,0.6,0.9c0,0.1,0.1,0.2,0.2,0.3c0.1,0.2,0.3,0.4,0.4,0.6c0,0.1,0,0.1,0.1,0.2c0,0.1,0,0.3,0.2,0.3l0,0
					c0.1,0.3,0.1,0.5,0.3,0.7c0.2,0.2,0.1,0.5,0.4,0.7c0,0,0,0.1,0.1,0.1c0,0.2,0,0.4,0.2,0.5c0,0,0,0.1,0,0.2
					c0,0.1,0.1,0.2,0.1,0.2s0.1,0,0.1,0.1c0,0.3,0.1,0.5,0.2,0.8c0.1,0.2,0.2,0.4,0.4,0.6c0.3,0.2,0.5,0.5,0.8,0.8
					c0.1,0.1,0.2,0.2,0.4,0.3c0.1,0.1,0.1,0.1,0.1,0.2c0.2,0.3,0.4,0.6,0.5,0.9c0.1,0.2,0.2,0.3,0.2,0.5c0,0.1,0.1,0.1,0.2,0.1
					c0,0.1,0,0.2,0,0.3s0.1,0.1,0.2,0.1c0,0.2,0,0.5,0.1,0.7c0.1,0.2,0.2,0.3,0.2,0.5c0,0.3,0.3,0.5,0.7,0.5c0-0.1,0-0.2,0-0.2
					C34,47.8,34,47.7,34,47.5c0,0,0-0.1-0.1-0.1c-0.2-0.2-0.3-0.4-0.4-0.7c-0.1-0.2-0.1-0.3-0.3-0.3c0.1-0.4,0-0.5-0.2-0.4
					c0-0.3,0-0.5-0.1-0.8c-0.1-0.3-0.2-0.7,0.1-1.1c0.1-0.2,0.2-0.4,0.3-0.7c0.1-0.2,0.2-0.2,0.3-0.2c0.5,0,1,0,1.5,0
					c0.1,0,0.2,0.1,0.2,0.1s0,0.1,0.1,0.1c0.2,0,0.4,0,0.5,0.2c0.1,0.1,0.4,0.2,0.5,0.3c0.1,0.1,0.2,0.3,0.3,0.5
					c0,0.1,0.1,0.1,0.1,0.2l0.1,0.1c0,0.2,0.1,0.3,0.2,0.4c0.2,0.2,0.2,0.4,0.3,0.7c0.1,0.2,0.3,0.4,0.4,0.7
					c0.1,0.2,0.3,0.3,0.3,0.6c0,0.2,0.2,0.4,0.4,0.6l0.1,0.1c0,0.3,0.2,0.4,0.4,0.7c0.1,0.2,0.2,0.5,0.4,0.7
					c0.1,0.2,0.3,0.4,0.4,0.7c0.5-0.2,0.7,0,0.7,0.1c0,0.3,0.2,0.5,0.3,0.8c0.1,0.1,0.1,0.3,0.2,0.3c0.3,0.1,0.1,0.5,0.4,0.6v0.1
					c0,0.1,0,0.3,0.2,0.3c0,0,0.1,0.1,0.1,0.2c0,0.3,0.2,0.3,0.4,0.3c0.3,0,0.6,0,0.9,0c0.4,0,0.8,0.1,1.1,0.4c0,0,0,0,0.1,0
					c0.2,0.1,0.6,0.1,0.7,0.3c0.2,0.2,0.5,0.1,0.6,0.4l0,0c0.2,0,0.4,0.1,0.5,0.2c0.1,0.1,0.2,0,0.4,0.2c0.2,0.2,0.4,0.2,0.6,0.3
					c0.1,0.1,0.2,0.1,0.3,0.2l0,0c0.2,0.1,0.5,0.2,0.7,0.3c0.2,0.1,0.4,0.2,0.7,0.3c0.1,0.1,0.2,0.1,0.4,0.2
					c0.3,0.1,0.5,0.2,0.8,0.4c0,0,0,0.1,0.1,0.1c0.3,0,0.5,0.3,0.8,0.4c0.2,0.1,0.5,0.2,0.7,0.3c0.2,0.1,0.4,0.3,0.6,0.4l0.1,0.1
					c0.3,0,0.4,0.2,0.6,0.4l0.1,0.1c0.3,0.1,0.4,0.2,0.6,0.4c0.1,0.1,0.3,0.2,0.5,0.3c0.1,0.1,0.2,0.1,0.3,0.2
					c0.2,0.1,0.3,0.3,0.5,0.4c0.2,0.1,0.3,0.2,0.5,0.3c0.3,0.2,0.6,0.3,0.9,0.4h0.1c0.3,0.1,0.5,0.2,0.8,0.3
					c0.1,0.1,0.2,0.2,0.3,0.2c0.2,0.1,0.4,0.3,0.5,0.4c0.1,0.1,0.3,0.3,0.4,0.4c0.1,0.1,0.2,0.3,0.3,0.3c0.3,0,0.4,0.2,0.6,0.3
					c0.3,0.3,0.7,0.4,1.1,0.5c0.2,0.1,0.4,0.3,0.6,0.4c0.1,0.1,0.2,0.2,0.3,0.2c0.2,0.1,0.4,0.2,0.5,0.3c0.2,0.3,0.6,0.3,0.8,0.6
					c0.1,0.2,0.3,0.3,0.5,0.5c0,0,0.1-0.1,0.2-0.1c-0.1-0.1-0.1-0.2-0.2-0.3c0,0-0.1,0-0.1-0.1c-0.1-0.2-0.2-0.4-0.3-0.7
					c-0.1-0.1-0.1-0.2-0.2-0.3c-0.1-0.2-0.3-0.4-0.4-0.6v-0.1c-0.1-0.3-0.2-0.6-0.3-0.9c-0.1-0.2-0.2-0.5-0.4-0.7
					c0-0.1-0.1-0.2-0.1-0.2c0-0.2,0-0.3-0.2-0.4c0,0,0-0.1,0-0.2c-0.1-0.1-0.1-0.2-0.2-0.3l0,0c-0.1-0.3-0.2-0.5-0.3-0.8
					c-0.1-0.1-0.1-0.3-0.2-0.4c-0.1-0.2-0.1-0.9,0.1-1.1c0.1-0.1,0.1-0.1,0.1-0.2c0-0.2,0.2-0.4,0.4-0.5c0.1-0.1,0.2-0.2,0.3-0.4
					l0.1-0.1c0.3-0.1,0.5-0.2,0.9-0.3c0-0.1,0-0.2,0-0.2c0-0.2,0.1-0.3,0.3-0.4c0.2-0.1,0.4-0.3,0.6-0.4l0,0c0.3,0,0.5-0.1,0.8-0.2
					c0.3-0.2,0.8-0.2,1.1-0.4c0.1-0.1,0.3-0.1,0.4-0.1c0.2,0,0.3,0.1,0.4-0.2c0,0,0.1-0.1,0.2-0.1c0.2,0,0.5,0,0.7,0
					s0.3-0.1,0.4-0.2c0.1,0,0.1,0,0.2,0c0.9,0,1.8,0,2.7,0h0.1c0.3,0.3,0.6,0.1,0.9,0.2c0.4,0.1,0.7,0.3,1.1,0.4
					c0.2,0.1,0.4,0.2,0.7,0.3c0.1,0.1,0.6,0.3,0.7,0.4c0,0,0.1,0,0.2,0.1c0.1,0,0.3,0,0.3,0.2l0.1,0.1c0.1,0,0.3,0,0.4,0
					c0.4-0.1,0.6,0.2,1,0.3c0.1,0,0.2,0.2,0.3,0.3c0.1,0.1,0.2,0.2,0.3,0.3c0,0,0.1,0,0.2,0c0.1,0,0.2-0.1,0.4-0.1
					c0.4,0,0.9,0,1.2,0c0.1,0,0.3-0.1,0.4-0.1s0.2-0.1,0.3-0.1c0.4,0,0.8,0,1.1-0.1c0.2,0,0.5-0.1,0.7-0.1s0.4-0.1,0.5,0
					c0.4,0.2,0.8,0.1,1.1,0.2c0.3,0,0.6,0,0.8,0s0.4,0,0.5,0.2c0,0.1,0.2,0,0.3,0.1c0.2,0,0.4,0,0.6,0.2c0.1,0.1,0.3,0.1,0.5,0.1
					c0.1,0,0.3,0,0.3,0.2l0,0c0.3,0.1,0.5,0,0.8,0.2c0.3,0.2,0.7,0.2,1.1,0.5c0.2,0.1,0.5,0.2,0.7,0.3c0.2,0.1,0.4,0.3,0.7,0.4
					c0.2,0.1,0.3,0.2,0.5,0.3s0.4,0.3,0.7,0.4c0.2,0.1,0.4,0.2,0.6,0.3c0.1,0.1,0.3,0.1,0.3,0.2c0.2,0.3,0.5,0.3,0.7,0.5
					c0.2,0.2,0.4,0.4,0.6,0.5l0.1,0.1c0.3,0.1,0.6,0.2,0.8,0.3c0.2,0.2,0.5,0.2,0.7,0.4c0,0,0.1,0,0.1,0.1c0.2,0.1,0.5,0.2,0.7,0.3
					c0.2,0.1,0.4,0.3,0.6,0.4c0.2,0.1,0.4,0.2,0.5,0.3c0.2,0.2,0.5,0.2,0.7,0.4c0,0,0,0,0.1,0c0.2,0.1,0.5,0.2,0.7,0.3
					s0.4,0.3,0.6,0.4c0.1,0.1,0.2,0.1,0.3,0.2c0.2,0.1,0.5,0.2,0.7,0.3s0.3,0.2,0.4,0.3c0.1,0,0.1,0.1,0.2,0.1
					c0.3,0,0.3,0.3,0.6,0.3c0.1,0,0.1,0.1,0.2,0.1c0.2,0.1,0.4,0.3,0.6,0.4l0.1,0.1c0.3,0,0.4,0.2,0.6,0.4l0.1,0.1
					c0.3,0,0.4,0.2,0.6,0.4c0.1,0.1,0.2,0.2,0.3,0.2c0.2,0.2,0.4,0.3,0.6,0.5c0.1,0.1,0,0.2,0.1,0.4c-0.3,0-0.5,0-0.8,0
					c-0.1,0-0.1-0.1-0.2-0.1c0,0,0-0.1-0.1-0.1c-0.2-0.1-0.5-0.2-0.7-0.3c-0.2-0.1-0.4-0.3-0.6-0.4c-0.2-0.1-0.4-0.2-0.6-0.3
					c-0.2-0.1-0.4-0.2-0.6-0.3c-0.1-0.1-0.2-0.1-0.3-0.2c-0.2-0.2-0.5-0.2-0.7-0.4c-0.1-0.2-0.4-0.2-0.5-0.3
					c-0.2-0.2-0.5-0.1-0.7-0.4c0,0-0.1,0-0.2-0.1c-0.1,0-0.2-0.1-0.2-0.2c0,0,0-0.1-0.1-0.1c-0.2-0.1-0.5-0.2-0.7-0.3
					c-0.2-0.1-0.4-0.3-0.7-0.4L92.6,62c-0.3-0.1-0.6-0.1-0.7-0.3c-0.2-0.2-0.5-0.1-0.7-0.4c0,0-0.1,0-0.2-0.1
					c-0.2-0.1-0.3-0.1-0.4-0.2c-0.1,0-0.2,0-0.2-0.1c-0.2,0-0.4,0.1-0.5-0.2c0,0-0.2,0-0.3,0c-0.2-0.1-0.5,0.1-0.7-0.2h-0.1
					c-0.6,0-1.2,0-1.8,0c-0.1,0-0.2,0-0.2,0.1c0,0.1,0,0.1,0,0.1c0.4,0.1,0.8,0.1,1.1,0.3c0.3,0.2,0.7,0.1,1,0.4
					c0,0.1,0.2,0,0.2,0.1c0.1,0.1,0.3,0.1,0.4,0.2c0,0,0,0,0.1,0c0.3,0.1,0.5,0.2,0.8,0.3c0.1,0,0.1,0.1,0.1,0.1
					c0.1,0,0.1,0.1,0.2,0.1s0.3,0,0.3,0.2H91c0.3,0,0.5,0.2,0.6,0.4c0,0,0.1,0,0.2,0.1c0.2,0.1,0.3,0.3,0.5,0.4s0.3,0.3,0.5,0.3
					s0.3,0.2,0.4,0.3c0,0,0,0.1,0.1,0.1c0.2,0.1,0.4,0.2,0.7,0.3c0.2,0.1,0.3,0.2,0.4,0.3l0.1,0.1c0.3,0,0.5,0.2,0.7,0.4h0.1
					c0.2,0.1,0.5,0.2,0.7,0.3c0.1,0.1,0.2,0.1,0.3,0.2c0.2,0.1,0.4,0.3,0.6,0.4c0.2,0.1,0.4,0.2,0.5,0.3c0.2,0.1,0.4,0.3,0.6,0.4
					h0.1c0.3,0,0.4,0.2,0.6,0.4c0.1,0.1,0.3,0.2,0.4,0.3c0.1,0.1,0.1,0.3,0.1,0.4c-0.2,0-0.4,0.1-0.5-0.1h-0.1
					c-0.4,0.1-0.6-0.2-0.9-0.3c-0.2-0.1-0.4-0.3-0.6-0.4c-0.1-0.1-0.2-0.2-0.4-0.3c-0.3-0.1-0.5-0.2-0.6-0.4c0,0-0.1,0-0.2-0.1
					c-0.1,0-0.2-0.1-0.2-0.1s0-0.1-0.1-0.1c-0.2-0.1-0.4-0.2-0.7-0.3c-0.1,0-0.2-0.1-0.2-0.2c0,0,0-0.1-0.1-0.1
					c-0.2,0-0.3-0.1-0.5-0.2c-0.2-0.2-0.5-0.2-0.7-0.3c-0.2-0.1-0.3-0.2-0.4-0.2c-0.2,0-0.3,0-0.4-0.2l0,0c-0.3-0.1-0.5-0.1-0.8-0.3
					c-0.3-0.2-0.7-0.1-0.9-0.4h-0.1c-0.3-0.1-0.6-0.2-0.9-0.3c0,0-0.1,0-0.1-0.1c-0.1-0.2-0.2-0.2-0.4-0.2c-0.1,0-0.3,0.1-0.4-0.2
					H89c-0.3,0-0.5-0.1-0.8-0.2c-0.2-0.1-0.5-0.1-0.8-0.2c-0.4-0.2-0.9-0.2-1.2-0.3c-0.2,0-0.3,0-0.5-0.2c-0.1-0.1-0.2,0-0.3-0.1
					c-0.3-0.1-0.7,0.1-0.9-0.2c0,0-0.1,0-0.2,0c-0.7,0-1.2,0-1.9,0c-0.1,0-0.2,0.1-0.3,0.1S82,62,82,62c-0.9,0-1.8,0-2.7,0
					c-0.1,0-0.2-0.1-0.2-0.1c-0.1,0-0.2-0.1-0.3-0.1c-0.2-0.1-0.5,0.1-0.6-0.2c0,0-0.1,0-0.2,0c-0.1,0-0.2-0.1-0.3-0.1
					c0,0,0-0.1-0.1-0.1c-0.3,0.1-0.4-0.3-0.7-0.3c-0.1,0-0.3-0.2-0.4-0.3c-0.1-0.1-0.3-0.2-0.4-0.3s-0.2-0.2-0.3-0.3
					c-0.2-0.3-0.5-0.4-0.5-0.8c0-0.1-0.2-0.2-0.3-0.3S75,59.1,74.9,59c-0.1-0.2-0.4-0.2-0.6-0.3c-0.1,0-0.2-0.1-0.3-0.2
					c-0.1,0-0.1-0.1-0.1-0.1c-0.1-0.1-0.3,0-0.4-0.2c0,0-0.2,0-0.4,0c-0.1,0-0.2,0.1-0.3,0.1c-0.7,0-1.2,0-1.9,0
					c-0.2,0-0.4,0-0.6-0.2C70.3,58,70.2,58,70.1,58c-0.9,0-1.7,0-2.6,0c-0.1,0-0.1,0-0.1,0c-0.6,0.4-1.1,0.2-1.7,0.2
					c-0.4,0-0.4,0-0.4,0.4c0,0.2,0,0.5,0.2,0.7c0.1,0.2,0.1,0.4,0.1,0.7c0,0.1-0.1,0.3,0.2,0.4c0.1,0,0.1,0.2,0.1,0.2
					c0.1,0.3,0,0.5,0.2,0.8c0.1,0.1,0,0.3,0.1,0.5c0,0.1,0.1,0.2,0.2,0.4c0,0.1,0,0.1,0.1,0.2c0,0.2,0,0.4,0.2,0.6
					c0.1,0.1,0,0.4,0.1,0.5c0,0.1,0.1,0.2,0.1,0.3c0.1,0.1,0,0.5,0,0.7c-0.1,0.2-0.1,0.5-0.1,0.7c0,0.1,0.2,0.1,0.4,0.2
					c0.2,0.1,0.5,0.2,0.7,0.4c0.2,0.1,0.3,0.2,0.4,0.3c0.1,0.1,0.3,0.3,0.3,0.4c0,0.3,0.1,0.5,0.3,0.7c0,0,0,0.1,0.1,0.1
					c0.3-0.1,0.5,0.2,0.8,0.3c0.2,0,0.4,0.2,0.6,0.4l0,0c0.2,0.1,0.5,0.2,0.7,0.3c0.2,0.1,0.4,0.2,0.5,0.4c0.2,0.2,0.4,0.3,0.6,0.5
					c0.2,0.1,0.2,0.4,0,0.5c-0.3,0.3-0.6,0.3-0.9,0c0,0,0,0-0.1,0c-0.3-0.1-0.6-0.1-0.7-0.3c-0.3-0.3-0.7-0.2-0.8-0.6
					c0,0-0.1,0-0.2-0.1c-0.1,0-0.2-0.1-0.2-0.2c-0.1-0.1-0.2-0.1-0.3,0c-0.1,0.2-0.2,0.4-0.2,0.7c0,0.3-0.2,0.4-0.3,0.7
					c-0.1,0.2-0.3,0.5-0.6,0.6c-0.2,0.1-0.4,0.3-0.6,0.3c-0.1,0-0.2,0.1-0.3,0.2c-0.1,0-0.1,0-0.2,0.1c-0.2,0-0.5,0-0.6,0.2
					c-0.5,0-0.8,0.4-1.2,0.3c-0.3-0.1-0.5,0-0.8,0c-0.2,0-0.4,0.1-0.4-0.2c0,0-0.1,0-0.2,0c-0.3,0-0.5-0.2-0.8-0.4
					c-0.1-0.1-0.4-0.2-0.5-0.3s-0.2-0.2-0.3-0.3s-0.2-0.3-0.3-0.4c-0.1-0.1-0.3,0-0.3,0c-0.1,0.1-0.2,0.2-0.3,0.3
					c-0.2,0.2-0.2,0.5,0,0.7c0,0,0.1,0,0.1,0.1c0.1,0.2,0.1,0.5,0.3,0.7c0.2,0.2,0.1,0.6,0.4,0.7c0.1,0,0,0.2,0.1,0.3
					c0,0.2,0,0.3,0.2,0.4c0,0,0,0,0,0.1c0.1,0.3,0.1,0.6,0.3,0.7c0.2,0.2,0.1,0.5,0.4,0.6v0.1c0.1,0.1,0.1,0.2,0.2,0.3
					c0,0.1,0.1,0.1,0.1,0.2c0,0.5,0,1.1,0,1.5c0,0.3-0.2,0.5-0.4,0.8c-0.1,0.1-0.2,0.3-0.3,0.4c-0.1,0.2-0.2,0.3-0.3,0.5
					c-0.1,0.2-0.3,0.3-0.4,0.4l0,0c-0.2,0.1-0.5,0.2-0.7,0.3c-0.1,0-0.1,0-0.2,0.1c-0.3,0.3-0.7,0.2-1,0.2c-0.1,0-0.2-0.1-0.3-0.1
					l-0.1-0.1c-0.3,0-0.7-0.1-1-0.2c-0.1-0.1-0.4,0-0.4-0.2c0,0-0.1,0-0.2,0c-0.2-0.1-0.4,0.1-0.5-0.2h-0.2c-0.2,0-0.3,0-0.4-0.2H57
					c-0.2,0-0.4-0.1-0.7-0.2c-0.3-0.2-0.8-0.2-1.1-0.3c-0.2,0-0.3,0-0.5-0.2c-0.1-0.1-0.3,0-0.5-0.1c-0.2,0-0.3,0.1-0.4-0.2
					c0-0.1-0.3,0-0.4-0.1c0,0.1,0,0.1,0,0.1c0.1,0.2,0.2,0.4,0.3,0.5c0.1,0.2,0.3,0.4,0.4,0.6c0.1,0.1,0.2,0.3,0.3,0.4
					c0.1,0.1,0.2,0.2,0.4,0.4v0.1c0,0.3,0.2,0.3,0.4,0.5c0.1,0.1,0.2,0.2,0.3,0.3c0.1,0.4,0.5,0.5,0.7,0.8c0.1,0.1,0.2,0.3,0.3,0.5
					c0.2,0.3,0.2,0.7,0.3,1c0,0.2,0.2,0.3,0.3,0.4c0.1,0.1,0.2,0.3,0.3,0.4c0.1,0.1,0.1,0.2,0.1,0.2c0.1,0.1,0.1,0.3,0.1,0.4
					c0.1,0.1,0.2,0.2,0.3,0.2c0.1,0.1,0.3,0.1,0.4,0.1s0.1-0.1,0.2-0.2c0.2-0.2,0.1-0.6,0.4-0.7v-0.1c0-0.3,0.2-0.4,0.4-0.6
					c0,0,0-0.1,0.1-0.1c0.1-0.2,0.3-0.4,0.4-0.5c0.1-0.1,0.2-0.2,0.3-0.3c0.3-0.3,0.5-0.6,0.8-0.9c0.2-0.2,0.5-0.3,0.6-0.5
					c0.2-0.3,0.6-0.3,0.9-0.6c0.2-0.2,0.5-0.2,0.7-0.3c0.1-0.1,0.2-0.1,0.3-0.2h0.1c0.5-0.1,0.9-0.2,1.3-0.2c1.5,0,3.2,0,4.7,0
					c0.2,0,0.3,0.1,0.4-0.2c0,0,0.1,0,0.2,0c0.4,0,0.8,0,1.1,0c0.2,0,0.4,0.1,0.5-0.2c0,0,0.1,0,0.2,0c0.3,0,0.5,0.1,0.8-0.1
					c0.4-0.2,0.8-0.1,1.1-0.3c0.3-0.1,0.6-0.1,0.9-0.2c0.3-0.2,0.7-0.1,0.9-0.3c0.3-0.2,0.6-0.1,0.8-0.3c0.1-0.1,0.4,0,0.5-0.1
					c0.1,0,0.2-0.1,0.3-0.1s0.2-0.1,0.3-0.1c0.2,0,0.5,0.1,0.7-0.2l0,0c0.3,0,0.6-0.1,0.9-0.2c0.2-0.1,0.4,0,0.5-0.2
					c0,0,0.1,0,0.2,0c0.2,0,0.4,0,0.5-0.2c0-0.1,0.2,0,0.3-0.1c0.2,0,0.3,0.1,0.4-0.2c0,0,0.1,0,0.2,0c0.1,0,0.3,0,0.3-0.2
					c0,0,0,0,0.1-0.1c0.3-0.1,0.6-0.2,0.8-0.3c0.3-0.1,0.5-0.3,0.7-0.4c0,0,0,0,0.1,0c0.2-0.1,0.5-0.2,0.7-0.3
					c0.1-0.1,0.2-0.1,0.3-0.2c0.2-0.1,0.4-0.3,0.6-0.4l0,0c0.3,0.1,0.4-0.2,0.6-0.3c0.1-0.1,0.3-0.1,0.4-0.2
					c0.1-0.2,0.5-0.1,0.6-0.4h0.1c0.2,0,0.5,0,0.6-0.2c0.4,0,0.6-0.4,1-0.2h0.1v0.4c-0.2,0.1-0.3,0.3-0.4,0.4
					c-0.2,0.2-0.5,0.4-0.7,0.7c-0.2,0.2-0.4,0.4-0.7,0.5c-0.1,0-0.2,0.2-0.3,0.3c-0.1,0.1-0.2,0.2-0.3,0.3c-0.2,0.1-0.3,0.2-0.5,0.3
					c-0.1,0.1-0.3,0.2-0.4,0.3c-0.1,0.1-0.3,0.2-0.4,0.3s-0.2,0.3-0.4,0.4c-0.2,0.2-0.4,0.4-0.6,0.5c-0.3,0.2-0.5,0.4-0.8,0.7
					c-0.2,0.2-0.4,0.4-0.7,0.6c-0.1,0.1-0.2,0.3-0.3,0.4c-0.1,0.1-0.3,0.2-0.5,0.3c-0.2,0.1-0.3,0.2-0.5,0.3v0.1
					c-0.2,0.1-0.5,0.2-0.7,0.3c-0.1,0-0.1,0-0.2,0.1c-0.1,0.1-0.2,0.1-0.4,0.2c-0.1,0-0.3,0-0.3,0.2c0,0-0.1,0.1-0.2,0.1
					c-0.3,0.1-0.6-0.1-0.8,0.2c0,0-0.1,0-0.2,0c-0.4,0-0.8,0-1.1,0s-0.5,0.1-0.6,0.3c-0.2,0.2-0.4,0.5-0.6,0.8
					c-0.2,0.2-0.4,0.4-0.6,0.5c-0.1,0.1-0.2,0.2-0.3,0.3c-0.2,0.2-0.3,0.4-0.5,0.7c-0.2,0.2-0.4,0.3-0.6,0.5
					c-0.1,0.1-0.2,0.2-0.3,0.3c-0.2,0.2-0.4,0.4-0.6,0.6c-0.1,0.1-0.2,0.1-0.4,0.1c0,0.2-0.1,0.4,0.2,0.4v0.1c0,0.3,0.2,0.4,0.4,0.6
					c0.1,0.1,0.2,0.2,0.4,0.4l0.1,0.1c0.2,0.1,0.5,0.1,0.7,0.2c0.2,0.1,0.5,0.2,0.7,0.3c0.1,0.1,0.3,0.2,0.4,0.2c0.8,0,1.5,0,2.3,0
					c0.1,0,0.3,0.1,0.4,0.1c0.1,0,0.2,0,0.3,0.1c0.1,0,0.2,0.1,0.3,0.2c0,0,0,0.1,0.1,0.1c0.2,0,0.4,0.1,0.6,0.2
					c0.4,0.2,0.9,0.2,1.3,0.3c0.1,0,0.2,0.1,0.3,0.1c0.1,0,0.3,0.1,0.4,0.1c0.2,0,0.5,0,0.6,0.2c0,0,0.1,0,0.2,0.1
					c0.8,0.1,1.5,0.2,2.3,0.3c0.1,0,0.3,0.1,0.4,0.1s0.2,0.1,0.3,0.1c1.6,0,3.3,0,5,0c0.3,0,0.5-0.2,0.8-0.3c0.1,0,0.1,0,0.2-0.1
					s0.2-0.1,0.3-0.2c0.1-0.1,0.3-0.1,0.4-0.1c0,0.2,0.1,0.4-0.2,0.5c-0.2,0.1-0.3,0.4-0.5,0.6c-0.1,0.1-0.3,0.2-0.5,0.3
					c-0.3,0.1-0.6,0.1-0.8,0.2c-0.2,0.1-0.5,0-0.7,0.1c-0.2,0-0.3,0.1-0.5,0.2c-0.1,0-0.2,0-0.2,0c-0.3,0-0.7,0-1,0
					c-0.2,0-0.3,0-0.5,0.2c0,0.1-0.2,0.1-0.2,0.1c-1.8,0-3.6,0-5.4,0c-0.1,0-0.2-0.1-0.3-0.1c-0.1,0-0.2-0.1-0.3-0.1
					c-0.3,0-0.7,0-1,0c-0.2,0-0.4-0.1-0.6-0.2c-0.1,0-0.3-0.1-0.4-0.1c-0.3,0-0.6,0.1-0.8-0.1c-0.6-0.3-1.2-0.1-1.7-0.3
					c-0.7-0.3-1.4,0-2.1-0.2c-1.1-0.3-2.1,0-3.2-0.2c-0.7-0.1-1.2-0.1-1.9-0.2c-0.1,0-0.4-0.1-0.4,0.2c0,0,0,0-0.1,0
					c-0.4,0.1-0.7,0.2-1.1,0.3c-0.2,0.1-0.3,0.1-0.5,0.2h-0.1c-0.5,0.1-1.1,0.2-1.5,0.3c-0.2,0-0.3,0.1-0.5,0.2
					c-0.1,0-0.2,0.1-0.3,0.1c-0.4,0-0.9,0-1.2,0c-0.2,0-0.4,0.1-0.6,0.1c-0.2,0.1-0.6,0.2-0.9-0.1c-0.1-0.1-0.2-0.1-0.3-0.1
					c-0.3,0-0.7,0-1,0c-0.2,0-0.4-0.1-0.6-0.2c-0.1,0-0.1,0-0.2,0c-0.2,0-0.4,0.1-0.6-0.2c0-0.1-0.2,0-0.3-0.1c-0.1,0-0.3,0-0.4-0.2
					l0,0c-0.2-0.1-0.5-0.2-0.7-0.3c-0.2-0.1-0.4-0.3-0.6-0.4c-0.2-0.2-0.4-0.3-0.7-0.5c0,0-0.1,0-0.1-0.1c-0.1-0.1-0.1-0.1-0.1-0.2
					c0,0.1-0.1,0.2-0.1,0.3c0,0.1,0,0.1,0,0.2c0,0.1-0.1,0.2-0.1,0.2c-0.1-0.1-0.1-0.1-0.2-0.2c0,0,0-0.1-0.1-0.1
					c-0.3,0-0.5-0.2-0.7-0.4c0,0,0,0-0.1,0c-0.2-0.1-0.4-0.2-0.7-0.3c-0.2-0.1-0.3-0.2-0.4-0.3c-0.1,0-0.1-0.1-0.2-0.1
					c-0.2-0.1-0.4-0.3-0.5-0.4c-0.1-0.1-0.2-0.2-0.4-0.3c-0.2-0.1-0.4-0.3-0.6-0.4c-0.2-0.2-0.4-0.3-0.6-0.5
					c-0.2-0.2-0.3-0.4-0.5-0.6c-0.1-0.1-0.3-0.2-0.4-0.3c-0.1-0.1-0.2-0.2-0.3-0.3c-0.2-0.3-0.3-0.5-0.5-0.8
					c-0.2-0.2-0.3-0.4-0.5-0.6c-0.2-0.2-0.3-0.4-0.4-0.6c-0.1-0.1-0.2-0.2-0.3-0.4c-0.1-0.1-0.1-0.2-0.2-0.3
					c-0.1-0.2-0.2-0.4-0.3-0.5c-0.1-0.2-0.3-0.4-0.4-0.6c-0.1-0.2-0.3-0.4-0.4-0.6c-0.1-0.1-0.2-0.2-0.2-0.3
					c-0.1-0.2-0.2-0.4-0.3-0.7c-0.1-0.2-0.2-0.4-0.4-0.7l-0.1-0.1c-0.1-0.2-0.2-0.5-0.3-0.7c-0.1-0.2-0.2-0.3-0.3-0.4
					c0,0-0.2,0-0.2,0.1c0,0.3-0.2,0.4-0.4,0.6c0,0,0,0.1-0.1,0.1c-0.1,0.4-0.4,0.6-0.7,0.8c-0.2,0.2-0.3,0.4-0.5,0.6
					c-0.1,0.1-0.3,0.2-0.4,0.3c-0.2,0.1-0.4,0.3-0.6,0.4c-0.2,0.1-0.4,0.2-0.6,0.3c-0.3,0.1-0.5,0.2-0.8,0.2c-0.2,0-0.1,0.5,0,0.6
					c0.1,0.2,0.3,0.3,0.4,0.5c0.1,0.2,0.3,0.3,0.4,0.5l0.1,0.1c0,0.3,0.2,0.5,0.4,0.7c0,0,0,0.1,0.1,0.2c0,0.1,0.1,0.2,0.2,0.2
					c0,0,0.1,0,0.1,0.1c0.1,0.2,0.1,0.5,0.3,0.7c0.2,0.2,0.1,0.6,0.4,0.7l0,0c0.1,0.3,0.2,0.5,0.2,0.8c0,0.1,0,0.3,0.2,0.4l0.1,0.2
					c0,0.2,0,0.4,0.2,0.5c0.1,0.1,0.1,0.3,0.1,0.5c0,0.4,0.2,0.5,0.5,0.6c0.3,0.2,0.7,0.1,1,0.3c0.2,0.1,0.5,0.1,0.6,0.2
					c0.2,0.2,0.5,0.1,0.7,0.4h0.1c0.3,0.1,0.4,0.2,0.6,0.4c0.1,0.1,0.3,0.2,0.4,0.2c0.1,0.1,0.2,0.1,0.3,0.2l0,0
					c0.3,0,0.6,0.2,0.9,0.3c0.2,0.1,0.7,0.3,0.9,0.4c0.1,0,0.1,0,0.2,0.1c0.1,0.1,0.2,0.1,0.3,0.2l0.1,0.1c0.3,0,0.4,0.2,0.6,0.4
					c0.2,0.1,0.3,0.2,0.5,0.4c0.1,0.1,0.3,0.2,0.4,0.4c0,0,0,0.1,0.1,0.1c0.3-0.1,0.6,0.2,0.9,0.3c0.2,0.1,0.5,0.1,0.7,0.4
					c0,0.1,0.1,0.1,0.2,0.1c0.4,0.1,0.6,0.6,0.5,1c0,0.1-0.1,0.2-0.2,0.2c-0.3,0-0.5,0.1-0.7,0c-0.2-0.1-0.5-0.1-0.7-0.3l-0.1-0.1
					c-0.3,0-0.4-0.3-0.6-0.4c-0.3-0.3-0.6-0.7-1.1-0.6c-0.1,0-0.2-0.1-0.3-0.1c-0.2,0-0.4,0-0.6-0.1c-0.2,0-0.4,0.1-0.4-0.2
					c0,0,0,0-0.1,0c-0.4,0.1-0.7-0.3-1.1-0.3c-0.1,0-0.2-0.1-0.3-0.2L49,90.4c-0.3,0-0.5-0.2-0.7-0.4l-0.1-0.1
					c-0.3-0.1-0.7-0.2-1-0.3c-0.2,0-0.4,0.1-0.5-0.2c0,0-0.1,0-0.2,0s-0.3,0.1-0.3-0.2l0,0c-0.2-0.1-0.5-0.2-0.7-0.3
					c-0.1-0.1-0.2-0.1-0.3-0.2c-0.1-0.2-0.4-0.2-0.6-0.4c-0.1-0.2-0.3-0.2-0.5-0.3c-0.1-0.1-0.3-0.2-0.4-0.3c0.3-0.8,0.2-0.8,0-0.8
					c-0.4,0-0.8-0.2-1-0.4c-0.2-0.2-0.4-0.3-0.6-0.5c-0.1-0.2-0.2-0.4-0.3-0.6c-0.1-0.2-0.3-0.5-0.4-0.7c0,0,0,0,0-0.1
					c-0.1-0.3-0.2-0.7-0.3-1c0-0.1,0-0.3-0.2-0.4c0,0,0,0,0-0.1c-0.1-0.5-0.2-1-0.3-1.3c0-0.2-0.1-0.3-0.2-0.4
					c0-0.1-0.1-0.2-0.1-0.3c0-1.1,0-2.2,0-3.3c0-0.3,0.2-0.4,0.4-0.6c0.2-0.2,0.4-0.4,0.5-0.6l0.1-0.1c0.1-0.1,0.1-0.1,0.2-0.2
					c-0.1,0-0.2-0.1-0.2-0.1c-0.2,0-0.4-0.1-0.6,0.2c-0.1,0.1-0.3,0-0.4,0.1c-0.1,0-0.3,0.1-0.4,0.2l0,0c-0.3,0.1-0.6,0.2-0.9,0.3
					c-0.1,0-0.2,0.1-0.3,0.2l0,0c-0.3,0.1-0.6,0.2-0.9,0.3c-0.1,0-0.2,0.1-0.2,0.1c-0.1,0-0.2,0.1-0.3,0.1c-0.1,0-0.2,0.1-0.3,0.2
					c-0.1,0-0.1,0.1-0.2,0.1c-0.1,0-0.3,0-0.3,0.2H37c-0.2,0-0.3,0.1-0.4,0.2c-0.2,0.2-0.5,0.2-0.7,0.3c-0.2,0.1-0.4,0.3-0.6,0.4
					l-0.1,0.1c-0.2,0-0.3,0.1-0.4,0.2c-0.2,0.2-0.5,0.3-0.8,0.3c-0.5,0-0.6,0.1-0.4,0.6c0.2,0.3,0.1,0.6,0.2,0.9
					c0,0.3,0,0.6,0.2,0.8v0.1c0.1,0.6,0.2,1.1,0.3,1.7c0,0.1,0.1,0.2,0.1,0.3c0,0.1,0.1,0.1,0.1,0.2c0,0.3,0,0.5,0,0.8
					c0,0.2,0,0.4,0.2,0.5c0,0,0,0.1,0,0.2c0,0.2,0,0.5,0,0.7c0,0.1-0.1,0.3-0.1,0.4c0,0.2,0,0.3-0.1,0.5c0,0.2,0.1,0.4-0.2,0.5
					c-0.1,0,0,0.4,0.1,0.4c0.1,0.1,0.2,0.2,0.3,0.3c0.1,0.2,0.2,0.4,0.3,0.6c0.1,0.1,0.1,0.2,0.2,0.3c0,0.1,0.1,0.1,0.1,0.2
					c0,0.2,0,0.4,0.2,0.5c0,0,0,0.1,0,0.2c0,0.2,0,0.4,0.2,0.5c0.1,0,0,0.2,0.1,0.3c0,0.2-0.1,0.3,0.2,0.5c0.1,0.1,0,0.3,0.1,0.5
					c0,0.1,0,0.3,0.2,0.4c0,0,0.1,0,0.1,0.1c0,0.3,0.2,0.5,0.4,0.7c0.2,0.1,0.2,0.3,0.3,0.5c0.1,0.1,0.1,0.3,0.2,0.3
					c0.2,0.1,0.1,0.3,0.2,0.4c0.3,0.3,0.2,0.6,0.2,1c0,0.1,0.2,0.3,0.3,0.4c0.2,0.2,0.4,0.3,0.4,0.6c0,0.1,0.1,0.2,0.2,0.3
					c0.1,0.1,0.2,0.2,0.4,0.4l0,0c0.1,0.2,0.2,0.5,0.3,0.7c0.1,0.5-0.4,0.8-0.8,0.6c-0.2-0.1-0.6-0.2-0.6-0.5c0-0.1-0.1-0.3-0.2-0.3
					c-0.2-0.1-0.2-0.3-0.2-0.5l0,0c-0.2-0.2-0.2-0.5-0.3-0.8L37.1,96c-0.3-0.1-0.6-0.4-0.8-0.7c-0.1-0.1-0.2-0.2-0.4-0.3l-0.1-0.1
					c0-0.2-0.1-0.3-0.2-0.4c-0.2-0.3-0.2-0.6-0.3-0.9c0-0.3-0.2-0.4-0.4-0.6c-0.1-0.1-0.2-0.3-0.3-0.4c-0.1-0.2-0.3-0.4-0.4-0.5
					c0-0.1,0-0.1,0-0.2c0-0.1-0.1-0.2-0.2-0.3l0,0c-0.1-0.3-0.2-0.5-0.3-0.8c-0.1-0.1-0.1-0.2-0.2-0.4c0-0.1,0-0.2-0.1-0.3
					c0-0.1-0.1-0.2-0.1-0.2L33.3,90c0-0.2,0-0.5-0.2-0.7c-0.2-0.2-0.2-0.6-0.3-0.8c-0.1-0.2-0.2-0.3-0.4-0.5L32.4,88
					c0-0.1-0.1-0.3-0.2-0.4C32,87.5,32,87.2,31.9,87c-0.2-0.3-0.2-0.5-0.3-0.8c0-0.1-0.1-0.2-0.2-0.4c-0.1-0.1-0.1-0.3-0.2-0.4
					c0,0,0,0,0-0.1c-0.1-0.4-0.2-0.8-0.3-1.2c-0.1-0.4-0.1-0.8-0.2-1.1c-0.1-0.5-0.2-1,0.1-1.5c0.1-0.2,0-0.6,0.1-0.9
					c0-0.2,0.1-0.3,0.2-0.4c0-0.1,0.1-0.2,0.1-0.2c0-0.2,0-0.4,0.2-0.5c0,0,0,0,0-0.1c-0.1-0.3,0.2-0.5,0.3-0.7
					c0-0.2,0.2-0.3,0.3-0.4c0.1-0.2,0.2-0.3,0.3-0.5c0.1-0.2,0.3-0.3,0.3-0.6c0.3-0.2,0.2-0.7,0.6-0.8c0.1-0.3,0.3-0.2,0.5-0.3v-0.1
					c-0.1,0-0.2-0.1-0.3-0.1c-0.5,0-1,0-1.3,0c-0.1,0-0.3-0.1-0.4-0.2c-0.1,0-0.2-0.1-0.3-0.1c-0.2,0-0.5,0.1-0.6-0.2h-0.1
					c-0.2-0.1-0.4-0.2-0.6-0.3c-0.2-0.2-0.5-0.2-0.8-0.1c-0.1,0.1-0.2,0.1-0.3,0.1c-0.3,0.1-0.6-0.1-0.9,0.2c0,0-0.1,0-0.2,0
					c-0.3,0-0.6,0-0.9,0c-0.1,0-0.2,0.1-0.3,0.1c-0.1,0-0.2,0.1-0.3,0.1c-0.9,0-1.7,0-2.6,0h-0.1c-0.4-0.4-1-0.1-1.4-0.2
					c-0.2,0-0.4-0.1-0.6-0.2c-0.2,0-0.5,0-0.7-0.1c-0.2,0-0.5,0.1-0.7-0.2c-0.1-0.1-0.3,0-0.5-0.1c-0.3-0.1-0.6,0.1-0.9-0.2
					c-0.1-0.1-0.3,0-0.5,0s-0.4,0-0.7-0.2c-0.2-0.1-0.5-0.1-0.7-0.1s-0.3,0-0.4-0.2c0-0.1-0.2-0.1-0.2-0.1c-0.3,0-0.6,0-0.8,0
					c-0.2,0-0.4,0.1-0.5-0.2c0-0.1-0.2,0-0.2-0.1c-0.4,0-0.8,0-1.1,0c-0.2,0-0.3,0.1-0.4-0.2c0-0.1-0.2-0.1-0.3,0L13.6,74
					c0,1.1,0,2.2-0.1,3.3c0,0.2-0.1,0.3-0.2,0.4c0,0.1,0,0.1,0,0.2c0,0.3,0,0.6,0,0.9c0,0.2,0.1,0.4-0.2,0.6c-0.1,0,0,0.2-0.1,0.3
					c-0.1,0.4,0.1,0.8-0.2,1.1c-0.1,0.1,0,0.2,0,0.2c0,0.2,0.1,0.5-0.2,0.7l0,0c-0.1,0.4-0.1,0.8-0.3,1.1c-0.1,0.2-0.1,0.5-0.4,0.7
					l-0.1,0.1c0,0.4-0.4,0.6-0.6,0.9c-0.2,0.3-0.6,0.2-0.8,0.5c0,0.2-0.1,0.4,0.2,0.6c0,0,0,0.1,0,0.2c0.1,0.1,0.1,0.2,0.2,0.3v0.1
					c0,0.2,0.1,0.3,0.2,0.5c0.2,0.3,0.2,0.6,0.3,1c0,0.1,0,0.3,0.2,0.4v0.1c-0.1,0.6,0.4,1,0.3,1.5c0,0.2,0,0.5,0,0.7
					c0,0.1,0,0.3,0.2,0.4c0.1,0.1,0.2,0.3,0.3,0.5c0.1,0.5,0.6,0.7,0.5,1.2c0.3,0.2,0.1,0.5,0.3,0.7c0.3,0.3,0.2,0.7,0.2,1
					c0,0.4-0.2,0.6-0.6,0.6c-0.2,0-0.3-0.1-0.4-0.3c0-0.2-0.2-0.3-0.3-0.5c0,0,0,0-0.1,0c-0.1-0.2-0.2-0.4-0.3-0.7
					c0-0.1-0.1-0.2-0.1-0.2c0-0.1-0.1-0.2-0.1-0.3c0-0.1,0-0.2,0-0.3c-0.4-0.3-0.1-0.8-0.4-1.1c-0.1-0.1,0-0.3-0.1-0.5
					c0-0.4-0.1-0.7-0.4-1c-0.1-0.1-0.2-0.3-0.3-0.5c-0.1-0.2-0.3-0.4-0.4-0.6c0-0.1,0-0.1-0.1-0.2c-0.1-0.1-0.1-0.2-0.2-0.3
					l-0.1-0.1c0-0.2-0.1-0.3-0.2-0.4c-0.2-0.2-0.2-0.5-0.3-0.8c-0.1-0.2,0.1-0.4-0.2-0.6V86c0-0.6,0-1.1,0-1.7
					c0-0.2,0.1-0.4-0.2-0.5l0,0c0-0.4-0.5-0.8-0.1-1.1c0.1-0.1,0.1-0.3,0.1-0.5c0-0.3,0-0.7,0.2-1C9,81.1,9,80.8,9,80.5
					c0-0.2,0-0.3,0.2-0.4c0,0,0-0.1,0.1-0.2c0-0.2,0-0.5,0-0.7s0-0.3,0.2-0.4c0.1,0,0-0.2,0.1-0.3c0-0.3-0.1-0.7,0.2-1
					c0.1-0.1,0-0.2,0-0.3c0-0.3-0.1-0.5,0.2-0.8c0.1-0.1,0-0.2,0.1-0.2c0-0.2,0-0.5,0.2-0.7c0.1-0.1,0.1-0.2,0.1-0.3
					c0-0.2,0-0.4,0.2-0.5c0.1,0,0-0.2,0.1-0.3c0-0.1-0.1-0.3,0.2-0.4c0,0,0,0,0-0.1c-0.1-0.4,0.2-0.6,0.3-0.9
					c0.1-0.2,0.1-0.5,0.4-0.7c0.1-0.1,0.2-0.2,0.2-0.4c0.1-0.2,0.3-0.4,0.5-0.5c0.3-0.4,0.7-0.5,1.1-0.7c0.2-0.1,0.4-0.3,0.6-0.4
					c0.1,0,0.2,0,0.2-0.1c0.1-0.1,0.3-0.1,0.4-0.2c0.1,0,0.1,0,0.2-0.1c0.2,0,0.4,0.1,0.5-0.2c0,0,0.1,0,0.2,0c1.1,0,2.2,0,3.2,0
					c0.1,0,0.2,0.1,0.3,0.1c0.1,0,0.1,0.1,0.2,0.1c0.2,0,0.3,0,0.5,0c0.4,0.1,0.9,0.1,1.2,0.3c0.2,0.1,0.5,0.1,0.7,0.2
					c0.3,0.2,0.7,0.1,0.9,0.3c0.3,0.2,0.7,0.1,1,0.2c0.1,0,0.2,0.1,0.3,0.1c0.1,0,0.1,0.1,0.2,0.1c0.3,0,0.7,0,1,0
					c0.2,0,0.4-0.1,0.5,0.2c0,0.1,0.2,0,0.2,0c0.6,0,1.2,0,1.8,0.1c0.1,0,0.3,0.1,0.4,0.1c0.2,0,0.4,0,0.6,0v-0.1
					c-0.1,0-0.2-0.1-0.2-0.1c-0.1,0-0.2,0-0.2,0c-0.1-0.3-0.4-0.2-0.5-0.2c-0.1,0-0.1-0.1-0.2-0.1c0,0,0-0.1-0.1-0.1
					c-0.2-0.1-0.5-0.2-0.7-0.3s-0.4-0.2-0.6-0.3c-0.2-0.1-0.5-0.3-0.7-0.4c-0.3-0.2-0.5-0.2-0.8-0.4c-0.1-0.1-0.3-0.2-0.5-0.3
					c-0.3-0.2-0.6-0.4-0.9-0.7c-0.3-0.2-0.6-0.5-0.9-0.7c-0.2-0.2-0.4-0.3-0.5-0.5c-0.2-0.2-0.4-0.4-0.6-0.7
					c-0.2-0.2-0.4-0.4-0.5-0.6l0,0c-0.2-0.1-0.5-0.2-0.7-0.3s-0.3-0.2-0.4-0.3c-0.1-0.1-0.2-0.1-0.3-0.2c-0.1-0.1-0.2-0.1-0.3-0.2
					c-0.2-0.2-0.4-0.3-0.5-0.4c-0.1-0.1-0.3-0.2-0.4-0.3c-0.1-0.1-0.2-0.2-0.3-0.3c-0.2-0.2-0.3-0.4-0.5-0.6
					c-0.2-0.2-0.4-0.4-0.6-0.5c-0.1-0.1-0.2-0.2-0.2-0.3c-0.1-0.3-0.3-0.4-0.5-0.6c-0.1-0.1-0.2-0.3-0.3-0.5
					c-0.1-0.1-0.1-0.3-0.3-0.4c-0.2-0.2-0.4-0.4-0.4-0.7c0-0.1-0.1-0.2-0.2-0.2c-0.2-0.3-0.4-0.5-0.6-0.8c-0.1-0.1-0.2-0.2-0.3-0.4
					c-0.1-0.2-0.3-0.4-0.5-0.6c-0.3-0.3-0.5-0.7-0.8-1c-0.2-0.2-0.4-0.4-0.6-0.6c-0.3-0.2-0.5-0.5-0.8-0.7c-0.2-0.2-0.4-0.3-0.7-0.5
					c-0.3-0.2-0.6-0.5-0.9-0.8c-0.2-0.2-0.5-0.5-0.7-0.7C9.1,55.1,9,55,8.9,54.8c0-0.1-0.1-0.1-0.1-0.1l-0.1,0.1
					c-0.1,0.3-0.3,0.6-0.4,0.9c0,0.1-0.1,0.2-0.1,0.2c0,0.2,0,0.3-0.2,0.4v0.1c0,0.2-0.1,0.3-0.2,0.5c-0.2,0.3-0.1,0.7-0.3,0.9
					c-0.2,0.3-0.1,0.7-0.4,0.9c0,0,0,0,0,0.1c-0.1,0.3-0.2,0.6-0.3,0.9c0,0.1-0.1,0.1-0.1,0.2l-0.1,0.1c0.1,0.3-0.1,0.6-0.3,0.8
					c-0.1,0.2-0.2,0.3-0.3,0.5L6,61.1c-0.1,0.3-0.3,0.4-0.4,0.6c-0.1,0.2-0.2,0.4-0.3,0.5c-0.1,0.1-0.2,0.2-0.3,0.3
					c-0.2,0.2-0.5,0.4-0.7,0.7H4.3c-0.3,0-0.5,0.3-0.7,0.4c-0.1,0.1-0.1,0-0.2,0.1c-0.1,0.1-0.3,0.1-0.4,0.2c-0.1,0-0.2,0.1-0.2,0.1
					c-0.3,0-0.6,0-0.9,0c-0.2,0-0.3,0.1-0.2,0.3c0.1,0.1,0.1,0.2,0.1,0.3c0,0.1,0,0.3,0.2,0.4l0,0c0.1,0.3,0.2,0.6,0.3,0.9
					c0,0.1,0.1,0.2,0.2,0.3c0,0,0,0,0.1,0.1c0.1,0.4,0.2,0.8,0.3,1.1c0,0.1,0.1,0.3,0.2,0.4c0,0.2,0,0.4,0.1,0.6
					c0,0.1,0.1,0.3,0.2,0.4c0,0.1,0.1,0.2,0.1,0.2c0,0.3,0,0.6,0,0.9c0,0.2-0.1,0.4,0.2,0.5v0.1c0.1,0.2,0.1,0.6,0.3,0.7
					c0.3,0.2,0.1,0.5,0.4,0.6c0,0,0,0.1,0,0.2c0,0.1,0.1,0.2,0.2,0.3l0,0c0.1,0.2,0.2,0.5,0.3,0.7c0,0.1,0.1,0.1,0.1,0.2
					c0.1,0.1,0.1,0.2,0.1,0.3c0.1,0.3,0.1,0.7,0.3,1c0.2,0.3,0.1,0.5,0.2,0.8c0.3,0.5,0.2,1,0.2,1.4c0,0.2,0.2,0.4,0.3,0.5
					c0.1,0.1,0.1,0.2,0.2,0.3C6.3,77,6.3,77,6.4,77l0.1,0.1c0.1,0.4,0.2,0.8,0.2,1.2c0,0.3,0,0.6,0,0.9s-0.3,0.9-0.6,1
					c-0.1,0-0.3,0-0.4-0.1c-0.5-0.2-0.4-0.5-0.4-0.9c0-0.7,0-1.3,0-2c0-0.3-0.2-0.6-0.4-0.8c-0.1-0.2-0.2-0.4-0.3-0.5
					c-0.2-0.2-0.2-0.5-0.4-0.6C4.1,75.3,4.1,75,4,74.9c-0.1-0.2-0.2-0.4-0.4-0.6c0-0.1-0.1-0.2-0.1-0.3c0-0.2,0-0.3-0.2-0.4v-0.1
					c0-0.2-0.2-0.3-0.2-0.5c0-0.4-0.4-0.7-0.3-1.1c0-0.1-0.1-0.3-0.2-0.4v-0.1c-0.1-0.5-0.2-1-0.2-1.3c0-0.2,0-0.3-0.2-0.4
					c0,0,0-0.1-0.1-0.2c0-0.2-0.1-0.4-0.2-0.6c-0.2-0.3-0.2-0.7-0.3-1c0-0.1-0.1-0.2-0.2-0.3c0-0.1-0.1-0.1-0.1-0.1
					c-0.1-0.2,0.1-0.4-0.2-0.6c0,0,0-0.1,0-0.2c-0.1-0.2-0.1-0.3-0.2-0.4c0-0.1,0-0.1-0.1-0.2c0-0.2,0.1-0.4-0.2-0.6
					c-0.1,0,0-0.2-0.1-0.3c0-0.3-0.1-0.6-0.2-0.9c-0.1-0.3-0.1-0.7,0-1c0-0.2-0.2-0.5-0.5-0.5v-0.9c0.1,0,0.2,0,0.2-0.2
					c0-0.1,0-0.2,0.1-0.3c0.1-0.2,0.3-0.4,0.4-0.6S0.9,61,1,60.7c0,0,0,0,0-0.1c0.2-0.3,0.5-0.5,0.7-0.9c0-0.1,0.2-0.2,0.2-0.3
					c0.1-0.1,0.3-0.3,0.4-0.4c0.1-0.2,0.2-0.3,0.3-0.5c0.1-0.1,0.2-0.2,0.3-0.3c0.1-0.1,0.3-0.2,0.4-0.4c0.2-0.3,0.4-0.6,0.7-0.8
					C3.9,57.1,4,57,4.1,56.9c0.1-0.2,0.2-0.4,0.4-0.5C4.7,56.2,4.9,56,5,55.8c0.2-0.2,0.3-0.4,0.5-0.7s0.5-0.6,0.7-0.9
					c0.1-0.1,0.2-0.2,0.3-0.3c0.1-0.1,0.2-0.2,0.3-0.3c0.2-0.2,0.3-0.5,0.5-0.6c0.3-0.2,0.4-0.7,0.8-0.8c0.1-0.1,0.2-0.2,0.3-0.3
					c0.1-0.1,0.2-0.2,0.3-0.3c0.2-0.2,0.4-0.3,0.8-0.3c0,0,0.1,0,0.1-0.1c0.1-0.2,0.4-0.2,0.4-0.1c0.2,0.2,0.3,0.1,0.5,0.2
					c0.1,0,0.2,0.1,0.2,0.1c0.1,0,0.2,0,0.2,0c0.1-0.3,0.3-0.2,0.4-0.1c0.1,0,0.3,0.2,0.4,0.3c0.2,0.1,0.3,0.3,0.5,0.4
					c0.1,0.1,0.2,0.2,0.3,0.2c0.1,0.1,0.3,0.2,0.4,0.3c0.2,0.2,0.4,0.4,0.6,0.6c0.2,0.2,0.4,0.4,0.6,0.6s0.3,0.4,0.5,0.7
					c0.2,0.3,0.5,0.6,0.7,0.9c0.2,0.3,0.4,0.5,0.7,0.8c0.1,0.2,0.3,0.3,0.4,0.4c0.1,0.1,0.2,0.3,0.3,0.4c0.1,0.2,0.2,0.3,0.4,0.5
					c0.1,0.1,0.2,0.2,0.3,0.4c0.1,0.2,0.2,0.4,0.3,0.5c0.1,0.1,0.2,0.2,0.2,0.3c0.1,0.1,0.3,0.2,0.4,0.3c0.1,0.3,0.2,0.5,0.5,0.6
					c0.1,0.1,0.2,0.2,0.3,0.3c0.2,0.3,0.3,0.6,0.5,0.8s0.4,0.3,0.4,0.6c0,0,0,0.1,0.1,0.1c0.1,0.1,0.3,0.2,0.4,0.3
					c0.1,0.1,0.2,0.2,0.2,0.4c0.2,0.3,0.4,0.5,0.5,0.8c0.1,0.2,0.3,0.3,0.4,0.4c0.1,0.2,0.2,0.4,0.3,0.5c0.3,0.2,0.4,0.6,0.6,0.8
					c0.2,0.2,0.4,0.4,0.6,0.7c0.1,0.2,0.4,0.1,0.5,0.2c0.2,0.2,0.4,0.1,0.7,0.2c0.1,0,0.2,0.1,0.3,0.1c0.3,0.1,0.5,0.2,0.8,0.4
					c0.3,0.1,0.5,0.2,0.8,0.3l0,0c0.2,0.1,0.4,0.4,0.7,0.4H26c0.2,0.1,0.4,0.3,0.6,0.4c0.2,0.1,0.5,0.2,0.7,0.3c0,0,0,0.1,0.1,0.1
					c0.2,0.1,0.3,0.3,0.5,0.3c0.3,0.1,0.4,0.4,0.7,0.3c0,0,0,0.1,0.1,0.1c0.2,0.1,0.3,0.2,0.4,0.3c0.2,0.1,0.5,0.2,0.7,0.3
					c0,0,0,0,0,0.1c0.1,0.1,0.3,0.3,0.4,0.3c0.3,0.1,0.4,0.3,0.6,0.4c0.2,0.1,0.4,0.2,0.5,0.3c0.2,0.1,0.5,0.2,0.7,0.3
					c0,0,0,0,0,0.1c0.2,0.2,0.7,0.2,0.9,0c-0.1,0-0.1-0.1-0.2-0.1c-0.3-0.1-0.6-0.2-0.8-0.3c-0.1-0.1-0.2-0.2-0.3-0.3
					c-0.2-0.2-0.3-0.5-0.5-0.6c-0.3-0.2-0.7-0.3-1.1-0.5c-0.2-0.1-0.4-0.2-0.7-0.3c-0.1-0.1-0.2-0.1-0.3-0.2
					c-0.1-0.1-0.2-0.3-0.3-0.4c-0.2-0.2-0.4-0.4-0.6-0.6c-0.1-0.1-0.2-0.2-0.2-0.3c-0.1-0.5-0.5-0.6-0.9-0.8c-0.1-0.1-0.3,0-0.3-0.2
					c0-0.1-0.2-0.2-0.3-0.3c-0.4-0.1-0.5-0.4-0.8-0.6c-0.2-0.2-0.3-0.5-0.5-0.8c0-0.1-0.2-0.1-0.2-0.1c-0.2-0.6-0.7-0.9-1-1.2
					c-0.3-0.3-0.4-0.6-0.7-0.9c-0.1-0.2-0.1-0.4-0.3-0.5c-0.3-0.2-0.2-0.4-0.4-0.6c-0.2-0.2-0.2-0.5-0.3-0.7v-0.1
					c-0.2-0.1-0.2-0.3-0.2-0.4c0-0.1-0.1-0.2-0.1-0.3S22,59,22,58.9c-0.1-0.3-0.2-0.6-0.3-0.9v-0.1c-0.3-0.1-0.2-0.3-0.2-0.4
					c0-0.1,0-0.2,0-0.3c-0.3-0.1-0.2-0.3-0.2-0.5c-0.1-0.4-0.3-0.7-0.3-1v-0.1c-0.1-0.1-0.1-0.2-0.2-0.3c-0.1-0.4-0.2-0.8-0.3-1.2
					l0,0c-0.2-0.2-0.2-0.4-0.2-0.7c0-0.1,0-0.2-0.1-0.3c-0.2-0.1-0.2-0.3-0.2-0.4c0-0.2,0-0.4,0-0.5c-0.3-0.2-0.2-0.5-0.2-0.7
					s0-0.4-0.1-0.4c-0.2-0.2-0.1-0.4-0.2-0.6c0-0.2,0-0.5-0.1-0.7c-0.2-0.3-0.1-0.5-0.2-0.8c0-0.2,0-0.4-0.1-0.6
					c-0.3-0.4-0.1-0.9-0.2-1.2c0-0.1,0-0.2,0-0.2c-0.2-0.2-0.2-0.4-0.2-0.7c0-0.3,0-0.5,0-0.8c0-0.1-0.1-0.2-0.1-0.2
					c0-0.1-0.1-0.2-0.1-0.3c0-0.6,0-1.1,0-1.6c0-0.1-0.1-0.2-0.1-0.3c0-0.1-0.1-0.2-0.1-0.2c0-1,0-1.8,0-2.8c0-0.1,0-0.2,0.1-0.3
					c0-0.1,0.1-0.2,0.1-0.3c0-0.2,0-0.4,0-0.6c0-0.1,0-0.2,0.1-0.2c0.2-0.2,0.2-0.6,0.4-0.8c0.1-0.1,0.1-0.1,0.1-0.2
					c0.1-0.1,0.1-0.2,0.1-0.3c0-0.1-0.1-0.1-0.1-0.2c-0.1-0.1-0.3-0.3-0.4-0.4c-0.1-0.3-0.4-0.5-0.3-0.8v-0.1
					c-0.2-0.1-0.2-0.2-0.2-0.4c0.1-1.2-0.2-2.5,0.2-3.6c0.1-0.4-0.1-0.8,0.2-1.1c0.2-0.2,0-0.6,0.2-1c0.1-0.2,0-0.6,0.2-0.9
					c0.2-0.3,0.2-0.7,0.3-1c0.1-0.2,0.2-0.4,0.2-0.7c0,0,0-0.1,0.1-0.1c0.2,0,0.1-0.2,0.2-0.3c0-0.1,0-0.2,0-0.2
					c0.3-0.1,0.2-0.4,0.4-0.6c0.2-0.2,0.3-0.5,0.5-0.6c0.1-0.1,0.2-0.2,0.2-0.3c0.1-0.3,0.1-0.7,0.2-1c0.2-0.5-0.1-1.1,0.2-1.6
					c0.1-0.2,0-0.5,0.1-0.7c0-0.1,0-0.2,0.1-0.3c0-0.1,0.1-0.3,0.1-0.4c-0.1-0.6,0.3-1.1,0.3-1.6v-0.1c0.1-0.2,0.1-0.3,0.2-0.5
					c0.1-0.3,0.2-0.6,0.2-0.8l0,0c0.2-0.1,0.2-0.3,0.2-0.4c0-0.1,0.1-0.2,0.1-0.2c0-0.1,0.1-0.2,0.1-0.2c0-0.1,0-0.2,0.1-0.2
					c0.3-0.1,0.2-0.5,0.4-0.7c0.1-0.1,0.2-0.4,0.3-0.5c0.2-0.2,0.4-0.4,0.6-0.5c0.1-0.1,0.2-0.2,0.3-0.3c0.2-0.1,0.3-0.3,0.5-0.4
					c0.3-0.1,0.5-0.2,0.8-0.3l0.1-0.1c0.1-0.1,0.2-0.1,0.3-0.1c0.3,0,0.6,0,0.9,0c0-0.2,0-0.3,0.1-0.4c0.1-0.2,0.1-0.4,0.1-0.6
					c0-0.1,0.1-0.1,0.1-0.2c0-0.1,0.1-0.1,0.1-0.2c0.1-0.2,0.2-0.5,0.3-0.7c0.1-0.2,0.1-0.4,0.2-0.4c0.3-0.1,0.1-0.5,0.4-0.6
					c0.1,0,0.1-0.1,0.2-0.2c0.2-0.3,0.3-0.5,0.5-0.8c0.1-0.1,0.2-0.2,0.3-0.3c0.1-0.1,0.3-0.2,0.4-0.3c0.2-0.2,0.4-0.4,0.5-0.6
					c0.2-0.2,0.4-0.3,0.6-0.5c0.2-0.1,0.3-0.3,0.4-0.4c0.2-0.2,0.4-0.3,0.5-0.4c0.3-0.3,0.4-0.4,0.5-0.4c0.1-0.1,0.2-0.1,0.3-0.2
					c0.1-0.1,0.2-0.2,0.4-0.3C32.6,8.2,32.8,8.1,33,8c0.2-0.1,0.4-0.3,0.7-0.4c0.2-0.1,0.4-0.3,0.7-0.3c0,0,0-0.1,0.1-0.1
					c0.1-0.1,0.1-0.1,0.2-0.1c0.3-0.1,0.6-0.2,0.9-0.3c0,0,0.3,0,0.4-0.2c0.2-0.2,0.4-0.2,0.5-0.2s0.1,0,0.2,0
					c0.2-0.3,0.4-0.2,0.7-0.2c0.1,0,0.2-0.1,0.3-0.1c0.1,0,0.2-0.1,0.3-0.1c0.2,0,0.3,0,0.5,0c0.4,0,0.5-0.1,0.6-0.5
					c0-0.1,0-0.1,0.1-0.1c0.1-0.1,0.2-0.3,0.4-0.4c0.2-0.2,0.4-0.4,0.5-0.5c0.1-0.1,0.2-0.1,0.3-0.2c0.1-0.4,0.3-0.4,0.4-0.5
					c0.3-0.2,0.6-0.3,0.8-0.4c0.3-0.2,0.5-0.2,0.8-0.2l0,0c0-0.2,0.2-0.1,0.3-0.2c0.1,0,0.2,0,0.3-0.1c0.2-0.2,0.5-0.2,0.7-0.2
					c0.1,0,0.2,0,0.2-0.1c0.2-0.2,0.4-0.2,0.6-0.2c0.1,0,0.3,0,0.4-0.1c0.3-0.2,0.6-0.2,0.9-0.2c0.1,0,0.3,0,0.4-0.1
					c0.2,0,0.3-0.1,0.5-0.2c0.5,0,0.9,0,1.3,0c0.1,0,0.3,0,0.2-0.2L52.3,2.1L52.3,2.1z"/>
			</g>
		</g>
	</g>
</g>
</svg>
