<?xml version="1.0" encoding="utf-8"?>
<!-- Generator: Adobe Illustrator 27.8.1, SVG Export Plug-In . SVG Version: 6.00 Build 0)  -->
<svg version="1.1" id="Layer_1" xmlns="http://www.w3.org/2000/svg" xmlns:xlink="http://www.w3.org/1999/xlink" x="0px" y="0px"
	 viewBox="0 0 100 100" style="enable-background:new 0 0 100 100;" xml:space="preserve">
<style type="text/css">
	.{fill-rule:evenodd;clip-rule:evenodd;}
</style>
<path class="" d="M80.1,98.4c0.5,0,1.1,0,1.6-0.1c0.5-0.2,1-0.7,1.5-0.9c0.8-0.3,1.9-0.2,2.6-0.6c0.4-0.2,0.8-0.5,1.2-0.7
	c0.5-0.3,1-0.4,1.4-0.7c0.2-0.2,0.4-0.5,0.6-0.6c0.4-0.3,1-0.3,1.4-0.6c0.3-0.2,0.4-0.8,0.7-1c0.1-0.6,0.1-1.6-0.6-1.6
	c-0.3,0.2-0.7-0.1-1-0.1c-0.5-0.1-1,0-1.4-0.2C87.4,91,87,90.5,86,90.7c-0.8,0.2-1.2,0.9-1.9,1.2c-0.6,0-1.1,0-1.7,0
	c-1.5,0.7-3,1.4-4.5,2.1c-0.5,0.3-1,1.2-1.5,1.4c0,0,0,0,0-0.1c-0.1-0.2-0.1-0.6-0.1-0.8c0-1.4,0.2-1.2,0.7-2.2
	c0.8-1.5,1.9-2.5,2.8-3.8c0.6-0.8,1.5-1.4,1.8-2.6c-0.7-0.4-1.3-0.8-1.7-1.6c-1.1,0.3-2.4,0.5-3.6,0.8c-0.7,0.2-1.4,0-2,0.1
	s-2,0.3-2.8,0.1c-0.5-0.1-1.6,0-2.3-0.2c-1.4-0.3-2.9-0.6-4.5-0.7c-0.2,0.4-1,1.2-1.7,1.2c-0.9-0.6-2.2,0-3,0.3
	c-0.8,0.2-3.5,0.4-4.3,0.1c-0.1,0-0.4-0.2-0.6-0.3c-0.4-0.1-0.9,0.2-1.2,0.3c-0.3,0-0.7,0-1,0c0-0.1,0-0.1-0.1-0.2
	c0.2-0.2,0.5-0.5,0.6-0.8c-0.1,0-0.2,0-0.3,0c-0.2,0.3-0.4,0.6-0.6,0.8h-0.1c-0.1-0.4-0.2-0.7-0.7-0.7c-0.3,0.2-2,0.1-2.5,0.1
	c-0.1,0.2-0.1,0.5-0.4,0.6c-0.2-0.2-0.3-0.4-0.5-0.6c-0.1,0-0.1,0-0.2,0c0.1,0.4,0.3,0.5,0.5,0.9c-0.1,0-0.1,0-0.1,0.1
	c-0.3-0.1-0.8,0-1.2-0.1c-0.3-0.1-0.8-0.4-1.2-0.3c-0.2,0-0.5,0.3-0.7,0.3c-0.4,0.2-1.6,0.3-2.1,0.2c-1.4-0.1-2.8-0.4-3.9-0.7
	c-0.7-0.2-1.3,0.2-1.9,0.2c-0.4-0.6-1.1-1.4-2.3-1.1c-1,0.3-2.3,0.4-3.4,0.7c-0.8,0-1.7,0.1-2.5,0.1c-0.6,0.1-2.5,0.2-3.2,0.1
	c-0.7-0.1-1.5,0-2.2-0.2c-0.9-0.2-2-0.5-3-0.6c-0.2,0.5-0.8,0.9-0.9,1.1c-0.2,0.4,0.2,0.8,0.3,1c0.5,0.8,1,1.4,1.6,2
	c1.2,1.2,2.2,2.5,3.2,4c0.2,0.3,0.6,0.6,0.7,1c0,0.7,0,1.3,0,2c-0.1,0-0.1,0-0.2,0c-1-1.5-3-2-4.7-2.8c-0.3-0.2-0.8-0.5-1.2-0.6
	c-0.6,0-1.3,0-1.9-0.1c-0.5-0.2-1-0.8-1.5-1c-1.4-0.5-2,0.3-3.1,0.6c-0.6,0.2-2,0.2-2.3,0.3c-0.3,0.3-0.5,1-0.2,1.4
	c0.3,1.1,1.3,1.2,2.2,1.8c0.2,0.2,0.5,0.5,0.7,0.6c0.5,0.4,1.1,0.5,1.7,0.8c0.3,0.1,0.6,0.4,0.9,0.6c1.1,0.2,2.1,0.5,3.2,0.7
	c0.3,0.2,0.7,0.6,1,0.7c0.7,0.3,1.3-0.1,1.8,0.2c0,0,0,0-0.1,0c0,0,0,0,0,0.1c-5.4,2.1-11.3-0.5-14.4-3.2c-1-0.9-1.5-2-2.1-3.4
	c-0.1-0.3-0.4-0.8-0.3-1c0.1-0.2,0.1-0.2,0.1-0.4C5.1,91,5,90.8,4.8,90.5c-0.2-0.3-0.6-0.8-0.8-1.2c-0.2-0.6,0.2-2.1,0.3-2.6
	c0,0,0,0-0.1,0c0,0,0,0,0-0.1c-0.3,0-0.4-0.1-0.6-0.2C3.3,86.3,3,86.5,3,86.5c-0.1-0.1-0.1-0.1-0.3-0.1c-0.1,0.1-0.4,0.3-0.6,0.4
	c0-0.1,0-0.1,0-0.2c0.3-0.2,0.5-0.5,0.8-0.7c0.4-0.1,0.7-0.1,1-0.3c0.3-0.2,0.4-0.5,0.8-0.6c0.3-0.1,0.5,0,0.8-0.1
	c0.1,0,0.7-0.6,0.8-0.7c0.2-0.2,0.1-0.5,0.2-0.8c0.2-0.7,0.5-1.3,0.8-2c0.4-0.8,1-2,1.6-2.8c0.2-0.2,0.6-0.4,0.7-0.6
	c0.2-0.3,0.1-1.1,0.3-1.5c0.6-1.2,1.4-2.7,2.1-3.8c0.2-0.3,0.8-0.7,1-1c0.3-0.4,0.2-1.1,0.7-1.4c0.4-0.2,0.9-0.2,1.3-0.4
	c0.2-0.1,0.1-0.4,0.3-0.6c0.1-0.2,0.5-0.4,0.6-0.7c0.2-0.5,0-0.9,0.3-1.3c0.3-0.5,1.8-1,2.6-1c0.2-0.4,0.3-0.8,0.6-1.2
	c0.1-0.1,0.3-0.2,0.3-0.3c0.2-0.6,0.2-1.1,0.6-1.5c0.3-0.2,0.7-0.3,1-0.4c2-0.8,3.7,0.5,4.4,1.8c0.1,0.2,0.3,0.1,0.5,0.3
	c0.2,0.1,1.1,1.2,1.2,1.4c1.4,2.7,2.1,5.8,3.6,8.3c0.4,0.7,1.1,2.3,1.8,2.5c0-0.2,0-0.4,0-0.6c-0.7-0.7-0.9-1.6-1.2-2.6
	c-0.3-0.8-0.5-2-0.7-3c0-0.3,0-0.5,0-0.8c-0.5-2.1-0.6-5.9,0-7.9c0-0.6,0-1.3,0-1.9c0.3-1.1,0.9-1.9,2.3-1.9
	c0.4,0.5,0.9,0.5,1.2,1.2c0.5,1-0.3,1.8-0.1,2.8c0.6,2.8-0.4,6.4,0.3,9.1c0.3,1,0.3,3.4,1.2,3.7c0.1,0.1,0.1,0,0.2,0.1
	c0,0,0,0,0-0.1c0,0,0,0,0.1,0c0-0.8,0.6-2.1,0.5-2.4c-0.1-0.3-0.2-0.2-0.3-0.6c0.4-0.4,0.3-1,0.5-1.6c0.1-0.1,0.4-0.3,0.4-0.4
	s-0.3-0.4-0.3-0.8c0.3-0.4,0.2-0.8,0.4-1.3c0.2-0.6,0.8-1,0.9-1.7c-1.1-1,0.9-3,1.1-3.7c-1.1-1.4-0.4-3.2,0.5-4.3
	c0.3-0.3,0.8-0.4,0.9-0.9c-1.2-0.9-1.6-3.2-1.2-5.2c0.1-0.6,0-0.9,0.2-1.4c0.3-0.7,1.7-1.6,1.7-2c-1-0.7-0.6-2.2-0.1-3.2
	c0.9-1.9,2.4-5.6,4.5-6c0-0.1,0-0.1,0-0.2c-0.4-0.3-0.6-0.7-1-1c0-2.3-0.1-5,0.5-6.7c0.3-0.1,0.9-0.2,1.3-0.3c0-0.1,0-0.3,0-0.4
	c-0.1-0.1,0,0-0.1-0.1c-0.2-0.1-0.9-0.5-1-0.7c-0.4-0.4-0.3-1.9-0.3-2.8c0-1.7,0-4.5,1-5.2c0.2,0,0.4-0.1,0.6-0.1c0,0,0,0,0-0.1
	c0,0,0,0-0.1,0c-0.1-0.3-0.4-0.3-0.6-0.6c-0.2-0.3-0.6-0.9-0.7-1.3c0-0.6,0-1.2,0.1-1.9c0-1.2,0-2.7,0.2-3.5c0-0.3,0-0.5,0-0.8
	c0.2-0.5,0.7-1.1,0.8-1.6c-1-0.7-0.5-3.3-0.6-4.9c0-0.7-0.4-1.6-0.2-2.5c0.5-1.9,1.1-5.9,4.1-5.1c1.4,0.4,1.4,1.1,2.1,2.1
	c0.3,0.5,0.8,1.1,1,1.7c0.8,2-0.1,4.1-0.6,5.8c0,0.5,0,1,0,1.4c-0.1,0.5-0.6,1.4-0.6,1.7c0.1,0.1,0.3,0.2,0.4,0.3
	c0.1,0.4,0.2,0.8,0.3,1.2c0.1,0.5,0,1,0.1,1.4c0,0.7,0,1.4,0,2.1c0.1,0.4,0.2,2.2,0.1,2.7c-0.1,0.4-0.5,1-0.7,1.3
	c-0.2,0.2-0.4,0.2-0.5,0.6c1.8,0.1,1.5,3.3,1.5,5.2c0,0.7,0.2,1.6-0.1,2.3c-0.3,0.7-1.1,0.9-1.2,1.4c0,0.1,0,0.2,0.1,0.3
	c0.4,0.2,1,0,1.2,0.4c0.5,0.7,0.7,4.5,0.4,5.7c0,0.3,0,0.6,0,0.9c-0.1,0.4-0.7,0.6-0.8,1c0,0,0,0,0.1,0c0.5,0.3,1.1,0.5,1.6,0.8
	c0.4,0.3,0.6,0.8,0.8,1.2c0.8,1.2,1.4,2.4,2.1,3.7c0.3,0.6,1.1,2,0.6,2.8c-0.1,0.3-0.4,0.6-0.6,0.8c0,0.1,0,0.1,0.1,0.1
	c0.3,0.4,0.9,0.7,1.2,1.1c0.6,0.9,1.1,3.6,0.7,5.2c-0.1,0.4-0.4,0.7-0.6,1c0,0.2-0.1,0.4-0.1,0.6c-0.1,0.3-0.4,0.2-0.4,0.6
	c0.7,0.2,2.3,2.4,2.1,3.4c-0.1,0.7-0.5,1.1-0.6,1.8c0.6,0.6,1.3,1.5,1.5,2.3c0.2,0.6-0.3,1-0.2,1.3c0.1,0.3,0.3,0.4,0.5,0.6
	c0.2,0.3,1,1.8,1,2.1c0.1,0.4-0.2,0.5-0.3,0.9c0.4,0.2,1,1.6,1,2.1c-0.2,0.1-0.3,0.2-0.3,0.5c0.5,0.4,0.7,1.9,1.6,2.1
	c1-2,1.4-7.3,0.7-10c-0.2-0.8,0.2-1.9,0.1-2.6c-0.1-0.4-0.3-0.9-0.4-1.4c-0.3-1.4,0.5-2.6,1.5-2.7c0.2,0.1,0.3,0.1,0.6,0.1
	c0.3,0.1,0.8,0.5,1,0.8c0.4,0.5,0.4,1.3,0.6,2.1c0,0.2,0,0.5,0,0.7c0.1,0.2,0.3,0.5,0.4,0.8c0.2,0.7,0.1,2,0.1,3
	c0,1.9,0.1,3.8-0.3,5.4c-0.2,0.7,0,1.3-0.2,2c-0.2,0.8-0.5,1.9-0.9,2.5c-0.2,0.3-0.7,0.9-0.5,1.4c0.1,0.2,0,0,0.1,0.1c0,0,0,0,0-0.1
	c0.9-0.8,1.3-1.9,1.9-3c0.8-1.5,1.5-3.2,2.2-4.9c0.4-1,0.6-2,1.1-3c0.2-0.4,0.7-1,1-1.3c0.1-0.1,0.4-0.2,0.6-0.3
	c0.1-0.2,0.1-0.4,0.2-0.6c0.4-0.6,2.3-1.9,3.7-1.5c0.8,0.2,1.6,0.6,1.9,1.3c0.3,0.6,0.5,2.1,1.2,2.2c0.3,0.2,0.6,0,1,0.1
	c0.6,0.1,1.6,0.6,1.9,1c0.4,0.7,0.2,1.9,1,2.3c0.5,0.4,1.4,0.3,1.9,0.7c0.4,0.4,0.3,0.9,0.5,1.3c0.1,0.1,0.3,0.1,0.4,0.2
	c0.4,0.4,0.9,1,1.1,1.4c0.6,1,1.1,2,1.6,3c0.1,0.2,0.3,0.7,0.3,0.8c0,0.2-0.2,0.5,0,0.8c0.1,0.2,0.4,0.2,0.6,0.4
	c0.4,0.6,0.8,1.3,1.2,1.9c0.3,0.6,0.6,1.3,0.9,1.9c0.1,0.2,0.1,0.5,0.2,0.7c0.2,0.3,0.8,0.5,1.1,0.7c0.5,0.3,1.2,1,1.5,1.4
	c0.1,0.1,0.1,0.4,0.2,0.5c0.6,0.5,1.3,0.1,1.7,1h-0.1c-0.4-0.5-0.6-0.1-0.9-0.2c-0.1-0.1,0.1-0.1-0.1-0.1v0.1
	c0.5,0.3,0.2,0.7,0.3,1.4c0.2,1,0.1,1.6-0.4,2.4c-0.2,0.4-0.7,0.6-0.8,1.1c0.3,0.3-0.1,1.1-0.2,1.4c-0.6,1.4-0.9,2.5-1.9,3.4
	c-1.9,1.7-3.6,2.7-6.3,3.6c-0.2,0-0.3,0-0.5,0c-0.4,0.1-0.9,0.3-1.2,0.3c-0.3,0-0.6,0-1,0c-0.7,0.1-1.6,0.2-2.3,0
	c-0.4,0-0.7,0-1.1,0c-0.5-0.1-1-0.4-1.6-0.6C80.1,98.6,80.1,98.5,80.1,98.4z M76.1,67.3c0.1,0.2,0,0.1,0.1,0.2L76.1,67.3
	C76.2,67.3,76.2,67.3,76.1,67.3z M73.6,77.9c1.4,0,3-0.2,4.2,0.1c0.5,0.1,1-0.1,1.4,0.1c0.6,0.3,0.8,1.3,1.6,1.6
	c0.4-0.9,2.4-1.2,3.5-0.8c0.3,0.1,1.1,0.6,1.4,0.5c0,0,0,0,0.1,0c0,0,0,0,0-0.1c0,0,0,0-0.1,0c-0.1-0.3-0.4-0.4-0.5-0.7
	c-0.4-0.7-0.6-1.5-0.9-2.1c-0.1-0.3-0.2-0.6-0.3-0.9c-0.1,0-0.3,0-0.4,0c-0.4-0.1-0.9-0.3-1.2-0.6c-0.4-0.3-0.4-0.9-1-1
	c-0.5-0.3-1.5-0.2-2.1-0.4c-0.4-0.1-1-0.3-1.4-0.5c-0.3-0.2-0.5-0.4-0.8-0.6c0,0,0,0,0,0.1c-0.3,0.3-0.4,0.6-0.6,1
	c-0.6,0.9-1.3,1.7-1.9,2.6C74.2,76.8,73.7,77.3,73.6,77.9z M23.9,73c-1.2,1.2-3.5,1.2-5.5,1.6c-0.3,0.5-0.7,0.9-1.2,1.1
	c-0.3,0.1-0.5,0.1-0.7,0.3c-0.2,0.3-0.1,0.6-0.3,0.9c-0.5,1-0.9,2.2-1.6,3c-0.3,0.3-1,0.5-1.4,0.7c0,0,0,0,0,0.1c0.2,0,0.4,0,0.6,0
	c0.2-0.1,0.8,0,1-0.1c0.2-0.1,0.4-0.4,0.6-0.6c0.4-0.3,2.3-1,3-0.9c0.3,0.1,0.9,0.3,1.2,0.3c0.1,0,0.3,0,0.4,0
	c0.4,0.2,0.3,0.5,0.9,0.6c0.2-0.3,1-1.4,1.2-1.5c0.3,0,0.6,0,0.9-0.1c1.3-0.3,3.1-0.3,4.5-0.3c0-0.1,0-0.1,0.1-0.2
	c-0.6-0.4-0.9-1.3-1.2-1.9c-0.7-1-1.7-2-2.3-3.1C24,73,23.9,73,23.9,73z M86.3,73.9c-0.1,0.3,0,0.6,0.2,0.8c0-0.1,0-0.2,0-0.3
	c0-0.1,0-0.1,0-0.3C86.5,73.9,86.4,73.9,86.3,73.9z M86.9,75.9c0,0.6,0.2,0.9,0.3,1.4c0.1,0.5,0.1,1,0.2,1.4c0.8,0,0.8,0.5,1.4,0.6
	c0-0.1,0-0.1,0.1-0.2c-0.1-0.1-0.1-0.2-0.1-0.3c-0.1,0-0.2,0-0.3,0c-0.2-0.1-0.2-0.5-0.3-0.7c-0.3-0.6-0.8-1.2-1-1.7
	C86.9,76.1,87.1,76.1,86.9,75.9z M12.5,79.1c0.2,0,0.3,0,0.5,0c0.1-0.1,0,0,0.1-0.1c0-0.5,0.1-0.8,0.1-1.2c0,0,0,0-0.1,0
	c-0.1,0.1,0,0-0.1,0.1C12.9,78.2,12.6,78.6,12.5,79.1z M12.1,79.1c0,0.1,0,0.1-0.1,0.3h0.1C12.2,79.3,12.2,79.3,12.1,79.1
	C12.2,79.2,12.2,79.2,12.1,79.1C12.2,79.1,12.2,79.2,12.1,79.1z M89.3,80.4c0-0.3-0.2-0.6-0.5-0.7c-0.1,0.2-0.4,0.4-0.5,0.6
	c0.1,0,0.3,0,0.4,0C88.8,80.4,89.1,80.4,89.3,80.4z M86.4,79.9c0.1,0.1,0.4,0.4,0.5,0.3c0,0,0,0,0.1,0c0,0,0,0,0-0.1
	C86.8,80.1,86.6,80,86.4,79.9z M11.4,81.1c0.3,0,1.3-0.2,1.5-0.3c-0.4,0-0.8-0.2-1.2-0.3C11.5,80.7,11.4,80.8,11.4,81.1z"/>
</svg>
