<?xml version="1.0" encoding="utf-8"?>
<!-- Generator: Adobe Illustrator 27.8.1, SVG Export Plug-In . SVG Version: 6.00 Build 0)  -->
<svg version="1.1" id="Layer_1" xmlns="http://www.w3.org/2000/svg" xmlns:xlink="http://www.w3.org/1999/xlink" x="0px" y="0px"
	 viewBox="0 0 100 100" style="enable-background:new 0 0 100 100;" xml:space="preserve">
<path d="M99.6,54.5c-0.2,0.1-0.5,0.2-0.7,0.2c-1.8,0.1-3.7-0.2-5.3-0.9c-0.2-0.1-0.5-0.2-0.8-0.4c-0.1,0-0.1-0.1-0.2-0.2
	c-0.1-0.4-0.2-0.5-0.6-0.5c-0.3,0-0.7-0.3-0.7-0.5c-0.3-0.2-0.6-0.3-0.8-0.5c-1.3-1-2.5-2.1-3.7-3c-0.2-0.1-0.3-0.2-0.5-0.2
	c-1.3-0.1-2.7-0.1-4-0.2c-0.7-0.1-1.4-0.2-2-0.5c-0.8-0.4-1.4-1-1.9-1.7c-0.5-0.7-0.9-1.4-1.3-2.1c0,0-0.1,0-0.1,0.1
	c-0.8,1.1-1.9,1.8-3,2.5C73.4,47,72.7,47,71.9,47c-0.8-0.2-1.6-0.4-2.4-0.5c-0.5-0.1-0.8-0.2-0.8,0.5c0.1,0.4,0.2,0.8,0.3,1.1
	c0.1,0.3,0.3,0.6,0.1,0.9c0,0.1,0,0.2,0.1,0.3c0.1,0.2,0.2,0.3,0.3,0.4c0.5,0.5,0.5,0.8,0.2,1.4c0.4,0.1,0.5,0.2,0.5,0.7
	c0,0.4-0.1,0.8-0.2,1.1c-0.1,0.2,0,0.3,0.2,0.5c0.9,0.8,1.4,1.8,1.5,3c0.1,0.6,0.5,1.1,0.9,1.4c1.1,0.7,1.7,1.8,1.9,3
	c0,0.2,0.1,0.3,0.1,0.4c-0.4-0.3-0.8-0.7-1.1-1c-0.5-0.3-1.1-0.5-1.6-0.8c-0.3-0.2-0.6-0.3-0.6-0.7c-0.1-0.5-0.2-0.9-0.6-1.1
	c-0.1-0.1-0.2-0.1-0.2-0.2c-0.2,0.3-0.4,0.5-0.5,0.8c-0.1,0.1-0.1,0.2,0,0.3c0.2,0.8,0.5,1.5,0.7,2.3c0,0.1,0,0.2,0,0.2
	c-0.5-0.3-0.8-0.6-1.3-0.8c-0.5-0.2-0.7-0.6-0.8-1.1c-1,0.3-2,0.3-3-0.2c0,0.7,0,1.2,0,1.8c0,0.5,0,1,0,1.4c0,0.2-0.1,0.3-0.3,0.2
	c-0.2-0.2-0.4-0.2-0.6-0.4c-0.2-0.2-0.3,0-0.3,0.2s0,0.3-0.1,0.5c0,0.1-0.1,0.3-0.2,0.3c-0.1,0-0.2-0.1-0.3-0.2
	c-0.2-0.1-0.3-0.2-0.5-0.4c-0.1-0.1-0.2-0.1-0.2-0.1l-0.1,0.1c0.2,0.2,0.2,0.5,0.4,0.7c0.5,0.6,1.1,1.2,1.6,1.8
	c0.2,0.2,0.4,0.5,0.5,0.8c0.1,0.2,0.2,0.4,0.5,0.4c1.2,0.2,2.3,0.8,3.3,1.4c0.3,0.2,0.5,0.4,0.8,0.6c0.2,0.3,0.5,0.2,0.8,0.2
	c0.8-0.2,1.7-0.4,2.4-0.6c0.5-0.2,1.1-0.2,1.6-0.3c0.2,0.4,0.2,0.4,0.5,0.2c0.4-0.4,0.9-0.4,1.4,0c0.1,0.1,0.1,0.1,0.2,0.1
	c0-0.1,0.1-0.2,0.1-0.2c0.2-0.2,0.7,0,0.8,0.2c0.6-0.4,1.2,0,1.8,0.1c0.6,0.1,1.2,0.2,1.8,0.5c1,0.4,1.9,0.8,2.9,1.3
	c0.7,0.4,1.3,0.8,1.9,1.3c0.2,0.1,0.3,0.3,0.4,0.5c0.2,0.4,0.1,0.7-0.4,0.8c-0.5,0.1-0.9-0.1-1.4-0.3c0,0-0.1,0-0.1-0.1
	c-0.4-0.2-0.7-0.4-1.1,0.2c-0.5,0.6-1.3,0.6-2.1-0.1c-0.8-0.7-1.7-0.8-2.6-0.8c-0.2,0-0.3,0.2-0.4,0.2c-0.4,0.5-0.8,0.9-1.4,0.9
	c-0.4,0.1-0.8-0.1-1.1-0.2c-0.5-0.2-1.1-0.4-1.6-0.6c-0.5-0.2-0.8,0-1.1,0.3c-0.1,0.1-0.1,0.1-0.2,0.2c-0.6,0.8-0.8,0.8-1.7,0.5
	c-0.5-0.2-0.7,0-0.8,0.4c-0.1,0.2-0.1,0.2-0.3,0.2c0,0.2,0.1,0.4,0.4,0.4c0.2,0,0.3,0.1,0.4,0.2c1.1,0.6,1.8,1.4,2.5,2.4
	c0.5,0.5,1.1,1,1.9,1c0.5,0,0.9-0.4,1.3-0.7c0.1-0.1,0.2-0.2,0.3-0.2c0.3-0.2,0.6-0.1,0.8,0.2C78,75.8,78,75.9,78,76
	c0.2,0.4,0.5,0.5,0.9,0.4c0.6-0.2,1.1-0.4,1.8-0.5c0.2-0.1,0.5,0,0.8,0.1c0.8,0.5,1.8,0.5,2.6,0.2c0.8-0.2,1.5-0.5,2.3-0.8
	c-0.1,0.5-0.4,0.9-0.8,1.3c-0.7,0.8-1.5,1.3-2.4,1.8c-1.1,0.6-2.4,1.1-3.7,1.4c-1.3,0.3-2.5,0.4-3.8,0.1c-0.7-0.2-1.4-0.4-2.1-0.5
	c-0.5-0.2-1.1-0.3-1.7-0.1c-0.8,0.2-1.7,0.1-2.4-0.2c-1.1-0.3-2.1-0.6-3.2-0.9c-0.7-0.2-1.3-0.4-2-0.1c0,0.6,0.1,1.2,0.1,1.9
	c0,0.1,0.2,0.2,0.2,0.3c0.8,0.7,1.6,1.4,2.1,2.4c0.1,0.2,0.2,0.5,0.2,0.8c-0.2-0.2-0.4-0.4-0.5-0.6c-0.6-0.6-1.2-1.2-2-1.6
	c-0.2-0.1-0.5-0.2-0.7-0.2c-0.8-0.3-1.3-1-1.7-1.8c-0.1-0.1-0.1-0.2-0.2-0.4c-0.3,0.1-0.6,0.2-0.9,0.3c-0.9,0.3-1.3-0.2-1.3-1
	c0-0.1,0-0.2,0-0.3c-0.5,0.2-1.1,0.5-1.6,0.7c-0.3,0.1-0.6,0.2-0.9,0.2c-0.3,0-0.4-0.2-0.3-0.5c0-0.2,0.1-0.2,0.2-0.4
	c0.2-0.5,0.2-0.8-0.3-1c-0.6-0.4-1.2-0.7-1.9-1c-0.1-0.1-0.3,0-0.4,0C53.8,76,53.3,76,52.8,76c-0.8-0.1-1.2-0.6-1.4-1.4
	c-0.1-0.4-0.2-0.5-0.5-0.7c-0.5-0.2-0.8-0.6-1.1-1.1c-0.3-0.5-0.5-1.1-0.8-1.8c-0.3,0.5-0.6,0.8-0.9,1.3c-0.2,0.2-0.4,0.5-0.5,0.7
	c-0.5,0.7-0.8,1.4-1,2.2c-0.1,0.5,0.1,1,0.2,1.4c0.1,0.5,0.3,1.1,0.4,1.6c0.2,0.5,0,0.8-0.5,1c-0.2,0.1-0.5,0.2-0.8,0.2
	c0.1,0.6,0.2,1.3,0.2,1.9c0.1,0.8-0.1,1.7-0.5,2.5c-0.2,0.3-0.2,0.7-0.3,1c-0.2,0.8-0.4,1.5-0.5,2.3c-0.1,0.4-0.2,0.7-0.4,1.1
	c-0.1-0.4-0.2-0.8-0.2-1.1c-0.2-1-0.3-2.1-0.5-3c0-0.2-0.2-0.4-0.2-0.6c-0.2-0.5-0.3-1-0.2-1.5c0.2-0.9,0.3-1.8,0.5-2.7
	c0-0.2,0-0.3-0.2-0.4c-0.4-0.4-0.5-1-0.2-1.4c0.5-1.1,0.8-2.4,1.1-3.6c0.2-0.5,0.1-1.1,0.2-1.6c0.2-1,0.8-1.8,1.5-2.6
	c0.2-0.2,0.2-0.3,0.2-0.5c0.1-1,0.4-2,0.8-2.9c0.1-0.2,0-0.3-0.1-0.5c-0.5-0.5-0.4-0.5-0.8-0.1c-0.7,0.6-1.4,1.1-2.3,1.4
	c-0.9,0.2-1.6-0.2-1.9-1.1c0-0.1,0-0.1,0-0.2c-0.6,0.2-1.1,0.2-1.7,0.4c-1.4,0.3-2.9,0.5-4.3,0.2c-0.7-0.1-1.2-0.5-1.8-0.8
	c-0.2-0.2-0.5-0.3-0.5-0.7c-0.2,0.1-0.2,0.2-0.3,0.2c-0.3-0.2-0.5-0.3-0.8-0.5c-0.2-0.2-0.3,0-0.3,0.2c-0.1,0.2-0.1,0.4-0.2,0.6
	c-0.1,0.2-0.2,0.4-0.2,0.5c-0.2,0.2-0.2,0.5-0.2,0.7c0,0.2,0.1,0.3,0,0.5c-0.2,0.5-0.2,0.9-0.5,1.4c-0.4,0.8-0.9,1.5-1.8,1.6
	c0.1-0.2,0.2-0.2,0.2-0.4c-0.2,0.2-0.4,0.3-0.3,0.6c0.2,1.1,0.4,2.3,0.2,3.5c0,0.1-0.1,0.2-0.1,0.3c-0.3,0.3-0.2,0.5-0.1,0.8
	c0.2,0.8,0.5,1.4,0.7,2.2c0.1,0.3,0.2,0.6,0.2,0.9c0,0.2-0.1,0.5-0.2,0.6c-0.8,0.6-1.4,1.4-2.4,1.8c-0.2,0.1-0.5,0.2-0.8,0.2
	c-0.7,0.2-1.3,0.6-1.8,1.1c-0.1-0.6,0.2-1.1,0.5-1.5c0.5-0.6,1.1-1,1.8-1.4c0.6-0.4,0.7-0.7,0.5-1.4c-0.2-0.8-0.5-1.4-1-2.1
	c-0.2-0.2-0.3-0.6-0.2-0.9c0.1-0.8,0.2-1.5,0.5-2.3c0-0.2,0.2-0.2,0.3-0.4c0.1-0.1,0.2-0.2,0.3-0.3l-0.1-0.1c-0.1,0-0.2,0.1-0.3,0.1
	c-0.2-0.2-0.2-0.3-0.4-0.5c-0.1,0-0.2-0.1-0.2-0.2c-0.1-0.2-0.1-0.4,0.2-0.5c0.2-0.2,0.3-0.2-0.1-0.4c0.4-0.8,0.7-1.4,1.1-2.1
	c0.5-0.8,1-1.7,1.4-2.5c0.1-0.1,0.1-0.3,0.1-0.4c-0.2-0.8,0.2-1.4,1-1.7c0.3-0.1,0.6-0.2,1-0.4c-1.7-0.4-3.1-1.1-4.4-2.1
	c-0.8-0.6-1.6-1.4-2.4-2.1c-0.5-0.5-1.4-0.3-2,0.3c-0.6,0.7-1.2,1.4-1.9,2.1c-0.9,0.9-2.1,1.5-3.4,1.8c-0.7,0.1-1.4,0.1-2.1,0.2
	c-0.2,0-0.3,0.1-0.5,0.2c-0.7,0.8-1.4,1.6-2.1,2.4c-0.3,0.4-0.8,0.5-1.2,0.2c-0.3,0.4-0.7,0.8-1,1.2c-0.7,0.8-1.4,1.3-2.4,1.4
	c-0.2,0-0.2,0.1-0.4,0c-0.4-0.1-0.5,0.1-0.5,0.4c-0.2,0.7-0.2,0.7-0.9,0.7c-0.8-0.1-1.4-0.2-2.2-0.3c-0.6-0.1-1.3-0.1-1.9,0
	c-0.7,0.1-1.4,0.3-2.1,0.5v-0.1c0.1,0,0.1,0,0.2-0.1c0.7-0.9,1.7-1.3,2.8-1.4c0.7-0.1,1.4,0,2.1,0c0.2,0,0.2,0,0.3-0.2
	c0.2-0.5,0.6-1,1.1-1.2c0.9-0.4,1.7-0.9,2.5-1.5c0.1-0.1,0.2-0.2,0.2-0.2c0.1-0.7,0.5-0.9,1.1-1.1c0.5-0.2,1.1-0.3,1.6-0.5
	c0.8-0.4,1.4-0.8,1.9-1.6c0.1-0.2,0.3-0.4,0.5-0.5c0.8-0.2,1.3-0.8,2.1-0.9c0,0,0.1,0,0.1-0.1c0.2-0.4,0.5-0.5,0.8-0.6
	c0.8-0.5,1.8-1.1,2.6-1.5c1-0.5,2-0.9,3.1-1.1c1.2-0.2,2.4,0.1,3.6,0.2c0.2,0,0.3,0.1,0.5,0.2v-0.1c-0.3-0.2-0.6-0.5-0.9-0.7
	c-1-0.8-2-1.6-3-2.4c-0.4-0.3-0.7-0.7-0.6-1.1c0.1-0.5-0.2-0.8-0.5-1.1c-0.1-0.1-0.2-0.2-0.3-0.4c-0.6-0.8-1.3-1.5-1.6-2.6
	c-0.2-0.8-0.2-1.7,0.1-2.4c0.2-0.5,0.1-0.7-0.2-1c-0.3-0.4-0.5-0.8,0-1.2c-0.5-0.4-1.1-0.7-1.5-1.1c-0.8-0.6-1.6-1.3-2.4-2
	c-0.5-0.4-0.5-0.8-0.3-1.4c0.1-0.2,0.2-0.4,0.3-0.6c-0.1-0.1-0.2-0.2-0.2-0.3c-0.9-1.2-1.9-2.5-2.8-3.7c-0.5-0.7-0.8-1.5-0.5-2.4
	c0.1-0.3,0.3-0.6,0.4-0.8c-0.3-0.3-0.6-0.6-0.8-1c-0.8-1.2-1.3-2.6-1.8-4c-0.2-0.5-0.3-1,0-1.4c0.2-0.3,0.4-0.5,0.6-0.8
	c-0.1-0.1-0.2-0.2-0.3-0.3c-0.2-0.3-0.5-0.6-0.5-0.9c-0.4-1.4-0.5-2.8-0.5-4.3c0-0.5,0-1.1,0.1-1.7c0.1-0.7,0.5-1,1.1-1.1
	c0.2,0,0.3-0.1,0.4-0.3c0.4-1.2,1.1-2.2,2.2-2.9c1.4-0.9,2.9-1.3,4.5-1.5c0.2,0,0.3-0.1,0.5-0.1c0.8,0,1.6,0,2.4,0
	c0.2,0.1,0.5,0.2,0.8,0.2c0.2,0.1,0.3,0.1,0.5,0.2c0.5,0.3,0.6,0.6,0.2,1c0.1,0.4,0.2,0.7,0.2,1c0.1,0.5-0.5,0.2-0.7,0.5
	c0.7-0.2,0.7,0.5,1.1,0.8c0.1-0.1,0.2-0.2,0.2-0.2c1,0.5,1.7,1.8,1.5,2.8c-0.2,1.1-0.8,1.9-1.8,2.5c-0.4,0.2-0.9,0.4-1.3,0.6
	c-0.2,0.1-0.2,0.2-0.3,0.4c-0.8,1.8-0.3,3.4,0.7,5c0.2,0.2,0.3,0.5,0.5,0.8c-0.4-0.2-0.8-0.5-1.2-0.8c-0.8-0.5-1.4-1.2-1.8-2.1
	c-0.4-0.8-0.5-1.8-0.2-2.7c0.2-0.5,0.4-0.9,0.5-1.4c0.1-0.2,0-0.5-0.1-0.7c-0.2-0.8-0.3-1.4-0.2-2.2c0.2-0.5,0.3-1.1,0.9-1.3
	c0.1,0,0.2-0.1,0.2-0.2c0.2-0.2,0.1-0.3-0.1-0.3c-0.3-0.1-0.7-0.2-1-0.2c-0.1,0-0.3,0.1-0.3,0.2c-0.8,1.4-2.2,2.2-3.7,2.7
	c-0.3,0.1-0.6,0.2-0.7,0.6c0,0.2,0,0.4,0.1,0.5c0.2,0.6,0.5,1.1,0.7,1.8c0.2,0.6,0,1.4-0.7,1.8c-0.4,0.2-0.5,0.5-0.3,1
	c0.1,0.5,0.3,0.7,0.7,0.9c0.8,0.4,1.4,0.9,1.9,1.6c0.5,0.5,0.5,1.2,0.2,1.8c-0.2,0.7-0.6,1.3-1,1.9c-0.2,0.2-0.2,0.4,0,0.6
	c0.2,0.3,0.4,0.5,0.8,0.7c0.8,0.2,1.2,0.8,1.6,1.4c0.5,0.7,0.7,1.4,0.4,2.2c-0.1,0.3,0.1,0.5,0.3,0.7c0.1,0.1,0.3,0.1,0.5,0
	c0.9-0.3,1.6-0.1,2.1,0.6c0.6,0.8,0.9,1.8,1.2,2.9c1.1-0.5,1.9,0.2,2.5,1c0.2-0.1,0.4-0.2,0.6-0.2c0.7-0.2,1.1,0.2,1.6,0.7
	c0.8,0.8,1.5,1.6,2.3,2.4c0.1,0.1,0.2,0.2,0.2,0.3c0.4-0.3,0.8-0.2,1.1-0.1c0.8,0.4,1.5,1.1,2.1,1.8c0,0.1,0.1,0.1,0.1,0.2
	c0.1,0,0.1,0.1,0.1,0.1c0.4-0.2,0.7-0.2,1.1-0.4c0.2-1,0.8-2,1.7-2.7c0.2-0.2,0.3-0.2,0.5-0.2c0.5,0.2,0.7,0,0.7-0.5
	c0.1-0.5,0.5-0.8,1.1-0.7c0.6,0.2,1.1,0.6,1.4,1.1c0.1,0.2,0.2,0.2,0.3,0.1c0.4-0.3,0.9-0.2,1.1,0.3c0.3,0.7,0.5,1.4,0.8,2.1
	c0.2,0.5,0.3,1.1,0.5,1.7c0,0.2,0.2,0.2,0.2,0.3c0.5,0.3,0.7,0.7,0.9,1.1c0.2,0.4,0.3,0.8,0.5,1.1c0.1,0.2,0.3,0.4,0.5,0.5
	c0.2,0.2,0.5,0.4,0.8,0.6c0.4-0.4,0.9-0.2,1.4-0.1c-0.1-0.8,0.5-1.4,1-1.9c0.2-0.3,0.5-0.8,0.5-1.1c0.2-0.5,0.5-0.9,1.1-1.1
	c0.6-0.2,1.2-0.2,1.8,0.2c0.3,0.2,0.5,0.5,0.5,0.8c0,0.1,0,0.2,0,0.2c0,0.5,0,1,0.4,1.4c0.7,0.8,0.5,1.7,0.5,2.6
	c0,0.2-0.1,0.4-0.1,0.7c0.6-0.1,1.1-0.1,1.8-0.2c0.3,0,0.7-0.1,1-0.1c0.2,0,0.3-0.1,0.4-0.2c0.2-0.3,0.3-0.6,0.4-0.9
	c0-0.1,0-0.2,0-0.2c-0.2-0.5-0.4-1-0.5-1.4c-0.2-0.4,0-0.9,0.7-0.9c0.3,0,0.6,0.1,0.9,0.2c0.1,0,0.2,0.1,0.2,0
	c0.8-0.4,1.4-0.2,2.1,0.2c0.6,0.3,1.1,0.7,1.8,1.1c0.2,0.1,0.3,0.2,0.5,0.1c0.4-0.2,0.8-0.2,1.2-0.3c0.2,0,0.3-0.1,0.5-0.1
	c-0.2-0.3-0.3-0.6-0.5-1c-0.5-1.1-0.6-2.4-0.6-3.7c0.1-0.8,0.3-1.1,1.1-1.1c0.2,0,0.3-0.1,0.4-0.2c0.8-0.7,1.6-1.4,2.4-2.1
	c0.5-0.5,1.1-0.8,1.9-0.9c0.9-0.2,1.9-0.5,2.8-0.7C71.7,39,72,39,72,38.9c0.3-0.6,0.8-0.8,1.4-0.7c0.1,0,0.2,0,0.2,0
	c0.2-0.2,0.4-0.5,0.6-0.6c0.4-0.2,0.8-0.2,1.1,0c0.2,0.2,0.2,0.2,0.5-0.1c0.5-0.6,1.3-0.8,2.1-0.9c0.7-0.1,1.4,0.2,2,0.5
	c0.6,0.3,1.1,0.2,1.7-0.1c0.1-0.1,0.2-0.1,0.3,0c0.4,0.2,0.8,0.3,1.1,0.5c0.2,0.1,0.3,0.1,0.5,0.1c1-0.1,2,0.2,2.9,0.5
	c0.9,0.4,1.6,1.1,2.1,2c0.2,0.2,0.2,0.5,0.5,0.7c0.1,0.2,0.2,0.3,0.5,0.3c0.8,0.3,1.6,0.5,2.4,0.8c1.3,0.5,2.4,1.2,3.6,2.1
	c0.9,0.8,1.8,1.6,2.4,2.6c0.1,0.1,0.1,0.2,0,0.4s0,0.3,0.2,0.2c0.2-0.1,0.3,0.1,0.3,0.2c0.4,0.8,0.8,1.6,0.8,2.5c0,0.2,0,0.4,0,0.6
	c0,0.1-0.1,0.3-0.2,0.3c-0.2,0-0.3-0.1-0.4-0.2c-0.2-0.2-0.3-0.5-0.5-0.7c-0.2-0.3-0.4-0.6-0.8-0.7c-0.2,0-0.2-0.2-0.3-0.3
	c-0.2-0.4-0.6-0.5-1-0.7c-0.3-0.1-0.6-0.2-0.6-0.6c0-0.3-0.2-0.4-0.5-0.3c-0.8,0.2-1.4-0.2-1.8-0.7c-0.3-0.4-0.6-0.7-1-1
	c-0.5-0.5-0.8-0.3-1,0.3c-0.1,0.3,0.2,0.5,0.3,0.6c0.2,0.1,0.4,0.2,0.5,0.2c0.3,0.1,0.3,0.3,0.2,0.6c-0.2,0.5,0,0.7,0.5,0.5
	c0.3-0.1,0.4,0,0.4,0.3c0,0.1,0,0.1,0,0.2c-0.1,0.7-0.1,0.7,0.6,0.7c0.2,0,0.4,0.1,0.5,0.4c0.2,0.4,0.4,0.8,0.6,1.1
	c0.1,0.1,0.2,0.2,0.2,0.2c0.1-0.2,0.2-0.3,0.2-0.3c0.2,0.1,0.5,0.1,0.7,0.3c0.2,0.3,0.2,0.6,0.3,1c0.3,0,0.6,0,0.9,0
	c0.2,0,0.4,0.1,0.4,0.3c0.1,0.7,0.5,1,1.1,1.2c0.5,0.2,0.9,0.3,1.4,0.5C99.6,54.4,99.6,54.5,99.6,54.5z M50.9,64.5
	c0.8,1.3,2.2,2.1,3,3.4c0.5-0.4,1.1-0.8,1.7-1.2c-0.8-0.8-1.7-1.4-2.5-2.1C52.5,64,51.3,64.1,50.9,64.5z M40.7,48.3
	c-0.6-1-1.1-1.9-1.7-2.8c-0.5,0.2-0.8,0.1-1.1-0.4c-0.5,0.5-1.1,0.9-1.6,1.4c0.9,0.8,1.8,1.4,2.7,2.1C39.5,47.9,40.1,48.2,40.7,48.3
	z M61.2,52.4c0-0.5,0-1,0-1.4c0-0.1-0.2-0.2-0.2-0.3c-0.5-0.2-1.1-0.4-1.7-0.5c-0.1,0-0.2,0.1-0.2,0.2c-0.2,0.2-0.2,0.4-0.4,0.5
	c-0.5,0.3-0.5,0.8-0.5,1.3C59,52.2,60.1,52.3,61.2,52.4z M65.4,53c-0.4-0.4-0.8-0.6-1.2-0.7c-0.2,0-0.3,0.1-0.3,0.3
	c0.1,0.6,0.1,1.3,0.2,1.9c0,0.1,0.2,0.2,0.2,0.2c0.4,0.1,0.5-0.1,0.5-0.5C64.8,53.7,64.9,53.3,65.4,53z M48.1,51
	c0.3,0.2,0.5,0.4,0.8,0.5c0.2,0.1,0.5-0.1,0.5-0.2c0-0.5,0-1.1,0-1.8C48.9,50.1,48.5,50.5,48.1,51z M38.2,62.6
	c-0.7-0.3-1.3-0.5-1.9-0.8c-0.3,0.2-0.6,0.5-0.9,0.8C36.4,62.6,37.2,62.6,38.2,62.6z"/>
</svg>
