<?xml version="1.0" encoding="UTF-8"?>
<svg id="Layer_1" xmlns="http://www.w3.org/2000/svg" version="1.1" viewBox="0 0 100 100">
  <!-- Generator: Adobe Illustrator 29.4.0, SVG Export Plug-In . SVG Version: 2.1.0 Build 152)  -->
  <path d="M96.5,12.5c0,1.9,0,3.7,0,5.5,0,2.6,0,5.2.2,7.8,0,.4,0,.6-.5.6-7.6.5-15.2,1-22.8,1.5-2.8.2-5.7.4-8.5.7,9.7.3,19.4.5,29.1.8.6,7.2,1.3,14.4,1.9,21.6-9.8.7-19.6,1.3-29.3,1.9h0c9.8.3,19.7.6,29.6.9.4,4.5.8,9,1.2,13.6-31.2.7-62.2,1.3-93.4,2,.6-5.5,1.1-10.9,1.7-16.4-.7-.2-1.3-.3-2.1-.5.2-7.1.4-14.3.6-21.5,10.4-.7,20.8-1.4,31.1-2.1h0c-10.8-.4-21.6-.7-32.5-1-.1-4.5-.2-8.9-.3-13.5,31.3-.6,62.5-1.3,93.9-2ZM43.1,100h13c-.3-9.2-.5-18.4-.8-27.6-4.4,0-8.6.2-13,.3.3,9.2.5,18.3.8,27.3ZM53.4,2.3c0-.4-.4-.9-.8-1.1-.4-.3-.9-.5-1.3-.6-2-.7-4-.8-5.9-.3-1.3.3-2.5.7-3.7,1.2-.9.4-1.4,1.2-1.3,2.3,0,.6,0,1.1,0,1.7v4.2c4.5-.1,8.8-.2,13-.3,0-2.4,0-4.7,0-7Z"/>
</svg>