<?xml version="1.0" encoding="utf-8"?>
<!-- Generator: Adobe Illustrator 27.9.0, SVG Export Plug-In . SVG Version: 6.00 Build 0)  -->
<svg version="1.1" id="Layer_1" xmlns="http://www.w3.org/2000/svg" xmlns:xlink="http://www.w3.org/1999/xlink" x="0px" y="0px"
	 viewBox="0 0 100 100" style="enable-background:new 0 0 100 100;" xml:space="preserve">
<g transform="translate(0,0)">
	<path d="M32,2.6c10.2,9.1,16.9,19.5,20.6,29.8C37.6,26.7,20,24,1.2,27.3c20.7-1.8,38.9,2.8,53,10.3C63.4,72.5,38.9,103.9,0,79
		c24.3,20.7,43.5,22,55,13.1c66.3,16.7,51.5-33.7,5.9-56.1C55.3,24,45.9,12.2,32,2.6L32,2.6z M63.9,43.7c26.6,19.6,30.1,49.1-8.3,48
		C66.8,82.6,70.4,63.5,63.9,43.7z"/>
</g>
</svg>
