<?xml version="1.0" encoding="utf-8"?>
<!-- Generator: Adobe Illustrator 27.8.1, SVG Export Plug-In . SVG Version: 6.00 Build 0)  -->
<svg version="1.1" id="Layer_1" xmlns="http://www.w3.org/2000/svg" xmlns:xlink="http://www.w3.org/1999/xlink" x="0px" y="0px"
	 viewBox="0 0 100 100" style="enable-background:new 0 0 100 100;" xml:space="preserve">
<g transform="translate(0,0)">
	<path d="M48,0v5.2C24.8,6.2,6.2,24.8,5.2,48H0v4h5.2c1,23.2,19.7,41.8,42.8,42.8v5.2h4v-5.2c23.2-1,41.8-19.7,42.8-42.8h5.2v-4
		h-5.2C93.8,24.8,75.2,6.2,52,5.2V0H48z M48,9.2v12.2h4V9.2C73,10.2,89.8,27,90.8,48H78.6v4h12.2C89.8,73,73,89.8,52,90.8V78.6h-4
		v12.2C27,89.8,10.2,73,9.2,52h12.2v-4H9.2C10.2,27,27,10.2,48,9.2z M48,42.9V48h-5.1v4H48v5.1h4V52h5.1v-4H52v-5.1H48z"/>
</g>
</svg>
