<?xml version="1.0" encoding="utf-8"?>
<!-- Generator: Adobe Illustrator 28.0.0, SVG Export Plug-In . SVG Version: 6.00 Build 0)  -->
<svg version="1.1" id="Layer_1" xmlns="http://www.w3.org/2000/svg" xmlns:xlink="http://www.w3.org/1999/xlink" x="0px" y="0px"
	 viewBox="0 0 100 100" style="enable-background:new 0 0 100 100;" xml:space="preserve">
<path d="M0.4,82.7c38.6,0,60.9,0,99.5,0l0.1-2.1c0-0.7-0.1-1.2-0.1-1.8c-0.1-4.4-0.2-8.8-0.3-13.2c0-1.8-0.5-3.3-2-4.3
	c-5.4-3.3-8.3-8.5-10.3-14.2c-1.2-3.5-2.5-7-3.8-10.5c-0.9-2.5-2.4-4.4-4.7-5.7c-1.7-1-3.4-2-5.1-3c-2-1.3-4-2.5-5.8-4.1
	c-4-3.5-8.7-5.3-13.7-6.4c-1.1-0.2-2.5-0.1-3.6,0.3c-4.6,1.6-9.1,3.2-13.5,5c-3,1.2-5.2,3.4-6.9,6.2c-1.5,2.5-3.5,4.5-6,6
	c-5.2,3.2-9.4,7.2-11.8,12.9c-1.5,3.7-4.5,6.2-7.6,8.5c-2.7,2-3.7,4.6-3.9,7.8C0.9,69.5,0.4,74.9,0,80.6v2.1L0.4,82.7z M60.8,56.7
	c1.1,0.2,1.1,0.2,5-2.6c0.6,0.5,1.1,1.3,1.7,1.4c0.6,0.1,1.3-0.5,2.1-0.8c0.7,4.3,1.3,8.4,2,12.6c0.2,0,0.4,0,0.6,0
	c0.5-1.2,1-2.3,1.6-3.6c2.6,4.1,4.9,8.1,3.6,12.5c-1,1.1-1.8,2-2.7,2.9c-0.5-2.2-0.9-4.3-1.3-6.3c-0.1,0-0.3,0-0.4,0
	c-0.2,0.5-0.5,0.9-0.7,1.4c-0.5,1.2-1,2.3-1.4,3.5c-0.4,1.1-1,1.6-2.2,1c-0.5-0.3-1.2-0.2-1.7-0.1c-1.4,0.2-2.7,0.5-4.1,0.9
	c-1.5,0.5-2.2-0.3-2.8-1.5c-0.5-1-1.1-2.1-1.6-3.1c-0.2,0-0.3,0-0.5,0c-0.6,1.3-1.2,2.6-1.9,4.2c-1.2-2.2-2.3-1.5-3.5-0.2
	c-0.3,0.3-1,0.3-1.5,0.2c-1.1-0.1-2.3-0.4-3.7-0.7c0.2-1.4,0-3.3,0.6-4.8c0.9-2.5,2.3-4.9,3.6-7.3c2,1,2,1,2.7-1.6
	c0.4-1.3,0.8-2.6,1.2-4c1.3,2.6,1.3,5.5,2.5,7.9c0.2,0,0.4,0,0.6,0C59.3,64.6,60,60.7,60.8,56.7z"/>
</svg>
