<?xml version="1.0" encoding="utf-8"?>
<!-- Generator: Adobe Illustrator 28.0.0, SVG Export Plug-In . SVG Version: 6.00 Build 0)  -->
<svg version="1.1" id="Layer_1" xmlns="http://www.w3.org/2000/svg" xmlns:xlink="http://www.w3.org/1999/xlink" x="0px" y="0px"
	 viewBox="0 0 100 100" style="enable-background:new 0 0 100 100;" xml:space="preserve">
<g>
	<path d="M100,57.9c0.1-5.6-1.2-10.7-0.7-16.6c0.2-2.6,1-5.5,0.3-8c-0.9-3.2-4-8.2-4.8-12.1c-2.7-1.5-1.6-7.1-4.4-9.1
		c-1.8-0.2-5.9-0.3-5.9-1.6c-1.3,0-10.2,0-10.2-1.3c-0.9,0-3,0.2-3.9,0.1l1.2,8c1.6,2.4,1.9,7,2.2,8.8c0.7,4.1,1.8,8.3,1.8,13.2
		c-0.2,1.8,2,2.2,2,0c0-4.7,2.2-8.1,4.4-12.1c2.7,5.2,6.8,9.2,6.8,15.8c0,0.8,0.3,4.3,0.2,6.7c0,1.3,1.9,1.4,1.9,0.2
		c0-0.7,0.9-6.2,1.2-7.1c0.2-0.9,0.8-3.4,1.4-4c1.5,3.4,1.9,10.9,1.9,14.3c0,3.7,0.6,8.7-1.1,11.9c-0.8,1.5-3,4.3-2.2,6
		c-0.3,0.5-0.3,0.3,0,0.8c-0.3,0.7,0,3.3-1.6,3.3c0,0.5-3.5,2.6-4,2.6c-0.9,1.8-1,3.5-1.8,3.5c0,1.1-1.9,1.5-2.8,1.8h0
		c-2,1.3-8.2,0.8-9.6,0.8c-1.2-2.1-1.9-5-2.1-11.2l0-8.1c-0.2-2.2-2.4-2.4-2.4,0l0,11.3c0,2.3-1,6.3-1.6,7.4
		c-1.2,2.3-2.1,2.3-3.4,0.3c-1.6-2.3-2.3-7.7-2.3-9.4c-0.3-1.7-2.2-1.5-2.1,0c0,2.4-1.5,9.4-4,11.3c-1.4,1-2.7,1.1-5.7,1
		c-0.5-0.7-0.9-2.1-1.2-3.4c-0.5-2.8-0.9-5.5-0.9-7c0-1.9-2.3-2.3-2.3,0.1c0,2.1-0.3,5.4-0.4,6.2c-0.2,1.2-0.4,3.1-1.7,3.6
		c-2.1,1-6.1,0.5-7.1-1.2c-2.2-3.8-3.6-10.8-3.3-15.7c0.1-2.7-2.5-2.5-2.5,0c0,1.4,0,4.7-0.5,5.7c-0.7,1.6-1.7,4.6-3,5
		c-0.4,3-6.7,0.8-8.9,1.1c-2.5,0.2-4.6,1.7-6.2,2.8l-1.7-13C8.7,69.3,8.6,66.3,8,65C8,61.5,7.5,55.7,7.2,53.2L6.9,37.9l0.5-12.6
		c0-0.7,0.5-3.9,1.3-5.4c1.4,0,2.5,0.4,2.7,1.6c1.3,0.4,2.3,3.4,3,5c0.5,1.1,0.5,4.4,0.5,5.7c0,2.5,2.7,2.7,2.5,0
		c-0.3-4.9,1-11.8,3.2-15.7c0.9-1.6,4.2-1.5,6.2-0.6c0.2,0.1-0.2-1.8-0.1-1.7l1.4-5.9c-0.1,0,0.1,0,0,0L13,8.7c-1.5,0-2.7,0.5-5,1.8
		c-1.2,1.1-3,1.8-4.6,3.2c-0.9,1.7-2.9,2.9-3.1,5.1C-0.2,25.2-0.2,30.4,1,36.9l3,23.2c0.6,5.4-0.2,12-0.8,17.4
		c-0.2,3.1,1.5,7,2.4,9.7c0.3,0,2.6,3.2,3.8,3.6c5.2-0.6,13.6-1.6,16.8-1.1c4.6,0.7,12.5,2.5,19.3,1.6c2.8-0.3,13.9-0.4,17.3-1.7
		l19.1-0.2c4.6,0,9.5-1.2,13.1-3.2c2.5-4.1,4-9.3,4.6-12.8l0,0C100.4,69.4,97.5,62.6,100,57.9z"/>
	<path d="M51.1,26.6l0,0.4l-0.2,0L50,26.8c-0.5-0.1-0.9-0.4-1.3-0.7l-1.1-1c-0.3-0.3-0.6-0.5-0.8-0.8c-0.2-0.2-0.4-0.4-0.6-0.7
		c-0.4-0.5-0.7-1-1.1-1.7c-0.8-0.3-1.4-0.5-2-0.6c-0.5-0.1-1.3-0.1-2.3-0.1c-0.9,0-1.6,0.1-2.3,0.3c-0.7,0.2-1.4,0.5-2.2,0.9
		c0.2,0,0.4,0.1,0.6,0.1c0.2,0.1,0.3,0.1,0.5,0.2c0.3,0.2,0.6,0.4,0.9,0.7c0.4,0.5,0.8,1,0.9,1.6c0.5,0,0.9,0,1.2,0.1
		c0.4,0.1,0.7,0.2,1.1,0.5c0.4,0.3,0.7,0.5,0.9,0.8c0.2,0.3,0.4,0.6,0.6,1.1l0.4-0.1l0.3,0c0.3,0,0.6,0.1,0.9,0.3
		c0.3,0.2,0.5,0.3,0.6,0.6c0.2,0.2,0.3,0.5,0.3,0.8l0.5,0.1c0.1,0,0.2,0.1,0.3,0.2c0.1,0.2,0.2,0.4,0.2,0.6l0,0.3
		c0.2,0.1,0.3,0.2,0.3,0.4l0.1,0.3l0,0.2c0,0.1-0.1,0.2-0.2,0.2c-0.1,0-0.1,0-0.2-0.1c-0.1,0-0.2-0.1-0.3-0.1
		c0.2,0.3,0.3,0.5,0.4,0.6c0.1,0.1,0.2,0.1,0.4,0.1c0.1,0,0.2,0,0.4-0.1l0.2-0.1l0.1,0.5l0,0.1c0.1,0.2,0.2,0.3,0.2,0.4
		c0.2,0.2,0.4,0.3,0.6,0.3h0.2l0.2-0.1c0.1,0,0.2-0.1,0.3-0.3l0.2-0.3l0.9-0.4l0.5,0.2l0,0l0,0.2c0,0.1-0.1,0.3-0.3,0.4
		c0,0,0.1,0.1,0.2,0.1c0.2,0,0.3-0.1,0.4-0.2c0.1-0.1,0.2-0.2,0.2-0.3c0-0.1,0.1-0.2,0.1-0.3c0-0.2-0.1-0.3-0.2-0.4
		c0.2-0.1,0.3-0.1,0.5-0.2c0.1-0.1,0.2-0.1,0.3-0.1c0.1,0,0.2-0.1,0.3-0.2c0.2-0.1,0.3-0.2,0.4-0.3c0.2-0.2,0.4-0.4,0.7-0.8l0.6-0.8
		c0.2-0.2,0.3-0.3,0.4-0.4c0.1-0.1,0.3-0.2,0.5-0.2c0.2,0,0.4-0.1,0.5-0.1c0.3,0,0.5,0.1,0.9,0.2c0.3-0.4,0.7-0.8,1.1-1
		c0.2-0.1,0.3-0.1,0.4-0.2c0.1,0,0.3,0,0.4,0c0.3,0,0.5,0.1,0.8,0.2c0.1-0.2,0.3-0.4,0.4-0.5c0.2-0.1,0.4-0.2,0.6-0.2
		c0.5,0,0.9,0.2,1.3,0.5c0.1-0.3,0.2-0.5,0.3-0.6c0.1-0.2,0.2-0.3,0.4-0.5c0.3-0.3,0.7-0.4,1.1-0.4l0.2,0l0.2,0
		c-0.4-0.6-0.8-1.1-1.3-1.5c-0.3-0.2-0.5-0.4-0.8-0.6c-0.2-0.2-0.5-0.3-0.7-0.4c-0.5-0.2-1-0.3-1.6-0.3c-0.3,0-0.7,0-1.1,0.1
		c-0.3,0.5-0.5,0.8-0.7,1.1c-0.2,0.3-0.5,0.6-0.8,0.9c-0.3,0.4-0.7,0.7-1,0.9c-0.3,0.2-0.7,0.4-1.1,0.7l0-0.2l0-0.3l0-0.2
		c0-0.1-0.1-0.2-0.2-0.4l-0.2-0.2l0,0.1c-0.1,0.2-0.1,0.3-0.2,0.4c0,0.1-0.1,0.2-0.3,0.3l-0.2,0.1l-0.1-0.1
		c-0.1-0.1-0.2-0.1-0.2-0.1c0,0-0.1,0-0.1,0l-0.3,0.1l-0.1,0.1l-0.2-0.1c-0.2-0.1-0.3-0.2-0.3-0.3c-0.1-0.1-0.1-0.2-0.1-0.3v-0.3
		l-0.2,0.2c-0.4,0.3-0.6,0.5-0.7,0.8C51.1,26.3,51.1,26.4,51.1,26.6z"/>
</g>
</svg>
