<?xml version="1.0" encoding="utf-8"?>
<!-- Generator: Adobe Illustrator 28.0.0, SVG Export Plug-In . SVG Version: 6.00 Build 0)  -->
<svg version="1.1" id="Layer_1" xmlns="http://www.w3.org/2000/svg" xmlns:xlink="http://www.w3.org/1999/xlink" x="0px" y="0px"
	 viewBox="0 0 100 100" style="enable-background:new 0 0 100 100;" xml:space="preserve">
<g>
	<path d="M17.4,20.7l-16,9.5C0,31,0.6,33.1,2.2,33.1l0,0H6v6c0,0.9,0.6,1.6,1.6,1.6H11v39.4H7.8c-0.9,0-1.6,0.6-1.6,1.6v6H1.6
		c-0.9,0-1.6,0.6-1.6,1.6v7.6c0,0.9,0.6,1.6,1.6,1.6h96c0.9,0,1.6-0.6,1.6-1.6v-7.6c0-0.9-0.6-1.6-1.6-1.6H94v-6
		c0-0.9-0.6-1.6-1.6-1.6h-3.7L77.2,57.2c-0.2-0.3-0.3-0.5-0.5-0.6l-6-4v-8.1c0-1.2-1.4-2-2.5-1.2L60,49.4c-0.6,0.5-0.8,1.2-0.5,2
		L74,80.1h-2c-0.9,0-1.6,0.6-1.6,1.6v6h-8.5v-6c0-0.9-0.6-1.6-1.6-1.6h-3.4V40.7h3.4c0.9,0,1.6-0.6,1.6-1.6V33h8.5v6.4
		c0,0.9,0.6,1.6,1.6,1.6h20.5c0.9,0,1.6-0.6,1.6-1.6v-6.5h4.5c1.6,0,2.2-2.2,0.8-2.9c-3.9-2.2-16.3-9.5-21.7-12.6
		c-0.5-0.3-0.9-0.3-1.4,0l-1.7,0.8l-2.8-4.2c-0.3-0.5-0.9-0.8-1.4-0.6c-0.2,0-2.5,0.6-7.4,1.9l0.5-5.3c0-0.6-0.3-1.1-0.8-1.4
		c-0.2-0.2-12.1-7.1-11.3-6.7c-0.5-0.3-1.1-0.3-1.6,0L22.9,17.5L17.4,20.7z M24.8,40.7h3.4c0.9,0,1.6-0.6,1.6-1.6v-6h8.5v6.2
		c0,0.9,0.6,1.6,1.6,1.6h3.4v39.4h-3.4c-0.9,0-1.6,0.6-1.6,1.6v6h-8.5v-6c0-0.9-0.6-1.6-1.6-1.6h-3.4V40.7z"/>
</g>
</svg>
