<?xml version="1.0" encoding="utf-8"?>
<!-- Generator: Adobe Illustrator 28.0.0, SVG Export Plug-In . SVG Version: 6.00 Build 0)  -->
<svg version="1.1" id="Layer_1" xmlns="http://www.w3.org/2000/svg" xmlns:xlink="http://www.w3.org/1999/xlink" x="0px" y="0px"
	 viewBox="0 0 100 100" style="enable-background:new 0 0 100 100;" xml:space="preserve">
<style type="text/css">
	.{fill-rule:evenodd;clip-rule:evenodd;}
</style>
<path class="" d="M100,41.4c-2.5-4.7,0.4-11.5-0.4-15.8l0,0c-0.7-3.4-2.1-8.7-4.6-12.8c-3.7-2-8.6-3.2-13.1-3.2L62.7,9.5
	c-3.4-1.3-14.6-1.3-17.3-1.7c-6.8-0.8-14.7,1-19.3,1.6C22.9,9.9,14.5,9,9.4,8.4C8.1,8.8,5.8,12,5.5,12c-0.9,2.8-2.6,6.7-2.4,9.7
	c0.6,5.4,1.3,12,0.8,17.4L1,62.4C-0.2,68.9-0.2,74,0.3,80.5c0.2,2.2,2.2,3.4,3.1,5.1C5,86.9,6.8,87.7,8,88.8c2.3,1.3,3.5,1.8,5,1.8
	l14.9,0.4c6.8,0,14.1,0.4,20.9,0.1c4.6,1.6,8.3,1.5,12.4,1.2c4.5-0.3,8.8-2.2,13.2-2.2c0-1.2,8.8-1.3,10.2-1.3
	c0-1.3,4.1-1.4,5.9-1.6c2.8-2,1.7-7.7,4.4-9.1c0.8-3.9,3.9-8.9,4.8-12.1c0.7-2.5-0.1-5.5-0.3-8C98.8,52.1,100.1,47,100,41.4z
	 M54.1,83.4c0.8,0.1,1.3,0.2,1.5,0.2c1,0,1.9,0.2,2.5,0.8l-4.9,0C53.4,84,53.8,83.7,54.1,83.4z M69.4,83.4c0,1.5-6.6,1-8,1l-2.1,0
	c-0.1-0.2-0.2-0.5-0.5-0.7c0.3-0.1,3.2,0.2,4.6,0c0.2,0,3-0.8,3.1-0.9c0.1-0.1,3.1-1.4,4.3-4.1c0.3,0.2,0.6,0.3,0.9,0.6
	c0.1,0.1,0.2,0.3,0.3,0.4c0,0.1,0,0.2,0,0.3c0,0,0.1,0,0.2,0c0.1,0.1,0.1,0.3,0.1,0.4C71.8,82.1,70.9,83.4,69.4,83.4z M72.6,78.3
	c-0.4-0.3-0.8-0.6-1.2-0.7c0.1-0.3,0.2-0.7,0.3-1C72.3,76.8,72.8,77.4,72.6,78.3z M95.4,46.1c0,3.5-0.4,11-1.9,14.3
	c-0.6-0.5-1.2-3-1.4-4c-0.2-0.9-1.2-6.4-1.2-7.1c0-1.2-1.9-1.1-1.9,0.2c0.1,2.4-0.2,5.9-0.2,6.7c0,6.6-4.1,10.6-6.8,15.8
	c-2.2-4-4.4-7.4-4.4-12.1c0-2.2-2.1-1.8-2,0c0,4.9-1.1,9.1-1.8,13.2c-0.1,0.7-0.2,1.8-0.4,3.1c-0.4-0.6-1-1-1.7-1.2
	c-0.1,0.1-0.3-0.1-0.2-0.2c0,0.1,0-0.4,0.1-0.8c0,0,0.8-2.6-0.3-4.6c-0.6-1.1-1.1-2.5-1.8-3.8c-0.7-1.2-1.5-2.3-2-3.4
	c-0.5-1.1-1.2-2.3-0.9-3.7c1.8-1.3,4.4,0,5.5,1.5c0.4,0.5,0.7,1.4,0.8,2c0,0.4-0.3,1,0.1,1.4c1.4-4-1.6-6.9-4.8-7.2
	c-1.3-0.1-2.5,0.4-3.1,1.2c-0.9,1.1-0.7,3-0.3,4.7c0.6,3,2.7,5.6,3.5,8.6c0.2,0.8,0,1.7-0.4,2.2c-0.5,0.5-0.3,1-0.7,1.4
	c-1,0.8-1.3,2.2-2.3,3.1c-1.1,0.8-2.6,1.5-4,1.9c-1.1,0.3-2.3,0.2-3.6,0c-1.3-0.2-3.8-0.2-5.2-0.7c-0.4-0.1-0.9,0-1.4,0
	c-0.4-0.7-1.9-0.5-1.7,0.8c-0.4,0.2-0.9,0.4-1.2,0.6c-0.2,1.3,0.6,1.8,1.4,2.2c0.5,0.2,2.2,0.6,3.7,0.9c-0.3,0.4-0.5,0.8-0.8,1.1
	l-7.2,0l-10.6,0.1c0,0-0.1,0-0.1,0c-0.5-0.7-0.9-2.1-1.1-3.4c-0.5-2.8-0.9-5.5-0.9-7c0-1.9-2.2-2.3-2.3,0.1c0,2.1-0.3,5.4-0.4,6.2
	c-0.2,1.2-0.4,3.1-1.7,3.6c-2.1,1-6.1,0.4-7.1-1.2c-2.2-3.9-3.6-10.8-3.2-15.7c0.1-2.7-2.5-2.5-2.5,0c0,1.4-0.1,4.7-0.5,5.7
	c-0.7,1.6-1.7,4.6-3,5c-0.2,1.2-1.3,1.6-2.7,1.6C8,77.9,7.5,74.7,7.5,74L6.9,61.4l0.3-15.3C7.5,43.6,8,37.7,8,34.2
	C8.6,33,8.7,30,8.9,28.6l1.7-13c1.6,1.2,3.7,2.6,6.2,2.8c2,0.2,5.9,0.5,9.7,0.5l1.9,0.8l8.2-4l4.3-2.6c0.4,0.1,0.8,0.2,1.2,0.3
	c1.3,0.6,1.5,2.5,1.7,3.6c0.1,0.7,0.4,4.1,0.4,6.2c0,2.4,2.3,2,2.3,0.1c0-1.5,0.4-4.2,0.9-7c0.2-1.3,0.7-2.7,1.2-3.4
	c3-0.1,4.4,0,5.7,1c2.5,1.9,4,8.8,4,11.3c-0.1,1.5,1.9,1.7,2.1,0c0-1.7,0.7-7.1,2.3-9.4c1.3-2,2.2-2,3.4,0.3
	c0.6,1.1,1.6,5.1,1.6,7.4l0,11.3c0,2.4,2.2,2.2,2.4,0l0-8.1c0.2-6.2,0.9-9.1,2.1-11.2c1.4,0,7.7-0.5,9.6,0.8l0,0
	c0.9,0.3,2.8,0.7,2.8,1.8c0.8,0,0.9,1.8,1.8,3.5c0.5,0,4,2.2,4,2.6c1.6,0,1.4,2.6,1.6,3.3c-0.3,0.5-0.3,0.3,0,0.8
	c-0.8,1.7,1.4,4.5,2.2,6C96,37.4,95.4,42.3,95.4,46.1z"/>
</svg>
