<?xml version="1.0" encoding="utf-8"?>
<!-- Generator: Adobe Illustrator 28.0.0, SVG Export Plug-In . SVG Version: 6.00 Build 0)  -->
<svg version="1.1" id="Layer_1" xmlns="http://www.w3.org/2000/svg" xmlns:xlink="http://www.w3.org/1999/xlink" x="0px" y="0px"
	 viewBox="0 0 100 100" style="enable-background:new 0 0 100 100;" xml:space="preserve">
<g id="Swf9VJ_00000013193257443776718560000012265960700230686143_">
	<g>
		<path d="M40.7,66c0.1,0.1,0.3,0.3,0.7,0.6c0,0-0.1,0.3-0.2,0.6c2.3,1.4,4.9,1.7,7.4,2.3c1.7,0.4,3.5,0.8,5.2,1.4
			c1.7,0.5,2.1,2.7,0.9,4c-1.8,1.9-3.7,3.4-6.1,4.4c-3,1.1-5.9,2.6-8.9,3.8c-1.1,0.4-2.4,0.7-3.4,0.4c-7-1.3-14-2.9-21-4.3
			c-1-0.2-1.2-0.6-0.9-1.6c0.5-1.3,0.8-2.7,1.4-3.9c0.2-0.5,0.7-1.1,1.2-1.3c5.6-2,11.3-3.9,17-5.7c0.6-0.2,1.3-0.2,1.9-0.1
			c1.3,0.1,2.5,0.3,3.8,0.3C40,66.9,40.4,66.3,40.7,66z"/>
		<path d="M68.1,61.8c3,0.3,5.9,0.1,8.7-0.5c1.7-0.3,3.3-0.8,5-1.2c2.6-0.6,5.2-1.4,7.9-1.7c1.7-0.2,3.4,0.3,5.4,0.6
			c-0.7,1.5-1.2,2.8-1.8,3.9c-0.2,0.4-1,0.4-1.7,0.6c-0.1-1.1-0.2-2-0.2-2.9c-0.1,0-0.1,0-0.2,0c0,0.2-0.1,0.3-0.1,0.5
			c-0.1,1.4-0.2,2.6-2.1,2.8c-0.6,0.1-1.2,0.8-1.9,1.2c-0.2-0.4-0.4-0.8-0.8-1.4c0.1,0.8,0.1,1.2,0.2,1.7c-2.5,0.9-2.7,0.8-4.1-1
			c0.2,0.7,0.4,1.2,0.6,1.9c-1.8,0.2-3.4,0.5-5.1,0.6c-1.1,0.1-2.2-0.1-3.2,0.1c-1.3,0.2-2.2-0.2-3-1.2
			C70.5,64.4,69.4,63.1,68.1,61.8z"/>
		<path d="M56.2,78.1c0.8-0.7,1.6-1.4,2.3-2.2c0.5-0.4,1-0.8,1.3-1.3c0.5-0.9,1.3-1.4,2.3-1.3c1.6,0.2,3.1,0.4,4.7,0.5
			c0.5,0,1.1,0,1.5-0.3c1.7-1.1,3.4-1.1,5.3-0.7c2.2,0.5,4.4,0.9,6.6,1.4c0.5,0.1,1.1,0.4,1.4,0.8c1,1.3,0.7,1.8-0.9,2.2
			C73,79.2,65.1,79,57.2,78.7c-0.3,0-0.5-0.1-0.8-0.2C56.4,78.4,56.3,78.3,56.2,78.1z"/>
		<path d="M38.3,60.4c2.1,0,3.8,0,5.6,0c3.8,0,7.7-0.1,11.5,0c1.8,0.1,3.6,0.6,5.4,1c0.2,0,0.5,0.2,0.6,0.4c0.5,0.7-0.6,3.4-1.4,3.5
			c-3,0.7-6.1,1.4-9.1,2c-0.7,0.1-1.6-0.1-2.3-0.3c-2.3-0.9-4.5-2-6.8-3C40.2,63.3,39.3,62.1,38.3,60.4z"/>
		<path d="M68,55.7c-0.7,1.8-1.9,2.8-4,2.8c-7,0.2-14,0.6-21,0.9c-0.6,0-1.1-0.2-1.7-0.4c0.4-0.5,0.8-1,1.3-1.3c0.6-0.4,1.3-0.8,2-1
			c1.6-0.5,2.7-1.5,3.4-3.1c0.1-0.4,0.8-0.7,1.3-0.7c1.2,0,2.4,0.1,3.5,0.3c0.7,0.1,1.4,0.5,2,0.9c0.8,0.5,1.4,0.7,2.3,0.3
			c0.5-0.2,1.1-0.4,1.6-0.3c3,0.4,5.9,0.9,8.9,1.4C67.8,55.5,67.9,55.6,68,55.7z"/>
		<path d="M28.6,65c-7.2,5.5-15.7,6.9-24.8,7.2C5.2,71,6.4,70,7.6,68.9c5-4.6,3.8-4.1,12-4.4c2.4-0.1,4.8-0.1,7.2-0.1
			c0.6,0,1.3,0.2,1.9,0.3C28.6,64.8,28.6,64.9,28.6,65z"/>
		<path d="M3.5,48.7c-0.2-1.2-0.4-2.4-0.6-3.6C3,45,3,44.9,3.1,44.9c0.2,0.2,0.5,0.4,0.7,0.7c0.5,0.8,1,1.7,1.5,2.5
			c0.1,0,0.2-0.1,0.3-0.1c0.4-1.9,0.8-3.9,1.2-5.8c0.2,0,0.3,0,0.5,0c0.1,1,0.3,2,0.4,3.1c1.2-1.9,1.5-4,3-5.7
			c-0.2,2.4-0.5,4.7-0.7,7c0.1,0,0.3,0.1,0.4,0.1c1.1-1.6,2.3-3.2,3.4-4.8c0,0,0.1,0.1,0.1,0.1c-0.7,1.8-1.3,3.6-2,5.4
			c0.1,0.1,0.2,0.1,0.2,0.2c1.3-1,2.7-2.1,4-3.1c0,0.1,0.1,0.1,0.1,0.2c-1,2.1-1.9,4.2-2.9,6.3c0-0.2-0.1-0.4-0.2-1
			c-0.2,0.8-0.4,1.3-0.6,1.9C11,52,9.3,52.1,7.7,52.1c-1.4,0-2.8,0.1-4.2,0.1c-0.4,0-0.9-0.3-1-0.6c-0.9-1.7-1.6-3.4-2.4-5.1
			c-0.1-0.2,0-0.5,0-0.8c0.1,0,0.2-0.1,0.3-0.1c0.9,1.1,1.9,2.2,2.8,3.3C3.3,48.7,3.4,48.7,3.5,48.7z"/>
		<path d="M93.1,75.5c1,0,2,0,3,0c0,0,0,0.1,0,0.1c-2.3,0-4.5,0-7.1,0c0.6-0.1,0.8-0.2,1.3-0.2c-0.2-0.1-0.3-0.1-0.4-0.1
			c-0.5,0-1,0-1.4,0c-1.7,0.3-1.6,0.3-2-1.4c0-0.2-0.4-0.4-0.6-0.6c-0.1-0.1-0.2-0.1-0.3-0.2c-0.4-1-0.7-1.9-1.1-2.9
			c-0.3-0.7-0.8-1.3-1.2-2c0.1-0.1,0.2-0.2,0.3-0.3c1.3,1.4,2.5,2.9,3.8,4.3c0.1,0,0.2-0.1,0.4-0.1c-0.3-1.5-0.5-3-0.8-4.5
			c0.1,0,0.2-0.1,0.4-0.1c0.7,1.4,1.4,2.7,2.2,4.1c0.1,0,0.3,0,0.4,0c0.4-2.2,0.9-4.4,1.3-6.5c0.1,0,0.2,0,0.3,0
			c0.2,1.2,0.4,2.3,0.5,3.5c0.1,0,0.2,0,0.2,0c0.7-1.7,1.5-3.3,2.2-5c0.2,0,0.3,0.1,0.5,0.1c-0.2,2.1-0.4,4.2-0.6,6.2
			c0.1,0,0.2,0.1,0.4,0.1c0.8-1.2,1.7-2.3,2.5-3.5c0.2,0.1,0.3,0.2,0.5,0.3c-0.5,1.3-0.9,2.7-1.5,4.3c1.6-0.7,2.3-2.4,3.9-2.4
			c-0.2,0.7-0.2,1.3-0.5,1.6c-0.8,1.1-1,2.5-1.7,3.7c-0.4,0.6-1.5,1-2.3,1.2c-0.8,0.2-1.7,0-2.5,0C93.1,75.3,93.1,75.4,93.1,75.5z"
			/>
		<path d="M20.2,49.7c0.6-0.1,1-0.3,1.5-0.3c3.2-0.2,6.2-1,9-2.6c3-1.7,6.1-1.9,9.3-1.4c1,0.1,2-0.1,3.2-0.2
			c0.8,1.3,2.8,0.5,4.3,1.4c-1.3,0.6-2.4,1-3.5,1.6c-2.4,1.3-4.9,1.7-7.6,1.7c-2.3,0-4.5,0.8-6.7,1.3c-1.5,0.4-2.9,0.5-4.4,0
			C23.6,50.7,22,50.3,20.2,49.7z"/>
		<path d="M25.8,56.4c0.1,0,0.5,0,0.9,0.1c-0.1,0.2-0.2,0.5-0.5,0.9c1.1,0.2,2.1,0.5,3.2,0.6c0.9,0.1,1.4,0.4,1.4,1.4
			c0.1,1.6,0.3,3.1,0.4,4.8c-1.2-0.4-2.1-0.9-3.1-1c-2.2-0.2-4.4-0.2-6.7-0.2c-2.2,0-4.4,0.2-6.5,0.3c-0.5,0-1-0.2-1.5-0.4
			c0.3-0.4,0.6-0.9,1-1.2c3-2.5,6.7-3.6,10.3-4.7C25,57,25.3,56.8,25.8,56.4z"/>
		<path d="M64.8,48.8c-2.1,1.3-3.7,3.5-6.7,3.2c-5.3-0.5-10.5,0.3-15.7,1.5c-0.3,0.1-1-0.2-1-0.3c0-0.5,0-1.3,0.3-1.5
			c2.5-1.3,5-2.6,7.6-3.7c0.9-0.4,2.1-0.2,3.2-0.2c4,0.1,8.1,0.3,12.1,0.4C64.7,48.4,64.7,48.6,64.8,48.8z"/>
		<path d="M52.2,36.5c0.5,0.9,0.3,1.3-0.5,1.7c-2.1,0.9-4.2,1.5-6.6,1.5c-4.1,0-8.1,0.1-12.1,1.2c-0.9,0.3-2,0.3-3,0.2
			c-0.9,0-1.4-0.7-1.5-1.6c0-0.9,0.7-1.2,1.5-1.2c2-0.1,4,0,5.9-0.2c1.4-0.2,2.8-0.8,4.2-1.2c0.7-0.2,1.5-0.4,2.3-0.3
			c1.3,0.1,2.6,0.5,3.9,0.7c0.8,0.1,1.7,0.1,2.5-0.1C49.9,37.1,51,36.8,52.2,36.5z"/>
		<path d="M78.5,70.5c-0.7,0.2-1.4,0.6-2.1,0.6c-1.9,0-3.8,0-5.7-0.2c-2.4-0.1-4.6,0.2-6.9,0.9c-1.6,0.4-3.3,0.4-5,0.6
			c-0.8,0.1-1-0.5-1-1.3c0-0.7,0.4-1,1.1-1.1c1.6-0.2,1.7-0.2,1.4-2c-0.2-0.9,0.2-1.3,1-1.3c1.2-0.1,2.2,0,3.1,1
			c1.3,1.4,3,1.5,4.7,1.2c3.2-0.5,6.3,0.2,9.3,1.1C78.4,70.2,78.5,70.3,78.5,70.5z"/>
		<path d="M86.6,32.6c0.5-0.7,1-1.4,1.5-2c0.1,0.1,0.3,0.1,0.4,0.2c-0.3,0.8-0.6,1.5-0.8,2.3c0.1,0.1,0.2,0.1,0.3,0.2
			c1-0.7,1.9-1.4,2.9-2.1c0.1,0.1,0.1,0.1,0.2,0.2c-0.3,0.5-0.7,0.9-1,1.5c-0.4,0.9-0.8,1.8-1.1,2.8c-0.2,0.7-0.4,1.1-1.3,1.1
			c-2.1,0-4.1,0-6.2,0c-0.4,0-1.1-0.5-1.1-0.7c-0.1-1.8-1.8-2.9-2-4.8c1,1.1,1.8,2.1,2.7,3.1c0.1,0,0.2-0.1,0.2-0.1
			c-0.1-0.8-0.2-1.5-0.2-2.3c0.1,0,0.2-0.1,0.3-0.1c0.4,0.6,0.8,1.3,1.2,1.9c0.1,0,0.3,0,0.4,0c0.3-1.5,0.6-3,0.9-4.5
			c0.1,0,0.2,0,0.3,0c0.1,0.8,0.3,1.7,0.4,2.5c0.1,0,0.2,0,0.3,0c0.2-0.7,0.5-1.4,0.7-2c0.3-0.7,0.6-1.3,0.9-2
			c0.1,0,0.2,0.1,0.3,0.1c-0.1,1.6-0.3,3.2-0.4,4.8C86.4,32.6,86.5,32.6,86.6,32.6z"/>
		<path d="M31.6,36.2c0.8-0.4,1.7-1,2.5-1.2c4-0.9,8-2.2,12.3-1.7c2.2,0.2,4.5-0.1,6.8-0.1c0.4,0,0.8,0.2,1.1,0.3
			c-0.2,0.4-0.3,1-0.6,1.3c-0.4,0.3-0.9,0.3-1.4,0.4c-2.3,0.3-4.6,0.5-7,0.7c-2,0.2-4,0.3-6,0.6c-1.3,0.2-2.6,0.5-3.9,0
			c-1.1-0.3-2.5-0.1-3.7-0.1C31.7,36.4,31.7,36.3,31.6,36.2z"/>
		<path d="M25.1,54.8c2.8-1.1,5.4-2.3,8.1-3.2c1.6-0.6,3.1,0,4.6,0.7c0.1,0,0.2,0.1,0.2,0.1c0.8,0.7,0.4,4.2-0.5,4.7
			c-0.2,0.1-0.5,0.2-0.7,0.4c-1,0.7-1.7,0.8-2.6-0.4c-0.5-0.7-1.6-1-2.5-1.2C29.5,55.4,27.5,55.2,25.1,54.8z"/>
		<path d="M77.5,45.8c1.8,0,3.7,0,5.5,0c0.6,0,1.2,0.1,1.8,0.3c0.4,0.1,0.7,0.5,1.1,0.7c-0.3,0.2-0.7,0.5-1,0.6
			c-0.9,0.4-1.9,0.7-2.7,1.1c-2.2,1.2-4.6,1.4-7.1,1.1c-0.6-0.1-1.2,0-1.8-0.1c-0.5-0.1-1.2-0.2-1.3-0.4c-0.2-0.5-0.1-1.2,0.2-1.7
			c0.8-1.2,1.7-2.3,3.4-2c0.7,0.1,1.3,0,2,0C77.5,45.7,77.5,45.7,77.5,45.8z"/>
		<path d="M89.1,55.6c-4,0.7-7.9,1.4-11.8,2.1c-0.9,0.2-1.7,0.4-2.5,0.6c-1.2,0.3-2.4,0.2-3.5-0.4c0-1.3,0.6-1.9,1.9-2.1
			c4.4-0.7,8.7-1.6,13-2.3C87.8,53.2,88.4,53.7,89.1,55.6z"/>
		<path d="M51.2,39.5c1.9,1.6,4.4,0.5,6.7,0.7c1.3,0.1,2.5,0.5,3.7,0.8c0.3,0.1,0.5,0.5,0.7,0.7c-0.3,0.1-0.6,0.3-1,0.3
			c-1.5,0.1-3.1-0.1-4.6,0.2c-2.9,0.5-5.8,1.3-8.7,2c-1.1,0.3-2.4-0.6-2.6-1.7c0-0.3,0.1-0.6,0.3-0.8C47.3,40.5,49.1,39.9,51.2,39.5
			z"/>
		<path d="M64.1,47.4c-4.4-0.5-8.8-1-13.2-1.6c-0.3,0-0.5-0.3-0.8-0.4c0.2-0.3,0.4-0.7,0.6-0.7c3.2-0.6,6.4-2.1,9.8-0.8
			c1.6,0.6,3.4,0.9,5.1,1.4c0.3,0.1,0.6,0.5,0.9,0.7c-0.3,0.4-0.6,0.9-1.1,1.2c-0.4,0.2-0.9,0-1.4,0C64.1,47.3,64.1,47.3,64.1,47.4z
			"/>
		<path d="M81.1,42.3c-2.5,0.3-4.8,0.6-7.2,0.9c-1.7,0.2-3.5,0.5-5.2,0.6c-1.1,0.1-2.3-0.1-3.5-0.2c0-0.1,0-0.3-0.1-0.4
			c0.2-0.2,0.4-0.4,0.7-0.5c1.6-0.9,3.2-1.8,4.9-2.5c0.6-0.3,1.4-0.4,2.2-0.4c1.5,0.1,3.1,0.3,4.6,0.5C79,40.2,80.1,40.9,81.1,42.3z
			"/>
		<path d="M41.3,42.2c-0.1,0.6-0.2,1-0.2,1.5c-0.1,0.7-0.4,0.8-1.1,0.7c-4.6-0.7-9.2-0.4-13.6,1.2c-0.7,0.3-1,0-1.2-0.6
			c-0.5-1.8-0.5-1.9,1.4-2.1c3.1-0.3,6.2-0.7,9.4-1.1c0.5-0.1,1-0.2,1.4-0.5c1.2-0.8,2.4-0.2,3.5,0.2C41.1,41.7,41.2,42.1,41.3,42.2
			z"/>
		<path d="M54.9,35.8c1.8,0,3.6-0.1,5.4,0c1.9,0.2,3,1.7,2.7,3.5c-0.1,0.6-0.3,0.9-1,0.7c-0.7-0.2-1.5-0.4-2.2-0.5
			c-1.2-0.1-2.5-0.1-3.7-0.3c-0.6-0.1-1.2-0.4-1.7-0.8c-0.1-0.1,0.2-0.8,0.3-1.3C54.7,36.9,54.8,36.5,54.9,35.8z"/>
		<path d="M66.7,40.6c-1.6,0.2-1.3-1.1-1.4-1.8c-0.2-1.3,0.4-2.2,1.6-2.3c1.6-0.1,3.2-0.1,4.8-0.2c1,0,1.9-0.1,2.9,0
			c0.4,0,0.7,0.3,1.1,0.5c-0.3,0.4-0.5,0.9-0.9,1c-0.8,0.3-1.7,0.5-2.5,0.8c-1.2,0.4-2.3,1-3.5,1.4C68,40.2,67.4,40.4,66.7,40.6z"/>
		<path d="M57.3,33.7c1.6-0.3,3-0.9,4.5-1c3.8-0.3,7.5-0.3,11.3-0.5c0.6,0,1.1-0.2,1.7-0.2c0.3,0,0.7,0.3,1,0.4
			c-0.2,0.3-0.5,0.8-0.8,0.9c-1.5,0.3-3,0.7-4.6,0.8c-2.7,0.1-5.3,0-8,0.1c-1.1,0-2.2,0.2-3.3,0.4C58.4,34.7,57.8,34.7,57.3,33.7z"
			/>
		<path d="M46.4,29.6c1,0.2,2.1,0.5,3.1,0.6c1.2,0.1,2,0.7,3,2c-2.9,0.2-5.5,0.3-8.1,0.5c-0.9,0-1.7,0-2.6,0c-0.4,0-0.8,0-1.1-0.2
			c-0.3-0.2-0.5-0.6-0.5-0.8c0-0.2,0.4-0.5,0.7-0.6C42.7,30.6,44.6,30.1,46.4,29.6L46.4,29.6z"/>
		<path d="M38.6,19.4c0.4,0.4,0.6,0.8,1,1.2c0.1-0.5,0.2-0.8,0.3-1.2c0.1-0.2,0.2-0.5,0.2-0.5c1.7,0.2,1.3-1.4,1.8-2.1
			c0.1-0.1,0.2-0.1,0.4-0.3c-0.1,1.1-0.1,2.1-0.2,3c0.1,0,0.2,0.1,0.2,0.1c0.5-0.6,1.1-1.3,1.8-2.1c-0.3,1-0.6,1.7-1,2.8
			c0.8-0.6,1.3-0.9,1.8-1.2c0.1,0.1,0.2,0.2,0.3,0.2c-0.5,1.1-1,2.2-1.5,3.2c-0.1,0.1-0.4,0.2-0.7,0.2c-1.5,0-3,0.1-4.5,0
			c-0.3,0-0.8-0.4-0.9-0.7c-0.1-0.3,0.3-0.7,0.4-1.1C38.2,20.5,38.4,20.1,38.6,19.4z"/>
		<path d="M66.2,31.8c-1.9,0.2-3.7,0.3-5.5,0.5c-1.1,0.1-2.1,0.4-3.2,0.6c-0.6,0.1-1.3,0.2-1.9,0.1c-0.8-0.1-1.4-0.5-1-1.5
			c-0.5-0.2-1-0.3-1.5-0.4C56.8,29.5,65.1,30.1,66.2,31.8z"/>
		<path d="M52.5,26.9c-1.2-0.1-2.5-0.1-3.7-0.3c-0.5-0.1-0.8-0.5-1.3-0.8c0.4-0.3,0.8-0.8,1.2-0.8c2.1-0.1,4.2-0.1,6.4-0.1
			c0.6,0,1,0.2,0.9,1c-0.1,0.8-0.5,1-1.2,1C54.1,26.8,53.3,26.8,52.5,26.9C52.5,26.9,52.5,26.9,52.5,26.9z"/>
		<path d="M50.1,28.8c1.4-1.8,8.1-2,9.2-0.3C56.2,28.9,53.3,30.5,50.1,28.8z"/>
		<path d="M73.8,51.9c-0.3,0.4-0.6,0.9-1.1,1.1c-1.3,0.5-2.7,0.8-4.1,1.1c-0.4,0.1-1,0-1.4-0.2c-0.3-0.2-0.7-0.7-0.6-1
			c0-0.3,0.5-0.8,0.8-0.9c2-0.2,4.1-0.4,6.1-0.5C73.6,51.6,73.7,51.7,73.8,51.9z"/>
		<path d="M48.5,24.4c-0.2-0.1-0.5-0.5-0.9-0.8c0.3-0.3,0.6-0.7,1-0.8c1.1-0.3,2.1-0.6,3.2-0.8c0.3-0.1,0.7,0.1,1.1,0.2
			c-0.1,0.4-0.1,0.9-0.3,1.1c-0.4,0.4-0.9,0.8-1.4,0.9C50.4,24.4,49.6,24.3,48.5,24.4z"/>
		<path d="M46.5,29.6c-0.8-0.3-1.6-0.5-2.4-0.8c0.9-1.5,1.8-1.7,5-1.3c0,1-0.5,1.5-1.4,1.7C47.3,29.3,46.9,29.5,46.5,29.6
			C46.4,29.6,46.5,29.6,46.5,29.6z"/>
		<path d="M50.7,19.9c0.3,0.1,0.8,0.2,1.4,0.4c0.2,0.1,0.4,0.5,0.3,0.7c0,0.2-0.4,0.4-0.6,0.4c-0.9,0.1-1.7,0.2-2.6,0.2
			c-0.3,0-0.6-0.3-0.9-0.5c0.2-0.3,0.4-0.7,0.8-0.9C49.5,20,49.9,20,50.7,19.9z"/>
		<path d="M95.6,59.4c0.6,0.7,1.3,1.4,2.1,2.3c-1,0.5-1.7,0.8-2.8,1.3c0.1-1.4,0.2-2.4,0.3-3.5C95.3,59.5,95.5,59.4,95.6,59.4z"/>
	</g>
</g>
</svg>
