<?xml version="1.0" encoding="utf-8"?>
<!-- Generator: Adobe Illustrator 27.9.0, SVG Export Plug-In . SVG Version: 6.00 Build 0)  -->
<svg version="1.1" id="Layer_1" xmlns="http://www.w3.org/2000/svg" xmlns:xlink="http://www.w3.org/1999/xlink" x="0px" y="0px"
	 viewBox="0 0 100 100" style="enable-background:new 0 0 100 100;" xml:space="preserve">
<g>
	<g>
		<path d="M26.7,70.7c2.2,1.4,2.3,1.5,1,3.7c-0.9,1.6-0.7,2.2,1.1,2.5c1.4,0.2,2.9-0.1,4.3-0.1c0.2,0,0.6-0.3,0.7-0.2
			c1.2,1.4,3.1,2.7,3.3,4.2c0.3,3.2-0.1,6.6-0.6,9.8c-0.6,3.2-2,6.1-5.9,6.6c-0.8,0.1-1.6,0.8-2.4,1.2c0.1,0.3,0.2,0.5,0.2,0.8
			c1,0.1,2.1,0.2,3.1,0.2c2.3,0,4.6-0.1,7-0.1c1.4,0,1.9-0.6,1.9-2c-0.2-4.7,1.5-8.9,3.2-13.2c0.6-1.5,1.5-3,2.5-4.3
			c0.5-0.6,1.5-1,2.3-1.1c1.1-0.2,2.3,0,3.5-0.1c1.4-0.1,2.8-0.3,2.6,2.2c0.2-0.1,0.4-0.2,0.6-0.3c0.5-1,1.1-1.9,1.4-2.9
			c0.6-1.8,1.7-3.1,3.4-4c0.8-0.4,1.3-1.5,2-2.3c0.1,0.3,0.6,1,0.4,1.5c-1.2,2.7,0.4,5,0.8,7.4c0.9,5.7,1.8,11.3,2.5,17
			c0.2,1.4,0.5,2.1,2,2.2c1.1,0,2.2,0.6,3.4,0.7c0.5,0.1,1.1-0.4,1.7-0.6c-0.2-0.6-0.3-1.5-0.7-1.8c-3.4-2.4-3.4-5.9-3.1-9.4
			c0-0.2,0.1-0.4,0.1-0.6c-0.1-4.7-0.1-9.4-0.3-14.1c-0.1-3.4-0.4-6.7-0.5-10.1c0-0.6,0.4-1.4,0.8-1.9c1.6-2.2,2-4.5,1.5-7.1
			c-0.4-1.8-0.8-3.7-0.7-5.5c0.1-2.1,0.9-4.1,1.4-6.3c0.9,1.5,1.4,2.9,0.8,4.6c-0.7,1.8,0.6,3.7,1.9,4c5.1,10.9,10,21.6,16.5,31.4
			c0.2-0.1,0.4-0.2,0.6-0.3c-0.6-1.4-1.3-2.7-1.9-4.1c-4.1-8.7-8.3-17.3-12.3-26c-0.5-1-0.3-2.3-0.4-3.4c-0.8-5.4-1.5-10.7-2.3-16.5
			c-0.5,0.6-0.8,0.9-1,1.2c-0.8-1.4-1.8-2.7-2.4-4.1c-0.4-1-0.4-2.1-0.6-3.2c-0.4-1.9-1-3.8-1.1-5.7c-0.3-3.7-2.4-5.7-5.6-7
			c-0.4-0.2-0.8-0.3-1.3-0.5c0,0-0.1-0.1,0.1,0.1c-0.1-1.6-0.3-2.8-0.4-4.1c0-0.3-0.2-0.7-0.1-0.9c1.1-1.9-0.4-3.4-0.9-5
			c-0.5-1.9-2.1-2.8-4.1-3c-1.9-0.2-3.3,0.6-4.2,2.1c-0.8,1.3-1.3,2.7-2.1,4.4c0,0-0.4,0-1.2,0.1c2.9,1.7,1,3.2,0.5,5.1
			c-0.7,2.4-2.9,2.1-4.2,3.3c0.1,2.9-1.3,5.3-2.7,7.8c-1.4,2.4-2.5,5-3.8,7.6c-0.5-0.2-0.9-0.4-1.4-0.6c-0.3,0.8-0.7,1.6-0.8,2.4
			c-0.8,3.9-2.3,7.5-4.5,10.8c-0.9,1.3-1.6,3-0.7,5.1c0.3,0.6-1.2,2.5-2.2,3.1c-3.5,2-7.2,3.5-11.4,3.4c-2.8-0.1-5.6-0.5-8.3-0.7
			c0,0,0.2,0.4,0.4,0.5c2.8,1.8,4.4,4.4,5.6,7.4C16,64,17,66.1,18,68.2c0.6,1.2,1.4,2.4,2.3,3.3C22.3,73.1,24.1,72.8,26.7,70.7"/>
	</g>
</g>
</svg>
