<?xml version="1.0" encoding="utf-8"?>
<!-- Generator: Adobe Illustrator 27.9.0, SVG Export Plug-In . SVG Version: 6.00 Build 0)  -->
<svg version="1.1" id="Layer_1" xmlns="http://www.w3.org/2000/svg" xmlns:xlink="http://www.w3.org/1999/xlink" x="0px" y="0px"
	 viewBox="0 0 100 100" style="enable-background:new 0 0 100 100;" xml:space="preserve">
<g>
	<g>
		<path d="M4.2,21.7c4.7-2.8,8.9-1.7,17.9,1S36.9,33,36.9,33l0.9-1.4c0,0-0.3,1.2,0,3.1c0.3,2,7.9,18.1,8.1,18.5
			c0.3,0.4,3-1.3,3-1.3s0,0,0.1-2.4c0.1-2.4,1.7-9.4,3.5-7.5c1.8,1.8,5.1,9.5,5.1,9.5l5.8-8.8c2.5,5.4-0.7,13,0,11.8S65,52,65,52
			s6.7-6.9,7.3-8.6c0.3-0.7,0.3-1.2,0.3-1.4c0,0.2,0.1,0.6,0.5,1.4c1,2.1,0,1.8,0,1.8s14,5.9,20.8,11.5c6.8,5.6,5.5,13.5,5.5,13.5
			c-10.4-7.4-14.9,2.1-14.9,2.1C72.2,65.5,68.1,72,68.1,72s-2.4-2.5-6.3-2.8c-3.9-0.3-10,4.3-10,4.3s0,0-0.3,1.8
			c-0.3,1.8-1.6,0.4-1.6,0.4s0.8-5.5-0.6-2.2s-4.3,4.3-4.3,4.3c-4.3,0.8-7.5,2-7.5,2l-2-5.3c0,0,0,0-0.9-2.6
			c-0.9-2.6,0.1-5.8,0.1-5.8c-1.6,1.2-3.8,0.4-2.6-0.4c1.2-0.8,1.6-1.4,1.6-1.4l-1.7-1.3c-1.8-7.1-11.3-7.2-11.3-7.2
			c1.7-9.4-10.3-17.5-10.3-17.5s0,0-1.7-5.9c-1.7-5.9-8.2-7.3-8.2-7.3S-0.5,24.5,4.2,21.7z M58.7,58.3c0.2,0.3,1,0.2,1.8-0.2
			c0.8-0.4,1.3-1.1,1.1-1.4c-0.2-0.3-1-0.2-1.8,0.2C59,57.3,58.5,58,58.7,58.3z M52.4,57c0.7,0.6,1.5,0.8,1.7,0.5
			c0.2-0.3-0.2-1-0.9-1.6c-0.7-0.6-1.5-0.8-1.7-0.5C51.3,55.7,51.7,56.4,52.4,57z"/>
	</g>
</g>
</svg>
