<?xml version="1.0" encoding="utf-8"?>
<!-- Generator: Adobe Illustrator 27.9.0, SVG Export Plug-In . SVG Version: 6.00 Build 0)  -->
<svg version="1.1" id="Layer_1" xmlns="http://www.w3.org/2000/svg" xmlns:xlink="http://www.w3.org/1999/xlink" x="0px" y="0px"
	 viewBox="0 0 100 100" style="enable-background:new 0 0 100 100;" xml:space="preserve">
<g>
	<g>
		<path d="M46,54.6c0.4,0.4,0.8,0.8,1.3,1.2c0.3-0.4,0.5-0.8,0.1-1.2C47,54.3,46.6,54.1,46,54.6 M21.6,33.9c1.1,0.2,2.3,0.5,3.4,0.7
			c0,0,0.1-0.1,0.1-0.1c-1.5-1.5-2.4-3.3-3.1-5.3c1.2-0.1,1.7,1.2,2.8,1.3c-1.1-1.8-2.5-3.4-2.9-5.5c0.1,0,0.1-0.1,0.2-0.1
			c0.6,0.5,1.1,1.1,1.8,1.8c0-1.5-0.2-2.8-0.6-4.1c-0.4-1.4-0.8-2.9-1.1-4.4c-0.1-0.6,0-1.2,0-1.8c0.1,0,0.1,0,0.2,0l1.3,3.2
			c0.1,0,0.2-0.1,0.3-0.1c-0.1-0.7-0.1-1.4-0.2-2c-0.9-4.2-0.4-8.3,0.5-12.4c0-0.1,0.1-0.1,0.2-0.2c0.1,3-0.3,6.1,1,8.9
			C26,8.9,26.5,4.2,29.1,0c-0.1,0.4-0.1,0.7-0.2,1.1c-0.9,3.6-1.7,7.1-1.9,10.8c-0.1,2.8-0.2,5.6,0.1,8.3c0.4,3.2,1.1,6.3,1.8,9.5
			c0.3,1.1,0.8,2.2,1.5,3.2c0.5,0.8,0.9,0.7,1.2-0.2c0.3-0.8,0.7-1.6,1-2.4c1.4-3.1,3.7-4.4,7.6-3.5c1.1,0.2,2.1,0.8,3,1.4
			c1.2,0.7,2.3,1.6,3.5,2.4c0.8,0.5,1.6,0.8,2.8,0.7c-2.2-2-4.3-3.9-6.4-5.8c0-0.1,0.1-0.1,0.1-0.2c0.2,0.1,0.4,0.2,0.6,0.3
			c2.3,1.3,4.3,2.9,6.3,4.7c2.2,1.9,4.4,3.6,6.7,5.5c0.1,0.1,0.2,0.2,0.2,0.4c0,0.5,0,0.9,0,1.5c-1.3-1.3-2.7-1.8-4.5-1.8
			c0.5,0.7,1,0.9,1.7,1c0.7,0.1,1.4,0.3,1.8,1c-1,0.9-1.8,1-2.7,0.3c-1.2-1-2.4-1-3.8-0.6c-0.1,0-0.2,0.1-0.3,0.1
			c-0.3-0.5-0.6-1-1.1-1.6c-0.5,0.2-1.1,0.4-1.8,0.6c-0.6,0.2-1.2,0.5-1.9,0.8c-0.1-0.1-0.1-0.1-0.2-0.2c0.1-0.3,0.1-0.5,0.2-0.8
			l-0.2,0.1c-0.2-0.3-0.4-0.6-0.5-0.9c-0.4-1-0.6-2.1-1-3c-0.6-1.4-2.4-2-3.8-1.4c-0.6,0.3-0.8,0.7-0.9,1.4c-0.3,5.2,2,9,6,12
			c3.6,2.8,7.8,4.4,12.2,5.3c4.9,1,9.9,0.9,14.8-0.2c2.3-0.5,4.3-1.6,6.2-3.1c0.2-0.2,0.6-0.3,0.8-0.5c0.1,0.1,0.1,0.1,0.2,0.2
			c-0.3,0.3-0.5,0.8-0.8,1c-1.1,0.8-2.2,1.6-3.3,2.4c-1.8,1.2-3.8,2-5.8,2.7c-1.9,0.6-3.9,0.7-5.8,0.9c-0.2,0-0.4,0-0.6,0.1
			c2.4,0.6,4.8,0.8,7.2,0.9c0,0.1,0,0.1,0,0.2c-0.9,0.2-1.8,0.4-2.7,0.4c-1.3,0.1-2.6,0.2-3.9,0.3c-0.7,0.1-1.3,0.4-2,0.4
			c-0.8,0-1.7-0.1-2.4-0.3c-0.8-0.2-1.6-0.6-2.4-0.9c-0.2-0.1-0.5-0.1-0.7-0.1c2.4,1.7,5.3,2.2,8,3c-1.6,0.1-3.1,0.2-4.7-0.2
			c-1.3-0.3-2.5-0.8-3.8-1.1c-0.6-0.2-1.3-0.2-2.1-0.3c1.2,1.9,3.1,2.6,4.7,3.6c0,0.1-0.1,0.2-0.1,0.2c-0.4-0.1-0.9-0.2-1.3-0.4
			c-1.4-0.6-2.7-1.3-4.1-1.9c-0.6-0.3-1.1-0.6-1.5,0.3c0,0.1-0.4,0.1-0.6,0c-0.1-0.1-0.2-0.4-0.3-0.5c-0.5-1.1-0.5-1.1-1.6-0.5
			c0.1,0.2,0.2,0.3,0.4,0.5c1.3,1.8,2.6,3.6,3.9,5.4c3,4.4,3.6,9.3,2.7,14.5c-0.6,3.2-1.9,6.1-3.7,8.7c-1.9,2.7-4.1,5.2-6.5,7.5
			c-3.3,3.1-7.1,5.4-11.4,6.5c-2.5,0.6-5,0.8-7.4-0.5c-0.3-0.1-0.5-0.3-0.8-0.6c0.2,0,0.5,0,0.7,0c2.5,0,5.1,0.1,7.6-0.1
			c1.1-0.1,2.3-0.5,3.4-1c5.1-2.8,9.4-6.6,12.4-11.6c3.5-5.8,4.1-12,1.7-18.4c-1.1-2.8-3-5-5.1-7.2c-0.7-0.8-1.5-1.5-2.3-2.3
			c-0.3,1-0.6,1.8-0.9,2.8c-0.6,0-1.1-0.3-1.2-0.9c-0.2-0.8-0.4-1.6-0.6-2.4c-0.2-0.6-0.3-1.3-0.6-1.8c-0.4-0.8-0.8-0.9-1.8-0.6
			c0.2,1.6,0.5,3.3,0.7,5c-0.1,0-0.2,0.1-0.3,0.1c-0.3-0.9-0.7-1.7-1.1-2.7c-0.2,0.5-0.4,0.9-0.6,1.2c-0.3,0-0.6,0-0.8,0
			c-0.1,0-0.1,0.1-0.2,0.1c-0.6-2.1-0.8-4.2,0.2-6.2c-0.7-0.4-1.4-0.1-1.7,0.8c-0.2,0.6-0.5,1.2-0.7,1.8c-0.5-0.3-0.8-0.5-1.2-0.8
			c0.2-0.6,0.3-1.3,0.5-2c-0.1,0-0.1,0-0.2-0.1c-0.3,0.4-0.5,0.7-0.9,1.2c0-1.5,1-2.3,1.4-3.2c-0.5-1.2-1-2.2-1.4-3.2
			c-0.4-0.8-0.6-1.7-1.7-2c0,0.5-0.1,0.9-0.1,1.3c-0.1,0-0.1,0.1-0.2,0.1c-0.4-2.4-2.2-3.5-4.3-4.3c0-0.1,0.1-0.1,0.1-0.2
			c0.3,0,0.7,0,1.1-0.1c-0.5-0.4-0.9-0.6-1.2-0.9c0,0,0-0.1,0-0.1c0.4,0.1,0.8,0.2,1.2,0.2c0.6,0,1.2,0,1.7-0.3
			c1-0.5,1.1-1.7,0.2-2.4c-0.1-0.1-0.3-0.1-0.5-0.1c-0.6,0-1.1,0-1.7,0c-0.3,0-0.5-0.1-0.9-0.2c0.7-0.5,1.3-1,1-2
			c-1.8,0-3.2-1.2-4.8-1.8V33.9z"/>
	</g>
</g>
</svg>
