<?xml version="1.0" encoding="utf-8"?>
<!-- Generator: Adobe Illustrator 27.9.0, SVG Export Plug-In . SVG Version: 6.00 Build 0)  -->
<svg version="1.1" id="Layer_1" xmlns="http://www.w3.org/2000/svg" xmlns:xlink="http://www.w3.org/1999/xlink" x="0px" y="0px"
	 viewBox="0 0 100 100" style="enable-background:new 0 0 100 100;" xml:space="preserve">
<g>
	<g>
		<path d="M62,57.9L61.7,58l-0.3,0.2l-0.3,0.4L60.9,59l-0.2,0.4l-0.1,0.4c0,0-0.4,1.3-0.4,1.6L60,61.3c0,0-0.9-2-1.1-2.4
			c-0.2-0.6-1.4-3.3-1.5-3.6c-0.1-0.3-0.2-0.6-0.2-0.6l-0.2-0.4L57,54L57,53.8l0-0.2l0.3-0.2l0.3-0.3l0.1-0.2l0.2,0l0.3,0l0.2,0
			l0.2,0l0.1-0.2l0.1-0.3l-0.1-0.3l-0.2-0.2l-0.1-0.2c0,0,1.8-1.6,3.3-3.8l0.2-0.2l0.1-0.1l0.3-0.2l0.2-0.2c0,0,0.4-1.3-0.6-1.9
			c0,0-0.6-0.3-1,0.3c-0.3,0.3-0.3,0.4-0.3,0.4l-0.2,0.2l-0.1,0.3l-0.1,0.3c0,0-2,3-2.6,3.5c-0.4,0.2-0.5,0.3-0.5,0.3l-0.1,0.3
			l-0.1,0.3l-0.1,0.2l-0.2,0.1l-0.1-0.2l0-0.4l-0.2-0.2l-0.3-0.2L56,50.3l0.1-0.5l0.1-0.5l0.1-0.6l0.2-0.5l0.2-0.6l0.1-0.5l-0.2-0.4
			l0.1-0.4l0.1-0.3l0.1-0.2l-0.1-0.3l-0.3-0.2l-0.3-0.2l0.2-1.4l0.1-0.3l0.1-0.3l0.1-0.3l0.2-0.2c0,0,2.3-0.6,3-0.5
			c0.7,0.2,2.2,0.4,2.2,0.4l0.6-0.1l0.4,0l0.3,0.1l0.4,0.1l0.4,0l0.3-0.1c0,0,1.1-0.5,1.4-0.4c0.4,0.1,0.8,0.1,0.8,0.1l0.4,0l0.4,0
			l0.2-0.2c0,0,0.2-1,0.2-1.7c0-0.8,0.1-4-0.2-4.8c-0.2-0.9-0.3-1.5-0.3-1.5l-0.1-0.5l-0.1-0.2l0.2-0.3l0.2,0l0.5,0
			c0,0,1.9-0.8,2.3-1.2c0.5-0.3,0.9-0.5,0.9-0.5l0.2-0.1l0.3-0.1l0.3-0.1l0.3-0.1l0.2-0.1l0.5,0.2l0.1,0.1l0.1,0.1l0.1,1.1l0,0.2
			c0,0,0.1,3.6,0,3.9c-0.1,0.4-0.1,0.4-0.1,0.4l-0.1,0.3l-0.2,0.6l-0.1,0.4l0.1,0.4l0,0.2l0.1,0.2c0,0-0.8,4-0.9,4.4
			c-0.1,0.4-0.2,0.2-0.2,0.2l-0.2,0.4l-0.2,0.6l-0.1,0.4l0,0.3l0,0.2c0,0-0.9,3-1.5,4l-0.1,0.1l-0.2,0.3l-0.2,0.5L69.2,51l-0.2,0.3
			L69,51.6l0,0.2L68.8,52c0,0-0.7,1.4-2.9,3.1c-0.1,0-0.4,0.1-0.4,0.1l-0.3,0.1l-0.3,0.2l-0.3,0.2L64.4,56l-0.2,0.1
			c0,0-1.7,1.3-2.1,1.7L62,57.9z M60.6,30.4l-0.3,0.4l-0.2,0.1l-0.2,0l-0.3,0.1l-0.2,0.2l-0.2,0.2c0,0-0.2,0.1-0.3,0.2
			c-0.1,0-1,0.3-1,0.3L56.9,32l-0.2,0c0,0-0.4-2-1.4-2.3c-0.5-0.2-0.7-0.5-1-0.4c-0.4,0.1-0.8,0.6-0.8,0.6s-0.5,0.3-0.6,0.4
			c-0.1,0.1-0.4,0.5-0.5,0.5c-0.1,0.1-0.7,0.8-0.7,0.8s-0.7,0.6-0.8,0.7c-0.1,0.1-0.5,0.3-0.5,0.3l-0.3,0.2l-0.4,0l-0.2-0.1
			l-0.1-0.2l0.5-1.3l0.1-0.6l0.1-0.5l0.1-0.3l0.1-0.1l21.4-7.4c0,0,0.5,0.5,0.5,1.5c-0.1,0.2-0.1,0.3-0.1,0.3l0.4,1l-0.1,0.2
			l-0.1,0.1c0,0-0.6-0.3-0.9,0c-0.3,0.3-0.4,0.5-0.4,0.5l-0.2,0.5l-0.2,0.5l-0.2,0.3l-0.1,0.3l-0.1,0l-0.2,0c0,0-0.9,0.6-1.2,0.7
			c-0.3,0-0.5,0.2-0.5,0.2L68,28.4l-0.2,0.2l-0.3,0l-0.4-0.1l-0.4,0.1l-0.5,0.2l-0.4,0.1l-0.4,0.1l-0.4-0.1l-0.4-0.1l-0.3,0L64,28.9
			L63.7,29L63,29.2l-0.5,0.1l-0.4,0l-0.3,0.2l-0.2,0.3l-0.8,0.3L60.6,30.4z M50.2,28.7l0.3-0.7l0-0.4l0-0.6c0,0-0.3-2.5-1.8-3
			c-1.5-0.5-4-0.9-5.5,0.9c-0.5,1-0.6,1.5-0.6,1.5L42.6,27l-0.1,0.7l-0.1,0.5l0,0.3l0,0.4l0,0.2L42,29L42,28.5c0,0-0.4-3.2-1.2-4.4
			l0-0.3l6.7-20.5l1.9,0.5c0,0,0.6,0,1.5-0.6c1-0.2,2.3-0.4,2.5-0.3c0.3,0.1,0.8,0.3,0.8,0.3l0.5,0l0.4-0.1L55.2,3l0.3-0.1
			c0,0,1.4-0.3,3.5,0.6l0.4,0.2L59.8,4l0.3,0.1l0.2-0.1c0,0,2,1.4,2.9,2.5l0.3,0.5l0.3,0.4l0.4,0.2l0.2,0.1c0,0,1.7,2.1,2.3,2.9
			c0,0.1,0,0.3,0,0.3l0.2,0.3l0.5,0.8l0.2,0.3l0.2,0.2l0.2,0.1l0.1,0.2c0,0,1.6,2.7,1.9,3.9c-0.1,0.4,0,0.5,0,0.5l0.5,1.1l0.2,0.2
			l0.1,0.1c0,0,0.8,2.5,0.9,3c-0.3,0.2-21.6,7.6-21.6,7.6L50.2,28.7z M43.6,34.4l-0.3,0.1l-0.3,0l-0.3-1.1l0.2-0.1l0.2-0.1l0.2-0.1
			l0.2,0l0.1,0.2l0.1,0.3l0,0.3l0.1,0.3l-0.1,0.3L43.6,34.4z M41.1,35.2l-0.8,0.2l-0.4,0l-0.3,0l-0.8-0.7c0,0,0.1,0.1,0.5-0.1
			c0.5-0.1,1-0.3,1-0.3l0.4-0.2l0.3-0.2l0.2,0l0.6,1.2L41.1,35.2z M38.5,35.2l-0.3,0.2l-0.2,0.3l0,0.6l-0.2,0.3c0,0-1.9,0.6-2.2,0.6
			c-0.5,0-1,0.2-1,0.2l-0.3,0.1l-0.8-0.3L33.3,37l0.3-0.3l0.4-0.1l0.4-0.1l0.3-0.1l0.4-0.1l1,0.2l0.3-0.1l0.3-0.2l0.1-0.3l0.3-0.2
			l0.2-0.1l0.2-0.2l0.1-0.2l0.3,0l0.2-0.2l0.2-0.2l0.1-0.2l0.8,0.7L38.5,35.2z M70.5,99L70.5,99l-0.1-0.3c0,0,0.1-0.1,0.1-0.5
			c0-0.4-0.7-1.5-0.7-1.5l0-0.2l0.1-0.1l-0.1-0.2l-0.1-0.2c0,0-0.1,0-0.1,0c0,0,0,0-0.1-0.4c0-0.3-0.2-1.8-0.5-2.1
			c-0.2-0.4-0.2-0.9-0.2-1.1c0.2-0.5-0.1-1.1-0.1-1.1l-0.1-0.2c0,0,0.2-0.2,0.2-0.2c0.4-1-0.9-1.8-1-2c0-1.7-0.8-5.7-0.8-5.7
			l0.2-0.2c1.8-0.9,1.9-1.7,1.9-1.7l0-0.2l-0.1-0.2l0-0.4l-0.2-0.3l-0.2-0.5L67.7,78c0,0-0.4-1.5-0.6-1.9c0-0.4-0.8-2.3-1.1-2.8
			c-0.3-0.5-1.7-3.5-1.7-3.5L64,69.5c0,0-0.2-0.1-0.3-0.3c-0.1-0.2-2.4-5.7-2.4-5.7l0-0.2c0,0,0.1-0.3,0.1-0.6
			c-0.6-1.1,0.2-2.6,0.2-2.6s0.2-0.3,0.5-0.5c0.3-0.2,0.7-1,0.8-1.2c0.4-0.4,1.9-1.3,1.9-1.3l0.2,0l1.2-0.7l0.1-0.2
			c0,0,0.1-0.2,0.3-0.3c2.3-1.7,3.5-3.8,3.5-3.8l0.1,0l0.3-0.3c0,0,0.7-1.4,0.7-1.4c0,0.1,0-0.2,0-0.4c0.4-0.5,1.7-4.2,1.7-4.2
			l0.3-0.2l0.4-1.4c0,0,0-0.3,0-0.6c0.3-0.9,0.9-4.2,0.9-4.2l0.1-0.3l0.3-0.5l0.2-1c0,0-0.1-0.5-0.2-0.8c0.1-0.9,0.4-4.1,0.4-4.1
			l0.1-0.3l0-0.3l0-0.5l-0.1-0.7l0.2-0.1c0,0,0.6-0.4,0.7-0.5c0.4-0.2,0.4-0.9,0.4-1.2c0.4-0.5,0-1.1,0-1.3c0.4-0.4-0.1-1.1-0.2-1.3
			c0.4-0.9-1-1.2-1-1.2l-0.2,0l-0.2,0.1c0,0-0.1,0.3-0.3-0.3c-0.2-0.6-0.8-3.7-0.8-3.7l7.2-2.8l-0.1-0.1l-0.2,0l-2.1,0.7L73.2,21
			l-1.3-2.8l0.2-0.2l-0.5-1.7l-0.5-0.3l-0.3-0.2l-1.9-3.7l0.3-0.2l-1.6-2.1L67.4,10l-2.2-2.8l0-0.2L64,5.6l-0.1,0l-2.7-2.5
			c-3.1-1.9-6.9-1.6-7.7-1.4c-0.8,0.2-3.3,0.6-4.6,0.6c-1.3,0-2.6-2.2-2.6-2.2L45.9,0l-0.1,0.1c-0.6,1.7,1.3,3,1.3,3l-6.5,20
			L40.2,23L40,22.9L40,23.1l-0.1,0.1l-0.2-0.3L39,21.6l-0.1,0.1l-0.1,0.4l-0.2,0.2l-0.2-0.3c0,0-0.5-1-0.9-2
			c-0.2-0.2-0.3-0.7-0.3-0.7l-0.2-0.2L36.8,19c0,0-0.1,0.1-0.1,0.5c0.4,0.5,1.1,3.1,1.1,3.1l-0.2,0l-0.5-1.1l-0.2-0.1l-0.1,0.2
			l0.4,1.2l-0.1,0.1l-0.2,0l0,0.3c0.3,2.1,3.6,8.5,3.6,8.5l-0.1,0.1l-0.3,0.1l-1.7,0.7l-0.3,0.2l0-0.2l1.1-3.3l-0.2,0l-1.2,3.1
			l-0.1,0.2l-0.3-0.2l-0.3-0.1l-0.5-0.1l-0.5,0.2l-0.1,0.2l-0.3,0l-0.5,0.2l-0.3,0.2l-0.4,0.3l-0.6,0.4L33.3,34L33,34.1
			c0,0-0.3,0.1-1,0.4c-0.7,0.2-2.5,0.7-2.5,0.7c-1.2,0.4-2.7,2-3.4,3.5c-0.6,1.4-0.6,5.4-0.5,5.5c0.1,0.1,0,0.3,0,0.3l-0.1,0.5
			l-0.2,0.4L24.8,46l-0.5,0.6L24.1,47l0.3,0.4l0.9,0.3c0,0,0.5,0,0.9-0.1c0.4-0.2,1.4-0.5,1.4-0.5l0.4-0.1c0,0,0.4,0,0.4,0
			c0.1,0,0.3-0.1,0.5-0.1c0.2-0.1,0.5,0.1,1.7-0.1c1.1,0,2.3-0.6,2.3-0.6l0.4-0.1l0.4,0.1c0,0,0.3,0,0.7,0c0.4,0,2.4-0.4,3.5-0.5
			c1.2,0.3,2.7,0,2.7,0s0.3,0,0.3,0.1c0,0.1,0.3,1.1,0.7,1.5c0.2,0.2,0.3,0.5,0.3,0.5l-0.1,0.3l-0.2,0.1L41.4,48
			c0,0-0.2,0.4-0.2,0.5c0,0.1,0.3,0.2,0.3,0.2l0.3,0.2l0.3,0.4l0.1,0.3l0,0.4c0,0,0.1,0.4,0.4,0.8c0.4,1.1,0.4,2.3,0.4,2.3
			s0,0.2-0.3,0.2c-0.3,0-2.6,0.9-3.1,1.1c-0.5,0.2-1.6,0.6-3.3,1c-1.5,0.2-8.1,2.7-9,3.2c-0.7,0.4-3.1,4-3.9,5.7
			c-0.7,1.2-3.5,6.3-4.1,7.8c0,1.3,1.4,0.8,1.4,0.8l0.3-0.3c0,0,0.2-0.4,0.3-0.5c0.1-0.1,0.4-0.6,0.4-0.7c0-0.1,0.5-0.7,0.6-0.8
			c0.1-0.1,1.4-2,2.8-4.4c1.5-2.4,1.4-1.9,1.9-1.9c0.4,0,0.5,1.3,0.5,1.3l0.1,0.4c0,0,0,0.5-0.1,0.7c-0.1,0.2-0.1,0.6,0,1.2
			c-0.1,0.6,0.5,0.7,1,1c0.2,0.6,1.3,0.9,1.3,0.9l0.3,0c0,0,0.2,0,0.3,0c0.1,0,0.2,0.1,0.3,0.2c0.1,0.1,1.9,4.2,1.9,4.2l0,0.3
			l-0.2,0.2l-0.2,0.4c0,0-0.2,0.4-0.5,1c-0.3,0.6-0.9,1.1-0.9,1.1s-0.2,0-0.5,0.2c-0.3,0.2-1.1,0.4-1.6,0.4c-0.4,0-1.1,0.3-1.1,0.3
			l-0.2,0.3c0,0-0.1-0.1-0.6,0.4c-0.4,0.9,1.3,1.3,1.8,1.4c0.3,0.1,1.9,0.3,3,0.2c1-0.2,4.5,0,4.5,0l0.7,0.1l0.4-0.1l0.1-0.3
			l0.1-0.3l0-0.2l-0.2-0.1c0,0,0.1,0,0-0.2c0.7-1.2,0.2-2.1,0.2-2.1l0-0.2l0-0.2l0-0.3l-0.1-0.2l-0.2-0.2l-0.1-0.1L37,75.9
			c0,0-0.1-0.5-0.1-0.6c0.2-0.5-0.3-1-0.3-1.1c-0.3-0.3-0.6-2.2-0.7-2.9c0-1.2-0.3-2.6-0.3-2.6l0.1-0.2l0.2-0.4l0.1-0.3
			c0,0,0.1-0.2,0.2-0.6c0.2-1.1-1.1-2.3-1.1-2.3l0-0.1l0-0.2c0,0,0-0.1,0.1-0.2c0.1,0.1,1.5-0.2,1.5-0.2l0.4-0.1l0.3,0l0.3,0
			l0.5-0.2l1.1-0.3c0,0,0.5-0.2,1-0.2c1.3,0.2,7-1.2,7.2-1.2c0.1,0.1,1.1,0,1.1,0s0.3,0,0.5,0.1c0.1,0.1,1.1,1.5,1.6,2.1
			c0.2,0.2,1.4,2,1.9,2.6c0.2,0.3,1,1.3,1,1.3l0.1,0.2l0.1,0.3l0.4,0.6l0.1,0.4l0.2,0.5c0,0,0.3,0.1,0.7,0.5c-0.1,1,2,5.4,2,5.4
			s0.2,0.5,0.4,1.5c-0.2,2,1.4,4.6,2,4.9c0.5,0.1,1.4,0.2,1.7,0.3c0.1,0.9,1.4,3.4,1.8,3.9c0.3,0.3,1.5,3.1,1.5,3.1l-0.1,0.2
			l-0.1,0.2l0.1,0.3l0,0.3l0.5,0.2l0.1,0.3l-0.1,0.5l0.1,0.5l0.1,0.3l0,0.3l0,0.2l-0.2,0.1l-0.2,0.2l0,0.4l0.3,1l0.1,1l0,0.4
			l0.2,0.1c0,0,0,0.4,0.2,0.5c0.1,0.1,0.7,2.1,0.7,2.1s1.1,0.4,2.4,0.9c1.3,0.2,1.8-0.6,1.8-0.6L70.5,99z"/>
	</g>
</g>
</svg>
