<?xml version="1.0" encoding="utf-8"?>
<!-- Generator: Adobe Illustrator 27.9.0, SVG Export Plug-In . SVG Version: 6.00 Build 0)  -->
<svg version="1.1" id="Layer_1" xmlns="http://www.w3.org/2000/svg" xmlns:xlink="http://www.w3.org/1999/xlink" x="0px" y="0px"
	 viewBox="0 0 100 100" style="enable-background:new 0 0 100 100;" xml:space="preserve">
<path d="M79.7,63.9c-0.9-0.7-1.7-1.3-2.6-1.9c-0.3-0.2-0.8-0.5-1.1-0.5c-1,0-1.6-0.2-2-1.2c-0.6-1.3-1.4-2.3-2.5-3.3
	c-1.7-1.6-2.5-3.7-2.8-6c-0.1-0.7-0.2-1.5-0.6-2c-1.4-2.2-1.4-4.4-0.3-6.7c0.3-0.7,0-1.5-0.7-1.8c-0.8-0.4-1.5-0.8-2.3-1.2
	c-1,1.4-2.2,2.9-3.2,4.4c-0.3,0.4-0.1,1.4,0.1,1.9c0.5,0.8,0.3,1.5,0,2.3c-0.2,0.6-0.2,1.5,0,2c0.3,0.7,0.6,1.2-0.1,1.9
	c-0.3,0.3-0.3,1.2-0.1,1.6c1.2,2,1.2,4.1,0.6,6.3c-0.1,0.3-0.5,0.6-0.9,1c0.4,1.3,1,2.8,1.4,4.3c0.2,0.7,0.4,1.4,0.5,2.1
	c0.1,0.9,0.3,1.8-0.6,2.5c-0.2,0.2-0.4,0.5-0.4,0.8c-0.1,2.6-0.2,5.2-0.3,7.8c0,0.2,0,0.5,0.1,0.5c1,0.5,0.6,1.4,0.6,2.2
	c-0.2,1.7-0.1,3.4-0.4,5.1c-0.2,1.2,0,2.3,0.3,3.5c0.2,0.8,0.7,1.2,1.6,1.4c0,0,0.1,0.2,0.1,0.4c0.1,0.4,0.3,1,0.1,1.2
	c-0.5,0.5-1,1-1.9,0.8c-1.2-0.3-2.4-0.4-3.5-0.7c-0.6-0.2-1.2-0.5-1.2-1.3c0.2-4.7-1.7-9-2.6-13.5c-0.3-1.3-0.5-2.5,0.5-3.7
	c0.2-0.2,0.2-0.7,0-0.9c-1.3-2.1-2.6-4.3-4-6.3c-0.3-0.5-1-0.8-1.5-0.9c-2.8-0.6-5.5-0.4-7.8,1.4c-1.3,1-2.2,2.6-3.1,4
	c-0.9,1.3-1.5,2.8-2.2,4.3c-0.2,0.4-0.3,0.9-0.1,1.2c1,1.7,0.8,3.5,0.9,5.3c0.1,1.3,0.1,2.6,0.2,3.8c0,0.5,0.4,1,0.5,1.4
	c0.2,0.5,0.4,0.9,0.4,1.4c0,1-0.2,2.1-0.3,3.1c-0.1,0.9-0.7,1.4-1.4,1.5c-1.1,0.2-2.3,0.1-3.4,0c-0.3,0-0.5-0.3-0.9-0.6
	c2-0.7,1.5-2.2,1.2-3.3c-0.6-1.9-1.4-3.8-2.2-5.7c-0.3-0.8-0.8-1.4-0.6-2.4c0.1-0.8-0.4-1.7-0.6-2.5c-0.2-0.8-0.6-1.6-0.7-2.4
	c-0.1-0.8-0.1-1.7-0.1-2.6c0-1.6,0.1-3.1-0.2-4.7c-0.3-1.4,0.1-2.9,0.2-4.4c0-0.3,0.1-0.7,0.3-1c0.2-0.3,0.4-0.9,0.6-0.9
	c1.2,0,0.9-0.9,1.2-1.5c0.1-0.2,0.1-0.3,0.1-0.5c0.3-0.9,0.4-1.6-0.4-2.4c-0.4-0.4-0.5-1.2-0.6-1.9c-0.1-0.8-0.2-1.5-0.1-2.3
	c0.1-0.5,0.5-0.9,0.7-1.3c0.2-0.4,0.4-0.8,0.4-1.2c-0.1-1.3-0.3-2.6-0.5-3.9c-5.7,0.8-7.5,0.5-9.6-1.6c-0.2,0.3-0.4,0.6-0.6,0.8
	c-1.8,2-3.6,4-5.4,6c-1,1-1.1,1-0.4,2.3c0.1,0.2,0.3,0.5,0.5,0.8c0.5-0.6,0.9-1.5,1.9-1c0.2,0.1,0.4,0.2,0.5,0.3
	c0.2,1,0.7,1.9,0.6,3.1c-0.3,2.4-0.3,4.9-0.2,7.4c0,1.6,0.3,3.1-1.1,4.2c-0.1,0.1-0.2,0.2-0.2,0.3c-0.5,1.5,0.2,3.9,1.6,4.6
	c1.7,0.9,1.7,2.3,1.6,3.8c0,0.2-0.1,0.3-0.1,0.5c0.7,2.1-0.6,3.3-2,4.6c1.3,0.8,1.5,2.2,1.4,3.5c-0.1,1.3-0.5,2.7-1.9,3.3
	c-0.4,0.2-1,0-1.4,0c-0.3,0-0.7,0.1-0.8,0.3c-0.7,1-0.9,1-1.9,0.4c-0.7-0.4-1.2-0.9-1.8,0.1c-0.1,0.2-1.1,0-1.7-0.2
	c-0.4-0.1-0.7-0.6-1-0.9c-0.5,1.1-1.3,1.4-2.3,0.5C6,90.8,5.3,90,4.5,89.2C4.4,89.1,4.3,89,4.4,89c0.4-1.7-0.8-2.8-1.4-4.2
	c-0.1-0.2,0-0.4,0.1-0.7c0.1,0.2,0.2,0.4,0.4,0.7c0-0.1,0.1-0.2,0.1-0.3c-0.3-1.6-0.6-3.2-0.9-4.7c-0.1-0.8-0.3-1.6-0.3-2.4
	c-0.1-2.4-0.2-4.8-0.4-7.2c0-0.3,0-0.7-0.2-0.8c-1.1-0.8-1-2.1-1.1-3.2c-0.2-1.7-0.4-3.5-0.5-5.2c0-0.3,0-0.6,0.2-0.8
	c0.9-0.8,0.7-1.7,0.6-2.7c-0.1-0.6-0.2-1.3,0.1-1.7c0.6-1,0.5-1.9,0.4-2.9c-0.1-0.7,0-1.5-0.2-2.2c-0.5-2,0.9-3,2.4-4.1
	c0.7,1.5,1.4,2.9,2.2,4.4c0.4-0.5,0.7-0.9,0.4-1.7c-1-2.5-0.5-5.7,1.3-7c0.7-0.5,0.9-1.1,1.2-1.8c0-0.1,0.1-0.3,0.1-0.4
	c-0.8-1.9,0.7-3,1.5-4.3c0.5-0.9,1.3-1.5,2-2.3c1.8-1.9,3.4-3.9,3.8-6.6c0-0.1,0-0.3,0.1-0.4c0.9-1.8,0.2-3.4-0.6-4.9
	C15.1,21.3,15,21.1,15,21c0-0.3-0.1-0.7,0-0.8c0.2-0.1,0.7-0.2,0.9-0.1c0.8,0.5,1.6,1.2,2.4,1.8c1.6-2.2,3.3-4.5,4.9-6.7
	c0.1,0,0.3,0.1,0.4,0.1c0.1,0.3,0.4,0.7,0.4,1c-0.1,0.9,0.5,0.9,1,0.8c0.6-0.2,1.2-0.5,1.9-0.6c0.7-0.1,1.5-0.1,2.2-0.2
	c0.5-0.1,1.1-0.1,1.6-0.3c1.9-0.8,3.7-1.8,5.6-2.6c0.5-0.2,1.1-0.3,1.6-0.3c1.7-0.2,3.3-0.2,5-0.4c0.4,0,0.8-0.4,1-0.7
	c1-1.6,2.3-2.8,4.4-2.6c1.8,0.1,3.5,0.6,4.9,1.8c0.5,0.5,0.9,0.5,1.6,0.2c1.9-0.7,3.2-2.2,4.3-3.8C59.5,7,60,6.5,60.6,6.2
	c-0.2,2.5-1.3,4.6-2.3,6.8c-1,2.1-2.3,4.1-3.3,6.2c1-1.5,2.1-3,3-4.3c1,0.6,1.7,1.2,2.5,1.7c0.9,0.7,1.9,1.3,2.8,2
	c1.4,1,2.7,1.9,4.6,1.7c0.6-0.1,1.3,0.1,2,0.2c0-0.5,0-0.9,0.1-1.4c0.2-0.8,0.6-1.2,1.5-1.1c0.8,0.1,1,0.7,0.9,1.4
	c0,0.2,0,0.4,0,0.6c0.7,1.5,1.3,2.9,2,4.4c0.1,0.2,0.3,0.3,0.4,0.4c0.9,0.3,1.6,0.8,1.6,1.9c0,1.2,0.3,2.5,0.4,3.7
	c0,0.4-0.1,0.8-0.3,1.1c-0.4,0.7-0.7,1.3-0.3,2.1c0.1,0.3-0.1,0.7-0.2,1c-0.5,0.9-0.3,1.5,0.6,1.9c1.2,0.6,1.7,1.6,1.6,3
	c0,0.4,0.4,0.8,0.7,1.1c0.4,0.5,1.1,0.9,1.4,1.5c0.2,0.3,0,0.9-0.1,1.5c0.3-0.1,0.6-0.4,0.9-0.4c0.5-0.1,0.9,0,1.4,0
	c0,0.4-0.1,0.7-0.1,1.2c0.9,0.4,1.8,1.3,3.2,1c0.3-0.1,0.8,0.5,1.2,0.8c0.3,0.2,0.4,0.6,0.6,0.8c0.8-0.1,1.5-0.2,2.2-0.3
	c0.2,0,0.5,0.3,0.6,0.5c1.3,1.8,2.5,3.6,3.7,5.5c0.6,0.9-0.4,1.1-0.7,1.8c0.5,0.6,1.1,1.3,1.7,1.9c0.2,0.2,0.6,0.1,0.8,0.2
	c0.4,0.1,1,0.1,1.2,0.4c0.9,1,1.6,2.1,2.3,3.2c0.2,0.3,0.2,0.8,0.1,1.2c-0.2,0.9-0.8,1.6-0.5,2.6c0.1,0.5-0.3,1.2-0.5,1.8
	c0.3,0.3,0.8,0.6,1.1,1c0.9,0.9,0.6,2.2-0.5,2.7c-0.4,0.2-0.6,0.6-0.9,0.8c-1.1,1-2.2,1.9-3.4,2.9c-0.8,0.7-1.4,0.6-2-0.3
	c-0.3-0.5-0.6-1-1-1.6c-1.3,1-2.6,0.3-3.8,0c-0.2,0-0.3-0.2-0.5-0.1c-1.1,0.4-2-0.2-2.7-0.8c-1.2-1.2-2.3-2.4-3.4-3.7
	c-0.3-0.3-0.7-0.7-1.1-1C79.2,65,79.6,64.3,79.7,63.9z M25.6,39.9c-0.3,0.3-0.6,0.6-0.9,1c-1.7,2.2-1.6,3.6,0.6,5.4
	c1.9,1.6,2.7,1.6,4.7,0.1c1.1-0.8,1.2-2.3,0.1-3.2C28.7,42.1,27.2,41,25.6,39.9z M70.6,46.6c-1.3,2.3-0.8,4.6,1.6,6.6
	c0.4,0.3,1.1,0.2,1.6,0.3c0-0.6,0-1.1-0.1-1.6c-0.1-0.4-0.5-0.7-0.7-1c-0.3-0.5-0.7-1.1-0.7-1.6C72.2,48,71.3,47.3,70.6,46.6z
	 M68.5,43c-0.7,2-0.9,3.8,0.4,5.5c0.4-0.8,0.8-1.6,1.2-2.4c0.1-0.1,0-0.4-0.1-0.5C69.5,44.8,69.1,44,68.5,43z M70.1,52.3
	c0.6,2.7,1.9,4.5,3.7,5.5c-0.5-1.3-2.4-1.9-1.7-3.7C71.5,53.5,70.9,52.9,70.1,52.3z M25.1,47.6c-0.7-0.8-1.5-1.7-2.5-2.7
	c-0.1,0.4-0.3,0.9-0.2,1.1C23.1,47,24.2,47.5,25.1,47.6z M73.3,49c-0.1,0.1-0.1,0.2-0.2,0.3c0.3,0.5,0.3,1.5,1.5,0.7
	C74.1,49.6,73.7,49.3,73.3,49z"/>
</svg>
