<?xml version="1.0" encoding="utf-8"?>
<!-- Generator: Adobe Illustrator 27.9.0, SVG Export Plug-In . SVG Version: 6.00 Build 0)  -->
<svg version="1.1" id="Layer_1" xmlns="http://www.w3.org/2000/svg" xmlns:xlink="http://www.w3.org/1999/xlink" x="0px" y="0px"
	 viewBox="0 0 100 100" style="enable-background:new 0 0 100 100;" xml:space="preserve">
<g>
	<path d="M99.9,29.9c0.7,2.7-4.2,4.6-5.7,3.8c-1.1-0.6-1.7-1-1.7-1l-0.7-4.1c0,0,1.5-0.5,4.2-0.9C98.6,27.4,99.9,29.9,99.9,29.9z"/>
	<path d="M75.2,29.4l-0.6-0.5l0,0l0,0L73.4,28l0,0c-2.6-2.1-3.9-4-3.3-6.6c0.7-3,4.5-4.1,4.5-4.1l-1.2,1.6c-2.8,3.4,1.8,5.5,1.8,5.5
		l1.8,0.6c0,0,4.1-3.2,9.8-1.3l1.7,0.8l1.2-0.6c3.9-1.3,1.4-7.5,1.4-7.5s1.8-0.3,3.4,3.9c1.5,4.1-4.1,7.8-4.1,7.8l0.8,4.9
		c0,0-1.8,10-2,11.4c-0.2,1.4,1.4,2.2,0.7,4.5s-8.1,3.5-10.3,0c0,0-0.3-2-1.2-3.3c-2.6-3.3-3.2-4.7-3.2-12.2v-4L75.2,29.4z M90,33.9
		c0,0-0.6-0.8-1.5-0.5c-0.9,0.3-1.1,1-1.1,1C88.9,36.5,90,33.9,90,33.9z M82.5,49.1c0.1,0.1,0.1,0.2,0.1,0.2c0.2,0.4,0.5,0.7,1,0.8
		c0.7,0.2,2,0.2,4.1-0.2c0.3-0.1,0.5-0.3,0.5-0.5c0.2-0.6,0.6-1.8,0.5-2.7c-0.1-1-1.3,0-3.2,0c-1.8,0-3.1-0.9-3.6,0.1
		C81.4,48,82.2,48.8,82.5,49.1z M79,34.7c0,0-0.2-0.7-1.1-1s-1.5,0.5-1.5,0.5S77.5,36.8,79,34.7z"/>
	<ellipse transform="matrix(0.6377 -0.7703 0.7703 0.6377 -6.9399 81.7073)" cx="83.4" cy="48.2" rx="0.6" ry="1.1"/>
	<ellipse transform="matrix(0.4585 -0.8887 0.8887 0.4585 4.7379 103.8255)" cx="87.6" cy="48" rx="1.1" ry="0.5"/>
	<path d="M74.2,30.1v3.6c0,0-1.7-0.5-2.6-0.3c-0.9,0.2-1.5,0.9-3.8,0.3c-1.1-0.3-1.9-1.1-2.4-1.7c-0.5-0.7-0.4-1.6,0.1-2.2
		c0.8-0.8,2-1.8,3.9-1.5c3.1,0.4,3.5,1,3.5,1L74.2,30.1z"/>
	<path d="M1.6,59.7c0,0-2.3-2.8-1.4-4.3C1.1,54,1,51,1,51c-0.9-9.3-0.9-16.7-0.6-21s5.7-5.3,5.7-5.3c5.9-2,17.1-0.6,27-1.2
		c10-0.6,15.5-0.3,20-0.8c4.5-0.4,9.1-2.7,15.2,1c0,0-0.1,2,2.1,3.5c0,0-4.4-1.5-6.8,2.9c0,0-1.3,3.4,3.9,5.3c0,0,1.2,0.2,2.3,0.1
		c0.4,0,0.8-0.1,1.2-0.3c0.5-0.2,1.7-0.5,2.4,0.5c0,0-0.1,6.3,2.9,10L75.2,48c0,0-0.6,0.7-1.3,4.4c-0.7,3.7-5.6,7.1-8.5,6.7l1.4-5.5
		c0,0-2.2,2.4-3.1,7.6c-0.8,5.1-0.2,7.3-1.2,9.2c0,0-1,4.7,0,9l2,3.4c0,0-2.9,1.1-5.5,0.3l-0.4-1.7l-0.1-0.1
		c-0.6-0.6-0.8-1.5-0.6-2.4c0.1-0.2,0.1-0.5,0.1-0.8c0-1.2,0.1-5.9-0.4-7.7c-0.6-1.8-1-5.6-1.3-8.4c-0.2-1.9-0.7-3.9-1.5-5.6
		c-0.3-0.7-0.6-1.3-0.8-1.9l1,5.5c0,0-4.1,0-7.8,0.4S32.4,64.5,23.4,60l-6.9-3.5c-1.2-0.6-2.9-0.2-3.6,1c-0.5,0.9-1.1,2-1.7,3.7
		c-0.8,2.3-1.2,4-1.6,5.4c-0.7,2.7-0.8,5.5-0.3,8.3c0.4,2.1,1.1,4.4,2.1,5.1l1.5,2.2c0,0-1.4,1.5-4.4,1.2l-2.1-0.4
		C6,83,5.9,82.7,5.9,82.4C6,81.9,6,81,5.8,79.2c0,0-1.2-0.2-1.4-2.2c-0.2-2-1-7.9-2.9-12.9C1,62.8,5.2,58,4,49.4
		c-0.5-3.6-1.2-8.1-1.5-12.2l0,0c0,0-0.1,8.9-0.1,11s0.7,6.6,0.7,6.6C2.6,57.5,1.6,59.7,1.6,59.7z"/>
	<path d="M12,76.2l-1.7-5.8c0,0,1.5-8.3,4.2-12.3c0,0,0.8-0.6,2.4,0c0,0-2.2,5.3-2.8,8.5c-0.4,3.2,3.5,10.7,3.5,10.7
		s1.4,1.5,0.8,1.5c-0.6,0-2.7,0.8-4.3,0l-1.4-1.8L12,76.2z"/>
	<path d="M64.6,71.8c0.7-1.8,0.3-5.2,0-6.8c-0.3-1.7,0.4-4,0.4-4s3.2,0,5.8-2.2c0,0-0.9,6.6-0.8,7.1c0.1,0.6-0.5,1.7-1,2.8
		c-0.6,1-1,8.3-0.7,8.9s1.2,2.2,1.2,2.2s-2.4,0.8-4.4,0c0,0-0.5-2-1.1-2.8C63.4,76.2,63.9,73.6,64.6,71.8z"/>
</g>
</svg>
