<?xml version="1.0" encoding="utf-8"?>
<!-- Generator: Adobe Illustrator 27.9.0, SVG Export Plug-In . SVG Version: 6.00 Build 0)  -->
<svg version="1.1" id="Layer_1" xmlns="http://www.w3.org/2000/svg" xmlns:xlink="http://www.w3.org/1999/xlink" x="0px" y="0px"
	 viewBox="0 0 100 100" style="enable-background:new 0 0 100 100;" xml:space="preserve">
<path d="M43.4,79.9c0-0.8,0-1.6,0.2-2.3c0.2-0.6,0-1.2,0.1-1.8c0-0.2,0.1-0.4,0.1-0.6c0-0.5,0.1-1,0.1-1.5c0-0.4,0-0.8,0.4-1.1
	c0.7-0.6,0.7-1.4,0.6-2.2c-0.1-0.6-0.1-1.1-0.2-1.7c0-0.3-0.2-0.6-0.2-0.9c0-0.3,0-0.6,0.1-0.9c0.3-0.7,0.5-1.4,0.5-2.1
	c0.5,0.8,1,1.6,1.5,2.4c0,0.5,0,0.9,0,1.4c0,0.3,0.2,0.5,0.3,0.8c0.1,0.4,0.2,0.8,0.3,1.2c0.1,0.2,0.2,0.5,0.3,0.6
	c0.2,0.3,0.2,0.5,0,0.7c-0.8,0.9-0.7,2-0.5,3c0.1,0.4,0.3,0.8-0.2,1.1c0,0,0,0.2,0,0.3c0.2,0.7,0.3,1.4,0.2,2.1
	c-0.2,2.3-0.1,4.5,0.2,6.8c0.1,1,0.3,2,0.4,3.1c0,0.3-0.1,0.4-0.3,0.4c-0.2,0-0.5,0.1-0.7,0.2c-0.1,0.1-0.2,0.2-0.3,0.3
	c0.1,0.1,0.3,0.3,0.4,0.3c0.4,0,0.8,0,1.1,0c0.1,1,0.2,1.9,0.3,2.9c0,0.4-0.1,0.8-0.2,1.1c-0.1,0.2-0.2,0.4,0.1,0.6
	c0.1,0.1,0.2,0.4,0.2,0.6c0,0.3-0.1,0.6-0.2,1c-0.3-0.9-0.6-1.8-1-2.7c-1.4-3.3-2.8-6.6-4.1-9.9c-0.2-0.5-0.2-0.7-0.1-1.3
	c0.3,0,0.6-0.1,0.8,0.3c0.1,0.1,0.3,0.2,0.5,0.1c0.7-0.2,1.1,0.1,1.5,0.6c0,0,0,0,0.1,0c0.1-0.4,0-0.7-0.4-1
	c-0.3-0.2-0.6-0.3-0.9-0.3c-0.4-0.1-0.7-0.3-0.6-0.8c0-0.2,0-0.3,0-0.5c0,0-0.1,0-0.1,0C43.6,80.3,43.4,80.1,43.4,79.9 M33.5,63.2
	c-0.7-1.6-1.5-3.2-2.2-4.8c-0.2-0.4-0.1-0.6,0.3-0.8c0.2-0.1,0.4-0.3,0.5-0.4c0.1-0.1,0.3-0.2,0.4-0.3c0.6-0.1,1.2-0.2,1.9-0.3
	c0.2,3,0.4,6,0.2,9C34.3,64.9,33.9,64.1,33.5,63.2 M35,35.9c0-0.4-0.1-0.8-0.1-1.2c0-0.5,0.1-1.1,0.1-1.6c0-0.2,0-0.3,0-0.5
	c0.6,1.3,0.8,2.6,0.8,3.9c0,0.8-0.1,1.6-0.5,2.4c-1,2.6-1.8,5.3-1.8,8.1c0,1.2-0.1,2.5-0.2,3.7c0,0.3,0,0.6,0.3,0.7
	c0.1,0,0.1,0.2,0.1,0.4c-0.1,0.6-0.1,1.2-0.2,1.8c0,0.1,0.1,0.4,0.2,0.4c0.5,0.3,0.8,0.7,0.6,1.3c0,0.2,0,0.4,0,0.6
	c-0.7,0.1-1.3,0.2-1.8,0.3c-0.3-0.7-0.6-1.3-0.9-2c-0.1-0.3-0.1-0.6,0.2-0.8c0.5-0.3,0.9-0.7,1.4-1c0.3-0.2,0.3-0.4,0-0.6
	c-0.5-0.2-0.5-0.5-0.5-0.9c0-0.6,0.1-1.3,0.1-1.9c0-0.1,0-0.3-0.1-0.4c-0.3-0.1-0.2-0.3-0.2-0.5c0.4-1.6,0.8-3.2,1.2-4.8
	c0.1-0.2,0-0.5,0-0.7c0-0.2,0-0.3,0-0.5c0-0.4,0-0.8,0-1.1c0-0.2-0.1-0.4,0-0.5c0.1-0.3,0-0.5-0.2-0.7c-0.3-0.2-0.3-0.6-0.3-0.9
	c1.1-0.1,1.3-0.8,1.6-1.9c0-0.1,0.1-0.3,0.2-0.4c0.1,0,0.1,0,0.2,0C35.1,36.3,35,36.1,35,35.9 M45.7,0c-1.1,0-2.2,0.2-3.2,0.6
	C42.1,0.8,42,1,41.9,1.4c-0.1,0.4-0.1,0.7-0.2,1.1c-0.6,1.6-1.2,3.2-1.8,4.8c-0.1,0.4-0.2,0.7-0.3,1.1c-0.3,2.1-0.6,4.1-0.8,6.1
	c-0.3,0.1-0.4,0.2-0.6,0.3c-0.8,0.5-1.3,1.3-2.2,1.6c-0.1,0-0.1,0.1-0.2,0.1c-0.2,0.2-0.4,0.4-0.7,0.5c-2.4,1.2-4.9,2.4-7.4,3.6
	c-0.7,0.3-1.1,0.8-1.5,1.4c-0.1,0.2-0.2,0.4-0.3,0.6c-1.3,2.4-2.6,4.8-3.9,7.2c-0.1,0.1-0.1,0.3-0.2,0.4c0.2,0.1,0.4,0.2,0.6,0.4
	c0.7,0.5,1.4,1,2.1,1.5c0.7,0.5,1.3,1.1,2,1.6c0.3,0.2,0.6,0.4,0.6,0.9c0,0.1,0.2,0.2,0.2,0.3c0,0,0.1,0,0.1,0
	c-0.1,0.3-0.2,0.6-0.3,0.8c-0.6,0.8-1.1,1.6-1.7,2.4c-0.3,0.4-0.4,0.8-0.1,1.2c0.4,0.6,0.8,1.1,1.1,1.7c0.1,0.1,0.2,0.3,0.2,0.5
	c0.1,1.9,0.2,3.9,0.3,5.8c0,0.1,0,0.2,0,0.3c-0.2,0.3-0.4,0.7-0.7,1c-0.1,0-0.3-0.1-0.5-0.2c0.1,0.2,0.1,0.4,0.2,0.5
	c0,0.2,0.1,0.3,0.1,0.5c0,0-0.1,0-0.1,0c0-0.1-0.1-0.3-0.1-0.4c-0.2-0.4-0.3-0.8-0.5-1.1c-0.3-0.4-0.6-0.5-1-0.2
	c-0.3,0.2-0.5,0.6-0.8,0.9c-0.4,0.6-0.3,1.1,0.4,1.5c0.6,0.3,1.1,0.8,1.4,1.5c0.2,0.3,0.3,0.7,0.5,1c0.2,0.4,0.2,0.7-0.2,0.9
	c-0.2,0.1-0.4,0.2-0.6,0.4c-0.9,1.6-0.5,3.8,1,4.9c0.3,0.2,0.6,0.3,1,0.5c0.3,0.1,0.7,0.2,1,0.3c-0.1,0.2-0.2,0.4-0.4,0.5
	c-0.7,1.1-1.1,2.2-1.3,3.5c0,0.2-0.1,0.5,0.2,0.6c0.3,0.1,0.5,0,0.6-0.3c0.3-0.8,0.5-1.6,0.8-2.4c0.2-0.6,0.5-1.2,1-1.7
	c0.2,0.4,0.4,0.8,0.6,1.2c1.4,3,2.7,6,4.2,9c0.4,0.9,0.6,1.8,0.6,2.8c-0.1,1.3-0.1,2.7,0,4.1c0,0.2,0.2,0.5,0.3,0.7c0,0,0.1,0,0.1,0
	c0.1-0.1,0.1-0.3,0.2-0.4c0.1,0.3,0.1,0.6,0.1,0.8c-0.1,1-0.2,2-0.2,3c0,0.4-0.2,0.8,0.3,1c0,0,0,0.2,0,0.2c0.1,2.2,0.3,4.4,0.4,6.6
	c0.1,1.3,0,2.6,0,3.9c0,0.3,0,0.6,0.3,0.9c0.1,0.1,0,0.2,0,0.4c-0.1,0.7-0.3,1.4-0.4,2.1c0,0.2-0.1,0.4-0.2,0.5
	c-0.4,0.5-0.9,1-1.4,1.5c-0.6,0.6-0.4,1.4,0.4,1.7c0.1,0,0.2,0,0.2,0.1c1.2,0.3,2.3,0.3,3.5,0.1c0.6-0.1,1.2-0.2,1.6-0.8
	c0.2-0.3,0.5-0.5,1-0.5c0.7,0,1-0.4,0.8-1.1c0-0.1,0-0.2-0.1-0.3c0.2,0.1,0.3,0.1,0.4,0.2c0,0,0.1,0,0.1,0c-0.8-2.1-0.6-4.2-0.2-6.3
	c0.5,0.3,0.6,0.9,0.4,1.4c-0.2,0.4-0.4,0.9-0.2,1.5c0.5-0.7,0.9-1.3,0.9-2.1c0-0.6-0.1-1.1-0.6-1.5C42.2,90,42,89.8,42,89.5
	c0-0.7,0.1-1.4,0.1-2.1l0.1,0c0.9,2,1.8,4.1,2.8,6.1c0.5,1.2,1,2.3,1.6,3.4c0.2,0.4,0.5,0.7,0.9,1c0.4,0.4,0.8,0.2,1-0.2
	c0.1,0,0.2,0.1,0.3,0.1c1.1,0.3,2.3,0.5,3.4,0.1c0.5-0.2,1.1-0.2,1.6-0.2c1.2,0.1,2.3,0.4,3.5,0.5c1.2,0.2,2.5,0.1,3.7-0.1
	c0.2,0,0.4-0.1,0.4-0.2c0.3-0.4,0-1.1-0.4-1.2c-0.2-0.1-0.4-0.1-0.6-0.2c-1.1-0.3-2.2-0.8-3.1-1.6c-0.9-0.7-1.8-1.3-2.6-1.9
	c0,0,0-0.1,0.1-0.1c0.1,0,0.2-0.1,0.3-0.1c-0.1-4.3-0.3-8.6-0.4-12.8c0.2,0,0.4,0,0.5-0.1c0-0.3-0.1-0.6-0.1-0.9
	c0-0.4,0-0.9-0.1-1.3c1.3,1.3,2.7,2.4,4,3.5l1.7,1.3l1.4-1.6c8.6-9.5,17.1-21.9,15.7-42.2l-1.4-20.3L73,20.4
	c-1.3,0.7-2.8,1.1-4.3,1.2c-5.2,0.4-6.9-4.2-6.9-4.2L55.3,18c-0.9-0.6-2-0.9-2.8-1.7c-0.3-0.3-0.9-0.5-1.3-0.7
	c-0.2-0.1-0.3-0.3-0.3-0.6c0.1-0.6,0.2-1.3,0.2-1.9c0.1-1.6,0.6-3.3,0.2-5C51.1,7.1,51.1,6,51,4.9c-0.1-0.8-0.2-1.7,0-2.5
	c0-0.2-0.1-0.5-0.3-0.6c-0.4-0.3-0.8-0.7-1.3-0.9C48.3,0.3,47.1,0,45.9,0H45.7z"/>
</svg>
