<?xml version="1.0" encoding="utf-8"?>
<!-- Generator: Adobe Illustrator 27.9.0, SVG Export Plug-In . SVG Version: 6.00 Build 0)  -->
<svg version="1.1" id="Layer_1" xmlns="http://www.w3.org/2000/svg" xmlns:xlink="http://www.w3.org/1999/xlink" x="0px" y="0px"
	 viewBox="0 0 100 100" style="enable-background:new 0 0 100 100;" xml:space="preserve">
<g>
	<g>
		<path d="M13.8,0c0.7,0.7,1.4,1.4,2.1,2.2c3.9,5.1,7.2,10.6,9.5,16.6c1,2.6,1.8,5.3,2.9,7.9c1,2.3,2.3,4.5,3.5,6.7
			c0.6,1.2,1.3,2.3,2.3,3.3c0.9,0.9,0.6,2.2,0.5,3.3c-0.4,2.6-0.7,5.2-0.6,7.9c0.2,4.8,1.5,9.2,3.9,13.3c0.6-1.7,1.2-3.4,1.7-5.1
			c0.1,0,0.2,0,0.4,0.1c0,0.3,0,0.6,0,0.9c-0.1,2.2-0.2,4.4,0.7,6.5c0.2,0.6,0.7,1.1,1,1.6c0.4-0.4,1-0.8,1.3-1.3
			c1.4-2.3,2.3-4.7,2.6-7.4c0-0.1,0.1-0.3,0.1-0.4c0.1,0,0.1,0,0.2,0c0.2,1.8,0.5,3.6,0.7,5.5c2.5-4,5.2-7.7,6.7-12.1
			c0.8-2.4,1.4-4.8,1.3-7.3c-0.2-2.3,0.8-4,2.7-5c4.5-2.4,7.8-6.1,11.3-9.8c1.4-1.4,2.9-2.7,4.3-4.1c2.1-2.2,4.1-4.5,6.1-6.8
			c2.1-2.4,4.5-4.3,7.2-5.9c0.1,0,0.1,0,0.3,0c-1.2,1.4-2.3,2.7-3.5,4.1c-3.7,4.6-6.9,9.5-9.4,14.9c-1.3,2.8-2.3,5.6-2.6,8.6
			c-0.2,2.2-0.2,4.5-0.1,6.8c0,0.6,0.4,1.1,0.7,1.8c-0.7,0.4-1.5,0.8-2.3,1.2c-3.7,2-6.7,4.6-8.6,8.4c-1.1,2.1-1.7,4.4-1.6,6.8
			c0.1,1.1-0.1,1.4-1.2,1.3c-3.6-0.1-5.9,1.9-7.9,4.6c-1.9,2.6-2.6,5.6-3.1,8.7c-0.1,0.9-0.2,1.8-0.4,2.9c-0.3-0.6-0.5-1.1-0.8-1.5
			c-0.6-0.8-1.2-1.7-1.9-2.4c-0.4-0.5-0.8-0.4-1.1,0.1c-0.2,0.4-0.3,0.9-0.5,1.4c-0.6,2.2-1.7,4.1-2.8,6c-1.4,2.2-1.5,4.3,0.1,6.5
			c1.3,1.7,2,3.7,1.9,5.9h1c-0.7,1.2-1.4,2.4-2,3.6c-0.3-1.1-0.7-2.3-1.1-3.5c0.1,0,0.2,0,0.4,0c0.1,0,0.2,0.1,0.4,0.1
			c0.3-1.1,0.1-2.1-0.2-3c-0.5-1.1-1.1-2.1-1.8-3.1c-1.5-1.8-1.6-3.7-0.6-5.7c0.8-1.6,1.7-3.1,2.4-4.7c0.6-1.4,0.6-2.8-0.2-4.1
			c-0.3-0.5-0.6-0.7-1.1-0.2c-0.7,0.8-1.5,1.6-2.2,2.5c-0.1,0.1-0.2,0.3-0.3,0.5c-0.2-1.4-0.4-2.7-0.6-4c-1.1-5-3.7-8.7-8.8-10.3
			c-0.4-0.1-0.6-0.3-0.5-0.8c0.3-2.1-0.1-4.2-0.5-6.3c-0.5-2.5-1.2-5-2.6-7.3c-1.4-2.3-3.3-4.3-5.9-5.2c0,0-0.1-0.1-0.1-0.1
			c0.4-1.4,0.8-2.7,1.1-4.1c0.4-2.4,0.7-4.7,0.9-7.1c0.3-4.6,0.4-9.2,0.5-13.9c0.1-3.8-0.7-7.6-1.9-11.2c-0.6-1.8-1.2-3.7-2-5.4
			c-0.5-1-1.2-2-1.8-2.9C13.7,0.1,13.7,0,13.8,0"/>
	</g>
</g>
</svg>
