<?xml version="1.0" encoding="utf-8"?>
<!-- Generator: Adobe Illustrator 27.9.0, SVG Export Plug-In . SVG Version: 6.00 Build 0)  -->
<svg version="1.1" id="Layer_1" xmlns="http://www.w3.org/2000/svg" xmlns:xlink="http://www.w3.org/1999/xlink" x="0px" y="0px"
	 viewBox="0 0 100 100" style="enable-background:new 0 0 100 100;" xml:space="preserve">
<g>
	<path d="M94.8,54.9l-2.2-5.2l0.5-5.2c0-0.4,0-0.7-0.2-1l-2.4-4l-2.1-5.7c-0.2-0.5-0.5-0.8-1-1c-0.5-0.2-1-0.1-1.4,0.1l-0.4,0.2
		l-0.2-2.8c0-0.3-0.1-0.6-0.3-0.9l-2.6-3.3l0.9-0.7c0.7-0.6,0.9-1.6,0.3-2.4l-7-9c-0.4-0.5-1-0.7-1.6-0.6l-4.1,0.8l-4.4-1.4
		l-8.1-3.4L58.7,6c0-0.5-0.1-1-0.5-1.3l-3-3c-0.2-0.2-0.5-0.4-0.7-0.4l-4.1-1.1c0,0-0.1,0-0.1,0c-0.1,0-0.1,0-0.2,0
		c-0.1,0-0.1,0-0.2,0c-0.1,0-0.1,0-0.2,0c-0.1,0-0.1,0-0.2,0c0,0-0.1,0-0.1,0l-4.1,1.1c-0.3,0.1-0.6,0.2-0.8,0.5l-2.9,3
		C41.4,5,41.3,5.5,41.3,6l0.3,3.4l-8.1,3.4L29,14.2l-4.1-0.8c-0.6-0.1-1.3,0.1-1.6,0.6l-7,9c-0.6,0.7-0.4,1.8,0.3,2.4l0.9,0.7
		l-2.6,3.3c-0.2,0.3-0.3,0.6-0.4,0.9l-0.2,2.8l-0.3-0.2c-0.4-0.3-0.9-0.3-1.4-0.1c-0.5,0.2-0.8,0.5-1,1l-2.1,5.7l-2.3,4
		c-0.2,0.3-0.3,0.7-0.2,1l0.5,5.2l-2.2,5.2C5,55.2,5,55.7,5.1,56L7.8,64c0.1,0.4,0.5,0.8,0.9,1c0.2,0.1,0.5,0.2,0.7,0.2c0,0,0,0,0,0
		l1.9,3.9c0.2,0.5,0.7,0.9,1.3,0.9l4.1,0.5c0.1,0,0.1,0,0.2,0c0,0,0,0,0,0c0,0,0,0,0,0c0,0,0,0,0,0c0,0,0,0,0,0c0.1,0,0.2,0,0.3,0
		l7.2-1.5c0.7-0.1,1.3-0.7,1.3-1.5l0.4-3.9c0.1-0.5-0.1-1-0.5-1.4L22.4,59c0-0.1,0-0.1,0-0.2l-0.8-2.7l1.2-2.9
		c0.1-0.2,0.1-0.3,0.1-0.5l0.4-3.8l3.4-6.6c0.4-0.8,0.1-1.8-0.6-2.2l-0.9-0.5l1-2.9l1.8-3.7l3.3-0.6l-1.3,9.7
		c-0.1,0.8,0.3,1.5,1.1,1.8l6.7,2.6l-2.1,2.1c-0.1,0.1-0.2,0.2-0.3,0.3l-3.8,3.9c-0.3,0.3-0.5,0.8-0.5,1.2s0.2,0.9,0.6,1.2l4.1,3.6
		l-3.4,1.6c-0.4,0.2-0.7,0.5-0.8,0.8l-5,10.8c-0.1,0.3-0.2,0.6-0.1,0.9l0.4,3.1l-0.2-0.2c-0.5-0.4-1.2-0.5-1.8-0.3
		c-0.6,0.3-1,0.8-1,1.5l-0.6,13.7l-2.6,6.9c-0.2,0.5-0.1,1.1,0.2,1.6c0.3,0.5,0.8,0.7,1.4,0.7h6.4h0.1h5.9c0,0,0,0,0,0c0,0,0,0,0,0
		h7c0.8,0,1.5-0.5,1.6-1.3l2.3-10.4c0.1-0.3,0-0.6,0-0.9l-2-5.9l4.1-5c0.3-0.4,0.4-0.9,0.4-1.4l-1.6-8.6l3.1,1c0,0,0,0,0,0
		c0.2,0.1,0.3,0.1,0.5,0.1c0.2,0,0.4,0,0.5-0.1c0,0,0,0,0,0l3.1-1L52,75.1c-0.1,0.5,0,1,0.4,1.4l4.1,5l-1.9,5.9
		c-0.1,0.3-0.1,0.6,0,0.9l2.2,10.4c0.2,0.8,0.9,1.3,1.6,1.3h7.1c0,0,0,0,0,0c0,0,0,0,0,0h5.9h0h6.4c0.6,0,1.1-0.3,1.4-0.7
		c0.3-0.5,0.4-1,0.2-1.6l-2.6-6.9l-0.6-13.7c0-0.6-0.4-1.2-1-1.5c-0.6-0.3-1.3-0.1-1.8,0.3l-0.2,0.2l0.4-3.1c0-0.3,0-0.6-0.1-0.9
		l-5.1-10.8c0,0,0,0,0,0c-0.1-0.1-0.2-0.3-0.3-0.4c0,0,0,0,0,0c0,0,0,0-0.1,0c-0.1-0.1-0.3-0.2-0.4-0.3c0,0,0,0,0,0l-3.4-1.6
		l0.3-0.3c0.1-0.1,0.2-0.2,0.3-0.3l3.4-3c0.3-0.3,0.6-0.7,0.6-1.2c0-0.5-0.2-0.9-0.5-1.2l-6.2-6.3l6.8-2.6c0.7-0.3,1.2-1,1.1-1.8
		l-1.3-9.7l3.3,0.6l1.9,3.7l0.9,2.9l-0.9,0.5c-0.8,0.5-1.1,1.4-0.6,2.2l3.4,6.6l0.5,3.8c0,0.2,0.1,0.3,0.1,0.5l1.2,2.9l-0.8,2.7
		c0,0.1,0,0.2,0,0.2l-3.4,3c-0.4,0.4-0.6,0.9-0.5,1.4l0.5,3.9c0.1,0.7,0.6,1.3,1.3,1.5l7.2,1.5c0.1,0,0.2,0,0.3,0c0,0,0,0,0,0
		c0,0,0,0,0,0c0,0,0,0,0,0c0,0,0,0,0,0c0.1,0,0.1,0,0.2,0l4.1-0.5c0.6-0.1,1.1-0.4,1.3-0.9l1.9-3.9c0.2,0,0.5-0.1,0.7-0.2
		c0.4-0.2,0.7-0.5,0.9-1l2.7-7.9C95,55.7,95,55.2,94.8,54.9z"/>
</g>
</svg>
