<?xml version="1.0" encoding="utf-8"?>
<!-- Generator: Adobe Illustrator 27.9.0, SVG Export Plug-In . SVG Version: 6.00 Build 0)  -->
<svg version="1.1" id="Layer_1" xmlns="http://www.w3.org/2000/svg" xmlns:xlink="http://www.w3.org/1999/xlink" x="0px" y="0px"
	 viewBox="0 0 100 100" style="enable-background:new 0 0 100 100;" xml:space="preserve">
<path d="M33.5,26.6c2.2,2.2,4.6,3.5,7.2,4.6c3.1,1.2,6.1,2.6,9.2,4c0.1,0.1,0.3,0.2,0.4,0.4c-0.5-0.2-1.1-0.5-1.6-0.7
	c-2.7-1.1-5.4-2.2-8.2-3.1c-2.6-0.9-4.8-2.4-6.9-4.4c0.1,0.3,0.2,0.6,0.3,0.8c1.4,1.5,2.8,3.1,4.3,4.5c1.1,1,2.7,0.8,4,1
	c2.2,0.3,4.3,0.9,6.2,2.1c1.2,0.7,2.5,1.3,3.7,1.9c0.5,0.3,1.4,0.7,1.1,1.4c-0.3,0.7-1.1,0.7-1.8,0.7c-2.3,0-4.5,0.1-6.8-0.2
	c-1.5-0.2-3-0.8-4.4-1.4c-4.3-2.1-8.7-4.3-13.4-5.5c-1-0.3-2.1-0.4-3.2-0.5c-2.6-0.2-5.3-0.4-7.9-0.5c-3.5-0.2-6.5,1.1-8.7,3.9
	C5.9,36.8,5,38,4,39.2c-3.4,4.2-4.2,8.9-2.8,14.1c3,11.1,10.3,18,21.3,21c7.3,2,14.6,1.4,21.9-0.2c5.2-1.2,9.9-3.5,14.6-5.8
	c4.7-2.3,9.5-4.6,14.2-6.8c0.9-0.4,1.8-0.6,2.7-0.9c-0.7-0.9-1.5-1.7-2.1-2.6c-0.6-0.9-0.9-2-1.3-3c0.1,0,0.1-0.1,0.2-0.1
	c0.2,0.5,0.3,1,0.6,1.4c0.6,1,1.3,2,2.1,2.8c0.8,0.9,1.9,1.4,3.2,1.3c5.3-0.3,10.4-1.2,15-3.8c1.8-1,3.3-2.5,5-3.7
	c0.3-0.3,0.6-0.7,1-1.1c-1.7,0.8-3.3,1.5-4.9,2.2c-0.1-0.1-0.2-0.2-0.2-0.3c1.3-1.4,2.6-2.8,4-4.3c-1.6-1-3.4-1.3-5.3-1.4
	c-8.6-0.7-17.2-0.5-25.5,2c-7,2-13.8,4.6-20.2,8.1c-2.8,1.5-5.8,2.2-8.8,2.8c-2.4,0.5-4.8,1.2-7.2,1.6C25.2,63,19.6,61.4,14.5,58
	c-1.3-0.9-2.5-1.9-3.8-3c7.6,5.7,15.7,8.5,25.2,5.5c-2.5-1.2-3.4-1.4-6.5-1.4c-1.9,0-3.8-0.2-5.6-1.1c-0.4-0.2-0.8-0.4-1.2-0.3
	c-2.5,0.1-4.7-1-6.9-1.9c-4-1.5-7.7-3.6-10.6-6.9c-0.3-0.3-0.6-0.7-0.8-1.2c2.7,3.2,6.2,5.2,10,6.6c-1-1.2-1.7-2.4-1.8-3.9
	c0-1,0.1-2.1,0.5-3c0.5-1.1,1.7-1.4,2.9-1.4c1.6,0.1,3.1,0.5,4.7,0.8c4.4,1,8.3,3.4,12.5,4.9c3.8,1.3,7.8,2.1,11.9,2.1
	c8.7-0.1,13.7-5.3,15.2-13.5c0.5-2.8-0.9-6.5-2.7-7.9c0,1.1,0.1,2.3,0,3.5c-0.3,2.6-1.8,4.5-4.2,5.6c-3.5,1.7-7.1,1.7-10.7,0.6
	c-4.1-1.3-8.2-2.8-12.2-4.3c-4.6-1.7-9.2-3-14.2-2.8c-2.5,0.1-4.9,0.9-6.9,2.4c-3,2.3-4.2,5.3-3.6,9c0,0.2,0,0.4,0,0.7
	c-1-2.5-0.4-6.2,1.5-8.5c2.5-3,5.8-4.4,9.7-4.5c4.7-0.2,9.1,1,13.4,2.6c3.9,1.4,7.7,3,11.7,4.3c3.5,1.2,7,1.5,10.5,0.1
	c4.3-1.7,4.9-4.8,4.6-8.2c0-0.2-0.1-0.4-0.2-0.5c-1.4-1.9-2.4-4.2-5.1-4.6c-1.1-0.2-2.1-0.4-3.2-0.7c-0.7-0.2-1.4-0.4-2-0.8
	c-2.6-2-5.6-1.8-8.6-1.6c-1,0.1-2.1,0.4-3,0.8C34.6,25.7,34.1,26.2,33.5,26.6z M93.2,51.1c0.7,0.3,0.8,0.8,0.4,1.4
	c-0.3,0.5-0.8,0.7-1.3,0.4c-0.6-0.3-0.7-0.8-0.4-1.4C92,50.9,92.5,50.8,93.2,51.1L93.2,51.1z M7.9,60.3c0.9,0.8,1.8,1.6,2.8,2.3
	c6,4.5,12.7,6.9,20.3,6.6c4.2-0.1,8.4-0.8,12.4-2c5.3-1.6,10.4-3.5,14.9-6.8c3.2-2.2,6.5-4,10.1-5.6c0.1-0.1,0.3-0.1,0.4-0.1
	c-0.3,0.2-0.6,0.4-0.9,0.6c-2.9,1.7-5.7,3.4-8.5,5.2c-1.5,0.9-2.9,2-4.4,2.9c-4.5,2.6-9.3,4.4-14.3,5.6c-6.7,1.6-13.4,1.9-20-0.3
	C15.6,67,11.4,64.1,7.9,60.3z M72.7,59.3c0,0.1,0,0.1,0,0.2c-1,0.6-1.9,1.2-2.9,1.7c-1.9,1-3.9,1.2-5.9,0.1c-1.5-0.8-1.5-2.5,0-3.4
	c0.7-0.4,1.5-0.8,2.2-0.9c1.8-0.1,3.6,0,5.3,0c0,0.1,0,0.2,0,0.3c-0.6,0-1.2,0.1-1.8,0.1c-1.7,0-3.3,0.2-4.8,1
	c-0.5,0.3-1.2,0.6-1,1.3c0.2,0.4,0.7,0.9,1.2,1.1c1.7,0.7,3.4,0.4,5.1-0.4C71,59.8,71.9,59.6,72.7,59.3z M55.7,37.2
	c0.5-3.2-0.2-4.7-2.9-6.2c-0.5-0.3-1-0.6-1.5-0.7c-2.8-0.9-5.6-1.8-8.5-2.5c-2.7-0.6-5.5-1-8.3-1.4c1,0,1.9,0,2.9,0.1
	c4.9,0.4,9.7,1.2,14.2,3.3c1.3,0.6,2.5,1.4,3.6,2.4C56.6,33.5,56.7,35.5,55.7,37.2z"/>
</svg>
