<?xml version="1.0" encoding="utf-8"?>
<!-- Generator: Adobe Illustrator 27.9.0, SVG Export Plug-In . SVG Version: 6.00 Build 0)  -->
<svg version="1.1" id="Layer_1" xmlns="http://www.w3.org/2000/svg" xmlns:xlink="http://www.w3.org/1999/xlink" x="0px" y="0px"
	 viewBox="0 0 100 100" style="enable-background:new 0 0 100 100;" xml:space="preserve">
<path d="M44.2,66.3c0.1,0.1,0.1,0.2,0.3,0.4c-0.7,0.1-1.4,0.3-2,0.4c-0.3,0-0.5,0.1-0.7,0.4c-1.1,1.6-2.3,3.1-3.8,4.4
	c-1.7,1.5-3.6,2.3-5.8,2.7c-2.1,0.4-3.9-0.2-5.7-1.2c-1.1-0.7-2.1-1.5-3-2.5c-0.1-0.1-0.1-0.1-0.1-0.2c0.2-0.6,0.6-0.8,1.2-0.7
	c0.8,0.1,1.7,0.1,2.5,0.2c1.3,0.1,2.7,0.2,4-0.2c0.7-0.2,1.2-0.5,1.7-1c0.1-0.1,0.1-0.2,0.2-0.2c0.1-0.6,0.2-1.2,0.3-1.9
	c-2.7-0.5-5.3-1-8-0.7c0.2-0.3,0.4-0.5,0.6-0.7c2-2.3,4.3-4.4,6.5-6.5c1.6-1.5,3.1-3.1,4.2-5c0.8-1.4,1.3-2.9,1.3-4.5
	c0-0.3,0.1-0.5,0.4-0.6c0.6-0.3,1.1-0.6,1.5-1.1c-0.1,0-0.1,0-0.2-0.1c-0.4,0.4-0.8,0.7-1.3,0.9c-0.4,0.2-0.5,0.4-0.5,0.8
	c0,1.8-0.7,3.4-1.6,4.9c-1.2,1.8-2.7,3.4-4.3,4.9c-2.4,2.2-4.8,4.5-6.9,7c0,0.1-0.1,0.1-0.2,0.1c-0.7,0.3-1.4,0.7-2.1,1
	c-0.1-0.4-0.2-0.9-0.2-1.4c-0.1-1.3,0.1-2.5,0.7-3.6c1.2-2.3,2.4-4.6,3.7-6.8c1.4-2.4,3-4.7,4.5-7c0.7-1,1.5-1.9,2.4-2.6
	c-3.8-1.5-7.5-3.4-10.9-5.8C15.1,34.7,8.4,28,2.8,20.1c-0.9-1.3-0.9-1.7,0.7-2c4.3-0.9,8.7-1.9,13-2.5c1.5-0.2,3.2,0.2,4.7,0.7
	c2.1,0.8,4.2,1.8,6.2,2.8C26,13.6,25.2,7.8,25.1,2c0-1.5,0.2-1.8,1.7-1.2c4.3,1.6,8.5,3.2,12.7,5c1.5,0.7,2.7,1.9,3.6,3.1
	c1.5,1.9,2.7,3.9,3.9,6c3.4,5.5,5.8,11.3,7.5,17.3c0.4-0.3,0.8-0.6,1.3-0.9c2.1-1.3,4.1-2.7,6.3-3.8c1.7-0.8,3.4-1.4,5.2-1.7
	c1.4-0.2,2.9-0.2,4.3,0c1.9,0.2,3.7,0.7,5.4,1.6c0.4,0.2,0.8,0.5,1.2,0.8c0.1,0.1,0.1,0.3,0.2,0.5c-0.2,0.1-0.3,0.2-0.5,0.2
	c-0.7-0.1-1.3-0.2-2-0.4c-2-0.5-4.1-0.8-6.2-0.6c-2.4,0.2-4.6,1.1-6.6,2.4c-1.9,1.2-3.4,2.8-4.7,4.6c0,0-0.1,0.1-0.1,0.1
	c0,0,0,0.1,0,0.1c0.9-0.1,1.7-0.2,2.6-0.4c3.1-0.5,5.9-1.8,8.5-3.5c1.4-0.9,2.7-1.8,4.1-2.7c0.3-0.2,0.6-0.3,0.9-0.2
	c1,0.2,2,0.5,3.1,0.7c0.3,0.1,0.5,0.1,0.8,0c0.4-0.1,0.6-0.4,0.3-0.8c-0.1-0.2-0.3-0.4-0.5-0.5c-0.5-0.3-1.1-0.6-1.7-1
	c0.6-0.3,1.2-0.6,1.9-0.9c2-0.9,4-1.4,6.2-1.6c2.3-0.2,4.5,0.3,6.5,1.4c0.7,0.4,1.4,0.8,2,1.3c0.3,0.2,0.5,0.5,0.6,0.8
	c0.1,0.1,0.1,0.3,0,0.4c-0.1,0.1-0.3,0.1-0.4,0.1c-0.2-0.1-0.5-0.2-0.7-0.3c-1.3-0.7-2.6-1.3-4-1.6c-2.9-0.6-5.5,0-8,1.6
	c-3.3,2.1-6.4,4.6-9.1,7.5c-0.6,0.6-1.4,1.1-2.1,1.7c-0.7,0.6-1.5,1.2-2.2,1.9c-1,0.9-1.4,2-1.6,3.3c-0.1,0.7-0.1,1.4,0.1,2.1
	c0.2-0.1,0.4-0.2,0.6-0.3c0.7-0.2,1.3-0.5,2-0.7c0.3-0.1,0.7-0.1,0.9,0.2c0.2,0.3,0,0.6-0.2,0.9c-0.3,0.3-0.6,0.7-0.9,1
	c-0.7,0.6-1.3,1.3-1.7,2.2c-0.1,0.1-0.1,0.3-0.1,0.4c-0.1,0.2,0,0.3,0.2,0.5c0.5,0.2,0.7,0.7,0.6,1.2c-0.1,0.4,0,0.6,0.2,0.9
	c0.6,0.7,1.3,1.1,2.2,1.1c2.4,0.1,4.7-0.2,6.8-1.3c0.4-0.2,0.8-0.6,1.2-0.9c0.4-0.3,0.6-0.8,0.8-1.3c0.4-1.3,0.8-2.5,1.2-3.8
	c0.4-1,1-1.9,1.7-2.7c1-1.1,1.9-2.3,2.5-3.7c0.2-0.5,0.3-1,0.4-1.5c0.2-0.8,0-1.5-0.3-2.2c-0.1-0.4-0.3-0.7-0.4-1.1
	c-0.1-0.4,0.2-0.7,0.6-0.6c0.2,0.1,0.5,0.2,0.7,0.4c0.5,0.6,0.6,1.3,0.8,2c0.4,2.2,0.4,4.5-0.3,6.6c-0.9,2.5-1.5,5.1-2.7,7.4
	c-0.9,1.8-2,3.5-3.7,4.8c-1.7,1.3-3.6,2.1-5.7,2.5c-0.4,0.1-0.8,0.2-1.1,0.4c-0.3,0.1-0.3,0.2-0.1,0.5c0.3,0.3,0.5,0.7,0.8,1
	c0.1,0.1,0.1,0.4,0,0.5c-0.1,0.4-0.5,0.5-0.8,0.1c-0.2-0.3-0.3-0.5-0.5-0.8c-0.3-0.5-0.7-0.7-1.3-0.5c-0.6,0.2-1.1,0.5-1.7,0.8
	c-1.1,0.6-2.2,0.9-3.4,0.9c-0.5,0-1-0.2-1.5-0.3c-0.2-0.1-0.4-0.1-0.6-0.1c-0.1,0-0.3,0.1-0.4,0.2c-0.7,0.8-1.5,1.3-2.5,1.7
	c0,0,0,0,0,0c-0.8,0.2-0.8,0.5-0.3,1.1c0.3,0.5,0.6,1,0.9,1.5c0.1,0.2,0.1,0.4,0.1,0.6c0,0.2-0.1,0.4-0.2,0.4
	c-0.1,0.1-0.3,0-0.5-0.1c-0.2-0.1-0.3-0.3-0.4-0.4c-0.5-0.7-0.9-1.5-1-2.4c-0.1-0.6,0.1-1,0.6-1.2c0.3-0.2,0.7-0.3,1.1-0.5
	c0.6-0.3,1.1-0.7,1.5-1.2c0.2-0.4,0.3-0.6,0.1-0.9c-0.3-0.4-0.7-0.5-1.1-0.3c0,0-0.1,0-0.1,0.1c-0.6,0.4-1.3,0.4-2.1,0.3
	c-0.2,0-0.3,0-0.4,0.2c-0.5,0.5-1,1-1.5,1.5c-0.4,0.4-0.9,0.5-1.4,0.5c-0.8,0.1-1.6,0.2-2.4,0.3c-0.5,0.1-0.8,0.3-1,0.8
	c-0.8,1.6-2,2.9-3.4,3.9c-0.2,0.1-0.4,0.2-0.6,0.4c-0.2-0.5-0.4-1-0.6-1.6c-0.1-0.2,0-0.3,0.2-0.3c1.4-0.5,2-1.6,2.5-2.8
	c0.2-0.6,0.2-1.2,0-1.7c-0.4-1.1-1.1-2-2.1-2.6c-0.1-0.1-0.3-0.1-0.4,0c-1.2,0.7-2.4,1.4-3.5,2.2c-1,0.8-1.7,1.8-1.6,3.2
	c0.1,0.8,0.3,1.5,0.7,2.1C43.1,64.7,43.6,65.5,44.2,66.3z M72.9,95.2c-0.7,0.3-1.4,0.2-2.1-0.3c-0.4-0.2-0.8-0.5-1.1-0.8
	c-0.5-0.3-1-0.6-1.4-1c-1.1-1-2.2-2.1-3.2-3.2c-0.5-0.5-1-1.1-1.4-1.7c-0.2-0.4-0.5-0.7-0.9-0.9c-0.3-0.2-0.5-0.3-0.8-0.5
	c-0.4-0.3-0.9-0.5-1.3-0.8c-0.2-0.1-0.3-0.4-0.5-0.6c-0.2-0.2-0.3-0.5-0.4-0.7c-0.4-0.4-0.9-0.8-1.4-1.1c-0.2-0.1-0.3-0.3-0.5-0.5
	c-0.3-0.4-0.6-0.8-0.9-1.2c-0.3-0.3-0.6-0.6-0.9-1c-0.2-0.3-0.2-0.5,0-0.7c0,0,0.1-0.1,0.1-0.1c-0.4-0.4-0.8-0.8-1.2-1.2
	c-0.4-0.4-0.5-0.9-0.3-1.4c0.1-0.2,0.1-0.4,0.2-0.5c0,0-0.1,0-0.1,0c-0.3-0.4-0.7-0.7-0.9-1.1c-0.8-1.2-1.6-2.5-2.5-3.7
	c-1.4-1.9-2.8-3.9-3.9-6c-0.4-0.7-0.7-1.5-1-2.2c-0.1-0.3,0-0.5,0.3-0.6c0.7-0.2,1.3-0.7,1.7-1.3c0.4-0.6,0.7-1.1,0.8-1.8
	c0.1-1.3-0.9-3-2.1-3.6c-0.1,0-0.2,0-0.3,0c-1.2,0.6-2.4,1.3-3.5,2.1c-0.9,0.7-1.5,1.7-1.4,2.9c0,0.8,0.3,1.5,0.7,2.1
	c1,1.5,2,3,3.1,4.5c0.7,1,1.4,2,2,2.9c0.3,0.4,0.4,0.9,0.2,1.3c-0.1,0.4-0.3,0.9-0.5,1.3c0.3,0,0.7,0.1,1.1,0.2
	c0.6,0.1,1.3,0.1,1.8,0.5c0.6,0.5,1.1,1,1.5,1.7c0.4,0.7,0.3,1.3-0.2,1.9c-0.2,0.2-0.4,0.4-0.7,0.7c0.4-0.1,0.8-0.2,1.1-0.3
	c0.9-0.2,1.4,0.2,1.6,1.1c0.1,0.2,0.1,0.5,0.2,0.7c0.2,0.6,0.6,1.1,1.2,1.3c0.1,0,0.1,0.2,0.2,0.2c0.3,0.5,0.5,1,0.8,1.5
	c0.1,0.2,0.4,0.4,0.6,0.4c0.2,0,0.4,0.1,0.5,0.3c0.2,0.2,0.3,0.4,0.5,0.6c0.5,0.5,1,1.1,1.6,1.6c0.8,0.7,1.5,1.3,2.3,2
	c1.4,1.1,2.7,2.3,3.9,3.5c1.1,1.1,2.2,2.3,3,3.7c0.7,1.2,0.9,2.5,0.4,3.8c0,0.1-0.1,0.2-0.1,0.3c0.6-0.1,1-0.5,1-1.1
	c0.1-0.6,0.1-1.2,0-1.9c0-0.7,0.1-0.8,0.8-0.6c0.5,0.1,1,0.3,1.5,0.3c0.6,0.1,1.4-0.8,1.2-1.5C73.3,94.9,73.1,95.1,72.9,95.2z
	 M24,69.9c0.8,0,1.7,0,2.5,0.1c1.2,0.1,2.5,0.2,3.7,0c0.9-0.1,1.7-0.4,2.3-1c0.1-0.1,0.3-0.4,0.3-0.6c0.1-0.4,0.2-0.9,0.3-1.4
	c-0.3-0.1-0.5-0.1-0.8-0.2c-2-0.3-3.9-0.6-5.9-0.6c-0.7,0-1.4,0.2-2,0.5c-1.1,0.5-2.1,1.3-2.9,2.3c-0.9,1.1-1.8,2.2-2.6,3.4
	c-2,2.7-4.3,5-7,6.9c0,0,0.1,0,0.2,0c0.7-0.1,1.5-0.2,2.2-0.3c0.4,0,0.4,0.1,0.3,0.4c-0.1,0.5-0.2,0.9-0.3,1.4
	c0,0.2,0.1,0.4,0.1,0.6c0,0,0.1,0,0.1,0c0.2-1.3,0.9-2.3,1.9-3.1c0.7-0.6,1.3-1.3,1.7-2.2c0-0.1,0.1-0.1,0.1-0.2
	c0.8-0.3,1.2-0.9,1.5-1.6c0.2-0.3,0.3-0.5,0.7-0.7c0.2-0.1,0.4-0.2,0.5-0.4c0.3-0.4,0.5-0.9,0.7-1.3c0.1-0.1,0.2-0.3,0.3-0.4
	c0.6-0.4,1.1-0.9,1.5-1.4C23.6,70.1,23.8,69.9,24,69.9z M95.6,73.4c-0.3-0.6-0.7-1.1-1.3-1.4c-0.9-0.5-1.9-1-2.9-1.5
	c-0.6-0.3-1.2-0.6-1.8-1c-0.3-0.1-0.5-0.3-0.8-0.4c-0.5-0.2-1.1-0.3-1.6-0.4c-0.2-0.1-0.4-0.2-0.6-0.3c-0.2-0.2-0.4-0.4-0.7-0.5
	c-0.3-0.1-0.6-0.2-1-0.3c-1.1-0.2-2-0.8-2.8-1.7c-0.1-0.1-0.1-0.2-0.1-0.3c0-0.7-0.3-1.2-0.7-1.7c-0.2-0.2-0.4-0.4-0.4-0.6
	c-0.1-0.4-0.3-0.7-0.6-1c-0.3-0.3-0.6-0.5-0.8-0.7c-0.6-0.6-1.2-1.1-1.8-1.7c-0.2-0.2-0.3-0.4-0.3-0.7c0-0.4-0.2-0.7-0.5-1
	c-0.7-0.6-1.3-1.2-2-1.8c0,0-0.1-0.1-0.2,0c-0.7,0.2-1.4,0.4-2.1,0.6c0.2,0.5,0.3,1,0.5,1.5c0.2-0.1,0.6-0.2,0.7,0.1
	c0.1,0.2,0.1,0.5,0.1,0.7c0.2,0,0.5,0,0.6,0.2c0.1,0.1,0,0.4,0.1,0.7c0.7-0.1,0.8,0,0.9,1.1c0.9-0.4,1.1,0.1,1.2,1
	c0,0,0.1-0.1,0.1-0.1c0.2-0.2,0.4-0.2,0.5,0.1c0,0.2,0.1,0.4,0.1,0.5c0,0.4-0.1,0.8-0.1,1.2c0.4,0,0.3,0.4,0.5,0.6
	c0.9-0.8,2-0.4,2.3,0.8c0.1,0.4,0.2,0.9,0.2,1.3c1.3,0,2.2,0.6,2.7,1.8c0.7-0.5,1.9,0,2.6,1c0.4-0.3,0.9-0.3,1.3,0
	c0.3,0.2,0.7,0.5,1,0.8c0.2,0.2,0.3,0.3,0.6,0.2c0.2,0,0.5,0,0.7,0c1.6,0.5,2.9,1.4,3.9,2.8c0.4,0.5,0.3,1-0.3,1.3
	c-0.4,0.3-0.9,0.4-1.4,0.6c-0.1,0-0.1,0-0.2,0.1c0.3,0.1,0.6,0.1,0.9,0c0.7-0.1,1.3-0.3,2-0.4c0.5-0.1,0.9,0,1.3,0.2
	c0.7,0.3,1.4,0.5,2,0.7c0,0,0-0.1,0-0.1C96.8,75.1,96.1,74.4,95.6,73.4z M67.2,69.4c0.3-0.3,0.6-0.6,0.9-0.9
	c0.2-0.2,0.3-0.3,0.5-0.2c0.3,0.1,0.5,0.2,0.8,0.3c0.3,0.1,0.7,0.2,1.1,0.1c-1-0.4-1.8-1-2.4-1.9c-0.9-1.4-1.6-2.8-2.1-4.4
	c-0.2-0.8-0.4-1.6-0.6-2.4c0-0.1-0.1-0.2-0.3-0.2c-0.5,0.1-1,0-1.4-0.2c-0.2-0.1-0.4-0.1-0.7-0.2c0.2,0.4,0.3,0.7,0.5,1
	c0.4,0.9,0.8,1.7,0.8,2.6c0,0.4,0.2,0.6,0.5,0.9c0.1,0.1,0.2,0.3,0.3,0.5c0.1,0.2,0.1,0.3,0.1,0.5c0.6,0,0.9,0.4,0.9,0.9
	c0,0.1,0.1,0.1,0.1,0.2c0.3,0.1,0.5,0.4,0.7,0.7c0.1,0.2,0.2,0.4,0.4,0.5c0.1,0.1,0.2,0.3,0.3,0.4C67.7,68.3,67.6,68.8,67.2,69.4
	C67.2,69.4,67.2,69.4,67.2,69.4z M36.2,73.4c-0.3,0.2-0.6,0.3-0.9,0.5c-0.2,0.1-0.2,0.2-0.1,0.4c0.4,0,0.7,0.2,0.8,0.6
	c0,0.1,0.1,0.1,0.1,0.1c0.3,0.1,0.5,0.3,0.6,0.6c0,0.1,0.1,0.1,0.2,0.2c0.2,0.1,0.4,0.3,0.4,0.5c0,0.4-0.1,0.8-0.1,1.1
	c0.1-0.1,0.3-0.3,0.4-0.5c0.3-0.5,0.4-0.4,0.8-0.3c0.4,0.1,0.7,0.2,1.2,0C37.9,76.2,37.1,74.7,36.2,73.4z M67.2,50.6
	c0.8,0.9,2,1.2,3.3,1c-0.7-0.7-2.5-1.7-3.4-1.8C66.8,50.2,67,50.4,67.2,50.6z"/>
</svg>
