<?xml version="1.0" encoding="utf-8"?>
<!-- Generator: Adobe Illustrator 27.9.0, SVG Export Plug-In . SVG Version: 6.00 Build 0)  -->
<svg version="1.1" id="Layer_1" xmlns="http://www.w3.org/2000/svg" xmlns:xlink="http://www.w3.org/1999/xlink" x="0px" y="0px"
	 viewBox="0 0 100 100" style="enable-background:new 0 0 100 100;" xml:space="preserve">
<path d="M0.8,17.5c-0.3,0-0.6,4.1-0.8,4.5c-0.1,1.8,0,3.6,0.2,5.4c0.4,3,1.4,6,2.9,8.7c3,5.5,7.8,9.7,13.6,11.9
	c3.4,1.4,7.1,2,10.7,1.6c-1.8-2-3.2-4.5-4.3-7c-0.3-0.6-0.5-1.3-0.9-2c-0.1-0.5-0.4-1.1-0.6-1.6c-0.4-0.5-1.6-0.6-2.3-0.9
	c-1.5-0.4-3.5-0.8-4.7-1.7c-1.8-1.4-1.9-4.4-2.5-6.4c-1.2,1-2.7,1.7-4.2,0.9c-1.4-1-2.5-2.3-3.3-3.8c-1.1-1.4-1.9-3-2.5-4.7
	C1.9,20.8,2.7,17.7,0.8,17.5z M71.1,17.2c2.9-0.6,10.1,7.7,13.5,13.1c3.6,5.8,6.4,12.9,6.5,19.8c0.1,3.1-0.8,6.4-3.3,8.3
	c-0.3,0.2-0.6,0.2-0.9-0.1c0-0.1-0.1-0.1-0.1-0.2c-1.1-3.6-2.5-7.1-4.4-10.3c-0.5-1-1.1-1.8-1.7-2.7c-0.3-0.4-0.5-0.9-0.6-1.4
	c-0.1-0.5-0.1-1-0.2-1.5c-0.5-1.8-1.4-3.5-2.5-5.1c-1-1.6-2.3-3.3-2.4-5.3c-0.1-1.9,1.4-3.9,1.7-5.8c0.2-1.6-0.5-2.8-1.5-4.1
	C74,20.4,70.3,17.4,71.1,17.2z M14.8,71.6c2.5,1,4.9,1.7,7.5,2.5c2.8,0.8,5.6,0.9,8.4,1.5c1.4,0.3,7.3,3,7.3,0c0-1.2-1.2-2-1.4-3.1
	c-0.1-0.5-0.1-0.3,0.4-0.4c0.9,0,1.6,0,2.5,0.2c2.3,0.1,4.6,0.1,6.9-0.1c2.4-0.1,4.6-0.9,6.6-2.1c0.9-0.6,1.8-1.9,2.8-1.9
	c0.8,0.1,1.6,0.2,2.4,0.4c1.1,0.1,2.3,0.2,3.3,0.3c2.4,0.2,4.8,0,7.3,0.2c1.9,0.2,3.4,1.9,3.2,3.9c0,0.6-0.2,1.2-0.5,1.7
	c-2.3,4-6.6,5.9-10.6,7.4c-5.4,2-10.9,3.1-16.7,3c-8.8-0.1-17.5-2.9-24.7-7.9c-1.2-0.9-2.4-1.7-3.4-2.7c-0.5-0.4-1.1-1-1.6-1.5
	c-0.2-0.2-0.5-0.4-0.4-0.9c0-0.3,0.3-0.6,0.8-0.6C14.6,71.4,14.7,71.4,14.8,71.6z M16.1,23.6c3,2.7,6.6,4.5,10.6,5.1
	c-1.3,0.5-2.6,1.1-3.8,1.8c-0.4,0.3-1.3,1.2-1.8,1.1c-0.5-0.1-1.3-1.2-1.5-1.4c-1-1-1.7-2.1-2.4-3.3c-0.3-0.6-0.6-1.3-0.9-1.9
	C16.3,25,15.8,23.4,16.1,23.6z M24.5,18.1c-1.8,0.1-3.5-0.1-5.3-0.8l-4.7-1.5c5.3-1.4,10.7-1.1,15.8,0.8c5.3,1.8,9.9,5.3,13.2,9.8
	c-2.3-0.3-4.6-0.3-6.9-0.1c-1.2,0.1-2.3,0.3-3.3,0.5c-0.4,0.1-1,0.3-1.3,0.1c-0.3-0.2-0.6-1.1-0.8-1.5c-0.6-2.3-2.3-2.9-4.2-4
	c-0.8-0.4-1.4-0.6-1.3-1.6C25.9,18.9,25.7,18.1,24.5,18.1z M78.2,69.8c0,3.6,2.7,7.2,5.7,8.9c1.6,0.9,3.4,1.4,5.3,1.4
	c1.8,0.1,5.4,2.3,5.1,1.2c-1.2-1.2-2.6-2.1-4.2-2.8c-0.8-0.3-1.6-0.6-2.5-1c-0.9-0.4-1.7-0.9-2.6-1.5c0.5-0.3,5.7,1.4,7.9,3.1
	c1.4,1.1,2.7,2.4,3.9,3.6c0.4,0.3,0.8,0.3,1,0.1c0,0,0,0,0.1-0.1c3.5-5,2.4-12.1-2.7-15.8c-0.4-0.3-1-0.6-1.5-0.9
	c-1.4-0.8-3-1.1-4.6-1.2c-0.8,0.1-1.5,0.1-2.3,0.2c-0.4-0.1-0.9-0.5-1.3-0.6c-0.3-0.1-0.8-0.2-1.1-0.2c-3.1-0.4-6,1.8-6.3,4.9
	C78.2,69.4,78.2,69.6,78.2,69.8z M87.6,72.1c1.5-0.9,3.6,1.2,3.6,2.1C89.7,74.5,87,73.2,87.6,72.1z M64.7,63.9
	c6.6,0,13.2-1.5,19.2-4.3c0.5-0.2,1-0.5,1.3,0.1c0.3,0.5,0.4,1.2,0.1,1.7c-0.3,0.3-1.1,0.5-1.5,0.8c-0.8,0.3-1.4,0.6-2.1,1
	c-3,1.2-6.1,2.1-9.2,2.7c-22.2,3.9-43.8-9.4-50.2-31.1c5.1,13.4,16.3,23.6,30,27.6C56.5,63.4,60.5,63.9,64.7,63.9z M66,50.9
	c1.2,2.4,1.9,4.9,2.4,7.5c0.1,1,0.2,2,0.3,3c0,0.3,0.2,1.3,0,1.4c-0.2,0.1-1.8,0.1-2.1,0.1c-5.4,0.2-10.8-0.5-16-2.3
	c-1.2-0.4-2.3-0.9-3.4-1.3c-0.5-0.2-1.2-0.5-1.7-0.9l-0.6-0.3c-0.6-0.3-0.6-0.2-0.5-0.9c0.2-0.9,0.5-1.8,1-2.6
	c0.4-0.9,0.8-1.8,1.3-2.7c0.9-1.7,1.9-3.4,3-5c0.1-0.2,0.2-0.4,0.4-0.6c0.4-0.2,0-0.1,0.3,0c0.4,0.2,0.8,0.3,1.1,0.6
	c0.9,0.4,1.6,0.9,2.5,1.3c1.7,0.8,3.4,1.3,5.3,1.7c1,0.2,2,0.3,3,0.5C62.8,50.5,65.8,50.3,66,50.9z M49.4,28.2
	c8.3,1.3,16,4.8,22.3,10.3c-8.5,3.5-18.1-0.3-21.8-8.8C49.8,29.3,49.6,28.8,49.4,28.2z M80.5,49c1.2,1.8,2.1,3.8,3,5.8
	c0.5,1,0.9,1.9,1.2,3c0.1,0.4,0.1,0.3-0.2,0.5c-0.2,0.1-0.4,0.2-0.6,0.3c-0.5,0.2-1.1,0.5-1.6,0.8c-4,1.7-8.2,2.8-12.4,3.3
	c0-4.2-1-8.4-2.7-12.1c2.5-0.1,4.8-0.6,7.2-1.4c1.2-0.4,2.5-0.9,3.5-1.5c0.4-0.3,0.9-0.5,1.3-0.8c0.2-0.2,0.4-0.1,0.4,0.2l0.2,0.5
	C80.1,48.2,80.3,48.6,80.5,49L80.5,49z M39.4,34.3c-5,0.3-9.9,1.9-14,4.7c-0.5-1.1-1.1-2.3-1.6-3.4c-0.2-0.5-0.4-1.2-0.6-1.7
	l-0.3-0.8c-0.2-0.5-0.2-0.4,0.2-0.8c1.1-0.6,2.3-1.2,3.4-1.5c1.2-0.4,2.4-0.9,3.5-1.2c2.1-0.6,4.3-1.1,6.4-1.4c0.1,0,0.9-0.2,1-0.1
	c0.1,0.1,0.1,0.6,0.2,0.9c0.1,0.6,0.3,1.2,0.5,1.8C38.4,31.9,38.9,33.2,39.4,34.3z M41.1,27.8c1.6,0,3.2,0,4.8,0.1
	c0.6,0,2,0,2.5,0.4c0.3,0.6,0.5,1.3,0.8,2c3.4,8.2,12.4,12.4,21,10c0.6-0.2,2-1,2.6-0.9h0.1c2.1,2,4.2,4.3,5.9,6.6
	c-12.9,7.1-29,2.9-36.9-9.5c-1.6-2.7-2.8-5.6-3.5-8.6C39.2,27.9,40.2,27.8,41.1,27.8z M39.9,35.3c2.1,4.2,5.4,7.8,9.3,10.4
	c-2.6,3.5-4.6,7.5-6,11.7c-5.7-3.2-10.6-7.6-14.5-13c-0.5-0.6-1-1.4-1.4-2c-0.4-0.6-0.9-1.3-1.2-2c-0.2-0.6-0.3-0.4,0.3-0.9l1-0.5
	c0.8-0.4,1.5-0.9,2.3-1.2C32.9,36.3,36.4,35.4,39.9,35.3L39.9,35.3z"/>
</svg>
