<?xml version="1.0" encoding="utf-8"?>
<!-- Generator: Adobe Illustrator 27.9.0, SVG Export Plug-In . SVG Version: 6.00 Build 0)  -->
<svg version="1.1" id="Layer_1" xmlns="http://www.w3.org/2000/svg" xmlns:xlink="http://www.w3.org/1999/xlink" x="0px" y="0px"
	 viewBox="0 0 100 100" style="enable-background:new 0 0 100 100;" xml:space="preserve">
<path d="M1.4,47.4c9.5,4.5,13,11,14.5,15.3c0.4,1,1,2,1.9,2.8c12.8-6.9,25.7-13.4,26.5-13.9c4.2-2.8,7.7-6,11-9.5
	c-3.3,2.7-7,5.4-9.2,6.5c1.7-3.3,2.4-8.2,2.6-12.8l4.2-2.9l-4.1,1.6c0.1-2.8-0.1-5.4-0.3-7.4l1.9-1.2l-2,0.4c-0.1-1.1-0.3-2-0.4-2.4
	c4.1-1,11.5,7.3,14.6,10.3c5.5-6,11.4-12.1,20.1-17.2c9.1-5.2,13.1-4.7,14.9-3.3c2.2,1.8,1.9,5.2,1.9,5.2V19c0,0.2,0.7,7.2-1.5,15
	c0-0.3-0.4-3.4-3-4.8C88.7,26.3,78,36.8,78.2,37c0.1,0.1,19-11.8,17.6,2.4c0,0-3.5,7.1-7.6,10.4c-0.1,0.1-0.2,0.3-0.2,0.5
	c0,0.3,0.1,0.4,0.2,0.5c0.1,0,3.9,3.5,5.2,10.1c-6.7-4.9-9-5.7-12.8-3.1c-0.6,0.4-1.4,0.8-2.1,1.4c-3.6,2.7-9.4,6.9-15.6,8.7
	c1.5-1,2.2-5.6,2.2-5.6s-4.6,8.9-12.5,15.1c-3.2-11,3.5-16.4,3.5-16.4c-0.2-0.2-3.2,2.3-5.3,6.2c-0.9,1.9-3.3,3.7-5.1,4.4
	c-6.1,2-12.3,2.5-28.2,1.7c-1.8,7.3-7.4,12.3-10.8,13.9c-0.5,0.2-1-0.4-0.7-0.9C8,81.8,9.5,72.6,9.5,72.5c0.4-1.8-2.4-15.9-8.9-24.4
	C0.2,47.9,0.8,47.1,1.4,47.4z M74.7,28.8c0.6,0,1.1-1,1.1-2.3s-0.5-2.3-1.1-2.3s-1.1,1-1.1,2.3S74.1,28.8,74.7,28.8z M65.3,39.8
	c0.5,3.1,1.8,5.6,3,6.5c-1.4-1.8-2.2-4.6-2.2-7.8c0-1.6,0.2-3.1,0.6-4.5c-0.1,1.1-0.1,2.5,0.1,3.9c0.5,3.1,1.8,5.6,3,6.5
	c-1.4-1.8-2.2-4.6-2.2-7.8c0-1.6,0.2-3.1,0.6-4.5c-0.1,1.1-0.1,2.5,0.1,3.9c0.5,3.1,1.8,5.6,3,6.5c-1.4-1.8-2.2-4.6-2.2-7.8
	c0-2.5,0.5-4.8,1.5-6.6c-0.1,0-0.2,0-0.3,0c-0.7,0.2-1.2,0.9-1.7,2c-0.7,0.2-1.2,0.9-1.7,2C65.5,32.4,64.7,35.9,65.3,39.8z"/>
</svg>
