<?xml version="1.0" encoding="utf-8"?>
<!-- Generator: Adobe Illustrator 27.9.0, SVG Export Plug-In . SVG Version: 6.00 Build 0)  -->
<svg version="1.1" id="Layer_1" xmlns="http://www.w3.org/2000/svg" xmlns:xlink="http://www.w3.org/1999/xlink" x="0px" y="0px"
	 viewBox="0 0 100 100" style="enable-background:new 0 0 100 100;" xml:space="preserve">
<path d="M94.8,78.2c-0.5-0.2-1.5,0.2-3.1,0.8c-0.6,0.2-1.4,0.5-1.6,0.5c-0.1,0-0.2,0-0.4-0.1c1.7-0.2,4-1.3,5-2.4
	c0.2-0.2,0.7-0.8,0.4-1.3c-0.1-0.1-0.3-0.5-0.8-0.5c-0.6,0-1.6,0.5-2.4,1.4c-0.5,0.6-1.6,1-3,1c-0.6,0-1.1-0.1-1.6-0.2
	c-1.2-0.3-3.9-2.2-7.3-6c-3-3.3-5-4.4-6.7-5.4c-0.2-0.1-0.5-0.3-0.7-0.4c-1.9-1.1-8.2-7.5-9.8-9.5c-1.2-1.5-0.6-2.4,0.7-4.3l0.3-0.5
	c1.3-1.9,2.8-2.8,3.1-2.8c0,0,0.3,0,0.4,0c0.1,0.2,0.6,0,0.4,0.6c0,0.1,0.2,0,0.4-0.1c0.1-0.1,0.3-0.2,0.4-0.6
	c0.2-0.7-0.3-2.3-0.9-3c-0.4-0.5-1.1-0.7-2.2-0.7c-0.7,0-1.6,0.1-2.7,0.3c-1.3,0.2-2.5,0.7-3.5,1.1c-0.4,0.2-0.8,0.3-1.1,0.4
	c-0.4,0.2-0.8,0.3-1.3,0.3c-1,0-2.5-0.5-4.9-1.7C47.8,43,34.2,28.5,31.7,24.9c-2.5-3.3-4.4-13.5-4.5-13.6c-0.2-0.9-0.5-1.7-1.8-1.7
	h-0.2c-0.2,0-0.4,0.1-0.6,0.3c-0.5,0.6-0.4,2.4,1.4,9.3c-1.4-2.7-3.2-6.5-3.8-8.1c-0.3-0.9-0.5-1.6-0.6-2.1
	c-0.2-0.8-0.4-1.6-1.1-1.6c-0.1,0-0.3,0-0.4,0.1c-0.7,0.3-1.1,1,1,8.2l0.1,0.4c0,0.2,0.2,0.4,0.3,0.8c-0.4-0.6-0.8-1.2-1.2-1.9
	c-3.8-5.8-4.4-6.4-5-6.4c-0.2,0-0.4,0.1-0.6,0.3c-0.4,0.6-0.1,1.7,1,4.6c0.1,0.3,0.2,0.6,0.3,0.9c0.4,1,2.4,3.7,4.6,6.3
	c0.4,0.4,0.6,0.7,0.6,0.7l0,0c-1.4-1.1-8.6-8-9.2-8.7c-0.1-0.1-0.2-0.2-0.3-0.3c-0.3-0.4-0.6-0.7-1.1-0.7c-0.3,0-0.7,0.2-0.9,0.9
	c-0.3,1.1,1.4,3.4,2.1,4.3l4.6,4.6c-0.9-0.3-1.7-0.6-2.1-0.6c-0.5,0-0.7,0.3-0.8,0.6c0,0.2,0.1,0.6,0.2,0.9c-2.8-1.5-7.1-3.8-8-3.8
	c-0.1,0-0.2,0-0.2,0c-0.5,0.1-0.7,0.5-0.7,0.7c-0.1,0.7,0.6,1.2,1.6,2.1c0.8,0.7,3.9,2.9,5.5,4c-0.7-0.2-1.6-0.5-2.4-0.7
	c-2.7-0.8-3.9-1.1-4.3-1.1c-0.1,0-0.3,0.1-0.4,0.1c-0.1,0.1-0.4,0.2-0.5,0.6s0.1,0.8,0.7,1.5c0.7,0.9,2.6,1.8,3.9,2.3
	c-0.3,0.2-0.5,0.5-0.6,0.9c-0.2,0.6,0,1.2,0.2,1.6c0.2,0.3,0.6,0.6,1,0.8c-0.1,0.1-0.2,0.1-0.2,0.1c-0.4,0.3-0.6,0.7-0.6,1.2
	c-0.1,0.9,0.6,2,1.3,2.7c0.5,0.5,2,0.9,3.3,1.3c-0.6,0.1-1,0.3-1.2,0.6c-0.3,0.4-0.2,0.8-0.1,1.2c0.1,0.5,0.4,0.8,0.6,1
	c-0.5,0.6-0.7,1.8-0.3,2.6c0.3,0.5,0.9,0.7,1.4,0.8c-0.1,0.4-0.1,0.8,0.1,1.1c0.2,0.4,0.7,0.6,1.2,0.7c-0.1,0.6-0.2,1.3,0,1.9
	c0.3,0.7,1.1,0.9,1.8,1c0.5,0.1,1,0.3,1.1,0.5c0.3,0.5,0.8,0.7,1.4,0.7c0.1,0.7,0.2,1.6,0.3,2c0.2,0.5,0.9,0.6,1.4,0.4
	c0.1,0.2,0.3,0.5,0.6,0.8c0.2,0.2,0.6,0.4,1.1,0.4s1.2-0.1,1.7-0.3c-0.2,0.6-0.3,1.2,0.1,1.9c0.5,0.9,1.3,0.9,1.9,1
	c0.3,0,0.7,0,1,0.1h0.1c0,0.2,0,0.3,0.1,0.5c0.2,0.5,0.6,0.8,1.2,0.8c0.2,0,0.5,0,0.6-0.1c0.3,0.5,1.1,1.1,2.1,1.2
	c0.4,0,0.7-0.2,0.9-0.4c0.1,0.2,0.2,0.5,0.5,0.7c0.1,0.1,0.2,0.2,0.3,0.2c0.4,0.3,0.5,0.4,0.5,0.7s-0.1,0.8-0.5,1.6
	c-0.5,0.2-2.5,0.7-3.9,1c-1.3,0.3-2.4,0.6-2.9,0.8c-1.1,0.4-2.4,1.9-2.8,3c-0.2,0.4-0.2,0.8,0,1.1c0.1,0.2,0.4,0.5,1,0.5
	c-0.3,0.4-0.5,0.9-0.5,1.4c-0.2,1.5,0.7,2.2,1.2,2.3c0.1,0,0.2,0,0.3,0c0,0,0.2,0,0.4-0.1c-1.2,1.9-0.4,3.8,2.2,5.6
	c0.9,0.6,1.9,0.9,3,0.9c1.9,0,3.7-0.9,5-1.5c0.4-0.2,0.7-0.3,0.9-0.4c1-0.3,2.4-2.5,4.2-5.6c0.5-0.9,1.1-1.9,1.3-2.1
	c0.3-0.3,1.3-0.1,1.7,0.1h0.1c0.1,0,0.3,0.1,0.5,0.2c-0.6,0.9-0.7,2.8-0.1,3.6c0.3,0.4,0.9,0.6,1.9,0.6c-0.2,0.3-0.3,0.7-0.4,1
	c-0.3,1.1,0.9,2.9,1.3,3.2c0.4,0.4,0.7,0.3,1,0.2c0.1,0.1,0.1,0.3,0.2,0.5c0.2,0.9,0.8,1.3,1.1,1.5c0.1,0.1,0.2,0.1,0.2,0.1
	c0.1,0.3,0.4,0.5,0.5,0.6c0.2,0.1,0.2,0.2,0.2,0.2c0,0.9,0.8,1.3,1.2,1.5s0.9,0.1,1.3-0.1c0.1,0.5,0.3,1.1,0.6,1.5s0.9,0.6,1.4,0.6
	c0.1,0.7,0.4,1.6,0.7,1.9c0.1,0.1,0.3,0.3,0.7,0.3c0.5,0,1-0.2,1.5-0.4c0.1,0.3,0.4,0.7,0.7,1.2s0.9,1,2.2,1c0.5,0,1-0.1,1.3-0.2
	c0.1,0,0.2,0,0.2,0c0.3,0,0.7-0.3,1-0.6c0,0.5,0,1.1,0.1,1.5c0.2,1.3,1.2,1.3,1.9,1.3h0.3c0.6,0,1.1-0.3,1.4-0.6
	c0.5,0.9,2.1,1.3,2.4,1.3c0.6,0.1,1.1-0.1,1.4-0.4c0.3,0.2,0.6,0.4,1.1,0.7c0.3,0.2,0.7,0.3,1,0.3c1.2,0,1.9-1.5,2.1-2
	c0.1-0.3,0.3-0.7,0.4-1c0.1-0.2,0.2-0.4,0.3-0.6c0.5,1.5,1.5,3.7,2.2,4.8c0.9,1.4,1.9,1.5,2.3,1.5h0.2c0.3-0.1,0.5-0.3,0.5-0.6
	l-0.8-5.1c0.7,0.9,1.6,1.6,2.3,2.1c0.3,0.2,0.5,0.4,0.7,0.6c1,0.8,1.7,0.9,2.1,0.4c0.2-0.3,0.3-0.7,0.1-1.3
	c-0.2-0.7-0.9-2.4-1.4-3.2c1.2,0.9,2.8,1.3,3.7,1.6c0.3,0.1,0.5,0.1,0.7,0.2c0.8,0.3,1.4,0,1.5-0.5s-0.3-1.2-0.9-1.5
	c-0.4-0.2-1.6-1.3-2.4-2c1.6,0.6,3.3,0.6,4.3,0.7h0.1c0,0,2.6-0.1,2.6-1.1c0-0.2-0.1-0.7-1-0.7c-0.2,0-0.5,0-0.9,0.1
	c-1.6,0.2-3.1-0.7-4-1.4H88c0.5,0.2,1.1,0.3,1.8,0.3c1.8,0,3.8-0.6,4.7-1c0.3-0.1,1.1-0.5,1.1-1.2C95.8,78.6,95,78.2,94.8,78.2z"/>
</svg>
