<?xml version="1.0" encoding="utf-8"?>
<!-- Generator: Adobe Illustrator 27.9.0, SVG Export Plug-In . SVG Version: 6.00 Build 0)  -->
<svg version="1.1" id="Layer_1" xmlns="http://www.w3.org/2000/svg" xmlns:xlink="http://www.w3.org/1999/xlink" x="0px" y="0px"
	 viewBox="0 0 100 100" style="enable-background:new 0 0 100 100;" xml:space="preserve">
<g>
	<g>
		<path d="M65,65.8c0.2-0.4-0.2-0.2-0.5,0.2c0,0,0,0,0,0.1c0,0.1,0.1,0.1,0.1,0.2C64.7,66.1,64.9,66,65,65.8 M82.5,41.4
			C82.5,41.4,82.5,41.5,82.5,41.4c0.1,0.1,0.3,0.1,0.3,0.1L82.5,41.4z M23.8,60.7C23.8,60.7,23.9,60.7,23.8,60.7c0-0.1,0-0.2,0-0.1
			C23.8,60.6,23.8,60.7,23.8,60.7 M2.5,51.4c2.4-1.6,5.1-2.3,7.6-3.3c1.1-0.4,2.2-0.5,3.4-0.8c0.3-0.1,1.8-0.2,2.2,0.2
			c-0.2,0.2-1.6,0.7-1.9,0.8c-2.8,1.3-5.7,2.5-8.5,3.8c-0.3,0.1-0.5,0.3-0.7,0.5c-1.1,0.8-1.4,1.5-1.6,2.5c-0.1,1,1,2,1.7,2.4
			c5.2,3.8,10.7,4.1,16.2,3.6c0.9-0.1,1.9-0.2,2.8-0.4c-0.2-0.3-0.3-1.1-0.3-0.8c-0.1,0.4-0.1,0.4-0.1,0.4l0-0.5
			c0-0.5-0.6-2.2-0.6-1.5c0,0.5,0.2,0.8,0.2,1c0-0.1-0.1-0.3-0.3-0.5c-0.3-0.5-0.4-2.5-0.4-2.5L22,56.7c0,0-0.1-0.2,0-1.2
			c0-0.2,0-0.4,0.1-0.7c-0.2-0.1,0.2-0.8,0.7-1.5c0-0.1,0-0.2-0.1-0.3c-0.2,0.1-0.4,0.2-0.4,0.2s0.1-0.1,0.4-0.4
			c0-0.2-0.1-0.4-0.1-0.5c-0.1,0.1-0.3,0.3-0.5,0.5c-0.3,0.2-0.4,0.5-0.5,0.6c0.1-0.2,0.2-0.4,0.4-0.6c0.4-0.4-0.6-1.6-0.6-1.3
			c-0.1,0.3,0.1,0.7,0.1,0.7s-0.1,0-0.3-0.5c-0.3-0.5-0.5-3-0.5-2.3c-0.1,0.7-0.2,1.7-0.2,1.7l-0.1-0.7c-0.1-0.7-0.3-2.5-0.3-2.5
			L19.6,49c0,0,0,0.1,0.1-1.4c0.1-1.5,0.2-1.7,0.2-1.7l-0.7,1c0,0,0,0,0.3-1.1c0.3-1.1,1.4-3.1,1.1-2.7c-0.2,0.4-1.1,0.8-1.1,0.8
			s0.5-0.6,0.9-1.2c0.4-0.6,1.5-3.1,1-2.5c-0.5,0.6-0.7,1.4-0.7,1.4s0.1-0.5,0.3-1.2c0.1-0.3,0.4-0.7,0.8-1c0-0.2,0.1-0.4,0.1-0.7
			c-0.5,0.3-0.6,0.6-0.6,0.6s0.2-0.3,0.6-1.1c0-0.1,0.1-0.2,0.2-0.3c0.1-0.6,0.3-1.2,0.5-1.8c-0.7,0.1-1.3,0.2-1.1,0.2
			c0.2,0,0.8-0.3,1.3-0.6c0.1-0.2,0.1-0.3,0.2-0.5l-1.3,0.3c0,0,0.5-0.2,1.2-0.6c0-0.3-0.1-0.9,0.2-1.3c0.3-0.5,0.4-1.4-0.2-0.9
			c-0.4,0.3-0.5,0.5-0.5,0.7c0-0.2,0.2-0.7,0.3-1.2c0,0,2-5,5.5-7.1c0.4-0.4,0.8-0.7,1.1-1c0.9-0.7-1.3,0.3-1.7,0.6
			c-0.2,0.1-0.3,0.2-0.3,0.3c0.3-0.3,2-2.1,3.7-3c1.8-1.6,3.8-2.6,6.2-3c-0.3-0.2-0.5-0.4-0.8-0.6c2.4-0.6,4.6-0.8,6.9-0.4
			c-0.2-0.3-0.5-0.5-0.7-0.8c0.4,0,0.9,0.1,1.3,0.1c0.2,0.1,0.4,0.2,0.7,0.3c1.2,0.2,2.4,0.6,3.5,1.2c0.5,0,0.9,0.1,1.4,0.2
			c0,0,0-0.1,0-0.1c0.1,0,0.2,0.1,0.3,0.1c0.1,0,0.1,0,0.2,0c1,0.2,2,0.5,2.9,0.8c0.1-0.4,0.1-0.6,0.1-0.6l0.1,0.7
			c0.3,0.1,0.5,0.2,0.8,0.3c0.1,0,0.1-0.1,0.1-0.2c0.1-0.3,0-0.5,0-0.5c0.1,0.2,0.2,0.6,0.4,0.9c0.3,0.3,0-0.3,0-0.6l0-0.2
			c0,0,0.5,0.7,1,1c0.4,0.3,0.8,0.3,0.6-0.1C56,19.9,56,19.7,56,19.7s0.4,0.5,1.1,0.9c0.6,0.4,1.6,1.2,1.7,1.3l0,0.1l0-0.1
			c0,0,0,0,0,0L58.4,21c0,0,0.4,0.4,0.6,0.8l0.2,0.4c0,0-0.1-0.5,0-0.8l0.1-0.3l0,0c0,0,0,0.5,0.3,1c0.3,0.5,0.4,0.5,0.4,0.5
			s0.4-0.4,0.6-0.4l0.2,0c0,0-0.4,0.1-0.4,0.4c0,0.3,0.4,1.1,0.4,1.1s0.5,0.8,0.7,1.4c0.2,0.2,0.4,0.4,0.6,0.6c0,0,0.1-0.1,0.1-0.1
			l0.3-0.1c0,0-0.2,0.1-0.3,0.4c1.5,1.4,2.8,2.8,4,4c0.2,0,0.5,0,0.7,0c0.8,0.2,1.6,0.5,2.1,1.4c0.5,0.9,0.8,1.3,0.8,1.3
			s-0.1-1.4-0.3-1.9c0.3,0.5,1.1,1.8,1.5,2.5c0.5,1,0-1.3-0.3-1.7c-0.1-0.2-0.2-0.3-0.2-0.3c0.3,0.4,1.9,2.6,2.4,4.5
			c0.4,1.5,0.5,1.8,0.6,1.9c0,0,0,0,0,0c0,0,0,0,0,0s0.4,0,0.9,0.1c-0.1-0.1-0.2-0.3-0.3-0.4c-0.2-0.3-0.6-0.5,0-0.3
			c0.7,0.2,1.6,0.2,1.6,0.2l-0.6-1c0,0,1.9,0.5,2.1,0.6c0,0,0.1,0.1,0.3,0.2c0.3-0.1,0.5-0.2,0.7-0.2c1.2-0.1,4.2-1.9,3.5-3.9
			c0,0,2.2,3.9,1.4,5.5c-0.3,0.7-0.3,1.9-0.6,3c0.1,0,0.2,0.1,0.3,0.1c0.9,0.3,1.1,0.4,1.1,0.4l-0.6-0.6c0,0,0,0,0.6,0.3
			c0.6,0.3,1.8,1.3,1.6,1.1c-0.2-0.2-0.4-0.8-0.4-0.8s0.3,0.4,0.6,0.7s1.7,1.3,1.4,0.9c-0.3-0.4-0.8-0.6-0.8-0.6s0.3,0.1,0.7,0.4
			c0.2,0.1,0.4,0.4,0.7,0.8c0.1,0,0.2,0.1,0.4,0.2c-0.2-0.5-0.3-0.6-0.3-0.6s0.1,0.1,0.6,0.5c0.1,0.1,0.3,0.3,0.4,0.5
			c0.3,0.2,0.6,0.4,0.8,0.6c0-0.6,0-1.2,0-1.1c0,0.2,0.3,1,0.4,1.4c0,0,0,0,0.1,0.1l0-1.3c0,0,0.1,0.4,0.2,0.9
			c0.2,0,0.6,0.1,0.8,0.3c0.3,0.3,0.8,0.4,0.6,0c-0.1-0.3-0.3-0.4-0.3-0.4c0.1,0.1,0.4,0.2,0.7,0.4c0,0,3.1,2.1,3.9,4.7
			c0,0,0.1,0.1,0.1,0.1l0.5-0.1c0,0,0.1,0-0.1,0.2c-0.1,0.1-0.2,0.2-0.2,0.2c0,0,0.1,0.1,0.1,0.1c0,0,0,0,0,0c0.3,0,0.9-0.3,1-0.4
			c0,0-0.1,0.1-0.4,0.4c-0.1,0.1-0.2,0.2-0.4,0.2c0.1,0.1,0.2,0.3,0.3,0.4c0.2-0.1,0.5-0.1,0.7-0.2c0.8-0.3,1.1-0.6,1.1-0.6
			s-1.4,1.7-0.5,1.6c0.9-0.1,1.3-0.8,1.3-0.8s0,0-0.3,0.5c-0.2,0.2-0.7,0.7-1.1,1.1c0.2,0.3,0.3,0.6,0.4,0.9
			c0.2,0.1,0.3,0.2,0.5,0.4c0.3,0.2,0,0-0.4-0.1c0.1,0.3,0.1,0.5,0.1,0.8c0,0,0.1,0.4-0.4,1.1c-0.1,0.1-0.2,0.2-0.3,0.3
			c0,0.1,0,0.1,0,0.1s0,0-0.1-0.1c-0.1,0.1-0.2,0.1-0.4,0.1c0,0,0,0,0,0c0.2,0.2,0.3,0.3,0.5,0.4c-0.1-0.1-0.3-0.2-0.5-0.3
			c-0.3-0.3-1.3,0.2-1.1,0.3c0.2,0.1,0.5,0,0.5,0s0,0-0.5,0.1c-0.3,0.1-1.5,0.1-1.8,0.1c0,0-0.1,0-0.1,0c0,0,0,0,0.1,0
			c0.6,0.1,1.3,0.2,1.3,0.2l-0.5,0c-0.4,0-1.3,0-1.7,0c0,0-0.1,0-0.1,0c0,0,0,0,0,0l0.9,0.3c0,0,0.1,0-1-0.2
			c-0.6,0.8-1.9,2.2-1.9,2.2c0-0.3,0.2-1.7,0.3-2.2c-0.3-0.1-0.6-0.2-0.9-0.4c-0.2,0-0.4,0-0.7,0.1c0,0.1,0.1,0.1,0.1,0.1
			s-0.1-0.1-0.2-0.1c-0.2,0-0.5,0.1-0.7,0.1c-0.8,0.2-1.5,0.4-2.2,0.5c-0.5,0.2-0.9,0.5-1.4,0.6c-0.2,0.1-0.9,0.3-0.9,0.3
			c-0.6,0.4-1,0.5-1.1,1.4c-0.1,0.7,0.2,1.1,0.2,1.4c-0.1,0.3-0.1,0.5-0.2,0.8c0,0.3,0,0.5-0.1,0.8c0,0.1,0.2,0.3,0.1,0.4
			c0.3,0.6,0.9,0.6,1.5,1c-0.8,0.1-1.4,0.1-2.1-0.2c-0.4-0.1-0.7-0.1-1.1-0.3c-0.4,0.2-0.8,0.3-0.8,0.3c-1.1,0.4-1.7,0.2-2.3-0.8
			c0,0,0,0,0,0l-0.4-0.5c-0.5-0.5-1-0.9-1.5-1.2c-0.4,0.2-0.4,0.2-0.4,0.2s0.1-0.1,0.3-0.2c-0.1,0-0.2-0.1-0.2-0.1
			c-0.4,0.1-1.1,0.3-1.4,0.6C75,62.6,75,62.6,75,62.6s0.4-0.4,0.5-0.6c0.2-0.2-1.3,0.9-1.3,0.9s0.3-0.3,0.5-0.5c0.2-0.3-1,0-1.3,0.4
			c-0.3,0.3-0.4,0.5-0.4,0.5s0.7-0.9,0.4-1.1c-0.2-0.1-0.9-0.3-1.1-0.4c-0.8,0.3-1.4,0.7-1.8,1c-0.5,0.8-0.7,0.9-0.7,0.9l0.1-0.4
			c0,0-1.2,1.6-1.8,1.9c-0.3,0.1-0.5,0.2-0.6,0.3c0.2-0.1,0.4-0.3,0.7-0.7c0.4-0.6-1.1,0.6-1.4,1l-0.3,0.5c0,0,0,0,0.1-0.4
			c0.2-0.4-0.5,0.4-0.8,0.5c-0.4,0.1-0.4,0.1-0.4,0.1s0.3-0.2,0.5-0.3c0.1-0.1-0.9,0.4-0.9,0.4s0.4-0.2,0.5-0.5
			c0.1-0.2-0.5,0.3-0.7,0.4c0,0-0.1,0-0.1,0c0.5,0.4,1,0.5,2,1.8c0.1,0,0.2,0.1,0.3,0.1l0.5,0.2c0,0-0.1,0-0.5-0.1c0,0,0,0-0.1,0
			c0.1,0.2,0.3,0.4,0.4,0.6c0.3,0.3,0.7,0.5,1,0.6c0.8,0.2,0.8,0.2,0.8,0.2s-0.6,0-0.9,0c-0.3,0,1.5,0.6,1.5,0.6s-0.4-0.1-0.8-0.1
			c-0.4,0,0.5,0.9,1,0.9c0.5,0,0.8,0,0.8,0s-0.6,0-0.9,0.2c0.7,0.3,1.6,0.6,2.1,1.1c0.7,0.7,1.3,2,1.5,3c0.3,1.7-0.2,2.4-1.3,3
			c0.3-1.5-0.4-2.5-1.1-2.6c0.2,0.7,0.1,1.5-0.4,1.8c-0.5,0.6-1.9,0.8-2,0.7c0.3-1,0.3-1.8,0-2.4c-0.4,1-1,1.9-2.2,1.9
			c0,0,0.7-1.7,0.6-3.5c-0.3,0.4-0.8,0.6-1.2,0.9c0-0.1-0.1-0.2-0.1-0.3l0,0.1c0,0-0.6-0.8-0.9-1c-0.2-0.2-0.9,0.7-0.9,0.7
			s0.1-0.3,0.3-0.6c0.2-0.4,0.1-1.6-0.1-1.3c-0.2,0.3-0.3,0.6-0.3,0.6s0.5-1.8,0.4-1.5c-0.2,0.2-0.4,0.7-0.4,0.7s0,0,0.3-0.7
			c0-0.1,0-0.1,0.1-0.2c-0.3-0.4-0.6-0.7-0.9-1.1c-0.6-0.9-1.2-1.8-1.9-2.6c-0.2-0.2-0.5-0.3-0.8-0.4c-0.5-0.2-1-0.3-1.4-0.5
			c-0.2,0.3-0.3,0.4-0.3,0.4s0.1-0.2,0.1-0.4c0,0-0.1,0-0.1,0c-0.1,0.2-0.3,0.8-0.4,0.8c-0.2,0.1-0.2,0.1-0.3,0.1
			c0,0,0.4-0.1,0.4-0.5c0-0.5-0.5-0.3-0.9,0.6c-0.4,0.8-0.6,1-0.6,1s0.3-0.9,0.4-1.3c0.1-0.4-0.5,0.4-0.8,0.8
			c-0.3,0.4-1.5,0.7-1.9,1.3l-0.6-0.3c-0.4,0.5-0.7,0.8-0.7,0.8s0.3-0.5,0.5-0.9l-0.2-0.1c-0.5,0.4-1.1,1.2-1.2,1.5
			c-0.2,0.4-0.3,0.6-0.3,0.6s0.3-0.8-0.1-0.8c-0.3,0-1.6,0.4-2.6,0.7c0.1,0.3,0.2,0.6,0.2,0.8c0,0.1,0.1,0.2,0.1,0.2l0.1-0.4
			c0,0.1,0,0.4,0,0.7c0.3,0.7,0.7,1.4,0.7,1.9c0,0.1,0,0.3,0,0.4c0.1,0.1,0.3,0.2,0.3,0.3c0.3,0.3,0.3,0.4,0.3,0.4s-0.2-0.3-0.5-0.3
			c-0.3,0,0.7,0.6,0.7,0.8c0,0.2,0,0.3,0,0.3c0-0.1,0-0.4-0.4-0.5c-0.4-0.1-0.4,0.4,0.3,1.1c0.7,0.7,0.8,0.9,0.8,0.9
			s-0.8-0.5-1.1-0.8c-0.4-0.2,0.2,0.6,0.5,1c0,0,0,0,0,0.1c0.8,0.3,2.2,0.6,2.5,0.9c0.3,0.3,0.8,1.2,0.7,1.4c0,0-0.4-0.3-0.8-0.4
			c0.2,0.1,0.3,0.3,0.4,0.4c0.2,0.5,0.1,0.9,0,1.1c0,0-0.6-0.6-1-0.8c-0.1,0-0.2-0.1-0.3-0.1c0.2,0.3,0.6,0.9,0.3,1.8
			c-0.5-0.4-1-0.3-1.3-0.5c-0.3-0.1-0.5-0.4-0.7-0.5c0.1,0.5,0.1,1.2,0,1.4c-0.5-0.2-1.4-0.2-1.6-0.6c-0.3-0.4-0.6-0.8-1.2-1
			c-0.6-0.2-1.5-0.9-1.4-1.5c-0.4,0.6-0.4,0.9-0.4,1.2c0,0.3-0.6,0.6-0.8,1c-0.4-0.3-0.9-1.1-0.7-1.8c0.2-0.7,0.8-2.1,0.8-2.7
			c0,0,0,0,0,0c-0.1,0-0.1,0-0.1,0c0,0,0,0,0,0c0,0,0,0,0.1-0.1c0,0,0,0,0,0c0,0-0.1,0.1-0.1,0.1c0,0,0,0,0,0s0,0,0,0
			c-0.2,0.1-0.3,0.3-0.3,0.3l0.2-0.4c0.1-0.2,0.1-0.4,0.1-0.6c0,0,0-0.1,0-0.1c0,0-0.1,0-0.2,0.2c-0.2,0.4-0.1,0.7-0.1,0.7
			s-0.1,0-0.2-0.3c-0.1-0.2,0.1-1.1,0-0.8c-0.2,0.3-0.2,0.7-0.2,0.7s-0.1-1.2-0.1-1c0,0.2-0.1,0.6-0.1,0.6s0,0-0.1-0.4
			c-0.1-0.4,0.3-1.3,0-1c-0.2,0.4-0.3,0.3-0.3,0.3l0.3-0.5c0-0.1,0.1-0.2,0.1-0.3c-0.5-1-1.3-2.2-2.5-3.3c-0.2,0-0.4,0-0.5,0
			l-0.5-0.1c0,0,0.1,0,0.5,0c0.4,0-1-0.7-1.7-0.6c-0.7,0-0.8,0-0.8,0s0.5-0.1,0.8-0.2c0.3-0.1-1.6-0.1-1.6-0.1s0.4,0,0.7-0.1
			c0.1,0-0.1-0.2-0.3-0.3c-0.4-0.1-0.7-0.1-0.7,0.2c0,0.6,0,1.2,0,1.4c0,0.2,0.2,1.2,0,1.6c-0.1,0.3-0.7,1.1-1.2,0.9
			c0-1-1.1-1.3-1.1-1.9c0-0.5,0.2-1.2,0-1.3c-0.2-0.1-0.3,0.2-0.2,0.5c0,0.3-0.1,1.3,0,1.5c0.2,0.2,0,1.3-0.7,1.3
			c-0.5-1.1-1.4-1.3-1.3-2c0.1-0.7-0.1-1.3-0.2-1.5c-0.1,0.4-0.4,0.9-0.2,1.3c0.2,1,0.4,1.4-0.2,1.9c-0.5-0.3-0.9-0.1-1.6-0.7
			c-0.2-0.2-0.5-0.6-0.5-1.2c0-0.7,0.1-0.5,0.2-0.9c0,0-0.7,0.2-0.9,0.4c-0.4,0.4-0.7,0.1-1.1,1c-0.3-0.6-0.4-2.4,1.2-3
			c0.9-0.4,1.3-0.7,1.6-1c-0.1,0-0.2,0-0.2,0c0.1,0,0.1,0,0.2,0c0.1-0.1,0.1-0.2,0.1-0.3c-0.4,0-0.9,0.1-1.1,0.1l-0.5,0.2
			c0,0,0-0.1,0.4-0.2c0.4-0.2-0.6,0-1-0.1c-0.3-0.1-0.4-0.1-0.4-0.1s0.4,0,0.6,0c0.2,0-0.9-0.2-0.9-0.2s0.4,0.1,0.7-0.1
			c0.3-0.1-0.6,0-0.8-0.1C29,67.8,29,67.7,29,67.7s0.3,0.2,0.7,0c0.5-0.2,0-0.3-0.5-0.2l-0.4,0.1c0,0,0.1-0.1,0.3-0.2c0,0,0,0,0,0
			s0,0,0,0c0.1-0.1,0.2-0.2,0.3-0.3c0,0,0-0.1,0-0.1c-0.1,0.1-0.2,0.2-0.2,0.2c-0.1,0.1-0.1,0.1-0.1,0.1c0,0,0,0,0,0
			c0-0.1,0.3-0.5,0.3-0.7c0,0,0-0.1,0-0.1c0-0.2,0-0.4-0.3-0.2l-0.3,0.2c0,0,0.3-0.3,0.3-0.4c-0.1-0.1-0.5-0.1-0.8,0
			c-0.3,0.1-0.5,0-0.5,0s0.1-0.1,0.2-0.2c-6.9,1.7-13.8,1.3-20.7-1.7c-1.7-0.7-3.4-2.1-4.9-3.6C-0.1,58.2-0.1,53.2,2.5,51.4"/>
	</g>
</g>
</svg>
