<?xml version="1.0" encoding="utf-8"?>
<!-- Generator: Adobe Illustrator 27.9.0, SVG Export Plug-In . SVG Version: 6.00 Build 0)  -->
<svg version="1.1" id="Layer_1" xmlns="http://www.w3.org/2000/svg" xmlns:xlink="http://www.w3.org/1999/xlink" x="0px" y="0px"
	 viewBox="0 0 100 100" style="enable-background:new 0 0 100 100;" xml:space="preserve">
<g>
	<path d="M75.4,66.3c-1.4-1.5-2.8-3-4.3-4.5c-3.6-3.6-7.2-7.2-10.8-10.7c-0.7-0.7-0.7-1.6-0.8-2.5c0.2,0.1,0.4,0.2,0.6,0.3
		c0.2-0.7,0.1-1.4-0.2-2C59.5,46,59.2,45,58.8,44c0.2,0,0.4-0.1,0.6-0.1c-0.1-0.2-0.2-0.5-0.4-0.6c-0.5-0.6-0.8-1.3-1-2.1
		c-0.4-1.4-0.8-2.8-1.2-4.2c-0.1-0.3-0.3-0.5-0.5-0.9c0.2-0.1,0.5-0.3,0.8-0.5c-0.1-0.3-0.1-0.6-0.2-0.8c-0.2-0.7-0.3-1.3,0.5-1.7
		c-0.3-0.4-0.6-0.8-0.8-1.2c-0.2-0.4-0.3-0.9-0.5-1.3c0,0-0.1-0.1-0.1-0.1c-0.3-0.5-0.6-0.9-0.9-1.4c0,0-0.2,0.1-0.3,0.2
		c-0.1-0.5-0.2-1-0.3-1.6c-0.1-0.5-0.2-1-0.2-1.6c0.3,0.1,0.4,0.1,0.7,0.2c-0.1-0.3-0.2-0.5-0.2-0.7c0-0.2,0.2-0.4,0.3-0.6
		c0.1-0.2,0.4-0.3,0.5-0.5c0.1-0.3,0.2-0.6,0.1-0.8c-0.1-0.5-0.1-1,0.2-1.4c0.1-0.1,0.1-0.2,0.1-0.3c-0.4-0.2-1.1,0.2-1.3-0.6
		c-0.1-0.5-0.2-0.9-0.3-1.4c0.8,0.3,1.3,0.5,1.9,0.7c1.7,0.6,3.4,1.1,5.1,1.7c1.5,0.5,2.7,1.4,3.5,2.8c0.1,0.2,0.2,0.5,0.3,0.7
		c0.2,1.2,0.3,2.4,0.5,3.6c0.2,1,0.3,1.1,1.3,1c1.9-0.2,3.7-0.9,5.1-2.2c0.3-0.3,0.6-0.8,0.8-1.2c0.1-0.3,0-0.6-0.4-0.7
		c-0.7-0.2-1.2,0-1.8,0.4c0.2,0,0.4-0.1,0.5-0.1c0.2,0,0.5,0.1,0.7,0.1c-0.1,0.2-0.2,0.5-0.4,0.7c-0.7,0.7-1.6,1.2-2.5,1.6
		c-0.8,0.4-1.9,0-2.2-0.8c-0.1-0.4-0.1-0.8,0-1.2c0.1-1.3,0.4-2.7,0.1-4c-0.2-0.6-0.3-1.3-0.4-2c-0.3-1.7-0.9-3.3-1.9-4.7
		c-0.1-0.1-0.1-0.2-0.3-0.4c0.9,0.4,1.4,1,1.7,1.9c0.2,0.6,0.5,1.2,0.6,1.8c0.3,0.9,0.4,1.9,0.7,2.8c0.4,1.3,1.7,2.1,3.1,1.9
		c0.6-0.1,1.3-0.1,1.4-0.8c0.2-0.8,0.1-1.6-0.3-2.3c-0.3-0.5-0.7-0.5-1.2-0.2c0.2,0.1,0.4,0.1,0.6,0.2c0.6,0.2,0.8,0.7,0.7,1.4
		c-0.1,0.7-0.4,1.2-1,1.2c-0.9,0-1.8-0.2-2.3-1.1c-0.8-1.2-0.8-2.5-0.4-3.8c0.1-0.5,0-0.8-0.3-1.2c-0.4-0.5-0.9-1.1-1.2-1.7
		c-0.4-0.8-1.1-1.3-1.9-1.7c-0.4-0.2-0.8-0.3-1.2-0.5c-0.8-0.5-1.6-0.8-2.6-1c-0.7-0.1-1.5-0.1-2.1-0.4c-2.1-1-3.7-2.4-4.9-4.4
		c-1.1-1.8-2.2-3.7-3.3-5.5c-0.8-1.2-1.9-2.2-3.4-2.6c-0.3-0.1-0.8,0.1-1.1,0.3c-0.3,0.2-0.5,0.3-0.8,0.2c-0.2-0.1-0.5-0.1-0.7-0.1
		c-0.5,0.1-0.9,0.3-1.4,0.5c-2.1,0.9-3.5,2.5-4.1,4.6c-0.2,0.8-0.2,1.6-0.2,2.4c0,1.7,0.6,3.1,1.6,4.4c0,0.1,0.1,0.1,0.2,0.1
		c0.3,0.4,0.7,0.7,1,1c-0.7,0-1.1-0.5-1.3-1.3c-0.1,0.4-0.2,0.7-0.3,0.9c-0.8,0-1.3-0.2-1.6-1c-0.1-0.3-0.3-0.5-0.5-0.8
		c-0.2,0.9-0.4,1.8-0.6,2.6c-0.2,0.6-0.9,1.1-1.5,0.8c-0.5-0.2-0.7,0-1,0.3c-0.6,0.8-1.5,1-2.4,0.5c-0.4-0.2-0.9-0.4-1.4-0.6
		c0,0,0,0.1-0.1,0.1c0.2,0.4,0.5,0.7,0.7,1.1c0.2,0.4,0.4,0.7,0.9,0.7c-0.3,0-0.7,0-1.1,0.1c0.1,0.1,0.1,0.3,0.2,0.4
		c0.3,0.5,0.3,0.9-0.2,1.2c-0.1,0.1-0.2,0.4-0.2,0.5c0.3,1.1,0.4,2.1,0.4,3.2c0,0.2,0,0.4-0.1,0.6c-0.3,0.3-0.2,0.6,0,0.9
		c0.4,0.9,0.8,1.8,1.2,2.8c-0.1-0.1-0.3-0.3-0.3-0.4c-0.7-1.3-1.2-2.6-2.5-3.4c-0.3-0.2-0.6-0.3-0.8-0.4c-1-0.1-2-0.1-2.9-0.2
		c-0.7,0-2.1,1.2-2.2,1.9c0,0.4,0,0.8-0.2,1.1c-1.3,2.4-2,5-2.7,7.7c-0.7,2.6-1.2,5.1-1.4,7.8c-0.1,2,0,4,0,6c0,0.4,0,0.7-0.6,0.7
		c0.2,1.2,0.4,2.4,0.7,3.5c0.1,0.3,0.3,0.5,0.4,0.8c0.3,2,0.6,4.1,0.9,6.1c0.4,2.7,1.4,5.3,2.9,7.6c0.7,1.1,1.6,1.8,2.8,2.3
		c0.1,0.1,0.4,0.1,0.4,0.2c0.2,0.4,0.5,0.4,0.8,0.3c0.3-0.1,0.7,0,0.9-0.1c0.6-0.6,1.2-1.2,1.7-1.8c2.2-3,3.3-6.5,4-10.1
		c0.4-2.2,0.7-4.4,0.9-6.7c0.2-2.3,0.3-4.6,0.4-6.9c0-0.3-0.1-0.6,0-0.9c0.3-1.2,0.1-2.4-0.1-3.6c0-0.1,0-0.2-0.1-0.2
		c-0.5-0.2-0.4-0.6-0.5-1c-0.3-1.7-0.5-3.4-0.9-5.1c-0.2-1.1-0.5-2.1-0.7-3.2c0.4,1.2,0.7,2.4,1.1,3.6c0.3-0.6,0.6-1.2,0.9-1.8
		c0.1-0.1,0.3-0.2,0.4-0.3c0.1-0.1,0.2-0.2,0.2-0.3c0.2-0.4,0.4-0.9,0.6-1.3c0-0.1,0.1-0.2,0-0.3c-0.3-0.4,0-0.6,0.2-0.9
		c0.1-0.2,0.3-0.4,0.3-0.7c0.1-0.6,0.2-1.1,0.3-1.7c0.1,0,0.2,0,0.2,0.1c-0.2,0.8-0.4,1.5-0.6,2.3c-0.1,0.3-0.1,0.6,0,0.8
		c0.2,0.7,0.6,1.4,0.9,2.1c0.1,0.1,0.2,0.2,0.3,0.4c0.1-0.2,0.1-0.3,0.2-0.4c0.1-0.1,0.2-0.2,0.3-0.4c0.1,1,1,1.8,0.6,2.9
		c-0.2-0.1-0.4-0.3-0.6-0.4c-0.2,0.9-0.5,1.8-0.7,2.7c-0.4-0.1-0.7-0.2-1-0.3c0.2,0.6,0.5,1.1,0.7,1.6c0.1,0.3,0.1,0.7,0,0.9
		c-0.4,0.7-0.9,1.3-1.3,1.9c-0.1,0.2-0.2,0.4-0.1,0.6c0.1,0.9,0.4,1.7-0.2,2.6c0,0.1,0,0.2,0,0.3c-0.1,2.1-0.2,4.1-0.3,6.2
		c-0.1,1.4-0.2,2.8-0.4,4.1c-0.3,2.4-0.9,4.8-1.7,7.1C33,61.5,32.6,62.8,32,64c-0.3,0.8-0.9,1.5-1.3,2.3c-0.2,0.4-0.2,0.7,0.1,1.1
		c0.1,0.2,0.1,0.6,0,0.8c0,0.1-0.3,0.2-0.4,0.2c-0.1,0.1-0.3,0.2-0.4,0.3c-0.5,1.8-1.2,3.4-2.5,4.7c-0.3,0.4-0.3,0.7,0,1
		c0.1,0.1,0.2,0.3,0.2,0.5c0,0.4,0,0.9,0,1.3c0,2.4,0,4.8-0.1,7.2c0,0.8-0.2,1.7-0.5,2.5c-0.3,0.7-0.8,1.2-1,1.9
		c-0.1,0.8-0.6,1.6-0.9,2.4c0,0.1,0,0.2,0,0.4c0.3-0.1,0.6-0.1,0.9-0.2c0,0.8,0,1.7,0,2.7c0.3-0.2,0.4-0.4,0.5-0.5
		c0,0.3,0,0.6,0.1,0.9c0.4,1.5,0,2.9-0.1,4.4c0,1,0.1,1.6,1.1,1.8c1.2,0.2,2.5,0.2,3.7-0.1c0.1,0,0.3-0.1,0.3-0.1
		c0.1-0.5,0.3-1,0.3-1.4c0-0.6-0.3-1.1-0.4-1.7c-0.4-1.5-0.7-3-1.1-4.4c0,0,0.1,0,0.1,0c0.2,0.1,0.3,0.3,0.6,0.5c0-0.2,0-0.3,0-0.4
		c-0.2-0.8-0.4-1.6-0.6-2.5c-0.2-0.8-0.3-1.6,0-2.4c0.8-1.9,1.4-3.9,2.2-5.9c0.2-0.5,0.4-0.9,0.7-1.3c0.5-0.6,0.9-1.1,0.8-1.9
		c0-0.4,0.2-0.8,0.4-1.1c0.2-0.4,0.5-0.7,0.6-1.1c0.2-0.6,0.2-1.2,0.3-1.8c0.1-0.2,0.2-0.5,0.3-0.6c0.3-0.2,0.4-0.4,0.4-0.8
		c0-0.4,0-0.9,0.3-1.2c0.5-0.6,1.2-1,1.8-1.5c0.1-0.1,0.3-0.2,0.3-0.3c0.2-0.6,0.3-1.2,0.5-1.8c0.1-0.3,0.1-0.6,0.3-0.8
		c0.2-0.3,0.3-0.5,0-0.9c-0.1-0.1-0.1-0.4-0.1-0.5c0.1-0.4,0.3-0.8,0.5-1.2c0.6-1.7,1.9-3.1,2.3-4.9c0.1-0.5,0.4-1,0.5-1.4
		c0.1-0.1,0.1-0.3,0.2-0.4c0.5-0.3,0.5-0.8,0.3-1.3c-0.2-0.4-0.1-0.7,0.1-1.1c1-1.7,2-3.5,3-5.2c0.1-0.2,0.2-0.3,0.3-0.5
		c0,0,0.1,0,0.1,0c-0.2,0.6-0.5,1.1-0.8,1.8c0.9,0.3,1.5,0.8,1.6,1.8c0,0.5,0.2,0.9,0.2,1.4c0,0.1,0,0.3-0.1,0.4
		c-0.4,0.2-0.3,0.5-0.2,0.8c0.2,0.6,0.5,1.1,0.7,1.7c0.6,2,1.2,4,1.8,6c0,0.2,0.1,0.3,0.2,0.4c0,0-0.1,0-0.1,0.1
		c-0.4-0.7-0.7-1.3-1.1-2c-0.1,0-0.1,0-0.2,0c-0.1,0.2-0.3,0.4-0.2,0.5c0.2,1.1,0.4,2.2,0.6,3.3c0.1,0.8,0.7,1.7,0.2,2.5
		c0,0,0,0.1,0,0.1c0.1,1,0.2,1.9,0.3,2.9c0,0.5,0,1.2-0.2,1.6c-0.2,0.3-0.2,0.5-0.1,0.8c0.3,0.7,0.7,1.3,0.8,2.1c0.5,2,0.9,4,1.3,6
		c0.1,0.6,0.2,1.3,0.1,1.9c0,0.5-0.2,0.9-0.2,1.4C51,85.6,51,86,50.9,86.4c-0.2,0.9-0.5,1.8-0.8,2.7c-0.1,0.4,0,0.6,0.3,0.7
		c0.4-0.5,0.7-1,1.1-1.4c0,0.3-0.2,0.6-0.2,0.9c0.1,1.4,0.3,2.8,0.4,4.2c0,0.2,0.1,0.4,0.2,0.5c0.4,0.1,0.3,0.4,0.4,0.7
		c0.4,2,2.6,3.4,4.6,2.8c0.9-0.3,1.2-0.7,0.8-1.6c-0.8-1.9-1.4-3.8-1.8-5.8c0-0.2-0.1-0.3-0.1-0.5c0,0,0.1,0,0.1,0
		c0.1,0.2,0.2,0.3,0.3,0.5c0.3-0.1,0.5-0.2,0.4-0.6c-0.3-1.1-0.5-2.2-0.8-3.3c-0.2-0.6-0.5-1.3-0.5-1.9c0-1.2,0-2.4,0.1-3.6
		c0.1-0.6,0.1-1.4,0.6-1.9c0.5-0.4,0.5-0.9,0.5-1.5c0-0.8-0.1-1.6,0.2-2.4c0.2-0.6,0.2-1.2,0.1-1.8c-0.1-0.8,0-1.5,0-2.3
		c0-0.7,0.2-1.4,0.4-2.1c0.3-1.2-0.1-2.3-0.5-3.4c-0.1-0.2,0-0.4,0-0.6c0-0.2-0.1-0.4-0.1-0.7c-0.1-0.4-0.2-0.8-0.3-1.2
		c0.5-0.1,0.3-0.5,0.4-0.8c0.4-1.4,0.8-2.9,1.2-4.3c0.1-0.2,0-0.4,0-0.6c-0.4-1.1-0.7-2.2-0.3-3.4c0.2-0.6,0.3-1.3,0.2-1.9
		c-0.2-1.3-0.6-2.7-1-4c0.1,0,0.1,0.1,0.2,0.1c0.4,1.3,0.8,2.6,1.2,3.9c0.1,0.2,0,0.5,0,0.7c0,0.3-0.1,0.5-0.1,0.8
		c0.3,0,0.6-0.1,0.9-0.1c0.1,0,0.2,0,0.3-0.1c0.5-0.4,0.8-0.2,1.2,0.2c4.5,4.7,9,9.3,13.5,13.9c0.1,0.1,0.3,0.1,0.4,0.2
		c0.2-0.2,0.3-0.3,0.5-0.5C74.9,66.9,75.2,66.5,75.4,66.3z M39.4,5.3C40,3.8,40.8,2.7,42,1.9C41.1,3,40.3,4.1,39.4,5.3z M42.5,8.5
		C43.2,7.9,43.8,8,44,8.8C43.5,8.7,43,8.6,42.5,8.5z M47.2,9.1c-0.3,0-0.7,0-1,0c0-0.1,0-0.2,0-0.3c0.4-0.1,0.7-0.2,1.1-0.2
		c0.1,0,0.2,0.2,0.3,0.2C47.4,8.9,47.3,9.1,47.2,9.1z M54.1,18.9c2,0.5,4,1,6,1.6C58.1,20.1,56,19.9,54.1,18.9z M59.8,21.3
		c-1.7-0.5-3.4-1.1-5.1-1.6c0,0,0-0.1,0-0.1c0.1,0,0.2-0.1,0.3,0c2,0.5,4,1,6,1.5c0.7,0.2,1.3,0.5,2,0.7c0.8,0.4,1.4,1,1.7,1.9
		C63.1,22.7,61.5,21.8,59.8,21.3z M66.7,27.9c0.3,0.5,0.7,1,1,1.6C66.7,29.6,66.3,29,66.7,27.9z M66.2,23.5
		c-1.8-2.1-4.2-3.1-6.4-4.5c0.8,0.2,1.6,0.4,2.4,0.7c1.6,0.6,2.8,1.8,3.9,3.1C66.2,23,66.2,23.2,66.2,23.5z M52.4,11.4
		c0.9,0.7,1.8,1.4,2.7,2c1,0.6,2,0.9,3.1,1.4C55.9,14.3,53.9,13.2,52.4,11.4z M53,13.7c-1.1-0.7-1.8-1.5-2.2-2.6
		C51.5,11.9,52.2,12.8,53,13.7z M51.2,8.5c0,0,0.1-0.1,0.1-0.1c0.4,0.5,0.9,1,1.3,1.5c0,0-0.1,0.1-0.1,0.1C52.1,9.5,51.6,9,51.2,8.5
		z M55.3,14.9c1.3,0.5,2.6,1,3.8,1.4C57.8,16.3,56.5,15.9,55.3,14.9z M62.3,19.5c-1.6-0.3-3.8-1.2-4.6-1.8
		C59.1,17.8,60.6,18.4,62.3,19.5z M57.5,17.9c0,0,0,0.1-0.1,0.1c-0.9-0.1-1.6-0.7-2.4-1.2c0,0,0-0.1,0.1-0.1
		C55.9,17.1,56.7,17.5,57.5,17.9z M58.4,14.6c-0.9-0.5-1.9-0.9-2.8-1.4c0-0.1,0.1-0.1,0.1-0.2c0.9,0.5,1.9,0.9,2.8,1.4
		C58.4,14.5,58.4,14.5,58.4,14.6z M58.4,19.2C58.4,19.2,58.4,19.3,58.4,19.2c-1.4-0.3-2.8-0.7-4.3-1.1c0.1-0.3,0.2-0.6,0.4-1
		C55.8,17.9,57.1,18.5,58.4,19.2z M58.1,18.7c0-0.1,0.1-0.1,0.1-0.2c0.6,0.3,1.1,0.6,1.7,0.9c0,0.1-0.1,0.1-0.1,0.2
		C59.2,19.3,58.7,19,58.1,18.7z M60.4,18.3c2.1,0.3,4.5,1.5,5.3,3.4C64.4,20,62.2,19.4,60.4,18.3z M59.9,17.7c0,0,0-0.1,0-0.1
		c0.9,0.3,1.9,0.6,2.8,0.9c0,0.1,0,0.1-0.1,0.2C61.7,18.3,60.8,18,59.9,17.7z M65.3,19.9c-0.7-0.5-1.3-1-2.1-1.6
		C64.3,18.5,64.8,19.1,65.3,19.9z M67.3,18.8c-0.7-1.8-1.8-3-3.5-3.9C65.3,15.1,67.3,17,67.3,18.8z M59.5,13.1
		c1.1,0.3,2.2,0.6,3.3,0.9c0,0.1,0,0.2-0.1,0.2c-1.1-0.3-2.2-0.6-3.3-0.9C59.4,13.2,59.5,13.1,59.5,13.1z M59,14.1
		c1,0.3,2,0.6,3,0.9c0.9,0.2,1.4,0.8,1.9,1.3c-0.8-0.3-1.6-0.6-2.5-0.9c-0.9-0.2-2.5-0.9-3.3-1.6C58.6,14,58.8,14.1,59,14.1z
		 M55.8,11.5c-1.8-1.6-3.5-3.4-4.6-5.7C52.8,7.7,54.3,9.6,55.8,11.5z M52.4,6.3c0,0-0.1,0.1-0.1,0.1c-1-1.5-2-3-3-4.4
		C50.7,3.1,51.3,4.9,52.4,6.3z M49.1,13.2c0.6,0.5,1.3,1,1.9,1.5c0,0,0,0.1,0,0.1c-0.7-0.4-1.5-0.7-2-1.4
		C49.1,13.3,49.1,13.3,49.1,13.2z M47.6,12.6c0.1,0,0.1-0.1,0.2-0.1c0.4,0.5,0.7,0.9,1.1,1.4c0,0-0.1,0.1-0.1,0.1
		C48.4,13.5,48,13,47.6,12.6z M50.3,16.1c-0.7-0.6-1.4-1.3-2.1-1.9c0,0,0.1-0.1,0.1-0.1c0.7,0.5,1.5,1,2.3,1.5
		C50.5,15.8,50.4,15.9,50.3,16.1z M52.2,34.4c0.1,0.7,0.1,1.4,0.2,2.1C51.9,35.9,52.2,35.1,52.2,34.4z M51.2,16.6
		c-0.2-0.1-0.3-0.5-0.5-0.7c0,0,0.1-0.1,0.1-0.1c1.1,0.4,2.2,0.9,3.3,1.3C53,18.1,52.1,17.1,51.2,16.6z M54.1,18.3
		c2.3,0.7,4.7,1.1,6.8,2.2c-1.1-0.3-2.2-0.6-3.3-0.8c-1-0.3-2-0.5-3.1-0.8c-0.2-0.1-0.3-0.2-0.5-0.3C54,18.4,54,18.4,54.1,18.3z
		 M54.6,39c-0.1,0.4-0.1,0.9-0.2,1.3c0-0.5,0.1-1,0-1.6c0-0.3-0.2-0.5-0.3-0.7C54.6,38.3,54.6,38.4,54.6,39z M56.6,48
		c-0.4-1.7-0.6-3.5-1.6-5c-0.2-0.2-0.2-0.6-0.2-0.9c-0.1-0.6-0.3-1.1-0.4-1.7c0.1,0.1,0.2,0.2,0.3,0.3c0.5,1.3,0.9,2.6,1.3,4
		c0.3,1,0.5,2.1,0.7,3.1C56.7,47.8,56.6,47.9,56.6,48z"/>
	<path d="M81,69c0.3-0.5,0.3-0.9-0.1-1.2c-0.6-0.7-1.3-1.3-1.9-1.9c-1.2-1.1-1.4-1.1-2.7-0.1c-0.6,0.5-1.1,1-1.7,1.5
		c-0.2,0.2-0.3,0.3-0.5,0.5c-0.6,0.5-0.6,1.2-0.4,1.9c0.1,0.5,0.1,1.1-0.1,1.6c-0.5,1.8-1.6,3.4-2.7,4.8c-0.5,0.7-1,0.7-1.8,0.4
		c-0.9-0.4-1.5-1.1-1.9-2c-0.6-1.2-0.9-2.6-0.8-4c0-0.1,0-0.3-0.1-0.3c-0.5-0.6-1.1-1.1-1.7-1.8c0,0.4-0.1,0.7-0.1,1
		c-0.5,2.7-0.2,5.3,0.5,7.9c0.8,3.1,2.4,5.6,5,7.5c1,0.7,2,1.3,3,2c-0.4-1.1-0.4-2.2-0.3-3.3c0.1-1.8,0.5-3.5,1.5-4.9
		c1.1-1.8,2.5-3.5,3.7-5.2c0.7-0.9,0.9-1,2-0.6c0-0.3,0-0.6,0-0.9c0-0.2-0.1-0.3-0.1-0.4C80.2,70.7,80.5,69.8,81,69z"/>
</g>
</svg>
