<?xml version="1.0" encoding="utf-8"?>
<!-- Generator: Adobe Illustrator 27.9.0, SVG Export Plug-In . SVG Version: 6.00 Build 0)  -->
<svg version="1.1" id="Layer_1" xmlns="http://www.w3.org/2000/svg" xmlns:xlink="http://www.w3.org/1999/xlink" x="0px" y="0px"
	 viewBox="0 0 100 100" style="enable-background:new 0 0 100 100;" xml:space="preserve">
<path d="M70.2,62.3c-0.9-0.3-2-0.3-2.6-0.8c-4.4-3.9-8.7-7.8-13.1-11.8c-0.2-0.2-0.5-0.4-0.5-0.6c0.3-3.1-2.5-5.2-2.8-8.1
	s-1.1-5.8-1.6-8.7c-0.1-0.7,0-1.4,0-2.2c-0.4,0-0.7-0.1-1.2-0.1c0.5-1.9,0-3.6-1.4-5c-1.6-1.5-1.8-2.9-0.6-4.6
	c0.3-0.5,0.5-1.1,0.9-2c-0.7,0.2-1.1,0.2-1.4,0.4c-1.5,0.6-2.9,0.2-3.4-1.5c-0.5-1.5,0.6-2,1.9-2.4c0.6-0.2,1.2-0.6,1.8-1
	c-3-3.7-7.4-6.7-3.9-12.5c-1.3-0.5-2.5-0.9-3.6-1.3c0.1,1.6,0.2,3,0.2,4.3c0,2.1-1.7,2-3.1,2c-1.4-2.3-1.3-4.3,0.7-6.3
	c-1.1,0.1-1.8,0.1-2.6,0.3c-0.7,0.1-1.5,0.3-1.7,0.4c0.3,2.7,0.4,5.4,0.8,8c0.2,1.1,0.7,2.2,1.2,3.5c-0.9-0.1-1.6-0.1-2.8-0.2
	c1,0.7,1.6,1.1,2.2,1.6c-1,1.3-2,2.6-3,4c0.3,0.6,0.6,1.2,1.1,2.2c-2.3-0.4-4.2-0.7-6.1-1c-0.1,0.1-0.1,0.2-0.2,0.3
	c1.4,1.1,2.8,2.1,4.5,3.3c-0.7,1.3-1.4,2.6-2.1,4c-8.4-7-15.9-14.6-24.4-20.9C3,5.6,2.9,5.7,2.8,5.9c0.1,0.2,0.1,0.5,0.3,0.7
	c2.2,2.3,4.3,4.7,6.7,6.8c2.3,2.1,5,3.9,7.4,6c3.5,3,7,6.2,10.5,9.4c-1,1.7-2,3.3-2.9,4.9c0.2,0,0.3,0,0.5,0.1
	c-0.1,0.7,0.1,1.6-0.2,2.2c-0.8,1.7-1.7,3.3-2.7,5.1c1.9,0.1,2.6,0.9,2.2,3c-0.2,0.8,0.9,1.8,1.3,2.7c0.2,0.5,0.6,1.2,0.4,1.6
	c-0.9,2.1,0.2,3.9,2.5,4.1c0.2,0,0.5,0,0.9,0c-1.3,2.8-3.6,4.4-5.7,5.9c1.6,0.3,3.2,0.6,4.8,1.1c0.5,0.2,1,1.2,0.9,1.7
	c-0.6,2.5-1.2,5.1-2.3,7.5c-1,2.3-1.6,4.6-1.5,7.1c0.3,6.3-0.4,12.5-2.4,18.4c-0.8,2.2-0.3,3.9,0.9,5.6c0.1,0.1,0.2,0.1,0.4,0.2
	c1.8-1.2,2.9-2.7,3.1-5.1c0.4-5.4,0.9-10.8,2-16c0.7-3.4,2.5-6.7,3.7-10c0.2-0.5,0.5-1,0.7-1.6c1.4-4.6,2.7-9.1,4.2-13.7
	c0.3-1,1-2,1.5-3c0.2,0,0.3,0,0.5,0.1c0.7,4.5,1.5,9.1,2.2,13.6c0.1,0.5,0.1,1.1-0.1,1.5c-2,4.7-0.4,9.1,0.8,13.6
	c0.4,1.7,0.1,3.7,0.1,5.5c0,0.9,0,1.8,0.1,2.7c0.2,1.6,0.6,3.2,1,5.2c0.4-0.6,0.7-1,1-1.5c0.4,3.3,2.8,3.1,5.4,3.2
	c-0.7-1.2-1.5-2.2-1.7-3.2c-0.6-2.5-1.2-5-1.4-7.5c-0.4-3.7-0.6-7.4-0.7-11.1c0-0.7,0.3-1.5,0.7-2.1c1.2-1.7,1.4-3.5,0.8-5.5
	c-0.5-1.7-0.5-3.6-0.9-6c1.4,0.3,2.3,0.3,3.1,0.7c0.8,0.3,1.5,0.9,2.6,1c-1-2.8-2.1-5.6-3-8.2c1.3-0.1,2.3-0.2,3.8-0.4
	c3.8,3.4,8.1,7.2,12.5,11.1c-0.6,0.5-1,0.8-1.6,1.3c0.9,0.2,1.6,0.4,2.8,0.6c-0.9,0.5-1.4,0.8-2,1.1c2.1,1.2,4.4,2.3,6.5,3.7
	c2.5,1.8,4.8,3.8,7.1,5.8c0.4,0.4,0.6,1,0.9,1.5c-0.6,0.2-1.2,0.4-1.8,0.5c-0.3,0.1-0.6,0-0.9,0.2c6.4,2.6,12.7,2.7,19.4-0.3
	c-2.5-0.2-4.6-0.4-6.7-0.5c-4-0.2-7.1-2.4-9.9-5C76.6,69,73.3,65.5,70.2,62.3z M36,36.3c-1.3,2.5-2.4,4.8-3.5,7
	c-0.1,0-0.3-0.1-0.4-0.1c0.7-2.8,1.3-5.7,2-8.6C34.8,35.2,35.4,35.8,36,36.3z"/>
</svg>
