<?xml version="1.0" encoding="utf-8"?>
<!-- Generator: Adobe Illustrator 27.9.0, SVG Export Plug-In . SVG Version: 6.00 Build 0)  -->
<svg version="1.1" id="Layer_1" xmlns="http://www.w3.org/2000/svg" xmlns:xlink="http://www.w3.org/1999/xlink" x="0px" y="0px"
	 viewBox="0 0 100 100" style="enable-background:new 0 0 100 100;" xml:space="preserve">
<g>
	<path d="M9.3,85c0.9,0.8,1.8,1.6,2.9,2.2c3.3,1.8,6.7,1.9,10.2,0.3c0.3-0.1,0.4-0.3,0.4-0.6c-0.4-4,0.7-7.7,3.4-10.7
		c1.1-1.2,2.4-2.4,3.7-3.5c0.5-0.5,0.9-1,1-1.7c0.3-2.1,0.2-4.1-0.6-6.1c-0.6-1.5-1.6-2.7-3.2-3.4c-0.1,0-0.1-0.1-0.1-0.1
		c1.3,0.2,2.2,1,3.1,1.8c2.4-1.6,4.5-3.4,6-6c-0.4,1.4-1,2.8-2,3.8c-0.9,1-2,1.8-3,2.7c-0.3,0.2-0.3,0.4-0.2,0.7
		c0.9,1.7,1.1,3.5,1,5.4c0,0.3,0,0.7-0.1,1.2c3.4-2.8,6.5-5.7,8.1-9.8c-0.3,2.2-1.1,4.1-2.4,5.9c-1.3,1.7-2.9,3.1-4.5,4.5
		c-1.8,1.6-3.6,3.1-5.2,4.8c-2.8,3-3.9,6.7-3.7,10.8c0.2,3.2,1.1,6,3.2,8.5c2,2.4,4.5,3.8,7.6,4.2c0.1,0,0.2,0.1,0.3,0.1
		c0.8,0,1.7,0,2.5,0c0.7-0.2,1.4-0.3,2.1-0.5c4.9-1.5,7.8-4.9,9-9.8c0.5-2,0.6-4.1-0.1-6.1c-0.5-1.6-1.5-2.8-3.3-3.1
		c-0.4-0.1-0.9,0-1.3,0.1c-1.2,0.4-1.6,1.7-0.7,2.6c0.3,0.4,0.8,0.6,1.3,0.8c0.6,0.2,1,0.5,1.1,1.1c1.1,3.8-1.5,6.9-4.2,7.6
		c-3.2,0.8-6.5-1.3-7-4.6c-0.3-1.8,0.2-3.4,1.5-4.7c0.9-0.9,2-1.7,3.1-2.4c1.5-1,3.1-1.8,4.6-2.8c2.7-1.8,4.8-4.2,6-7.3
		c0-0.1,0.1-0.2,0.2-0.3c0.3,0.6,0.5,1.1,0.8,1.7c1.4,2.8,3.7,5,6.4,6.6c1.4,0.9,2.8,1.6,4.2,2.5c1,0.7,2,1.5,2.8,2.4
		c1.5,1.6,1.7,3.5,0.9,5.5c-0.8,2-2.3,3.2-4.4,3.6c-3.5,0.7-7.2-2.7-6.7-6.7c0-0.3,0.1-0.6,0.2-0.9c0.2-0.6,0.5-1,1.2-1.2
		c0.4-0.1,0.9-0.4,1.2-0.7c1-1,0.5-2.4-0.8-2.7c-1.3-0.3-2.4,0.1-3.3,1c-1,1-1.5,2.3-1.6,3.6c-0.4,4.6,1,8.6,4.4,11.7
		c1.9,1.7,4.1,2.7,6.6,3c0.1,0,0.2,0.1,0.3,0.1c0.8,0,1.7,0,2.5,0c0.9-0.2,1.9-0.3,2.8-0.6c3.6-1.2,6-3.8,7.3-7.3
		c2.2-6.2,1.2-11.9-3.5-16.6c-1.6-1.6-3.3-2.9-5-4.4c-1.9-1.7-3.7-3.4-4.9-5.8c-0.4-0.7-0.7-1.5-0.9-2.3c-0.2-0.6-0.3-1.1-0.4-1.7
		c1,2.3,2.4,4.3,4.1,6.1c1.3,1.3,2.6,2.5,3.9,3.7c0,0,0.1,0,0.1-0.1c0-0.3,0-0.6,0-1c-0.1-1.9,0.1-3.8,1.1-5.6
		c0.2-0.3,0-0.4-0.2-0.6c-1.7-1.2-3.2-2.5-4.2-4.4c-0.4-0.7-0.6-1.4-0.9-2.1c1.5,2.5,3.6,4.3,6,5.9c0.5-0.4,1-0.8,1.5-1.1
		c0.5-0.3,1.1-0.5,1.6-0.8c0,0,0.1,0.1,0.1,0.1c0,0-0.1,0-0.1,0.1c-2.2,1-3.3,2.9-3.8,5.2c-0.4,1.6-0.3,3.2,0.1,4.9
		c0.1,0.3,0.3,0.6,0.5,0.8c1.5,1.5,3.2,2.8,4.5,4.4c2.4,2.9,3.3,6.3,3,10.1c0,0.4,0.1,0.5,0.4,0.6c6.5,3.3,14.5-0.8,15.6-8
		c0.5-3.2-0.3-6.1-2.4-8.6c-1.5-1.8-3.5-2.7-5.7-3.3c-1.9-0.5-3.9-0.5-5.9-0.6c-1.3,0-2.6-0.1-3.9-0.6c-0.2,0.7-0.4,1.3-0.4,1.9
		c-0.2,1.6,0.1,3.1,0.8,4.6c0.5,1.1,1.3,1.8,2.4,2.1c0.9,0.2,1.8,0.4,2.8,0.7c0.8,0.2,1.3,0.8,1.3,1.5c0.1,0.9-0.5,1.5-1.4,1.7
		c-1.8,0.3-3.4-0.3-4.7-1.7c-1.1-1.2-1.6-2.7-2-4.3c-0.5-2.1-0.6-4.3,0.1-6.4c0.5-1.5,1.6-2.7,2.7-3c0.5,1.3,2.2,1.4,3.2,0.1
		c0.1,0.7-0.3,1.4-1,1.8c-0.9,0.5-1.8,0.3-2.7-0.5c-0.2,0.2-0.4,0.5-0.7,0.9c0.7,0.1,1.4,0.3,2,0.3c1.5,0.1,3,0,4.5,0.1
		c1.2,0.1,2.4,0.3,3.6,0.5c0.2,0,0.5,0,0.7-0.1c3.3-1.7,5.2-4.3,5.9-7.9c0.9-4.8,0.1-9.4-2.1-13.8c-1.3-2.6-2.8-5.1-4.2-7.6
		c-1.4-2.5-2.7-5.1-3.5-7.8c-0.3-1-0.4-2-0.1-3c0.6-1.8,2.4-2.9,4.3-2.7c1.9,0.2,3.4,1.8,3.6,3.7c0,0.4-0.1,0.7-0.1,1.1
		c-0.1,0.3-0.2,0.6-0.3,0.8c-0.3,1-0.1,1.6,0.7,2c0.9,0.4,1.7,0.3,2.2-0.5c0.3-0.6,0.5-1.2,0.8-1.8c0-0.4,0-0.9,0-1.3
		c-0.2-0.6-0.4-1.3-0.7-1.9c-2.6-5.9-10.9-8.1-15.8-1.6c-2,2.7-2.4,5.7-1.3,8.8c0.7,2.2,1.9,4.2,3,6.3c1.1,2,2.1,4,2.5,6.3
		c0.5,2.7,0.7,5.4-0.1,8.1c-1,3.7-4.5,6.1-8.5,5.9c-3.7-0.2-7-3-7.6-6.7c-0.3-1.8-0.1-3.4,0.7-5.1c0.4-0.7,0.6-1.5,0.9-2.3
		c0.3-1-0.1-1.9-0.8-2.6c-0.2-0.2-0.6-0.3-1-0.3c-0.9,0.1-1.8,0.3-2.7,0.5c-0.2,0-0.4,0.1-0.7,0.1c0.1-0.1,0.3-0.3,0.4-0.3
		c1.1-0.6,2.3-1.2,3.4-1.8c0.2-0.1,0.4-0.3,0.5-0.5c1.7-3.9,3.2-7.8,4.1-12c1.1-5.2,1.1-10.3-0.9-15.3c-2.8-7-8-11.2-15.4-12.8
		C53,0.2,52.1,0.1,51.2,0c-0.8,0-1.5,0-2.3,0c-1,0.2-2.1,0.3-3.1,0.5c-8.1,1.7-14.4,8-15.9,16.1c-1,5.3-0.5,10.5,1.1,15.6
		c0.9,2.8,2,5.5,3,8.2c0.1,0.3,0.4,0.5,0.7,0.7c1,0.5,1.9,0.9,2.8,1.4c0.3,0.2,0.5,0.4,0.7,0.7c-0.1,0-0.3-0.1-0.4-0.1
		c-0.7-0.2-1.5-0.4-2.2-0.6c-1.7-0.4-2.3,0.9-2.5,2.1c-0.1,0.9,0.3,1.8,0.7,2.6c0.5,1,0.9,2.1,1,3.3c0.4,4.2-2.7,8.2-6.8,8.9
		c-4.8,0.8-9.1-2.5-9.7-7.3c-0.5-4.2,0.3-8.2,2.3-12c1.1-2.1,2.2-4.2,3.2-6.4c0.8-1.8,1.1-3.8,0.8-5.8c-0.8-4.4-5-7.9-9.4-7.8
		c-4.1,0.1-7.6,3-8.7,6.9c0,0.2-0.1,0.4-0.2,0.6c0,0.4,0,0.9,0,1.3C6.6,29.4,6.7,30,7,30.5c0.6,1,1.5,1.2,2.5,0.6
		c0.6-0.4,0.8-0.9,0.6-1.5c-0.1-0.2-0.1-0.4-0.2-0.6c-0.6-1.6-0.3-3.2,1-4.3c1.3-1.1,3.1-1.4,4.6-0.6c1.8,0.9,2.5,2.8,2,4.9
		c-0.7,2.7-1.9,5.1-3.2,7.5c-1.4,2.5-2.9,5-4.2,7.6c-1.3,2.5-2.2,5.1-2.6,7.9c-0.3,2.9-0.3,5.9,0.8,8.7c1,2.6,2.8,4.5,5.3,5.8
		c0.2,0.1,0.4,0.1,0.6,0.1c1.4-0.2,2.7-0.4,4.1-0.5c1.6-0.1,3.2-0.1,4.8-0.2c0.4,0,0.7-0.2,1.2-0.3c-0.3-0.3-0.5-0.6-0.7-0.8
		c-0.8,0.8-1.7,1-2.7,0.5c-0.7-0.3-1-1-1.1-1.8c1.4,1.4,2.5,1.4,3.2-0.1c0.8,0.4,1.5,0.9,2,1.7c0.8,1.1,1.1,2.5,1.2,3.8
		c0.1,2.4-0.3,4.6-1.3,6.7c-0.9,1.9-2.3,3.1-4.4,3.3c-0.4,0-0.9,0-1.3-0.1c-0.8-0.1-1.3-0.7-1.3-1.5c0-0.8,0.5-1.5,1.2-1.7
		c0.6-0.2,1.2-0.3,1.8-0.4c2.2-0.3,3.4-1.7,4-3.8c0.4-1.5,0.4-3,0-4.5c-0.1-0.2-0.1-0.3-0.2-0.5c-2.4,0.8-4.8,0.5-7.2,0.8
		c-2,0.2-4,0.7-5.8,1.7c-2.8,1.6-4.3,4.1-4.8,7.3c-0.4,2.6,0.1,5,1.4,7.2C8.4,83.8,9,84.7,9.3,85z M41.6,52.9
		c-1-0.1-1.9-0.5-2.6-1.3c-0.8-0.8-1.2-1.8-1.3-3.1c0.1-0.1,0.1-0.5,0.3-0.6c0.2-0.1,0.6,0,0.8,0.1c1.4,1,2.5,2.3,3.3,3.8
		c0.1,0.1,0.1,0.2,0.1,0.3C42.3,52.7,42.1,53,41.6,52.9z M58.6,52.9c-0.8,0.1-1.1-0.2-0.7-0.9c0.7-1.6,1.9-2.9,3.3-3.9
		c0.2-0.2,0.6-0.3,0.8-0.2c0.2,0.1,0.3,0.5,0.4,0.8C62.1,50.8,60.8,52.5,58.6,52.9z"/>
	<path d="M71.2,40.1c0.5,1.8,1.1,3.6,1.5,5.4c0.5,2.1,0,4-1.8,5.4c-0.8,0.6-1.6,1-2.6,1.2c-0.8,0.1-1.5,0.1-2.5,0.2
		c0.1,0.6,0.1,1.2,0.3,1.7c0.8,2.2,2.5,3.4,4.6,4c2.2,0.6,4.3-0.2,5.7-2.1c0.9-1.3,1.3-2.8,1.3-4.4c0.1-2.1-0.4-4.2-1.3-6.2
		c-1-2.2-2.1-4.4-3.2-6.6c-0.2-0.5-0.4-1.1-0.5-1.7c-0.1-0.5,0.2-0.8,0.7-1c0.6-0.2,0.9-0.7,0.7-1.2c-0.2-0.5-0.6-0.8-1.2-0.6
		c-1.1,0.2-1.9,1-2.1,2.3C70.6,37.6,70.9,38.8,71.2,40.1z"/>
	<path d="M26.8,38.5c-0.5,1-1.1,2-1.6,3c-1.4,2.8-2.6,5.6-2.9,8.7c-0.2,1.9,0.1,3.8,1.2,5.4c1.1,1.7,2.6,2.6,4.6,2.5
		c2.3-0.2,4.1-1.2,5.4-3.2c0.5-0.8,0.8-1.7,0.7-2.6c-0.9-0.1-1.7-0.1-2.4-0.2c-2.1-0.4-4.4-2.1-4.5-4.7c0-0.8,0-1.6,0.2-2.4
		c0.4-1.6,0.9-3.2,1.4-4.8c0.3-1.2,0.6-2.5,0.4-3.7c-0.2-1.3-1-2.1-2.2-2.3c-0.6-0.1-1.1,0.2-1.2,0.7c-0.1,0.6,0.1,1,0.7,1.2
		c0.5,0.2,0.8,0.5,0.7,1C27.1,37.5,27,38,26.8,38.5z"/>
</g>
</svg>
