<?xml version="1.0" encoding="UTF-8"?>
<svg xmlns="http://www.w3.org/2000/svg" version="1.1" viewBox="0 0 100 100">
  <!-- Generator: Adobe Illustrator 28.7.1, SVG Export Plug-In . SVG Version: 1.2.0 Build 142)  -->
  <g>
    <g id="Layer_1">
      <g>
        <path d="M61.8,10.1c.5,0,.9-.1,1.4-.2,0,0,0,0,0,0-.5,0-.9.2-1.4.2Z"/>
        <path d="M83.5,95.7s0,0-.1,0c-.8-1.7-1.9-3.3-2.4-5-.8-2.6-1-5.4-1.6-8.1-.3-1.6-.9-3.1-1.4-4.8.7.2,1.3.4,2,.6,0,0,0-.1.1-.2-1.3-1.1-2.6-2.2-3.8-3.2,0,0,0-.1.1-.2.3,0,.6.2.9.2,0,0,0-.1.1-.2-.5-.4-1.1-.8-1.8-1.3h1c-.8-.8-1.7-1.5-2.7-1.9-2.8-1-3.7-3.2-4-5.8-.3-2.3-.7-4.6-2-6.6-.6-.9-.9-2-1.4-3,0-.1,0-.3,0-.5h1c-.3-.9-.6-1.7-.8-2.5h.2c.4.5.8,1,1.1,1.5.1,0,.2-.1.3-.2-.3-1.2-.6-2.3-1-3.5.3-.2.9-.5,1.6-.9-1.8-.3-3.3-.6-5-1-.8-1.6-1.1-3.3.7-4.9.3.2.6.5.9.8-.2-.8-.3-1.4-.5-2.2.4.2.6.4.8.5,0-.5-.1-1-.2-1.7.8.9,1.6,1.7,2.3,2.5,0,0,0-.1.1-.2-.5-1.7-1.1-3.4-1.6-5.2.1,0,.3,0,.4-.1.2.2.3.4.6.7,0-.7,0-1.1,0-1.8.6.4,1,.8,1.7,1.3-.4-1.6-.7-2.9-.9-4.1.5.7.8,1.4.9,2.2.2,2.5.9,4.7,2.7,6.6.5.5.9,1.4-.2,2-.5.3-.7.9-1,1.4,0,0,.1,0,.2.1.2-.1.4-.3.6-.4.2,1.8.5,3.4.7,5,2.1.2,1.3,2,1.7,3.2.3-.8.6-1.4.8-2.1,1.1,1.2,2.2,1.9,3.6.8.3-.2.9,0,1.4-.1-1.2.6-2.4,1.3-3.8,2.1.6.2.9.3,1.1.3,0,.7.3,1.6,0,2-.8,1.1-1.9,2-2.8,3.1-.3.4-.6.9-.8,1.4,1,0,1.7.2,2.3,0,.6-.2,1.2-.7,1.8-1,1.8,1.7,2.3,4.1,1,5.4-.9.9-2,1.6-3.1,2.5h2.1c-.9.6-1.5,1-2.2,1.6,1.1,0,2-.1,3.3-.2-.5.7-.8,1.1-1,1.4,0,0,.2.2.3.3.8-.8,1.6-1.5,2.4-2.4v1.6c.5-.5.5-1.2.8-1.7.6-1.1,1.4-2.1,2.1-3.2,0-.1,0-.4,0-.6-.3-1.9-.8-3.8-1.1-5.8-.2-1.1-.6-2.5-.2-3.4.7-1.3,0-1.9-.7-2.6-.4-.4-.8-.7-1.2-1.1.2-.9-.5-2,.8-2.5q-1.3-2.4-.4-2.7c-.8-.8-1.6-1.5-2.4-2.2.2,0,.4-.1,1-.3-3.4-1.5-6.4-3.2-5.8-7.4.6,0,1.3,0,2,.1-2.9-1.7-4.2-3.7-3.7-5.8.3.4.7.8,1,1.2,0,0,.2-.1.3-.2-.5-1.1-1-2.2-1.5-3.4.5.2.8.3,1.6.5-1.2-1.2-2.2-2-3.1-2.9.1-.2.3-.3.4-.5,1.2.8,2.4,1.7,3.6,2.5,0-1.5-1.1-2.3-2.4-3,.9-.3,1.8-.6,2.8-.9-1.5-.2-2.8-.4-4.1-.5,0-.1,0-.2,0-.3.7-.2,1.4-.4,2-.7,0,0,0,0,0-.1h-5.6c.6-.5.9-.6,1.3-1-2,.2-3.8.3-5.9.5.6-.9,1-1.4,1.4-2-1.2.6-2.3,1.2-3.4,1.8,2.5-2.3,5.5-4.1,7.4-7.1-2.5,1.1-4.7,2.1-6.9,3.1,0,0,0-.1-.1-.2.3-.3.7-.6,1.1-1-.5.1-.9.2-1.5.3.8-1.1,1.5-2,2.2-3-.6.2-1.2.4-1.6.5.2-1.9,1.6-2.6,3.3-3.2-.5-.2-.8-.3-1-.4,0-.1,0-.3,0-.4.5-.1,1.1-.4,1.6-.3,1.4.1,2.9.4,4.3.6.3,0,.8-.3,1.1-.6.6-.5,1.7-1.1,1.7-1.7,0-.7-1-1.4-1.1-2.2-.5-2.3-2.2-2.4-3.9-2.1-1.3.2-1.4-.5-1-1.3.3-.6.8-1,1.1-1.3-.8-.1-2.6,1.6-2.3,2.7,0,.3.5.6.8.6.5,0,1.1-.3,1.6-.3.6,0,1.4.2,1.7.6.6.6.9,1.4,1.3,2.2-.3.9-1,1.2-2,1-.6-.2-1.2-.4-1.8-.4-.7,0-1.4.1-2.2.2,0,0,0,.2,0,.3-1.1.5-2.3,1-3.4,1.5,0,0,0-.1-.1-.2.3-.3.6-.7.9-1-.8.5-2,.7-2.4,1.4-.5,1-1.3.9-1.9,1.2-.5.2-1,.5-1.3.9-.4.4-.7,1-.9,1.3-.5-1.2-.9-2.4-1.5-3.7-.2.5-.3.8-.4,1-.7-.4-1.4-.7-2.1-1.1,0,.1-.1.2-.2.4,1.1.8.7,1.8-.5,2.6.4,1.1,1,2.3-.3,3.3-.4-.4-.9-.7-1.5-1.2.5,1.3.8,2.3,1.3,3.4-1.2-.3-2.1-.5-3.4-.8.4.4.8.7,1,1-2.8-.8-5.6-1.6-8.4-2.4,1.5,1.7,5.8,3.6,7.1,2.7-.4.7-.8,1.1-.8,1.5-.1.8,0,1.6,0,2.3,0,.2.4.3.6.4.3-.5.6-1.1.9-1.6,1.5.6,2.8,1,4.3,1.6,0,.5.3,1.3.4,2-2.3.2-3.3,2.3-5,3,1.2,1.1-.7,1.8-.3,2.4,1.4-.9,2.8-1.8,4.2-2.7-.3,1.1-.7,1.9-.6,2.6.4,2.1-.2,3.7-1.7,5.1-.8.7-1.7,1.4-2.4,2.1-1.6,1.7-2.8,1.7-4.5,0-.6-.6-1.5-.9-2.3-1.4-1-.5-2-1-3.1-1.6.7-.9,1.1-1.5,1.7-2.3-.9.4-1.6.6-2.1,1-.8.9-1.6.6-2.5.2-.9-.4-1.2-1.2-1-2.2.2-.7.5-1.4.7-2.2.1-.4.2-1.1,0-1.3-.4-.4-1-.5-1.5-.6-.4,0-.8.3-1.1.4-1.1-1.1.3-1.3.7-1.8-.4-.1-.6-.2-1-.3,1.1-.8,2-1.4,2.9-2.1,1.5-1.1,2.5-2.6,2.4-4.6-.7,1-1.1,2.1-2,2.9-.8.7-2,1.1-2.8,1.5.5-1.6,1-3.4,1.6-5.1-.1,0-.3,0-.4-.1l-1.5,4.1c-.2-.9-.2-1.7-.1-2.5,0-.7,0-1.5.1-2.2,0-.4.2-.9.3-1.3.2-1,.4-2.1.6-3.1.5-1.8,2.7-2.9,1.9-5.2-.4-1.3-.1-2.7-.4-4.1-.4-1.8-1-3.5-1.5-5.3-.3,1-.6,2-.3,2.8,1,2.4.9,4.4-1.1,6.2.5-.2.9-.4,1.5-.7.8,1.7-.2,3-1,4.5,0-1.4-3.2-.3-1.7-2.7-.3-.3-.5-.7-.8-1-.1.5-.2,1-.3,1.4-.9.3-1.7.6-2.4.9.4.3.7.2,1,.3,1.2.6,2.8.9,3.4,1.9,1.1,1.7-.9,2.8-1.8,4-.7,1-1.6.3-2.3-.1-1.2-.8-2-1.8-1.2-3.7-1.4,1.3-1.4,2.6-.9,3.8.8,2.2,2.7,2.3,4.9,2-.2.8-.3,1.5-.5,2.1-.7-.2-1.2-.4-1.8-.6.5,1.2,2.4,1.2,2,2.8-1.6-.2-3.2-.5-4.7-.7-.6,0-1.5,0-1.6-.3-.3-.8-.7-1.9-.3-2.4.9-1.2.4-1.6-.7-2-1.8-.6-3.6-4.2-2.9-5.7.5-1.1.7-2.3.9-3.5,0-.5-.2-1.1-.2-1.5-.5,1.4-.9,2.7-1.5,4-1,1.7-1,3.1.3,4.6.9,1,2,2,2.9,3,.2.2.3.5.4.9h-2.6c1.9.6,2.1.7,2.9,2.8.3.8.5,1.1,1.5.9,2.2-.5,4.5.8,5.3,2.8.2.5.1,1.1.1,1.3-.7.2-1.6.3-1.8.7-.3.5,0,1.4,0,2.3-1.1.8-1.2,1.3-.3,2.4,0,.9-.2,1.6,0,2.1.4.7,1.1,1.5,1.8,1.8,1.4.5,1,1.4,1,2.6-.5-.4-.9-.7-1.2-.9-.4.9-.7,1.8-1.1,2.7,0,0,.1,0,.2,0,.4-.6.8-1.1,1.5-2,.7,1.4,1.5,2.4,1.8,3.6.3,1.2.3,2.4.4,3.6.1,2,.4,4,.2,6-.2,1.8-.7,3.4.3,5.1.4.7.2,1.7.3,2.9-.8-.4-1.3-.6-1.8-.8-1.6-1-3.5-1.6-3.5-4,0-.4-.7-.7-1.1-1.1.6,2.2.7,4.5,2.9,5.7,1.2.5,2.4.9,2.3,2.7-.7-.6-1.2-1.1-1.8-1.7.5,1.2.9,2.5,1.6,3.6.8,1.3.9,3.9.1,4.9.1.8.5,1.5.3,1.8-.8,1.3-.5,2.3,0,3.5.3.6,0,1.5.1,2.3-.6,0-1.3-.2-1.9-.3.2.4.3.9.6,1.4.8,1.4,1.5,2.8.8,4.5-.1.3.3.8.5,1.2.2.7.6,1.6.4,2.1-.6,1.1-.5,2,.1,3,.8,1.2.7,2.3-.3,3.5-.4.5-.7,1.4-.6,2.1.1,1.3.6,2.6.9,3.9,1-1.3,1.1-1.3,2.8,0-.7-2.4-1.2-4.6,0-6.8,0-.1,0-.3,0-.4-.3-2.4-.5-4.9-.9-7.3-.2-1.3-.5-2.4.2-3.8.5-1-.5-2.7,1-3.2-.7-1.5-1.2-2.8-1.7-3.8,1.4-1.8,2.6-3.4,3.8-4.9-.2-.2-.3-.3-.5-.5-.9,1.1-1.8,2.2-2.8,3.4-.6-2.6-1.2-5-.3-7.2-.2-.3-.6-.6-.6-.8.1-1,.4-2,.6-3,.2-1.1.8-2.5.4-3.4-1.2-2.6-.8-5.1,0-7.6,0-.3.3-.7.2-.8-1.1-.8-.1-1.6.1-2.2.4-1,1-2,1.6-3,.2-.3.3-.6.5-1h.3c.3,1.6.5,3.1.8,4.7,0,0,0,0,.1,0,.1-1,.3-2,.4-3.1h.2v4.2c.4-.5.5-.6.8-1.1.5,2.4.9,4.5,1.3,6.6.9-3.9,1.9-7.7,2.8-11.8,1.7,1.3,3.4,2.6,4.9,3.8-.9-1.6,0-3,1-4.4,1-1.3,2.1-2.5,3.2-3.8,1.1-1.3,2.1-2.6,3.3-4,.2.5.5,1.2.7,2,.3,1,.4,2.1.9,3,1,1.6,1.2,3.1-.1,4.5-.5.5-1.4.6-1.9,1.1-1.2,1.2-2.3,2.5-3.3,3.5.5-.1,1.5-.3,2.4-.5,0,0,.2.2.3.3-.8.9-1.6,1.8-2.4,2.7,0,0,.2,0,.5.1-.8.7-1.4,1.2-2.3,2,1-.4,1.6-.6,2.4-.9-.2.4-.2.7-.3,1-1.8,3.6-3.5,7.2-5.3,10.8-.6,1.2-1.3,2.4-2.8,2.8-.4.1-.8.8-.9,1.2-.4,2-.7,4-1,6.1.3-.2.5-.2.8-.4-.3,1.5-.5,2.9-.8,4,.5-.4,1.1-.9,1.6-1.4.8,1,1.4,1.8,1.8,2.3.5-.3.9-.8,1.4-.9,2.2-.6,3.6.7,4.6,2.4.9,1.6,1.6,3.2,2.2,4.9.8,2.3.2,3.5-2,4.3-.8.3-1.5.8-2.4,1.1-.9.3-1.9.4-2.9.5-1.1.2-2.4,0-3.4.5-1.2.5-2.1,1.5-3.1,2.2-.1,0-.2.2-.3.4.3,0,.5.1.8.2-.1.3-.3.6-.4.8.8,0,1.5,0,2.2,0,1.7,0,3.4.1,4.9-.2,3.3-.8,6.4-2.7,10.1-1.8,0,0,.2,0,.3,0,1.5,0,2.3-.7,2-2.2-.4-1.8-.8-3.8-1.9-5.1-3.3-3.6-4-8.1-5.5-12.5.5.2.9.3,1.4.5,0,0,.1-.2.2-.3-.8-.7-1.6-1.5-2.6-2.3.6,0,1,0,1.2,0-1.3-1.2-2.6-2.4-3.9-3.6,2-2.5,4-5,6.1-7.7v11.4c.1,0,.3,0,.4,0v-7.9c.1,0,.3,0,.4,0,.4,2.2.7,4.4,1.1,6.6.1,0,.3-.2.8-.5.1,2.7.2,5.1.4,7.6.2,2.5.7,4.9.9,6.5.4-2.1,1-5.1,1.6-8.1.1,0,.3,0,.4,0,.6,1,1.2,2,1.8,3,.1,0,.3-.1.4-.2.2-1.9.4-3.9.5-5.8.1,0,.2,0,.3,0,.2.4.3.8.6,1.5.5-2.4-.6-4.6.2-6.7.2,0,.3,0,.5,0v6.2c.1,0,.2,0,.4,0,0-.7-.1-1.5,0-2.2.4-2.4.3-4.8-.6-7.1-.4-1-.2-2.2-.3-3.4,1.2,2,2.3,3.8,3.3,5.7.5.9.7,2,1,2.9.2.7.2,1.6.7,2,1.1,1,1.2,2.2,1,3.5-.2,1.2-.6,2.4-.7,3.6-.1,1.1,0,2.3,0,3.4.1,0,.3,0,.4,0,0-.7.2-1.4.3-2.2.1,0,.3,0,.4,0,.5,2,1.1,3.9,1.6,5.9.2-.8.2-1.7.1-2.5,0-.8-.6-1.7.5-2.4,0,.5,0,.8.2,1.3.2-.3.2-.4.3-.5,0,0,.3,0,.4,0,1.3.6,2,1.6,2.1,3,.1,1.7.3,3.4.5,5.5.2-1.3.3-2.3.4-3.3.1-1,.3-2,.5-3.2,2.9,2.9,3.3,6.7,1,9.6-.6.7-1.9,1.6-2.6,1.4-2.5-.8-3.1,1.6-4.7,2.1,0,.2,0,.3.1.5,2.1-.3,4.2-.6,6.2-.9-.1,1-.3,2.1-.4,3.5,1.3-1,2.2-1.7,3.1-2.3,0,.6,0,1.2,0,1.9,1.7,0,1.8-1.2,2.1-2.1.3-.9.4-1.9.6-2.7.6.9.6,1.9,0,3.1-.3.6-.3,1.5-.4,2.3l.5.2c.4-.6.9-1.2,1.3-1.8.1.2.4.5.6.9.4-.3.7-.5.7-.6.7.3,1.3.6,1.9.9.4-1.8.4-3.1-1.4-3.6ZM80.5,55.7h-2.6c.7-1.4,1.5-1.4,2.6,0ZM66.7,27.5c.9.7,1.7,1.3,2.6,2-2.2-.1-2.7-.5-2.6-2ZM46,22.9s0,0,0,0h0ZM30.7,47c-.4-2.7-.8-5-1.1-7.3-.1-1.7.4-2,1.8-1,.7.5,1.4,1.5,1.5,2.4.3,2.2-.7,4.1-2.3,6ZM59.4,26.6c.4-.8.7-1.6,1.1-2.4.1,0,.3.1.4.2-.8,1.6-1.7,3.1-2.5,4.7l-.4-.2c.5-.8,1-1.5,1.4-2.3ZM54.6,21.4c.3-.3.6-.5,1.1-1-.2.7-.3,1.2-.4,1.6.1,0,.2,0,.3.1-.4.3-.8.5-1.2.7-.2-.5-.4-1-.6-1.6.2,0,.6.1.8.1ZM53.8,26.3c-.6,0-1.2-.7-1.8-1.1,1.6,0,3.3-.2,4.9-.2-.5,1.8-2,1.3-3.1,1.4ZM53,48.6c1.7,1.7,3.5,3.6,5.1,5.3-2.5-.7-4.1-2.8-5.1-5.3ZM56.4,31.8c1.4-1.5,2.5-2.7,3.7-3.9.7-.7,1.2-1.9,2.5-1.5.4,0,.7.3,1.1.6-1.2.7-2.2,1.3-3.2,1.9,0,0,0,.2.1.3.3,0,.7-.2,1.1-.3-1.1,2.2-3.1,2.6-5.3,3ZM60.1,34.3c.9-.8,1.9-1.7,2.4-2.1.4.5.8,1,1.1,1.4-1.1.4-2.1.8-3.2,1.2-.1-.2-.2-.3-.3-.5ZM60.6,36.7c0-.2-.1-.3-.2-.5,1.1-.5,2.3-.9,3.4-1.4,0,.1.2.3.2.4-1.1.5-2.3,1-3.4,1.5ZM64.8,57.9c1.7,1.3,2.1,3.3,3,5-1.3.1-3.3-3.2-3-5Z"/>
        <path d="M25.1,13.6c.8,1.1.6,2.2-.4,3.1,1.3-.2,2.5-.5,2.6-2,0-1.1-.9-2.3-2.2-2.5-1.5-.3-2.7.2-3.3,1.4,1.1-.6,2.3-1.2,3.2,0Z"/>
      </g>
    </g>
  </g>
</svg>