<?xml version="1.0" encoding="UTF-8"?>
<svg xmlns="http://www.w3.org/2000/svg" version="1.1" viewBox="0 0 100 100">
  <!-- Generator: Adobe Illustrator 28.7.1, SVG Export Plug-In . SVG Version: 1.2.0 Build 142)  -->
  <g>
    <g id="Layer_1">
      <g>
        <path d="M85.7,95.4c.6.3,1.2.6,1.8.9-.5-1-1.3-1.6-2.2-2-.2,0-.4-.2-.6-.3-.8-.5-1.6-.9-2.5-1.4-.3-.2-.6-.2-.9,0-.4.2-.9.3-1.4.2,0,0,0,0,0,0-1.2,0-2.1-.6-2.8-1.6-.5-.8-1-1.6-1.3-2.5-.9-2-1.2-4.1-.9-6.2.1-.7.5-1.4.3-2.2,0,0,0,0,0,0,.1.1.2.2.3.3,0-.5,0-1,0-1.6,0-.5,0-1,.2-1.5h0c.7,1.3,1.4,2.7,2.1,4,0,0,0,0,0,0-.2-.6-.4-1.2-.6-1.8,0,0,0,0,0,0,0,.2.2.4.2.6,0,0,0,0,0,0-.3-1-.5-2-.8-2.9h0c0,0,.1.2.2.3.7,1.1,1.1,2.4,1.4,3.7.3,1.6.6,3.1,1,4.7.2.8.3,1.5.2,2.3,0,.4,0,.8,0,1.3.2-.7.2-1.4.4-2,.3-1.3.3-2.5-.2-3.7,0,0,0-.1,0-.3.1.2.2.4.4.6,0-.2,0-.3,0-.4-.1-3.8-.8-7.4-3-10.6-1.1-1.6-2-3.3-2.3-5.2-.4-2.4-1.1-4.8-2.5-6.9,0,0,0-.1,0-.2,0,0,0,0,0,0,.3.4.7.7,1,1.1-.5-1.5-1.3-2.7-2.3-3.9,0,0,0,0,0,0,.7.8,1.5,1.5,2.2,2.3,0,0,0,0,0,0-.5-.7-.9-1.5-1.4-2.2-.5-.6-1.2-1.1-1.9-1.6-.1-.1-.3-.2-.4-.4,0,0,0,0,0,0,.2.1.5.2.7.3-.4-.6-.4-1.2-.4-1.8,0-.7,0-.8-.6-1-.8-.3-1.1-.8-1.2-1.5-.2-.8-.6-1.6-.9-2.5,0,0,0-.2-.1-.3.2.2.3.3.4.4.2-.6.1-.9-.3-1.1-.4-.2-.4-.4-.2-.7,0-.1.1-.3.2-.4.3-.5.3-1.1,0-1.6-.2-.6-.4-.6-.9-.3,0,0,0,0-.1,0,0-.6-.2-1.3-.3-1.9-.2-1.3.2-2.4,1.1-3.4.5-.6,1-1.2,1.4-1.8.4-.7.8-1.4,1.2-2.1.9,1,2,1.9,2.2,3.4,0,0,0,0,.1,0,0-.4,0-.9-.2-1.4.4.6.4,1.2.3,1.8-.2.8-.2,1.5,0,2.3.2.8.6,1.5.8,2.3,0,.2.2.4.3.6,0,0,0,0,0,0,0-.3,0-.6,0-.9.2.9.6,1.7,1.3,2.4-.2-.5-.4-.8-.5-1.2-.1-.4-.2-.8-.2-1.2,0,0,0,0,0,0,.3,1,.5,1.9,1.2,2.6-.1-.7-.3-1.3-.4-2,.4.4.6.8,1,1.1.6.6,1,1.3,1.3,2,0,0,0,.2.1.3,0,0,0,0,0,0,0-.3-.1-.6-.2-1,0,0,0,0,.1,0,.6,1,1.1,2,1,3.3l.3-.4s0,0,.1,0c0,.5-.2.9-.3,1.4,0,0,.1,0,.2,0-.3.7-.5,1.3-1,1.7-.5.4-.6.9-.4,1.5.2.7.3,1.4.1,2.1-.1.6,0,1.1.5,1.5.4.4.9.7,1.3,1,.2.1.3.3.2.5-.3,1.5,0,2.8.9,4,.3.4.5.9.6,1.4.2.9.3,1.9.5,2.9,0,.2,0,.4-.2.5,0,0,0,0,0,0,0,0,.1,0,.2,0-.1.3-.2.5-.3.8.2.3-.2.5-.1.7,0,0,.2,0,.3,0-.1.2-.2.3-.3.4.1,0,.2,0,.2,0,0,0,0,.2-.1.2,0,0,.1,0,.2,0,0,.2-.2.4-.2.6.1,0,.2-.1.4-.2,0,.3-.3.6,0,.9,0,0,.2-.1.2-.2-.2.5,0,1,.2,1.4,0,0,.1,0,.2,0,0,.3-.1.5-.2.8.1,0,.2,0,.2-.1,0,.2-.1.4-.2.6.1,0,.2,0,.3,0,0,.5,0,.9,0,1.4.1-.2.3-.5.4-.7,0,0,0,0,0,0,0,.4-.2.9-.2,1.3,0,.5,0,1,0,1.5,0,.5.2.9.2,1.4,0,.3,0,.7.2,1,.2.4.4.9.6,1.3-.3.3-.8.3-1.3.3.9,1.5,1.8,2.9,3,4.1-.1-.5-.2-.9-.3-1.3,0-.4-.1-.9-.2-1.3,0-.3,0-.6.2-.8.7-1.1.6-2-.1-3,0-.1-.1-.3,0-.4.1-.8,0-1.5-.6-2.1-.3-.4-.3-1,0-1.5,0,.2,0,.4,0,.6.4-.5.5-1,.4-1.6-.1-.7-.2-1.4-.3-2.1.2.1.3.2.5.3,0-.5,0-.6.4-.5-.2-.2-.4-.4-.6-.7.3.1.6.2.9.3,0,0,0,0,.1-.1-.4-.2-.7-.3-1-.5.2,0,.3,0,.4.1.3.1.5.3.8.3.5,0,.6.3.9.5,0,0,.1.2.2.2-.4-1.5-1.3-2.2-2.8-2.4,0,0,0,0,0-.1.2-.1.3-.3.5-.4,0,0,0,0-.1-.2,0,0,0,0,0,0,.4.1.7.2,1,.3,0-.2,0-.4,0-.5,0,0,0,0,.1,0-.2-.2-.3-.3-.5-.4,0,0,.1-.1.2-.2.2,0,.5.2.8.4-.6-.9-1.5-1.2-2.4-1.2,0-2-.1-3.9-.2-5.9,0,0,0,0,0,0,0,.1,0,.2,0,.4.2,0,.3-.1.4-.2.3-.1.4-.4.3-.7-.2-.4-.4-.9-.7-1.3,0-.2,0-.3,0-.5.6-.5,1-1.2,1.2-1.9.1-.4.2-.8.3-1.2.1-.4,0-.7-.1-1-.1-.2-.3-.5-.4-.8.2.1.3.2.5.3-.3-1-.7-1.8-1.4-2.4.7.3,1.1.8,1.5,1.3-.3-1.7-1.6-2.6-2.9-3.5,0,0,0,0,0,0,.4.3.8.5,1.2.8-.4-.9-1-1.4-1.7-1.9.2,0,.4.1.6.2,0,0,0,0,0,0-.3-.4-.7-.8-1-1.1.7.2,1.2.8,1.7,1.3-.1-.4-.3-.8-.5-1.1-.5-.6-1-1.1-1.5-1.7-.2-.2-.4-.5-.7-.7,0,0,0,0,0,0l1.4.7s0,0,0,0c-.2-.3-.4-.5-.6-.8,0,0,0,0,0,0,.7.9,1.5,1.8,2.2,2.7-.2-.5-.3-1-.6-1.5-.4-.8-1.2-1.2-2-1.6,0,0,0,0,0-.1l1.6.9c-.2-.4-.5-.8-.8-1.2-.3-.4-.6-.8-1-1.1-.3-.3-.7-.6-1-.9,0,0,0,0,0,0,.9.5,1.9.9,3,1-1.2-.7-2.4-1.3-3.5-2.3.5.2,1,.4,1.5.6,0,0,0,0,0,0-.8-.7-1.5-1.4-2.3-2.1h0c.4.1.7.3,1.1.6-.9-1.2-1.9-2.3-2.8-3.4-.1-.1-.3-.3-.4-.3-.2-.1-.3-.3-.3-.5,0-1-.2-2-.5-3-.2-.6-.3-1.3-.3-1.9,0-1,.2-2.1,0-3.1.3.6.5,1.3.6,2,0,.6,0,1.2.1,1.8,0,.7.3,1.3.7,1.9-.2-1.2,0-2.3.3-3.4.1.7.2,1.4.4,2,.7-3.3-.3-6-2.8-8.3,1.9,1.1,3.5,2.4,4.7,4.2-1-2.2-2.7-4.1-4.3-6,2.9.7,4.6,2.5,5.7,5.1-.5-1.7-1.2-3.2-2.4-4.4.1,0,.2.1.4.2,0-.1-.1-.2-.1-.2-.1-.1-.3-.2-.4-.4-1-.8-2.1-1.4-3.3-1.8-1.2-.5-2.5-.9-3.7-1.4-.1,0-.3-.2-.4-.2,0,0,0,0,0-.1,1.1,0,2.3,0,3.4,0,1.2,0,2.3.4,3.2,1.1.4.3.8.6,1.2,1,0-.1,0-.2-.1-.3-.5-1.1-1.3-1.8-2.4-2.4-1.3-.7-2.8-1-4.3-1.2-.6,0-1.2-.1-1.8-.2,0,0,0,0,0,0,.3,0,.5-.2.8-.3-1.2,0-2.5.1-3.7,0,2.9-.3,4.2-1.2,4.8-2.7,0,0,0,0,0,0,0,0,0,0-.1.1-.7.9-1.6,1.4-2.8,1.4-.9,0-1.9-.2-2.8-.3-.1,0-.2-.1-.3-.1-.3,0-.6.1-.9.2,0,0,0,.2,0,.3-.3.3-.7.6-1,.8-.7.4-1.4.7-2.1,1,0,0-.2,0-.2,0,0,0,0-.2,0-.2.1-.1.3-.3.4-.4.5-.3,1.1-.5,1.6-.8.5-.2.8-.4,1.1-.9.2-.4.6-.8.8-1.2.3-.6.6-1.2,1-1.8,0,0,0,0,0-.1-.1-.7-.3-1.4-.9-1.8-.2-.1-.2-.2-.2-.4.1-1.2.5-2.3,1-3.3.7-1.4,1.8-2.5,3.3-3,.9-.3,1.7-.2,2.5.4.1,0,.2.1.4.2,0-.1,0-.2-.1-.4.9.4,1.4.9,1.1,1.9.1,0,.2,0,.3,0,0,1.1-.7,2-1.7,2.2-1.1.3-2.1,0-3.1-.5-.2,0-.3-.2-.5-.3,0,0,0,0,0,0,.3.2.5.5.8.7,1.4,1.1,4,1.2,5.3,0,.9-.8,1.4-1.7,1.3-3,0-.1,0-.2,0-.3,0,0,0,0,.1,0,0,0,0-.2,0-.3-.2-.5-.4-.9-.5-1.4h.4c-.8-1.1-1.9-1.6-3.1-2,.3,0,.5-.1.9-.2-1-.4-1.9-.3-2.8-.1,0-.1.1-.2.2-.4-.2,0-.3,0-.5,0-1,.3-1.9.6-2.9.9-1.6.6-2.8,1.6-3.7,3-1.5,2.3-2,4.8-1.9,7.5,0,0,0,0,0,0,.2-.2.4-.4.7-.6.2-.2.2-.3.2-.6,0-1,0-2.1.3-3.1.2-.7.4-1.4.7-2.1,0,0,0,0,.1,0-.5,1.2-.9,2.5-.8,3.8.1,0,.2,0,.3,0-.4.6-.3,1.2,0,1.6,0-.1,0-.3,0-.4,0,.4.1.8.2,1.2.2,0,.4-.1.6-.2-.4.3-.7.6-1,.8h0c.2,0,.4,0,.7,0-.7.4-1.3.8-1.6,1.5h0c.3,0,.6-.3.9-.4,0,0,0,0,0,0-.5.4-.9.8-1.4,1.1,0,0,0,0,0,0h.4c-.2.2-.6.2-.6.6h.2c-.2.2-.3.3-.5.5,0,0,0,0,0,0,0,0,.2,0,.3,0-.3.3-.6.6-.8.9.3.6.3,1.1-.1,1.5,0,0,0-.1-.1-.2-.1.4-.2.7-.3,1,.2,0,.4-.1.5-.2-.2.2-.5.4-.8.7-.2.3-.5.6-.7.8,0,0,0,0,0,0,0-.2,0-.5,0-.7,0,0,0,0,0,0-.1.2-.2.4-.3.7-.1-.2-.2-.4-.4-.6-.2.5,0,.8.3,1.1-.1,0-.2.1-.3.2.2.3.3.5.5.8,0-.2,0-.3,0-.5.3.3.1.5-.1.6,0,.4-.4,1-.7,1,0,0,0,0,0,0-.3-.1-.6-.5-.6-.9,0,0,0-.1-.1-.2,0,0,.1,0,.2-.1-.3-.3-.1-.5.1-.7-.2-.2-.2-.4,0-.7.2-.3,0-.5-.2-.8,0,.3,0,.5,0,.7h-.2c-.2-.1-.3-.4-.5-.6,0,0,0,0,0,0l.3.5s0,0,0,0c-.1,0-.3,0-.4-.1-.2-.1-.3-.3-.4-.5-.3-.5-.7-.8-1.3-.8.3-.4.6-.1.9,0,0-.3-.2-.5-.2-.7-.1,0-.3,0-.3-.1,0-.1,0-.3,0-.4,0-.3,0-.6.3-.7.1.3.3.6.4,1,.2-.5.2-1.1.8-1.4,0,.1-.1.2-.2.2,0,0,0,.1.1.2,0,0-.2,0-.3.2,0,.1,0,.2,0,.4.2-.2.3-.4.5-.6-.3.8-.2,1.5.3,2.1-.2-1.4-.2-1.6.3-1.9-.3.6-.2,1.1.1,1.6v-.4s0,0,0,0c0,.1.1.3.2.4.1-.2.2-.4.3-.6,0,0,0,0,0,0,0,.2,0,.3,0,.5,0,0,0,0,0,0,0-.1.1-.2.2-.3,0,.1,0,.1,0,.2,0,0,0,0,0,.1.4-.5.4-1,0-1.5.7.6.3,1.2.1,1.9.2-.4.4-.9.7-1.4,0,.3.1.5.2.7.3-.6,0-1.2-.3-1.7,0,0,.2,0,.2,0,.2.3.4.6.6.9,0,0,0,0,.1-.1,0,0,.1.2.2.2.1-.5-.3-.7-.5-1.1.2,0,.3.2.5.2.1-.2.2-.4.3-.6.4-.7.8-1.5,1.3-2.2.2-.4.5-.8.8-1.2.2-.3.1-.6-.1-.9-.2.1-.5.2-.7.4-.5.5-1,1.1-1.4,1.7-.3,0-.7-.2-1.1-.3.2-.1.4-.2.6-.3-.9,0-1.7.3-2.2.8-.3-.2-.5-.4-.7-.7,0,0,0,0,0,0,0,.1,0,.3.1.4-.5,0-1.1-.2-1.5,0,.4,0,.7,0,1.1.4-.4,0-.7,0-1.2.1.4.2.8.4,1.1.6,0,0,0,0,0,.1-.2,0-.5-.3-.7-.3-.4,0-.5-.3-.6-.5,0-.1-.1-.2-.2-.4-.2-.6-.4-1.1-.6-1.7-.6-1.6-1.8-2.1-3.6-2.1,0,0-.2,0-.2,0,.5.2,1.1.5,1.7.8.5.3.8,1.1.9,1.6-.2-.3-.3-.6-.5-.9-.2,0-.4.1-.6.2,0,.2,0,.4,0,.6,0,0,0,0,0,0,0-.3-.2-.6-.2-.9,0,0,0,0,0,0-.5-.3-.5-.4-.4-.8-.3,0-.5-.1-.8-.2,0,.2,0,.3,0,.5,0,0,0,0,0,0,0-.2,0-.3,0-.4-.2,0-.3-.1-.5-.2,0,.1,0,.2-.1.3,0,0,0,0,0,0v-.4s0,0-.1,0c-.1.2-.3.3-.4.5,0,0,0,0,0,0,0-.1.2-.3.2-.4,0,0,0,0,0,0-.2,0-.4.2-.6.3.1-.5.2-.9.3-1.3.1.1.3.4.4.4.5,0,1.1,0,1.7,0-.3-.4-.5-.8-.4-1.3,0,0,0,0,0,0-.2-.3-.3-.7-.3-1.2,0,0,0-.1,0-.2-.4-.7-.7-1.5-1.1-2.2-.4-.8-1-1.5-1.8-2.1-2.1-1.8-4.6-2.4-7.3-2.1-2.7.3-5.1,1.5-7,3.5-.6.6-1.1,1.4-1.3,2.3-.4,1.4.3,2.6,1.7,2.8.6.1,1.2,0,1.8-.2-.5,0-1,0-1.5-.2-1.1-.3-1.6-1.3-1.1-2.3.3-.5.6-1,1-1.3,2.2-1.9,4.7-2.7,7.6-2.2,2.4.4,4.3,1.6,5.5,3.8.6,1.2,1,2.4.7,3.8-.1.6,0,1.1.2,1.6.2.5.5,1,1.2.8.4-.1.9,0,1.4,0,.3,0,.4,0,.5.2.2.3.3.6.5.9.2.4.3.8.5,1.2.1.4.4.6.8.8.6.3,1.2.6,1.8.9.3.2.3.4.2.6-.9-.4-1.7-.7-2.5-1.1,0,0,0-.2,0-.3-.6-.3-1.1-.9-1.9-.8.7,1,1.5,2,2.2,3.1-1,.7-2.1,1.3-3.2,1.6-.8.2-1.7.3-2.5,0-.4-.1-.7-.3-1.1-.5,1.2,1.6,2.8,1.8,4.6,1.7-.4.3-.8.6-1.2.9-1.5.9-2.9,1.7-4.4,2.6-.7.4-1.3.9-1.7,1.6-.4.6-.7,1.6-.6,2.2.5-1.6,1.6-2.6,3.2-3-.5.7-1,1.3-1.4,1.9-.7,1.1-1.5,2.2-2.2,3.3-.4.6-.8,1-1.5,1.3-.5.3-1.1.3-1.6,0,0,0,0,0-.1,0,.1.2.3.3.4.4.5.3,1,.2,1.5,0,.8-.3,1.4-.8,2-1.3.3-.2.6-.5.9-.7-.1,1.7-.9,3-1.8,4.2.3-.2.7-.4.9-.7.5-.5.9-1.1,1.4-1.7.2-.2.3-.4.2-.7,0-.9,0-1.7.5-2.5,0-.1,0-.2.2-.4-1.1.4-1.5,1.3-2.3,1.9,1.4-2.6,2.9-5,5.6-6.5,0,0,0,0,0,0-1.3.4-2.5.9-3.8,1.3,2.5-1.7,5.2-3,7.8-4.6,0,0,0,0,0,0-1.1.8-2.1,1.6-3.3,2.5.6,0,1.1-.5,1.6,0-1,.7-1.9,1.4-2.9,2.2,0,0,0,0,0,0,.4-.2.8-.4,1.2-.6.1.6,0,.7-.4.7v-.2c0,0-.1.2,0,.3,0,0,.3.2.3.1.5-.2,1-.4,1.6-.7.3-.1.5-.3.7-.4,0,0,0,0,0,0-.5.3-1,.7-1.5,1-.8.5-1.6.9-2.3,1.4-1.8,1.3-3.3,3.6-1.7,6.6,0,.1,0,.3,0,.5,0,0,0,0,0,0,.1,0,.2-.1.3-.2,0,.2.2.3.2.4-.2.5-.4,1-.6,1.5-.2.4-.5.7-.6,1.2,0,.1-.1.2-.2.3,0,0,0,0-.1,0,0-.2,0-.4.1-.6,0-.2,0-.4,0-.6,0,0,0,0-.1,0-.1.4-.3.8-.4,1.2,0,0,0,0-.1,0-.1-.3-.3-.5-.4-.8-.1-.6-.2-1.2-.2-1.8,0-.8.2-1.5.7-2.1.2-.2.2-.3,0-.5-.4.4-.7.9-.8,1.4-.1.5-.3.9-.3,1.4-.2,1.1-.6,2-1.4,2.7-.5.4-.8,1-1.3,1.5,0,0,0,0,0,0,.2-.2.5-.3.7-.5,0,0,0,0,0,0-1,1.2-2,2.3-2.9,3.5h0c.5-.2.9-.5,1.4-.8,0,0,0,0,0,0-.5.7-1.1,1.4-1.6,2,0,0,0,0,0,0,.5-.4,1-.7,1.5-1.1-.9,1-1.5,2.2-2.2,3.5.4-.2.7-.4,1-.6,0,0,0,0,0,.1-.4.4-.9.7-1.3,1.1-.4.4-.7.9-.7,1.5.6-.8,1.1-1.5,1.8-2.1,0,0,0,0,0,0-.2.4-.4.9-.6,1.4.5-.3,1-.6,1.5-.9-.9,1.4-2.4,2.1-3.6,3.2.2-.2.4-.4.6-.7-1.1-.5-2.1-1.2-2.9-2.1.4.3.8.5,1.2.8-.9-1.1-2-2.1-2.6-3.4.7.6,1.3,1.1,2.2,1.3-.2-.1-.3-.3-.5-.4.3,0,.5.2.8.3.3.1.5.2.8.3.3,0,.5.1.8.2-1.9-1.2-3.4-2.7-3.8-5,.6.4,1.2.7,1.8,1.1,0,0,0,0,0,0,0,0,0-.2-.1-.2-.5-.8-.9-1.5-1-2.4,0-.5-.2-.9-.4-1.3,0,0,0,0,0,0,0,0,.1,0,.2.1-.2-.6-.7-1.1,0-1.7-.4,0-.6-.3-.7-.6-.2-.4-.3-.9-.5-1.3,0,0,0-.2-.1-.3,0,0,0,0,0,0,.3.3.5.5.9.8-.2-.7-.5-1.3-1-1.7,0,0,.1,0,.2,0,0,0,.1,0,.2,0-.9-1.4-2-2.5-3.6-2.8-.8-.2-1.6-.4-2.3-.7-.6-.2-1.3-.3-2-.3,0,0,0,.1,0,.2-.7,0-1.4.2-2.2.3,0,0,0,0,0,0,.3,0,.7,0,1,0,0,0,0,0,0,0-.9.3-1.8.6-2.6.9-.1.1-.2.3-.3.3-.5.3-.9.6-1.4,1-.5.4-1,.8-1.5,1.2,0,0,0,0,0,0,.3-.2.6-.3.9-.5-1,1.3-1.6,2.7-1.4,3.8,0-.3.2-.6.2-.9-.1,1.3,0,2.6.3,3.9,0,0,0,0,0-.1,0-.1,0-.3,0-.4,0-1.2.2-2.3.7-3.4.3-.5.5-1.1.7-1.7.2-.4.4-.8.8-1.2v1.9c.3-.3.6-.6.9-1,.2-.2.3-.4.4-.6.4-.7.9-1.2,1.6-1.6-.3.4-.5.7-.7,1.1,0,0,0,0,0,0,0,0,.2,0,.2-.1,1-.7,2.2-.8,3.3-.9.2,0,.4,0,.5,0,.5.1,1.1.3,1.6.5.3.1.7.2,1,.4,0,0,0,0,0,0-1.1,0-2.1.3-3,1.1.5,0,1.1-.2,1.6-.2.3,0,.6.2.8.3.2,0,.4.3.6.3.9.2,2,1.3,2.2,2.1-1-.4-1.9-.4-2.9,0,1.5.5,2.8,1.8,2.9,3-.3-.3-.5-.6-.8-.9,0,0,0,0,0,0,.5,1.3.5,2.6.3,3.9-.1-.4-.3-.9-.4-1.3-.2,2.5.3,5.3,1.7,7.5.9,1.5,2.2,2.6,3.7,3.5.9-.8,1.7-1.5,2.5-2.2,0,0,0,0,0-.1-.5.1-1.1.2-1.6.4.7-.6,1.5-1.1,2.6-1.1-.2.3-.3.6-.4.7-.4.4-.7.8-1.1,1.2-.8.7-1.6,1.5-2.4,2.2,0,0,0-.1,0-.1-1.3-.9-2.7-1.7-4-2.5,0,0,0,0,0,0,.7.7,1.4,1.5,2.1,2.2,0,0,0,0,0,0-.7-.4-1.4-.8-2.1-1.2,0,0,0,0,0,0,.6.5,1.3.9,1.9,1.4-.4,0-.8,0-1.1,0-.8-.2-1.5-.5-2.3-.8-.7-.2-1.5-.4-2.3-.4.4.2.9.3,1.3.5,0,0,0,0,0,0-.3,0-.7,0-1,0-1.9,0-3.6.4-5.3,1.2-1.2.6-2.4.9-3.7,1.1-.4,0-.8.2-1.2.3,0,0,0,0,0,0,1.1-.1,2.1-.2,3.3-.3-.1.1-.2.2-.3.2,0,0-.2.1-.2.2,2.4-1,4.9-1.8,7.6-1.3-.7.1-1.4.3-2.2.4,0,0,0,0,0,0,.5,0,1.1.2,1.6.2-.9.4-1.9.1-2.9.3.5.1.9.3,1.4.4-.3.3-.7.2-1.1.2-.6,0-1.2-.2-1.8-.1-1.3,0-2.3,1-3.4,1.5,1.2-.3,2.4-1.1,3.7-.9,0,0,0,0,0,0-2.1.7-4.1,1.5-6.2,2.2-1.5.5-2.6,1.4-3.3,2.8,0,0,0,.2-.1.3,1.1-1,2.3-1.7,2.9-1.5-.6.4-1.2.7-1.8,1.1.2,0,.4,0,.6.1-.2.6-.7.7-1.1,1,.1,0,.2.1.4.2-.6.4-1.1.8-1.6,1.1h0c.4,0,.7-.2,1.1-.4-.7,1.3-1.4,2.5-2.3,3.6-.7.9-1.5,1.6-2.5,2.1-.4.2-.8.4-1.1.7,0,0,0,0,0,0,.1,0,.3,0,.4,0,2-.1,3.7-1,5-2.5.6-.7,1.2-1.4,1.9-2,1-1.1,2.2-2,3.7-2.4,0,0,0,0,0-.1-.6,0-1,0-1.5.1,0,0,0-.1.2-.2.9-.8,1.9-1.5,3.1-2,.6-.3,1.3-.5,2-.4.3,0,.6,0,.9.1-.7.4-1.3.6-1.8,1-.3.2-.5.3-.8,0,0,0,0,0,0,0,.2.2.1.4,0,.6-.1.2-.2.4-.3.5-.2.3-.3.7-.5,1,.7-.5,1.4-1,2.2-1.5.2-.2.6-.2.9-.3h0c-.2.4-.3.6-.6.9,1.4-.7,1.9-.9,2.4-.7-.4.8-1.2,1.2-1.9,1.7.5,0,.9,0,1.4-.1,0,0,0,0,0,0-.4.3-.8.7-1.3,1-2.1,1.4-4.4,2.1-6.9,2.5-.8.1-1.5.2-2.3.3,0,.3.3.3.5.3,1,0,1.9,0,2.9-.1.7,0,1.4,0,2.1,0,.4,0,.9-.1,1.3-.2-.5.6-1.2.9-1.9,1-.5.1-1.1.3-1.6.4-.2,0-.4.2-.5.3,0,0,0,0,0,0,.6-.1,1.1-.2,1.7-.4,0,0,0,0,0,.1-.7.4-1.4.9-2.2,1.3,0,0,0,0,0,0,.2,0,.4-.1.6-.2-.9,1.5-1.9,2.8-2.6,4.4.5-.6,1.1-1,1.8-1.3,0,.2-.1.3-.2.4-.9,1.7-1.7,3.4-1.8,5.3-.1,1.6.3,3,1.4,4.1,1.1,1.1,2.5,1.7,4.1,2,.8.1,1.7.2,2.5-.1.4-.2.7-.4,1-.8-.8.1-1.5.4-2-.4,0,.2,0,.5.1.7,0,0,0,0,0,0-.2-.1-.5-.2-.6-.4-.2-.2-.3-.2-.5-.2-.2,0-.5,0-.8,0-.1,0-.2,0-.3-.1,0,0,0,.1.2.3-.2-.1-.3-.2-.4-.2,0-.1,0-.2.1-.4,0,0,0,0-.1,0-1.1-.2-1.7-.9-1.9-2,0,0,0-.1,0-.2-.3-1.6-.2-3.2,1.1-4.4,0,0,0,0,0,0-.2,0-.5-.1-.7-.2,0,0-.2-.1-.2-.2,0-.3.3-1.1.6-1.3,0,.4-.1.7-.2,1,.2-.3.4-.6.9-.7,0,0,.1-.2.2-.3.2-.3.3-.5.5-.8.1.1.2.2.2.3.2-.6.7-.9,1.2-1.2,0,.3,0,.6-.1.9,1-1,2.6-1.7,3.4-1.4-1.2.9-2.2,2-2.9,3.4,0,0,0,0,.1.1.1-.2.2-.3.3-.5.4-.5.8-.9,1.2-1.3.8-.9,1.8-1.6,2.9-1.8.9-.2,1.6-.7,2.2-1.3.1-.1.3-.3.4-.4,1.2-1.1,2.3-2.3,3.1-3.8.5-1.1.6-2.2,0-3.3-.1-.2-.2-.4-.3-.6,0,0,0,0,0,0,.2.2.3.4.5.6.2.2.4.3.6.5,0,0,0,0,0,0-.1-.4-.2-.7-.3-1.2.2.2.4.4.6.5.4.3.8.4,1.2.2.5-.2.8-.7,1-1.2.2-.3,0-.6-.1-.9-.1-.4-.3-.8-.4-1.2.3.6.6,1.1.8,1.7,0,.1.1.3,0,.4-.5,1.5-1.2,3-2.1,4.2,0,0-.1.2-.2.3h0c.3-.2.7-.5,1-.7h0c-.2.4-.4.8-.6,1.1,0,0,0,0,0,0,.2-.2.4-.3.6-.5,0,0,0,0,0,0-.4.5-.8,1.1-1.2,1.6,0,0,0,0,0,0,.2-.2.3-.4.5-.6,0,0,0,0,0,0-.3.6-.7,1.3-1,1.9,0,0,0,0,.1,0,.2-.3.5-.6.7-.9-.3.7-.8,1.4-.9,2.2.1-.1.2-.3.3-.4,0,0,0,0,0,0-.2.3-.4.7-.6.9,0-.5-.1-1.1-.2-1.6,0-.5,0-.9.1-1.3.2-.5.5-.9.7-1.4-.4,0-.6,0-.7.5-.5,1.3-1.1,2.6-1.7,3.9-1.7,3.6-3.5,7.2-5.3,10.9-.6,1.3-1.1,2.7-1.4,4.2.3-.9.7-1.7,1-2.6-.8,2.8-1.2,5.7-1.3,8.6,0-.1.1-.2.2-.3.5-1.2,1-2.4,1.5-3.6.4-.9.9-1.7,1.6-2.4,1.2-1.2,2.6-1.4,4-.5,0,0,.2,0,.3.2,0-.1,0-.2-.1-.3-.3-.8-.6-1.7-.6-2.6,0-2.1.9-3.7,3.5-3.4.4,0,.7,0,1.1.1-.5-.3-.9-.6-1.3-1-1.5-1.3-1.2-3.3.5-4.2.5-.3,1-.4,1.6-.5.5-.1,1-.1,1.5-.2-.6-.3-1.3-.5-1.9-.9-.6-.4-1.1-.9-1-1.7.1-1.7.8-3.1,2.1-4.2,0,0,0,0,.1-.1,0,0,0,0,.2-.1-.6.8-.9,1.7-1.1,2.6.5-1,1.3-1.9,2.2-2.6.5.6.6,1.2.3,1.8-.3.5-.6,1.1-.9,1.6-.3.4-.7.7-1.1,1.1.1,0,.2,0,.3-.1,1.5-.7,2.4-1.8,2.8-3.3.3-1,1-1.8,1.2-2.8,0,0,0,0,0,0,.2.5,0,.9-.2,1.4.1-.1.3-.2.3-.3.3-.6.5-1.2.8-1.8,0,0,0-.2.1-.3.4-.2.9-.5,1.4-.7h0c-.2.3-.4.5-.6.7.9-.2,1.9-1.2,2.1-2.3.2-1.1.4-2.1.9-3,.2-.5.3-1,.1-1.5,0-.2,0-.3-.1-.5-.1-.4,0-.8.3-1.1.2-.2.4-.5.6-.7.2-.2.5-.5.8-.7.7-.5,1-1.2.8-2.1,0-.2,0-.6.1-.8.2-.5.5-1,.9-1.7-2.7,1.6-5.5,1.9-8.6,1.3.4-.5.7-.9,1.1-1.3.2-.2.5-.5.7-.7.7-.6,1.4-1.3,1.9-2.1,0,0,0-.1.2-.1,0,.5-.1.9-.2,1.4.7-1,.9-2.1,1.2-3.2v1.7c0,0,.1-.2.3-.4,0,.2,0,.4,0,.5,0,0,0,0,0,0,.1-.6.3-1.2.4-1.8,0,0,0,0,0,0v.6s0,0,.1,0c0-.4.2-.9.2-1.3,0-.5,0-.9,0-1.4,0,0,0,0,.1,0l.4,1.6s0,0,0,0c0-.6.1-1.1,0-1.7,0-.6,0-1.2-.2-1.7-.3-1.1,0-2,.8-2.7.9-.8,1.6-1.7,2.1-2.7,0,0,0-.2.2-.3,0,.2.2.4.2.6.4,1,.9,1.9,1.7,2.6.2.2.3.3.5.5.4.4.5.8.5,1.3,0,0,0,0,0,.1-.3,1.5-.3,1.2.7,2.2.5.5,1,.9,1.5,1.4.1.1.3.2.5.3-.1-.3-.2-.6-.3-.8,0-.2,0-.5-.1-.7.3.6.6,1.3.9,1.9,0,0-.2,0-.3-.1-1.1-.5-1.9-1.3-2.8-2.1-.3-.3-.4-.6-.4-1,0-.2,0-.3,0-.5-.7.3-.8.8-.5,1.4.5,1,1.3,1.8,2.1,2.5,0,0,0,0,.1.1-.9-.6-1.6-1.2-2.2-2.1-.2.5-.2.9,0,1.3,0,0-.1-.1-.2-.2,0,0-.1-.1-.2-.3-.3.8,0,1.4.3,2-.4-.5-.6-1-.7-1.6-.2,0-.4.1-.5.2-.7.2-.9.4-.8,1.1,0,.2,0,.3,0,.4,0,.4.3.8.3,1.2,0,.4-.3.7-.3,1.1,0,.6,0,1.2-.1,1.8,0,.1,0,.3,0,.4v-2.5c0,.1-.2.2-.2.3-.2.7-.4,1.4-.2,2.2,0,0,0,.2,0,.3,0,1,0,2.1.3,3.1-.4-1-.5-2.1-.4-3.2-.6.1-1.2,1-1.1,1.6,0,.5,0,1,.1,1.5,0,.4-.2.6-.5.8-.2.1-.5.2-.7.4-.4.3-.8.6-1.2.9-.3.5-.2.9,0,1.4.2.6.2,1.2-.1,1.8-.2.5-.3,1-.4,1.5-.3,1.2-.4,2.4-.8,3.6-.2.4-.1,1-.2,1.4,0,0,0,0,0,0,.5-1.4,1.2-2.6,2.1-3.9-.3,1.1-.6,2.2-.8,3.3-.5,2.3-1.1,4.7-2.2,6.8-.6,1.2-1.2,2.4-1.7,3.6-.4.9-.8,1.9-1.1,2.9-.3.8,0,1.6.3,2.4,0-1.6.7-2.9,1.2-4.4.2,1.2.3,2.3.5,3.4,0,0,.1,0,.2,0v-1.3c.3.5.5.9.7,1.4,0,.3.1.6,0,.9-.3,1.7-1,3.2-1.9,4.7-.9,1.5-1.9,3-2.8,4.4-.5.7-.8,1.5-.9,2.4,0,.5-.2.8-.6,1.2-.5.5-1.1,1-1.8,1.1-.7.1-1.2.4-1.8.8-1.3.8-2.1,1.9-2.4,3.4,0,.3,0,.6-.1.9.7-.6,1.3-1.1,2-1.7.1,0,.2-.2.4-.2.4,0,.8,0,1.3,0-.4.9-.5,1.8-.6,2.7.8-.8,1.6-1.5,2.4-2.2,0,0,.1-.1.2-.2.6-.1,1.2-.3,1.8-.4,0,.5,0,1-.1,1.5,0,.5,0,1,0,1.5.1,0,.2-.2.2-.2.7-.8,1.4-1.6,2.2-2.3.3-.2.8-.2,1.2-.3.8-.3,1.1-.8,1-1.6,0-.1,0-.3,0-.4.3,0,.6.2.8,0,.2-.3.2-.6,0-.9-.2-.6-.3-1.1-.5-1.7,0-.2,0-.4,0-.6.1-.2.1-.4.2-.6,0-.7,0-1.3.2-2,.3-1.2.8-2.5,1.2-3.7.2-.4.2-.8.1-1.3-.1-.5-.2-1-.2-1.5.1-1-.1-1.8-.6-2.6-.6-.9-.9-2-.7-3.1,0,1.2.3,2.3,1,3.3.1.2.2.4.3.6.2.4.3.9.2,1.3,0,.4-.1.8,0,1.1.3,1.4.7,2.7,1,4.1.1.4.3.9.4,1.3,0-.2,0-.4,0-.6,0-1,0-2.1,0-3.1,0-.5,0-1.1-.1-1.6,0-.1,0-.3.2-.4.3-.3.6-.5.8-.8.5-.6,1.1-1.1,1.5-1.8,1.1-1.5,1.1-3.1.6-4.8,0-.1,0-.3,0-.5.2-.6.4-1.1.6-1.7,0-.2,0-.4.1-.6,0-.2,0-.4.1-.7,0,.1,0,.2,0,.2.5,2.4.8,4.7.3,7.1-.4,2.4-.9,4.7-.9,7.1,0,.5,0,1,0,1.5,0,0,0,0,.1,0,.2-1.2.3-2.3.5-3.5,0,0,0,0,0,0v1c.1-.2.2-.5.2-.7.1-.9.2-1.8.6-2.7.2-.5.4-1,.5-1.6.2-1.1.4-2.2.6-3.3,0-.5.2-1,.3-1.4,0,0,0,0,0,0,0,3.9-1,7.7-1.3,11.5,0,0,0,0,0,0,.2,1.3.4,2.5.7,3.8.2,1.2.2,2.5-.1,3.7-.2.6-.4,1.2-.6,1.7.5-.4,1.1-1.5,1.5-2.4.8-1.8.7-3.7.4-5.6-.2-1.6-.5-3.3.1-4.9.2-.5.3-1,.4-1.5,0,1.3-.3,2.7.4,3.9,0,0,0,0,0,0,0-.2,0-.4,0-.7,0-1.8.2-3.6,1.1-5.2.6-1,1-2,1.3-3.2,0,0,0,0,0-.1.2,1.1.3,2.1.1,3.1-.2,1.3-.4,2.6-.5,3.9-.1,1.2-.1,2.4.4,3.6,0,.1.1.2.2.3,0,0,0-.1,0-.2-.2-1.7,0-3.5.4-5.1.3-.9.4-1.9.4-2.8,0-.1,0-.2,0-.3h0c0,.2,0,.4,0,.6,0,0,.1,0,.1-.1.2-1.3.4-2.7.5-4,0-1.5.2-2.9.5-4.4,0-.1,0-.3.1-.4.2,1.5.5,3.1.7,4.5.4-2.6.7-5.3,1.1-8,0,.2,0,.4,0,.6,0,.8,0,1.6-.1,2.4,0,1.4,0,2.8.5,4.2.2.4.4.7.6,1.1,0,0,0,0,0,0-.1-.5-.3-1.1-.4-1.6.3.8.5,1.7,1.1,2.4.5.7,1.2,1.3,2,1.7-.2-.2-.3-.5-.5-.7-1.1-1.4-1.8-3-2-4.8-.1-1.6,0-3.1.1-4.7,0-.4,0-.7.1-1.1.4.8.5,1.5.6,2.4,0,1.1,0,2.1.1,3.2,0,.3,0,.6.1.8,0,.3.1.5.2.8,0-1.1,0-2.2.1-3.3.3,1.1.7,2.3,1,3.4,0,0,0,0,0,0-.3-1.1-.4-2.2-.3-3.3,1,1.3.7,2.8.5,4.3.1-.2.2-.4.3-.6.1.5.3,1,.4,1.5,0,.5.1,1,.1,1.5,0,.5,0,1,0,1.5,0,.2,0,.4.1.7,0,0,0,0,0,0,0-.4,0-.7.1-1.1,0,0,0,0,.1,0,.3,1.1.6,2.2.9,3.2,0,0,0,0,0,0,0-.4,0-.8,0-1.1.4.8,1,1.5,1.2,2.4,0,.6.4,1.2.9,1.8-.2-.7-.4-1.4-.2-2.1,0,0,0,0,0,0,0,0,0,.1,0,.2,1.4,2.9,1.8,6.1,1.9,9.3,0,.9-.2,1.7-.8,2.3-.2.2-.3.4-.5.6-.4.5-.3,1.1,0,1.7.2-.1.4-.3.6-.4.9-.5,1.8-.9,2.8-.7.6.1,1.1.3,1.7.5,1.1.4,2.2.7,3.4.4,1-.2,1.9-.5,2.9-.7.3,0,.6-.2.9-.3.3-.2.6-.1.8,0,.7.5,1.4,1.1,2.2,1.6.2.2.4.4.7.6,0-1.1-.3-2.1-.9-3,0,0,0,0,0,0ZM83.8,57.8c.3-.7.6-1.4.3-2.2.2.4.3.8.2,1.2-.3.7-.5,1.4-.9,2.1.1-.4.2-.8.4-1.2ZM79.5,56.6c.6.8.4,1.6.3,2.4-.2-.6-.4-1.1-.5-1.7,0-.2.1-.4.2-.7ZM60.7,13.9s0,0,0,0c-.4.4-.9.8-1.3,1.2,0,0,0,0,0-.1.5-.4.9-.8,1.4-1.2ZM53.7,13.5s0,0,0,0c0,0,0-.1,0-.2,0-.1,0-.2,0-.3,0,0,0-.1,0-.2,0,0,.1,0,.1,0,0,0,0,.1,0,.2,0,.2-.1.4-.2.6ZM56.6,14.3c.2.1.5.3.7.4,0,0,0,0,0,.1-.2-.1-.5-.3-.7-.4,0,0,0,0,0-.1ZM54.5,15.5c.2,0,.3,0,.4,0,0,0,0-.2,0-.3-.1,0-.1.1-.2.2-.1-.2-.2-.4-.4-.7.1,0,.3,0,.5,0-.3.3,0,.4,0,.5.3.4.6.8.9,1.1.6-.3,1.1-.6,1.6-1,0,0,0,0,0,0-.6.4-1.1.8-1.7,1.2-.4-.3-.8-.6-1.3-1ZM49.6,20.1c1.1-.5,2.1-.9,3.2-1.4,0,0,0,0,0,.1-1,.6-2.1,1-3.3,1.3ZM36.4,55s0,0-.1,0c0-.1,0-.2.1-.3,0,0-.2,0-.2.1-.3.4-.5.8-.8,1.2v.8c0,0,0,0,0,0,.1-.2.2-.3.3-.5-.2.5-.5,1-.4,1.5,0,.5-.3.9-.2,1.3-.2-.6-.4-1.1-.7-1.7,0,0,0-.2,0-.3,0-.2.2-.5.3-.7.4-1,.9-1.9,1.6-2.8.2-.2.3-.4.4-.7,0,0,0,0,0,0-.6.4-1.2.7-1.9,1.1.2-.2.3-.4.5-.7,0,0,.2,0,.3-.1.4-.3.8-.6,1.2-.9.1,0,.3,0,.5-.2-.3,1-.6,2-1,2.9ZM43.3,44.1c0-.1-.2-.2-.3-.3,0,0-.1.1-.2.2-.3.4-.5.4-.7,0,0-.2-.2-.4-.2-.7-.1-2,.2-4,1.3-5.7.1-.2.3-.5.5-.8.8,1.6.3,3,0,4.6.2-.2.4-.4.6-.5.1.7-.5,2.8-1,3.3ZM46.3,36.5h-.1c.1-.3.2-.7.3-1h.1c-.1.3-.2.7-.3,1ZM46.8,36c0-.2.3-.5,0-.7.2-.4.4-.8.5-1.2,0,0,.1,0,.2.1-.2.6-.5,1.2-.7,1.8ZM48.1,30.6c-.2.5-.3,1.1-.5,1.6-.3-.6,0-1.4.5-1.6ZM48.5,30.6c0,.4,0,.8-.1,1.3,0-.1-.1-.2-.2-.3-.1.2-.2.4-.3.6,0,0,0,0,0,0,.2-.9.5-1.7.7-2.6,0,0,0,0,.1,0,0,.3-.1.7-.2,1ZM47.2,31.5c-.7-1.9.4-3.9,2.8-4.6-.9,1.5-1.9,3.1-2.8,4.6ZM44.1,76s0,0-.1,0c.2-1,.5-2.1.7-3.1,0,0,0,0,.1,0-.2,1-.5,2.1-.7,3.1ZM49.6,56.2c0,0,0,.1,0,.2h0c-.1-.7-.3-1.4-.3-2.1,0-.9,0-1.9,0-2.8,0-.3.2-.5.4-.8-.3.5-.3,1.1-.4,1.7,0,1.3,0,2.6.3,3.9ZM51.3,47.3c-.1-.7-.2-1.5-.3-2.2,0,0,0,0,0,0,0,.7.2,1.5.3,2.2,0,0,0,0,0,0ZM54.8,49.6c-.2-.3-.4-.6-.6-.9-.4-.5-.9-1-1.3-1.5-.7-.9-1.2-1.8-1.4-3,0,0,0-.1,0-.2,0,.3.1.5.2.8.3.9.7,1.7,1.4,2.4.6.7,1.2,1.5,1.8,2.3,0,0,0,0-.1.1ZM68,25.5c.4.7.6,1.3.6,2-.2-.4-.4-.7-.5-1.1,0,0,0,0,0,0,.3,1,.8,2.1.3,3.2,0,0,0-.2,0-.2,0,0,0-.2,0-.2,0,.2-.1.4-.2.8-.7-.3-1.3-.6-2-.9,1.1-.9,1.7-2.1,2-3.5ZM65.1,28.2c-.9-1.1-1.4-2.3-1.7-3.6.5.4,1,.7,1.4,1,0,0,0,0,0,0-.3-.3-.6-.7-.9-1,0,0,0,0,0,0,.2.1.4.2.6.3.2.1.4.2.6.3.2,0,.4.2.7.3,0,1-.1,1.9-.8,2.8ZM65.8,25.1c-.3-.7-.5-1.3-.8-2,.5.6.7,1.3.8,2ZM63.2,18.9c.2-.1.3-.2.5-.3.2-.2.4-.4.4-.7,0-.5.4-.9.8-1.1-.4.4-.6.8-.7,1.3,0,.2-.3.4-.4.5-.2.2-.5.4-.8.5,0,0,0-.2.2-.3ZM59.6,20.3c.2,0,.5,0,.7-.2.2-.1.4-.3.7-.5-.3.4-.4.9-1,1,0,0,0,.2-.1.3,0-.2-.2-.5-.3-.7ZM60,25.1c0-.2,0-.5,0-.8-.1.1-.2.2-.2.3,0,0,0,0,0,0,0-.2.1-.5.2-.8.4.9.4.9.1,1.4ZM58.7,23.1c.1,0,.3,0,.4-.1.2-.2.3-.5.4-.7,0,0,0-.2,0-.3.1,0,.3,0,.4.1-.2.4-.4.8-.6,1.1-.3.4-.9.2-1.2-.4.2.1.4.2.6.3ZM58.7,24.1v.7s0,0,.2,0c0,.2-.1.4-.2.7-.1-.3-.3-.6-.4-1-.1.4-.2.8-.3,1.2,0,0,0,0,0,0,0-.3.2-.7.3-1,0,0,0,0,0,0,0,.1-.2.3-.3.5,0-.2,0-.4,0-.5,0,0,0,0,0,0,0,.1,0,.3-.1.4,0,0,0,0,0,0,0-.2,0-.4,0-.6,0,0,.2,0,.2,0v-.7s0,0,0,0c0,.2.2.4.3.6,0,0,.1,0,.3,0,0,.1,0,.2,0,.4,0-.2.1-.5.5-.5,0,.2,0,.3-.1.5h0v-.4s0,0,0,0ZM58.3,22.7c-.4,0-.6-.3-.6-.7,0-.2,0-.4-.2-.6v.4c0,0-.1,0-.2,0,0-.3,0-.6,0-.9,0,0,0,0,.1,0v.4s0,0,0,0c0,.1.1.3.2.4.2.4.3.7.5,1.1ZM56.7,20.1c.3.2.7.2,1.1.3-.1.3-.4.5-.8.3-.3-.2-.6-.5-.9-.8,0,.2,0,.3.1.5,0,0,0,0,0,0,0-.2-.2-.4-.2-.6,0-.2,0-.4,0-.6.3.3.5.7.8.9ZM55.6,23.7c0,.8,0,1.5,0,2.3,0,.8-.2,1.6-.6,2.3,0,.1-.1.2-.3.4,0-.1,0-.2,0-.2.6-1,.7-2,.8-3.2,0-.5.1-1.1.2-1.6ZM53.6,18.4c.4.2.9.5,1.3.7,0,.4-.2.8-.3,1.2.1,0,.2,0,.4,0,0,0,0,.1,0,.2-.2.7-.3,1.4-.5,2.1-.2.7-.2,1.5,0,2.2-.3-.9-.4-1.7,0-2.6.2-.6.3-1.1.5-1.7,0,0-.1,0-.2,0-.2.3-.3.7-.5,1,0,0,0,0,0,0,.2-.8.4-1.5.6-2.3-.4-.2-.8-.5-1.2-.7,0,0,0,0,0,0ZM52.4,21.8c-.4.5-.7.7-1,.6.3-.2.6-.4,1-.6ZM50,25c-.1-.6,0-.7.4-1,.5-.3,1.1-.6,1.7-.9,0,0,0,0,0,0-.7.6-1.4,1.2-2.1,1.8ZM50.4,27.8c.1-.7.8-1.2,1.7-1.5,0,0,0,0,0,0-.6.4-1.2.9-1.8,1.4ZM51.7,36.9c.2.2.5.5.9.8.4.3.8.5,1.1.8-.8,0-1.8-.8-2.1-1.6ZM52.3,36c.4.2.8.5,1.2.7-.5,0-.9-.3-1.2-.7ZM54.3,41.3v-1.8c.2.6.2,1.2,0,1.8ZM55.2,37.8c-.4,1.1,0,1.9.6,2.7-.9-.2-1.4-1.9-.6-2.7ZM55.4,35.8s0,0-.1.1c-1.1.8-1.5.8-2.4-.4,1.1.1,1.9-.5,2.8-.9.9-.4,1.8-.7,2.6-1.3,0,0,0-.1,0-.2-.1,0-.3,0-.4,0-.3,0-.5.2-.8.3-.8.3-1.6.1-2.2-.5-.1-.1-.3-.3-.4-.5h-.1c.4.6.7,1,1.1,1.4-.7,0-1.4-.6-2.7-2.3,0,.2.1.4.2.5,0,.2.2.4.2.5,0,.2.2.4.3.5-.4-.1-.8-.5-1-1-.3-.8-.4-1.6-.4-2.4,0-.4,0-.7,0-1.1,0,0,0,0,0,0-.1.6-.3,1.1-.4,1.7,0,0,0,0,0,0,0-.5-.1-1-.2-1.6-.1.2-.2.4-.4.6,0,0,0,0,0,0,0-.5.2-.9.3-1.5-.1.2-.2.3-.3.3,0,0,0,0,0,0,.3-.3.5-.7.8-.9.9-.9,2-1.5,3.1-2,.3-.1.4-.3.3-.6-.2-.7-.2-1.5,0-2.2,0-.2.2-.4.3-.6-.4,1.1-.2,2.1,0,3.1.3,1.7,0,3.1-1.4,4.2-.3.3-.8.5-1.2.7.3,0,.6,0,.9-.1,1.4-.3,2.3-1.1,3-2.3,0-.2,0-.4.1-.6,0-.4.1-.8.2-1.2,0,1,0,2,0,3.1,0,.5.1,1,.2,1.5,0-.9,0-1.9.4-2.8-.6,1.7.1,3.2.6,4.8,0-1.1-.4-2.1-.2-3.2,0,1,.2,1.9.7,2.8.1-.5.2-1,.3-1.5,0,0,0,0,.1,0,0,.1,0,.2,0,.3,0,.1,0,.2,0,.3-.2.5-.1,1.1,0,1.6.1.8.1,1.5.2,2.3,0,.2,0,.4-.2.5.1-1-.1-1.2-1.1-.9-.8.2-1.4.6-2.1,1ZM58.8,69.4c.2-2.1-.6-3.9-1.1-5.9-.2-.8-.4-1.7-.5-2.6.5,2,1.1,4.1,1.6,6.1.2.7.1,1.5.2,2.3,0,0,0,0-.1,0ZM58.7,31.2c.6,1.7.7,3.5.4,5.3,0-1.8,0-3.6-.4-5.3ZM61.8,45.4h-2.5s0,0,0,0h2.5s0,0,0,0ZM60.4,44.5s0,0,0,0c.5,0,.9-.1,1.4-.2,0,0,0,0,0,0-.5,0-.9.1-1.4.2ZM59.3,40.9c0,0,0-.1,0-.2.7.1,1.5.2,2.2.4,0,0,0,0,0,0-.7-.1-1.5-.2-2.2-.3ZM59.2,38.4s0,0,0-.1c1-.2,1.9,0,2.9.4-1,0-1.9-.2-2.9-.3ZM63.9,41.9c-.3.4-.3.9-.3,1.3,0,.6-.1,1.1-.5,1.6.4-.7.4-1.4.3-2.1,0,0,0-.2,0-.3.2-.3.4-.6.6-.8,0,.1,0,.2-.1.3ZM65.4,52.9c0,.9.1,1.8.2,2.8-.2-.9-.5-1.8-.2-2.8ZM64.5,39c-.5.2-.7.1-.7-.4,0-.6-.3-1.2-.6-1.6-.1-.1-.2-.3-.3-.4.3,0,.5,0,.7.1,0,0,0,0,0,0-1.2-.5-2.4-1-3.6-1.6,0,.3,0,.6-.1,1-.2-1.5.4-2.9.7-4.3v.8s0,0,0,0c.5-1.1.8-2.3.5-3.6.1.3.2.7.3,1.1.3-.5.3-1.1.2-2.4,0,.2.2.4.3.6,0-.7,0-1.4.1-2.1,0,0,0,0,.1,0,.5,1.1,1.3,2,2.2,2.7-.6.6-1.4.9-2.2,1.2.9,0,1.7-.2,2.5-.6.3-.2.6,0,.8,0,.8.1,1.5.3,2.3.5,0,1-1.2,2.7-2.2,3.1.3-.4.6-.9,1-1.3,0,0,0,0,0-.1-1.5,2.3-3.6,2.2-5.9,1.5,0,0,0,.1,0,.2.9.5,1.8,1.1,2.7,1.5.9.5,1.9.8,2.8,1.3-.3,1-1.2.7-1.9,1h1.2c-.2.1-.3.2-.5.3.9,0,1.6-.3,2.4-.5,0,.1-.1.2-.2.2-.8.8-1.7,1.4-2.6,1.8ZM71.8,74.6c0-.7-.2-1.3-.3-2,0,0,0,0,0,0,0,.7.2,1.3.3,2,0,0,0,0,0,0ZM72.4,72.1c-.2.1-.2.2-.2.4,0,.6,0,1.2,0,1.9,0-.1,0-.2,0-.3,0-.6,0-1.2-.1-1.7,0-.5-.2-.9-.5-1.2-.1-.1-.3-.3-.4-.4-.3-.4-.5-.8-.2-1.2.3-.5,0-.9-.2-1.3.3.4.6.8.3,1.4-.2.3,0,.6.1.9.4.5.8,1.1,1.2,1.7.3-.2.6-.4.9-.6,0,0,0,0,0,0-.3.2-.6.4-.9.6Z"/>
        <path d="M21.6,79.6s0,0,0,.1c.2-.1.3-.3.5-.5,1.6-1.7,3.2-3.4,4.9-5,.3-.3.7-.6,1.1-.9-.1.7-.2,1.3-.3,1.9,0,0,.1,0,.2,0,.2-.2.3-.4.5-.7,0,0,0,0,0,0l-.4,1.2s0,0,0,0c0-.1,0-.2,0-.4,0,0,0,0-.1,0l-.4,1.4s0,0,0,0c.3-.4.6-.8.9-1.2v.5s0,0,.1,0c0-.2.1-.4.1-.6,0-.9.1-1.7.4-2.6l1.1-1c0,0,.2-.1.3-.2.2-.4.4-.8.6-1.1.3-.5.6-.9.8-1.4.4-1,.8-2.1,1.2-3.1.4-.9,0-2.1-.8-2.8.1.4.2.7.3,1,.2.8.3,1.5-.2,2.2-.6.9-1.1,1.9-1.8,2.6-1.2,1.3-2.6,2.6-3.9,3.8-1,1-2.1,1.9-2.9,3.1-.8,1.1-1.6,2.3-2.3,3.4Z"/>
        <path d="M24.6,74.8l4.1-4.3c-1.5,1.3-2.9,2.7-4.1,4.3Z"/>
      </g>
    </g>
  </g>
</svg>