<?xml version="1.0" encoding="utf-8"?>
<!-- Generator: Adobe Illustrator 27.9.0, SVG Export Plug-In . SVG Version: 6.00 Build 0)  -->
<svg version="1.1" id="Layer_1" xmlns="http://www.w3.org/2000/svg" xmlns:xlink="http://www.w3.org/1999/xlink" x="0px" y="0px"
	 viewBox="0 0 100 100" style="enable-background:new 0 0 100 100;" xml:space="preserve">
<g transform="translate(0,-952.36218)">
	<path d="M45.5,954.9c-3.1,0-11.6,3.2-16.7,9.4c2.6,1.6,4.9,3.9,7.1,6.2c0.6-1.5,0.7-2.7,0.5-4.3c2.3-1.1,4.2-1.6,5.7-4.5l3.4-1.1
		C47.7,958.3,47.7,954.9,45.5,954.9z M25.1,965c-5.7,7.9-12.4,15.8-7.9,24.9l-0.2,0.3l6.6,3.7c0.5-0.4,1-0.6,1.5-0.6
		c4.5-2.3,26-21.5,21.5-26c-3.4,2.3-9,6.8-11.3,5.7C31.9,969.6,28.5,966.2,25.1,965z M58.6,966.2c-2.3,0-2.3,3.4,0,5.7l3.4,1.1
		c1.4,3,3.4,3.4,5.7,4.5c-0.2,1.4-0.4,2-0.1,3c1.2-1.3,2.3-2.7,3.4-4.1c0.7-0.8,1.4-1.6,2.2-2.3C68.4,968.8,61.5,966.2,58.6,966.2z
		 M77.1,974.1c-3.4,1.1-5.7,5.7-9,9c-2.3,1.1-7.9-3.4-11.3-5.7c-1.1,6.8,14.7,18.1,19.2,20.4c0.7,0,1.4,0.4,2,1
		c2.3-1.4,4.8-2.7,7.2-4.1l-0.2-0.4C87.3,985.4,82.8,982,77.1,974.1z M13.8,991.1v14.7l10.2-3.4v-5.7L13.8,991.1z M42.1,992.2
		c-1.9,0-3.4,1.5-3.4,3.4c0,1.5,1,2.7,2.3,3.2v1.3h2.3v-1.3c1.3-0.5,2.3-1.7,2.3-3.2C45.5,993.7,44,992.2,42.1,992.2z M57.9,992.2
		c-1.9,0-3.4,1.5-3.4,3.4c0,1.5,1,2.7,2.3,3.2v1.3H59v-1.3c1.3-0.5,2.3-1.7,2.3-3.2C61.3,993.7,59.8,992.2,57.9,992.2z M88.5,995.6
		l-9,5.1v5.1l9,3.4V995.6z M35.3,1002.4c-4.5,0-14.7,9-14.7,13.6v4.5c0,4.5,9,15.8,13.6,15.8h30.5c4.5,0,14.7-10.2,14.7-14.7v-5.7
		c0-4.5-10.2-13.6-14.7-13.6L35.3,1002.4z M23,1005.1l-7.5,2.5c0.7,2.1,2.2,3.8,3.8,4.9c1.1-2.2,2.8-4.1,4.4-5.7
		C23.3,1006.2,23.1,1005.6,23,1005.1z M78.5,1007.8c0,0.4-0.1,0.7-0.2,1c2.1,2.4,3.4,5.8,3.5,8.4c1.1-0.8,2.2-1.8,3.2-3
		c0.8-1,1.5-2.1,1.9-3.3C84,1009.9,81.2,1008.8,78.5,1007.8z M18.3,1020.8c-7.4,1.1-10.5,2.6-13.6,13.3c5.1-5.1,9.3-7.5,16-7
		C19.6,1025.1,18.4,1022.7,18.3,1020.8z M81.7,1020.8c0.1,2.3-1,4.6-2,6.2c6.4-0.3,10.6,2,15.6,7C92.2,1023.4,89,1021.8,81.7,1020.8
		L81.7,1020.8z M25.2,1032.9c-5.8,5.9-6.7,8.5-4.6,17c1-6.1,3.9-9.5,8.6-13.4C27.7,1035.5,26.2,1034.1,25.2,1032.9z M73.6,1033.9
		c-1.5,1.3-2.8,2.3-4.3,3.2c4.3,3.7,6.9,7,7.9,12.8C79.2,1041.8,78.5,1039.1,73.6,1033.9z"/>
</g>
</svg>
