<?xml version="1.0" encoding="utf-8"?>
<!-- Generator: Adobe Illustrator 27.9.0, SVG Export Plug-In . SVG Version: 6.00 Build 0)  -->
<svg version="1.1" id="Layer_1" xmlns="http://www.w3.org/2000/svg" xmlns:xlink="http://www.w3.org/1999/xlink" x="0px" y="0px"
	 viewBox="0 0 100 100" style="enable-background:new 0 0 100 100;" xml:space="preserve">
<g>
	<path d="M50.1,87.9c2-1.2,3.4-2.8,4.2-4.8c0.7-1.8,1.3-5.3,1.1-6.2c-0.8,1.1-1.6,2.4-2.6,3.5c-1,1.1-2.2,1.9-3.6,2.5
		c0.4-1.1,0.8-2.2,1.1-3.2c0.9-3.1,1.5-6.3,1-9.6c-0.5-2.9-2.2-4.9-5.1-5.5c-2-0.4-3.9-0.1-5.7,0.7c-2.2,1-4.4,2.2-6.5,3.4
		c-4.7,2.6-9.6,3.3-14.8,1.9c5-1.7,8.9-4.8,12.2-8.8c-0.2,0.1-0.3,0.2-0.5,0.3c-1.6,1-3.2,1.9-5,2.5c-2.3,0.8-4.7,0.9-7-0.1
		c-1.3-0.6-2.4-1.6-3.3-2.7c1.7-0.2,3.5-0.3,5.2-0.6c1.7-0.3,3.3-0.9,4.8-2.2c-0.6,0-1,0-1.4,0C22.6,59,21,59,19.5,58.7
		c-2.6-0.4-5-1.3-7-3.1c-1-0.9-1.7-2-2.2-3.2c2,0.5,3.9,1,5.9,1.3c1.6,0.3,5.1,0.6,6,0.3c-0.3-0.1-0.5-0.2-0.7-0.3
		c-2.6-1-5.2-2.2-7.3-4.1c-1.1-1-2-2.1-2.6-3.6c2.1,0.8,4.1,1.3,6.3,1.3c-0.1-0.1-0.3-0.1-0.4-0.2c-1.2-0.5-2.5-0.9-3.7-1.5
		c-2.6-1.3-4.6-3.1-5.6-6C8,38.9,7.8,38,7.6,37.1c0.1,0,0.1,0,0.2-0.1c2.7,2.4,5.5,4.4,9,5.5c-1.3-1.2-2.7-2.4-3.9-3.7
		c-2.2-2.3-4-4.8-4.9-7.9c-0.4-1.3-0.6-2.6-0.5-4.1c1.6,1.8,3.2,3.3,5.1,4.6c1.8,1.2,5.2,2.7,6.1,2.6c-1.2-0.7-2.6-1.4-3.8-2.1
		c-1.9-1.1-3.4-2.6-4.6-4.4c-1.5-2.3-2-4.9-1.7-7.7c0.2-1.5,0.6-3,0.9-4.5c0.1,0,0.1,0,0.2,0c0.8,2.8,1.9,5.4,3.5,7.9
		c1.5,2.4,3.4,4.6,5.6,6.4c2.2,1.8,4.7,3.3,7.3,4.4c-9.2-5.8-14.5-13.6-13.2-25c0.1,0,0.1,0,0.1,0c0.3,0.6,0.5,1.3,0.8,1.9
		c2.9,6.8,7.2,12.7,13,17.3c3.2,2.6,6.8,4.6,10.4,6.7c1.6,0.9,3.1,1.9,4.7,3c0.7,0.4,1,1.1,1.1,2c0.1,2.8,0.6,5.6,1.5,8.2
		c0.8,2.3,1.8,4.5,3.6,6.2c1.4,1.4,2.7,1.2,3.8-0.5c0.1-0.2,0.2-0.3,0.3-0.5c0.3-1,0.8-2,1-3.1c0.5-2.5,1.2-4.8,2.8-6.8
		c0,0,0-0.1,0-0.2c-0.7,0.3-1.4,0.8-2.1,1c-0.7,0.2-1.5,0.4-2.3,0.4c-1,0-1.6-0.4-1.9-0.7c0.7-0.4,1.5-0.8,2.2-1.3
		c0.6-0.5,1.1-1,1.7-1.6c1.4-1.4,2.6-2.9,4.3-4c1.1-0.7,2.2-1.1,3.6-1c-1.7,0.8-2.5,1.5-2.6,2.4c1.3-1.2,2.8-1.8,4.4-2
		c1.2-0.1,2.3,0,3.3,0.9c-1.4,0-2.6,0.3-3.5,1.3c-2,2-3.3,4.4-3.1,7.3c0.1,1.6,0.5,3.1,1.5,4.4c0.9,1.1,2.1,1.2,3.1,0.1
		c0.5-0.5,0.9-1.1,1.3-1.7c1.6-2.6,2.5-5.5,3.3-8.4c0.1-0.3,0.3-0.7,0.6-0.9c2.5-2,4.9-4.1,6.9-6.5c2.8-3.4,5-7.1,6.3-11.3
		c1.3-3.8,1.8-7.8,1.8-11.8c0-0.2,0-0.4,0-0.7c1.3,1.5,1.9,3.1,2,4.9c0.2,2.5-0.3,5-1.1,7.4c-0.1,0.3-0.2,0.7-0.3,1
		c0.1,0,0.1,0,0.2,0c1.7-3.1,2.2-6.5,2.7-9.9c1.6,4.6,1,9.2-0.7,13.6c2.7-2.6,2.8-6,3.2-9.4c0.4,0.5,0.8,1,1,1.6
		c0.6,1.3,0.6,2.8,0.4,4.2c-0.3,2.9-1.3,5.5-2.9,8c-0.1,0.1-0.1,0.2-0.2,0.3c2.1-1.9,3.4-4.3,4.8-6.9c0.2,4.4-1.5,8-4.1,11.2
		c1.7-0.9,2.8-2.3,4-3.9c-0.3,3.7-1.5,6.7-4.3,9c1.1-0.1,1.9-0.8,2.8-1.4c-0.7,2.5-1.7,4.6-3.5,6.3c-2.2,2.1-4.8,3.1-7.7,3.7
		c-0.1,0-0.3,0.1-0.4,0.1c2.8,0.4,5.4-0.3,8-1.6c-0.7,1.6-1.7,2.6-3.1,3.3c-1.4,0.7-3,0.9-4.6,0.9c-0.3,0-0.6,0-0.9,0
		c0,0.1,0,0.1,0,0.2c2.5,1.2,5.2,1.7,8,2.1c-0.9,0.6-1.8,1.1-2.8,1.4c-3.1,1.1-6.1,0.6-9.1-0.5c2.2,2.6,5,4.3,8.1,5.7
		c-3.4,0.7-6.7,0.9-9.9-0.5c0,0.1-0.1,0.1-0.1,0.2c0.7,1,1.4,1.9,2.1,2.9c-2.2,0.4-4.3,0-6.2-1.5c0.4,1,0.8,2,1.4,2.9
		c0.6,0.9,1.3,1.7,2,2.6c-2.9-0.2-5.7-0.6-7.8-3.2c-0.3,2.3,0,4.5,0.7,6.6c-1.5-0.9-2.7-2-3.6-3.5c-0.1,0.3-0.1,0.4-0.1,0.6
		c-0.2,1.5-0.8,2.8-1.7,4c-0.3,0.4-0.4,0.7-0.4,1.1c0.1,2.3-0.1,4.6-0.7,6.8C58.8,84.4,55.1,87.6,50.1,87.9z"/>
	<path d="M43.3,85.7c0.2-1.8,0.2-3.6,0.5-5.4c0.4-3.5,3.3-6.4,7-6.9c-0.1,0.6-0.2,1.2-0.4,1.7c-0.8,3.5-1.7,6.9-3.3,10.1
		c-1,2-2.2,3.8-4.1,5.1c-2.8,1.9-5.8,1.7-8.8,0.7c1.4-0.1,2.8-0.1,4.2-0.3C41.4,90.4,43,88.7,43.3,85.7z"/>
	<path d="M46.7,93.9c0.7-0.3,1.4-0.6,2-1c0.8-0.6,0.8-1.5,0.1-2.1c-0.4-0.3-0.8-0.6-1.3-0.9c2.2,0.2,4.3,0.1,6.3-0.6
		c2.1-0.7,3.7-1.9,5.2-3.7c-0.1,0.5-0.1,0.9-0.2,1.2c-1,4.4-3.5,7.3-8.1,8.1c-1.2,0.2-2.4,0.4-3.6,0.6c-1.8,0.3-3.6,0.6-5.2,1.6
		c0.3-0.4,0.6-0.8,0.9-1.1C44,95,45.4,94.5,46.7,93.9z"/>
	<path d="M75.4,66.5c0-0.6,0.2-1.2,0.6-1.5c0.4,0.6,0.8,1.2,1.2,1.8c0.4,0.5,0.8,0.9,1.2,1.4c2.4,2.7,2.8,5.8,1.6,9
		c-0.4-0.8-0.7-1.7-1.2-2.5c-0.7-1.1-1.7-2-2.5-3c-0.5-0.6-1.1-1.3-1.5-2c-0.5-0.7-0.4-1.4,0.2-1.9C75.3,67.5,75.4,67.1,75.4,66.5z"
		/>
	<path d="M36.4,70.8c0.5-2.5,2.1-3.8,4.5-4.3c1.1,5.7-2.8,9.7-7,9.1c1.7-1.7,1.9-2,2.3-3.9C36.3,71.4,36.4,71.1,36.4,70.8z"/>
	<path d="M9.3,12.8c-0.1-0.4-0.1-0.8-0.3-1.2c-0.2-0.4-0.7-0.7-1-1c-0.2,0.4-0.6,0.7-0.7,1.1c-0.3,0.9-0.2,1.8,0.1,2.8
		c-0.2-0.2-0.3-0.2-0.4-0.3c-0.9-0.9-1.3-2.1-1.4-3.3c-0.1-2-0.3-4-1.2-5.9C4.1,4.4,4.1,3.7,4,3c0.1,0,0.1,0,0.2-0.1
		c0.5,1.5,1.6,2.5,3,3.3c0.4,0.2,0.8,0.5,1.1,0.8C9.1,7.5,9.7,8.1,10.1,9C10.7,10.4,10.3,12.1,9.3,12.8z"/>
	<path d="M12.9,67.3c0.4-0.6,0.8-1.2,1.3-1.7c1.4-1.4,3.8-1.1,4.8,0.4c-0.6,0.1-1.2,0.2-1.8,0.4c-0.6,0.2-0.5,0.7,0,0.9
		c0.7,0.2,1.4,0.3,2.1,0.3c0.4,0,0.9-0.2,1.3-0.3c-0.2,0.4-0.5,0.7-0.8,0.9c-0.9,0.7-1.9,1-3,1.1c-1.9,0.2-3.6,0.6-5.3,1.4
		c-0.7,0.3-1.5,0.3-2.2,0.5c0-0.1-0.1-0.1-0.1-0.2C11.2,70.4,12,68.8,12.9,67.3z"/>
	<path d="M87.4,51.3c6,0.3,8.9,6.4,7.4,11c-0.1-0.5-0.2-1.1-0.3-1.6c-0.7-2.8-2.2-4.1-4.8-3.9c-0.6-1-0.4-1.9,0.7-2.5
		C89.1,53.4,88.1,52.5,87.4,51.3z"/>
	<path d="M30,73.9c1.4-1.6,3.2-2.2,5.3-2.2c-1.5,4.8-5,6-9.2,4.2C28.4,75.4,28.9,75.2,30,73.9z"/>
	<path d="M62.6,74.7c0.5-0.4,0.7-1.1,0.6-1.7c-0.1-0.7-0.4-1.4-0.6-2.1c2.2,0.9,2.1,2.7,1.7,4.7c1.3,0,1.6-0.9,1.8-1.9
		c0.9,2.1,0.5,3.1-1.5,3.9c-0.1,0-0.1,0.1-0.2,0.1c-0.9,0.4-1.8,0.8-2.7,1.2c0-0.3-0.1-0.8-0.1-1.2C61.4,76.5,61.7,75.5,62.6,74.7z"
		/>
	<path d="M8,25.7c-0.9-0.7-1.9-1.5-2.9-2.2c-1-0.7-2-1.3-3-2c-1-0.7-1.7-1.6-2.1-2.8C4,18.6,6.9,21.5,8,25.7z"/>
	<path d="M77.7,63.6c1.1,1.3,2.6,1.9,3.9,1.2c-0.4-0.8-1.1-1.1-1.9-1.4c2.3-1.3,5.1,1,5.5,3C81.8,68.3,78.7,66.9,77.7,63.6z"/>
	<path d="M74,73.2c-0.4,1.1-0.9,2.2-1.3,3.3c-1.7-2.4-1.8-6.3,0-8C74.3,69.7,74.8,71.2,74,73.2z"/>
	<path d="M15.3,71.5c0.4,0.2,0.8,0.5,1.2,0.8c0.4,0.3,0.8,0.6,1.2,0.8c0.5,0.2,0.8,0.1,1-0.4c0.1-0.4,0.1-0.7,0.2-1.1
		c0.1,0,0.1-0.1,0.2-0.1c0.4,0.7,0.9,1.3,1.2,2c0.5,1.2-0.4,2.1-1.6,2c-0.8-0.1-1.4-0.4-1.9-1c-0.4-0.4-0.7-0.8-1.1-1.2
		c-0.6-0.6-0.7-0.6-1.4,0c-0.1-0.2-0.2-0.4-0.2-0.5c0-0.4,0.1-0.8,0.3-1.1C14.5,71.3,14.9,71.3,15.3,71.5z"/>
	<path d="M11.2,49.9c-0.3-0.2-0.6-0.4-0.9-0.6c-0.9-0.5-1.8-0.9-2.9-0.8c-0.4,0-0.5,0.2-0.3,0.6c0.2,0.3,0.5,0.6,0.8,0.8
		C8,50,8.2,50,8.5,50.1C6.6,50.6,5,49.9,3.9,48C5.7,45.6,9.7,46.8,11.2,49.9z"/>
	<path d="M89.3,45.8c1.9-1.3,5.4-0.5,7.5,1.2c-1.4,0.2-2.7,0.4-4.1,0.4C91.4,47.4,90.2,46.9,89.3,45.8z"/>
	<path d="M67.4,73.4c1.5,0.4,2,1.3,1.6,2.6c-0.1,0.5-0.4,1-0.6,1.5c-0.2,0.4-0.4,0.8-0.5,1.3c-0.1,0.8,0,1.6,0,2.4
		c-0.8-0.5-1.5-1.3-1.4-2.4c0.1-0.7,0.2-1.4,0.5-2.1C67.5,75.6,67.8,74.6,67.4,73.4z"/>
	<path d="M8.3,42.5c0,0,0.1,0.1,0.1,0.1c0,0.3,0.1,0.7,0,1c0,1-0.4,1.6-1,1.7c-0.6,0.1-1.3-0.4-1.7-1.2c-0.1-0.2-0.2-0.5-0.2-0.7
		c-0.1-0.4-0.1-0.8-0.1-1.2c-0.1-0.6-0.2-0.8-0.9-0.8c0.1-0.5,0.2-0.9,0.8-0.9c0.5,0,0.8,0.4,0.9,0.8c0.1,0.2,0.1,0.4,0.2,0.7
		c0.1,0.4,0.2,0.7,0.4,1.1c0.2,0.5,0.5,0.5,0.9,0.2C8,43,8.1,42.7,8.3,42.5z"/>
	<path d="M25.3,72.9c1.1,0.2,2.3,0.5,3.4,0.8c-0.7,1.4-4.3,1.7-5.8,0.5C23.4,73.1,24.2,72.7,25.3,72.9z"/>
	<path d="M90.9,11.6c0.5-0.7,1-1.4,1.4-2c0.3,2,0,3.9-1.6,5.6C90,13.9,90,12.7,90.9,11.6z"/>
	<path d="M100,44.8c-1.8,0.9-3.5,0.8-5.3,0C95.7,43.4,98.8,43.7,100,44.8z"/>
	<path d="M96,38c0.3-1.7,1.7-2,3.9-2.7C99.3,37.5,97.1,38.8,96,38z"/>
	<path d="M92.5,37.7c0.9-1.5,2.6-1.7,3.9-2.6C95.9,37.3,94,38.6,92.5,37.7z"/>
	<path d="M67.6,71.8c0-0.4,0-0.7,0.1-1.1c0.1-0.9,0.3-1.8,0.4-2.6c0.8,0.3,1.1,1,0.9,2c-0.1,1-0.5,1.9-0.2,3
		C68,72.9,67.6,72.5,67.6,71.8z"/>
	<path d="M87.3,7.8c0.3-0.7,0.7-1.4,1.1-2.1c0.4,1.7,0.4,3.3-0.7,4.9C87,9.7,86.8,8.8,87.3,7.8z"/>
	<path d="M93,49.8c-2,0.2-3.3-0.7-3.5-2.3C90.8,47.5,92.7,48.7,93,49.8z"/>
</g>
</svg>
