<?xml version="1.0" encoding="utf-8"?>
<!-- Generator: Adobe Illustrator 27.9.0, SVG Export Plug-In . SVG Version: 6.00 Build 0)  -->
<svg version="1.1" id="Layer_1" xmlns="http://www.w3.org/2000/svg" xmlns:xlink="http://www.w3.org/1999/xlink" x="0px" y="0px"
	 viewBox="0 0 100 100" style="enable-background:new 0 0 100 100;" xml:space="preserve">
<g transform="translate(0,-284.29998)">
	<path d="M43.9,307.6c0.4,0,0.7,0.1,1.1,0.2c4.6,1.2,8.9,3.5,12.5,6.7c0.5,0.4,1.1,0.6,1.7,0.5c7.2-1.3,14.6,0,21,3.6
		c5.3,3.7,8.8,9.5,9.6,16c0.1,1.1-0.5,2.1-1.5,2.5c-0.3,0.1-0.6,0.3-1,0.4l0.8,1.6c0.1,0.3,0,0.6-0.3,0.8c-0.3,0.1-0.6,0-0.8-0.2
		l-0.8-1.6c-0.3,0.1-0.5,0.3-0.8,0.5l0.6,2c0.1,0.3-0.1,0.6-0.4,0.7c-0.3,0.1-0.6-0.1-0.7-0.4l-0.5-1.7c-0.4,0.3-0.8,0.6-1.2,0.9
		l0.7,1.6c0.1,0.3,0,0.6-0.3,0.8c-0.3,0.1-0.6,0-0.8-0.3l-0.6-1.3c-0.8,0.7-1.5,1.6-2.1,2.4c-0.3,0.4-0.2,1,0.2,1.3
		c0.1,0.1,0.3,0.2,0.4,0.2c1.5,0.2,3,0.3,4.4,0.4v-2.1c0-0.3,0.3-0.6,0.6-0.6c0.3,0,0.5,0.3,0.6,0.6v2.1c0.6,0,1.1,0,1.7,0v-2.1
		c0-0.3,0.3-0.6,0.6-0.5c0.3,0,0.5,0.3,0.5,0.5v2.1c0.5,0,1.1,0,1.6,0v-2.1c0-0.3,0.3-0.6,0.6-0.6c0.3,0,0.6,0.3,0.6,0.6v2.3
		c0.4,0.3,0.5,0.9,0.2,1.3c0,0,0,0,0,0c-4.7,6.2-11.3,10.8-18.8,13c-6.7,2.2-14,2.1-20.6-0.3c-9.4-3-18-7.9-25.3-14.5
		c-1-0.9-2.4-0.8-3.3,0.2c-0.2,0.3-0.4,0.6-0.5,0.9c-1.9,6.4-6.8,11.6-13.1,13.8c-1.2,0.4-2.6-0.2-3-1.4c-0.2-0.5-0.2-1,0-1.5
		c1.4-4.6,2.2-9.3,2.4-14.1c-0.4-1.6,0.1-3.3,1.4-4.3c0.4-0.3,0.4-0.9,0.1-1.3c0,0-0.1-0.1-0.1-0.1c-1.3-1.1-1.8-2.7-1.4-4.3
		c-0.1-4.8-0.9-9.5-2.4-14.1c-0.4-1.2,0.3-2.6,1.5-2.9c0.5-0.2,1-0.1,1.5,0c6.5,2.3,11.5,7.7,13.3,14.3c0.3,1.3,1.6,2,2.9,1.7
		c0.5-0.1,0.9-0.4,1.2-0.7c0.7-0.8,1.5-1.7,2.3-2.4c1.3-7.4,4.9-14.2,10.3-19.5C41.4,308,42.6,307.6,43.9,307.6L43.9,307.6z
		 M76,333.2c-1.2,0-2.2,1-2.2,2.2c0,0,0,0,0,0.1c0,1.2,0.9,2.2,2.1,2.3s2.2-0.9,2.3-2.1c0,0,0-0.1,0-0.1
		C78.2,334.2,77.3,333.2,76,333.2C76,333.2,76,333.2,76,333.2z"/>
</g>
</svg>
