<?xml version="1.0" encoding="utf-8"?>
<!-- Generator: Adobe Illustrator 27.9.0, SVG Export Plug-In . SVG Version: 6.00 Build 0)  -->
<svg version="1.1" id="Layer_1" xmlns="http://www.w3.org/2000/svg" xmlns:xlink="http://www.w3.org/1999/xlink" x="0px" y="0px"
	 viewBox="0 0 100 100" style="enable-background:new 0 0 100 100;" xml:space="preserve">
<path d="M79.1,57.4c-1.2,2.9-2.3,5.4-3.5,8.3c-0.5-0.9-1.1-2-1.7-3.1c-0.6-1.3-1.1-2.7-1.7-4c-0.5-1.1-1.1-2.2-1.4-3.3
	c-0.7-2.3-1.4-4.6-2.2-7.7c-0.2,1.3-0.2,1.9-0.3,2.7c-3.3-1.7-2.8-5.5-4.8-8.3c0,1.4,0,2.4,0,3.5c-1.4,0.1-1.4,0.1-3.1-3.7
	c-0.2,1.1-0.5,2.3-0.8,3.9c-0.6-1-1-1.7-1.4-2.3c-0.2,0.5-0.5,1-0.9,1.9c-0.5-1.4-0.8-2.4-1-3.1c-1.1,0.6-2.3,1.2-3.6,1.9
	c-0.3-1.6-0.5-2.9-0.8-4.2c-0.1,0-0.2,0-0.3,0c-0.1,0.9-0.2,1.7-0.4,3.5c-1.5-1.7-2.6-3-3.5-4.1c-0.3,0.6-0.9,1.7-1.4,2.8
	c-0.1-0.2-0.2-0.3-0.2-0.5c-0.8,0.3-1.6,0.7-2.5,1.1c-0.1-0.4-0.3-0.9-0.4-1.4c-0.9,1.2-1.7,2.5-2.7,3.9c-0.4-0.7-0.6-1.2-1-2
	c-0.4,1.8-0.7,3.2-1,4.6c-0.2,0-0.4,0-0.6,0c-0.3-1.5-0.6-3.1-0.9-4.6c-0.1,0-0.2,0-0.4-0.1c-0.3,2-0.6,4-1,6.7
	c-0.5-1-0.7-1.5-1.1-2.2c-1.1,1.9-2.1,3.6-3.6,6.1c-2.3-7.1-5.1-10-6.4-16.5c-1-5-0.1-6,0.1-11.2c0.3-7.4,0.8-10.3,1-17.8
	c0.1-2.7-0.2-5.4-0.6-8.1c-0.8,8.4-1.6,12.3-2.4,20.7c-0.4,3.9-0.5,5.5-1.2,9.4c-1.8,10.6,2,14.8,4.2,24.8c0.9,4.3,1.6,8.4-0.5,12.6
	c-0.9,1.8-0.6,4.2-0.9,6.4c-0.2,1.6-0.3,3.2-0.5,5.3c-2.1-2.2-3.1-2.3-4.7,0.2c-0.9,1.4-3.3,1.7-2.1,4.7c0.5-0.9,0.8-1.7,1.3-2.7
	c1.7,1.4,2.9,2.1,3.8,3.2c2.2,2.4,3.8,2.9,7,1.7c0.8-0.3,1.8-0.3,2.7-0.2c0.8,0.1,1.7,0.4,2.6,0.6c-0.1-4.1-3.9-1.9-6.1-3.7
	c1.2-0.4,1.7-0.7,2.4-0.8c3.2-0.4,5.4-2.1,7.1-4.9c2.9-4.9,4.4-4.8,7.6,0.1c0.8,1.3,1.1,2.3,0.1,3.7c-1.6,2.1-1.3,4.2,0.4,6.1
	c1,1.1,1.8,2.3,2.6,3.5c1.7,2.7,1.2,4-1.9,4.5c-0.6,0.1-1.1,0.4-1.5,1c1,0.1,2,0.1,2.9,0.2c0.4,1.2,0.7,2.2,0.9,3.2
	c0.9-1,1.5-1.8,2.2-2.6c0.7,0.8,1.4,1.6,2.4,2.8c0.2-1.2,0.4-2.4,0.6-3.9c0.9,0.7,1.7,1.3,2.6,1.9c0.6-2.1-0.4-3.3-2.1-4.1
	c-1.7-0.9-2.2-2-1-3.7c1.7-2.4,3.2-4.8,4.9-7.1c0.6-0.8,1.6-1.2,2.6-1.9c0.3,0.6,0.6,0.9,0.6,1.2c0.4,4.9,4.7,6.8,7.8,9.5
	c0.3,0.2,2.1-0.9,2.6-1.7c0.7-1.2,0.9-2.6,1.4-4.1c3.1,2.1,3.3,2.9,1.8,7.2c-1.3,0.1-2.6,0.1-3.8,0.2c0,0.2,0.1,0.3,0.1,0.5
	c1,0.3,2.5,0.4,2.9,1.1c0.4,0.8-0.3,2.1-0.5,3.4c0.9-0.4,1.9-0.8,3.1-1.4c0,1,0,1.9,0,2.7c0.2,0.1,0.5,0.2,0.7,0.3
	c0.6-1,1.2-2,2.1-3.4c0.6,0.2,1.5,0.6,3.2,1.3c-0.4-1-0.6-2-1.1-2.3c-2.9-1.4-3.5-2.5-2.8-5.6c0-0.1,0-0.2,0.1-0.3
	c2.1-4.7,1.2-9.1-1.4-13.4c-1.7-2.8-1-5.8,1.3-8.2C82,65.6,82,62.4,79.1,57.4z M64,75.9c1.4,1.6,2.6,3,3.9,4.5
	C64.6,81.9,63.6,80.7,64,75.9z M72,80.7c1.1-1.7,2-3,3.3-4.9C75.5,80.6,75.1,81.2,72,80.7z"/>
</svg>
