<?xml version="1.0" encoding="utf-8"?>
<!-- Generator: Adobe Illustrator 27.9.0, SVG Export Plug-In . SVG Version: 6.00 Build 0)  -->
<svg version="1.1" id="Layer_1" xmlns="http://www.w3.org/2000/svg" xmlns:xlink="http://www.w3.org/1999/xlink" x="0px" y="0px"
	 viewBox="0 0 100 100" style="enable-background:new 0 0 100 100;" xml:space="preserve">
<style type="text/css">
	.{fill-rule:evenodd;clip-rule:evenodd;}
</style>
<path class="" d="M9.7,57.1c0.3-0.7,0.1-1.2,0.3-1.8c0.7-1.4,1.8-2.6,2.9-3.6c1.8,0,3.1,0.7,4.1,1.5c0.3,0.2,0.3,0.7,0.5,0.9
	c0.6,0.5,1.6,0.4,2.2,1.1c1.7,2.2,2.3,5.3,4.1,7.4c0.3,0.3,0.3-0.2,0.9,0C26,63,27.7,64,28.4,65c0.1,0,0.1,0,0.2,0
	c-0.3-0.9-0.6-1.7-0.9-2.5c0-0.5,0-0.9,0-1.5c0-0.1,0-0.1,0-0.2c-0.1-0.2-0.8-0.2-0.9-0.3c-0.8-0.9-1.7-3-2.2-4.1
	c-0.8-2,0.6-4.7,0.2-5.6c-0.2-1.2-1.2-1.3-1.6-2.2c-0.6-1.1-0.6-3.1-0.9-4.3c-0.6-2.7,1.8-4.1,1.1-6.3c-0.2-0.6-1-0.9-1.3-1.6
	c-0.5-1.6,0.3-6.4,0.7-7.2c0.3-0.4,0.9-0.9,1.6-1.1c-0.2-0.5-0.6-0.8-0.7-1.3c-0.4-1.6,1.2-5.3,1.8-5.9c0.4-0.5,1.5-0.7,1.8-1.3
	c0.3-0.4,0.1-0.9,0.3-1.3c0.8-1.2,3.3-3.2,4.5-4c0.9-0.4,2-0.6,2.8-1.3c0.7-0.5,0.9-1.6,1.6-2.2c1.6-1.2,3.8-2.2,5.8-3.1
	c0.9-0.3,6.3-1,7.6-0.7c3.8,0.9,7.6,3.4,9.6,6.1c0.4,0.7,0.4,1.7,0.9,2.3c0.3,0.5,1.6,0.6,2,1.6c0.6,1.3,0.6,4.2,1.3,5.3
	c0,0.6,0,1.2,0,1.8c-0.3,0.1-0.6,0.1-0.9,0.2c0.2,2.8,3.3,3.4,3.3,7.8c0,0.6,0,1.2,0,1.8c-1.2,4.1-5.9,5.5-3.8,11.5
	c0.3,0.9,0.4,1.7,1.1,2.3c0,0.1,0,0.3,0,0.3c-0.1,0-0.1,0-0.2,0c-0.6-1.2-1.5-2.4-2-3.8c-0.2-0.9-0.3-1.7-0.5-2.5
	c-0.9-2.3-2.1-4.3-2.7-7.1c-0.7-3,0.1-6.9,1.8-8.1c0-0.6,0-1.2,0-1.8c-0.4-0.3-0.9-0.6-1.3-0.9c-1.3-1.6-2.8-3.6-3.1-6.1
	c-0.3,0-0.5,0-0.7,0c-1.4-1.3-2.9-2.1-3.4-4.1c-1.6,0-3.3,0.1-4.1-0.7c-2.7,0-2.6,1-4,2c0.1,1.1,0.4,2.7,0,3.8c-0.1,0-0.1,0-0.2,0
	c-0.1,0.3-0.1,0.5-0.2,0.7c-0.2,0.1-0.3,0.1-0.5,0.2c-0.2,0.3,0.6,1,0.3,1.8c-0.5,2-1.5,5-3.4,5.6c0.3,0.6,1,0.9,1.3,1.5
	c1,2.7,0,6.6-1.1,8.4c-0.2,0-0.3,0-0.5,0c0,0.2,0,0.3,0,0.5c0.5,0.1,0.8,0.1,1.1,0.3c1.6,1,3.8,7.9,1.5,9.4c0.4,0.6,1.4,0.4,2.2,0.7
	c0.7,0.3,3.7,2.2,4.1,2.7c1.3,1.7,2.4,4.1,3.3,6.1c0.4,1.1,0.4,2.4,1.1,3.4c0.7,0.9,4.1,2.3,5.3,2.8c0.7-2.1-0.3-5.1-0.7-7.1
	c0-0.5,0-1.1,0-1.6c-0.3-1-0.9-2.5-0.2-3.4c0.2-0.5,0.8-1,1.1-0.7c2.2,0.3,1.4,1.5,2,3.3c0.2,0.5,0.8,1.1,0.9,1.6
	c0.8,2.4,0.3,8.4-0.5,10.4c1.7-1.3,1.8-4.4,2.5-6.6c0.9-2.6,1.9-4.1,3.6-5.8c0.5,0.1,0.8,0.1,1.1,0.3c1.6,0.5,0.9,2.5,0.9,4.3
	c1.4-0.3,2-1.4,3.3-1.8c6-1.9,5,5.3,7.1,7.9c0.3,0.3,0.9,0.1,1.5,0.2c1.2,0.3,2.7,0.7,3.6,1.3c0.3,0.2,0.8,1,1.3,0.9
	c0-0.1,0-0.1,0-0.2c0.9-0.4,1.7-1.1,2.9-1.5c3.9-0.9,9,1.4,9.7,3.6c0.6,0.8,0.6,2,0,2.5c0.3,0.9,0.4,0.3,0.9,0.9
	c0.5,0.6,1,2.5,1.3,3.3c0.9,3.4-1.6,6.3-4.1,5.9c0.6-0.7,1-1.6,1.6-2.2c0.1-2.2-0.1-3.3-1.6-3.8c-0.2-0.2-0.1-0.1-0.3-0.2
	c-0.9,1-1.1,2.7-2,3.8c-0.1,0.3,0,0.2-0.2,0.3c-0.3-0.7-0.7-1.3-0.9-2c-0.3-0.9,0.1-2.3-0.3-3.1c-0.7-0.4-2.9-0.3-3.8-0.7
	c-0.8-0.3-2-0.8-2.7-1.3c-0.3-0.3-0.5-0.6-0.7-0.9c-1.5-0.1-2.9-0.1-4.3-0.2c-2.1-0.5-4-1-5.6-1.8c-0.9,1.6-3.4,2.1-5.4,2.5
	c-1.2,0-2.4,0-3.6,0c-0.8,0.3-1.1,1.2-1.8,1.5c-1,0.3-2-0.2-2.7,0.3c-0.6,0.3,0,0.3-0.3,0.9c-0.3,0.4-0.9,0.6-1.3,0.9
	c-0.3-0.3-0.3-0.9-0.3-1.5c-0.2,0.3-0.2,0.8-0.2,1.3c-1.7-0.5-1.8-0.6-3.5-0.5c0.1,0.3,0.1,0.3,0.2,0.5c-0.1,0.6,0.1,0.4-0.3,0.5
	c0,0.1,0,0.1,0,0.2c0.1,0,0.1,0,0.2,0c-0.3,0.4,0.1,0.2-0.5,0.3c1.2,0.9,3.2,1.2,4.5,2c1.1,0.7,2.2,1.8,3.3,2.5
	c2.7,1.9,6,3.4,7.9,5.9c0.5,0.7,0.8,1.5,1.3,2.2c0,0.2,0,0.3,0,0.5c-1.4-0.9-3-2-4.7-2.5c-0.7,0-1.3,0-2,0c-0.3-0.1-0.8-0.6-1.1-0.7
	c-0.7-0.3-1.6,0-2.2-0.3c-1.6,0-4-0.3-5.3,0.2c2.4,2.7,4.7,4.4,8.7,5.6c0.7,0.1,1.5,0.1,2.2,0.2c1,0.3,1.6,0.8,3.1,0.7
	c-1.4,1.3-4.6,1.3-6.7,0.7c-3.9-0.9-7-1.7-9.9-3.6c-0.8-0.5-1.7-1-2.5-1.6c-0.3-0.4-0.7-0.9-1.1-1.3c-0.8-0.4-1.6-0.1-2.5-0.3
	c-2.3-0.7-5.1-1.9-5.8-4.3c-5.3-0.7-6.3-2-9.7-4.1c-0.1-1.3-0.5-2.3,0.2-3.1c-0.4-0.7-1.6-0.3-2.2-0.9c-0.2-0.2,0-0.6-0.2-0.7
	c-0.6-0.1-1.2-0.3-1.8-0.3c-1.6-0.5-3.6-1.6-4.5-2.8c-1.4,0.2-5.3,1.1-6.1,0.2c-0.3,0.7,0.2,1.5-0.2,2.3c-0.2,0.4-1.1,2.2-1.5,2.7
	c-0.3,0.1-0.6,0.3-0.9,0.3c-0.1,0.5-0.3,1.1-0.3,1.6c-0.5,1-2.6,4-3.4,4.5c-0.4,0.3-0.6,0-0.9,0c-0.7,0.5-1.3,1.3-2.2,1.6
	C8,83,7,82.6,6.5,82.9c-0.1,0-0.3,0-0.3,0c0-0.1,0-0.3,0-0.3c1.1-0.8,2.4-1.8,4-2c0.2-2.3,1.6-4.6,2.7-6.1c0.2-0.3,0.9-0.4,1.1-0.7
	c0-0.3,0-0.7,0-1.1c0.3-0.8,1.2-1.6,1.6-2.3c0.2-0.5,0.3-1.1,0.5-1.6c0.3-0.4,1.1-0.7,1.5-1.1c0.3-0.5,0.1-0.9,0.5-1.3
	c-0.9-0.6-2.4-0.4-3.4-0.3c0,0.9-1.2,3.8-1.6,4.1c-0.3,0-0.5,0-0.7,0c0.4,0.2-0.2,1.3-0.3,1.6c-0.5,0.9-1.7,3.1-2.7,3.6
	c-0.3,0-0.6,0-0.9,0c-0.3,0.2-0.9,0.6-1.3,0.7c-1.5,0.4-2.2-0.5-2.9-0.2c-0.1,0-0.3,0-0.3,0c0-0.1,0-0.1,0-0.2
	c1.1-0.6,2.3-1.2,4-1.3c0.2-1.8,1.3-3.8,2.2-5.1c0.3-0.2,0.5-0.3,0.7-0.5c0-0.3,0-0.6,0-0.9c0.7-1.8,2.3-4.2,3.6-5.6
	c-0.3-0.6-1.4-0.5-2-0.9c-1.9,0-1.3,0.9-2,2c-1.6,2.3-3.8,4.5-5.3,6.8c-1.1,0.1-1.7,0.5-2.7,0.7c-1,0.2-1.4-0.8-2-0.3
	c-0.1,0-0.3,0-0.3,0c0-0.1,0-0.1,0-0.2c1-0.5,2.2-1,3.6-1.1c0.2-1.8,1.5-3.4,2.3-4.7c0.3-0.3,0.6-0.5,0.9-0.7
	c0.3-0.6,0.1-0.9,0.5-1.5c-0.4-0.3-0.9-0.6-1.3-0.9c0.4-0.3,1.1-0.5,1.8-0.5C7.8,59.2,9,58.5,9.7,57.1z M45.8,55.6
	c0.2,0.4,0.2,0.3,0.3,0.5c0.2,0,0.3,0,0.5,0c-0.1-0.3-0.3-0.7-0.3-1.1C46.1,55.3,46,55.5,45.8,55.6z M12.2,57.3c0,0.1,0,0.3,0,0.3
	c1.1-0.4,3.5-0.3,4.3,0.3c0.1,0,0.3,0,0.3,0c-0.2-0.3-0.4-0.8-0.7-1.1c-1-0.7-2.3-0.3-3.1-1.3C12.7,56.1,12.6,56.8,12.2,57.3z
	 M74.3,60c-0.9,0.3-2.9,1.1-4,0.3c-1.3,0.3-1.6,3.9-2.5,4.8c0,0.1,0,0.1,0,0.2c0.8-0.2,3.1-0.9,3.8-1.3c1.4,0,2,0.3,2.5,1.1
	c0.7-0.3,0.6-0.6,1.5-0.7C75.4,62.6,74.4,61.9,74.3,60z M48.8,75.1c0,0.1,0,0.1,0,0.2c0.8,0,1.6,0,2.3,0c0-0.1,0-0.1,0-0.2
	c-0.3-0.2-0.5-0.3-0.7-0.5C49.6,74.7,49.4,74.8,48.8,75.1z M55.3,75.3c-0.1-0.1-0.1-0.3-0.2-0.3C55.2,74.9,55,75,55.3,75.3z"/>
</svg>
