<?xml version="1.0" encoding="utf-8"?>
<!-- Generator: Adobe Illustrator 27.9.0, SVG Export Plug-In . SVG Version: 6.00 Build 0)  -->
<svg version="1.1" id="Layer_1" xmlns="http://www.w3.org/2000/svg" xmlns:xlink="http://www.w3.org/1999/xlink" x="0px" y="0px"
	 viewBox="0 0 100 100" style="enable-background:new 0 0 100 100;" xml:space="preserve">
<g>
	<g>
		<path d="M71.3,11.1c-0.1,0-0.3,0-0.4,0c0-0.9,0.1-1.9,0.1-2.8c0.1,0,0.3,0,0.4-0.1C71.3,9.1,71.3,10.1,71.3,11.1 M63.5,44.2
			c0.1-0.3,0.1-0.8,0.3-0.9c0.2,0.1,0.4,0.2,0.5,0.2C64.1,43.7,63.8,44,63.5,44.2 M63.7,45c-0.1,0.2-0.3,0.3-0.6,0.4
			c0.1-0.3,0.2-0.6,0.4-0.9c0-0.1,0-0.1,0.1-0.2C63.6,44.5,63.8,44.9,63.7,45 M53.8,50.3c0.9-0.9,1.7-0.4,2.3,0.7
			C55,51.7,54.7,50.3,53.8,50.3 M54.9,52.1c0,0.2,0,0.4,0.1,0.6c-0.6,0.2-1,0-1.2-0.6H54.9z M61.4,59.3c-0.2,1,0.1,2.2-1.2,2.6
			c-0.1,0-0.2,0.5-0.3,0.8c-0.1,0.6-0.2,1.1-0.4,1.7c-0.3,0.8-0.4,1.4,0.2,2.1c0.2,0.3,0,1.1-0.1,1.7c0,0.2-0.6,0.2-0.8,0.3
			c-0.2,0.6-0.3,1.2-0.5,1.8c-0.1,0.4-0.2,0.9-0.3,1.3c0-0.2-0.1-0.5-0.1-0.7c-0.4-3.6-0.6-7.2-0.9-10.8c0-0.4,0.1-0.7,0.5-0.8
			c0.4-0.1,0.5-0.3,0.4-0.6c0-0.2-0.1-0.4-0.1-0.6c0.3,0,0.6,0.1,1,0.1c-0.5-1.2-0.9-2.2-1.4-3.3c0-0.1-0.4-0.2-0.6-0.1
			c-1.6,0.5-3.3,1.1-4.9,1.7c-0.2,0.1-0.4,0-0.8,0.1C52,56,52,55.4,51.2,55c0.1-0.3,0.2-0.6,0.3-1c0.6,0.3,1.1,0.7,1.7,0.9
			c1,0.4,1.1,0.3,1.4-0.7c0.1-0.4,0.3-0.5,0.6-0.6c0.5-0.2,1.1-0.5,1.3-1c0.4-1,0.4-2.1-0.3-3c-0.1-0.2-0.1-0.5-0.1-0.7
			c0.1-0.4,0.2-0.7,0.3-1.1c-0.1,0-0.1,0-0.2,0c-0.9,1.1-1.1,1.2-1.7,0.8c2-1.2,2.3-1.5,1.8-2.3c-1,1.1-1.8,1.4-2.6,1.2
			c1.1-0.5,2.5-0.7,2.4-2.4c-0.7,1-1.7,1.3-2.9,1.3c1-0.5,2.5-0.6,2.6-2c0.1-1.6-0.3-3-2.2-3.5c0.3-0.6,0.5-1.2,0.8-1.8
			c0.2,0.3,0.4,0.5,0.6,0.7c2.2,3.2,3.2,6.7,2.7,10.6c-0.1,1,0.4,1.6,0.9,2.2c0.1,0.1,0.4,0.3,0.6,0.2c0.5-0.1,1.1-0.3,1.6-0.5
			c0.2-0.1,0.3-0.3,0.4-0.5c0.4-1.2,0.6-2.5,1-3.7c0.2-0.5,0.4-1.1,0.5-1.6c-0.1,0.7-0.6,1.6,0.6,1.8C62.7,52.1,62.1,55.7,61.4,59.3
			 M58.1,72.1c0.1,0,0.1,0,0.2,0.1c-0.1,0.1-0.1,0.1-0.2,0.2C58.1,72.2,58.1,72.2,58.1,72.1 M48.8,72.9c-0.4,2.5-0.8,4.9-1.2,7.6
			c-0.1-0.5-0.2-0.9-0.3-1.3c-0.3-0.9-0.6-1.8-0.9-2.7c-0.1-0.2-0.1-0.4,0-0.5c0.9-2.7,1.9-5.4,2.8-8.1c0.3-0.8,0.5-1.6,0.7-2.4
			c0,0,0.1,0,0.1,0C49.6,68,49.2,70.5,48.8,72.9 M42.7,57.1c-0.1,0-0.1,0-0.2-0.1c0-0.3,0.1-0.6,0.1-0.9c0.3-3.4-0.6-6.4-2.9-8.9
			c-0.1-0.2-0.3-0.5-0.2-0.7c0.2-1.1,0.4-2.3,0.7-3.6c0.7,0.5,1.3,0.9,1.8,1.4c0.1,0.1,0.2,0.4,0.2,0.6c-0.2,1.6,0.1,3.1,0.7,4.5
			c0.1,0.3,0.5,0.6,0.8,0.7c0.3,0.2,0.4,0.3,0.3,0.6c-0.1,0.3-0.1,0.5-0.1,0.8c-0.1,0.8-0.1,1.6,0.7,2.1c0.8,0.6,1.8,0.8,2.7,0.3
			c0.3-0.2,0.6-0.4,1-0.6c0.1,0.2,0.2,0.4,0.3,0.6c0.2-0.1,0.4-0.1,0.8-0.2c0,0.4-0.1,0.7-0.1,1.1c-0.3-0.1-0.4-0.1-0.7-0.2
			c-0.1,0.5-0.1,0.9-0.2,1.4c0.4,0,0.6-0.1,0.9-0.1c0,0.9,0,1-0.8,1C46.5,57.1,44.6,57.1,42.7,57.1 M45.9,50.6c0-0.1,0-0.1-0.1-0.2
			c0.9-0.2,1.8-0.5,2.6-0.7c0,0.1,0,0.1,0.1,0.2C47.7,50.1,46.8,50.3,45.9,50.6 M45.9,52.6c0.5,0,1.1,0,1.6,0c0,0.1,0,0.2,0,0.3
			c-0.7,0.2-1.4,0.3-2.2,0.5C45.3,52.8,45.4,52.6,45.9,52.6 M44.5,51.1c0.3,0,0.6,0,0.9,0c0,0.1,0,0.2,0,0.2c-0.3,0.2-0.6,0.5-1,0.1
			C44.4,51.5,44.5,51.2,44.5,51.1 M47.6,48.5c-1.1,0.7-2.2,0.9-3.5,0.7C45.3,48.9,46.4,48.7,47.6,48.5 M47.4,47
			c-0.9,1-3.5,1.3-4.5,0.3C44.5,47.9,46,47.4,47.4,47 M44.6,46.3c-1,0.4-2.2-0.2-2.2-1.2C43.2,45.5,43.9,45.9,44.6,46.3 M53.8,53.8
			c-0.3,0.8-0.6,0.9-1.2,0.3c-0.3-0.3-0.5-0.7-0.8-1.1c0,0,0.1-0.1,0.1-0.1C52.6,53.2,53.2,53.5,53.8,53.8 M51.7,45
			c1.3-0.3,2.4-0.7,3.6-1C54.6,44.9,53.6,45.2,51.7,45 M53.5,41.6c0.1,0,0.2,0,0.2,0.1c0.7,0.4,1.2,1,1,1.4
			c-0.3,0.7-0.9,0.8-1.5,0.9c-0.2,0-0.5,0-0.8,0C52.8,43.1,53.2,42.3,53.5,41.6 M60.7,46.6c0.2-0.8,0.4-1.7,0.7-2.5
			c0.2-0.6,0.6-1,1.3-1.2c-0.6,2.3-1.2,4.6-2.4,6.6c-0.1,0-0.1,0-0.2-0.1C60.3,48.5,60.5,47.6,60.7,46.6 M72.5,6.7
			c-0.3-0.3-0.3-1.1-0.3-1.6c-0.1-0.6,0-1.2,0-1.8c-0.1,0-0.1,0-0.2,0c-0.1,0.6-0.3,1.2-0.4,1.7c0.2-1.6,0.4-3.3,0.6-5
			C72.1,0,72,0,71.8,0c-0.3,2-0.7,4-1,6c-0.1,0-0.2,0-0.2,0c0.2-0.9,0.3-1.9,0.5-2.9c-0.2,0.1-0.3,0.2-0.3,0.2
			c-0.6,1.5-0.9,3.1-2.5,3.7c-0.1,0-0.2,0.4-0.3,0.6c-0.2,0.8-0.4,1.6-0.4,2.3c0,0.7,0.7,1.4,0.6,1.9c-0.3,1.3,0.9,0.9,1.2,1.6
			c-0.2,0.1-0.3,0.1-0.3,0.2c-0.3,0.3-0.7,0.5-0.9,0.8c-0.1,0.1,0.4,0.5,0.5,0.9c0.1,0.3,0.2,0.7,0.2,1c-1.2,7.3-2.4,14.5-3.6,21.7
			c-1.3,0.3-1.5,0.9-1.1,1.5l-1.1,0.6c-0.8,1.3-1.7,1.9-2.3,3.1c-0.6,1.2-0.9,2.5-1.4,3.8c-0.6-1.7-1.2-3.4-1.6-5.1
			c-0.3-1.4-0.5-2.8-0.8-4.1c0-0.2-0.2-0.5-0.4-0.6c-0.4-0.1-0.9-0.2-1.4-0.3c-0.3-0.1-0.6-0.1-0.9-0.3c-0.3-0.2-0.4-0.2-0.6,0
			c0.7-3-1.7-5.3-1.8-7.2c-0.2-1.9-4.7-4.7-6.2-4.7s-4.1,4.9-3.7,6.6c0.3,1.8,1.1,6.6,0.2,6.8c-0.5,0.1-0.9,0.8-1.1,1.4
			c-0.2,0-0.4,0-0.7,0.1c-1.2,0.5-1.8,1.6-2.4,2.5c-0.3,0.4-0.1,1.3,0,1.9c0,0.5,0.1,0.9,0.2,1.5c-0.2-0.1-0.3-0.1-0.4-0.2
			c-2.6-1.5-5.9-0.9-7.9,1.2c-1.6,1.7-2.3,3.7-2.6,5.9c-0.4,2.9,0,5.6,1.6,8.1c1,1.7,2.5,2.9,4.4,3.4c3.4,0.7,6.2-0.7,8.1-3.5
			c0.3-0.4,0.6-0.9,0.8-1.3c0.3,0.1,0.5,0.2,0.7,0.2c0.2,0,0.4-0.1,0.7-0.2v3c-0.3,0-0.6,0-0.8-0.1c-0.5-0.1-0.7,0.1-0.7,0.5
			c0,0.5,0,1.1,0,1.6c0,0.8,0.1,1.5-0.6,2.1c-0.2,0.2-0.2,0.6-0.4,0.9c0.2,0.1,0.4,0.1,0.6,0.2c-0.2,0.5-0.3,0.9-0.5,1.3
			c-1.1,3-2.2,6-3.2,9c-0.3,0.8-0.4,1.7-0.5,2.6c-0.1,0.8,0.3,1.1,1.1,1.1c0.2,0,0.4,0,0.6,0l2.6,0.2c0.1-0.3,0.2-0.5,0.3-0.9
			c0.5,1-0.1,1.7-0.2,2.6c1.6-1,2.3-2.5,3.3-3.9c0.1,0.2,0.1,0.2,0.2,0.3c0.4,1.7,0.9,3.4,1.3,5.1c0,0.1-0.1,0.4-0.2,0.4
			c-0.4,0.3-0.9,0.5-1.3,0.8c0.4,1.2-0.2,2-1,3c0.5,0.2,1,0.3,1.4,0.5c0,0.1,0.1,0.1,0.1,0.2c-0.9,0.4-1.7,0.9-2.6,1.2
			c-0.8,0.3-1.7,0.4-2.1,1.4c-0.1,0.2-0.2,0.4-0.3,0.6c0.3,0.1,0.6,0.3,0.9,0.3c0.9,0,1.8-0.1,2.7-0.2c0.4,0,0.8-0.1,1.2-0.2
			c0.6-0.1,1.3-0.8,1.9,0.1c0,0.1,0.2,0.1,0.3,0c0.9-0.1,1.7-0.2,2.8-0.3c-0.2-1.3-0.4-2.5-0.6-3.8c0.8-0.2,0.8-0.2,0.5-1.1
			c-0.1-0.2,0-0.5,0.1-0.8c0.1-0.3,0.2-0.6,0.3-0.9c0.3-1.1,0.3-1.1-0.9-1.2c0,0-0.1,0,0,0c1.4-0.8,2.8-1.5,4.3-2.3
			c0.2,0.6,0.3,1,0.4,1.5c-0.4,0.2-0.7,0.3-1,0.4c-1.2,0.5-1.9,1.9-1.3,2.8c0.7,1.1,1,2.2,0.1,3.4c-0.5,0.7-0.2,1.3,0.7,1.4
			c0.3,0.1,0.7,0.1,1.1,0.2c-0.5,1.2-1.2,2.1-2.1,2.9c-0.3,0.3-0.7,0.5-0.9,0.9c-0.4,1.1-1.2,2-2.1,2.8c-0.2,0.2-0.3,0.4-0.4,0.6
			c0.3,0.1,0.5,0.3,0.8,0.3c1.6,0,3.1,0,4.7-0.1c0.8,0,1.5-0.2,2.3-0.3c1.2-0.1,2-0.8,2.3-2.1c0.8,0.9,1.6,0.2,2.2,0.2
			c0-0.9,0-1.8,0-2.6c0-0.7-0.2-1.2-0.7-1.7c-0.3-0.3-0.6-0.6-0.5-1.1c0.1-0.4,0-0.8-0.3-1.1c-0.2-0.1-0.3-0.4-0.4-0.5
			c0.2-0.3,0.5-0.5,0.6-0.7c0.1-0.1,0.1-0.5-0.1-0.6c-0.5-0.5-0.6-1-0.4-1.6c0.2-0.6,0.4-1.2,0.6-1.8c0-0.1,0.3-0.2,0.4-0.2
			c0.1,0,0.3,0.1,0.5,0.2c0-0.3,0-0.4-0.1-0.6c-0.1-0.7-0.2-1.3-0.3-2c0.2-1,0.4-2.1,0.6-3.2c0.1-0.3,0-0.7-0.1-1
			c-0.7-1.8,0.3-3.6,1.6-5c-0.2-0.5-0.3-0.9-0.4-1.4c1.7-1.4,0.4-2.4-0.3-3.5c0.3,0.1,0.5,0.1,0.9,0.2c0.4-2.1,0.7-4.2,1-6.3
			c0.1-0.4-0.3-0.9-0.5-1.4c-0.1,0-0.1,0.1-0.2,0.1c0.7-4.4,1.5-8.8,2.2-13.2c0.3-0.1,0.6-0.1,0.9-0.2c-0.3-0.3-0.5-0.5-0.6-0.6
			c0.3-0.6,0.7-1.4,0.7-1.4c-1.2-0.9-0.1-1.4,0.3-2c-0.1-0.1-0.3-0.2-0.4-0.3c0.3-0.4,0.5-0.8,0.8-1.1l1.3-0.6
			c0.3-0.2,0.6-0.4,0.9-0.6c-0.3-0.2-0.5-0.2-0.7-0.3c0.1-0.5,0.3-0.9,0.4-1.2c-0.4-0.6-0.5-0.2-0.8-0.7c0-0.1,0-0.2,0-0.3
			c0.1-0.8,0-0.6-0.8-0.6c0,0,0,0,0,0c-0.1-0.3-0.2-0.7-0.2-1c1.2-7,2.4-14.1,3.6-21.1c0-0.3,0.2-0.6,0.3-0.8c0.1,0,0.2,0.1,0.3,0.1
			L68.4,28c0.1,0,0.2,0,0.3,0.1l2.5-14.6c0.1-0.1,0.5-0.3,0.5-0.5c0.1-0.8,0.4-1.3,1.1-1.6c0.1-0.1,0.2-0.4,0.2-0.6
			C73.1,9.4,73.8,7.9,72.5,6.7"/>
	</g>
</g>
</svg>
