<?xml version="1.0" encoding="utf-8"?>
<!-- Generator: Adobe Illustrator 27.9.0, SVG Export Plug-In . SVG Version: 6.00 Build 0)  -->
<svg version="1.1" id="Layer_1" xmlns="http://www.w3.org/2000/svg" xmlns:xlink="http://www.w3.org/1999/xlink" x="0px" y="0px"
	 viewBox="0 0 100 100" style="enable-background:new 0 0 100 100;" xml:space="preserve">
<path d="M46.1,99.4c-0.5,0-1.1,0-1.6-0.1c0,0-0.1-0.1-0.1-0.1c-0.8,0.1-1.6,0.2-2.4,0.3c-0.3,0-0.6-0.3-0.9-0.4
	c-0.1-0.1-0.1-0.2-0.2-0.3c-0.4-1.2-1-2-2.5-1.7c-0.8,0.2-1-0.3-1-1.1c0.1-1.6,1-2.7,1.9-3.9c0.4-0.6,0.7-1.1,0.1-1.8
	c0.3-0.1,0.5-0.2,0.6-0.3c0-1,0-1.9,0-2.9c0.2-4.5,0.6-9,2-13.3c0.7-2.2-0.2-3.9-0.9-5.7c-1.6-4.6-3.3-9.2-5-13.8
	c-0.2-0.6-0.4-1.2-0.7-1.7c-0.2-0.3-0.5-0.6-0.8-0.7c-1.3-0.5-1.5-1.6-0.8-2.7c0.8-1.3,1.5-2.7,2.2-4.1c0.7-1.3,1.2-2.6,1.9-3.9
	c0.1-0.1,0.2-0.2,0.2-0.4c0.7-3.4,3.4-5.8,4.6-8.9c0.1-0.3,0.3-0.6,0.3-0.9c0-0.8-0.1-1.7-0.2-2.5c0-0.2-0.1-0.4-0.3-0.8
	c-0.7,3.5-2.1,6.4-4.6,8.7c-2.4,2.2-5.1,3.5-8.4,3.3c-4.1-0.2-7.4-2.6-8.8-6.9c-1-3.1-1-6.1,0-9.2c0.5-1.5,0.9-3.2,2.3-4.3
	c0.2-0.2,0.4-0.4,0.7-0.6c-0.1-0.1-0.3-0.2-0.6-0.5c1-0.4,0.9-1.6,2-2c0.5-0.2,0.8-1.1,1.3-1.5c0.4-0.4,1-0.5,1.6,0.2
	c0.1-0.3,0.3-0.6,0.2-0.7c-0.4-0.5-0.1-0.7,0.3-0.8c1-0.3,2-0.8,3-0.8c3.3,0,6.2,0.8,8.2,3.7c0.7,1,0.8,1,2,0.4
	c1.4-0.8,2.4-0.7,3.6,0.5c0.6,0.6,1.3,0.9,2.1,1.1c0.7,0.1,1.5,0.3,2.2,0.5c0.7,0.2,1.4,0.4,2.2,0.7c0.2-0.6,0.1-0.9-0.4-1.4
	c-0.6-0.5-0.9-1.5-1-2.3c-0.2-1.3-0.1-2.6,0-3.8c0.2-1.7-0.5-3.2-2-4c-0.4-0.2-0.9-0.3-1.2-0.6c-0.3-0.3-0.4-0.7-0.6-1.1
	c-1.5,1-2.4-0.2-3.6-0.7c0,0-0.1-0.1-0.1-0.1c-1-0.3-1.6-1.2-2.2-2c-1,0.9-1,0.9-1.9,0.1c-0.2-0.2-0.5-0.2-0.8-0.3
	c-1.2-0.2-2.4-0.4-3.1-1.6c-0.1-0.2-0.7-0.1-1.4-0.1c-0.3-0.3-0.8-0.9-1.4-1.7c1.1,0,1.9,0,2.8,0c0.2,0,0.3,0.2,0.5,0.3
	c0.2,0.1,0.4,0.3,0.6,0.3c1-0.4,1.6,0.2,2.3,0.7c0.5,0.4,0.9,0.9,1.7,0.5c0.2-0.1,0.8,0.4,1.1,0.7c0.2,0.2,0.2,0.6,0.4,1
	c0.3-0.1,0.5-0.1,0.7-0.3c0.6-0.6,1.1-0.2,1.6,0c0.7,0.3,1.5,0.5,2.2,0.9c0.5,0.2,0.9,0.7,1.3,1c0.2,0.1,0.4,0.2,0.7,0.3
	c0.5,0,1.1,0,1.9,0c1.7-2.5,4.1-4.2,7.5-3c2.5,0.9,4.6,3.5,3.9,8c0.9,0.4,1.9,0.8,2.8,1.2c0.1,0.1,0.4,0.1,0.4,0.2
	c0.5,1,1.4,0.8,2.2,0.9c1.2,0.1,2.4,0.6,3.7,0.9c0.6-1.6,0-3-0.3-4.6c0.3-0.1,0.6-0.2,1-0.4c1,1.3,0.7,2.9,0.9,4.5
	c0.6-0.5,1.3-1.1,1.8-0.4c0.6,0.8,1.4,1,2.1,1.5c0.3,0.2,0.7,0.1,1.1,0.2c0.1,0.5,0.3,1.1,0.5,1.7c0.3-0.1,0.6-0.1,1-0.2
	c-0.1,0.6-0.1,1-0.2,1.6c0.7,0.3,1.5,0.6,1.3,1.7c-0.2,1-1.2,1.5-2.1,1c-0.5-0.3-0.9-0.4-1.3,0.3c-0.2,0.4-0.9,0.6-1.2,0.8
	c-0.3,0.6-0.6,1.2-0.8,1.8c-0.2,0.4-0.5,0.9-0.5,1.3c-0.3,5.4-0.7,10.8-0.9,16.1c0,1-0.8,1.4-1.4,1.6c-0.9,0.3-1.9,0.3-2.8-0.3
	c-1-0.7-1.3-1.5-1.1-2.7c1-6.1-0.8-11.5-4.4-16.3c0-0.1-0.1-0.1-0.2-0.2c0,0-0.1,0-0.3-0.1c-0.4,0.5-0.8,1.1-1.1,1.7
	c-0.1,0.1,0,0.4,0.1,0.6c0.7,1,0.7,2.1,0.5,3.3c-0.1,1-0.3,1.8-1.1,2.2c-0.4,0.2-0.9,0.3-1.4,0.4c-0.3,0.1-0.6,0.2-0.9,0.4
	c1.1,0.4,2.2,0.1,3.1-0.6c0.1,1.3-0.1,1.4-3.5,2.3c1.4,0.4,2.4,0,3.4-0.6c0.2,1-0.4,1.5-1.2,1.7c-0.7,0.2-1.4,0.4-2.2,0.5
	c0.4,0.6,0.4,0.6,2.7-0.1c-0.2,0.4-0.4,0.8-0.7,1.1c-0.3,0.4-0.5,0.6-0.3,1.2c0.2,0.5,0.1,1.2,0.1,1.7c0,0.5-0.2,0.8-0.8,0.8
	c-0.5,0-1.1,0.1-1.2,1.1c0.4-0.2,0.6-0.4,0.8-0.5c0.2-0.1,0.5,0,0.7-0.1c0,0.2,0,0.6-0.2,0.7c-0.4,0.3-0.9,0.7-1.4,0.8
	c-0.9,0.2-1.7,0.3-2.6,0.4c-0.9,0.1-1.4,0.4-1.5,1.2c-0.1,0.8,0.5,1.3,1.2,1c0.5-0.2,1.1-0.5,1.4-0.9c1.1-1.2,3.3-1.2,3.7,0.8
	c0,0.1,0.1,0.2,0.1,0.3c0.7,1.9,0.4,2.4-1.5,2.5c-0.2,0-0.4,0.1-0.6,0.1c0.1,1.2,0.3,2.4,0.4,3.8c-0.3-0.1-0.4-0.1-0.6-0.2
	c-0.8,1.9-0.3,3.8-0.2,5.6c0.1,2.7,0.2,5.3,0.7,8c0.4,2.1,1.2,4.2,2.1,6.3c0.6,1.5,0.7,2.2-0.5,3.3c-0.3,0.3-0.5,0.7-0.6,1.1
	c-1,4.7-1.1,9.5-1.4,14.2c0,0.3,0,0.7,0.2,1c0.4,0.6,0.8,1.2,0.2,1.9c3.7,0,5.4,0.5,6.6,2.1c-0.7,0.8-1.4,1.6-2.1,2.3
	c0.1,0.2,0.1,0.5,0.2,0.8c-0.4,0-0.8,0.2-1.1,0.1c-1.3-0.7-2.5-1.5-3.8-2.3c-1.2-0.7-2.6-1.2-4-1.2c-0.7,0-1.2-0.4-1.1-1.2
	c0.1-0.7,0.5-1.3,0.8-2c0.1-0.3,0.4-0.7,0.4-1c0.3-5.1,0.6-10.2,0.9-15.3c0-0.3,0-0.5-0.1-0.8c-0.4-1.4-0.4-2.6,1.4-3.4
	c-1.8-0.9-1.3-2.3-1.1-3.6c0.5-4.2,0.6-8.5-0.2-12.7c-0.2-0.8-0.4-1.3-1.5-1.4c-0.9,0-1.9-0.2-2.7-0.5c-0.8-0.2-1.1,0-1.4,0.6
	c-0.5,1-1,1.9-1.7,3.1c-0.4-1.1-0.8-2-1.1-3c-0.2-0.7-0.6-1-1.2-1.2c-0.2,0-0.5-0.2-0.7-0.2c-0.6,0-1.2,0.1-1.8,0.1
	c0.1,0.5,0.2,1.1,0.4,1.6c0.9,2.3,1.7,4.6,2.8,6.9c0.4,1,1.2,1.8,1.8,2.7c0.4,0.6,0.9,1.2,0.4,2.1c-0.1,0.2,0,0.7,0.2,1
	c0.2,0.4,0.7,0.8,0.7,1.2c0.1,0.6,0.1,1.5-0.2,1.8c-1.5,1.2-1.7,3-2.3,4.5c0,0.1,0,0.2,0,0.3c-0.8,1.4-0.4,2.8,0.1,4.2
	c1.1,3.1,2.1,6.2,3.2,9.3c0.2,0.5,0.7,0.9,1.1,1.2c0.7,0.4,1,0.9,1,1.6c0,0.7-0.5,1.2-1.2,1.4c-1,0.3-2,0.5-2.9-0.1
	c-0.3-0.2-0.6-0.8-0.5-1.1c0.6-1.3,0.1-2.5-0.4-3.7c-0.7-1.9-1.4-3.8-2.1-5.7c0-0.1-0.2-0.1-0.3-0.3c-0.4,1.7-0.8,3.3-1.1,4.9
	c-0.3,1.8-0.5,3.5-0.8,5.3c-0.1,0.7,0.1,1.1,0.7,1.4c1.7,1.1,3.1,2.5,3.9,4.4c0.3,0.7,0.7,1,1.3,1.4c0.6,0.4,1.1,1,1.6,1.6
	c0.1,0.1,0.1,0.6,0,0.7c-0.3,0.2-0.8,0.4-0.9,0.3c-0.8-0.6-1.7-0.4-2.6-0.4C46.8,99.6,46.5,99.5,46.1,99.4c-0.3-0.6-0.5-1.3-0.8-2
	c-0.2,0.1-0.3,0.2-0.5,0.3C45.3,98.3,45.7,98.8,46.1,99.4z M68.8,30.2c0.1,0,0.2,0,0.4,0c0.1-0.3,0.1-0.7,0.2-1
	c0.2-2.3,0.2-4.7,0.8-7c0.4-1.6,0.4-3.1-0.3-4.6c-1.5,0.3-2.8,1.4-4.6,1c0.1-0.5,0.2-0.9,0.3-1.2c0.9-0.1,1.6-0.3,2.4-0.4
	c0-0.1,0-0.2,0-0.3c-0.6-0.4-1.3-0.7-1.9-1.1c-0.5-0.3-0.9-0.6-1.3-1c-0.3-0.3-0.4-0.7-0.7-1.1c-0.6,1-1.2,0.6-1.8,0.4
	c-1-0.4-2-0.9-3-1.3c-0.8,1.6-1.6,3.2-2.3,4.7c0.3,0,0.6,0,0.9,0.1c0.1,0.7-0.1,1-0.8,1.1c-0.3,0-0.6,0.3-0.9,0.5
	c0,0.1,0.1,0.1,0.1,0.2c0.3,0,0.6,0.1,0.9,0.1c-0.1,0.7-0.4,1.1-1.1,1.1c-0.2,0-0.4,0.3-0.6,0.5c0.3,0.2,0.5,0.2,0.7,0.2
	c0.6-0.2,1.5,0,1.6-1.1c0-0.1,1-0.2,1.5-0.4c0.1,0.8,0.7,0.4,1,0.3c0.9-0.4,1.9-0.8,2.8-1.3c0.4-0.2,0.7-0.3,0.9,0.2
	c0.3,0.5,0.7,0.9,1.3,0.9c1,0.1,1.2,0.8,1.4,1.6C67.3,24.3,68,27.3,68.8,30.2z M42.5,35.4c-0.1,0.1-0.2,0.2-0.2,0.2
	c-0.9,1.6-0.2,3,0.4,4.4c0.2,0.5,0.6,0.9,0.8,1.5c0.4,1.5,1.6,1.9,2.8,2.4c0.1,0,0.3,0,0.3,0c0.6-0.5,1.1-1.1,1.9-1.8
	c-0.6-0.1-1-0.2-1.4-0.3c0.2-0.6,0.5-1.2,0.7-1.7c1,0.3,1.3,0.2,1.5-0.9c-0.3-0.1-0.6-0.1-0.9-0.2c0-0.3-0.1-0.6-0.1-0.9
	c-0.7,0.1-1.3,0.3-1.9,0.3c-0.5,0-1,0-1.4-0.2C43.7,37.5,42.9,36.6,42.5,35.4z M44.1,68c0.1,0,0.3,0,0.4,0c0.1-0.8,0.4-1.6,0.4-2.4
	c0-0.7-0.4-1.5-0.6-2.2c-1-3.4-2-6.8-3-10.1c-0.1-0.3-0.4-0.7-0.6-0.7c-0.8-0.1-1.5,1-1.2,1.8c0.7,1.9,1.3,3.8,1.9,5.6
	C42.3,62.7,43.2,65.3,44.1,68z M40.2,50.2c-0.8-2.3-1.5-4.4-2.2-6.5c0,0-0.1,0-0.1,0.1c-0.7,1.5-1.5,3.1-2.2,4.6
	c-0.1,0.1,0,0.4,0.1,0.5c0.3,0.4,0.6,0.7,0.9,1C37.8,50.1,38.9,50.1,40.2,50.2z M70.9,35.7c0.1,0,0.2,0,0.3,0
	c0.8-4.5,1.3-9,1.4-13.7c-0.9,0.7-1.4,1.4-1.5,2.5c0,3.4-0.2,6.7-0.2,10.1C70.9,35,70.9,35.4,70.9,35.7z M42.7,20.8
	c-0.1,0.1-0.2,0.1-0.3,0.2c0.1,2.1,0.3,4.3,0.4,6.3c0.3-1,0.7-2.2,1.1-3.3c0.1,0,0.1,0.1,0.2,0.1c-0.2,1.3,0.2,2.2,1.1,2.6
	c0.2,0.1,0.5,0,0.8,0c-0.1-0.3-0.1-0.6-0.2-0.8c-0.3-0.6-0.6-1.1-0.9-1.6c-0.2-0.4-0.3-0.9-0.5-1.3C44,22.2,43.3,21.5,42.7,20.8z
	 M56.1,47.6c-1.1-0.4-2.4-0.4-3.5-0.1c-0.5,0.1-0.9,0.5-0.7,1.1c0.2,0.6,0.6,1.2,0.8,1.7c0.6-0.3,1.2-0.6,1.8-0.9
	c0.2-0.1,0.3-0.5,0.5-0.7C55.4,48.4,55.7,48.1,56.1,47.6z M57.5,73.1c-0.1,0-0.3,0-0.4,0c-0.3,4.9-0.7,9.8-1,14.7
	c0.1,0,0.2,0,0.3,0.1c0.1-0.4,0.3-0.7,0.3-1.1c0.4-4,0.7-8,1-12.1C57.7,74.2,57.6,73.6,57.5,73.1z M46.1,46.9c-1.1-0.7-2.1-1-3.3-1
	c-1.3,0-1.4,0-0.9,1.3c0,0.1,0.1,0.1,0.1,0.1c0.5,0.1,0.8,0.4,1.2,0.7c0.2,0.1,0.6,0.3,0.7,0.2C44.6,47.9,45.3,47.4,46.1,46.9z
	 M41.8,88.6c0.6-4.2,1.2-8.5,1.9-13.1C42.6,77.5,41.7,85.5,41.8,88.6z M59.9,38c-0.6-0.7-1.1-1.3-1.6-1.8c-0.2,0.2-0.5,0.5-0.6,0.7
	c-0.1,0.5,0.8,1.6,1.1,1.5C59.1,38.4,59.4,38.2,59.9,38z M59.3,27.7c0.9,0.2,1.7,0.2,2.1-0.5c0.2-0.4,0-1,0-1.5
	c-0.1,0-0.2,0-0.3-0.1C60.5,26.3,60,27,59.3,27.7z M35.4,49.3c-0.6,0.4-1.1,0.7-1.5,1.1c-0.1,0.1,0.4,0.8,0.6,1.1
	c0.6-0.5,1-0.9,1.5-1.3C35.9,50,35.7,49.7,35.4,49.3z M47.5,36.9c0-0.1,0-0.2,0-0.3c-0.8-0.3-1.6-0.6-2.4-0.9
	c-0.1,0-0.5,0.2-0.5,0.3c-0.1,0.2,0.1,0.6,0.2,0.6C45.7,36.8,46.6,36.8,47.5,36.9z M49.1,31.1c-1.3-0.2-2.7-0.3-4-0.5
	C46.7,31.5,48.1,31.6,49.1,31.1z M57.1,43.4c-0.1,0.2-0.4,0.4-0.4,0.6c-0.1,0.5-0.3,0.8-0.8,0.9c-0.2,0-0.3,0.3-0.4,0.4
	c0.2,0.1,0.4,0.2,0.6,0.2C56.9,45.5,57.3,44.8,57.1,43.4z M46.1,28.8c0.6,0.7,2.7,0.8,4,0.3C48.7,29,47.4,28.9,46.1,28.8z
	 M61.8,28.9c0-0.1,0-0.1-0.1-0.2c-0.7,0-1.4,0-2,0c-0.2,0-0.3,0.3-0.4,0.4c0.2,0.1,0.3,0.3,0.5,0.3C60.4,29.2,61.1,29,61.8,28.9z
	 M54,25.6c0.6,0.4,1.1,0.7,1.6,1c0.1,0,0.1-0.1,0.2-0.1c-0.2-0.5-0.3-1-0.5-1.6C54.8,25.1,54.5,25.3,54,25.6z M39.3,52.7
	c0.1,0,0.2-0.1,0.3-0.1c-0.2-0.7-0.5-1.3-0.7-2C38.3,51.5,38.6,52.3,39.3,52.7z M57.6,39.4c-0.4-0.1-0.7-0.3-1.3-0.5
	c0.1,0.5,0.1,0.9,0.2,1C56.9,40.1,57.4,40.3,57.6,39.4z M44.2,32.9c0,0.5-0.2,0.9,0,1.1c0.3,0.5,0.8,0.4,1.3,0
	C45.1,33.6,44.8,33.3,44.2,32.9z M46.4,32.9c1.3,0.6,2.6,0.5,3.9,0.3C48.9,33.1,47.6,33,46.4,32.9z M41.8,97.4
	c-0.1,0.1-0.2,0.1-0.3,0.2c0.3,0.5,0.6,1,0.9,1.6c0.1-0.1,0.2-0.1,0.3-0.2C42.4,98.5,42.1,98,41.8,97.4z M48.5,27.4
	c0-0.1,0.1-0.1,0.1-0.2c-0.3-0.2-0.7-0.4-1-0.5c-0.1,0-0.3,0.2-0.4,0.3c0.1,0.1,0.2,0.3,0.3,0.3C47.8,27.4,48.2,27.4,48.5,27.4z"/>
</svg>
