<?xml version="1.0" encoding="utf-8"?>
<!-- Generator: Adobe Illustrator 27.9.0, SVG Export Plug-In . SVG Version: 6.00 Build 0)  -->
<svg version="1.1" id="Layer_1" xmlns="http://www.w3.org/2000/svg" xmlns:xlink="http://www.w3.org/1999/xlink" x="0px" y="0px"
	 viewBox="0 0 100 100" style="enable-background:new 0 0 100 100;" xml:space="preserve">
<path d="M80.7,28.8c-0.4-1.7-0.7-3.8-2.4-5.1C78,23.5,78,23,78,22.6c0-0.8,0.1-1.6,0.1-2.6c-1.7,2.7-3.3,5.2-4.8,7.5
	c0.3,0.7,1,1.8,0.7,2.3c-0.4,0.7-1.5,1.1-2.5,1.7c0.1,0.3,0.4,0.9,0.7,1.5c-1,1.3-2,2.5-2.8,3.4c-1.2-0.8-2.3-1.4-3.2-2.3
	C66,33.8,66,33,65.8,32.5c-1.4,0.3-1.5,0-0.9-1.9c-1,0-2,0-3.6,0c0.2-0.2,0.3-0.4,0.5-0.7c0.1-0.1,0.2-0.2,0.2-0.3
	c0.1-0.1,0.2-0.2,0.3-0.3c1.2,0.5,2.5,0,4.2-1.5c0.1-0.1,0.3-0.2,0.4-0.4c1.1-1.3,1.7-2.9,1.7-4.8c0.9,0,0.9-0.8,0.9-1.5
	c0-1,0-1.9,0-2.9c0-0.4-0.2-0.9-0.2-1.3c-0.1-0.8-0.3-1.6-0.2-2.4c0.3-2.9,0-5.8-0.4-8.8c-1,0.7-1.5,1.3-1.4,2.4
	c0.1,1.6,0.1,3.3,0.1,4.6c-1,0.1-1.8,0.1-2.6,0.1c-0.2,0-0.5,0.1-0.7,0c-3.2-0.4-4.9,1.7-6.5,3.8c-0.6,0.8-1.4,1.6-1.6,2.8
	c-0.2,0.8-1.4,1.4-2.2,2.2c0.3,0.1,0.5,0.2,0.7,0.3c0.5,0.1,1,0.3,1.3,0.6c-0.3,1-0.6,1.5-1.9,3.3c-0.4-0.8-0.6-1.4-0.9-1.9
	c-0.1-0.3-0.1-0.7-0.3-1c-1.1-1.8-2.2-3.6-3.4-5.4c-0.3-0.5-0.7-1.1-1.2-1.3c-1.1-0.4-1.5-1-1.5-2.1c0-1.7,1-2.6,2.6-2
	c1.3,0.5,2.4,0.5,3.6-0.3c2.6-1.7,5.4-1.5,8.3-0.9c1.3,0.3,2.6,0.5,3.9,0.7c0.4,0,0.8-0.4,1.2-0.6c-0.3-0.3-0.6-0.6-1-0.8
	c-0.4-0.2-0.8-0.3-1.2-0.4c-0.4-2.4-1.9-3.4-4.4-3.4c-1.1,0-2.3-0.5-3.4-0.9C52.5,4,48.4,2.8,44.3,1.5c-6.6-2-13.2-1.7-19.9-0.9
	c-2,0.3-4,0.7-6,1.5c1.3,0.1,2.6,0.5,3.9,0.3c2.4-0.4,4.1,1,6.1,1.7c1,0.3,2.3-0.2,3.5-0.5c7.4-1.7,14.2,0.5,21,3.1c0,0,0,0.1,0,0.4
	c-0.5,0-1-0.1-1.5,0c-2.9,0.6-5.7,1.1-8.5,1.8c-1.2,0.3-0.9,1-0.6,1.8c0.7,1.8,1.7,3.5,2,5.4c0.2,1.6-0.3,3.4-0.7,5.1
	c-0.3,1.2-1,2.2,0.1,3.3c0.1,0.1,0.2,0.2,0.2,0.3c-0.7,2.4-0.2,4.8-0.1,7.3c0.1,2-1.1,3.3-2,4.9c-1.1,2.1-3.3,4-2.5,6.7
	c0.6-0.4,1.2-0.9,1.8-1.4c0.8-0.7,1.6-0.5,1.6,0.4c0.1,0.9-0.6,2.6-0.8,2.5c-2-0.2-2.9,1.4-3.3,2.6c-0.6,2.1-0.7,4.5-0.9,6.7
	c-0.1,1.1,0,2.2,0,3.2c-0.3,0.1-0.6,0.3-0.9,0.4c0.5,0.3,1,0.6,1.5,0.9c1.8,1.2,1.5,2.8,1.4,4.6c-0.2,3.3-0.1,6.6-0.1,9.6
	c0.5-0.4,1.3-1,1.8-1.7c0.3-0.5,0.3-1.4,0.1-1.9c-0.7-1.7-0.2-2.8,1.2-2.9c0.9,2.8,1.9,5.4,2.5,8.1c0.2,0.7-0.8,2.2-1.6,2.6
	c-1.3,0.7-2.1,1.3-2.4,2.8c-0.7,3.1-2,6-4.8,7.9c0.2,0.1,0.4,0.1,0.6,0.2c-0.2,0.9-0.1,2-0.5,2.7c-0.5,0.7-1.6,1.1-2.7,1.9
	c0.9,0.3,1.4,0.4,1.7,0.5c-0.7,0.9-1.3,1.8-2,2.6c0.1,0.2,0.3,0.3,0.4,0.5c1.7,0,3.6,0.3,5.2-0.1c2.5-0.5,4.1,1.3,6.3,1.8
	c1,0.2,1.9,0.6,2.8,0.9c1.2-1.3,1.1-2.2-0.4-2.8c-1.3-0.5-2.5-1.2-3.8-1.6c-1.6-0.5-2.3-1.7-2.9-3c-0.2-0.5,0.2-1.8,0.6-1.9
	c1.5-0.5,1.8-1.4,1.6-2.8C43,86.5,43.4,86,43.7,85c0.5,1,0.7,1.6,0.9,2.1c0.5-2,1.1-4.1,1.6-6.1c0.4-1.3,1-2.1,2.5-0.8
	c-0.1-2,0.5-3,2.5-2.9c0.6,0,1.2-0.5,1.8-0.8c1.4-0.8,2.6-0.3,2.5,1.3c0,1.1-0.7,2.2-1,3.3c-0.4,1.4-1,2.9-1,4.3
	c0,3.4-0.4,6.6-2.8,9.3c1.2,0.1,2.3,0.1,3.4,0.2c-0.6,0.6-1.1,1.2-1.7,1.8c2.2-0.5,3.6,0.5,4.9,2.1c1.5,1.8,4.1,1.6,5.6-0.3
	c0.3-0.4,0.8-0.6,1.4-1c-2.2-1.1-4.2-2.2-6.5-3.4c1.5-0.9,1.6-1.9,0.7-3.2c-0.3-0.4,0-1.2,0-1.8c0.2-0.1,0.3-0.1,0.5-0.2
	c0.5,0.5,1,1,1.8,1.9c-0.4-2-0.8-3.5-0.9-5c-0.1-1.5,0.3-3,0.4-4.5c0.2,0,0.3,0,0.5-0.1c0.4,0.5,0.7,1.1,1.3,2c0-1.1,0-1.8,0-2.4
	c0-2.8,0.6-5.5,2.1-7.9c0.4-0.7,0.8-1.5,0.9-2.3c0.3-1.6-0.1-1.9-1.7-1.8c-1,0-2-0.6-1.5-1.8c0.5-1.4-0.2-2.1-1.1-3
	c-1.9-1.9-3.7-3.9-5.3-5.9c-1.1-1.4-1.2-3-0.5-4.8c0.5-1.1,0.6-2.5,0.7-3.7c0-0.4-0.3-0.8-0.5-1.3c-0.4,0.2-0.9,0.3-1.2,0.6
	c-0.6,0.6-1,1.7-1.9,0.8c-0.4-0.4-0.3-1.5-0.5-2.6c-0.3,0.2-0.9,0.5-1.5,0.9c-0.2-0.3-0.5-0.7-0.9-1.3c0.5-0.1,0.9-0.2,1.3-0.3
	c-0.3-0.6-0.6-1.3-1-2.1c0.7-0.3,1.4-0.5,2.4-0.9c-0.2,0.6-0.4,1.1-0.5,1.5c0,0.4,0.2,1.2,0.3,1.2c1.2,0.1,2.6,0.3,3.7-0.1
	c2.8-1,3.1-4,4.4-6.2c0.3-0.6,0.6-1.1,1.1-2c0.2,0.7,0.3,1.1,0.3,1.1c2.1,0.7,4,1.2,5.8,2.1c0.5,0.3,0.9,1.6,0.8,2.3
	c-1.3,5.5-1.4,11-0.8,16.6c0.2,2.1,0.5,4.3,0.8,6c1.1-0.7,2.5-1.5,3.8-2.5c3-2.4,4.9-5.7,6.3-9.1c0.8-2,1.6-4.1,2.2-6.2
	C82,41.7,82.2,35.2,80.7,28.8z M46.5,72.3c-1.3-2,1.1-3.5,0.8-5.3C49,70.4,48.9,70.7,46.5,72.3z M52,63.8c2.5,1.4,2.5,1.7-0.8,5.6
	C49.7,66.8,49.7,66.7,52,63.8z"/>
</svg>
