<?xml version="1.0" encoding="utf-8"?>
<!-- Generator: Adobe Illustrator 27.9.0, SVG Export Plug-In . SVG Version: 6.00 Build 0)  -->
<svg version="1.1" id="Layer_1" xmlns="http://www.w3.org/2000/svg" xmlns:xlink="http://www.w3.org/1999/xlink" x="0px" y="0px"
	 viewBox="0 0 100 100" style="enable-background:new 0 0 100 100;" xml:space="preserve">
<g>
	<path d="M98.3,10.6c0,0-1.7-2.7-2.1-3.1c-0.5-0.4-6.1-2.1-6.1-2.1l-2.7-3.9L80.6,2l-4.2,0.9l-5.3,2.8l-0.6,1l0.4,0.6L71,7.9L70.8,9
		l-1.1,4.8l2.6,11.9l-0.9,6.8l-0.5-0.9l-1.3-4.2l0.5,4.2l1,3.2l-0.4,7.8c-0.6-0.3-1.3-0.7-1.9-1c-1.5-0.8-3.1-1.4-4.6-2.2
		c-0.5-0.3-0.9-0.9-1-1.5c-0.3-1.6-0.2-3.3-0.7-4.9c-0.3-1-1.3-1.8-2-2.8c-1-0.9-1.7-1.9-2.4-2.8c0.2,0,0.4,0,0.7,0l0.3,0.7l0.2-0.8
		c0,0,0,0,0,0l0.6,1.5l0.4-1.1l0.3,0.2l0.2-0.3l0.2,0.2l0.8,1.1L61.7,27c1.2-0.2,2.2-0.5,2.4-1.5c0.5-1.8,0.5-5.3-1.2-5.5l-1.7-0.2
		c0,0,0.6-0.1,0.6-0.9c0-0.8-0.5-3.5-0.5-3.5l1.6-0.9c0,0,1.2-0.4,0.4-1.4c-0.8-0.9-0.9-4-6.2-6.7c-0.5-0.3-1.1-0.3-1.6-0.2
		c-0.6-0.8-1.3-1.6-2.2-2.5c-1-0.9-2.1-1.9-3.7-1.4c-0.3,0.1-0.7-0.3-1.1-0.5c-0.6-0.4-1.3-0.9-2-1.4v0.8C45.3,0.9,44.2,0.4,43,0
		c-0.1,0.1-0.1,0.3-0.2,0.4c0.2,0.3,0.3,0.6,0.6,0.9c-1.7-0.1-3.3-0.2-4.8-0.2C38.7,1.2,39,1.5,39.4,2c-0.6-0.1-1-0.2-1.4-0.2
		c0,0.1,0,0.1,0,0.2c0.5,0.3,1,0.5,1.7,0.9c-1.1,0.3-1.9,0.6-2.7,0.7c-1.8,0.2-3.6,0.4-4.9,1.8c-0.8,0.8-1.6,1.1-2.4-0.2
		c-0.1,0.4-0.1,0.9-0.2,1c-1.6,0.3-3.2,0.6-4.8,0.9c0.3,0.4,0.7,1,1.2,1.6C24,9,22.2,9.5,20.6,9.9c-0.7,1.5-1.3,3-2.1,4.7
		c-1.2,0.7-2.9,1.7-4.6,2.7c-1.3,0.9-2.4,2-2.3,3.7c0.1,1.1,0.2,2.2,0.4,3.3l-0.2,0.1l0.1,0.7l-2.4,1.3l2.4,0.6l-1.1,1.7l0.8,0.1
		l0.8,0.1c0,0,0,0,0,0l-1.5,1.1l0.8,0.1c-1.2,1.4-2.1,2.9-3.2,4.4c-0.2,0.2-0.6,0.2-1,0.4c0,1.8,0,3.6,0,5.4c0,0.2-0.2,0.5-0.3,0.6
		c-2.5,1.9-3.2,4.6-3.7,7.3l0,0l-1,0.8l-1,4.4l1.4,1c0,0.9,0.1,1.9,0.3,2.8l-0.3,0.4L3,61.4l0.6,1.8l1.9-0.5
		c0.1,0.1,0.1,0.2,0.2,0.3c0,0,0,0,0.1,0.1l0.9,5.6l1.7-1.1c2.1,2.6,4.5,3.1,7.3,3.7c2.3,0.5,3.2,0,3.9-2.2c0.1-0.5-2.1-1.9-2.3-3.3
		c0-0.3-0.1-0.7,0-1.1c0.5-0.5,0.7,0,1.1,0.3c0.2,0.2,0.5,0.4,0.7,0.5c2.2,0.2,1.6-3-1.9-5.7c1.6-3.5,2.5-7.1,2-11
		c-0.2-1.8,0.9-2.9,1.5-4c4,3.8,3.3,8.3,1.8,12.9c0.2-0.1,0.4-0.1,0.5-0.1c0.2,0.8,0.4,1.4,0.6,2.2c0.1-0.5,0.3-0.9,0.4-1.3
		c0.1,0.8-0.1,1.6-0.3,2.4l-0.6-0.1l0.4,1.1c-0.1,0.6-0.2,1.1-0.3,1.7L22,64.7l1.3,0.8c0,0.1,0,0.2,0,0.3l-1,1l1.2,1
		c0,0.4,0,0.8,0,1.2l-1.2,1.3l1,0.9c0.2,1.8,1.2,3.1,2.6,4.4c-0.3,1.3-0.3,2.8-0.9,4c-0.7,1.5-0.6,2.8-0.1,4.3
		c0.4,1.4,0.8,2.9,0.9,4.4c0,1-0.3,2.2-1,2.9L24.1,92c0,0,0,0,0,0S19,92.6,18,93.7c-1,1.1,1.5,4.9,2,5c1.1,0.3,4,1.2,4.3,1.2
		c0.3,0,11.1-2.7,12.3-4.3c0,0,0,0,0.1,0c0.5-1.1,1.1-2.1,1.2-3.1c0.1-0.8-0.2-1.6-0.5-2.4c-0.1-0.5-0.7-0.9-0.6-1.3
		c0-0.1,0-0.2,0-0.2l1.8-3.6l-1.2,0.3c0.1-0.8,0.3-1.6,0.4-2.3l1.2-1.9L38,77.3l1.7-2.7l-0.5-0.9c0.2-0.4,0.5-0.8,0.6-1.3l1-0.5
		l-0.7-0.5c0.1-0.6,0.2-1.3,0.2-1.9l0.5-1.1l-0.8-1.4c-0.1-1.2,0.1-1.8,1.3-2.4c1.8-0.9,1.7,0,1.4,1.7c-0.1,0.8-0.1,1.5,0,2.2
		l-0.8,0.6l1.1,0.3c0.4,1.1,1.2,2.1,2.1,3c0.3,0.2,0.5,0.5,0.7,0.7c-1.1,2-2.2,4-3.2,6c-0.4,0.8-0.4,1.8-0.2,2.7l-0.6,0.8l0.8,0.1
		l0,0c0.1,0.2,0.2,0.4,0.3,0.5l-1.1,0.8l1.9,0.1c0.9,0.8,1.3,1.7,0.7,2.8c-0.3,0.6-0.5,1.3-0.7,1.9c-0.4,1.3-0.8,2.6-1.3,4.2
		c-0.1,0.1-0.1,0.2-0.1,0.2c0.1,1.8,10.8,3.5,11.9,3.5c1,0.1,1.2,0.2,2.1,0c0.9-0.2,4.2-1.8,4.4-3.1c0.1-0.8-1.6-1.4-2.9-1.7
		c-0.9-0.6-1.8-1.3-2.7-2c-0.6-0.5-1.2-1.2-1.4-1.9c-0.3-1.6-0.9-3.3-0.3-5c0.9-2.5,1.5-5.1,2.3-7.6c0.2-0.5,0.4-1,0.5-1.5
		c0.2-0.8,0.1-1.9,0.5-2.5c1.3-1.6,1.3-3.4,1.2-5.1l0,0l1.2-2.1l-1.3,1c0-0.5-0.1-1-0.1-1.5c0-0.3,0-0.5,0-0.8l0.7-1.4l-0.9-0.3
		c-0.1-0.5-0.3-1.1-0.4-1.6l0.6-0.9l-0.9,0c-0.1-0.2-0.2-0.5-0.3-0.7l1.7-1.1l-2,0.5c0-0.1-0.1-0.2-0.1-0.3l0.4-1.4l-1.1-0.5l0,0
		c-0.1-0.1-0.1-0.3-0.2-0.4c-0.4-1.1,0.1-1.1,0.8-1.1C56.1,53.2,56,52.6,56,52c0.2-0.1,0.3-0.2,0.5-0.3c0.8,0.8,1.5,1.7,2.3,2.5
		c0.6,0.6,1.2,1.3,2,1.7l4.7,2.1l1.9,0.8l-1.2,4.6l0,0.3h-0.8v3.5l0.6,0.3l-0.6,2.3l1.1-0.7l0,0.7l1.5-0.2l0.4,1L69,70l0.6-0.6v1.9
		l1.2-1.3v-0.7l0.3,0l0.7-2.4l0.7-0.4l0.2-1.6l-0.4,0l0.6-2.2c0.1,0,0.1,0,0.2,0c3.3,0.3,4-1.3,4-1.3s0.3,0.4,1.3-1.3
		c0.7-1.2,1.3-2.3,1.9-3.5L81,56l1.1-1.6l0-1.6c0.1-0.2,0.2-0.5,0.2-0.8c0.3-0.2,0.8-0.6,0.9-1.1c0.1-0.5-2.5-2.3-3.4-2.9
		c-0.4-0.9-1.3-1.9-2.2-2.7l0.7-2.7l1.4-1.7l2.1-1l1.8-2.5l-2.2,1.8l-0.5,0.1l6.5-8l5.6-8.3l2.3-2l3.5-3.4L98.3,10.6z"/>
</g>
</svg>
