<?xml version="1.0" encoding="utf-8"?>
<!-- Generator: Adobe Illustrator 27.9.0, SVG Export Plug-In . SVG Version: 6.00 Build 0)  -->
<svg version="1.1" id="Layer_1" xmlns="http://www.w3.org/2000/svg" xmlns:xlink="http://www.w3.org/1999/xlink" x="0px" y="0px"
	 viewBox="0 0 100 100" style="enable-background:new 0 0 100 100;" xml:space="preserve">
<style type="text/css">
	.{stroke:#1D1D1C;stroke-width:1.3339;stroke-miterlimit:10;}
</style>
<g>
	<path class="" d="M5,97.8"/>
	<path class="" d="M55.3,97.8"/>
	<path d="M31.1,67.1c-1.1,0.1-1.9,6.8-2,7.6c-1.5,7.7,4.4,21.5,4,23.7c-0.1,0.8-0.7,0.4-0.9-0.3c-3.2-6.7-6.9-14-8.5-18.4
		c-1.1-2.9-2.9-10-1.3-10.7C25.3,67.9,28.9,67.2,31.1,67.1z"/>
	<path d="M59.1,68c-4.5,11.3-2.8,30.9-2.8,31.3c0,0.9-0.9,0.9-1.2-0.8c-0.4-2.1-2.8-20.8-3.9-24.7c-3.5-12.1-25.9-8-31.7-4.4
		C8.6,76,9.1,95.5,8.3,99.6c-0.1,0.5-0.5,0.4-0.7,0C7,97.6,5.5,79,6.7,66.4c0.5-7.5,5.2-19.7,16.9-23.6c4.5-1.5,13.5-1.3,18.1-0.1
		c1.7,0.4,9.7-1.3,9.7-1.3c0.8,4,1.1,4,4.8,10c2.3,3.5,5.6,9.5,4,13.3L59.1,68z"/>
	<path d="M67.7,25.5c0,0,0.4-2.8,3.9-3.3c2-0.3,5.2-0.9,5.2-0.9c0,0.1-1.5,4.5-3.3,5.6c-1.7,1.1-5.2-0.7-5.1,0.9
		c0.1,1.1,1.6,4.5,0.4,5.5c-0.9,0.8-3.5,2.3-3.5,2.3c-0.9-2.9-4.3-1.9-4.4,0.4c-1.3-0.3-3.2-1.9-3.9-2.7c-1.2-1.3,0.4-3.6,0.1-5.2
		c-0.3-1.5-2.5,0.4-3.9,0.3c-2.8-0.3-4.7-2.7-5.5-5.5c3.9-0.8,7.9,0.5,10,3.6C61,22.3,65.8,23.5,67.7,25.5z"/>
	<path d="M61.1,36.7c0.3-2.3,1.6-2.7,2.7-2.3c0.7,0.3,1.1,1.2,1.2,2l3.3-2.3c0.5,3.6,3.7,8.7,3.7,12.4c0,1.5-1.3,6-3.2,9.2
		c-0.9,1.7-2.3,4.4-8.1,8.8c3.3-4.4-5.6-16.4-5.6-16.4c-1.7-2.5-3.3-7.2-2.7-8.1c4.1-5.6,3.3-7.5,3.9-6.7
		C57.5,35.3,61.1,36.7,61.1,36.7z"/>
	<path d="M66.7,23.9c0.3,0.3-0.3-5.3,3.3-5.3c2.3,0,7.2,1.6,9.1,0.9c5.9-1.9,10.7-5.3,15.9-8.4c-4.4-0.1-8.1,4.3-12.5,5.5
		c-2.1,0.5-3.9,1.9-2.5-2.4c0.7-2,2.1-3.2,4.8-3.9c-4.4-1.3-7.5,4.5-8.4,6.7c-0.5,1.2-7.6-0.8-9.3-0.4c-0.1-3.9,8.1-5.5,10-8.8
		c-0.4,0.8-8.1,4-7.9,2.5C69.9,6.4,73,2.1,76.3,0c-5.1,2.1-7.2,5.7-9.2,10.4c-1.2,2.7-2.4,6.9-2.4,9.7c0,2.1-0.1,2.9-0.1,2.9
		C65.1,23.2,65.8,22.9,66.7,23.9z"/>
	<path d="M58.2,24.7c-0.3,0.3,0.1-5.9-3.3-5.9c-2.3,0-7.2,1.6-9.1,0.9c-5.9-1.9-10.7-5.3-15.9-8.4c4.4-0.1,8.1,4.3,12.5,5.5
		c2.1,0.5,3.9,1.9,2.5-2.4c-0.7-2-2.1-3.2-4.8-3.9c4.4-1.3,7.5,4.5,8.4,6.7c0.5,1.2,7.6-0.8,9.3-0.4c0.1-3.9-8.1-5.5-10-8.8
		c0.4,0.8,8.1,4,7.9,2.5C55,6.7,51.9,2.4,48.6,0.3c5.1,2.1,7.2,5.7,9.2,10.4c1.2,2.7,2.4,6.9,2.4,9.7c0,2.1,0.1,2.9,0.1,2.9
		C59.8,23.3,59.1,23.7,58.2,24.7z"/>
	<path d="M69.1,56.8c-9.2,23.7-8.3,38.6-8,40.8c0.1,1.2-1.1,2.1-1.2-0.3c-0.7-3.2-0.1-31.1,1.2-32.1c1.3-1.1,2.7-2,3.6-3.1
		C68.6,58.4,69.1,56.8,69.1,56.8z"/>
</g>
</svg>
