<?xml version="1.0" encoding="utf-8"?>
<!-- Generator: Adobe Illustrator 27.9.0, SVG Export Plug-In . SVG Version: 6.00 Build 0)  -->
<svg version="1.1" id="Layer_1" xmlns="http://www.w3.org/2000/svg" xmlns:xlink="http://www.w3.org/1999/xlink" x="0px" y="0px"
	 viewBox="0 0 100 100" style="enable-background:new 0 0 100 100;" xml:space="preserve">
<g id="_x37_HD6mm_00000150808080392607977160000004397382485190578609_">
	<g>
		<path d="M69.6,95.8c-0.8-0.1-1.7-0.2-2.5-0.4c-1.7-0.5-3.3-1-5-1.5c-0.6-0.2-1.1-0.5-1.4-1c-0.2-0.4-0.6-0.3-0.9-0.2
			c-1.1,0.2-2.2,0.5-3.3,0.6c-2.4,0.1-4.3-0.8-5.7-2.7c-0.8-1-0.6-2.2,0-3.3c0.1-0.2,0.3-0.5,0.2-0.7c-0.1-1,0-2.1-0.5-3.1
			c-0.3-0.7-0.6-1.5-0.7-2.2c-0.1-1.5,0.7-2.6,1.7-3.6c2-1.8,4.4-2.6,7-2.3c0.8,0.1,1.6,0.3,2.4,0.6c2.7,1.1,5,2.7,6.5,5.3
			c0.2,0.4,0.5,0.6,1,0.5c0.3,0,0.6,0,0.8,0.1c0.4,0.2,0.8,0.3,1.3,0.2c0.2-0.1,0.5,0,0.8,0c0.4,0,0.8,0,1.2,0c0.3,0,0.7,0,1,0.1
			c0.2,0,0.5,0.1,0.6,0c0.9-0.4,1.7-0.2,2.6-0.1c0.5,0,0.5,0.5,0.7,0.9c0.1,0.3,0.1,0.6-0.2,0.9c-0.1-0.1-0.3-0.3-0.4-0.3
			c-0.2-0.1-0.5-0.2-0.5,0.2c-0.1,0.4-0.3,0.5-0.6,0.5c-0.3,0-0.5,0.2-0.7,0.5c-0.3,0.5-0.8,0.7-1.4,0.7c-0.8,0-1.4,0.2-1.9,0.9
			c-0.2,0.3-0.7,0.6-1,0.7c-0.2,0.1-0.5-0.1-0.8-0.1c-0.3-0.1-0.6-0.3-0.9-0.4c-0.6-0.1-1,0.2-1.1,0.8c-0.1,0.8-0.3,0.8-1.1,0.5
			c-0.2-0.1-0.5-0.2-0.7-0.2c-0.3,0-0.5,0.2-0.3,0.6c0.2,0.4,0.2,0.9,0.2,1.4c0,0.6,0.4,1.4,1,1.6c0.3,0.1,0.6,0.2,1,0.2
			c0.2,1.1,1.1,1,1.8,0.6c0.2-0.1,0.4-0.3,0.5-0.3c0.2-0.1,0.4,0,0.6,0.2c0.4,0.5,0.8,1,1.2,1.4c0.2,0.1,0.6,0.1,0.8,0
			c0.3-0.1,0.7-0.3,1-0.4c0.4-0.1,0.8-0.2,1.2,0.2c0.3,0.3,0.9,0.3,1.3,0c0.3-0.2,0.5-0.3,0.8-0.1c0.6,0.3,1.2,0,1.5-0.6
			c0.4,0.2,0.5,0.6,0.2,1.1c-0.2,0.4-0.5,0.7-0.9,0.9c-1.2,0.9-2.6,1.2-4,1.5c-0.3,0.1-0.7,0.1-1,0.2C71.9,95.8,70.8,95.8,69.6,95.8
			z"/>
		<path d="M100,79.5c-0.4,0-0.8,0-1.2-0.1c-0.9-0.2-1.6-0.7-2.3-1.3c-1-0.9-2.2-1.6-3.2-2.3c-2.1-1.4-4.4-2.3-6.8-2.8
			c-1.9-0.4-3.7-0.9-5.5-1.6c-0.2-0.1-0.3-0.1-0.5-0.2c-0.6-0.3-1-0.8-0.9-1.6c0-0.4,0.1-0.8,0.1-1.2c-0.1-0.9-0.5-1.6-1.3-2.1
			c-1.2-0.9-2.4-1.9-3.6-2.9C74,63,74,62.7,74.8,62.4c0.7-0.3,1.5-0.5,2.2-0.5c3.3-0.3,6.5,0.2,9.6,1.5c2.8,1.2,5.6,2.6,7.9,4.7
			c0.8,0.7,1.7,1.4,2.5,2.1c0.4,0.4,0.6,1,0.8,1.6c0.1,0.1,0,0.5-0.1,0.6c-0.1,0.1-0.4,0-0.5,0c-0.2-0.1-0.3-0.3-0.4-0.4
			c-0.2-0.3-0.5-0.6-0.7-0.8c-0.3-0.3-0.8-0.5-1.3-0.5c-0.1,0-0.4,0-0.4,0c-0.3-0.6-1-0.3-1.3-0.7c-0.1-0.1-0.3-0.1-0.4-0.1
			c-0.4,0-0.7,0-1.1,0c-0.1,0.2-0.2,0.5-0.3,0.8c0,0.1,0.2,0.4,0.3,0.4c0.4,0.1,0.8,0.2,0.9,0.6c0,0.1,0.2,0.1,0.3,0.1
			c0.4,0,0.6,0.2,0.7,0.5c0.3,1,0.4,1.1,1.4,1.1c0.4,0,0.5,0.3,0.5,0.6c0.1,0.7,0.3,1.4,1.1,1.8c0.1,0.1,0.3,0.1,0.4,0.2
			c0.5,0.1,0.9,0.3,1,1c0.1,0.4,0.3,0.7,0.8,0.8c0.3,0,0.6,0.2,0.4,0.6c0,0.1,0,0.3,0.1,0.3c0.3,0.2,0.6,0.4,0.9,0.6
			C100,79.2,100,79.4,100,79.5z"/>
		<path d="M55.7,4.2c0.6,0,1.1,0.1,1.7,0.1c1.2,0,2.3,0.1,3.4,0.6c0.6,0.3,1.2,0.3,1.8-0.1c0.1-0.1,0.3-0.2,0.5-0.2
			c0.4-0.1,0.6,0.1,0.6,0.5c0,0.4-0.2,0.8-0.2,1.2c-0.1,0.6-0.1,1.2-0.1,1.8c0,0.4-0.2,0.5-0.4,0.5c-0.4,0-0.8-0.1-1.2-0.2
			c-0.3-0.1-0.6-0.2-0.9,0c-0.8,0.8-1.9,1-2.9,1.2c-2.8,0.7-5.3,0.2-7.7-1.5c-1.2-0.8-1.1-2,0.1-2.7c0.9-0.6,1.9-0.9,2.9-1
			c0.1,0,0.3-0.1,0.4-0.1C54.4,4.2,55,4.2,55.7,4.2z"/>
		<path d="M67,4.2c1.8,0.9,2.1,2.6,2.2,4.4c0,0.3-0.2,0.5-0.3,0.8c-0.2,0.5-0.5,1.1-0.6,1.6c-0.1,0.4,0.1,0.8,0.2,1.2
			c0.1,0.4,0.3,0.7,0.5,1.1c0.1,0.2,0.3,0.3,0.5,0.4c0.7,0.3,1.5,0.2,2.3-0.1c-0.9,1-2.1,1.1-3.1,0.5c-0.9-0.6-1.6-1.3-2.1-2.2
			c-0.3-0.6-0.9-1-1.4-1.5c-0.7-0.8-1.4-1.6-1.6-2.7c-0.2-1,0.1-1.9,0.5-2.8c0.1-0.2,0.4-0.4,0.6-0.5C65.5,4.2,66.2,4.2,67,4.2z"/>
		<path d="M1.4,76.6c-0.1-0.1-0.4,0-0.5,0.1c-0.3,0.2-0.6,0.3-0.6,0.7c-0.1,0,0,0-0.1,0C0,77.1,0,76.8,0,76.5
			c1.1-1.5,2.9-2.1,4.7-1.3c0.2,0.1,0.3,0.2,0.4,0.3c-0.1,0.1-0.2,0.3-0.4,0.4c-0.8,0.4-1.5,0.7-2.3,1l-0.8,0.2
			C1.7,77.1,1.6,76.8,1.4,76.6z"/>
		<path d="M39.7,13.2c0,0.2,0,0.4,0,0.5c0.1,0.6,0.3,0.8,0.8,0.8c0.4,0,0.8-0.1,1.2-0.1c0.6,0,0.9,0.2,0.9,0.8
			c0.1,1.7-0.9,2.8-2,3.8c-1.3,1.2-2.9,1.5-4.6,1.8c-1,0.1-2,0.2-3,0.3c-0.8,0.1-0.9-0.1-1-0.9c0-0.1,0-0.1-0.1-0.2
			c-0.1,0.3-0.2,0.6-0.2,0.9c-0.1,0.5,0.1,0.7,0.7,0.7c1-0.1,2-0.2,3.1-0.3c0.4,0,0.5,0.1,0.6,0.5c0.2,1.6,0.1,3-1.2,4.1
			c-1,0.8-1.9,1.6-3.2,1.8c-0.7,0.1-1.4,0.5-2.2,0.7c-0.6,0.2-1.3,0.2-1.9,0.3c-0.5,0.1-0.7-0.2-0.8-0.6c-0.1-0.9,0-1.8,0.4-2.6
			c1-2.2,2.3-4.2,4.1-5.8c0.2-0.2,0.3-0.4,0.5-0.5c0.1-0.1,0.4-0.1,0.6,0c0.9-2.2,2.7-3.8,4.5-5.4c0.4-0.4,0.7-0.8,1-1.2
			c0.2-0.2,0.4-0.5,0.7-0.7c0.7-0.5,1.2-0.3,1.3,0.6c1-1.8,2.7-3,4.2-4.3c0.7-0.7,1.7-1,2.6-1.5c0.7-0.3,1.3-0.6,1.8-1.2
			c0.1-0.1,0.2-0.2,0.3-0.2c0.4-0.3,0.8-0.1,0.8,0.4c0,0.5-0.1,0.9-0.2,1.4c0,0.2-0.2,0.4-0.2,0.6c-0.1,0.4-0.1,0.7,0.3,0.9
			c0.5,0.2,0.7,0.6,0.5,1.1c-0.7,2.3-2.2,3.9-4.6,4.4c-0.9,0.2-1.9,0-2.8,0.1c-0.5,0-1,0-1.5,0.1C40.2,14.1,39.9,13.9,39.7,13.2z"/>
		<path d="M43.6,60.7c-0.2,0-0.3,0-0.5,0c-2.3,0.4-4.2,1.6-5.8,3.4c-0.8,0.9-1.5,1.7-1.8,2.9c-0.1,0.5-0.1,1-0.2,1.5
			c-0.7-0.4-1.4-0.7-2-1.1c-0.3-0.2-0.2-0.5,0-0.7C34.4,66,35,65,35.6,64c0.4-0.7,1-1.3,1.8-1.7c1.2-0.7,2.4-1.5,3.7-2.2
			c0.5-0.3,1.1-0.4,1.6-0.5c0.2,0,0.4,0.1,0.5,0.2c0.3,0.2,0.6,0.3,0.8,0.5c0.1,0.1,0.2,0.3,0.3,0.4c0,0.1,0.1,0.1,0.2,0.1
			c0.2,0.1,0.5,0.1,0.6,0.3c1.2,1,2.7,1.3,4.1,1.7c1.5,0.4,3.1,0.8,4.6,1.2c1.1,0.3,2.2,0.8,2.7,1.9c0.1,0.1,0.1,0.3,0.1,0.5
			c0,0.3-0.1,0.5-0.5,0.5c-0.1,0-0.3,0-0.4-0.1c-1.3-0.4-2.5-0.1-3.4,0.8c-0.2,0.2-0.3,0.5-0.4,0.7C51.4,69.7,51,70,49.6,70
			c-1.3,0-2.6,0-3.9,0.1c-0.3,0-0.7,0.1-1,0.2c-1.3,0.6-2.6,0.6-3.9,0.4c-1-0.2-2-0.4-3-0.6c-1.4-0.3-2.2-1.2-2.1-2.4
			c0.1-0.5,0.3-1.1,0.6-1.6C38.2,63,40.4,61.4,43.6,60.7z"/>
		<path d="M19.7,44.6c0.1,0.1,0.2,0.2,0.3,0.3c0.3,0.5,0.7,0.7,1.2,0.7c1.4,0,2.9,0.1,4.3-0.4c1.8-0.6,3.6-1.2,5.2-2.3
			c0.1-0.1,0.3-0.2,0.4-0.3c0.3-0.3,0.6-0.2,0.8,0.2c0,0,0,0,0,0c-0.1,1.1,0.3,2.1,0.7,3.2c0.3,0.7,0,1.3-0.4,1.8
			c-0.8,0.9-1.7,1.6-2.8,2c-1.8,0.7-3.6,1.4-5.3,2.1c-0.6,0.2-1.1,0.5-1.6,0.8c-1,0.5-2.1,0.3-2.6-1c-0.7-2-0.9-4.1-0.4-6.2
			c0.1-0.3,0.1-0.6,0.1-1C19.6,44.6,19.7,44.6,19.7,44.6z"/>
		<path d="M22.4,45.3c-0.5,0-0.9,0-1.4-0.1c-0.8-0.2-1.2-0.7-1.1-1.6c0.1-1,0.3-2,0.5-3c0.4-1.3,0.8-2.6,1.3-3.9
			c0.1-0.3,0.3-0.6,0.5-0.9c0.2-0.3,0.5-0.3,0.6,0c0.5,1.2,1.5,1,2.4,0.9c0.7-0.1,1.4-0.4,2.1-0.6c1.3-0.5,1.8-0.3,2.3,0.9
			c0.2,0.4,0.3,0.9,0.3,1.3c0,1.2,0.6,2.3,1,3.4c0.2,0.5,0.1,0.7-0.3,0.9c-1.3,0.9-2.8,1.5-4.2,2C25.2,45,23.9,45.4,22.4,45.3z"/>
		<path d="M20,53c1.1,0.7,2,0.3,3-0.1c2.1-0.8,4.2-1.6,6.3-2.4c1.6-0.6,2.9-1.4,3.6-3c0.1-0.3,0.4-0.2,0.5,0
			c0.2,0.2,0.3,0.5,0.4,0.8c0.4,1,0.8,2.1,1.3,3.1c0.3,0.8,0.2,1.1-0.6,1.3c-1.4,0.4-2.8,0.8-4.1,1.4c-1.4,0.7-2.8,1.5-4,2.6
			c-0.8,0.7-1.5,1.4-2.3,2.1c-0.2,0.2-0.3,0.4-0.5,0.6c-0.4,0.6-0.7,0.7-1.2,0.1c-0.2-0.3-0.5-0.6-0.6-0.9c-0.8-1.5-1.6-3.1-1.7-4.8
			C20,53.6,20,53.3,20,53z"/>
		<path d="M35,56.9c-0.7,0.4-1.5,0.7-2.1,1.1c-1.4,1-2.7,2.2-4,3.3c-0.4,0.3-0.6,0.9-0.8,1.4c-0.2,0.3-0.3,0.7-0.5,1.1
			c-0.3,0.4-0.7,0.4-1.1,0.1c-0.3-0.3-0.6-0.5-0.9-0.8c-0.5-0.4-1.1-0.6-1.8-0.3c-0.6,0.3-0.9,0-0.9-0.7c0-0.4-0.1-0.8-0.2-1.3
			c0-0.2,0-0.4-0.1-0.6c0.2,0,0.5,0,0.6,0c0.3-0.2,0.7-0.3,0.9-0.6c1.5-2.2,3.5-3.7,5.9-4.9c1.6-0.8,3.2-1.4,4.9-1.7
			c0.1,0,0.2,0,0.3-0.1c0.4-0.5,0.7-0.2,1,0.1c0.4,0.4,0.7,0.9,1,1.3c0.4,0.5,0.7,1.1,1,1.6c0.1,0.1,0.1,0.3,0.1,0.4
			c-0.2,0-0.4,0.1-0.5,0.1C36.8,56.2,35.9,56.5,35,56.9L35,56.9z"/>
		<path d="M45.5,78.7c1.2,0,1.7,0.4,2.1,1.4c0.1,0.3,0.2,0.6,0.3,0.9c0.2,0.7,0.5,1.2,1.1,1.5c1.1,0.5,1.4,1.5,1.6,2.6
			c0.1,0.5,0.1,1,0,1.4c0,0.3-0.2,0.6-0.3,0.8c-0.4,0.8-0.5,1.6-0.2,2.5c0.2,0.5,0.1,0.7-0.4,0.6c-1-0.1-1.9-0.4-2.6-0.9
			c-2.2-1.5-3.4-3.6-3.6-6.3c0-0.7-0.1-1.5-0.2-2.2c0-0.4,0.1-0.8,0.5-1.1c0.1-0.1,0.3-0.2,0.3-0.4C44.4,78.9,45,78.7,45.5,78.7z"/>
		<path d="M75.5,69.6c-1.5,0.1-2.8-0.3-4.1-1c-0.6-0.3-1.1-0.6-1.7-0.9c-0.8-0.4-0.9-0.8-0.6-1.6c0.4-1,0.4-1.9-0.4-2.7
			c-0.5-0.6-0.5-0.9,0.3-1c1.3-0.2,2.6-0.3,3.9-0.4c0.2,0,0.5,0.1,0.7,0.2c0.3,0.1,0.4,0.2,0.3,0.5c-0.1,0.1,0,0.4,0.1,0.5
			c1.2,1.3,2.5,2.6,4,3.5c0.9,0.5,1.1,1.4,0.3,2.2c-0.5,0.5-1.2,0.6-1.9,0.7C76,69.6,75.7,69.6,75.5,69.6z"/>
		<path d="M24.6,36.1c-1.2,0.2-1.4-0.4-1.3-1.3c0.1-1.7,0.6-3.4,1.3-5c0.2-0.4,0.3-0.8,0.5-1.2c0.1-0.2,0.1-0.4,0.3-0.5
			c0.2-0.2,0.5-0.4,0.7-0.4c0.2,0.1,0.5,0.4,0.5,0.6c0.1,0.6,0.4,0.8,0.9,0.7c0.9-0.1,1.8-0.3,2.6-0.4c0.6-0.1,0.9,0,1.1,0.5
			c0.3,0.9,0.4,1.9,0,2.8c-0.8,1.5-1.8,2.7-3.3,3.5c-0.8,0.5-1.8,0.5-2.8,0.7C24.9,36.1,24.7,36.1,24.6,36.1z"/>
		<path d="M40.7,76.7c-0.8-0.3-1.6-0.5-2.3-0.8c-0.9-0.3-1.9-0.7-2.8-1c-0.7-0.2-1.4-0.1-2.1-0.2c-0.3,0-0.7-0.2-1-0.4
			c-0.3-0.2-0.4-0.6-0.3-1.1c0.1-0.3,0.1-0.7,0-1.1c-0.3-0.9-0.8-1.8-1.6-2.4c-0.2-0.1-0.4-0.6-0.4-0.6c0.2-0.2,0.5-0.5,0.8-0.5
			c0.4,0,0.8,0.2,1.2,0.3c3.4,1.2,6.3,3.1,9,5.4c0.3,0.2,0.5,0.5,0.7,0.8c0.4,0.7,0.2,1.1-0.6,1.3c-0.2,0-0.4,0.1-0.6,0.1
			C40.8,76.6,40.7,76.7,40.7,76.7z"/>
		<path d="M29.6,67c0.3,0.5,0.7,0.9,1,1.4c-1.2,0.6-1.8,1.5-2.4,2.5c-0.3,0.5-0.6,0.7-1.3,0.4c-0.3-0.2-0.7-0.3-1-0.6
			c-1.2-1.1-2.4-2.2-3.6-3.3c-0.5-0.5-0.4-0.6-0.1-1.2c0.5-0.8,0.9-1.7,0.4-2.7c-0.2-0.3,0.1-0.5,0.3-0.5c0.9,0.1,1.9-0.1,2.7,0.6
			c0.5,0.4,1.1,0.8,1.6,1.1c0.1,0.1,0.3,0.2,0.4,0.3C28.3,65.6,28.9,66.3,29.6,67z"/>
		<path d="M35,56.9c0.2,0,0.4,0,0.5-0.1c1.8-0.6,3.4-0.2,4.9,1c0.1,0.1,0.1,0.2,0.3,0.4c-1.3-0.2-2.2,0.5-3.1,1
			c-0.9,0.6-1.9,1-2.9,1.6c-1.1,0.6-1.8,1.5-2.6,2.5c-0.4,0.5-0.9,1-1.4,1.5c-0.2,0.2-0.5,0.4-0.3,0.8c0,0-0.2,0.3-0.3,0.2
			c-0.8-0.3-1.6-0.7-2-1.5c-0.1-0.3-0.2-0.7-0.1-0.9c0.3-0.7,0.7-1.4,1.2-2c1-1,2-1.9,3.1-2.8c0.8-0.6,1.6-1.1,2.4-1.6
			C34.9,57,34.9,56.9,35,56.9C35,56.9,35,56.9,35,56.9z"/>
		<path d="M61.1,66.9c0-1,0.5-1.7,1.4-2.3c1.3-0.9,2.8-1.4,4.4-1.6c0.9-0.1,2,0.8,2,1.8c0,0.7-0.2,1.4-0.4,2.1
			c-0.1,0.3-0.4,0.6-0.7,0.7c-1,0.5-1.9,1.1-2.7,1.9c-0.4,0.4-0.9,0.6-1.5,0.8c-0.6,0.2-1.2,0-1.6-0.5C61.2,69.1,61.2,68,61.1,66.9z
			"/>
		<path d="M9.2,65.1c-0.2-0.2-0.5-0.4-0.7-0.6c-0.4-0.3-0.5-0.6-0.2-1c0.7-1.2,1.6-2.1,2.7-2.8c0.9-0.6,1.7-1.3,2.6-1.9
			c0.5-0.4,1.2-0.6,1.8-0.9c0.1-0.1,0.3,0,0.4,0c0.1,0,0,0.3,0,0.4c0,0.6,0,1.2,0.2,1.8c0.2,0.6,0.1,1-0.2,1.4
			c-1.2,1.5-2.6,2.8-4.4,3.6C10.6,65.4,9.9,65.5,9.2,65.1L9.2,65.1z"/>
		<path d="M51.1,70.6c-0.1,0.2-0.2,0.4-0.3,0.5c-0.7,0.5-1.4,1.1-2.2,1.4c-1.5,0.5-2.6,1.5-3.7,2.5c-0.3,0.3-0.7,0.6-1.1,0.9
			c-0.7,0.4-1.1,0.2-1.4-0.6c-0.1-0.4-0.3-0.7-0.6-1c-1.1-0.9-2.3-1.8-3.5-2.6c-0.4-0.3-0.8-0.5-1.2-0.7c0,0,0-0.1,0-0.1
			c0.2,0,0.5,0,0.7,0.1c1.1,0.3,2.1,0.6,3.2,0.8c1.4,0.3,2.8,0.2,4.2-0.4c1-0.5,2-0.5,3.1-0.5C49.2,70.7,50.1,70.6,51.1,70.6z"/>
		<path d="M17.1,69.4c-0.6,0.2-0.9-0.2-1.1-0.7c-0.1-0.3-0.3-0.5-0.6-0.5c-0.5,0-0.5-0.3-0.4-0.6c0.2-0.5,0.4-1,0.8-1.3
			c0.8-0.7,1.7-1.3,2.6-1.9c1-0.6,2-1.1,3-1.6c0.5-0.3,0.7-0.1,1,0.5c0.4,1.1,0,2.1-0.5,3.1c-0.5,1-1,2-2.1,2.4
			c-0.8,0.3-1.7,0.5-2.6,0.7C17.1,69.5,17.1,69.4,17.1,69.4z"/>
		<path d="M42.7,59.3c-0.7,0.2-1.5,0.3-2.1,0.6c-1.4,0.7-2.7,1.5-4,2.4c-0.6,0.4-1,1.2-1.5,1.8c-0.6,0.7-1.2,1.5-1.8,2.2
			c-0.2,0.2-0.4,0.4-0.7,0.7c-0.2-0.1-0.5-0.3-0.7-0.5c-0.3-0.2-0.5-0.3-0.8-0.5c-0.5-0.2-0.6-0.6-0.2-1c0.3-0.4,0.7-0.7,1-1.1
			c1.4-1.9,3.1-3.4,5.3-4.3c0.3-0.1,0.6-0.4,0.9-0.5c0.7-0.5,1.5-0.8,2.4-0.8c0.8,0,1.5,0.3,2.1,0.8C42.6,59.2,42.7,59.3,42.7,59.3
			C42.7,59.4,42.7,59.4,42.7,59.3z"/>
		<path d="M16.1,58.6c-0.1-1,0.9-1.4,1.7-1c0.8,0.4,1.6,1,2.2,1.6c0.7,0.7,1.4,1.4,2.1,2.1c0.1,0.1,0.2,0.3,0.3,0.5
			c0.1,0.4,0,0.6-0.4,0.5c-0.2,0-0.5,0-0.7,0.1c-0.7,0.4-1.4,0.8-2,1.2c-0.3,0.2-0.6,0.2-0.9-0.1C17.1,62.2,16.2,60.7,16.1,58.6z"/>
		<path d="M53.1,75.7c-0.2,0.3-0.3,0.5-0.6,0.6c-0.7,0.4-1.4,0.9-1.9,1.6c-0.2,0.4-0.5,0.5-0.9,0.2c-0.6-0.4-1.2-0.8-1.8-1.1
			c-0.1,0-0.1-0.1-0.2-0.1c-0.8-0.3-1.7-0.5-2.5-0.8c-0.1,0-0.3-0.1-0.4-0.2c0-0.1,0-0.4,0.1-0.4c1.2-0.4,1.9-1.6,3.3-1.7
			c1.5-0.2,2.9-0.2,4.1,0.8C52.7,75,52.9,75.4,53.1,75.7z"/>
		<path d="M27.3,76.5c-0.1-0.4-0.2-0.6-0.2-0.8c0-0.7,0-1.5,0.1-2.2c0.1-0.8,0.4-1.5,1-2.2c0.3-0.4,0.6-0.9,0.9-1.3
			c0.4-0.5,0.7-0.5,1.1-0.1c0.5,0.6,1,1.1,1.4,1.8c0.4,0.7,0.4,1.5-0.1,2.2c-0.4,0.6-0.9,1.2-1.5,1.7c-0.3,0.3-0.8,0.5-1.3,0.3
			C28.3,75.8,27.8,76,27.3,76.5z"/>
		<path d="M58.1,71.6c0-1.4,0.5-2.7,1.6-3.6c0.2-0.2,0.3-0.4,0.5-0.6c0.3-0.2,0.4-0.2,0.5,0.2c0,0.1,0,0.3,0,0.4
			c0,1.1,0.7,2.1,1.7,2.5c0.6,0.2,0.7,0.5,0.5,1.2c-0.6,1.5-2.5,2.5-4.1,1.9c-0.7-0.2-0.8-0.9-0.9-1.5
			C58.1,71.9,58.1,71.8,58.1,71.6z"/>
		<path d="M52.8,68c0.8-0.6,1.6-1.1,2.6-0.7c0.2,0.1,0.3,0.1,0.5,0.1c1.2,0.2,1.9,0.9,1.9,2.1c0,1.5-0.2,3-0.4,4.6
			c0,0.2-0.1,0.4-0.3,0.6c-0.2,0.1-0.4,0.2-0.6,0.2c-0.1,0-0.3-0.3-0.3-0.4c-0.2-1-0.4-2-0.7-3c-0.2-1-0.9-1.7-1.6-2.4
			C53.5,68.7,53.2,68.3,52.8,68z"/>
		<path d="M34.3,82.6c-0.1,0.1-0.2,0.2-0.3,0.3c-0.2,0.2-0.4,0.5-0.7,0.7c-0.1,0.1-0.2,0.2-0.3,0.2c-0.1-0.1-0.1-0.2-0.2-0.4
			c-0.1-0.2-0.2-0.6-0.4-0.7c-1.5-1.4-2.9-2.8-4.1-4.5c-0.2-0.3-0.5-0.7-0.7-1c-0.2-0.3-0.1-0.5,0.2-0.7c0.7-0.3,1.5-0.4,2.1,0.2
			c0.6,0.6,1.3,1.2,1.8,1.9c0.8,1.1,1.5,2.3,2.3,3.5C34.2,82.3,34.2,82.4,34.3,82.6z"/>
		<path d="M52.2,69c1.6,1,2.7,2.4,3.1,4.3c0,0.3,0.1,0.5,0.1,0.8c0.1,0.8,0,0.9-0.7,1.1c-0.2,0-0.3,0.2-0.5,0.3
			c-0.3,0.2-0.5,0.2-0.6-0.2c0-0.2-0.2-0.5-0.4-0.7c-0.5-0.4-1-0.7-1.6-1c-0.8-0.4-1-0.7-0.7-1.6c0.1-0.4,0.3-0.7,0.5-1.1
			c0.2-0.5,0.3-0.9,0.5-1.4C52,69.3,52.1,69.2,52.2,69z"/>
		<path d="M46.6,55.3c0.1,0.4,0.2,0.9,0.2,1.3c0.1,1.6,0.8,3,1.8,4.2c0.5,0.6,1,1.1,1.5,1.7c0.1,0.1,0.1,0.2,0.2,0.4
			c-0.6-0.2-1-0.3-1.5-0.4c-0.1,0-0.2-0.1-0.3-0.1c-0.9,0.1-1.1-0.5-1.3-1.3c-0.5-1.8-1.4-3.3-2.9-4.3c-0.3-0.2-0.5-0.5-0.8-0.7
			c-0.5-0.4-0.6-1-0.4-1.5c0.1-0.2,0.4-0.5,0.6-0.5C45,53.8,46,54.2,46.6,55.3L46.6,55.3z"/>
		<path d="M42.6,79.4c0-1.3,0.7-2.5,1.8-2.8c0.5-0.1,1.2,0,1.7,0.2c1.2,0.5,2.3,1.1,3.4,1.7c0.7,0.3,0.7,0.5,0.4,1.1
			c-0.1,0.2-0.2,0.5-0.2,0.8c-0.1,0.5-0.4,0.9-0.8,1.2c-0.4,0.2-0.6,0.1-0.8-0.4c-0.1-0.5-0.2-0.9-0.4-1.4c-0.5-1.3-2.6-1.7-3.6-0.7
			c-0.3,0.3-0.5,0.6-0.8,0.9c-0.1,0.1-0.3,0.3-0.4,0.2c-0.1,0-0.2-0.2-0.2-0.4C42.6,79.6,42.6,79.4,42.6,79.4z"/>
		<path d="M14.7,68.4c1,0.1,1.8,1,1.9,2c0,0.8,0,1.5-0.1,2.3c0,0.2-0.2,0.4-0.4,0.6c-0.2,0.2-0.5,0.2-0.8,0.3
			c-1.2,0.1-1.5-0.1-1.3-1.3C14.1,71,14.4,69.7,14.7,68.4z"/>
		<path d="M9.2,65.1c0,0.5,0,1,0,1.5c0,0.7-0.1,1.4-0.2,2.1c-0.1,0.8-0.3,1.1-1.2,1c-0.3,0-0.6,0.1-1,0.2c-0.2,0-0.4,0.1-0.5,0
			c-0.1-0.1-0.1-0.3-0.1-0.4c0.2-0.6,0.4-1.2,0.6-1.9c0.2-0.7,0.4-1.3,0.7-2c0-0.1,0.1-0.2,0.1-0.3c0.3-0.7,0.5-0.8,1.2-0.4
			C9,65,9.1,65,9.2,65.1C9.2,65.1,9.2,65.1,9.2,65.1z"/>
		<path d="M58.5,64.3c-0.6-0.1-1.1-0.2-1.7-0.3c-0.4-0.1-0.6-0.3-0.5-0.8c0-0.4,0.1-0.8,0-1.1c-0.1-0.3-0.4-0.5-0.6-0.7
			c-0.1-0.1-0.1-0.2-0.2-0.3c0.1-0.1,0.2-0.2,0.3-0.2c0.3,0,0.6,0,0.8,0.1c1.1,0.5,2.2,0.9,3.3,1.5c0.3,0.1,0.6,0.5,0.5,0.8
			c0,0.3-0.4,0.5-0.7,0.7C59.4,64.2,58.9,64.3,58.5,64.3z"/>
		<path d="M13.7,78.5c0-0.1,0-0.3,0-0.3c0.6-1.1,0.5-2.2,0.1-3.4c-0.1-0.2-0.1-0.4-0.1-0.6c-0.1-0.5,0.1-0.6,0.6-0.5
			c0.6,0.1,1.1,0,1.8,0c0,0.6,0,1.2-0.2,1.8c-0.2,1.1-0.6,2.2-0.9,3.3c0,0.2-0.1,0.4-0.2,0.5c-0.1,0.1-0.3,0.2-0.5,0.2
			c-0.1,0-0.2-0.2-0.3-0.4C14,78.9,13.9,78.7,13.7,78.5L13.7,78.5z"/>
		<path d="M5.6,75.5c-0.3-0.2-0.4-0.3-0.6-0.4c-0.4-0.1-0.3-0.3-0.2-0.5c0.8-0.8,0.9-1.9,1.2-2.9c0.1-0.3,0.2-0.7,0.2-1.1
			c0-0.3,0.2-0.5,0.6-0.6c0.4,0,0.9-0.2,1.3-0.2c0.3,0,0.4,0.2,0.3,0.5c-0.6,1.4-1.2,2.8-1.9,4.1C6.3,74.9,5.9,75.2,5.6,75.5z"/>
		<path d="M63.6,70.6c0.4-0.1,0.8-0.2,1-0.4c0.5-0.3,1-0.7,1.4-1.2c0.3-0.3,0.6-0.4,0.9-0.1c0.4,0.4,0.8,0.7,1.1,1.1
			c0.2,0.2,0.2,0.4-0.1,0.6c-0.6,0.3-0.7,0.5-0.6,1.2c0,0.1-0.2,0.3-0.3,0.3c-0.5-0.1-1-0.1-1.4-0.3c-0.6-0.2-1.1-0.6-1.7-0.9
			C63.8,70.9,63.7,70.8,63.6,70.6z"/>
		<path d="M54.1,62.1c-0.1,0-0.3-0.1-0.4-0.1c-0.8-0.5-1.6-1-2.3-1.5c-0.5-0.3-0.9-0.6-1.3-0.9c-0.3-0.2-0.4-0.6-0.2-0.9
			c0.2-0.4,0.4-0.7,1-0.5c0.7,0.2,1.1,0.7,1.6,1.2c0.7,0.7,1.4,1.3,2.1,2c0.1,0.1,0.1,0.3,0.1,0.4C54.4,61.8,54.3,61.9,54.1,62.1z"
			/>
		<path d="M13.7,78.5c0.5,0.8,0.5,0.8-0.4,1.3c-0.5,0.3-0.9,0.6-1.4,0.8c-0.3,0.2-0.7,0.3-1.1,0.4c-0.1-0.3,0-0.6-0.4-0.6
			c-0.4,0.1-0.6,0.4-0.5,1c-0.6-0.5-0.5-1.2,0.1-1.6c0.1,0,0.1-0.1,0.1-0.1c0.2-0.8,0.9-1.1,1.6-1.2c0.4-0.1,0.9-0.2,1.3-0.2
			C13.2,78.3,13.4,78.5,13.7,78.5C13.7,78.5,13.7,78.5,13.7,78.5z"/>
		<path d="M46.6,55.3c0-0.1,0-0.3,0-0.5c0.7,0.5,1.3,0.8,1.8,1.3c0.5,0.5,1,1,1.5,1.5c0.2,0.2,0.3,0.4,0,0.6c-0.1,0-0.1,0.1-0.1,0.1
			c-0.1,0.4-0.3,0.6-0.8,0.6c-0.5,0-0.9-0.1-1.2-0.6c-0.5-0.7-0.9-1.4-0.9-2.3C47,55.8,46.7,55.5,46.6,55.3
			C46.6,55.3,46.6,55.3,46.6,55.3z"/>
		<path d="M70.4,77.5c1.7-0.4,3.2-0.4,4.6,0.8c0.5,0.4,0.5,0.8,0.2,1.1C75,79.2,74.8,79,74.5,79c-0.4-0.1-0.7,0-0.8,0.4
			c-0.4-0.1-0.7-0.3-1.1-0.4c-0.2-0.1-0.3-0.1-0.5-0.3c-0.4-0.4-1-0.7-1.6-0.8c-0.3,0-0.3-0.2-0.3-0.4
			C70.4,77.5,70.4,77.5,70.4,77.5z"/>
		<path d="M70.5,73.6C70.4,74,70.3,74.2,70,74c-0.4-0.2-0.6-0.2-0.9,0.2c-0.2,0.3-0.7,0.2-1-0.2c-0.1-0.2-0.2-0.5-0.2-0.8
			c-0.1-0.5-0.2-1-0.4-1.5c-0.2-0.5,0.1-1,0.6-1c0.1,0,0.2,0.1,0.3,0.2c0.5,0.6,1.1,1.3,1.6,1.9C70.2,73.1,70.4,73.4,70.5,73.6z"/>
		<path d="M54.1,62.1c0.2-0.2,0.3-0.3,0.5-0.5c1-0.3,1.4,0,1.5,1.1c0,0.3,0.1,0.7,0.1,1c0,0.8-0.5,1-1.1,0.7
			c-0.3-0.2-0.7-0.3-1.1-0.4c-0.1-0.1-0.3-0.3-0.3-0.4C53.8,63,54,62.6,54.1,62.1z"/>
		<path d="M70.4,77.5c0,0-0.1,0-0.1,0c-0.1-0.1-0.2-0.1-0.3-0.2c-0.4-0.9-0.8-1.8-1.2-2.7c0.3-0.3,0.7-0.7,1.3-0.4
			c0.1,0.1,0.3,0.2,0.4,0.3c0.3,0.7,0.6,1.4,0.9,2.1c0.1,0.3,0.2,0.6-0.4,0.6C70.9,77.1,70.7,77.4,70.4,77.5z"/>
		<path d="M60.6,62.8c0.4,0.1,0.7,0.2,1.1,0.3c0.4,0.1,0.8,0.1,1.2,0.1c0.7-0.1,1.4-0.2,2.2-0.3c0.1,0,0.3,0.1,0.4,0.1
			c-0.9,0.4-1.7,0.8-2.5,1.2c-0.3,0.2-0.6,0.4-0.9,0.6c-0.3,0.3-0.6,0.2-0.8,0c-0.3-0.4-0.9-0.7-0.6-1.3
			C60.7,63.3,60.6,63.1,60.6,62.8z"/>
		<path d="M33.7,87.6c0-0.7,0-1.2,0-1.8c0-0.3-0.1-0.7-0.1-1c0-0.4,0-0.8,0.1-1.3c0-0.2,0.3-0.3,0.5-0.4c0.4-0.1,0.5,0.1,0.5,0.5
			c0,0.6,0,1.1,0,1.7c0,0.1,0.1,0.2,0.2,0.3c0.4,0.5,0.6,1,0.6,1.6c-0.3-0.2-0.7-0.5-0.9-0.5C34.2,86.7,34,87.2,33.7,87.6z"/>
		<path d="M31,66.3c0.2,0.2,0.6,0.4,0.9,0.6c0.2,0.1,0.4,0.3,0.7,0.4c0.4,0.3,0.5,0.6,0.3,1.1c-0.2,0.4-0.4,0.7-0.9,0.4
			c-0.1-0.1-0.2-0.1-0.3-0.1c-0.8,0.1-1-0.6-1.3-1.1c0-0.1,0.1-0.3,0.1-0.4C30.6,66.9,30.8,66.6,31,66.3z"/>
		<path d="M29.6,67c-0.7-0.7-1.3-1.3-2-2c-0.1-0.1-0.3-0.2-0.4-0.3c0.2-0.3,0.3-0.5,0.5-0.8c0,0,0.1,0,0.1,0c0.4,1.2,1.4,1.7,2.4,2
			c0.1,0.1,0.3,0.3,0.3,0.5c0,0.2-0.2,0.4-0.4,0.5C30,67.1,29.8,67,29.6,67z"/>
		<path d="M33.2,67.5c0.5,0.3,1.1,0.6,1.7,1c0.3,0.2,0.3,0.4,0.1,0.6c-0.3,0.5-0.7,0.6-1.2,0.4c-0.2-0.1-0.3-0.1-0.5-0.2
			c-0.2-0.1-0.3-0.2-0.4-0.3C33.1,68.5,33.2,68,33.2,67.5z"/>
		<path d="M34.9,69.9c0.2-0.4,0.4-0.6,0.6-0.9c0,0,0.2,0,0.2,0c0.4,0.3,0.7,0.7,1.1,1.1c0.1,0.1,0.1,0.2,0.1,0.3
			c0,0.1-0.2,0.1-0.2,0.1C36.1,70.3,35.5,70.1,34.9,69.9z"/>
	</g>
</g>
</svg>
