<?xml version="1.0" encoding="utf-8"?>
<!-- Generator: Adobe Illustrator 27.9.0, SVG Export Plug-In . SVG Version: 6.00 Build 0)  -->
<svg version="1.1" id="Layer_1" xmlns="http://www.w3.org/2000/svg" xmlns:xlink="http://www.w3.org/1999/xlink" x="0px" y="0px"
	 viewBox="0 0 100 100" style="enable-background:new 0 0 100 100;" xml:space="preserve">
<g>
	<g>
		<path d="M47.7,74.5c-0.1-0.1-0.1-0.2-0.3-0.7c-0.2-0.5-0.2-1.1-0.1-1.4c0.1-0.3,0.4-0.6,0.3-0.7c0-0.1-0.3-0.9-0.3-1.2
			c-0.1-0.3-0.1-0.7-0.1-0.7L47,69.9c0,0,0,0.1-0.1,0.3c0,0.3-0.2,1.8-0.3,2.3c-0.1,0.6-0.2,3.5-0.3,4.2c-0.1,0.7-0.4,1.7-0.4,1.7
			s0.1,0,0.2,0.1c0.1,0.1,1.1,0.8,1.1,0.8s0.1-0.1,0.1-0.4c0-0.2,0.1-0.7,0.2-1.1c0.1-0.4,0.3-2.1,0.3-2.1l0-0.6
			c-0.1-0.1-0.1-0.1,0-0.3C48,74.5,47.8,74.5,47.7,74.5 M27.4,68.9c-0.1-0.1-0.1-0.1-0.2-0.2c-0.1,0-0.5-0.1-0.5-0.1
			s0.2,0.3,0.3,0.4c0.1,0.1,0.2,0.2,0.3,0.1C27.4,69.1,27.5,69,27.4,68.9 M25.5,67.1c-0.4-0.2-0.8-0.2-0.8-0.2s0.8,0.4,1.1,0.6
			c0.3,0.2,0.7,0.5,1,0.5C26.7,68,25.8,67.3,25.5,67.1 M97.5,82.3c-0.1,0.2-0.6,0.2-1,0.1c-0.4-0.1-1-0.5-1.2-0.7
			c-0.2-0.2-0.7-0.7-1-1c-0.3-0.3-0.7-0.6-1.1-0.8c-0.2-0.1-0.3-0.2-0.3-0.2s0.3,0.4,0.5,0.6c0.1,0.2,0.4,0.8,0.6,1
			c0.1,0.2,0.5,0.3,0.7,0.5c0.1,0.1,0.5,0.3,0.7,0.4c0.2,0.1,0.2,0.4,0,0.5c-0.2,0.1-0.9,0.1-1.4-0.1c-0.5-0.1-0.9-0.6-1.2-0.8
			c-0.3-0.3-1.1-1.1-1.2-1.3c-0.1-0.2-0.3-0.3-0.4-0.4c-0.1-0.1,0,0.3,0.1,0.5c0.1,0.2,0.6,0.6,0.3,0.8c-0.2,0.1-0.7,0.3-1.1,0
			C90.2,81,90,80.6,90,80.3c-0.1-0.3,0-1.1,0-1.2c0-0.1-1.5,0.2-1.7,0.2c-0.3,0-0.4,0.2-0.4,0.2s-0.1,1,0,1.4c0,0.4-0.2,1-0.7,1.2
			c-0.5,0.2-1.3,0.1-1.6,0.1c-0.3,0-0.4-0.4-0.1-0.6c0.3-0.3,0.5-0.2,0.6-0.6c0.1-0.4,0.1-0.9-0.1-1.4c0,0-0.5-0.1-0.6-0.3
			c-0.1-0.2-0.7-1.2-0.9-1.6c-0.2-0.4-0.6-1.2-0.9-1.6c-0.3-0.4-1.9-1.8-2.2-2.2c-0.3-0.3-1.1-1-1.4-2.1c-0.3-1.1-1.1-3.7-1.2-4.5
			c-0.1-0.9-1.1-2.6-1.3-2.9c-0.2-0.3-0.8-1.3-0.9-1.6c-0.2-0.3-0.4-0.7-0.6-1.2c-0.1-0.6-0.2-1.2-0.5-1.6c-0.3-0.3-0.5-0.9-0.4-1.5
			c0.1-0.4,0.1-0.6,0.1-0.8c0-0.2-0.1-0.3-0.1-0.3s-4.3-3.6-5.5-5.7c-0.5-1.1-1.1-2.8-1.1-2.8s-2.1,0.5-2.6,0.6
			c-0.5,0.1-4.7,2.6-6,3c-0.1,0.4-0.3,1-0.9,1.4c-0.6,0.5-0.8,0.7-1.1,0.5c-0.3-0.2-0.4-0.2-0.6,0.2c-0.1,0.3-0.2,1-0.2,1.4
			c0,0.4-0.2,2-0.5,2.7c-0.2,0.7-0.3,1.7-0.3,1.7s-0.1,0.3,0.2,0.5c0.3,0.2,0.8,0.9,1.1,1.3c0.3,0.5,2.1,3.1,2.5,3.5
			c0.2,0.2,0.4,0.2,0.1,0.4c-0.3,0.2-2.2,1.5-3,2.2c-0.8,0.7-1.9,1.4-2.2,1.8c-0.3,0.4-0.4,0.8-0.6,1.5c-0.2,0.7-0.3,1.9,0,3.2
			c0.3,1.2,0.9,2.4,1.5,2.9c0.6,0.5,1.3,0.7,2.5,1.5c1.2,0.8,2.1,1.3,2.1,1.3s1.1-0.2,1.7-0.2c0.6,0,1,0,1.4-0.1
			c0.4-0.2,0.6-0.2,0.8,0.3c0.2,0.5,0.1,0.9-0.2,1c-0.3,0.1-0.3-0.1-0.6,0c-0.3,0-0.7,0.2-0.7,0.2s1.2,0.7,2.3,0.9
			c1.1,0.2,2.2,0.4,2.4,0.8c0.2,0.3,0.2,1-0.2,1.3c-0.1,0.4-0.5,0.6-1.5,0.6c-1,0-4.9,0.3-7.6,0c-2.7-0.3-6.1-0.7-7.8-0.9
			c-1.7-0.2-2.9-0.1-3.2-0.8c-0.1-0.2,0-0.4-0.1-0.6c-0.1-0.3-0.3-0.3-0.4-0.4c-0.2-0.1-0.3-0.7-0.1-1c0.2,0.1,0.3,0,0.4-0.4
			c0.1-0.4,0-0.4,0-0.4s-1.1-0.3-1.8-1.1c-0.3,0.6-0.4,0.9-0.7,1.1c-0.3,0.2-0.9,0.4-1.1,0.8c-0.2,0.4-4.4,0.7-6.4,0.3
			c-2-0.4-2.3-0.1-2.8-0.2c-0.5-0.1-0.8-0.5-0.9-0.9c-0.1-0.4-0.8,0-1.2,0.1c-0.4,0.1-1.5-0.2-1.8-0.8c-0.3-0.6-1.1-0.9-1.5-1.1
			c-0.4-0.2-1.4-0.4-2.5-0.8c-1-0.4-3.5-1.2-4.3-2c-0.8-0.8-0.9-0.9-1.6-1.1c-0.7-0.3-4.6-1.4-6.5-1c-1.9,0.4-4.5,2.3-5.3,2.8
			c-0.8,0.5-1.2,1-1.2,1.5c0,0.4,0,1.1,0.2,1.6c0.3,0.5,0.3,0.8,0.9,0.7C8.9,80.4,9,81,9,81.3c0,0.2-0.7,0.6-1.5,0.7
			c-0.8,0.1-1.9-0.1-2.3-0.7c-0.4-0.7-0.7-1.6-1.5-2.4c-0.7-0.7-0.9-2-0.3-2.8c0.6-0.8,2.8-3.5,3.1-5.3c0.3-1.8,0.8-3.6,1.3-4.5
			c0.5-0.9,1.5-1.5,2.7-1.2c1.2,0.3,2,0.7,2.9,1.4c0.7,0.3,4.5,1.9,8,2.3c0-0.3-0.3-0.4-0.5-0.4c-0.2,0-0.1-0.2,0.1-0.4
			c-0.2-0.3-0.3-0.5-0.3-0.6c0-0.1,0.4,0,0.7,0c0.3,0,1.9,0.1,2.3,0.1h0.7c0.1,0-0.4-0.4-0.2-0.8c0.1-0.4,1-0.2,1.3,0
			c0.2,0.2,1.3,1.1,1.6,1.3c0.3,0.2,1,0.5,1.1,0.6c0.1,0,0.1-0.1,0.3,0c0.2,0,0.3-0.4,0.5-0.6c0.1-0.2,0.5-0.7,1-0.5
			c0.5,0.2,1.6,1,1.6,1c0.1,0-0.9-0.9-1.2-1.2c-0.4-0.3-1.2-0.8-1.6-2c-0.5-1.2-0.4-2-0.5-2.3c-0.1-0.3-0.9-3.8-1.1-5.1
			c-0.2-1.2-0.8-4.2-0.8-4.6c-0.1-0.5-0.2-1.1-0.3-1.2c-0.1-0.2-0.1-0.1-0.2,0c-0.1,0.1-0.4,0.1-0.6,0.6c-0.2,0.5-0.1,1.4-0.8,2.4
			c-0.7,1-1.5,2.2-2,2.7c-0.3,0.3-0.6,0.9-0.7,1.1c-0.1,0.2-0.3,0.5-0.6,0.5c0.1,0.3,0.6,0.8,0.7,1c0.1,0.2,0.1,1-1.3,1.2
			c-1.4,0.3-1.4-0.1-1.4-0.1s-0.2,0.5-0.3,0.9c-0.1,0.4-0.3,0.4-0.6,0.3c-0.3-0.1-0.6-0.6-0.5-1.4c0.2-0.7,0.2-1.1,0.2-1.1
			c0-0.1-0.5,0.1-0.8,0.1c-0.3,0-0.6-0.1-0.8-0.4C16,59.3,16,59.2,16.1,59c-0.5,0-0.8-0.1-0.9-0.4c-0.2-0.3,0.1-0.6,0.1-0.6
			s-0.6-0.3-1.2-1.1c-0.7-0.8-1.2-1.6-1.4-1.9c-0.2-0.3-0.1-0.4,0.2-0.8s0.5-0.6,0.6-0.8c0.1-0.2-0.4-0.4-0.7-0.4
			c-0.3-0.1-0.4,0.2-0.7-0.3c-0.1-0.2-0.6-1.1-1.4-2.2c-1.7-2.2-4.2-5.6-5.5-7.8c-1.8-3.2-2.6-6-2.6-7.8c0.1,0.1,2.6,4.9,4,6.3
			c0,0,6.5,8.2,8.1,10c0.2-0.3,0.9-1.1,1.1-1.6c0.3-0.4,1.1-1.6,1.2-2.3c0.1-0.7,1-2.1,1.5-2.9c0.4-0.7,1.1-1.6,1.1-1.6s1.4-2,2.2-3
			c0.8-1.1,1.6-1.7,2.1-2.2c0.5-0.5,2.8-3.4,3.2-3.9c0.4-0.4,1.3-1.6,2-2.1c0.7-0.5,1.4-0.7,1.9-0.8c0.5,0,1.2-0.1,1.6,0.1
			c0.1,0.1,0.4-0.3,1-0.7c0.6-0.5,1.5-0.8,1.7-0.9c0.2-0.1,0.1-0.3,0.4-0.2c0.3,0.1,0.4,0.2,0.7,0.2c0.3,0.1,0.8,0,1.3,0.1
			c0.5,0.1,0.7,0.3,0.9,0.5c0.2,0.2,0.4,0.3,0.7,0.1c0.3-0.2,1.1-0.5,1.4-0.6c0.3,0,0.4,0,0.3-0.2c-0.1-0.2-0.1-0.2,0.2-0.4
			c0.2-0.1,0.6-0.4,0.8-0.5c0.1,0,0.4-0.1,0.6-0.3c0.2-0.2,0.7-0.3,1-0.8c0.3-0.5,0.5-0.8,0.8-1c0.3-0.1,1.2-0.1,1.6,0
			c0.4,0.1,0.6,0.2,0.9,0c0.3-0.2,1.1-0.7,1.4-0.9c0.3-0.2,0.9-0.5,1.3-0.8c0.4-0.3,0.3-0.6,0.6-0.6c0.3-0.1,0.7-0.3,1.2-0.4
			c0.5-0.1,1.1-0.1,1.5-0.1c0.4,0,0.5,0.1,0.7,0.4c0.2,0.2,0.7,0.6,0.9,0.9c0.2,0.2,0.4,0.3,0.6,0.4c0.2,0.1,0.9,0.1,1.2,0.2
			c0.3,0.1,1,0.2,1.2,0.3l0.1,0l-0.1,0c0,0,0.8,0.4,1.2,0.5c0.4,0.1,2.1,0.2,2.6,0.2c0.4,0.1,1.4,0.2,1.6,0.3c0.2,0,0.2,0,0.2,0
			s0.2-1.2,0.3-1.4c0.1-0.2,0-0.4,0.2-0.5c0.2,0,0.6,0.1,0.7,0c0.1-0.1,0-0.5,0.2-0.9c0.2-0.4,1-2.2,1.4-2.8
			c0.4-0.6,1.9-2.6,2.9-3.5c1-0.9,1.5-2.1,2.1-2.4c0.6-0.3,2.3-0.8,4-0.5c1.7,0.3,2.7,0.9,3.9,1.9s1.7,1.6,2.8,3.2
			c0.6,0.9,0.6,1.5,0.7,2.2c0.1,0.7,0,1.7-0.1,2.3c-0.1,0.6-0.2,0.8-0.5,0.8c-0.2,0-0.3,0-0.2,0.2c0,0.2,0.1,0.4,0,1.1
			c-0.1,0.7-0.3,0.9-0.3,1.2c0,0.3-0.1,0.6-0.4,0.5c-0.3,0-0.7-0.1-0.7-0.1s-0.2,0.2-0.2,0.5c0,0.3,0.4,1.8,0.4,2.2
			c0,0.4,0,0.6,0,0.7c0,0,0.2,0.1,0,0.3c-0.2,0.2-0.6,1.1-0.9,1.3c-0.3,0.3-1.8,2.2-2,2.5c-0.2,0.3-0.9,1.1-0.9,1.1s0.2,0,0.5,0
			c0.3-0.1,0.4,0,0.7,0.2c0.3,0.1,0.5,0.3,0.9,0.1c0.5-0.2,0.6-0.2,0.7-0.3c0.1-0.1,0.2-0.2,0.4-0.1c0.1,0.1,0.3,0.2,0.5,0.2
			c0.2,0.1,0.2,0.3-0.1,0.5c-0.3,0.1-0.5,0.2-0.7,0.3c-0.2,0.1-0.2,0.3-0.4,0.4c-0.2,0.1-1.3,0.2-1.6,0.3c-0.3,0.1-0.6,0.1-0.6,0.1
			s0.5,0.6,0.8,0.9c0.3,0.3,1.1,1.6,1.4,2.1c0.3,0.5,0.9,1.6,1.1,2.3c0.3,0.7,0.3,1.2,0.4,1.5c0.1,0.3,0.1,0.5,0.2,0.6
			c0,0.2,0.3,0.2,0.3,0.4c0,0.2-0.2,0.3-0.2,0.5c0,0.2,0.2,0.4,0.3,0.7c0.1,0.3,0.2,0.6,0.2,1.1c0,0.5-0.3,0.7-0.1,1.2
			c0.2,0.5,0.4,1,0.4,1.2c0.1,0.2,0,0.5,0.2,0.8c0.2,0.3,0.5,0.7,0.3,1c-0.2,0.2-0.5,0.4-0.4,0.7c0.1,0.3,0.2,0.7,0.3,0.8
			c0.1,0.1,0.4,0.1,0.5,0.1c0.2,0,0.4-0.1,0.6,0.1c0.2,0.1,0.5,0.3,0.7,1.3c0,0.4,0.3,0.7,0.4,0.8c0.1,0.2,0.6,1.4,0.8,2
			c0.2,0.6,0.9,2.2,1,2.5c0.1,0.4,0.4,1.5,0.5,1.9c0.1,0.3,0.6,1.7,0.9,2.2c0.2,0.5,0.6,1.5,0.8,2.3c0.2,0.7,0.4,1.7,0.6,2.3
			c0.2,0.5,0.4,1.8,0.2,2.5c-0.1,0.3-0.5,0.5,0.1,0.7c0.6,0.2,1.1,0.6,1.2,0.9c0.1,0.3,0.2,0.9,0.6,1c0.4,0.1,1.1,0.3,1.7,0.4
			c0.6,0.1,1.3,0.1,1.7,0.3c0.3,0.2,0.4,0.5,0.7,0.8c0.2,0.3,0.3,0.4,0.1,0.5c-0.2,0.1-0.9,0.7-1.2,1c0,0,0.5,0,0.6,0.2
			c0.2,0.2,0.5,0.7,0.6,0.9c0.1,0.2,0.6,1.2,0.8,1.5c0.2,0.2,0.8,0.7,0.9,0.8c0.1,0.1,0.5,0.5,0.7,0.6C97.4,81.9,97.5,82,97.5,82.3"
			/>
	</g>
</g>
</svg>
