<?xml version="1.0" encoding="utf-8"?>
<!-- Generator: Adobe Illustrator 27.9.0, SVG Export Plug-In . SVG Version: 6.00 Build 0)  -->
<svg version="1.1" id="Layer_1" xmlns="http://www.w3.org/2000/svg" xmlns:xlink="http://www.w3.org/1999/xlink" x="0px" y="0px"
	 viewBox="0 0 100 100" style="enable-background:new 0 0 100 100;" xml:space="preserve">
<path d="M45,22.4c0.1,0.1,0.1,0.3,0.2,0.4c0.3,0.4,0.4,0.8,0.6,1.3c0.1,0.5,0.2,0.9,0.3,1.4c0.1,0.2,0.1,0.4,0,0.6
	c-0.7,2.3-1.1,4.7-1.5,7c-0.2,1-0.4,2-0.6,3c0,0.2,0,0.3-0.1,0.5c0.5,0.1,0.9,0.2,1.4,0.4c-0.1,0.2-0.2,0.3-0.3,0.5
	c-0.3,0.4-0.6,0.8-0.8,1.2c-0.1,0.2-0.3,0.5-0.3,0.7c-0.2,0.7,0.1,1.1,0.8,1.1c0.1,0,0.1,0,0.2,0c-0.3,0.4-0.3,0.8-0.1,1.2
	c0.2,0.6,0.4,1.2,0.6,1.8c0.2,0.5,0.2,1,0.2,1.5c0,0.2-0.1,0.2-0.3,0.3c-0.9,0.4-1.7,0.9-2.6,1.3c-3.3,1.7-6.7,3.4-10,5.1
	c-4,2-8,4.1-12.1,6.1c-1.5,0.7-2.9,1.5-4.4,2.2c-0.5,0.2-0.8,0.6-1.1,1c-0.3,0.5-0.7,1-1,1.5c-0.1,0.1-0.1,0.3-0.2,0.5
	c0.3,0.1,0.6,0.2,0.8,0.3c0.4,0.1,0.5,0,0.7-0.3c0.2-0.3,0.3-0.6,0.5-0.9c0.1-0.2,0.1-0.4,0-0.6c-0.2-0.5,0.1-0.8,0.6-0.8
	c0.3,0.1,0.6,0.1,0.9,0.2c1.5,0.5,3,0.9,4.6,1.4c1.9,0.5,3.9,1,5.9,1.3c2.1,0.4,4.1,0.4,6.2,0.3c1.4-0.1,2.7-0.2,4.1-0.3
	c1.3-0.1,2.5-0.3,3.8-0.5c0.7-0.1,1.4-0.2,2.2-0.3c0,0.2,0,0.3,0,0.5c-0.2,1.2-0.5,2.4-0.8,3.6c-0.2,0.8-0.4,1.6-0.9,2.3
	c0,0,0,0.1,0,0.1c0.2,0.2,0.5,0.1,0.7,0c0.5-0.3,0.9-0.7,1.2-1.2c0.6-0.8,1.2-1.7,1.7-2.6c0.1-0.3,0.3-0.5,0.5-0.8
	c0.3-0.5,0.6-1,0.9-1.5c0.2-0.3,0.4-0.6,0.6-0.9c0.6,0.6,1.1,1.1,1.6,1.6c-0.1,0.4-0.3,0.8-0.5,1.3c-0.6,1.5-1.4,3-2.2,4.4
	c-0.1,0.2-0.2,0.3-0.4,0.3c-0.7,0.3-1,0.7-0.8,1.5c0.1,0.5,0.1,0.9-0.1,1.3c-0.1,0.1,0,0.3,0,0.4c0,0.8,0,1.6,0,2.3
	c0,1.2-0.2,2.3-0.6,3.5c-0.1,0.4-0.2,0.7-0.3,1.1c0,0.1-0.1,0.3-0.2,0.4c-0.7-0.2-1.3-0.4-2-0.7c0,0.1-0.1,0.1-0.1,0.1
	c-0.5,1.8-1.2,3.5-1.9,5.3c-0.6,1.6-1.1,3.2-1.3,4.9c0,0.4-0.1,0.8-0.1,1.1c-0.1,0.4-0.2,0.9-0.3,1.2c-0.7,1.5-1.5,3-2.7,4.2
	c-0.5,0.5-0.6,1.1-0.5,1.7c0.1,1,0.3,1.1,1.2,1.3c1.3,0.2,2.6,0.2,3.9,0.1c1-0.1,2-0.2,2.9-0.4c0.1,0,0.2,0,0.3-0.1
	c0.2,0,0.2-0.1,0.3-0.3c0-0.5,0.1-0.9,0.1-1.4c0-1.1,0.1-2.3,0.1-3.4c0-0.4,0-0.8-0.1-1.2c0-0.3,0-0.5,0.2-0.7
	c0.6-1.1,1.3-2.2,1.7-3.4c0.3-0.9,0.6-1.8,0.9-2.7c0.4-1.3,0.9-2.6,1.5-3.9c0-0.1,0.1-0.2,0.1-0.4c-0.5-0.2-1-0.4-1.5-0.6
	c0.1-0.2,0.1-0.4,0.2-0.6c0.6-1.9,1.1-3.8,1.6-5.7c0.1-0.4,0.4-0.7,0.8-1c0,0,0.1,0,0.1-0.1c-0.1-0.1-0.1-0.1-0.2-0.1
	c-0.1-0.1-0.1-0.2,0-0.3c0.2-0.3,0.4-0.6,0.6-1c0.3-0.5,0.3-1.1,0.1-1.6c-0.1-0.1-0.1-0.2-0.2-0.3c0-0.1-0.1-0.2,0-0.3
	c0.5-1.4,1-2.8,1.4-4.1c0,0,0-0.1,0.1-0.1c0.1,0.2,0.1,0.3,0.1,0.5c0,0.7,0,1.4,0,2.1c0,0.9,0.2,1.8,0.5,2.6
	c0.1,0.3,0.2,0.6,0.6,0.6c0.3,0,0.5-0.3,0.6-0.5c0.1-0.3,0.2-0.7,0.3-1c0.3-1.3,0.7-2.5,0.8-3.8c0.1-1,0.2-1.9,0.2-2.9
	c0-0.9,0.3-1.7,0.5-2.6c0,0,0-0.1,0.1-0.1c0.1-0.1,0.2-0.3,0.4-0.3c0.1,0,0.3,0.2,0.3,0.3c0.1,0.2,0.2,0.4,0.2,0.5
	c0.1,0.5,0.2,1,0.2,1.5c0.3,2.4,0.2,4.9,0.2,7.3c0,0.6,0,1.2,0.1,1.8c0,0.2,0.1,0.5,0.3,0.7c0.1,0.2,0.3,0.3,0.5,0.3
	c0.2-0.3,0.3-0.7,0.4-1.1c0.3-1.6,0.6-3.2,1-4.9c0.2-0.8,0.3-1.6,0.4-2.4c0.2-1.2,0.3-2.4,0.4-3.5c0.1-0.9,0.2-1.8,0.4-2.6
	c0-0.3,0-0.7,0.2-1.1c0.1,0.1,0.1,0.2,0.1,0.3c0.4,1.1,1,2.1,1.5,3.2c0.8,1.6,1.5,3.1,1.8,4.9c0.2,1.1,0.5,2.2,0.9,3.2
	c0.2,0.6,0.6,1.3,0.9,1.9c0.1,0.2,0.1,0.3,0,0.5c-0.1,0.3-0.1,0.6,0,0.8c0.1,0.2,0.2,0.4,0.3,0.6c0.1,0.3,0.2,0.6,0.1,0.9
	c0,0.1,0,0.3,0,0.4c0.2,0.8,0.5,1.5,0.7,2.3c0.3,1,0.5,2.1,0.5,3.1c0,0.7,0,1.4,0,2.1c0,0.1,0,0.2,0,0.4c-0.5,0-0.9-0.1-1.4-0.1
	c0,0.2,0,0.3,0,0.4c0,0.8,0,1.7-0.1,2.5c-0.1,0.8-0.3,1.6-0.4,2.5c-0.3,1.5-0.4,2.9-0.2,4.4c0,0.4,0.1,0.8,0.3,1.3
	c0.1,0.2,0,0.4-0.1,0.6c-0.2,0.4-0.4,0.9-0.6,1.3c-0.3,0.6-0.4,1.3-0.5,2c0,0.3,0,0.4,0.3,0.5c0.7,0.4,1.4,0.7,2.1,0.8
	c1.3,0.2,2.7,0.4,4,0.6c1.2,0.1,2.5,0.3,3.7,0.4c1.8,0.2,3.5,0.1,5.2-0.3c0.1,0,0.2-0.1,0.4-0.1c0-0.4-0.1-0.7-0.1-1.1
	c0-0.2-0.2-0.2-0.3-0.2c-1-0.4-1.9-0.8-2.9-1.2c-1.9-0.9-3.6-2.1-5.3-3.2c-0.2-0.2-0.2-0.3-0.2-0.5c0.2-0.9,0.4-1.8,0.5-2.6
	c0.1-0.7,0.1-1.5,0.1-2.3c0-1.6,0-3.2,0-4.8c0-0.1,0-0.1,0-0.2c-0.5-0.1-0.9-0.1-1.4-0.2c0-0.1,0-0.3,0-0.4c0-1.1,0-2.1,0-3.2
	c0-1.2-0.1-2.4-0.1-3.6c0-0.1,0-0.3,0.1-0.4c0.1-0.2,0.1-0.4,0.2-0.5c0-0.1,0-0.2,0-0.3c-0.1-0.1-0.2-0.3,0-0.4
	c-0.2-0.5,0.2-0.9,0.2-1.4c0-0.4-0.1-0.8-0.4-1.1c-0.1-0.1-0.2-0.2-0.3-0.3c-0.1-0.1-0.1-0.2-0.1-0.3c0-0.6,0-1.2,0.1-1.9
	c0.1,0.1,0.1,0.1,0.2,0.2c0.1,0.2,0.1,0.5,0.2,0.7c0.2,0.8,0.5,1.6,0.7,2.4c0.1,0.3,0.2,0.5,0.4,0.8c0.1,0.1,0.1,0.2,0.2,0.3
	c0.1,0.1,0.2,0.3,0.4,0.2c0.2,0,0.2-0.2,0.3-0.4c0-0.2,0.1-0.4,0.1-0.5c0-0.9-0.1-1.8-0.2-2.7c-0.1-0.9-0.2-1.9-0.3-2.8
	c-0.1-1.5-0.2-3-0.2-4.5c0-0.6,0.1-1.1,0.1-1.7c0-0.1,0.1-0.3,0.1-0.4c0.2,0.1,0.3,0.3,0.4,0.4c0.2,0.4,0.3,0.9,0.4,1.3
	c0.4,1.6,0.8,3.1,1.2,4.7c0.2,0.9,0.4,1.7,0.7,2.6c0.2,0.7,0.5,1.5,0.8,2.2c0.1,0.2,0.2,0.4,0.4,0.6c0.1,0.1,0.2,0.3,0.4,0.2
	c0.1-0.3,0-0.6-0.1-1c-0.1-0.9-0.3-1.9-0.4-2.8c-0.1-0.8-0.1-1.7,0-2.6c0.2,0,0.3-0.2,0.5,0c0,0,0.2,0,0.2-0.1
	c0.7-0.7,1.4-1.3,1.9-2.1c0.4-0.8,0.6-1.6,0.8-2.4c0.2-0.8,0.2-1.7,0.1-2.6c0-0.3,0-0.6,0-0.9c0-0.8,0-1.5,0.1-2.3
	c-0.3-0.1-0.5-0.2-0.7-0.3c0.2-0.4,0.2-0.8,0.1-1.2c0-0.1-0.1-0.3-0.1-0.4c-0.3-0.6-0.3-1.3-0.3-1.9c0-1.3,0-2.7-0.1-4
	c-0.1-1-0.2-2-0.4-2.9c0-0.2,0-0.4,0-0.7c0.2-0.8,0.3-1.7,0.3-2.5c0-0.1,0-0.2,0-0.3c0.8-0.4,0.7-0.8,0.5-1.4
	c-0.1-0.3-0.3-0.7-0.4-1c0.2-0.2,0.4-0.2,0.7-0.2c0.2,0,0.4,0.1,0.6-0.1c0.2-0.2,0.3-0.3,0.5-0.5c0.1-0.1,0.1-0.2,0.2-0.3
	c0-0.1,0-0.2,0-0.2c-0.1-0.1-0.1-0.3-0.2-0.4c-0.1-0.6-0.2-1.1-0.4-1.7c-0.9-4-1.9-7.9-2.9-11.9c-0.1-0.3-0.1-0.6,0.1-0.9
	c0.2-0.4,0.1-0.7-0.2-1c-0.7-0.6-1.4-1.2-2.2-1.7c-0.8-0.6-1.7-1.2-2.6-1.7c-1.4-0.8-2.9-1.4-4.6-1.6c-0.1,0-0.1,0-0.2-0.1
	c0.1-0.4,0.2-0.7,0.2-1c0.1-0.5,0.1-0.9,0.3-1.4c0.2-0.3,0.2-0.4,0.5-0.2c0.1,0,0.1,0.1,0.2,0.1c0.2,0.1,0.4,0,0.5-0.2
	c0.1-0.3,0-0.5-0.2-0.7c-0.2-0.2-0.3-0.5-0.2-0.8c0.2-0.4,0.3-0.8,0.5-1.2c0.1-0.1,0.2-0.3,0.3-0.3c0.4-0.2,0.6-0.5,0.5-0.9
	c0-0.1,0-0.2,0-0.3c0-0.3-0.1-0.5-0.3-0.6C69.2,8.8,69,8.6,69,8.3c0-0.2,0-0.4,0-0.5c0-0.5,0-1.1,0-1.6c0-0.6-0.2-1.1-0.5-1.5
	c-0.2-0.3-0.5-0.6-0.8-0.8c-0.7-0.6-1.6-1.1-2.5-1.3c-0.6-0.1-1.3-0.1-1.9,0c-1.2,0.2-2.5,0.5-3.6,1c-1.5,0.6-2.6,1.7-2.9,3.3
	c-0.1,0.5-0.2,1.1-0.3,1.7c-0.1,0.5-0.1,1-0.2,1.4c0,0.2,0,0.4,0.2,0.6c0.8,0.5,1.2,1.2,1.6,2c0.2,0.4,0.3,0.8,0.2,1.3
	c-0.1,0.4-0.1,0.7-0.1,1.1c0,0.3,0.1,0.5,0.2,0.7c0.3,0.4,0.5,0.7,0.8,1.1c0.1,0.1,0.1,0.2,0.2,0.3c-0.2-0.1-0.3-0.1-0.4-0.1
	c-0.2-0.1-0.5-0.1-0.7,0c-0.3,0.1-0.5,0.1-0.8,0.2c-1.3,0.2-2.6,0.4-3.9,0.6c-0.3,0-0.5,0-0.7-0.2c-0.1-0.1-0.2-0.2-0.4-0.2
	c-0.3-0.1-0.5-0.3-0.5-0.6c0-0.2-0.1-0.3-0.4-0.2c-0.1,0-0.3,0-0.5,0c0-0.1,0-0.2,0-0.2c-0.1-0.9-0.2-1.9-0.3-2.8
	c-0.1-1.2-0.2-2.3-0.3-3.5c-0.1-1.5-0.3-2.9-0.5-4.4c-0.1-0.6,0-1,0.4-1.4c0.1-0.1,0.2-0.3,0.2-0.5c-0.1-0.6-0.1-1.2-0.2-1.8
	c0-0.2,0-0.3-0.1-0.6c-0.2,0.3-0.4,0.5-0.6,0.7c-0.3-0.2-0.3-0.2-0.6,0c-0.3-0.1-0.4-0.4-0.8-0.5c0,0.2,0,0.3,0,0.5
	c0,0.4,0.1,0.8,0.1,1.2c0.1,0.9,0.1,0.9,0.7,1.4c0.2,0.1,0.2,0.3,0.3,0.5c0.1,0.9,0.2,1.7,0.2,2.6c0.1,1.4,0.3,2.9,0.4,4.3
	c0.1,1.4,0.3,2.8,0.4,4.2c0,0.1,0,0.3,0,0.5c-0.5,0-1,0.2-1.5,0.2c0-0.2-0.1-0.4-0.1-0.5c-0.3-1.9-0.6-3.7-1-5.6
	c-0.4-2-0.7-4.1-1.1-6.1c-0.1-0.6-0.1-1.1,0.3-1.6c0.1-0.1,0.1-0.2,0.1-0.3C47.3,1.6,47.1,0.8,47,0c0,0-0.1,0-0.1,0
	c-0.2,0.2-0.3,0.5-0.4,0.7c-0.1-0.1-0.2-0.2-0.3-0.1c-0.1,0-0.2,0.1-0.3,0.2c-0.2-0.1-0.4-0.3-0.7-0.5c0,0.3,0,0.5,0,0.8
	c0,0.2,0,0.3-0.1,0.5c-0.2,0.2-0.3,0.4-0.4,0.6c-0.3-0.3-0.4-0.2-0.6,0.1c-0.4-0.2-0.7-0.5-0.8-0.9c-0.2,0-0.2,0.2-0.3,0.3
	c-0.1,0.1-0.1,0.2-0.2,0.3c-0.1,0-0.3-0.1-0.4-0.1c-0.1,0-0.1,0.1-0.2,0.2c-0.2-0.1-0.5-0.3-0.8-0.4c0,0.7,0.5,1.3,0.3,1.9
	c-0.1,0-0.3-0.1-0.4-0.1c-0.1,0-0.2,0.2-0.3,0.3c-0.2-0.1-0.5-0.2-0.8-0.3c0,0.2,0,0.3,0.1,0.4c0.3,0.6,0.5,1.3,0.8,1.9
	c0,0.1,0.2,0.2,0.3,0.3c0,0,0.1,0.1,0.2,0.1c0.5,0.1,0.7,0.4,0.9,0.9c1.2,3.2,2.4,6.3,3.7,9.5c0.1,0.2,0.1,0.3,0.2,0.5
	c-0.6,0.3-1.3,0.4-1.9,0.6c-0.1-0.1-0.1-0.2-0.2-0.2c-1.6-3.3-3.2-6.6-4.8-9.9c-0.2-0.3-0.2-0.6,0-0.9c0.1-0.1,0.1-0.2,0.1-0.4
	c0-0.1,0-0.2,0-0.3c-0.3-0.7-0.6-1.4-1-2c0,0-0.1-0.1-0.1-0.2c-0.1,0.3-0.2,0.6-0.3,0.8c-0.3-0.2-0.4-0.2-0.5,0.2
	c-0.3-0.1-0.5-0.2-0.9-0.3c0,0.2,0.1,0.3,0.1,0.4c0.3,0.6,0.6,1.2,0.9,1.8C37.9,6.8,38,6.9,38.2,7c0.6,0.1,0.9,0.5,1.2,1.1
	c1.5,3.1,3,6.3,4.5,9.4c0.1,0.2,0.2,0.5,0.1,0.7c-0.1,0.3,0,0.5,0.1,0.8c0.6,0.9,0.7,2,1,3C45.1,22.1,45,22.2,45,22.4
	c0.3-0.1,0.3,0,0.2,0.3C45.1,22.6,45,22.5,45,22.4z M49.5,37.5c-0.1-0.1-0.1-0.2,0-0.3C49.5,37.3,49.7,37.4,49.5,37.5
	c0,0.1,0.1,0.2,0.1,0.3c0.1,0.2,0.3,0.5,0.3,0.7c0.3,1.2,0.7,2.4,1,3.5c0.1,0.4,0.1,0.4-0.3,0.6c-1,0.5-2.1,1-3.1,1.6
	c-0.1,0-0.2,0.1-0.3,0.1c0-0.1,0-0.1,0-0.1c0-1,0-2.1-0.1-3.1c0-0.1,0-0.2,0.1-0.3c0.2-0.2,0.2-0.5,0.2-0.8c-0.1-0.7-0.2-1.3-0.3-2
	c0-0.2-0.1-0.5,0-0.7c0.7,0,1.4-0.1,2-0.1C49.3,37.3,49.4,37.4,49.5,37.5z M46.8,54.8c-0.1,0.1-0.2,0.1-0.2,0.2
	c-0.4,0.2-0.4,0.5-0.3,0.9c0,0,0,0.1,0,0.2c0.1,0.3,0,0.5-0.2,0.7c-0.4,0.5-0.9,0.9-1,1.6c-0.2,0.9-0.6,1.6-1.3,2.2
	c-0.1,0.1-0.2,0.2-0.3,0.3c-0.5,0.5-1.1,0.9-1.8,1c-0.1,0-0.3,0-0.4,0.1c-1.5,0.3-2.9,0.6-4.4,0.8c-1.2,0.1-2.4,0.3-3.5,0.3
	c-1.9,0.1-3.9-0.1-5.8-0.4c-1.5-0.2-3-0.5-4.5-0.8c-1.6-0.3-3.2-0.8-4.8-1.1c-0.6-0.1-1.1-0.3-1.7-0.4c2-1,3.9-2,5.8-3
	c1.9-1,3.9-2,5.8-2.9c1.9-1,3.9-2,5.8-3c1.9-1,3.9-2,5.8-2.9c1.9-1,3.8-2,5.8-2.9c0,0.2,0,0.4,0,0.5c0,0.4,0,0.8,0.1,1.2
	c0.2,1.4,0.5,2.7,0.7,4.1c0.1,0.5,0.3,1,0.2,1.6c-0.1,0.3-0.1,0.6-0.1,1C46.5,54.1,46.5,54.5,46.8,54.8z M74.7,57.5
	c0-0.1-0.1-0.2-0.1-0.3c-0.2-0.9-0.5-1.9-0.7-2.8c-0.2-1-0.5-2-0.7-3c-0.2-0.7-0.3-1.3-0.6-2c-0.3-0.9-0.6-1.7-0.9-2.5
	c-0.4-1.2-0.7-2.3-1.1-3.5c-0.2-0.6-0.3-1.2-0.2-1.9c0.1-0.5,0.2-1,0.4-1.5C71,40,71,39.8,71,39.7c0.1-0.5,0.3-0.9,0.4-1.5
	c0.1,0.1,0.2,0.2,0.2,0.3c0.1,0.2,0.2,0.3,0.3,0.5c0.4,0.5,0.8,0.8,1.5,0.8c0.5,0,0.9-0.1,1.4-0.1c0.1,0,0.2,0,0.3,0
	c0,0.2,0,0.3,0,0.5c-0.1,0.5-0.1,1,0.5,1.3c0,0.1,0,0.3,0,0.4c0.5,1.8,0.7,3.6,0.7,5.4c0,1,0.1,2.1,0.1,3.1c0.1,1.3,0.1,2.6-0.3,3.8
	c-0.1,0.3-0.1,0.7,0.1,1c-0.2,0.2-0.4,0.4-0.6,0.5c-0.4,0.2-0.5,0.5-0.5,0.8C75.2,56.9,74.9,57.2,74.7,57.5z M48.9,52.9
	c0,0-0.1,0-0.1,0c-0.2-0.5-0.4-1-0.5-1.5c-0.3-1.8-0.6-3.7-0.9-5.5c-0.1-0.4-0.1-0.8-0.1-1.3c1.3-0.6,2.5-1.3,3.8-1.9
	c0,0.1,0.1,0.2,0.1,0.2c0.2,0.8,0.4,1.6,0.6,2.4c0.1,0.5,0,0.9-0.2,1.3c-0.3,0.7-0.6,1.3-0.9,2c-0.3,1-0.7,2-1.1,3
	C49.3,52.1,49.1,52.5,48.9,52.9z M43.8,4.2c0.3,0.2,0.5,0.4,0.8,0.5c0.2,0.1,0.3,0.3,0.4,0.5c1,3.7,1.9,7.4,2.9,11.1
	c0,0.1,0,0.2,0.1,0.4c-0.3,0-0.6,0.1-0.9,0.1c-0.1-0.3-0.2-0.5-0.2-0.7c-1.1-3.7-2.1-7.4-3.2-11.1C43.5,4.8,43.5,4.5,43.8,4.2z
	 M48.6,16.7c0,0-0.1,0-0.1,0c0-0.1-0.1-0.1-0.1-0.2c-0.1-0.2-0.1-0.3-0.1-0.5c-0.9-3.5-1.8-7.1-2.8-10.6c-0.2-0.8-0.3-0.5,0.2-1.2
	c0.1-0.2,0.2-0.4,0.1-0.7c0-0.2-0.1-0.3-0.1-0.5c0.4,0.2,0.8,0.5,0.8,1c0,0,0,0.1,0,0.1c0.3,1.9,0.7,3.8,1,5.7
	c0.4,2.1,0.7,4.3,1.1,6.4C48.6,16.4,48.6,16.6,48.6,16.7z M75.6,64.2c0,0-0.1-0.1-0.1-0.1c0,0,0,0,0-0.1c-0.2-1.5-0.2-3-0.4-4.5
	c0-0.2,0.1-0.4,0.1-0.6c0.1-0.3,0.3-0.6,0.4-0.9c0.1-0.4,0.3-0.7,0.6-1c0.1-0.1,0.2-0.1,0.3-0.2c0.1,0.1,0.1,0.2,0.1,0.3
	c0.1,0.3,0.1,0.7,0.2,1c0.1,0.5,0.1,1-0.1,1.5c-0.1,0.2-0.1,0.4-0.1,0.6c0,0.3,0,0.6,0,0.9c0,1-0.3,2-0.9,2.8
	C75.7,64.1,75.7,64.1,75.6,64.2z M45.8,14.1C45.7,14.1,45.7,14.1,45.8,14.1c-0.1-0.1-0.2-0.3-0.3-0.5c-0.9-2.2-1.7-4.5-2.6-6.7
	c-0.2-0.4-0.2-0.8,0-1.2C43,5.5,43.1,5.3,43,5c0-0.1,0-0.1,0-0.2c0.1,0,0.1,0.1,0.2,0.2C44,8,44.9,11.1,45.8,14.1z M67.1,67.1
	C67,67.1,67,67.1,67.1,67.1C67,67,67,66.9,67,66.8c0-1,0-2,0-3c0-0.7,0.1-1.4,0.1-2.1c0-0.2,0-0.2,0.2-0.5
	C67.4,63.2,67.3,65.2,67.1,67.1z M50.4,61.8c-0.3-0.4-0.4-0.9-0.6-1.4c0-0.1,0-0.2,0.1-0.2c0.2-0.2,0.4-0.2,0.6,0.1
	C50.9,60.7,50.8,61.3,50.4,61.8z M46.4,81c0-0.5,0.6-2.8,0.9-3.2C47,79,46.8,80,46.4,81z M76.1,64.6c-0.1,0.4-0.2,0.7-0.4,1
	C75.5,65,75.6,64.7,76.1,64.6z M68.9,78.4c0.1,1,0.1,2.1,0,3.1C68.9,80.5,68.8,79.4,68.9,78.4z"/>
</svg>
