<?xml version="1.0" encoding="utf-8"?>
<!-- Generator: Adobe Illustrator 27.9.0, SVG Export Plug-In . SVG Version: 6.00 Build 0)  -->
<svg version="1.1" id="Layer_1" xmlns="http://www.w3.org/2000/svg" xmlns:xlink="http://www.w3.org/1999/xlink" x="0px" y="0px"
	 viewBox="0 0 100 100" style="enable-background:new 0 0 100 100;" xml:space="preserve">
<g>
	<g>
		<path d="M15.4,92.7c1.3-2,2.8-3.8,3.8-6c0.9-1.9,2.1-3.6,3.2-5.4c1.3-1.9,2.6-3.9,3.7-5.9c1.8-3.1,2.9-6.6,3.6-10.1
			c0.9-4.3,1.3-8.7,1.6-13.1c0.2-2.9,0.4-5.9,1.1-8.8c0.3-1.4,0.9-2.8,1.6-4c0.9-1.5,1.7-3,2.1-4.8c0.3-1.5,0.6-3.1,0.8-4.6
			c0.3-1.9,0.7-3.8,1.9-5.5c1.5-2.2,3.6-3.9,6-5.1c0.6-0.3,1.2-0.6,1.8-0.8c0.5-0.2,0.5-0.2,0.3-0.7c-0.6-1.2-1.2-2.4-1.8-3.6
			c-1-2-2-4-3-6c-0.1-0.3-0.2-0.5-0.3-0.7C43.5,7.8,45,8,46.5,8.2c0.1-0.6,0.1-1.1,0.2-1.6c0.2-1.1,0.3-2.3,0.5-3.4
			c0.1-0.4,0.2-0.7,0.6-1c1-0.6,2-1.3,3-1.9c0.6-0.3,1.3-0.4,2-0.3c1.3,0.3,2.6,0.4,3.9,0.5c0.9,0.1,1.4,0.6,1.8,1.3
			c0.3,0.6,0.5,1.3,0.5,2c0,1.3,0.2,2.6,0.6,3.8c0.1,0.4,0.3,0.4,0.6,0.4c1.3-0.2,2.5-0.4,3.8-0.5c-0.3,1-0.7,2-1.1,3.1
			c-0.8,2.3-1.6,4.6-2.4,7c-0.2,0.5,0.1,1.2,0.7,1.3c3,0.7,5,2.7,6.6,5.2c1.3,2,2.1,4.1,2.9,6.3c0.5,1.3,0.6,2.7,0.7,4
			c0.2,3.4,0.4,6.8,0.6,10.2c0.1,1.9,0.6,3.7,1,5.6c0.7,3.2,1.2,6.4,1.9,9.6c0.3,1.8,0.7,3.6,1,5.4c0.3,2,0.6,4,0.9,6.1
			c0.6,3.7,1.8,7.2,3.4,10.5c0.5,1,0.9,1.9,1.4,2.9c0.5,2.5,1,4.5,1.6,5.8c0.6,1.4,1,2.9,1.6,4.3c-0.2,0.1-0.4,0.2-0.6,0.3
			c-1.5-1.4-3-2.8-4.7-4.4c-0.5,1.2-0.8,1.9-1.2,2.9c-0.6-0.6-1.1-1.2-1.8-1.9c-0.4,0.5-0.8,1-1.1,1.4c-2.1-1.2-1.8-5.3-5.7-4.7
			c0.3,1.3,0.5,2.1,0.7,3.2c-4.5,0.6-2.5,4.2-3.1,7.1c-1.1-1.3-1.7-2.8-2.8-3.3c-0.6-0.3-1.9,0.8-3,1.2c-0.8-0.6-1.9-1.5-3.1-2.5
			c-0.9,1.4-1.9,2.9-2.8,4.2c-1-0.5-2.5-1.9-3.7-1.7c-1.3,0.2-2.4,1.9-3.9,3.3c0.7-3.4,1-6.4-1.7-9c-0.2,1.3-0.4,2.5-0.5,3.8
			c-0.1,1.2-0.2,2.4-0.3,3.6c-0.3,0-0.6,0-0.8,0c-0.3-0.9-0.6-1.7-1-2.9c-0.8,0.8-1.3,1.3-2,2c-2.1-2.2-2.4,1.1-3.9,1.3
			c0.2-2,0.5-3.9,0.7-5.8c-3.7-1.8-3.3,2.5-5.2,3c-1.1-1.2,0.4-4.1-2.2-4c-1.5,0.1-3,1.4-4.3,2.1c-1.3-1.7-2.6-3.4-3.9-5.3
			c-1.8,1.8-3.5,3.5-5.3,5.3C16.7,93.7,16.1,93.1,15.4,92.7"/>
	</g>
</g>
</svg>
