<?xml version="1.0" encoding="utf-8"?>
<!-- Generator: Adobe Illustrator 27.9.0, SVG Export Plug-In . SVG Version: 6.00 Build 0)  -->
<svg version="1.1" id="Layer_1" xmlns="http://www.w3.org/2000/svg" xmlns:xlink="http://www.w3.org/1999/xlink" x="0px" y="0px"
	 viewBox="0 0 100 100" style="enable-background:new 0 0 100 100;" xml:space="preserve">
<path d="M60.7,10.5c0.8-0.5,1.6-0.4,2.5-0.1c0.7,0.2,1.2,0.8,1.6,1.4c0.3,0.5,0.6,1,1,1.4c0.3,0.3,0.7,0.4,1,0.5
	c0.3,0.1,0.6-0.5,0.5-0.9c0-0.2-0.1-0.4-0.2-0.6c0.4,0.5,0.6,1.1,0.3,1.4c-0.4,0.5-1.1,0.5-1.6,0.1c-0.7-0.6-1.3-1.2-1.9-1.8
	c-0.9-0.9-1.8-0.8-2.8-0.3c-0.3,0.2-0.3,0.3-0.1,0.6c0.2,0.2,0.3,0.4,0.5,0.6c0.4,0.6,0.3,0.6-0.3,0.9c0.4-0.4,0.4-0.4,0.2-0.6
	c-0.4,0.6-0.6,0.7-1.4,0.6c-0.4,0-0.7,0-1.1,0c-0.3,0-0.6,0.1-0.8,0.2c0,0.1,0,0.1,0,0.2c1-0.1,1.9-0.1,2.9-0.2
	c-0.7,0.1-1.4,0.2-2.1,0.3c-0.4,0-0.9,0-1.3,0c-0.8,0.1-1.5,0.3-1.8,1.4c0.1,0.1,0.4,0.2,0.6,0.4c-0.1,0-0.1,0-0.2,0
	c0.1,0.2,0.2,0.4,0.3,0.5c0.1,0.1,0.2,0.3,0.3,0.4c0.1-0.6,0.1-0.6-0.3-0.9c0.5,0,0.6,0.4,0.6,0.8c0,0.6-0.1,1.2-0.7,1.5
	c0.7,0,0.9-0.2,0.8-0.7c0,0,0-0.1,0-0.1c0.4-0.6,0.5-1.3,0.7-1.9c0.2-0.7,1-0.9,1.7-1c1.1-0.3,2.3-0.5,3.4-0.6
	c1.1-0.1,2.1,0.3,3,0.9c0.3,0.2,0.4,0.5,0.3,0.9c-0.3,0.5-0.2,1.1,0.3,1.4c0.7,0.5,1.4,0.9,2.2,1.3c0.2,0.1,0.6,0,0.9-0.1
	c0.1,0,0.2-0.3,0.1-0.4c-0.4-0.7-0.1-1.3,0.2-1.9c1-1.7,2.6-2.2,4.3-1.4c0.9,0.4,1.3,1.6,0.9,2.4c0,0.1-0.1,0.1-0.2,0.2
	c0.4-1.2-0.1-2.3-1.1-2.5c1.2,1,1.4,1.6,0.8,2.7c0.1-0.1,0.3-0.2,0.4-0.2c-0.1,0.4-0.4,0.6-0.8,0.5c-0.3,0-0.7,0-1-0.1
	c-0.3-0.1-0.5-0.4-0.6-0.7c0-0.2,0.2-0.5,0.4-0.7c0.1-0.1,0.4-0.1,0.6,0c0.1,0.1,0,0.4,0.1,0.6c-0.1,0-0.1,0-0.2,0
	c0-0.1,0.1-0.3,0.1-0.5c-0.4,0.1-0.8,0-0.8,0.5c0,0.4,0.4,0.7,0.9,0.6c0.8-0.1,1.2-0.7,0.9-1.5c-0.4-1.1-2.1-1.7-3.1-1.1
	c-0.4,0.2-0.5,0.8-0.3,1.4c0.1,0.3,0.3,0.6,0.4,0.9c0.3,0.6,0.6,1.2,0.7,1.9c0.2,1-0.4,1.8-1.5,2c-3,0.5-5.4-0.7-7.5-2.7
	c-1-1-2.1-1.3-3.1-0.8c-0.7,0.3-1.1,1.3-0.8,2c0.1,0.2,0.3,0.4,0.5,0.6c-0.1,0.4-0.6,0.5-1,0.7c0.3-0.2,0.5-0.4,0.8-0.6
	c-0.2-0.2-0.3-0.3-0.5-0.5C59,19.9,59,20,58.9,20c0-0.1,0-0.2,0-0.3c-0.4,0.3-0.7,0.5-1.1,0.8c0,0,0,0.1,0,0.2
	c-0.4,0.1-0.7,0.2-1.1,0.3c-0.2,0.1-0.3,0.1-0.5,0.2c0,0,0,0.1,0.1,0.1c0.7-0.1,1.5-0.2,2.2-0.3c-0.4,0.1-0.9,0.2-1.3,0.3
	c-0.4,0.1-0.8,0.3-1.3,0.4c0,0,0,0.1,0,0.1c0.5,0,1.1,0.1,1.6,0c1-0.2,1.7,0.4,2.3,1c0.5,0.5,0.8,1.2,1.1,1.8
	c0.3,0.7,0.1,1.2-0.6,1.4c-0.5,0.2-0.9,0.3-1.4,0.4c-0.6,0.1-1.2-0.2-1.5-0.8c0.1,0.1,0.2,0.1,0.3,0.2c0.5,0.2,1,0.3,1.4,0
	c0.1-0.1,0.2-0.1,0.3-0.1c0.2-0.2,0.5-0.5,0.5-0.7c0-0.3-0.3-0.5-0.5-0.7c-0.1-0.1-0.3-0.2-0.4-0.2c-0.5-0.3-1-0.7-1.5-0.9
	c-0.4-0.2-0.8-0.3-1.3,0c-0.7,0.4-1.2,0.8-1.5,1.6c0.2,0.1,0.4,0.2,0.6,0.4c0.2-0.3,0.3-0.5,0.5-0.8c-0.1,0.3-0.3,0.7-0.4,1
	c-0.8-0.4-1.4-0.9-2.3-0.6c0.2,0.5,0,1-0.6,1.2c-0.9,0.4-1.9,0.5-2.9,0.1c-0.5-0.2-0.9-0.4-1.4-0.5c0.1,0.6,0.2,1.1,0.2,1.6
	c0,0.4,0,0.8,0.5,0.9c0.4,0.1,0.8-0.3,0.9-0.8c-0.2-0.1-0.3-0.2-0.5-0.3c0.2-0.4,0.5-0.6,0.9-0.4c0.5,0.2,0.4,0.5,0.3,0.9
	c-0.2,0.6-0.9,1-1.6,1c0.3,0.4,0.6,0.5,1,0.4c0.3-0.1,0.6-0.2,0.9-0.3c0.6-0.2,1.1-0.3,1.7-0.4c0.5-0.1,0.8,0.2,1,0.6
	c0.2,0.4,0.4,0.9,0.1,1.4c-0.1,0.2-0.5,0.3-0.6,0.3c-0.2-0.1-0.3-0.4-0.4-0.6c0,0,0.1-0.1,0.1-0.1c0.1,0.1,0.2,0.2,0.3,0.4
	c0.3-0.2,0.4-0.4,0.3-0.7c-0.1-0.1,0-0.3-0.1-0.5c-0.3-0.6-0.8-0.7-1.5-0.3C51.5,28.7,51,29,50.3,29c-1.4,0-2.3-0.9-2.4-2.2
	c0-0.4-0.2-0.7-0.5-0.8c-0.2-0.1-0.5,0.1-0.7,0.2c-0.4,0.3-0.7,0.6-1,0.9c-0.3,0.3-0.2,0.6,0.2,0.9c0.3-0.2,0.7-0.4,1.1-0.7
	c0.2,0.3-0.3,1.7-0.9,2.5c0.3,0,0.5,0,0.7,0.1c0.5,0.1,1,0.1,1.5,0.2c0.4,0,0.5,0.3,0.6,0.7c0,0.4,0,0.9,0.2,1.2
	c0.4,0.6,1,1.2,1.6,1.7c0.5,0.4,1.2,0.6,1.7,1c0.2,0.1,0.3,0.3,0.4,0.5c0.6,1.5,0.7,2.9-0.3,4.2c-0.3,0.4,0,0.6,0.2,0.8
	c0.1,0.1,0.4,0.2,0.6,0.2c1.7-0.3,3.3-0.5,5-0.8c0.4-0.1,0.9-0.3,1.3-0.4c0.1,0,0.2-0.1,0.2-0.1c0-0.9,0.8-1.7,0.4-2.6
	c-0.1-0.3-0.2-0.5-0.6-0.6c-1-0.3-1.9-0.7-2.9-1c-0.4-0.1-0.4-0.4-0.5-0.7c0-0.1,0.2-0.3,0.4-0.4c0.8-0.4,1.7-0.7,2.5-1.1
	c-0.3-0.6-0.6-1.1-0.9-1.7c0.4,0.1,0.8,0.3,1.2,0.4c-0.1-0.2-0.1-0.4-0.2-0.5c0,0,0.1,0,0.1-0.1c0.4,0,0.8,0.1,1-0.4
	c0-0.1,0.2-0.1,0.3-0.2c2-0.9,3.9-1.7,5.9-2.6c0.8-0.3,1.1-0.1,1.1,0.8c0,0.1,0,0.1,0,0.3c0.2-0.2,0.3-0.4,0.5-0.6
	c0,0,0.1,0,0.1,0.1c-0.2,0.5-0.4,1-0.6,1.5c0.2-0.1,0.4-0.1,0.5-0.1c0.2,0,0.5,0,0.7,0.2c0.1,0.1,0.1,0.4,0.1,0.6
	c-0.1,0.4-0.3,0.7-0.4,1.1c-0.3,0.7-0.7,1.4-1.6,1.6c-0.6,0.1-1.1,0.5-1.6,0.7c-0.2,0.1-0.3,0.3-0.3,0.5c-0.1,0.5-0.1,1-0.2,1.5
	c0.1,0.1,0.3,0.1,0.5,0.2c-0.1,0.1-0.1,0.3-0.2,0.4c-1.1,1.3-2.3,2.6-3.4,4c0.3,0,0.5,0.1,0.8,0.1c0,0.1,0,0.1,0,0.2
	c-0.8,0.2-1.5,0.5-2.3,0.7c-0.9,0.3-1.7,0.5-2.6,0.8c-1,0.4-2,0.8-3,1.2c-0.7,0.3-1.5,0.4-2.3,0.5c-0.2,0-0.4-0.3-0.7-0.5
	c0.1,0.6-0.5,1.2,0,1.8c0.2,0.3,0.3,0.7,0.2,1.1c-0.1,0.8,0.5,1.2,0.8,1.8c0.1,0.1,0.5,0.1,0.8,0.1c1.4-0.3,2.8-0.5,4.1-0.8
	c2.4-0.6,4.7-0.2,6.9,0.6c0.6,0.2,0.6,0.4,0.2,0.9c-0.6,0.7-1.3,1.3-2.2,1.7c-0.5,0.2-0.9,0.6-1.4,0.9c1.6,1.1,3.3,2,4.2,3.8
	c-1.1,0.3-2.1,0.6-3,0.8c0.2,0.7,0.4,1.3,0.5,1.9c0,0.2-0.1,0.5-0.2,0.8c-0.1,0.2-0.1,0.3-0.2,0.5c-0.7,1.3-0.7,2.6-0.8,4
	c0,0.7,0,1.4,0,2c0,0.1-0.1,0.3-0.2,0.4c-0.2-0.1-0.4-0.2-0.4-0.3c-0.1-0.3-0.2-0.6-0.3-1c-0.5,0.8-1,1.5-1.5,2.4c0-0.8,0-1.6,0-2.3
	c0,0-0.1,0-0.1-0.1c-0.2,0.3-0.4,0.6-0.5,0.9c-0.2,1.4-0.4,2.8-0.6,4.1c-0.2,1,0.2,1.9,0.4,2.8c0.1,0.4,0.3,0.7,0.4,1
	c0,0.1-0.1,0.3-0.1,0.5c-0.2,0-0.4-0.1-0.5-0.2c-0.2-0.2-0.3-0.4-0.4-0.7c-0.1,0.1-0.2,0.1-0.3,0.2c-0.1,0.6-0.2,1.3-0.3,1.9
	c-0.6,2.3-1.3,4.5-2,6.8c-0.3,1.1-0.7,2.3-1.1,3.4c-0.1,0.4-0.1,0.9-0.2,1.3c-0.2,0.6-0.4,1.1-0.6,1.7c-0.7,1.9-0.3,3.8-0.3,5.7
	c0,1.5,0.5,2.8,0.9,4.2c0.1,0.2,0.3,0.4,0.5,0.4c0.1,0,0.4-0.2,0.5-0.4c0.1-0.3,0-0.7,0-1C54.6,97,54.6,97,54.5,97
	c-0.3-0.1-0.5-0.1-0.8-0.2c0,0,0-0.4,0.1-0.4c0.3-0.1,0.6-0.2,0.8-0.3c0.1,0,0.2,0.1,0.3,0.1c0.7,0.5,0.9,2.2,0.3,2.8
	c-1.3,1.6-4.4,1.1-4.8-0.7c-0.2-0.7-0.6-1.3-0.7-2c-0.1-0.6,0-1.2,0-1.8c0-0.2,0-0.4-0.1-0.6c-0.5-0.7-1-1.3-1.6-2
	c-0.4-0.5-0.7-1.1-0.6-1.7c0.1-0.5,0.6-0.9,1-1.3c0.4-0.5,0.8-0.9,1.1-1.4c0.2-0.3,0.1-0.5,0.1-0.8c-0.2-0.9-0.4-1.9,0.4-2.7
	c0.2-0.2,0.2-0.7,0.3-1c0.1-0.9,0.1-1.8,0.2-2.8c-0.7,0.9-1.4,1.7-2.1,2.6c-0.5,0.6-0.9,1.2-1.5,1.7c-0.5,0.5-1.1,1-1.5,1.6
	c-0.3,0.3-0.4,0.8-0.4,1.2c0,0.1,0.2,0.4,0.3,0.5c0.2,0,0.5-0.1,0.6-0.3c0.3-0.4,0.2-0.8-0.2-1.1c0.4-0.3,0.7-0.2,0.9,0.4
	c0.2,0.8-0.5,1.9-1.4,1.9c-0.7,0-1.2-0.3-1.5-0.8c-0.3-0.5-0.5-1-0.6-1.5c-0.1-1.2-0.2-2.4,0.3-3.5c0.2-0.6,0.6-1.1,0.9-1.6
	c0.3-0.5,0.6-1.1,0.8-1.6c0.1-0.2,0-0.4,0-0.6c-0.1-0.6-0.1-1.3-0.2-1.9c0-0.7,0.3-0.9,1-0.9c0.7,0,1.4-0.2,2.1-0.4
	c0.1,0,0.2-0.3,0.2-0.5c0.1-0.3,0.3-0.7,0.4-1c0.1-0.2,0.4-0.4,0.5-0.7c0.5-1.8,1-3.6,1.6-5.3c0.3-0.9,0.6-1.9,0.8-2.8
	c0.1-0.2,0-0.5-0.1-0.7c-0.4-0.7-0.9-1.4-1.4-2.2c-0.7,0.4-1.3,0.9-1.6,1.6c-0.1,0.2,0,0.4,0.1,0.5c0.2,0.3,0.5,0.6,0.7,0.8
	c0.3,0.3,0.4,0.6,0.2,0.9c-0.5,0.8-1,1.6-1.5,2.3c-0.2,0.3-0.6,0.5-1,0.7c-0.2,0.1-0.5,0-0.8,0c-0.2,0.3-0.5,0.7-0.9,1.1
	c-0.8,0.9-1.9,1.2-3,0.7c-0.1-0.1-0.2-0.2-0.3-0.4c-0.9-2.3-1.5-4.7-1.8-7.1c-0.4-2.6-0.8-5.3-1.2-7.9c-0.1-0.8-0.5-1.7-0.6-2.5
	c-0.3-1.5,0.2-2.9,0.5-4.3c0.2-1.1,0.8-2.1,1.1-3.2c0-0.1,0-0.2,0.1-0.2c0.6-0.1,0.6-0.6,0.8-1c0.2-0.3,0.3-0.6-0.2-0.7
	c0.2-0.2,0.3-0.4,0.4-0.6c0.4-0.8,0.3-1.3-0.4-1.9c-0.8-0.6-1.6-1.3-2.4-2c-0.1-0.1-0.2-0.2-0.2-0.3c0.2-0.8-0.2-1.3-0.7-1.8
	c-0.1-0.1-0.3-0.3-0.2-0.4c0.2-0.5-0.3-0.7-0.6-1c-0.5-0.7-0.9-1.3-1.4-2.1c-0.1,0-0.3,0.1-0.4,0.2c-1,0.6-1.9,1.1-2.9,1.7
	C32,35.9,32,36.1,32,36.3c0,3,0,6,0.1,9c0,3.6,0,7.1,0,10.7c0,3,0.1,6.1,0.1,9.1c0,3.6-0.1,7.1-0.1,10.7c0,0.4,0,0.8,0.4,1.1
	c0.2,0.2,0.2,0.5,0.3,0.8c0.1,0.5,0,1.1,0.1,1.6c0.1,0.5,0.3,1,0.5,1.5c0.1,0.2,0.1,0.3,0.2,0.6c-0.3-0.1-0.4-0.2-0.6-0.2
	c-0.5,0.5-0.5,1.2-0.5,1.8c0.1,1,0.1,2-0.2,3c-0.2,0.5-0.3,1-0.4,1.7c-0.2-0.8-0.5-1.6-0.7-2.3c-0.2-0.8-0.2-1.6-0.1-2.5
	c0.1-0.5,0-1.2-0.5-1.7c-0.1,0.1-0.3,0.1-0.5,0.2c0-0.2,0-0.3,0.1-0.4c0.6-0.8,0.5-1.8,0.6-2.8c0.1-0.6,0-1.2,0.5-1.6
	c0.1-0.1,0.1-0.3,0.1-0.4c-0.1-5.7-0.1-11.4-0.2-17.1c0-1.5-0.1-2.9-0.1-4.4c0-3.5,0-7.1,0-10.6c0-2.4,0-4.8,0-7.2
	c-0.1,0-0.1-0.1-0.2-0.1c-0.5,0.6-0.9,1.2-1.4,1.9c-0.2-0.7-0.3-1.4-0.6-2.1c-0.5-1.6-0.1-3.2,0.1-4.8c0-0.4,0.5-0.9-0.3-1
	c0,0-0.1-0.3,0-0.4c0.2-0.5,0.5-0.9,0.6-1.4c0.1-0.5,0.2-1,0.1-1.5c-0.2-1.2-0.3-1.4,0.2-2.5c0.9-0.1,1.1-0.5,0.9-1.5
	c-0.1-0.5-0.2-0.9-0.3-1.4c-0.6-0.1-0.9-0.6-0.8-1.2c0.1-0.5,0.5-0.9,0.7-1.4c-0.2,0.1-0.4,0.2-0.6,0.4c-0.4,0.3-0.9,0.4-1.3,0.1
	c-0.3-0.2-0.5-1-0.3-1.3c0.2-0.3,0.4-0.3,0.7-0.1c-0.1,0.2-0.3,0.4-0.3,0.7c0,0.1,0.1,0.2,0.2,0.3c0,0,0.2,0,0.3-0.1
	c0.2-0.4,0.6-0.8,0.7-1.3c0-0.3-0.5-0.8-0.8-0.9C28,17,28,16.9,28.1,16.3c0.2-0.9,0.4-1.8,0.4-2.7c0.1-1.2,0-2.4,0-3.6
	c0-0.4,0-0.8-0.1-1.2c-0.1-0.2-0.3-0.3-0.4-0.5c-0.2,0.2-0.4,0.3-0.4,0.5c-0.1,0.4-0.2,0.8-0.4,1.4C27,10,26.9,9.8,26.9,9.7
	c-0.1-0.7-0.2-1.4-0.2-2c0-0.2,0.1-0.5,0.2-0.6c0.1-0.1,0.4,0.1,0.7,0.2c-0.1-0.3-0.1-0.6-0.2-0.8c-0.1-0.2-0.4-0.3-0.6-0.2
	c-0.2,0-0.4,0.3-0.4,0.5c0,0.6,0.1,1.1,0.1,1.7c0,0.8-0.6,1.2-1.3,1.1c-0.3-0.1-0.5-0.2-0.5-0.5c0-0.3,0-0.7,0-1
	c0.5,0,0.7,0.2,0.7,0.6c-0.2-0.1-0.3-0.1-0.5-0.2c0,0.2-0.1,0.4,0,0.6C25,9,25.3,9.1,25.4,9.1c0.2-0.1,0.5-0.3,0.5-0.4
	c0-0.5,0-1.1-0.1-1.7c-0.2-1,0.4-1.6,1.4-1.5c0.6,0.1,0.9,0.6,1,1.1c0.1,0.2,0.1,0.5,0.5,0.4c0.3-0.1,0.3-0.4,0.1-0.7
	c-0.3-0.5-0.4-1,0.1-1.5c0.2-0.3,0.1-0.4-0.2-0.6c-0.9-0.5-1-1.7-0.1-2.3c0.1-0.1,0.3-0.2,0.5-0.2c-0.2,0.3-0.6,0.6-0.7,0.9
	c-0.2,0.5,0,0.9,0.5,1.2c0.4,0.3,0.7,0.6,1,0.8C29.5,5,29.2,5.2,29,5.4c-0.1,0.1,0,0.4,0,0.6c0.2,0.4,0.4,0.8,0.7,1.2
	c0.3-0.2,0.6-0.4,0.9-0.7c0.3-0.3,0.3-0.7,0-1.1c-0.2-0.3-0.5-0.6-0.1-1c0.1,0,0-0.3-0.1-0.4c-0.1-0.2-0.3-0.3-0.4-0.5
	c-0.2-0.3-0.2-0.5,0.1-0.8c0.6-0.4,0.6-1.1,0.7-1.8c0.1-0.3,0.1-0.7,0.2-1c0.1,0,0.1,0,0.2,0c0.1,0.4,0.1,0.8,0.2,1.1
	c0.2,0.6,0.2,1.4,0.9,1.8c0.1,0,0.1,0.3,0.1,0.4c-0.1,0.2-0.2,0.4-0.4,0.6c-0.2,0.2-0.5,0.4-0.1,0.7c0.1,0.1,0,0.5-0.1,0.7
	c-0.5,0.8-0.4,1.3,0.5,1.7c0.1,0.1,0.3,0.1,0.3,0.2c0.2-0.4,0.5-0.8,0.6-1.2c0.1-0.2,0.1-0.5,0-0.6c-0.2-0.3-0.5-0.4-0.8-0.7
	c0.1-0.3,0.4-0.6,0.8-0.8C33.8,3.8,34,3.4,34,2.9c0-0.5-0.3-0.9-0.9-1.1c0.8-0.1,1.5,0.8,1.2,1.6c-0.1,0.3-0.4,0.6-0.7,0.8
	c-0.4,0.2-0.4,0.4-0.1,0.7c0.4,0.4,0.4,0.9,0.1,1.3c-0.1,0.1-0.2,0.3-0.1,0.5c0,0.1,0.2,0.3,0.3,0.3c0.1,0,0.2-0.1,0.3-0.2
	c0.1-0.2,0.1-0.4,0.2-0.6c0.3-0.7,0.9-0.9,1.6-0.6c0.5,0.2,0.7,0.7,0.6,1.4c-0.1,0.4-0.1,0.9-0.1,1.4c0,0.2,0.2,0.5,0.3,0.6
	c0.1,0.1,0.5,0.1,0.6,0c0.1-0.1,0.1-0.4,0.2-0.6c0,0-0.1,0-0.1-0.1c-0.1,0.1-0.2,0.1-0.4,0.2c0-0.1-0.1-0.2,0-0.2
	c0.1-0.2,0.3-0.3,0.5-0.4c0.1,0,0.4,0.1,0.4,0.2c0,0.3,0.1,0.8,0,1c-0.2,0.4-0.7,0.4-1.1,0.3c-0.4-0.1-0.7-0.4-0.7-0.8
	c0-0.4,0-0.8,0-1.2C36,7.3,36,7.1,36,7c-0.1-0.3-0.2-0.6-0.4-0.9c-0.1-0.1-0.4,0-0.6,0.1c-0.3,0.3-0.5,0.6-0.3,1
	c0.3,0,0.6-0.2,0.7-0.1c0.1,0.2,0.2,0.5,0.1,0.7c0,0.6-0.1,1.1-0.2,1.7c0,0.2-0.1,0.4-0.2,0.6c-0.1-0.4-0.2-0.9-0.3-1.3
	c-0.1-0.2-0.3-0.3-0.5-0.5c-0.1,0.2-0.4,0.3-0.4,0.5c-0.1,0.8-0.2,1.6-0.2,2.4c0,1.1,0,2.3,0,3.4c0,0.6,0.2,1.2,0.4,1.8
	c0.1,0.5,0,0.7-0.5,0.7c-0.6,0-1,0.7-0.8,1.2c0.1,0.3,0.3,0.6,0.4,0.8c0.1,0.1,0.3,0.1,0.4,0.2c0-0.2,0.1-0.4,0-0.6
	c0-0.1-0.2-0.2-0.4-0.4c0.2,0,0.5-0.1,0.6,0c0.2,0.1,0.3,0.4,0.3,0.6c0,0.4,0,0.8-0.5,1c-0.4,0.2-0.8,0.1-1.2-0.3
	c-0.1-0.2-0.4-0.2-0.5-0.3c0.3,0.5,0.6,0.9,0.7,1.3c0.1,0.6-0.2,1-0.8,1.2c-0.1,0.8-0.2,1.5-0.3,2.3c0,0.3,0.1,0.4,0.3,0.6
	c0.3,0.3,0.5,0.7,0.6,1.1c0,0.5,0.1,1-0.4,1.4c0,0-0.1,0.1-0.1,0.2c-0.1,1.4-0.2,2.7-0.3,4.3c0.6-0.3,1.2-0.5,1.6-0.9
	c0.3-0.2,0.4-0.6,0.5-0.9c0.1-0.5,0.5-0.6,0.9-0.8c0.4-0.2,0.8-0.2,1-0.6c0.1-0.2,0.3-0.2,0.5-0.3c0.4-0.2,0.8-0.4,1.2-0.5
	c0.3-0.1,0.6-0.1,0.9,0c0.4,0.2,0.8,0.4,1.3,0.7c-0.1-0.9-0.2-1.7-0.4-2.5c0.1,0,0.1,0,0.2-0.1c0.1,0.1,0.2,0.3,0.3,0.4
	c0.3,0.4,0.6,0.8,0.9,1.2c0.1,0.1,0.3,0.1,0.4,0.1c0.4-0.3,0.4-0.8,0-1.2c0.1,0,0.2,0,0.3,0c-0.2-0.4-0.3-0.9-0.6-1.1
	c-0.5-0.4-0.8-0.9-1-1.6c-0.1-0.5-0.2-1-0.3-1.6c-0.3,1.3-0.1,2.4,0.6,3.4c0.1,0.1,0.1,0.2,0.2,0.4c-1-0.9-1.2-2.1-1-3.3
	c0.1-0.8,0.4-1.6,0.6-2.4c0.4-1.5,1.5-2.3,3-2.7c0.2,0,0.4-0.1,0.6-0.1c0.3-0.1,0.4-0.2,0.6-0.5c0.3-0.6,0.6-1.4,1.5-1.6
	c0.5-0.1,0.9-0.1,1.3,0.3c-0.6-0.3-1.2-0.2-1.8,0.3c1.1-0.2,1.7,0,2,0.7c-0.5-0.5-1.1-0.7-1.8-0.5c-0.5,0.2-0.6,0.5-0.5,0.9
	c0.9,0,1.7,0,2.5,0c-0.1-0.1-0.1-0.2-0.2-0.3c0.1,0,0.2,0,0.3,0.1c0.2,0.3,0.5,0.3,0.9,0.2c0.2-0.1,0.5-0.1,0.7-0.2
	c0.4,0,0.6-0.3,0.6-0.7c0.1-0.4,0-0.8-0.4-1c-0.5-0.3-0.9-0.1-1,0.5c-0.2-0.5,0-0.8,0.6-0.8c0.6,0.1,1.1,0.8,1,1.4
	c0,0.2-0.1,0.3-0.1,0.5c0.4,0,0.9,0,1.3,0.1c0.6,0.2,1.2,0.5,1.7,0.8c0.1,0.2,0.3,0.4,0.4,0.6c0.7-0.6,0.8-0.9,0.5-1.2
	c-0.1,0.1-0.2,0.2-0.3,0.3c-0.1-0.3-0.1-0.6-0.3-0.8c-0.7-1.1-0.6-1.8,0.4-2.5c0.9-0.6,2-1,3.1-1.2c-0.4,0.1-0.7,0.3-1.1,0.4
	c0.2,0.1,0.3,0.1,0.4,0c0.6-0.2,1.2-0.3,1.9-0.5c0.1,0,0.2-0.1,0.3-0.2c0.2,0,0.5,0.1,0.7,0.1c0.2,0,0.6-0.1,0.6-0.2
	c0.1-0.2,0-0.5-0.1-0.8c0-0.1,0-0.1,0-0.2c0.1,0.1,0.2,0.2,0.3,0.2c0.7-1.1,1.8-1.1,2.8-1.3C61.9,10.3,61.3,10.4,60.7,10.5z
	 M58.4,16.1c-0.1,0.2-0.2,0.3-0.3,0.5c0.8-0.6,1.7-0.9,2.7-0.7c0.7,0.1,1.4,0,2.2,0c0-0.1,0-0.2,0-0.3c-0.4-0.1-0.8-0.3-1.2-0.4
	c-0.1-0.2-0.2-0.3-0.3-0.5c0-0.1,0-0.1,0-0.2c-0.8,0.3-1.6,0.5-2.4,0.8c-0.3,0.1-0.5,0.4-0.7,0.6C58.3,16,58.4,16,58.4,16.1z
	 M65.6,17.5c-0.9-2-1.7-2.6-3.5-3c0.8,0.1,1.7,0.2,2.3,0.8c0.5,0.5,1,1.1,1.4,1.7c0.2,0.3,0.5,0.6,1.1,0.6c-0.3-0.2-0.5-0.3-0.6-0.5
	c-0.3-0.4-0.5-0.8-0.3-1.3c0.3-0.5,0-0.8-0.4-1c-1.2-0.7-2.5-0.9-3.8-0.5c0,0.2,0.1,0.4,0.1,0.6C63.4,15.3,64.6,16.3,65.6,17.5z
	 M31.9,9.2c0,0-0.1,0-0.1,0.1c0,0.4,0,0.8,0,1.2c0,0.3,0,0.6,0,0.9c0.1,0.7,0.2,1.5,0.3,2.2c0,0.1,0.1,0.1,0.2,0.2
	c0.9-0.4,1.3-1.2,1.1-2.1c-0.2-1-0.5-1.9-0.8-2.9c-0.1-0.2-0.3-0.3-0.5-0.4c-0.1,0-0.3,0.1-0.3,0.2C31.7,8.8,31.8,9,31.9,9.2z
	 M30.4,9c0.1,0,0.1,0,0.2,0c0-0.2,0-0.3,0-0.5c-0.2,0-0.4,0-0.5,0.1c-0.1,0.1-0.2,0.3-0.2,0.4c-0.3,0.9-0.5,1.8-0.8,2.8
	c-0.2,0.9,0.2,1.7,1.3,2.1c0.1-0.8,0.2-1.5,0.3-2.3c0-0.4,0-0.8,0-1.2c0-0.5,0.2-1-0.4-1.2c-0.1,0-0.2-0.2-0.2-0.3
	c0-0.1,0.2-0.1,0.3-0.2C30.4,8.7,30.4,8.9,30.4,9z M64.5,18.9C64.5,19,64.5,19,64.5,18.9c0.3,0.3,0.7,0.6,1.1,0.9
	c1.7,1,3.6,1.5,5.6,0.9c0.8-0.2,1.1-0.8,0.9-1.6c-0.1-0.6-0.3-1.1-0.6-1.6c-0.4-0.7-0.8-1.3-0.7-2.2c-0.6,0.5-0.7,1.1-0.3,1.8
	c0.2,0.5,0.5,1,0.7,1.5c0.4,1.2-0.3,2.1-1.5,2.1c-1.1,0-2.2-0.4-3.2-0.9C65.8,19.6,65.2,19.3,64.5,18.9z M68.7,19.8
	c0-0.1,0-0.1,0-0.2c-0.6-0.2-1.2-0.4-1.8-0.7c-0.7-0.3-1.4-0.7-1.7-1.5c0-0.1-0.2-0.2-0.3-0.3c-1.3-1.2-2.8-1.3-4.4-0.8
	c-0.2,0.1-0.4,0.2-0.6,0.3c1.8-0.2,3.3,0.3,4.7,1.3c0.7,0.5,1.4,0.9,2.1,1.3C67.4,19.5,68.1,19.6,68.7,19.8z M71,19.7
	c-1.5,0.1-3,0.4-4.4-0.3c0.8,0.7,1.8,1.1,2.8,1.2C70.3,20.7,70.7,20.5,71,19.7z M59.9,23.4c-0.4-1.2-1.6-1.8-2.7-1.3
	C58.2,22.6,59.1,23,59.9,23.4z M30.4,3.2c0.3,0.3,0.5,0.6,0.8,1c0.3-0.4,0.5-0.7,0.8-1C31.4,2.7,31,2.7,30.4,3.2z M63,17.5
	c0,0.1,0,0.1-0.1,0.2c1,0.6,2,1.2,3,1.8c0,0,0.1-0.1,0.1-0.1C65.1,18.6,64.2,17.8,63,17.5z M61.6,35.2c-0.4,0.2-0.8,0.3-1.1,0.5
	c0.2,0.4,0.3,0.7,0.5,1C61.5,36.6,61.6,36.3,61.6,35.2z M68.3,18.6c0,0.1,0,0.1,0,0.2c0.7,0.2,1.3,0.5,2,0.7c0,0,0.1-0.1,0.1-0.1
	c-0.1-0.3-0.2-0.7-0.4-1.1C69.5,18.9,68.9,18.7,68.3,18.6z M59.1,19.2c0-1.1,0.6-1.8,1.5-2.1c-0.6,0.1-1.3,0-1.7,0.6
	C58.7,18.2,58.7,18.7,59.1,19.2z M57.8,16.2c0.3-0.3,0.4-0.6,0.7-0.8c0.3-0.2,0.6-0.3,1-0.5c0.3-0.1,0.6-0.2,0.9-0.4
	C58.8,14.8,57.6,15.3,57.8,16.2z M31.2,1.5c-0.2,0.5-0.4,0.9-0.5,1.2c0.4,0,0.7,0,1.1,0C31.5,2.3,31.4,1.9,31.2,1.5z M54.4,13.7
	c-0.4,0-0.6,0.3-0.7,0.6c-0.1,0.4-0.1,0.9,0.2,1.2C54.1,14.8,54.2,14.3,54.4,13.7z M63.4,35.7c0.1,0,0.1,0,0.2,0
	c0.2-0.5,0.4-1,0.6-1.6C63.1,34.4,63.6,35.2,63.4,35.7z M29.8,21.5c0.6,0,0.7-0.4,0.5-1.3C29.7,20.5,29.8,21,29.8,21.5z M49.2,28.1
	c0.6,0,1-0.3,1.3-0.8c0.1-0.2,0.2-0.5,0.1-0.6c-0.1-0.1-0.4-0.2-0.6-0.2C50.5,27,50.2,27.7,49.2,28.1z M33.2,9
	c-0.6,0.1-0.4,1,0.2,1.8c0-0.4,0-0.7-0.1-1c0-0.1,0-0.2-0.1-0.2C32.7,9.5,33,9.3,33.2,9z M32.6,21.5c0-0.9,0-1-0.5-1.3
	C31.9,21.2,32,21.5,32.6,21.5z M50.8,18.8c-0.9-0.6-1.2-0.7-1.8-0.2C49.6,18.6,50.2,18.7,50.8,18.8z M29,10.7c0,0,0.1,0,0.1,0
	c0.1-0.5,0.3-1,0.4-1.5c0-0.1-0.1-0.2-0.2-0.3c-0.1,0-0.2,0.1-0.3,0.1c0.1,0.1,0.2,0.2,0.3,0.2c0,0-0.1,0.1-0.2,0.2
	C29.2,9.7,29,9.8,29,9.9C29,10.1,29,10.4,29,10.7z M29.4,15.3c0,0,0,0.1,0,0.1c0.3,0,0.5,0.1,0.8,0.1c0-0.2-0.1-0.5-0.1-0.7
	c0-0.1-0.1-0.2-0.2-0.3c-0.1-0.1-0.3-0.2-0.5-0.4c0,0.3,0,0.4,0,0.4c0.3,0.2,0.5,0.2,0.7,0.4c0,0,0,0.3,0,0.3
	C29.7,15.3,29.5,15.3,29.4,15.3z M53.2,16c0-0.6,0-1.2,0-1.7C52.7,14.8,52.7,15.3,53.2,16z M62.4,36.3
	C62.4,36.3,62.4,36.3,62.4,36.3c0.2-0.5,0.3-1,0.4-1.6c-0.1,0-0.1-0.1-0.2-0.1c-0.1,0.1-0.2,0.3-0.2,0.4
	C62.3,35.5,62.4,35.9,62.4,36.3z M40.6,19.8c0.4-0.5,0.8-1,1.2-1.7C41.1,18.6,40.7,19.1,40.6,19.8z M50.7,17c0,0.1,0,0.1,0,0.2
	c0.5,0.1,0.9,0.2,1.4,0.4c0-0.1,0-0.1,0.1-0.2C51.6,17.2,51.2,17.1,50.7,17z M70.3,17.1c0,0-0.1,0-0.1,0.1c0.2,0.5,0.5,0.9,0.7,1.4
	c0,0,0.1,0,0.1-0.1C70.7,18,70.5,17.6,70.3,17.1z M40.3,21C40.3,21,40.3,21,40.3,21c0,0.4,0,0.8,0,1.2c0,0.4,0,0.7,0.1,1.1
	c0,0,0,0,0.1,0C40.4,22.5,40.3,21.8,40.3,21z M32.3,14.9c-0.1,0-0.1,0.1-0.2,0.1c0,0.2,0.1,0.5,0.1,0.5c0.2,0,0.5-0.1,0.7-0.1
	c0-0.1,0-0.1,0-0.2C32.6,15.5,32.4,15.3,32.3,14.9z"/>
</svg>
