<?xml version="1.0" encoding="utf-8"?>
<!-- Generator: Adobe Illustrator 28.0.0, SVG Export Plug-In . SVG Version: 6.00 Build 0)  -->
<svg version="1.1" id="Layer_1" xmlns="http://www.w3.org/2000/svg" xmlns:xlink="http://www.w3.org/1999/xlink" x="0px" y="0px"
	 viewBox="0 0 100 100" style="enable-background:new 0 0 100 100;" xml:space="preserve">
<path d="M100,58.6c0.1-5.6-1.2-10.7-0.7-16.6c0.2-2.6,1-5.5,0.3-8c-0.9-3.2-4-8.2-4.8-12.1c-2.7-1.5-1.6-7.1-4.4-9.1
	c-1.8-0.2-5.9-0.3-5.9-1.6c-1.3,0-10.2,0-10.2-1.3c-4.4,0-8.7-1.8-13.2-2.2c-4-0.2-7.7-0.3-12.3,1.3c-6.8-0.3-14,0.1-20.9,0.1
	L13,9.4c-1.5,0-2.7,0.5-5,1.8c-1.2,1.1-3,1.8-4.6,3.2c-0.9,1.7-2.9,2.9-3.1,5.1C-0.2,26-0.2,31.1,1,37.6l3,23.2
	c0.6,5.4-0.2,12-0.8,17.4c-0.2,3.1,1.5,7,2.4,9.7c0.3,0,2.6,3.2,3.8,3.6c5.2-0.6,13.6-1.6,16.8-1.1c4.6,0.7,12.5,2.5,19.3,1.6
	c2.8-0.3,13.9-0.4,17.3-1.7l19.1-0.2c4.6,0,9.5-1.2,13.1-3.2c2.5-4.1,4-9.3,4.6-12.8l0,0C100.4,70.1,97.5,63.3,100,58.6z M25.7,80.5
	c-0.2,1.5-1.9,1.7-3.8,1.6c0-1.4,0-3,0-5.4c2.3,0,4.3,0,6.3,0C27.6,78.2,26.8,80.2,25.7,80.5z M31.8,73.5c-0.1-1-0.1-2-0.1-3
	c6.5,0,12.4,0,20.1,0c0,1,0,1.9,0,3C44.2,73.5,38.3,73.5,31.8,73.5z M29.1,73.5c-2.2,0-4.6,0-7.2,0c0-1,0-1.9,0-3c2.6,0,5,0,7.3,0
	C29.2,71.4,29.2,72.5,29.1,73.5z M43.8,83c-0.2,1.2-0.4,3.1-1.7,3.6c-2.1,1-6.1,0.5-7.1-1.2c-1.3-2.2-2.3-5.5-2.8-8.8
	c4.1,0,7.9,0,12.1,0c0,0.1,0,0.1,0,0.2C44.2,78.9,43.9,82.3,43.8,83z M48.5,87.1c-0.5-0.7-0.9-2.1-1.2-3.4c-0.5-2.8-0.9-5.5-0.9-7
	v-0.1c1.7,0,3.5,0,5.4,0c0,5,0,6.6,0,10.4C51,87.2,50,87.2,48.5,87.1z M94.3,65.8c-0.8,1.5-3,4.3-2.2,6c-0.3,0.5-0.3,0.3,0,0.8
	c-0.3,0.7,0,3.3-1.6,3.3c0,0.5-3.5,2.6-4,2.6c-0.9,1.8-1,3.5-1.8,3.5c0,1.1-1.9,1.5-2.8,1.8l0,0c-2,1.3-8.2,0.8-9.6,0.8
	c-1.2-2.1-1.9-5-2.1-11.2v-8.1c-0.2-2.2-2.4-2.4-2.4,0v11.3c0,2.3-1,6.3-1.6,7.4c-1.2,2.3-2.1,2.3-3.4,0.3c-1.6-2.3-2.3-7.7-2.3-9.4
	c-0.3-1.7-2.2-1.5-2.1,0c0,2.2-1.2,8-3.3,10.5c0-5.2,0-8.5,0-15c1.1,0,2,0,2.9,0c0-1,0-1.9,0-2.9c-15.3,0-26.8,0-42.1,0
	c0,1,0,1.9,0,3c1,0,2,0,3,0c0,4.8,0,7.9,0,11.2c-0.8-0.1-1.5-0.2-2-0.1c-2.5,0.2-4.6,1.7-6.2,2.8L9,71.4C8.7,70,8.6,67,8,65.8
	c0-3.5-0.5-9.4-0.8-11.9L6.9,38.6L7.5,26c0-0.7,0.5-3.9,1.3-5.4c1.4,0,2.5,0.4,2.7,1.6c1.3,0.4,2.3,3.4,3,5c0.5,1.1,0.5,4.4,0.5,5.7
	c0,2.5,2.7,2.7,2.5,0c-0.3-4.9,1-11.8,3.2-15.7c0.9-1.6,5-2.1,7.1-1.2c1.3,0.6,1.5,2.5,1.7,3.6c0.1,0.7,0.4,4.1,0.4,6.2
	c0,2.4,2.3,2,2.3,0.1c0-1.5,0.4-4.2,0.9-7c0.2-1.3,0.6-2.7,1.1-3.4h0.1l10.6,0.1h16.5c1.4,0,8-0.5,8,1c3.6,0,4.1,7.8,4.5,10.2
	c0.7,4.1,1.8,8.3,1.8,13.2c-0.2,1.8,2,2.2,2,0c0-4.7,2.2-8.1,4.4-12.1c2.7,5.2,6.8,9.2,6.8,15.8c0,0.8,0.3,4.3,0.2,6.7
	c0,1.3,1.9,1.4,1.9,0.2c0-0.7,0.9-6.2,1.2-7.1c0.2-0.9,0.8-3.4,1.4-4c1.5,3.4,1.9,10.9,1.9,14.3C95.4,57.7,96,62.6,94.3,65.8z"/>
<g>
	<g>
		<path d="M61.9,21.8c-1.1-0.6-2-0.4-4.1,0.2s-3.4,2.3-3.4,2.3l-0.2-0.3c0,0,0.1,0.3,0,0.7c-0.1,0.4-1.8,4.1-1.9,4.2
			c-0.1,0.1-0.7-0.3-0.7-0.3s0,0,0-0.6c0-0.6-0.4-2.1-0.8-1.7c-0.4,0.4-1.2,2.2-1.2,2.2l-1.3-2c-0.6,1.2,0.1,3,0,2.7
			S48,28.7,48,28.7s-1.5-1.6-1.7-2c-0.1-0.2-0.1-0.3-0.1-0.3c0,0,0,0.1-0.1,0.3c-0.2,0.5,0,0.4,0,0.4s-3.2,1.3-4.8,2.6
			c-1.6,1.3-1.3,3.1-1.3,3.1c2.4-1.7,3.4,0.5,3.4,0.5c2.8-1.5,3.7,0,3.7,0s0.5-0.6,1.4-0.6c0.9-0.1,2.3,1,2.3,1s0,0,0.1,0.4
			c0.1,0.4,0.4,0.1,0.4,0.1s-0.2-1.3,0.1-0.5c0.3,0.7,1,1,1,1c1,0.2,1.7,0.5,1.7,0.5l0.4-1.2c0,0,0,0,0.2-0.6c0.2-0.6,0-1.3,0-1.3
			c0.4,0.3,0.9,0.1,0.6-0.1c-0.3-0.2-0.4-0.3-0.4-0.3l0.4-0.3c0.4-1.6,2.6-1.6,2.6-1.6c-0.4-2.2,2.4-4,2.4-4s0,0,0.4-1.3
			c0.4-1.3,1.9-1.7,1.9-1.7S62.9,22.4,61.9,21.8z M49.4,30.2c0,0.1-0.2,0.1-0.4,0c-0.2-0.1-0.3-0.2-0.3-0.3c0-0.1,0.2-0.1,0.4,0
			S49.5,30.1,49.4,30.2z M50.9,29.9C50.7,30,50.5,30,50.5,30c-0.1-0.1,0-0.2,0.2-0.4c0.2-0.1,0.3-0.2,0.4-0.1
			C51.1,29.6,51,29.7,50.9,29.9z"/>
	</g>
</g>
</svg>
