<?xml version="1.0" encoding="utf-8"?>
<!-- Generator: Adobe Illustrator 28.0.0, SVG Export Plug-In . SVG Version: 6.00 Build 0)  -->
<svg version="1.1" id="Layer_1" xmlns="http://www.w3.org/2000/svg" xmlns:xlink="http://www.w3.org/1999/xlink" x="0px" y="0px"
	 viewBox="0 0 100 100" style="enable-background:new 0 0 100 100;" xml:space="preserve">
<g id="gZowdW_00000175289579679857100380000015324048448695317690_">
	<g>
		<path d="M100,24.3c-1.2,1.2-2.4,2.3-3.6,3.4c-2.3,2.2-4.6,4.4-6.9,6.6c-0.3,0.3-0.6,0.4-1.1,0.4c-2.3-0.2-4.7-0.4-7-0.6
			c-4.3-0.3-8.5-0.7-12.8-1c-3.6-0.3-7.2-0.6-10.8-0.8c-2.2-0.2-4.5-0.4-6.7-0.5c-0.1,0-0.1,0-0.2-0.1c0-5,0-9.9,0-14.9
			c1.2-0.1,2.4-0.2,3.6-0.3c6.7-0.5,13.4-1.1,20.1-1.6c4.6-0.4,9.2-0.7,13.7-1.1c0.5,0,0.9,0,1.3,0.4c3.4,3.3,6.8,6.6,10.2,9.8
			C99.8,24.1,99.9,24.2,100,24.3z"/>
		<path d="M48.6,96.7c-2.2,0-4.4,0-6.6,0c0-0.3,0-0.5,0-0.7c0-27.5,0-55,0-82.4c0-0.7-0.1-1.2-0.6-1.7c-1.4-1.6-1.6-4.1-0.5-5.9
			C42,4,44.2,3,46.3,3.5c2.2,0.5,3.8,2.2,4,4.4c0.2,1.6-0.3,3-1.4,4.2c-0.3,0.3-0.4,0.6-0.4,1c0,10.7,0,21.5,0,32.2
			c0,16.9,0,33.7,0,50.6C48.6,96.1,48.6,96.4,48.6,96.7z"/>
		<path d="M39.5,31.9c0,4,0,8,0,12c-0.5,0-1,0.1-1.5,0.1c-4.7,0.4-9.4,0.7-14.1,1.1c-4.8,0.4-9.6,0.8-14.3,1.1c-0.5,0-0.9,0-1.2-0.4
			c-2.7-2.6-5.4-5.2-8.1-7.8c-0.1,0-0.1-0.1-0.3-0.3c0.3-0.2,0.6-0.4,0.8-0.7c2.6-2.5,5.1-4.9,7.7-7.4c0.2-0.2,0.5-0.3,0.8-0.3
			c2.4,0.2,4.8,0.4,7.1,0.6c4,0.3,7.9,0.6,11.9,0.9C32.1,31.3,35.8,31.6,39.5,31.9z"/>
		<path d="M50.8,55.2c0-3.7,0-7.3,0-10.9c0.6-0.1,1.1-0.1,1.7-0.2c5.3-0.4,10.6-0.8,15.9-1.2c3.3-0.3,6.6-0.5,9.9-0.8
			c0.2,0,0.5,0,0.6,0.2c2.6,2.4,5.1,4.9,7.6,7.3c0,0,0.1,0.1,0.1,0.1c-0.6,0.6-1.1,1.2-1.7,1.7c-1.9,1.8-3.8,3.7-5.7,5.5
			c-0.3,0.3-0.6,0.4-1,0.4c-6.4-0.5-12.8-1-19.2-1.5C56.3,55.6,53.6,55.4,50.8,55.2z"/>
	</g>
</g>
</svg>
