<?xml version="1.0" encoding="utf-8"?>
<!-- Generator: Adobe Illustrator 27.9.0, SVG Export Plug-In . SVG Version: 6.00 Build 0)  -->
<svg version="1.1" id="Layer_1" xmlns="http://www.w3.org/2000/svg" xmlns:xlink="http://www.w3.org/1999/xlink" x="0px" y="0px"
	 viewBox="0 0 100 100" style="enable-background:new 0 0 100 100;" xml:space="preserve">
<style type="text/css">
	.{fill-rule:evenodd;clip-rule:evenodd;}
</style>
<g>
	<path class="" d="M64.1,35.9c-7.3,0.2-8-2.4-11-6s-4.9-8.7-3.6-15.7c0.1-0.6,0.1-0.5,0.2-0.8c0-0.3-0.1-0.5-0.3-0.6
		c-1.4-1-2.9-1.8-4.3-2.7c-2.6-3-4.1-2.9-6.3-4.1C34.5,3.8,30,1.9,25.4,0c-0.1-0.1-0.2,0.2-0.2,0.3c-0.2,0.3,0,0.6,0.4,0.9
		c0.2,0.6-1.5,0,0.7,1.7c0.3,0.5-0.6,0.1,1.2,1.4c0.4,0.5-1.4-0.1,1.3,1.7c0.4,0.5-1.2,0,1.3,1.6c0.1,0.7,0.4,1.1,1.5,1.6
		c0.6,0.6-1.2-0.2,1.9,1.9c0.5,0.8,0.8,0,1.1,0.3c0.2,0.2-0.6,0.5,0.3,1c0.3,0.4,0.6,0.7,1,0.9c0.2,0.4,0.2,1.1,0.6,1.1
		c-0.1,0.5-0.2,0.8,0.2,1.9c0,0.7-0.6,1.6,0,2.2c-0.2,0.6-0.4,1.1,0,1.6c0,0.6-0.1,1.3,0,1.9c0.1,0.7,0.2,1.4,0.4,2.1
		c0.1,0.2,0.3,0.2,0.4,0.4c0,0.2-0.2,0.4-0.2,0.7c0,0.2,0.3,0.3,0.3,0.4c0.2,0.5-0.5,1.3,0.5,1.7c-0.2,1.3,0.5,2.3,0.6,3.5
		c0.1,0.9-0.1,1.8,0.1,2.7c0.1,0.2,0.6-0.1,0.7,0.1c0.1,0.2-0.4,0.3-0.4,0.6c0,0.2,0.2,0.4,0.3,0.7c0,0.2-0.3,0.3-0.2,0.5
		c0.1,0.2,0.5,0.1,0.6,0.3c0.2,0.2,0.1,0.6,0.2,0.9c0,0.3,0,0.5,0,0.8c0,0.1,0.3,0.1,0.3,0.2c0,0.1-0.1,0.3-0.1,0.4
		c-0.3,0.4-0.4,0.7,0.1,1.7c0,0.2,0.3,0.4,0.2,0.5c-0.3,0.2-0.8,0.3-1.1,0.4c-0.6,0.2-1.2,0.3-1.7,0.5c-0.6,0.3-1.2,0.5-1.7,0.8
		c-0.3,0.2-0.5,0.6-0.9,0.9c-0.1,0.1-0.3,0.1-0.5,0.1c-2.6-0.1-5.3-0.4-7.9-0.4c-0.2,0-0.2,0.4-0.4,0.5c-0.1,0.1-0.4,0-0.5,0.2
		c-0.2,0.3,0,0.5-0.2,0.8c0,0.1-0.2,0.2-0.2,0.3c-0.1,0.3-0.7,0.3-0.3,1c0,0.2,0.2,0.3,0.1,0.5c0,0.1-0.2,0.2-0.2,0.4
		c0,0.2-0.2,0.5,0,0.7c0,0.2-0.1,0.3-0.2,0.5c-0.1,0.1-0.1,0.2-0.3,0.3c-0.5,0.1-1,0.1-1.4,0.2c-0.1,0,0,0.2-0.1,0.2
		c-0.3,0.1-0.7,0-1,0.1c-0.1,0.1-0.2,0.2-0.3,0.3c-0.1,0.1-0.4,0-0.4,0.2c0.1,0.2,0.5,0.1,0.6,0.4c0,0.2-0.4,0.1-0.4,0.3
		c0,0.2,0.4,0,0.5,0.1c0.1,0.1,0.1,0.2,0.2,0.3c0.1,0.1,0.2,0.2,0.3,0.3c0.2,0.1,0.4,0.3,0.7,0.3c0.2,0,0.4-0.1,0.7-0.1
		c0.1,0,0.1-0.1,0.2-0.1c0.7,0,1.4,0,2,0c0.1,0,0.1,0,0.2,0c0.1,0.1,0,0.3,0.2,0.4c0.3,0.2,0.4,0.4,1,0.4c0.1,0,0.2,0.1,0.3,0.2
		c0.1,0.1,0.2,0.1,0.3,0.1c0.2,0.1,0.3,0.4,0.5,0.5c0.2,0.1,0.4,0,0.6,0.1c0.1,0.1,0.1,0.2,0.2,0.2c0.1,0.1,0.3,0.2,0.5,0.1
		c1.3-0.6,2.6-1.4,3.9-2.1c0.1,0,0.2-0.1,0.3-0.1c0.1,0,0.2-0.1,0.3-0.1c1.7,0,3.5,0,5.2,0c0.7,0,1.3,0,2,0c0.8,0,1.7,0,2.5,0
		c0.2,0,0.4,0,0.6,0.2c0.2,0.3,0.4,0.6,0.6,0.8c0.2,0.3,0.4,0.5,0.6,0.8c0.1,0.1,0,0.2,0.1,0.4c0.1,0.3,0.3,0.5,0.5,0.7
		c0.1,0.1,0.1,0.3,0.1,0.4c0.1,0.3,0.3,0.6,0.4,0.9c0.1,0.1,0.1,0.3,0.2,0.4c0.1,0.2,0.1,0.4,0.2,0.5c0.1,0.3,0.3,0.5,0.4,0.8
		c0.1,0.2,0.1,0.5,0.2,0.7c0.1,0.3,0.1,0.6,0.3,0.9c0,0.1,0.2,0.1,0.2,0.2c0,0.1-0.1,0.3,0,0.4c0.1,0.3,0.4,0.5,0.6,0.7
		c0.1,0.1,0.2,0.2,0.3,0.4c-0.2,0.5,0.1,0.9,0.4,1.1c0,0.1,0.1,0.2,0.1,0.4c0.3,0.5,0.6,1,0.8,1.5c0,0.1,0,0.2,0.1,0.3
		c0.2,0.7,0.5,0.9,0.9,1c0.2,0.2,0.3,0.4,0.4,0.5c0.1,0.1,0.2,0.3,0.3,0.5c0.1,0.1,0.1,0.3,0.1,0.4c0,0.2-0.1,0.4,0,0.5
		c0.1,0.1,0.3,0,0.4,0.1c0.1,0.1,0.2,0.3,0.3,0.5c0,0.1,0,0.3,0,0.5c0,0.1,0.1,0.2,0.2,0.3c0.1,0,0.2,0,0.3,0c0,0,0,0.1,0,0.1
		c0,0.3,0,0.6,0.1,0.9c0,0.2,0.1,0.5,0.2,0.6c0.1,0.2,0.4,0.2,0.5,0.3c0.1,0,0.1,0.1,0.2,0.2c0.1,0.2,0.3,0.4,0.4,0.7
		c0.1,0.1,0.1,0.3,0.2,0.4c0.1,0.1,0.1,0.3,0.1,0.4c0.1,0.2,0.2,0.4,0.3,0.7c0.2,0.6,0.4,1.2,0.6,1.9c0.1,0.4,0.2,0.8,0.2,1.2
		c0,0.2,0,0.5,0,0.7c0,0.1,0.2,0.1,0.2,0.2c0,0.1-0.1,0.2-0.1,0.3c0,0.4,0,0.7,0,1.1c0,0.2,0.3,0.3,0.3,0.4c0,0.2-0.2,0.3-0.2,0.4
		c0,0.4,0,0.7,0,1.1c0,0.1,0.2,0.2,0.2,0.3c0,0.1-0.1,0.2-0.2,0.3c-0.1,0.7-0.1,1.4,0,2.1c0,0.2,0.3,0.2,0.3,0.4c0.1,1-0.1,2,0,2.9
		c-0.1,0.8,0.5,0.3,0.5,0.6c0.2,0.9-0.1,1.8,0.2,2.7c0,0.7,0.6,0.2,0.6,0.4c0.2,0.9,0,1.8,0,2.7c0,0.3,0.1,0.6,0.3,0.9
		c0.1,0.1,0.5-0.1,0.5,0.1c0.3,0.9,0.2,1.9,0.3,2.9c0,0.2,0.2,0.4,0.3,0.6c0.1,0.6,0,1.3,0.1,1.9c0,0.2,0.2,0.4,0.2,0.6
		c0.1,0.2,0.1,0.3,0.2,0.5c0.1,0.3,0.1,0.8,0.4,1c0.1,0.2,0.5-0.1,0.6,0c0.1,0.2-0.2,0.5,0,0.6c0,0.4,0.1,0.9,0.7,0
		c0.8-1.2,1.3-2.5,1.9-3.8c0.7-1.6,1.3-3.2,1.7-4.9c0.4-1.4,0.6-2.9,0.9-4.3c0.5-2.4,1.1-4.8,1.6-7.1c0.1-0.3,0-0.7,0-1.1
		c0-1.7-0.2-3.4-0.2-5.2c0-0.5,0.2-0.9,0.2-1.4c0.1-1.6,0.2-3.2,0.1-4.8c0-0.6-0.2-1.3-0.5-1.8c-1.1-1.8-2.7-3.3-3.8-5.1
		c-1.3-2-2.5-4.2-3.5-6.4c-0.5-1.1-0.7-2.3-0.9-3.4c-0.1-1.2,0-2.4,0-3.7c1-0.3,4.8-2.2,7-3.6c0.6-0.3,1.2-0.7,1.9-1
		c0.3-0.1,0.5-0.3,0.8-0.4c0.2-0.1,0.5-0.2,0.7-0.2c1.2,0,2.4,0.1,3.6,0.3c1.3,0.2,2.6,0.5,3.9,0.9c0.4,0.1,1,0.1,1,0.6
		c0.4-0.1,0.7-0.6,0.6-1c-0.1-0.6-0.6-1.3-1.1-1.6c-0.7-0.4-1.7-0.1-2.5-0.4c-1.4-0.6-2.7-1.5-4-2.3c-0.5-1.2-1.9-1.6-3-1.9
		C66.7,35.6,65.4,35.9,64.1,35.9L64.1,35.9z M31.9,42.9c-0.2,0-1.1,0.3-1.1,0.3c-0.2,0.2-0.4,0.4-0.6,0.5c-0.5,0.3-0.7,0.5-1,1.2
		c-0.1,0.4-0.8,0.5-0.8,0.8c0,0.3,0.7-0.1,0.9,0.2c0.1,0.2-0.4,0.2-0.6,0.3c-0.1,0.1-0.3,0.2-0.2,0.2c0.1,0.1,0.4-0.1,0.4,0
		c0.1,0.1-0.1,0.3-0.2,0.4c0,0.1-0.1,0.3,0,0.3c0.3,0,0.7-0.6,0.8-0.4c0.2,0.3-0.4,0.6-0.4,1c0,0.2,0.1,0.4,0.2,0.5
		c0.3,0.1,0.7-0.1,1.1,0c0.1,0,0.2,0.1,0.2,0.2c0,0.1-0.2,0.3-0.2,0.4c0,0.1,0.1,0.3,0.2,0.4c0.1,0.1,0.3,0,0.5,0
		c0.6,0,1.1-0.1,1.7-0.1c0.3,0,0.5,0.1,0.8,0.1c0.2,0,0.5,0.1,0.7,0c0.5-0.2,0.9-0.6,1.4-0.8c0.3-0.1,0.7-0.2,1.1-0.2
		c0.6-0.1,1.3-0.1,2-0.1c0.5,0,1.1,0.1,1.6-0.1c0.2,0,0.3-0.2,0.4-0.4c0.1-0.2,0.1-0.5,0-0.7c-0.1-0.2-0.3-0.4-0.4-0.6
		c-0.1-0.1,0.1-0.4,0-0.5c-0.2-0.1-0.5,0.1-0.6,0.3c-0.1,0.2,0,0.5-0.2,0.6c-0.3,0.2-0.6,0.2-1,0.2c-0.3,0-0.5,0.1-0.8,0
		c-0.2-0.1-0.3-0.4-0.5-0.5c-0.1,0-0.2,0.2-0.3,0.3c-0.2,0.1-0.4,0.1-0.6,0.1c-0.2,0-0.3-0.2-0.5-0.2c-0.1,0-0.2,0.1-0.3,0.2
		c-0.2,0.1-0.4,0.4-0.6,0.3c-0.2-0.1,0-0.5-0.1-0.7c0-0.1-0.2-0.2-0.3-0.2c-0.1,0-0.2,0.2-0.3,0.3c-0.1,0.2-0.1,0.5-0.3,0.6
		c-0.1,0-0.2-0.2-0.2-0.4c0-0.1,0-0.1,0-0.2c0-0.1-0.1-0.1-0.1-0.1c0-0.1,0-0.3,0-0.4c0-0.1,0.1-0.2,0.2-0.2
		c0.2-0.1,0.5-0.1,0.5-0.3c0.1-0.1-0.2-0.2-0.3-0.3c-0.1-0.2-0.1-0.3,0-0.5c0.1-0.2,0.3-0.4,0.5-0.5c0.2-0.1,0.5,0,0.8-0.1
		c0.1,0-0.1-0.1-0.1-0.1c-0.4,0-0.8-0.1-1.1,0c-0.3,0-0.5,0.2-0.7,0.3c-0.2,0.1-0.2,0.5-0.4,0.4c-0.2-0.1-0.1-0.5,0-0.7
		c0.1-0.2,0.3-0.2,0.5-0.3c0.2-0.1,0.5,0,0.7-0.2c0.1-0.1,0-0.3,0.1-0.4c0.1-0.2,0.7-0.2,0.5-0.2c-0.5-0.2-1.1-0.1-1.6-0.1
		C33,42.8,32.4,42.8,31.9,42.9L31.9,42.9z M78.2,42.8c0.1-0.2,0.1-0.5,0-0.7c-0.2-0.2-0.5-0.4-0.7-0.5c-0.5-0.2-1-0.2-1.5-0.3
		c-0.6-0.2-1.2-0.3-1.8-0.5c-0.7-0.2-1.4-0.4-2.1-0.6c-0.3-0.1-1-0.8-0.9-0.5c0.2,0.4,0.6,0.5,1,0.7c0.6,0.3,1.3,0.4,1.9,0.5
		c0.5,0.1,1,0.3,1.6,0.4c0.3,0.1,0.6,0.2,0.9,0.3c0.2,0.1,0.5,0,0.7,0.1c0.2,0.1,0.4,0.1,0.6,0.2c0.1,0.1,0.2,0.1,0.3,0.3
		C78.1,42.4,78.2,42.5,78.2,42.8L78.2,42.8z M72,39.3c-0.1,0.2,0.3,0.4,0.9,0.4C72.5,39.5,72.3,39,72,39.3z M70.4,38.8
		c0.1-0.3,0-0.6-0.1-0.9c-0.1-0.2-0.2-0.4-0.4-0.4c-1-0.1-2.1,0-3.2,0.2c-0.3,0.1,0.7,0.1,1,0.2c0.2,0,0.3,0,0.5,0.1
		c0.2,0.1,0.2,0.3,0.4,0.4c0.2,0.1,0.4,0.3,0.6,0.3c0.2,0.1,0.5,0.1,0.7,0.1C70.1,38.8,70.4,39,70.4,38.8L70.4,38.8z"/>
</g>
</svg>
