<?xml version="1.0" encoding="utf-8"?>
<!-- Generator: Adobe Illustrator 27.9.0, SVG Export Plug-In . SVG Version: 6.00 Build 0)  -->
<svg version="1.1" id="Layer_1" xmlns="http://www.w3.org/2000/svg" xmlns:xlink="http://www.w3.org/1999/xlink" x="0px" y="0px"
	 viewBox="0 0 100 100" style="enable-background:new 0 0 100 100;" xml:space="preserve">
<g>
	<path d="M76.5,19.5c1.7,0,3,1.3,3,3c0,1.7-1.3,3-3,3c-1.7,0-3-1.3-3-3C73.5,20.8,74.9,19.5,76.5,19.5z"/>
	<path d="M14.5,74.8c2.7-0.7,10.3-3,24.9,0.3c0,0-11-5.3-20.9-3.7c0,0-3.3-3.3-4-5.3c0,0-4-1-3.7-5c0.3-4,14.6-21,20-28.3
		s19.1-14.5,24.2-17.3c2.2-1.2,9.9-3.5,16-4.9c1.3-1.7,3-2.9,5-3.4c2.9-0.6,4.9,2.3,5.5,3.1c2.4,0.7,5.8,1.8,6.8,2.2
		c1.7,0.7,4.8,3.7,4.3,6.7c-0.8,4.4-4,7.3-5.6,9C85.4,29.9,82.6,37,74,41.6c0,0-3.5,8.9-1.2,14.2c2.3,5.3,4,7.6,6.3,13.3
		c0,0,6.7-1,8.7-2.3c0.8-0.5,1.5-1,2-1.4c-0.2-1.4,0.7-2.8,2.2-3.1s2.8,0.7,3.1,2.2c0.2,1.4-0.7,2.8-2.2,3.1c-0.5,0.1-1,0-1.5-0.2
		c-1.7,1.4-4.6,3.8-6.6,4.4l5.7,3.9c1.3-0.7,2.9-0.3,3.6,1c0.7,1.3,0.3,2.9-1,3.6c-1.3,0.7-2.9,0.3-3.6-1C89.2,79,89,78.6,89,78.2
		c-2.5-1.2-7-3.5-8-3.5c-1.3,0-7.7,1-11-1.3c-2.5-1.8-4.7-8.6-5.6-11.7c-0.3-1-0.4-2.1-0.3-3.1c0.2-3.5,0.7-12.3,1.2-15.4
		c0,0-2.7,4-2.7,7c0,0-0.3,0.3-3.7,4.3c-3.3,4-15.6,8.7-15.6,8.7s-10.3-3.3-19,0c0,0,12.3-0.7,19.6,3c0,0,8,3.3,11.6,6.3
		c3.4,2.7,5.7,7.7-0.3,10c-6,2.4-16,4.7-24.9,2.3s-13.3-1.7-13.3-1.7l13,3.7c0,0,7.7,3.2,24.4-1.4c1.4-0.4,2.7-1.1,3.9-2l1.6-1.3
		c3.4,0.3,6.8,0.2,10.2-0.1c0.6-1.4,2.1-2,3.5-1.4c1.4,0.6,2,2.1,1.4,3.5s-2.1,2-3.5,1.4c-0.4-0.1-0.7-0.4-0.9-0.7l-11.6,0.9
		l5.8,2.4c1.1-0.9,2.8-0.8,3.7,0.4c0.9,1.1,0.8,2.8-0.4,3.7c-1.1,0.9-2.8,0.8-3.7-0.4c-0.3-0.3-0.4-0.7-0.5-1.1
		c-2.2-0.6-7.5-2-9.3-2c-2.3,0-9,1.7-17,1.7s-23.3,1-27.6-6S11.9,75.4,14.5,74.8z M60.7,34.1c1.7-2.8,9.7-7.7,12.2-9.1
		c0.9,1.1,2.2,1.8,3.7,1.8c2.5,0,4.5-1.9,4.5-4.4c0,0,0,0,0,0c0-0.4-0.1-0.8-0.2-1.2c0.5-0.5,1.8-1.5,5.5-3.6
		c-2.2,0.5-4.4,1.1-6.5,1.9c-0.9-0.9-2.1-1.4-3.4-1.4C74,18.1,72,20,71.9,22.4c0,0.3,0,0.7,0.1,1c-3,1.5-11.7,7.4-12.8,9.1
		c-1,1.6-6,11.5-6,11.5C56,41.8,58.7,37.4,60.7,34.1z"/>
	<path d="M63.6,75.6c0.2-1.5,1.6-2.5,3.1-2.2c1.5,0.2,2.5,1.6,2.2,3.1s-1.6,2.5-3.1,2.2c-0.3-0.1-0.7-0.2-1-0.4l-3.7,2.2
		c0.7-0.7,0-3.5,0-3.5L63.6,75.6z"/>
	<path d="M85.7,54.1c0.7,1,0.5,2.4-0.5,3.1c-1,0.7-2.4,0.5-3.1-0.5c-0.2-0.3-0.4-0.8-0.4-1.2L77,54.3l3,3.8h0.2c1.2,0,2.2,1,2.2,2.2
		s-1,2.2-2.2,2.2s-2.2-1-2.2-2.2c0-0.2,0-0.4,0.1-0.6l-2.8-2.2c0,0-0.2-0.9-0.7-3.5c-0.3-1.5-0.3-3,0-4.4c0.1-0.9,0.9-1.5,1.8-1.4
		c0.1,0,0.2,0,0.3,0.1c1.2,0.3,3.5,0.7,5.1,1c0.6-1.1,1.9-1.5,3-1s1.5,1.9,1,3c-0.6,1.1-1.9,1.5-3,1c-0.5-0.3-0.9-0.7-1.1-1.3h-4.1
		l4.9,2.9C83.7,52.8,85,53.1,85.7,54.1z"/>
	<path d="M5.2,57.6C6.6,53.1,18.5,40.5,24.7,37c0,0-14.4,20-15.7,23.9C9,60.9,3.9,62,5.2,57.6z"/>
</g>
</svg>
