<?xml version="1.0" encoding="utf-8"?>
<!-- Generator: Adobe Illustrator 27.9.0, SVG Export Plug-In . SVG Version: 6.00 Build 0)  -->
<svg version="1.1" id="Layer_1" xmlns="http://www.w3.org/2000/svg" xmlns:xlink="http://www.w3.org/1999/xlink" x="0px" y="0px"
	 viewBox="0 0 100 100" style="enable-background:new 0 0 100 100;" xml:space="preserve">
<g>
	<path d="M21.6,26.5c-3,0.8-7.6,1.7-7.6,1.7l-5.6-4.7l0.6-0.3c0.3-0.7,1.8-3.3,2.9-4.1c1.2-0.8,1,2.1,0.9,2.9H13
		c1.1-1.1,2.3-2,3.7-2.6c1.3-0.4,0.4,1.8,0.1,2.5h0.4c1.2-0.7,2.6-1.2,4-1.5c1.2,0,0.3,1.3-0.3,2.1c1.4,0.3,2.8,0.8,4.1,1.4
		c2.2,1,5.9-0.1,4.9,1.7C28.8,27.2,24.6,25.7,21.6,26.5z"/>
	<path d="M2.2,25.5c0,0,1.8-2.4,3.1-1.7c1.1,0.5,5.5,5.4,11,7.4c1.9-2,2.9-0.1,3.3,0.8l0.7,0.1h0.2c1.2-2.8,3.2-0.3,3.5,0
		c0.8,0,1.7-0.1,2.6-0.1c1.1-2.6,2.9-0.9,3.4-0.3l1.5-0.1c1.1-2.6,2.8-1,3.4-0.3l1.2-0.1c1.1-2.7,3-0.8,3.5-0.2h1.1
		c1.4-2.1,2.6-0.8,3.2,0c0.7,0,1.3,0.1,2,0.2c1.7-2,2.8-0.2,3.3,0.6c0.8,0.2,1.6,0.4,2.4,0.7c2-1.5,2.8,0.1,3,1.1
		c0.7,0.3,1.4,0.6,2.1,0.9c2-1.4,2.7,0.5,2.9,1.5l1.5,0.9c1.9-1.1,2.5,0.8,2.7,1.7l1,0.6c1.7-1,2.3,0.4,2.6,1.3l0.9,0.4
		c1.8-1.2,2.5,0.3,2.8,1.2c1.6,0.7,3.3,1.1,5.1,1.3c1.9,0,3.3-0.5,4.7,0.2c1.1-0.1,2.1-0.4,3.1-0.9c1.2-0.7,2.7,0.4,3.3,0.5
		c0.6,0.1,6.1,1.5,6.1,1.5c1-0.2,2-0.6,2.9-1.2c1-0.9,4.3,1.6,3.6,2.6c-0.2,0.3-0.6,0.5-1,0.6c0.4,0.9,0.2,2-0.7,2.6
		c0-0.8-0.3-1.6-0.9-2.2c-0.8,0.1-1.5,0.3-2.2,0.6c-0.7,0.3-1.4,0.4-2.1,0.3c-0.1,0.8-0.5,1.4-1.2,1.7c0.1-0.6,0.1-1.3,0-1.9
		c-0.7-0.1-1.5-0.2-2.2-0.1h-0.2c0,0.7-0.1,1.3-0.4,1.9l-0.5-1.7c-1.1,0.3-2,0.6-3.1,0.9c0.1,1,0.1,2.6-0.8,3.3
		c-0.1-1.1-0.3-2.2-0.8-3.2h-0.2c-0.5,0-1,0.1-1.5,0.2c0,0.6-0.2,1.2-0.4,1.8l-0.4-1.5c-0.8,0.3-1.5,0.7-2.3,1
		c-0.1,0.4-0.2,0.8-0.4,1.2l-0.3-1c-0.3,0.1-0.7,0.2-1,0.3c-2.5,0.4-5.8,0.6-7.6,1.4c-1.8,0.8,5.3-0.5,7.1,0.4c0,0-0.6,3.7,3.8,6
		l0.9-1.3l0.1,1.7c0.2,0,1.1,0.2,1.9,0.4l1-1.5l0.1,1.8l0.3,0.1c0.4,0.3,0.7,0.6,1,1L87,60l-0.4,1.7c0.3,0.4,0.6,0.7,0.9,1
		c0.1,0.1,0.3,0.2,0.4,0.3l1.1-2.4c0.4,1,0.5,2.1,0.1,3.1c1.2,0.7,2.8,1.4,3.8,1.8c0.7,0.1,1.4,0.2,2.1,0.1c-0.7-0.3-1.4-0.7-2-1.2
		c-0.8-0.5-1.5-1-2.3-1.5c0-0.8-0.1-1.5-0.4-2.2c-0.4-1.1-3.5-4.9-3.3-6c0.2-1,0.6-2,1-2.9c0.9,1.6,1.9,3.1,3.1,4.4l0.1,0.1l0.8-0.6
		L91.8,57c0.4,0.5,0.8,1.1,1.2,1.7l0.9-0.7l-0.3,1.5c0.3,0.5,0.6,0.9,1,1.3l1.1-0.9l-0.4,1.8c0.3,0.4,0.7,0.7,1.1,1l1-1.6l0.4,2.6
		c1.6,1.1,2.2,2.2,2,3.8c-0.3,1.9-2.6,2.5-5.8,1.8c-3.2-0.6-5.8-2.7-7.2-2.9c-1.4-0.2-11.3-3.9-14.4-4L78,65l2,0.9
		c-2.8,0.5-5.5,0.8-8.3,1c-3,0-6-0.4-8.8-1.2c-1.3-0.4-2.6-0.5-3.9-0.4c-1.7,0.1-4.1,0.2-6.7,0.5c0,0-1.4-3-5.5-1
		c0,0,3.9-0.4,5.2,3.1c0.7,2.1,0.8,4.4,0.2,6.6c0,0,2.4,0.2,2.5,1.6c0,0.9-0.3,1.7-1,2.3c-0.1-0.6-0.3-1.2-0.5-1.8H52
		c-0.4-0.9-1.3-1.4-2.2-1.5c0,0,1.8,1.9,1.7,2.7c-0.1,0.8,0.5,1.7-1.1,2.9c0.1-0.8,0-1.6-0.3-2.4c-0.7-0.5-1.3-1.2-1.8-2
		c0,0,0.5,2-0.4,2.6s-0.3,2.4-0.3,2.4c-0.6-0.6-1.1-1.4-1.3-2.2l-1-2.1c-0.7,0.3-1.4,0.6-2.1,1c-0.7,0.5-1.6,0.8-2.4,0.9
		c-0.5-0.1,0.8-1.3,0.8-1.3c0.9-0.9,1.8-1.8,2.7-2.6c0.5-0.2-0.8-0.5-2-1.5c-1.2-1-3.9-4.2-3.7-7c0.2-2.9,3.9-10,10.2-8.7
		c0,0,2.7-0.9,2.9-2.8c-1.2,0.8-2.6,1.2-4,1.3c-4.3,0.1-8.1,2.8-9.7,6.8l-6.8-1.6c0,0,0.5-2.6-2.6-4.4l-1.9-0.4c0,0,3.2-9.3,3-11.3
		c-0.2-2-0.1-5.6-3.6-6.1c-3.5-0.6-6.2,1.4-8.2,4.3c0,0,6.1-5,8.8-2c1.2,1.1,1.7,2.7,1.3,4.3c-0.7,2.9-3.3,11.8-3.3,11.8
		c-1.6,0.6-3,1.6-4.1,2.9c0,0,5.9-2.5,7.5-1.8c1.6,0.6,2.7,2.2,2,3.9c0.9,1,0.9,2.6,0,3.6c0,0,0-1.7-0.9-2.3l-1-1
		c0,0-0.7-2.3-2.5-1.5c1.1,0.6,2,1.7,2.2,2.9c0,0,1.7,1.6-0.1,2.7c0.1-0.9-0.5-1.8-1.5-2.1l-1.3-0.7c-0.3-0.9-1.2-1.5-2.2-1.5
		c0,0,1.9,1.6,1.6,2.4c-0.2,0.8,1.1,1.9-0.4,2.7c0.1-0.8-0.4-1.6-1.1-1.9c-1.1-0.9-2.1-1.8-3.1-2.8c-0.7-0.9-2.2-0.6-2.5-3.3
		c-0.3-2.8-1.8-3.8-1.4-6.8c0.2-1.8,1-3.4,2.4-4.6c-2.7,1.1-4.1,4.1-3.3,6.9c-1.4-1.8-2.8-3.5-4.4-5.1C8.4,48.1,0.9,43,2,32.5
		l-1.6-3.3C0.1,27.9-0.9,24.4,2.2,25.5z M79.7,45.8c-2.3-1.4-3.5,0.3-3.5,0.3C77.7,47.9,79.7,45.8,79.7,45.8z"/>
	<path d="M60.7,34.7c-0.4-1.4-1.9-2.2-3.3-1.7c0,0,0,0,0,0l-1.5-0.5c0,0-1-3.2-3.9-1.5l-1.7-0.5c0,0-0.9-1.3-1.7-1.4
		c2.8-1.1,5.8-1.1,8.5,0.1c2.5,1.2,4.3,3.5,5,6.1l-0.9-0.2L60.7,34.7z"/>
</g>
</svg>
