<?xml version="1.0" encoding="utf-8"?>
<!-- Generator: Adobe Illustrator 27.9.0, SVG Export Plug-In . SVG Version: 6.00 Build 0)  -->
<svg version="1.1" id="Layer_1" xmlns="http://www.w3.org/2000/svg" xmlns:xlink="http://www.w3.org/1999/xlink" x="0px" y="0px"
	 viewBox="0 0 100 100" style="enable-background:new 0 0 100 100;" xml:space="preserve">
<g>
	<path d="M62.3,18.2c-0.3,3.9-1.1,7.9-1.9,9.2c-0.2,0.4-0.3,0.4-0.4,0.3c-0.2-0.1-0.9-0.1-1.2,0c-0.3,0.1-0.4,0.3-0.3,0.6l0.1,0.2
		L58,28.7c-0.3,0-0.9,0.1-1.2,0.1c-0.3,0-0.6,0-0.7,0.1c-0.1,0.1,1,0.8,1.5,1c0.3,0.1,0.7,0.2,1,0.2c0.5,0,0.5,0,0.7,0.4l0.2,0.4
		l-0.6,1c-0.3,0.6-0.8,1.3-1.1,1.6l-0.5,0.5L57,33.6c-0.2-0.2-0.3-0.3-0.4-0.3c-0.1,0-1.3,1.7-1.7,2.4c-0.1,0.3-0.4,1-0.6,1.6
		c-0.3,0.8-0.4,1.1-0.5,1c-0.3-0.2-1.5,0-2.4,0.5C51,39,50.9,39,50.7,38.9c-0.2-0.1-0.2-0.2-0.2-0.3c0-0.2,0-0.2-0.1-0.1
		c0,0-0.1,0.1-0.1,0.1c-0.1-0.6-0.2-1.2-0.3-1.9l0-0.3c0-0.4,0-0.5,0.1-0.3c0.2,0.2,0.2,0.1-0.1-0.5c-0.2-0.6-0.2-0.6-0.1-0.6
		c0.1,0,0.1,0,0.1-0.1c-0.1-0.1-0.1-0.2-0.2-0.3c-0.1-0.1-0.1-0.2-0.1-0.2c0-0.1,0-0.1,0.1,0c0.2,0.2,0.2,0.1,0.1-0.2
		c-0.1-0.3,0-0.4,0.2-0.2c0.1,0.1,0.1,0.1,0.1,0c0-0.1,0-0.2-0.1-0.2c-0.1,0-0.1-0.1-0.1-0.2c0-0.1,0-0.3-0.1-0.5
		c-0.1-0.2-0.2-0.7-0.3-1.1l0.8-0.8l4.5-13.9c2.5-7.7,4.5-13.9,4.5-13.9c0,0,0.3,0.2,0.5,0.5c0.4,0.4,0.5,0.6,0.8,1.4
		c0.6,1.5,1.2,3.8,1.5,5.9C62.4,12.7,62.5,16.2,62.3,18.2 M60.2,33.9c0,0.1-0.1,0.1-0.3-0.2c-0.1-0.2-0.3-0.3-0.3-0.3
		c0,0,0.1,0.3,0.5,0.8c0.1,0.1,0.1,0.3,0.1,0.5L60,35l-0.4-0.6l-0.4-0.6l0.4-0.9c0.2-0.5,0.4-0.9,0.4-0.9c0,0,0.1,0.2,0.1,0.4
		C60.3,32.8,60.3,33.6,60.2,33.9 M59.8,38.9c-0.1,1.5-0.3,2.9-0.5,3.1c0,0-0.3,0-0.5-0.1c-0.3-0.1-0.5-0.1-0.5-0.1
		c0,0,0.2,0.1,0.4,0.2c0.2,0.1,0.5,0.2,0.5,0.3c0,0.1,0,0.3-0.1,0.5l-0.1,0.4h-0.5c-0.5,0-2.3-0.1-2.7-0.2c-0.2,0-0.3-0.1-0.2-0.2
		c0.1-0.2,0-0.3-0.4-0.4l-0.3-0.1l0.2-0.1c0.3-0.1,0.4-0.3,0.3-0.6c-0.1-0.2-0.1-0.3,0.2-0.4c0.4-0.2,0.4-0.4,0.1-0.8
		c-0.2-0.2-0.2-0.3-0.1-0.4c0.2-0.2,0.2-0.6,0.1-0.9c-0.1-0.3,0.3-1.2,0.7-1.5c0.3-0.3,1-0.6,1.6-0.8c0.2-0.1,0.4-0.2,0.4-0.2
		c0-0.1,0-0.3-0.1-0.5c-0.1-0.4-0.1-0.4,0.3-0.9c0.2-0.3,0.4-0.6,0.5-0.7c0.1-0.2,0.2-0.2,0.2,0c0,0.1,0.1,0.5,0.2,1
		c0.1,0.4,0.2,1,0.3,1.3C59.9,37,59.9,37.3,59.8,38.9 M57.5,45.5c-0.4,0.6-0.8,1.2-1.1,1.4c-0.2,0.2-0.7,0.7-1.1,1
		c-0.4,0.4-0.8,0.7-0.8,0.7c0,0,0-0.4,0-0.9c0-0.9,0-0.9,0.3-1.2c0.3-0.3,0.4-0.5,0.1-0.7c-0.1-0.1-0.3-0.4-0.5-0.7
		c-0.3-0.5-0.4-0.6-0.4-1.2l0-0.6l0.6,0.1c0.4,0,1.3,0.1,2.1,0.2c0.8,0.1,1.5,0.2,1.6,0.2C58.5,43.9,58.4,44,57.5,45.5 M55.7,48.4
		c-0.2,0.5-0.3,0.6-0.8,0.8c-0.5,0.3-0.6,0.2-0.5-0.2c0-0.1,0.3-0.3,0.6-0.4C55.6,48.4,55.7,48.4,55.7,48.4 M54.9,49.8
		c-0.2,0.4-0.9,1.1-0.9,1c0,0,0-0.3,0.1-0.6c0.1-0.6,0.1-0.6,0.5-0.7c0.2-0.1,0.4-0.1,0.5-0.1C55.2,49.3,55.1,49.5,54.9,49.8
		 M53.3,63.1c0.1,0,0.2,0,0.3,0c0.2,0,0.6,0.6,0.7,1.3c0.1,0.6,0.1,0.7,0,1.5c-0.1,0.8-0.2,0.9-0.2,0.6c-0.2-0.6-0.5-1.5-0.8-2.4
		C52.9,63.2,52.9,63,53.3,63.1 M52.8,51c-0.1,0.5-0.1,0.5-0.4,0.7c-0.4,0.2-0.4,0.2-0.6,0c-0.4-0.2-0.9-0.5-1.2-0.5
		c-0.2,0-0.3-0.1-0.3-0.1c0-0.2,0.6-1.5,0.8-1.9c0.2-0.3,0.4-0.6,0.4-0.8c0.1-0.6,0.1-0.6,0.4-0.5c0.2,0,0.4,0,0.5,0
		c0.3-0.1,0.3-0.1,0.4,0.5C52.9,48.8,52.9,49.8,52.8,51 M51.5,54.8c0,0.3-0.2,0.9-0.3,1.4c-0.3,1-0.9,2.2-0.9,2.2
		c-0.1,0-0.6-1.3-0.8-1.8c-0.2-0.6-0.2-1.5-0.1-2.3c0.1-0.7,0.4-2,0.5-2.2c0.1-0.1,0.1,0,0.6,0.3l0.3,0.2l-0.2,0.2
		c-0.1,0.1-0.2,0.3-0.2,0.4c0,0.4,0.6,1,1,1C51.6,54.2,51.6,54.3,51.5,54.8 M42.6,69.5c-0.9,0.8-2.5,2.1-3.4,2.7
		c-0.7,0.5-1.4,0.8-1.8,0.8c-0.1,0-0.1-0.2-0.2-0.5c-0.1-0.4,0-0.6,0.3-1.8l0.4-1.3l0.4,0.1c1.3,0.2,3,0,4.2-0.4
		C43.2,69,43.2,69,42.6,69.5 M37.2,71.5c-0.4-1.6-0.4-1.8-0.2-2c0.2-0.1,0.9-0.1,0.9,0c0,0.1-0.2,0.6-0.3,1.1
		C37.3,71.5,37.2,71.7,37.2,71.5 M40.8,60.9c0.1-0.4,0.2-0.3,0.3,0.1c0,0.2,0,0.2-0.1,0.3C40.7,61.4,40.7,61.4,40.8,60.9 M68.7,29.1
		c-0.1-0.1-0.1-0.1-0.1-0.2c0,0,0.4-0.7,0.8-1.6c1.2-2.2,1.8-3.6,1.8-3.6c0,0-0.2,0.2-0.4,0.4c-0.4,0.6-1.5,1.3-1.9,1.1
		c-0.2-0.1-0.1-0.8,0.3-2.3c0.2-0.7,0.4-1.6,0.5-2.1c0.1-0.5,0.2-1.3,0.4-1.8c0.1-0.5,0.2-1,0.2-1c0,0-0.3,0.5-0.6,1.1
		c-0.5,0.9-0.6,1.2-1,1.6c-0.3,0.2-0.7,0.5-0.9,0.6c-0.4,0.2-0.4,0.2-0.7,0c-0.5-0.2-0.8-0.9-1.7-4.4C65,15,64.3,13,63.7,11.6
		c-0.2-0.5-0.4-1-0.5-1.2c-0.9-3.7-3.1-9.2-4-10.1L59,0l0.1,0.3c0,0.1,0.1,0.9,0.1,1.6l0,1.4l-2.5,7.8c-1.4,4.3-3.4,10.5-4.4,13.8
		c-1.1,3.3-1.9,6-2,6.1c0,0.1-0.1,0.6-0.3,0.4c-0.1-0.2-0.3-0.3-0.3-0.3c-0.1,0-0.3-0.5-0.2-0.5c0.1-0.2-0.7-0.5-1.5-0.9
		c-0.2-0.1-0.3-0.2-0.5-0.2c-0.4-0.3-0.7-0.4-1.1-0.4c-0.7-0.2-1.2-0.1-1.7,0.1c-0.3,0.1-0.4,0.1-0.4,0.1s-0.2-0.1-0.4,0
		c-0.2,0.1-0.3,0.1-0.3,0.2c0,0.1,0,0.1,0,0c0,0.1,0.1,0.2-0.5,0.7c-0.9,0.8-0.7,1-0.8,1.9c-0.1,0.3-0.2,0.9-0.3,1.2
		c-0.1,0.4-0.2,0.6-0.1,0.6c0.1,0,0.1,0.1,0.1,0.4c0,0.2,0,0.5,0.1,0.5c0,0,0,0.1,0,0.3c-0.3,1.5-0.6,3.5-0.7,5.4c0,0,0,0,0,0
		c-0.2,0.1-0.6,0.1-0.7,0.2c-0.2,0-0.4,0.1-0.4,0.1c0,0-0.2,0-0.5-0.2c-0.5-0.2-0.6-0.2-0.1,0c0.4,0.2,0.3,0.4-0.2,0.2L39,40.6
		l0.2,0.2l0.2,0.2L39,40.9c-0.2,0-0.9-0.1-1.6,0c-1.4,0-1.5-0.1-0.3-0.4c0.4-0.1,0.7-0.4,0.6-0.6c-0.1-0.2-0.9-0.2-1.7,0.1
		c-0.7,0.2-1.2,0.5-1.8,1L34,41.3l-1.2-0.2c-1.1-0.2-1.2-0.2-1.5-0.1c-0.5,0.2-1,1.1-1,1.7c0,0.3,0.4,1.2,0.6,1.2
		c0.1,0,0.3,0.1,0.4,0.1c0.1,0.1,0.4,0.1,0.6,0.1c0.2,0,0.4,0.1,0.4,0.1c0,0.1,0.1,0.1,0.2,0c0.1-0.1,0.2-0.1,0.4,0.1
		c0.1,0.1,0.2,0.2,0.3,0.1c0,0,0.2-0.1,0.3-0.1c0.1,0,0.3-0.1,0.4-0.2l0.2-0.2l1.1,0.2c0.6,0.1,1.6,0.2,2.2,0.2
		c2,0.2,2.8,0.3,3.1,0.4l0.4,0.1v0.5c0,0.2,0,0.5-0.1,0.5c0,0-0.1,0.2-0.2,0.5c-0.1,0.2-0.4,0.7-0.6,1c-0.5,0.8-0.7,1.3-0.6,1.9
		c0.1,0.7,0.7,1.9,1,1.9c0.2,0,0.5,0.2,0.6,0.5c0.1,0.1,0.1,0.7,0.2,1.4c0,0.7,0.1,1.5,0.3,2c0.3,1.1,0.3,2,0.3,2.8
		c-0.1,0.6-0.1,0.7-0.3,0.9c-0.3,0.2-0.3,0.4-0.4,1c0,0.3-0.1,0.8-0.2,1.2l-0.2,0.6l-0.6,0.2c-0.8,0.2-1.8,0.8-2.6,1.4
		c-2,1.6-3.4,2.9-3.7,3.2c-0.5,0.6-0.7,1.1-0.7,2.2c0,0.7,0.1,1.2,0.2,2l0.2,1.1l0,3.1c0,1.7-0.1,3.4-0.1,3.7
		c-0.1,0.4-0.1,1.1-0.2,1.8c-0.1,0.6-0.2,1.5-0.3,2c-0.1,0.5-0.2,0.9-0.1,0.9c0.1,0.1-0.2,0.6-0.4,0.9c-0.2,0.2-1.1,0.7-1.6,0.9
		c-0.2,0.1-0.5,0.2-0.8,0.3c-0.2,0.1-0.6,0.2-0.7,0.2c-0.3,0-0.5,0.2-0.5,0.4c0,0.2,0.3,0.4,0.6,0.4c0.1,0,0.4,0.1,0.6,0.1
		c0.2,0.1,0.6,0.1,1.3,0.1c1.1,0,1.1,0,2,0.5c0.2,0.2,0.6,0.3,0.8,0.3c1,0.1,1.4-0.4,1.2-1.4c-0.2-1-0.1-3,0.2-3.3
		c0.1-0.1,0.6-2,0.7-2.8c0-0.2,0.3-1.1,0.5-1.9c0.5-1.5,0.7-2.7,0.7-3.3c0-0.2,0-0.3,0.1-0.3c0.1,0,3.5-2.3,4.5-3
		c0.5-0.4,1.2-0.9,1.6-1.3c0.7-0.6,2.1-1.5,2.2-1.5c0,0,0.2,0.4,0.3,0.7c0.2,0.4,0.6,1.4,1,2.2c0.4,0.8,0.9,1.9,1.1,2.4
		c0.5,1.5,0.9,2.3,1.4,3.2c1,1.9,1.7,2.7,3.3,4c1.4,1.1,2,1.7,3.4,3.4c0.6,0.8,1.7,2,2.4,2.7c1.2,1.2,1.4,1.5,2.1,2.4
		c0.1,0.2,0.6,0.8,1,1.3c0.4,0.5,1.1,1.4,1.5,2c0.4,0.6,0.8,1.2,0.9,1.2c0.1,0.1,0.3,0.4,0.6,0.9c0.3,0.6,0.4,0.8,0.4,1.3
		c0,0.6,0,0.6-0.3,1.3c-0.5,1-0.5,1.7-0.2,2c0.2,0.2,0.8,0.3,1,0.1c0.1-0.1,0.3-0.1,0.6,0c0.1,0,0.2,0,0.3-0.1
		c0.1-0.1,0.2-0.2,0.3-0.1c0.1,0.1,0.2,0.1,0.4,0c0.1-0.1,0.3-0.1,0.4,0c0.1,0.1,0.2,0,0.4-0.1c0.1-0.1,0.2-0.1,0.3-0.1
		c0.2,0.1,0.5-0.1,0.6-0.3c0.1-0.1,0.2-0.4,0.2-0.5c0.1-0.2,0.1-0.3,0.1-0.5c-0.1-0.2-0.1-0.5-0.1-0.7c0-0.3-0.2-0.8-0.4-1.3
		s-0.5-1.1-0.6-1.5c-0.3-0.8-0.3-0.9-1.2-2c-0.6-0.7-0.7-0.9-0.6-1c0-0.2-0.1-0.5-0.7-1.4c-0.4-0.6-0.8-1.3-0.9-1.5
		c-0.1-0.2-0.2-0.4-0.3-0.5c-0.1-0.1-0.6-0.9-1-1.8c-0.5-0.9-1.1-2-1.3-2.4c-0.5-1-1.6-2.4-2.5-3.2c-0.4-0.3-1.3-1.1-2.1-1.8
		c-1.6-1.3-2.2-1.8-2.5-2.5c-0.4-0.8-0.4-1.1-1-5.4c-0.1-1-0.2-1.9-0.2-2c0-0.1,0.1-0.2,0.3-0.3l0.3-0.2l0-0.6
		c0-0.7,0.3-1.7,0.8-2.5c0.4-0.6,0.6-1.2,1.1-2.4c0.2-0.5,0.5-1.2,0.6-1.5c0.4-0.7,0.6-0.7,1.1,0.4c0.2,0.5,0.3,0.7,0.2,1.1
		c0,0.3,0,0.5,0,0.5c0.1,0,0.3-1.3,0.6-3.2c0.3-2,0.3-2.2,0.5-2.2c0.3-0.1,0.7,0.2,0.8,0.5c0.2,0.5,0.2,0.3,0.1-0.5
		c-0.2-1.1-0.4-1.7-0.9-2.1c-0.4-0.4-0.7-0.6-1.5-0.7c-0.4,0-0.4,0-0.8,0.3c-0.7,0.5-1.6,0.9-2.3,1c-0.6,0.1-0.6,0.1-0.8-0.1
		c-0.1-0.1-0.5-1.4-0.7-2.6c0-0.2,0.2-0.3,1-0.8c0.3-0.1,0.5-0.4,0.8-0.7c0.2-0.3,0.5-0.6,0.7-0.8l0.4-0.3l-0.3,0.7
		c-0.2,0.4-0.4,1-0.6,1.4c-0.2,0.4-0.4,0.9-0.6,1.2c-0.7,1-0.3,0.6,0.9-0.8c2.6-3.1,3.9-5,5.5-8.1l0.7-1.4l0.3,0
		c0.2,0,0.4,0.1,0.5,0.2c0.1,0.2,0.2,0.2,0.4,0.1c0.1-0.1,0.4-0.1,0.6-0.1l0.4,0l0,0.4c0,0.2,0.1,0.4,0.1,0.4c0,0,0.7,0,1.4,0
		c1.2-0.1,2.4-0.3,3.2-0.6c0.2-0.1-2.3-1.1-3.2-1.3c-0.4-0.1-0.9-0.2-1.1-0.3c-0.4-0.1-0.8-0.2-0.8-0.1c0,0,0.1,0.2,0.1,0.4
		c0.1,0.3,0.1,0.4,0,0.4c-0.1,0-0.2-0.1-0.3-0.2c-0.1-0.2-0.2-0.2-0.4,0c-0.3,0.1-0.9,0.2-0.9,0.1c0,0,0.1-0.2,0.1-0.4
		c0.1-0.2,0.2-0.7,0.2-1.1c0-0.4,0.2-1.3,0.3-2.1c0.4-2.3,0.4-3.6,0.4-6.5c-0.1-3.5-0.3-5.8-0.4-4.1c-0.1,0.6-0.7,3.3-0.8,3.4
		c-0.1,0.1-0.2-0.8-0.2-1.3c0-0.5,0-0.7-0.2-1.1c-0.1-0.3-0.3-0.6-0.4-0.8C61,29.2,61,29.2,61.2,29c0.1-0.1,0.5-0.4,0.8-0.7
		c0.9-0.8,1.3-1.1,1.4-1.1c0.2,0,1,0.9,1.4,1.4c0.2,0.3,0.4,0.7,0.4,1c0.2,0.6,0.4,0.8,1.1,1c1.1,0.3,1.7,0.1,3-1.2
		c0.7-0.7,0.8-0.9,0.3-0.6C69.3,29.2,68.9,29.3,68.7,29.1"/>
</g>
</svg>
