<?xml version="1.0" encoding="utf-8"?>
<!-- Generator: Adobe Illustrator 27.9.0, SVG Export Plug-In . SVG Version: 6.00 Build 0)  -->
<svg version="1.1" id="Layer_1" xmlns="http://www.w3.org/2000/svg" xmlns:xlink="http://www.w3.org/1999/xlink" x="0px" y="0px"
	 viewBox="0 0 100 100" style="enable-background:new 0 0 100 100;" xml:space="preserve">
<path d="M36.5,65.7c-0.6,0.7-4,1.4-4.9,1c1.5-0.3,2.8-1,4.2-1C36.1,65.6,36.3,65.6,36.5,65.7 M67.5,62.5c-0.2,0.1-0.3,0.4-0.5,0.4
	c-1.5,0.2-2.9,0.5-4.4,0.6c-0.2,0-0.4-0.2-0.6-0.3c0.1-0.2,0.2-0.4,0.4-0.4c0.7-0.1,1.2-0.8,2-0.3c0.1,0.1,0.3-0.1,0.5-0.1
	c0.3,0,0.6,0,0.9,0c0,0,0,0,0,0.1c0.5-0.1,1.1-0.2,1.6-0.3C67.5,62.3,67.5,62.4,67.5,62.5 M32,58c0.9,0.6,2,0.7,2.8,1.3
	c0,0,0.1,0.1,0.1,0.1c0.9-0.2,1.1,0.6,1.5,1c-0.4,0.3-0.8,0.3-1.2,0c-1-0.7-2-1.3-3-2c-0.1-0.1-0.2-0.2-0.3-0.3C32,58.1,32,58,32,58
	C32,58,32,58,32,58 M55.1,52.1c0.2,0.1,0.3,0.4,0.5,0.5c-0.2,0.1-0.4,0.2-0.5,0.3c-0.1,0-0.2,0.1-0.2,0.2c0.1,0.1,0.1,0.2,0.1,0.2
	c0.1,0.3,0.2,0.6,0.1,0.9c0,0.1-0.4,0.3-0.5,0.2c-0.3-0.2-0.6-0.4-0.7-0.7c-0.1-0.3,0-0.8-0.1-1.1c0-0.2-0.2-0.3-0.3-0.5
	c0,0,0,0,0,0h0c0.3-0.1,0.5-0.2,0.8-0.2C54.6,51.9,54.8,51.9,55.1,52.1 M27.9,48.2c0,0.1,0,0.2,0,0.3c-0.5,0.1-0.9,0.2-1.4,0.3
	c-0.2,0-0.4-0.1-0.6-0.2c0.2-0.2,0.3-0.6,0.5-0.6c0,0,0.1,0,0.1,0C26.9,48,27.4,48.1,27.9,48.2 M24.5,48.5c-0.2-0.1-0.5-0.1-0.7-0.1
	c-0.4,0-0.8,0-1.2,0.1c0-0.1,0-0.2,0-0.4c1-0.1,2-0.2,3.1-0.3C25.3,48.7,25,48.8,24.5,48.5 M69.1,41.1c-0.1,0.3-0.2,0.6-0.3,0.8
	c-0.1,0-0.2-0.1-0.4-0.1c0.1-0.3,0.2-0.6,0.3-0.8C68.8,41,69.1,41.1,69.1,41.1 M67.3,38.7C67.3,38.7,67.3,38.7,67.3,38.7
	C67.3,38.7,67.3,38.7,67.3,38.7C67.3,38.7,67.3,38.7,67.3,38.7C67.3,38.7,67.3,38.7,67.3,38.7 M67.3,38.7
	C67.3,38.7,67.3,38.7,67.3,38.7C67.3,38.7,67.3,38.7,67.3,38.7L67.3,38.7z M69.4,39.3c0.1,0.1,0.1,0.4,0.1,0.6
	c-0.2,0-0.5,0.1-0.6,0.1c-0.3-0.2-0.6-0.6-0.9-0.8c-0.2-0.1-0.4-0.2-0.6-0.4c0.1,0,0.3,0,0.4,0C68.3,38.7,68.9,38.9,69.4,39.3
	 M35.8,39.1c-0.2,0.2-0.4,0.4-0.7,0.7c-0.5-0.3-0.8-0.5-1.2-0.7c0.4-0.2,0.8-0.4,1.2-0.5c0,0,0,0,0,0C35.4,38.5,35.6,38.9,35.8,39.1
	 M67.3,38.7c0.2,0.6,0.5,1.3,0.7,1.9c0.1,0.2-0.1,0.4-0.2,0.7c-0.2-0.1-0.4-0.1-0.5-0.2c-0.2-0.3-0.2-0.6-0.4-1
	c-0.1-0.2-0.2-0.3-0.3-0.5c-0.2-0.2-0.4-0.4-0.6-0.6c0.2-0.2,0.4-0.3,0.7-0.5c0.1-0.1,0.2-0.2,0.3-0.2
	C67.1,38.4,67.2,38.6,67.3,38.7 M35.1,38.3c-0.6,0.1-1.1,0.2-1.6,0.3c0-0.1,0-0.1-0.1-0.2c0.1-0.1,0.2-0.3,0.4-0.4
	c-0.3-0.2-0.6-0.3-1-0.5c0.3-0.2,0.5-0.2,0.7-0.2C34.1,37.3,34.5,37.6,35.1,38.3 M68.7,37.6c0.1,0.2,0.4,0.2,0.6,0.3
	c0.1,0.1,0.2,0.4,0.2,0.5c0,0.1-0.3,0.2-0.5,0.2c-0.5-0.1-1.1-0.2-1.8-0.4c0.3-0.2,0.5-0.3,0.7-0.5c-0.3-0.1-0.4-0.2-0.6-0.3
	c0.4-0.3,0.6-0.4,0.8-0.4C68.2,37,68.4,37.2,68.7,37.6 M66.8,38c-0.9,0.7-1.5,0.5-1.6-0.4c0-0.2-0.2-0.4-0.2-0.7c0-0.2,0-0.4,0-0.8
	C65.7,36.8,66.2,37.4,66.8,38 M33.8,33.1L33.8,33.1 M33.8,33.1L33.8,33.1 M33.8,33.2C33.8,33.2,33.8,33.1,33.8,33.2L33.8,33.2
	L33.8,33.2C33.8,33.1,33.8,33.1,33.8,33.2C33.8,33.1,33.8,33.1,33.8,33.2L33.8,33.2C33.8,33.1,33.8,33.1,33.8,33.2 M33.8,33.2
	c0.2,0.2,0.5,0.3,0.7,0.5c0,0.1-0.1,0.1-0.1,0.2c-0.3,0-0.5,0.1-0.7,0.1c0,0.4,0.1,0.7,0,0.9c0,0.1-0.5,0.2-0.6,0.1
	c-0.2-0.2-0.3-0.5-0.5-0.8c0,0,0,0,0-0.1c0-0.8,0-1.1,0.4-1.1C33.3,33,33.5,33.1,33.8,33.2 M72.7,33.3c-0.4,0.2-0.8,0.3-1.3,0.5
	c0-0.1-0.1-0.2-0.1-0.3c0.4-0.2,0.8-0.3,1.3-0.5C72.6,33.1,72.6,33.2,72.7,33.3 M71.6,32.9c-0.5,0.8-1.2,1-2,0.7
	c0.1-0.4,0.9-0.7,1.6-0.7C71.3,32.8,71.5,32.8,71.6,32.9 M34.9,32.1C35,32.3,35,32.6,35,33c-0.4,0-0.8,0.1-1.2,0.1
	c-0.2-0.2-0.4-0.3-0.8-0.6c0.1-0.2,0.3-0.4,0.5-0.5c0.3-0.2,0.5-0.4,0.8-0.4c0,0,0,0,0,0C34.5,31.6,34.8,31.9,34.9,32.1 M32.4,32.5
	c-0.2,0-0.4,0-0.7,0.1c0.4,0.1,0.6,0.2,0.8,0.3c-0.3,0.3-0.5,0.8-1,0.4c-0.1-0.1-0.1-0.5-0.1-0.7c0.1,0,0.1,0,0.2,0
	c-0.2-0.2-0.5-0.4-0.7-0.6c0.3-0.3,0.5-0.4,0.6-0.4C31.8,31.5,32,31.8,32.4,32.5 M75.9,28C75.9,28,75.9,28.1,75.9,28
	c0.3,0,0.4-0.1,0.6-0.1c0.1,0,0.3,0,0.4,0c-0.1,0.5,0.1,0.4,0.3,0.3c0.1,0,0.2-0.1,0.2-0.1c0.2,0,0.3,0.1,0.5,0.2
	c-1.2,0.2-2.3-0.3-3.4-0.4c0-0.1,0-0.2,0-0.3c0.5-0.1,1.1-0.1,1.8-0.2C76,27.8,75.9,27.9,75.9,28 M69,25.9c-0.2,0.2-0.4,0.5-0.6,0.7
	c-0.3-0.4-0.3-0.4,0.2-1.3C68.7,25.5,68.8,25.7,69,25.9 M70.6,26.2c0,0.3,0.6,0.5,1,0.8c-0.9,0-1.7-0.7-2.3-1.8
	C69.7,25.4,70.5,25.1,70.6,26.2 M67.9,25.3c0.1-0.1,0.2-0.1,0.3-0.1c-0.4,1-0.8,1.3-1.5,1.1c-0.1-0.6-0.2-1.3,0.8-1.4
	C67.5,25.4,67.7,25.3,67.9,25.3 M70.1,24.9C70,24.9,70,25,70,25c-0.6,0-1.1-0.1-1.5-0.6c-0.1-0.1-0.1-0.4-0.2-0.6
	c0.1,0,0.2-0.1,0.2-0.1C69,24.1,69.5,24.5,70.1,24.9 M24.3,25c0,0-0.1,0.1-0.1,0.1c-0.2-0.2-0.4-0.3-0.7-0.6c0,0.3,0.1,0.5,0.1,0.8
	c-0.6-0.2-0.7-0.5-0.8-1.2c-0.1-0.7,0.5-0.6,0.8-0.9C24.4,23.5,24,24.4,24.3,25 M48.3,22.9c0.4,0.2,0.7,0.4,1,0.6
	c-0.1,0.1-0.1,0.2-0.2,0.3c-0.4-0.2-0.9-0.3-1.5-0.6C48,23.1,48.2,22.9,48.3,22.9C48.3,22.9,48.3,22.9,48.3,22.9 M27.3,22.4
	L27.3,22.4C27.3,22.4,27.3,22.4,27.3,22.4C27.3,22.4,27.3,22.4,27.3,22.4 M47.6,21.7c-0.6,0.7-0.8,0.7-1.5,0.1
	c0.4-0.1,0.6-0.1,0.8-0.1c0.1,0,0.2,0,0.3,0C47.3,21.7,47.5,21.7,47.6,21.7 M48.7,21.8c-0.3,0.2-0.6,0.3-0.9,0.5
	c-0.1-0.1-0.1-0.2-0.2-0.2c0.3-0.2,0.6-0.4,0.9-0.6C48.5,21.6,48.6,21.7,48.7,21.8 M76.4,21.7c0.2-0.2,0.3-0.4,0.5-0.6l0,0
	c0.3-0.1,0.6-0.2,0.9-0.4C77.7,21.8,77.7,21.8,76.4,21.7 M76.9,21.1C76.9,21.1,76.9,21.1,76.9,21.1c-0.3,0.1-0.5,0.3-0.8,0.4
	c-0.2-0.5-0.2-0.6,0.5-1C76.7,20.7,76.8,20.9,76.9,21.1 M22.6,22.1c0,0.2-0.1,0.4-0.1,0.6c0,0.3,0,0.6-0.1,0.9
	c-0.1,0.3-0.3,0.5-0.5,0.8c-0.6-0.3-0.3-0.8-0.3-1.2c0.1-0.7,0.3-1.4,0.5-2c0.1-0.3,0.3-0.5,0.5-0.7C22.6,21.1,22.6,21.6,22.6,22.1
	 M22.6,20.5L22.6,20.5 M22.6,20.5L22.6,20.5 M65.5,18.4c0.1,0,0,0.4,0,0.7c0.1,0,0.3-0.1,0.5-0.1c0,0,0.1,0,0.2,0
	c0.3,0,0.5,0,0.5,0.5c0,0.1,0.3,0.3,0.5,0.3c0.3,0.2,0.7,0.3,1,0.5c-0.7,0.2-4-1.6-4.4-2.2c0-0.1,0-0.1,0.1-0.2
	C64.4,18,65,18.1,65.5,18.4 M49.8,18.2c0.2,0,0.4-0.1,0.8-0.1c-0.2,0.5-0.3,0.9-0.5,1.4c-0.1,0-0.3,0.1-0.3,0.1
	c-0.1,0.4-0.5,0.5-0.8,0.3c-0.2-0.1-0.1-0.5-0.2-0.8c0-0.1,0.1-0.2,0.1-0.3c-0.3-1-0.2-1,0.7-1.3c0.1,0,0.2,0,0.3-0.1
	C49.9,17.7,49.8,18,49.8,18.2 M87.5,16.3c-0.7,0.5-1.4,1-2.2,1.6c0,0.4-0.9,0.9-1.8,0.7c0.4-0.3,0.8-0.6,1.1-0.9
	c0.3-0.3,0.4-0.8,0.9-1c0.6-0.2,1.1-0.5,1.7-0.7C87.4,16.1,87.5,16.2,87.5,16.3 M83.7,15.9c0.3,0.2,0.5,0.7,0.7,1.1
	c-0.1,0.1-0.1,0.1-0.2,0.2c-0.2,0-0.4-0.1-0.5-0.1c-0.1,0-0.2,0.3-0.3,0.5c-0.2-0.2-0.5-0.4-0.7-0.5c0-0.1,0-0.1,0-0.2
	c0.5,0,0.3-1,0.8-1C83.4,15.8,83.5,15.8,83.7,15.9 M85.5,15.6c-0.3,0.5-0.5,0.9-0.8,1.4c-0.3-0.5-0.5-1-0.1-1.5c0,0,0.1,0,0.2,0
	C85,15.6,85.2,15.6,85.5,15.6 M33.3,15.8c-1.2,0.5-2.5,0.5-3.8,0.6c0.1-0.1,0.3-0.2,0.4-0.2c-0.1-0.1-0.2-0.1-0.4-0.2
	c0-0.1,0-0.2,0.1-0.3c1.2-0.1,2.4-0.1,3.7-0.2C33.2,15.6,33.3,15.7,33.3,15.8 M52.1,17.1c0.1,0.1,0,0.4-0.1,0.7
	c-0.4-0.1-0.8-0.2-1.1-0.3c-0.2-0.1-0.2-0.4-0.4-0.6c0-0.3,0.1-0.8,0.2-1.5C51.2,16,51.7,16.5,52.1,17.1 M53.2,14.8
	c0.2,0.2,0.3,0.4,0.5,0.8c-0.4-0.1-0.7-0.2-1-0.3c-0.1-0.1-0.2-0.2-0.3-0.4c0,0,0.1-0.2,0.2-0.2c0,0,0,0,0,0
	C53,14.7,53.2,14.7,53.2,14.8 M13.7,13.7c0.3,0.2,0.5,0.6,1.1,0.4c0.1,0,0.4,0.2,0.5,0.4c0.1,0.1,0.2,0.3,0.4,0.6
	c0.4-0.6,0.7-0.3,1,0c0.2,0.2,0.4,0.3,0.6,0.6c0.1,0.2,0.2,0.4,0.3,0.6c-0.2,0-0.5,0.1-0.7,0c-1.5-0.9-2.9-1.8-4.5-2.8
	c0.2-0.2,0.4-0.2,0.5-0.2C13.3,13.2,13.5,13.5,13.7,13.7 M35.6,13.1c-0.9,0.4-1.5-0.1-1.9-0.7c0-0.1,0.1-0.1,0.1-0.2
	C34.4,12.6,35,12.9,35.6,13.1 M33.8,13.3c-1.1-0.4-2.1-0.7-3.1-1c0-0.1,0.1-0.2,0.1-0.3C31.7,12.6,33.1,11.9,33.8,13.3 M56.3,12.1
	c0,0.2,0.3,0.4,0.3,0.6c0,0.4-0.1,0.8-0.2,1.5c-0.7-0.6-1.2-1-1.7-1.4c-0.3-0.3-0.2-0.7,0.3-0.9c0.3-0.1,0.5-0.2,0.8-0.2
	c0.1,0,0.2,0,0.2,0C56.2,11.7,56.4,11.8,56.3,12.1 M57.7,10.9c0,0.2,0,0.3,0,0.5c0.2,0.7,0.1,0.8-0.5,0.7c-0.3-0.3-0.4-0.6-0.6-0.8
	c-0.1,0-0.2,0-0.2,0c0.2-0.4,0.4-0.8,0.6-1.2C57.6,10.1,57.8,10.4,57.7,10.9 M56.5,9.2c0.4,0.6,0,1.1-0.4,1.6
	C56.1,10.3,56,9.7,55.9,9C56.2,9.1,56.5,9.1,56.5,9.2 M53.7,8.4c0.4,0.1,0.8,0.3,1,0.5c0.4,0.4,0.6,0.9,0.9,1.3
	c0.2,0.3,0.4,0.7,0.3,0.9c-0.1,0.2-0.5,0.3-0.8,0.4c-0.9-0.1-1-0.3-0.7-1.2c0.1-0.1-0.1-0.5-0.3-0.6c-0.6-0.2-0.6-0.6-0.7-1.1
	C53.4,8.6,53.6,8.4,53.7,8.4C53.7,8.4,53.7,8.4,53.7,8.4 M46.3,94.3c0.5,0.3,1,0.5,1.6,0.8C47.6,94.4,47.1,94.1,46.3,94.3
	 M30.6,91.6c-2-0.5-4-1-6-1.5c-0.2,0-0.4,0-0.6-0.1c0.1,0.8,0.2,1.6,0.2,2.3c0.1,1.9,0.9,2.6,2.9,2.9c1.3,0.2,2.7,0.3,4,0.5
	c1,0.2,1.7-0.3,2.5-0.7c-0.2-0.3-0.3-0.5-0.5-0.7c-0.7-1-1.3-2.1-2-3.1c0,0,0,0,0,0c0,0.3-0.1,0.5-0.4,0.5
	C30.8,91.7,30.8,91.7,30.6,91.6 M76.2,89.2c0.6-0.9,1.2-1.9,1.7-2.8c0.6-1,0.6-2.1,0.5-3.3c-1,0.6-1.5,1.3-1.6,2.3
	c-0.1,1.4-0.6,2.7-1.5,3.9c-0.3,0.4-0.5,0.9-0.8,1.3c0.1,0.1,0.2,0.1,0.2,0.2C75.2,90.3,75.8,89.7,76.2,89.2 M78,80.3
	c-0.2,0.6-0.3,1.1-0.4,1.7C78.4,81.5,78.2,80.9,78,80.3 M22.1,78.4c-1,1.3-1.9,2.6-2.9,3.8c-0.4,0.5-0.3,1.1,0,1.6
	c0.9,1.2,1.9,2.3,2.9,3.5V78.4z M30.1,89.4c-1-3.4-2.7-6.5-4.2-9.6c-0.2-0.4-0.4-0.8-0.7-1.4c-0.1,0.3-0.1,0.4-0.1,0.5
	c-0.5,3-1.1,5.9-1.2,8.9c0,1.1,0.1,1.3,1.1,1.6c1.9,0.6,3.8,1.2,5.7,1.7c0.2,0.1,0.4,0.1,0.6,0.1C30.9,90.6,30.3,90,30.1,89.4
	 M74,85.4c0.7-0.5,1.2-1.1,1.2-2.1c0-1.5,0.3-3,0.4-4.4c0.1-1.1,0.2-2.2,0.3-3.2c-3.6,3-4.7,7.2-5.6,11.7
	C71.7,86.6,72.9,86.1,74,85.4 M46.9,92.6c0.9-0.1,1.9-0.4,2.8-0.8c0.2-0.1,0.4-0.7,0.4-0.7c-0.6-0.5-0.1-1-0.1-1.5
	c0-0.4,0.2-0.8,0.1-1.1c-0.3-1.9-0.2-3.7,0-5.6c0.3-2.3,0.3-4.6-0.6-6.9c-0.5-1.2-0.8-2.4-1.2-3.6c-0.1-0.4-0.4-0.7-0.5-0.9
	c-0.1-1.5-0.3-3.1-0.4-4.6c-0.1,0-0.1,0-0.2,0c-0.1,0.4-0.2,0.8-0.2,1.2c0,0.9,0,1.9,0,2.8c0.1,2,0,3.9-0.6,5.9
	c-0.3,0.8-0.4,1.7-0.3,2.5c0.3,2.3,0.1,4.5-0.1,6.8c-0.1,0-0.1,0-0.2,0v-3.4c-0.1,1.2-0.1,2.4-0.1,3.6c0,0.4,0,0.8,0,1.2
	c-0.2,1-0.6,2-0.8,3c-0.2,1,0.3,1.8,0.5,2.8C45.7,92.7,46.3,92.7,46.9,92.6 M42.4,53.2c-1.4-0.7-1.4-0.7-0.9-1.4
	c-0.3-0.3-0.7-0.6-1.2-1.1c-0.6,0.9-1.2,1.6-1.7,2.4c-0.4,0.6-0.9,1-1.5,1.3c-1.9,0.9-3.8,1.9-5.7,2.9c-1.1,0.6-1.5,1.5-1.3,2.7
	c0.1,1,0.2,2.1,0.1,3.2c-0.2,2-0.4,4-1.4,5.8c-0.4,0.7-0.7,1.6-1.1,2.4c-0.3,0.5-0.2,0.9,0.3,1.2c0.8,0.7,1.7,1.3,2.4,2.1
	c1.4,1.5,2.7,3.1,4.1,4.6c1,1.2,1.6,2.5,1.5,4.1c0,2.2-0.2,4.3-0.3,6.4c0,0.2-0.2,0.4-0.3,0.5c-0.1,0-0.2-0.1-0.3-0.1
	c0-1.9,0-3.8,0-5.7c0-2-0.7-3.5-2.2-4.7c-1.3-1.1-2.7-2.2-4-3.2c-0.5-0.4-1.1-0.8-1.7-1.2c0,0.4,0,0.6,0.1,0.9
	c1.1,3.2,2.4,6.4,3.3,9.6c0.8,3,2.5,5.6,4,8.2c0.1,0.1,0.5,0.3,0.6,0.2c1.1-0.5,2.3-1,3.4-1.5c0.2-0.1,0.3-0.3,0.3-0.5
	c0.1-0.7,0.1-1.4,0.1-2.1c-0.2-0.1-0.4-0.1-0.6-0.2c-0.2-0.1-0.4-0.2-0.6-0.3c0.1-0.2,0.2-0.4,0.2-0.4c-0.2-0.4-0.5-0.7-0.5-0.9
	c0-0.3,0.3-0.6,0.6-0.7c1.1-0.3,1.1-0.3,1.2-1.4c0-0.2,0-0.4,0.1-0.6c0.8-2.4,1.3-4.9,1.5-7.4c0-0.5,0.2-1-0.5-1.2
	c0.4-0.2,0.6-0.2,0.7-0.3c0.2-2.5-0.3-4.7-1.3-7.1c-0.4,0.8-1,0.8-1.6,0.7c-0.2,0-0.5,0-0.7,0c0.5-1,1.6-0.5,2.2-1.2
	c-0.5-2.5-1.4-5-1.9-7.5c0.1,0,0.2,0,0.3-0.1c0.8,2.3,1.6,4.5,2.5,6.8c0.1,0,0.1,0,0.2,0c0.1-1.5,0.2-2.9,0.2-4.4c0.1,0,0.1,0,0.2,0
	c0.1,0.6,0.2,1.2,0.2,1.8c0.1,0,0.1,0,0.2,0C40.8,61.6,42,57.4,42.4,53.2 M62.8,89.8c0.2-0.1,0.4-0.3,0.6-0.4
	c1.9-0.6,3.8-1.2,5.7-1.8c0.5-0.1,0.7-0.4,0.8-0.9c0.1-0.8,0.3-1.6,0.5-2.4c0.5-2.8,1.2-5.4,2.8-7.8c0.9-1.4,1.5-2.9,2-4.5
	c0.1-0.5,0.1-0.8-0.3-1.2c-0.9-0.9-1.7-1.8-2.5-2.8c-0.6-0.6-1.3-1.2-1.7-1.9c-1.1-2-2.2-4.1-3.2-6.2c-0.5-1.2-1.2-2.2-2.3-2.8
	c-1.6-1-3.3-1.9-4.9-2.9c-0.5-0.3-1-0.7-1.4-1.2c-0.9-1.1-1.8-2.3-2.6-3.4c-0.4,0.1-0.7,0.3-0.8,0.3c0.1,0.6,0.6,1.4,0.3,1.7
	c-0.4,0.5-1.1,0.1-1.7-0.2c0.1-0.3,0.3-0.7,0.5-1.1c-0.4,0.2-0.7,0.4-1,0.6c-0.6,0.4-0.6,0.7-0.1,1.1h0l0,0c-0.2,0.3-0.3,0.7-0.5,1
	c-0.2,0.4-0.9,0.5-0.8,1.2c0.1,1,0.1,2,0.1,3c0.1,0.9,0.1,1.9,0.2,2.8c0.3,0,0.5,0,0.7,0c0.4,0.1,0.8,0.3,1.2,0.4
	c-0.3,0.3-0.6,0.5-0.9,0.8c0,0,0.1,0.2,0.1,0.2c-0.3,0.3-0.7,0.6-0.7,0.8c0.1,1.4-0.2,2.9,0.3,4.3c0.2,0.6,0.3,1.3,0.5,2.1
	c0.5-0.6,1-1.1,1.4-1.6c-0.2-0.2-0.4-0.3-0.7-0.6c0.4-0.1,0.6-0.1,0.9-0.2c0.8-0.3,1.7-0.1,2.4-0.8c0.7-0.6,1.6-1.1,2.5-1.6
	c0.2-0.1,0.4-0.1,0.6-0.2c0,0.1,0.1,0.1,0.1,0.2c-0.2,0.1-0.3,0.3-0.5,0.4c-1.4,1.1-2.7,2.2-4.1,3.3c-0.4,0.4-0.5,0.8-0.5,1.2
	c0.6,0.3,1.2,0.5,1.7,0.7c0.2,0.1,0.3,0.4,0.4,0.4c1-0.1,1.4,0.8,2.1,1.2c0.1,0.1,0.1,0.3,0.1,0.5c-0.2,0-0.3,0.1-0.4,0
	c-0.2-0.1-0.6-0.2-0.7-0.3c-0.3-0.8-1.5-0.2-1.7-1.2c-0.8,0.2-1.2-0.4-1.6-0.9c-0.5,2-1.1,3.9-0.7,5.9c0.1,0.3,0,0.7,0.2,0.9
	c0.4,0.5,0.5,1.1,0.5,1.7c0,1.6,0.1,3.3,0.1,5c0,0.7,0.2,1.1,1,1.1c0.3,0,0.6,0.3,0.9,0.5c-0.2,0.2-0.5,0.5-0.7,0.7
	c0.6,0.5,0.7,0.8,0.4,1.2c-0.2,0.2-0.5,0.3-0.8,0.6c-0.2,0.2-0.4,0.4-0.4,0.6c-0.1,1.3-0.1,2.6,0,3.9c0,0.2,0.2,0.4,0.3,0.5
	c2.3,0.7,4.6,1.4,6.9,2c0.2,0.1,0.5,0.1,0.8,0c2.6-0.6,5.1-1.2,7.7-1.8c0.2-0.1,0.5-0.3,0.6-0.5c0.8-1.5,1.5-3,2.3-4.6
	c0.1-0.2,0.1-0.4,0.2-0.7c-1.4,0.6-2.7,1.1-4,1.6c-0.4,0.1-0.7,0.3-1.2,0.6c-0.2,0-0.6-0.1-0.9,0c-1.4,0.4-2.8,0.8-4.2,1.2
	c-0.6,0.2-1.1,0.3-1.7,0.4C62.9,89.9,62.9,89.8,62.8,89.8 M42.7,48c-0.1-0.1-0.2-0.2-0.3-0.3c-0.2,0.2-0.4,0.3-0.6,0.5
	c0.2,0.2,0.4,0.4,0.6,0.6C42.5,48.6,42.6,48.3,42.7,48 M55.8,49c0-0.1,0.1-0.2,0.1-0.3c-0.4-0.3-0.8-0.5-1.1-0.8
	c-0.2-0.2-0.4-0.4-0.5-0.7c-0.2-0.4-0.2-0.8-0.4-1.2c-0.2-0.4-0.6-0.4-0.8,0.1c-0.1,0.2-0.2,0.5-0.2,0.8c0,0.8,0,1.6,0,2.6
	C53.9,49.3,54.8,49.2,55.8,49 M37.7,30c0,0.1,0,0.1,0,0.2h2.5C39,29.2,38.9,29.2,37.7,30 M64.1,31c-1.2-0.6-2.5-1.2-3.8-1.8
	c-1.4,1-1.5,1.1-0.7,2.7c0.1,0.1,0.1,0.2,0.2,0.4c0.2,0.5,0.6,0.7,1.1,0.5c0.4-0.2,1.2-0.2,0.8-1.1c0-0.1,0-0.4,0.1-0.4
	c0.4-0.1,0.9-0.3,1.4-0.2c0.3,0.1,0.4,0.1,0.5,0.1C63.7,31.3,63.9,31.3,64.1,31 M45.1,29.4c-1.4-1.6-2.6-3.1-3.8-4.6
	c0,0.3,0.1,0.8,0,1.3c0,0.2-0.4,0.5-0.6,0.6c-0.1,0-0.4-0.3-0.5-0.5c-0.1-0.3,0-0.7,0-1.1c-0.3,0.3-0.6,0.5-0.9,0.8
	c-0.1,0.1-0.1,0.2-0.1,0.3c0,1.2,0.3,2.3,1.6,2.8c0.3,0.1,0.6,0.2,0.8,0.4c0.4,0.3,0.8,0.4,1.2,0.4C43.6,29.8,44.3,29.5,45.1,29.4
	 M40.7,24.9c0.2-0.3,0.3-0.6,0.4-0.8c0-0.1-0.1-0.2-0.1-0.4c-0.3,0.5-0.5,0.9-0.7,1.3C40.4,25,40.6,25,40.7,24.9 M42.3,20.7
	c-1,0.4-1,0.5-0.4,1.2C42.1,21.5,42.2,21.1,42.3,20.7 M56.9,28.7c1.6-1.1,3.2-2.2,4.9-3.4c-1-0.9-1.8-1.6-2.7-2.4
	c-0.8-0.7-1.6-1.4-1.6-2.6c0,0-0.1-0.1-0.1-0.1c-0.5,0.3-0.9,0.5-1.4,0.8c-0.2,0.1-0.3,0.4-0.3,0.6c0.1,2.2,0.1,4.3,0.2,6.5
	c0,0.4,0.3,0.6,0.6,0.6C56.7,28.8,56.8,28.8,56.9,28.7 M39.2,19.5c-0.1,0-0.1,0-0.2,0.1v4c0.4-0.1,0.8-0.2,1.2-0.4
	c-0.1,0.3-0.2,0.6-0.2,0.9c0.4-0.1,0.6-0.2,1-0.3C40.3,22.3,39.8,20.9,39.2,19.5 M41.3,20.1c-0.3-0.5,0.3-0.5,0.5-0.7
	c0.5-0.4,0.4-1.2-0.1-1.5c-0.6-0.3-1.2-0.5-1.9-0.8c0,0.3-0.2,0.5-0.1,0.7c0.4,0.8,0.8,1.5,1.3,2.3c0,0,0,0,0.1,0
	C41.1,20.2,41.2,20.1,41.3,20.1 M39.9,6.6c1.2,3.6,2.3,7.2,3.4,10.9c0,0.1,0.1,0.2,0.2,0.4c2-1.1,3.9-2.2,5.8-3.3
	c0.2-0.1,0.3-0.2,0.5-0.3c0.1,0,0.3,0,0.4,0.1c0,0.1,0,0.3-0.1,0.4c-0.2,0.2-0.4,0.2-0.6,0.4c-1.6,1-3.1,2.1-4.8,3.1
	c-0.6,0.4-1,0.8-0.9,1.6c1,0.6,1,0.6,1.1,1.5c-0.3,0-0.5,0-0.9-0.1c0.1,0.8,0.1,1.6,0.9,2.2c1,0.7,1.9,1.5,2.9,2.2
	c1.5,1.1,3.1,2.1,4,3.8c1-0.5,1.5-2,1-2.9c0,0,0,0,0-0.1c-0.5-1.3-1.4-2.2-3-1.9c-0.7,0.1-1.4-0.1-2.1-0.1c-0.2,0-0.5-0.1-0.7-0.1
	c0-0.1,0-0.2,0-0.3c1.3,0.1,2.5,0.2,3.8,0.2c-0.3-0.3-0.4-1.1-1-0.4c-0.3-0.6-0.7-1.1-1-1.6c1.8,0.2,2.7,1.9,4.3,2.5
	c0-0.8,0.1-1.7,0.2-2.6c0-0.4-0.1-0.7-0.5-0.7c-0.3-0.1-0.5-0.1-0.8-0.2c0.1-0.1,0.2-0.2,0.3-0.4c-0.2,0-0.5,0-0.7,0
	c0-0.2,0.1-0.3,0.1-0.5c-0.2,0-0.3,0-0.4,0.1c-0.2,0.1-0.4,0.4-0.6,0.4c-0.2,0-0.5-0.3-0.6-0.5c-0.1-0.2,0-0.5,0-0.8c0,0,0,0,0,0
	l0,0c0,0,0,0,0,0c0,0,0,0,0,0c0,0,0,0,0,0c0,0,0,0,0,0c0.3-0.3,0.5-0.6,0.8-0.9c0.2,0.5,0.4,0.9,0.6,1.4c0.1,0,0.2-0.1,0.3-0.1
	c-0.1-0.3-0.2-0.5-0.3-0.8c-0.1-0.3-0.1-0.5-0.1-0.8c0.3,0,0.7,0,0.9,0.1c0.3,0.2,0.7,0.5,0.3,1c-0.1,0.1-0.1,0.4,0,0.5
	c0.3,0.4,0.6,0.7,1,1c1.1-0.6,2.2-1.2,3.3-1.7c0.4-0.2,0.6-0.4,0.5-0.9c-0.2-1-0.3-2.1-0.4-3.1c0-0.2,0-0.4,0-0.6
	c0.1,0,0.2,0,0.3-0.1c0.3,1.3,0.6,2.5,1,3.8c0.1,0,0.1,0.1,0.2,0.1c0.2-0.3,0.5-0.6,0.6-0.9c0.4-2.2,0.7-4.4,1-6.6
	c0.2-1.2,0.3-2.4,0.5-3.6c-0.3-0.1-0.5-0.1-0.7-0.2c0-0.1,0-0.1,0-0.2c0.3,0,0.7-0.1,1,0c0.2,0.1,0.2,0.5,0.2,0.7
	c-0.1,2.7-0.1,5.3-0.2,8c0,0.4,0,0.7,0,1.2c0.9-0.3,1.8-0.5,2.6-0.8c0.2,0,0.4-0.2,0.5-0.1c0.8,0.5,1.6,0.5,2.5,0.5
	c0.1,0,0.3,0,0.4,0c0.1,0,0.2,0,0.3,0c0,0.1,0,0.1,0,0.2c-0.8-0.1-1.7-0.1-2.5-0.3c-0.5-0.1-0.8-0.1-1.2,0.2
	c-1.4,0.9-2.8,1.7-4.1,2.5c-0.7,0.4-0.8,1.7-0.1,2.2c1.5,0.9,3,1.8,4.5,2.7c0.2,0.1,0.5,0.1,0.7,0c2.6-1.3,5.2-2.7,7.7-4
	c1.1-0.5,2.1-1,3.2-1.5c0.2-0.1,0.4,0,0.6,0.1c0,0.1,0,0.1,0,0.2c-0.8,0.5-1.7,1-2.8,1.7c0.6,0.2,1,0.4,1.5,0.6
	c0.5,0.2,1.2,0.2,1.1,1c0,0.1,0.1,0.2,0.2,0.4c0.1,0.1,0.2,0.3,0.3,0.4c-0.2,0-0.4,0.1-0.5,0.1c-0.3-0.1-0.7-0.3-1.1-0.5
	c0.2-0.1,0.3-0.1,0.4-0.2c0,0,0,0,0-0.1c-0.3-0.2-0.5-0.5-0.8-0.7c0,0-0.1-0.1-0.2-0.1c-0.3-0.2-0.6-0.7-0.8-0.7
	c-0.4,0-0.8,0.3-1.2,0.6c-2.8,1.7-5.7,3.4-8.5,5.2c-1,0.6-1.8,1.6-2.6,2.4c0.8,0.4,1.5,0.8,2.3,1.1c0.3,0.1,0.5,0.3,0.8,0.4
	c0.5,0.2,1,0.5,1.6,0.1c2.9-1.4,5.8-2.8,8.7-4.3c0.5-0.2,1-0.6,1.4-0.9c1.6-1.3,3.2-2.7,4.8-4c0.2-0.2,0.4-0.4,0.6-0.6
	c-0.6-0.6-1.8,0-2.1-1c0.3-0.1,0.5-0.2,0.9-0.3c0.4,0.2,0.9,0.6,1.5,0.9c0.2-0.2,0.5-0.4,0.7-0.6c0,0,0.2,0.1,0.3,0.2
	c-0.7,0.7-1.4,1.3-2.1,2c-1.6,1.5-3.2,3.1-4.8,4.5c-0.9,0.8-1.9,1.3-2.9,1.9c-2.1,1.3-4.3,2.7-6.5,4c0.1,0.2,0.2,0.4,0.3,0.5
	c-0.5,0.1-1,0.1-1.5,0.2c0,0.1,0,0.2,0,0.3c0.2,0,0.5,0,0.7,0.1c0.2,0.1,0.3,0.2,0.5,0.3c-0.2,0.2-0.3,0.4-0.5,0.4
	c-0.6,0.1-1.2,0-1.8,0.1c-0.2,0-0.5,0-0.7,0.1c-1.5,1.3-3.3,1.2-5.1,1.7c-0.3,0.1-0.7,0.1-1,0.2c-0.3,0.1-0.6,0.4-0.9,0.6
	c0,0.1,0.1,0.2,0.1,0.2c0.9-0.1,1.9-0.2,2.8-0.2c0.3,0,0.7,0.2,0.9,0.4c0.7,0.8,1.2,1.7,1.9,2.6c0.3,0.5,0.3,0.8-0.3,1.1
	c-0.7-0.9-1.5-1.7-2.2-2.6c-0.3-0.4-0.6-0.5-1-0.4c-0.8,0.2-1.5,0.3-2.3,0.5c-0.2,0.1-0.5,0.3-0.5,0.5c-0.2,0.9,0,1.7,0.5,2.4
	c1.7,2.6,3.5,5.1,5.3,7.7c0.4,0.6,0.6,1.2,1.1,1.7c0.3,0.4,0.8,0.7,1.2,1c1.2,0.9,2.5,1.8,3.7,2.7c0.7,0.5,1.4,1,2.1,1.5
	c0.9-1,1.7-2.1,2.1-3.5c0.4-1.3,0.9-2.6,1.4-3.8c0.1,0,0.1,0,0.2,0c0,0.2,0,0.4,0,0.6c-0.4,1.6-0.7,3.2-1.2,4.7c-0.4,1.1-1,2-1.5,3
	c-0.2,0.4-0.2,0.8,0,1.2c0.7,1.4,1.3,2.7,1.9,4.1c0.9,2.3,2.4,4.3,4,6.1c1.1,1.3,2.3,2.7,3.3,4.1c0.4,0.6,0.4,1.4,0.6,2.1
	c0.2,1.2,0.4,2.3,0.6,3.5c0.2,0.8,0,1.6-0.4,2.3c-0.2,0.4-0.2,0.8-0.3,1.3c-0.1,1.4-0.2,2.8-0.4,4.2c0,0.2-0.2,0.4-0.3,0.6
	c-0.9,1.2-1.9,2.5-2.8,3.6c-0.7,0.9-1.7,1.5-2.8,1.9c-0.4,0.1-0.7,0.5-0.9,0.8c-0.7,1-1.4,2-2.1,2.9c-0.2,0.3-0.6,0.4-0.9,0.5
	c-1.6,0.5-3.3,0.9-4.9,1.4c-0.5,0.2-1.1,0.6-1.7,0c0.3-0.1,0.5-0.3,0.7-0.4c1.6-0.5,3.1-1.1,4.7-1.6c1.1-0.3,1.8-1,2.4-2
	c0.2-0.3,0.4-0.7,0.6-1.1c-2.2,0.4-4.2,0.8-6.3,1.2c0,0.1,0,0.1,0,0.2c1.2,0.1,2.4,0.2,3.6,0.3c0,0.1,0,0.2,0,0.3
	c-2.4,0.6-4.8,0.8-7.3,0.7c0.3,0.2,0.6,0.4,0.9,0.6c0,0,0,0.1-0.1,0.1c-1.4-0.3-2.7-0.5-4.1-0.8c0,0.1,0,0.2,0,0.2
	c1.9,1.3,4.2,0.8,6.3,1.4c-0.4,0-0.8,0-1.2,0c-0.4,0-0.8,0-1.2,0c-0.4,0-0.8,0.1-1.1,0.2c-0.1,0.6-0.3,1.1-0.4,1.5
	c-0.1,0-0.2,0-0.3,0c-0.5-1.5-1.8-1.6-3.1-1.7c-1.1-0.2-2.3-0.3-3.4-0.4c-0.3,0-0.6,0.1-1,0.1c0.8,1.6,2.4,1.2,3.6,1.9
	c0,0.1,0,0.1,0,0.2c-1.5-0.3-3.1-0.6-4.7-0.9c0.1,0.3,0.2,0.4,0.5,0.8c-0.9-0.2-1.6-0.4-2.3-0.6c-1-0.3-1.8-0.2-2.6,0.4
	c-0.2,0.2-0.3,0.5-0.5,0.7c-0.7-0.4-0.7-0.5,0.1-1.7c-1.2-0.9-3.7-0.3-5.4,0.9c0.6,0.4,1.2,0.9,1.8,1.3c0,0.1,0,0.1-0.1,0.2
	c-0.8-0.2-1.6-0.3-2.2-0.7c-1.3-0.8-2.6-0.6-3.9-0.5c-0.5,0-1,0.1-1.5,0.2c0-0.1,0-0.1-0.1-0.2c0.1-0.1,0.3-0.2,0.4-0.2
	c1.1-0.3,2.3-0.6,3.4-0.9c0.2-0.1,0.4-0.3,0.6-0.4c-0.2-0.2-0.4-0.4-0.6-0.4c-1.2-0.4-2.3,0.1-3.3,0.7c-0.2,0.1-0.4,0.3-0.7,0.4
	c-0.4-0.9-1.2-0.9-2-0.8c-1.7,0.4-3.5,0.3-5.2,0.3c-0.5,0-1,0-1.5,0c-0.2,0-0.4,0-0.6,0c-0.1,0-0.1-0.1-0.2-0.2
	c0.4-0.5,1-0.4,1.5-0.5c0.5-0.1,1-0.2,1.5-0.4c-0.8,0-1.6-0.1-2.4-0.1c-1.6-0.1-2.7-0.9-3.5-2.2c-0.4-0.7-0.4-1.8-0.5-2.7
	c-0.1-0.8-0.2-1.6-0.3-2.3c0-0.3-0.2-0.5-0.4-0.7c-1.1-1.2-2.2-2.5-3.3-3.7c-0.9-0.9-1.2-3-0.3-4.2c2.4-3.6,4.8-7.2,7-10.9
	c0.8-1.3,1.1-2.9,1.3-4.4c0.2-2,0.1-4.1,0.2-6.2c0-0.4-0.1-0.6-0.5-0.8c-0.9-0.5-1.8-1-2.7-1.6c-0.3-0.2-0.5-0.5-0.6-0.8
	c-0.3-0.9-0.4-1.8-0.6-2.7c-0.1-0.3-0.1-0.5-0.1-0.8c0.1,0,0.1-0.1,0.2-0.1c0.1,0.2,0.3,0.4,0.4,0.6c0.3,0.8,0.6,1.6,1,2.4
	c0.1,0.3,0.4,0.5,0.7,0.6c0.7,0.3,1.5,0.4,2.3,0.6c0.2,0,0.5,0,0.6-0.1c0.4-0.3,0.8-0.6,1.2-0.9c2-1.3,4-2.7,5.9-4
	c0.3-0.2,0.4-0.5,0.8-0.9c-0.9-0.3-1.7-0.6-2.5-0.9c-1.1-0.4-2.1-0.7-3.2-1.1c-0.2-0.1-0.4-0.3-0.6-0.4c0-0.1,0.1-0.2,0.1-0.2
	c1.2,0.3,2.3,0.7,3.5,1c0.6,0.2,1.2,0.4,1.8,0.5c0.7,0.2,1.3,0,1.7-0.7c0.8-1.3,1.6-2.6,2.4-3.9c0.2-0.4,0.3-0.7,0.1-1
	c-0.6-1.2-1.1-2.5-1.6-3.7c-0.1-0.2-0.2-0.4-0.2-0.6c0.1,0,0.1-0.1,0.2-0.1c0.1,0.2,0.3,0.3,0.4,0.5c0.6,1.2,1.3,2.4,1.9,3.7
	c0.1-0.1,0.3-0.2,0.3-0.4c1-1.6,2-3.1,3-4.7c0.1-0.2,0.2-0.4,0.2-0.5c-0.2-0.7,0.2-1.1,0.5-1.6c0.1-0.1,0.1-0.3,0.1-0.5h-1.8
	c0,0,0-0.1,0-0.1c0.2-0.1,0.4-0.1,0.6-0.2c-0.4-0.2-0.7-0.3-1-0.4c0-0.1,0-0.1,0-0.2c0.6,0,1.2-0.1,1.9-0.1
	c-0.1-1.2-0.3-1.5-1.3-1.6c-3.3-0.4-6.3-1.6-9.4-2.7c-0.6-0.2-1.1-0.3-1.8,0c-0.7,0.4-1.6,0.6-2.4,0.8c0-0.1-0.1-0.1-0.1-0.2
	c0.2-0.1,0.4-0.3,0.6-0.4c0.4-0.2,0.8-0.5,1.2-0.6c0.2-0.1,0.4,0.1,0.8,0.2c-0.1-0.2-0.2-0.5-0.3-0.5c-0.9-0.2-1.2-0.8-1.3-1.6
	c-0.6-2.8-2-5-4.5-6.5c-0.7-0.4-1.4-1-2.1-1.5l0,0c0,0,0,0,0,0h0h0c0,0,0,0,0,0c0,0,0,0,0-0.1c-1-0.8-2-1.6-3.1-2.5
	c-0.2-0.2-0.4-0.3-0.6-0.5c0-0.1,0.1-0.1,0.1-0.2c0.2,0.1,0.4,0.2,0.6,0.3c1.8,1.2,3.5,2.4,5.3,3.6c0.7,0.5,1.6,0.8,2.3,1.1
	c0,0-0.2,0.1-0.4,0.1c0,0.1,0,0.1,0,0.1c1.1,0.5,1.6,1.6,2,2.6c0.4,1,0.7,2.1,1.4,2.8c0.7,0.6,1.9,0.7,2.9,0.9
	c0.8,0.2,1.6,0.4,2.3,0.7c1.1,0.4,1.8,0.1,2.5-0.9c-0.6-0.2-1.2-0.4-1.8-0.5c0-0.1,0-0.1,0-0.2c0.6,0.2,1.3,0.3,2,0.5
	c0-1.8,0-3.6,0-5.4c0-1.7,0.5-3.5,0.3-5.1c-1-0.3-1.9-0.5-2.8-0.8c0-0.1,0-0.2,0-0.3c0.4,0,0.9-0.1,1.3,0c0.5,0.1,0.6,0.1,0.6-0.5
	c-1.2,0.2-1.5-0.4-1.8-1.9c0.4,0.2,0.7,0.3,0.9,0.4c-0.1-0.4-0.2-0.9-0.2-1.3c0-0.2,0.1-0.3,0.1-0.5c0.2,0.1,0.4,0.2,0.4,0.3
	c0.3,0.5,0.6,1,1,1.7c0.1-0.6,0.1-1.1,0.2-1.5c0.1-0.3,0.4-0.5,0.6-0.7c0,0,0.4,0.1,0.4,0.2c0.1,0.3,0.1,0.7,0,1
	c0,0.1-0.2,0.2-0.3,0.3c0.3,0.3,0.6,0.5,0.7,0.7c0,0.2-0.3,0.5-0.6,0.8c0.8,0.2,1.6,0.5,2.7,0.8c-0.9-3.6-1.7-7.1-2.6-10.6
	c0.1,0,0.2-0.1,0.2-0.1C39.6,6.2,39.8,6.4,39.9,6.6 M35.2,3.7c0.6,0,1.3,0.2,1.9,0.3c0,0.1,0,0.1,0,0.2c-0.2,0.1-0.3,0.2-0.6,0.3
	c0.3,0.1,0.5,0.2,0.7,0.3c-0.2,0.1-0.4,0.4-0.6,0.4c-0.3,0-0.6-0.1-0.9-0.2c-0.2-0.1-0.4-0.3-0.5-0.4c-0.1-0.1-0.3-0.3-0.3-0.4
	C34.9,3.9,35.1,3.7,35.2,3.7C35.2,3.7,35.2,3.7,35.2,3.7 M39.4,3.3c0.1,0.6,0.1,1.3,0.1,2.1c-0.6-0.3-1-0.5-1.4-0.7
	c0.1-0.2,0.2-0.3,0.1-0.4C38.2,4.2,37.9,4,38,3.9c0.2-0.4,0.5-0.7,0.8-1c0,0,0,0,0,0C38.9,3,39.4,3.2,39.4,3.3 M35.9,2.6
	c0.4,0.3,0.8,0.6,1.2,1c0,0.1-0.1,0.1-0.1,0.2c-0.5-0.2-1.1-0.3-1.6-0.5c-0.2-0.1-0.2-0.4-0.3-0.5c0.2,0,0.5-0.1,0.7-0.1
	C35.8,2.6,35.9,2.6,35.9,2.6 M37.6,1.4c0,0.1,0.3,0.4,0.4,0.4c0.5-0.3,0.6,0.2,0.5,0.4c-0.2,0.5-0.4,0.9-0.7,1.3
	c0,0-0.4-0.1-0.5-0.2c-0.2-0.4-0.2-1-0.4-1.4c-0.2-0.4-0.5-0.8-0.3-1.3c0.1-0.2,0.2-0.4,0.3-0.7C37.3,0.4,37.8,0.8,37.6,1.4"/>
</svg>
