<?xml version="1.0" encoding="utf-8"?>
<!-- Generator: Adobe Illustrator 27.9.0, SVG Export Plug-In . SVG Version: 6.00 Build 0)  -->
<svg version="1.1" id="Layer_1" xmlns="http://www.w3.org/2000/svg" xmlns:xlink="http://www.w3.org/1999/xlink" x="0px" y="0px"
	 viewBox="0 0 100 100" style="enable-background:new 0 0 100 100;" xml:space="preserve">
<g>
	<path d="M96.6,75.4c0,0-1.9,13.8-3.3,0.9c0,0-2.8,17-2.8-0.1c0,0-4.7,19.6-3.3,1.9c0,0-3.6,13.9-3.3-0.4c0,0-3.3,9.2-3-1.5
		c0,0-3.4,3.4-2.1-5c0,0-3.9-0.3-1.8-4.1c0,0-1.9,0.1-1.3-1.6c0,0-3.9,0.6-4.6-1.8c0,0-4,1-4.6-1.6c0,0-2.7,0.6-4.6-1.3
		c-0.1-0.1-3.4,0.4-4-1.8c0,0-3.6,0.7-4.4-1.8c0,0-1.3,1.2-2.5,0.4l-6.2,7.9c-0.9,1-1.9,1.9-3.3,2.5c-1,0.4-2.1,0.4-1.6-1.2
		c0,0-2.8,1.5-3.1-0.4c0,0-2.5,0.3-1.9-1.3c0,0-3,0.3-2.1-2.4c0,0-1.6-0.3-1.2-1.8c0-0.1-0.1-0.4-0.3-0.3c-1.6,0.6-1.5-1.9,1.5-3.6
		l8.6-5.9c-2.5,0.3-3.7-3.1-3.7-3.1c-2.2,0.3-3-3.1-3.1-3.3c-2.4-1-3-3.9-3-3.9c-2.7,0.6-3.4-3.7-3.4-3.7c-2.4,0.3-3.4-3.9-3.4-3.9
		c-1.3,1.3-1.9-0.6-1.9-0.6c-2.7,3.7-4.4,0.1-4.4,0.1c-7,5.2-5.2,0.3-5.2,0.3c-9.3,5.3-2.5-2.1-2.5-2.1c-12,6.7-2.5-2.4-1.8-3
		c-14.8,9.5,0.4-4.1,0.4-4.1c-14.2,7.4-2.1-2.1-1-2.8c-5.9,2.4-5.9,1.3-4.6-0.1c2.1-2.4,5-3.9,8.3-4.3c5.9-1,17.2-2.8,25.9-1.9
		c2.5,0.3,4.9,1.8,6.1,4c3,5.3,3.7,12,14.5,16.5c0.3,0.1,0.7,0.1,1-0.1c1.3-0.9,5.3-3.3,8.4-1.5c0,0,2.7-0.3,2.4,2.2
		c0,0-0.9-0.6-1.8,0.6c-1,1.3-1.6,3-1.9,4c-0.1,0.6,0.1,1.2,0.6,1.5c4.7,2.8,10.8,3.1,17.5,2.7c2.7-0.1,5.2,1.3,6.2,3.7
		C96.3,58.6,99.1,68.1,96.6,75.4z"/>
</g>
</svg>
