<?xml version="1.0" encoding="utf-8"?>
<!-- Generator: Adobe Illustrator 27.9.0, SVG Export Plug-In . SVG Version: 6.00 Build 0)  -->
<svg version="1.1" id="Layer_1" xmlns="http://www.w3.org/2000/svg" xmlns:xlink="http://www.w3.org/1999/xlink" x="0px" y="0px"
	 viewBox="0 0 100 100" style="enable-background:new 0 0 100 100;" xml:space="preserve">
<g>
	<path d="M68.7,52.5c0.1,0,0.2,0,0.3,0.1c-0.1-0.2-0.2-0.3-0.2-0.5c-0.1-0.3-0.2-0.6-0.2-0.9c0.1-0.5,0.1-1-0.1-1.4l0.6,0.6l1.7-1.7
		l-3-3c0,0,0,0,0,0c-0.2-0.4,0.1-0.5,0.3-0.7c0.1-0.1,0.2-0.2,0.3-0.3c0.5-0.8,1.2-1.4,2-1.9c0.1-0.1,0.3-0.3,0.3-0.5
		c0.2-0.5,0.4-1,0.6-1.5c0.1-0.4,0.2-0.9,0.1-1.3c-0.2-0.9-0.4-1.8-0.7-2.7c-0.2-0.5-0.6-0.9-1-1.4c-0.1-0.1-0.2-0.2-0.3-0.3
		c-0.8-1.1-1.3-2.3-1.4-3.8c0-0.8-0.1-1.6-0.3-2.3c-0.3-0.9-0.5-1.8-0.5-2.8c0-1.6-0.5-3.1-1.4-4.3c-0.4-0.6-1-1.2-1.6-1.7
		c-0.3-0.3-0.8-0.5-1.3-0.4c-0.9,0.2-1.7,0.1-2.5-0.2c-0.3-0.1-0.6-0.3-0.9-0.3c-1.1-0.2-2.1-0.4-3.2-0.6c-0.2,0-0.4-0.2-0.3-0.4
		c0-0.5,0-1,0.5-1.3c0.1,0.2,0.2,0.3,0.3,0.5c0-0.2,0-0.3,0.1-0.5c0.3,0.1,0.7,0.1,1,0.2c-0.1-0.2-0.1-0.3-0.2-0.5
		c0.5,0.2,0.9,0.3,1.4,0.4c0,0,0-0.1,0-0.1c-0.1-0.1-0.2-0.3-0.3-0.5c0.4,0,0.8,0,1.1-0.1c-0.1-0.1-0.1-0.2-0.2-0.4
		c0.2,0.1,0.5,0.1,0.6,0.2c0-0.2,0-0.5-0.1-0.6c-0.2-0.3,0.2-0.3,0.2-0.5c-0.1-0.1-0.2-0.2-0.3-0.3c0.2-0.1,0.4-0.2,0.6-0.3
		c-0.2-0.2-0.4-0.5-0.7-0.7c0,0,0-0.1,0.1-0.1c0.1,0,0.3,0.1,0.5,0.2c-0.1-0.2-0.2-0.4-0.3-0.6c0.1,0,0.1,0,0.2,0
		c-0.3-0.3-0.5-0.5-0.7-0.7c-0.1-0.3-0.1-0.4-0.1-0.6c0.2,0,0.4,0.1,0.5,0.1c-0.1-0.3-0.3-0.7-0.4-1c0,0,0.1,0,0.1-0.1
		c0.1,0.1,0.2,0.2,0.4,0.3c0-0.3,0-0.6-0.1-0.9c0.2,0.2,0.4,0.3,0.6,0.5c-0.1-0.3-0.1-0.4-0.1-0.6c0.2,0.1,0.4,0.3,0.7,0.4
		c-0.3-0.5-0.5-1-0.5-1.6c0.1,0,0.2,0,0.2,0c-0.2-0.5-0.3-1-0.5-1.6c0.2,0.1,0.4,0.1,0.5,0.2c-0.1-0.5-0.3-1-0.4-1.5
		c0.3,0,0.5,0.1,0.8,0.1c-0.4-0.5-0.7-0.9-1.1-1.3C61,5,61.3,5,61.6,5c0,0,0,0,0-0.1C61.1,4.6,60.6,4.3,60,4c0,0,0-0.1,0-0.1
		c0.2-0.1,0.4-0.1,0.7-0.2c-0.2-0.1-0.4-0.1-0.5-0.2c-0.2-0.1-0.3-0.2-0.4-0.4C60,3,60.1,2.9,60.3,2.8c0,0,0.1,0,0.1,0
		c0,0,0-0.1,0-0.1c-0.5,0-1,0-1.5,0c0-0.1,0-0.1,0-0.2c0.3-0.1,0.5-0.3,0.8-0.4c0,0,0-0.1,0-0.1c-0.2,0-0.4,0-0.7,0.1
		c-0.4,0.1-0.7,0.1-0.6-0.4c-0.3,0-0.5,0-0.8,0c0.1-0.4,0.1-0.7,0.2-1.1c-0.2,0.2-0.4,0.3-0.6,0.5c0-0.3-0.1-0.5-0.1-0.6
		c-0.4,0.1-0.7,0.7-1.2,0.2c0,0-0.1,0-0.1,0c-0.4,0.3-0.4,0-0.5-0.3c0-0.1,0-0.2-0.1-0.4c0,0-0.1-0.1-0.1-0.1
		C55,0.1,55,0.2,54.9,0.3c-0.2,0.2-0.4,0.4-0.7,0.2c0,0-0.1,0-0.1,0c-0.2,0-0.4,0.1-0.6,0.1c-0.3,0-0.6-0.1-1-0.2
		c0.1,0.2,0.1,0.2,0.2,0.4c-0.4-0.2-0.7-0.3-1-0.5c0,0.2,0.1,0.3,0.2,0.5c-0.5,0.1-0.8,0.5-1.4,0.3c0.3,0.6-0.3,0.3-0.4,0.4
		c0.1,0.1,0.2,0.2,0.4,0.3c-0.4,0-0.7,0.1-1,0.1c0.2,0.1,0.4,0.1,0.6,0.2c0,0,0,0.1,0,0.1c-0.2,0-0.4,0-0.6,0c0,0,0,0,0,0.1
		c-0.3,0.1-0.6,0.2-0.9,0.3c0,0,0,0,0,0.1c0.2,0,0.4,0,0.6,0.1c-0.9,0.3-1.2,1.1-1.7,1.9c0.2,0,0.4,0,0.5,0
		c-0.1,0.2-0.1,0.3-0.2,0.5c0.1,0,0.1,0,0.1,0c-0.1,0.3-0.1,0.6-0.2,0.9c0,0,0.1,0,0.1,0c-0.2,0.2-0.3,0.4-0.5,0.5
		c-0.2,0.2-0.5,0.4-0.5,0.7C47,7.1,47.3,7,47.5,6.9c0,0,0.1,0.1,0.1,0.1c-0.4,0.4-0.1,1.1-1,1.2c0.2,0.2,0.3,0.4,0.3,0.5
		c0-0.1,0.1-0.1,0.1-0.2c-0.2,0.3-0.3,0.7-0.5,1c0,0,0.1,0,0.1,0c0.1-0.1,0.2-0.2,0.3-0.3c0,0.3-0.1,0.5-0.1,0.7
		c0.1,0,0.2,0.1,0.4,0.1c-0.5,0.3-0.3,0.7-0.3,1.1c0.1,0,0.1,0,0.2-0.1c-0.1,0.4-0.2,0.7-0.3,1c0.1,0,0.2-0.1,0.2-0.1
		c-0.1,0.3,0,0.7-0.3,1c-0.2,0.2-0.5,0.4-0.4,0.7c0.4-0.2,0.7-0.4,1.1-0.6c0,0,0,0.1,0,0.1c-0.3,0.3-0.5,0.6-0.8,0.9c0,0,0,0,0.1,0
		c0.2-0.1,0.4-0.2,0.5-0.3c0,0,0.1,0.1,0.1,0.1c-0.3,0.3-0.5,0.5-0.8,0.8c0.2-0.1,0.4-0.1,0.6-0.2c-0.2,0.5-0.4,1-0.6,1.4
		c0,0,0.1,0,0.1,0.1c0.2-0.2,0.3-0.4,0.5-0.6c0,0,0,0,0.1,0c-0.1,0.3-0.2,0.6-0.3,1c0.4-0.3,0.5-0.8,1-0.6c0,0.1,0,0.2,0,0.3
		c0.2-0.2,0.3-0.3,0.4-0.5c0.1,0.1,0.3,0.1,0.5,0.2c-0.2,0.4-0.4,0.8-0.6,1.2c-0.2,0.4-0.6,0.3-1,0.2c-0.5-0.1-2.3,0.5-2.8,0.8
		c-0.5,0-1,0-1.5,0c-0.3,0-0.6,0-0.8,0.1c-0.4,0.2-0.7,0.4-1.1,0.5l-7.2-7.2l-0.3,0.3l-1,1l-0.3,0.3l6.7,6.7
		c-0.2,0.1-0.3,0.2-0.5,0.4c-1.3,1.4-1.5,3.1-1.1,4.9c0.4,1.3,0.9,2.6,1.3,3.9c0.4,1.1,0.4,2.2,0.3,3.3c-0.1,0.4-0.3,0.9-0.2,1.3
		c0.1,1,0.4,2,0.6,3c0.1,0.8,0.7,1.3,1.3,1.7c1.5,1,3,1,4.5,0c0.2-0.1,0.3-0.2,0.6-0.3c0.2,1.6,0.4,3,0.5,4.5c0,0.1,0,0.2,0,0.2
		c-0.1,0.4-0.2,0.8-0.4,1.2c-0.3,0.7-0.7,1.4-1,2c-0.1,0.1-0.2,0.3-0.4,0.4c0.1,0,0.1,0.1,0.2,0.1c-0.2,0.3-0.5,0.7-0.7,1
		c0.4,0.1,0.1,0.2,0.1,0.4c-0.1,0.2-0.2,0.3-0.2,0.5c0,0,0,0,0.1,0c0.1-0.1,0.3-0.3,0.4-0.5c-0.2,0.6-0.4,1.1-0.6,1.6
		c-0.2,0.4-0.4,0.7-0.6,1.1c-0.2,0.6-0.6,1.1-0.5,1.8c0,0.3,0.1,0.4,0.4,0.3c-0.1,0.5-0.2,1.1-0.3,1.6c0,0,0.1,0,0.1,0
		c0.1,0.1,0.2,0.2,0.2,0.3c0,0.3,0,0.7-0.1,1c0,0.4-0.3,0.8-0.1,1c0.2,0.3,0,0.5,0.1,0.8c0.1-0.1,0.1-0.2,0.2-0.2
		c0,0.1,0,0.1,0.1,0.2c0.1-0.1,0.1-0.1,0.2-0.2c0,0.6,0,1.1,0,1.6c0.4,0,0.3,0.5,0.5,0.7c-0.1-0.7,0.1-1.4,0.3-2c0,0,0.1,0,0.1,0
		c0,0.5-0.1,1-0.1,1.5c0,0,0,0,0.1,0c0-0.3,0.1-0.5,0.1-0.8c0,0,0,0,0.1,0c0,0.1,0.1,0.2,0.1,0.3c0.1-0.3,0.2-0.5,0.3-0.8
		c0,0,0,0,0.1,0c0,1.3,0,2.6,0,3.9c0,1.2,0,2.4,0.4,3.5c0.1,0.5,0.2,1,0.2,1.4c-0.2,1.6-0.4,3.2-0.6,4.8c0,0.3-0.1,0.6-0.2,0.9
		c-0.3,1.4-0.8,2.8-1,4.2c-0.2,1.4-0.2,2.8-0.3,4.3c-0.2,2.6-0.1,5.1,0.1,7.7c0.1,1,0.2,2,0.1,2.9c-0.1,1.4-0.4,1.7-1.5,2
		c-0.6,0.2-1.1,0.6-1.6,1.1c-0.7,0.8-1.5,1.3-2.6,1.3c-0.2,0-0.5,0.1-0.7,0.2c-0.9,0.3-1.8,0.6-2.7,0.9c-0.2,0.1-0.5,0.1-0.4,0.4
		c0,0.2,0.3,0.4,0.5,0.4c1.3,0.1,2.5,0.2,3.8,0.1c0.9,0,1.7-0.2,2.6-0.3c1.7-0.2,3.5,0.1,5.2,0.2c1,0.1,1.5-0.3,1.5-1.4
		c0-0.6-0.1-1.2-0.2-1.8c-0.3-1.6-0.2-3.2,0.2-4.8c0.4-1.5,0.8-3,1.2-4.6c0.3-1.1,0.5-2.2,1-3.2c0.3-0.5,0.5-1.2,0.6-1.8
		c0.3-1.1,0.2-2.2,0.1-3.4c0-1.1-0.1-2.2,0-3.2c0.1-0.9,0.3-1.7,0.4-2.6c0.2-1.8,0.6-3.6,0.8-5.4c0.2-1.5,0.5-2.9,1.7-4
		c0,0.5-0.1,0.9-0.1,1.3c0,0,0.1,0,0.1,0c0.1-0.3,0.1-0.5,0.2-0.8c0.1,0.1,0.3,0.1,0.5,0.2c0.1-0.3,0.2-0.6,0.3-0.9c0,0,0.1,0,0.1,0
		c0,0.3,0,0.6,0.1,0.9c0,0,0.1,0,0.1,0c0.2-0.3,0.3-0.5,0.5-0.8c0,0.2,0.1,0.3,0.1,0.5c0-0.1,0.1-0.3,0.1-0.4c0,0,0.1,0,0.1,0
		c0,0.2,0,0.5,0,0.7c0,0,0,0,0.1,0c0.1-0.3,0.2-0.6,0.3-0.9c0,0,0,0,0.1,0c0,0.4,0,0.9,0,1.4c0.1-0.2,0.2-0.5,0.3-0.5
		c0.3-0.1,0.2-0.3,0.3-0.5c0-0.4,0.1-0.7,0.1-1.1c0,0,0.1,0,0.1,0c0,0.4,0,0.7,0.1,1.1c0.5-0.4,0.5-0.9,0.5-1.4
		c0.1,0.3,0.1,0.5,0.2,0.9c0.1-0.1,0.1-0.2,0.2-0.3c0,0.6,0.1,1.1,0.1,1.6c0.1,1.7,0.2,3.3,0.4,5c0.1,1.4,0.2,2.7,0.3,4.1
		c0,0.4,0.1,0.8,0.2,1.1c0,0.4,0,0.8,0,1.2c0,0.2-0.1,0.4-0.1,0.6c-0.2,1.2-0.4,2.4-0.8,3.5c-0.5,1.7-0.7,3.4,0,5.1
		c0,0.1,0.1,0.2,0.1,0.4c0.2,1.8,0.3,3.6,0.5,5.4c0.1,0.9,0.2,1.9,0.3,2.8c0,0.2,0,0.4-0.1,0.6c-0.1,0.4-0.3,0.7-0.4,1.1
		c-0.3,1.1,0.1,2.1,0.4,3.1c0.1,0.3,0.2,0.6,0,1c-0.1,0.3-0.2,0.7-0.3,1c-0.1,0.6,0.2,1,0.8,1.1c0.6,0.1,1.2,0.1,1.8,0.2
		c0.2,0,0.4-0.2,0.6-0.2c0.2,0,0.3-0.1,0.5-0.1c0.6,0.3,1.1,0.3,1.7,0.1c0.1-0.1,0.3-0.1,0.5,0c0.6,0.2,0.8,0.1,0.9-0.5
		c0-0.2,0-0.4-0.1-0.5c-0.2-0.4-0.6-0.6-1-0.7c-0.3-0.1-0.7-0.2-0.8-0.4c-0.3-0.5-0.5-1.2-0.7-1.7c0,0,0-0.1,0-0.2
		c0-0.2,0-0.5,0-0.7c-0.1-0.6-0.3-1.2-0.2-1.8c0.2-1.2,0.5-2.4,0.8-3.6c0.4-1.9,0.9-3.8,1.1-5.7c0.2-1.6,0.3-3.1,0.3-4.7
		c0-1.2,0-2.4-0.1-3.6c-0.1-0.9-0.3-1.7-0.4-2.6c-0.2-1.5,0.1-3,0.3-4.5c0-0.4,0-0.9,0.2-1.2c0.9-1.5,1.3-3.2,1.6-4.8
		c0.2-1.3,0.4-2.7,0.5-4c0-0.1,0-0.3,0.1-0.4c0.3-0.3,0.3-0.3,0.2-0.7c0.5,0,0.2-0.5,0.4-0.7c0.1,0.1,0.2,0.2,0.3,0.4
		c0-0.3,0-0.6,0-0.9c0.2,0.4,0.3,0.6,0.4,0.9c0-0.4,0-0.7,0-1.1c0.1,0.1,0.2,0.2,0.4,0.3c-0.1-0.4-0.2-0.7-0.3-0.9
		c0.1,0,0.2,0.1,0.3,0.1c0-0.3-0.1-0.5-0.1-0.8c0,0,0,0,0.1,0c0,0,0.1,0.1,0.1,0.2c0-0.3,0.1-0.5,0.1-0.7c0.1,0.1,0.1,0.1,0.1,0.2
		c0.1-0.1,0.2-0.2,0.2-0.3c0-0.3,0-0.5-0.1-0.8c0.1,0,0.2,0,0.3,0C69,53,68.9,52.7,68.7,52.5z M62.4,34c0.1-0.4,0.3-0.7,0.4-1
		c0,0,0.1,0,0.1,0c0.2,0.4,0.5,0.8,0.6,1.3c0.2,0.9,0.8,1.7,1.2,2.4c0.4,0.6,0.5,1.2,0.4,1.9c-0.2,0-0.3,0-0.5,0c0,0,0.1,0,0.1-0.1
		c-0.8-1.2-1.6-2.5-2.3-3.7C62.3,34.6,62.3,34.3,62.4,34z"/>
	<path d="M77.9,55.7L73.2,51l-0.3,0.3l-1,1l-0.3,0.3l4.7,4.7c0.5,0.5,1.2,0.5,1.7,0S78.3,56.2,77.9,55.7z"/>
	<polygon points="73.2,50.3 73.3,50.3 71.6,48.6 71.5,48.7 69.2,51 69.1,51.1 70.7,52.8 70.8,52.7 71.2,52.3 72.8,50.7 	"/>
	<path d="M34.2,11l-0.3-0.3l0.3-0.3l-1.3-1.3l-0.3,0.3h0L32.2,9l0.3-0.3l-0.1-0.1c-0.1-0.1-0.1-0.1-0.2-0.2C31.5,7.7,31,6.8,30.7,6
		c-0.4-1-0.6-2-0.6-3.1h-1c-1.5,0-3-0.6-4-1.7l-0.4,0.4l0,0L22,4.2l0,0l-0.3,0.3c1.1,1.1,1.7,2.5,1.7,4v1c2,0,4,0.8,5.5,2.2
		c0.1,0,0.1,0.1,0.2,0.2l0.1,0.1l0.3-0.3l0.3,0.3l-0.3,0.3l1.3,1.3l0.3-0.3l0.3,0.3L34.2,11z"/>
</g>
</svg>
