<?xml version="1.0" encoding="utf-8"?>
<!-- Generator: Adobe Illustrator 27.9.0, SVG Export Plug-In . SVG Version: 6.00 Build 0)  -->
<svg version="1.1" id="Layer_1" xmlns="http://www.w3.org/2000/svg" xmlns:xlink="http://www.w3.org/1999/xlink" x="0px" y="0px"
	 viewBox="0 0 100 100" style="enable-background:new 0 0 100 100;" xml:space="preserve">
<g>
	<g>
		<defs>
			<path id="SVGID_1_" d="M49.4,4.3c-1.4,1.9-2.6,3.9-3.8,6c-1,1.5-2.2,3-2.8,4.8c-0.6,1.9,0.5,3.5,1.1,4.5c0,0.1,0,0.1-0.1,0.2
				C42.9,20.2,42,20.6,41,21c-0.7,0.4-1.4,1.2-1.9,1.8c-0.9,0.9-1.9,1.9-2.8,2.8c-0.7,0.8-1.2,1.7-1.8,2.6c-0.5,0.9-1,1.7-1.5,2.6
				c0.4,0.6,1.1,1.3,1.7,1.7c-0.1,0.7-0.3,1.4-0.4,2c0.1,1,0.1,2,0.2,2.9c0.5,2.8,0.9,5.1,1.8,7.4c0.3,0.8,0.6,1.6,0.8,2.4
				c0.4,0.6,1.3,0.7,1.7,1.2c-0.6,2.4-1.2,4.9-1.8,7.3c-1.6,6-2.9,12.1-4.7,17.8c-1,3.5-2.1,7-3.1,10.5c-0.7,1.6-1.3,3.2-2,4.8
				c-0.4,0.8-0.8,1.7-1.2,2.5c-2,0.5-4.2,1.2-6.3,1.8c-0.8,0.2-2.1,0.3-2.6,0.8c-0.5,0.6,0,1.2,0.2,1.7c0.7,0.5,2.5,0.6,3.5,0.8
				c1.1,0.2,2.3,0.4,3.4,0.7h1.6c1,0.1,2.1,0.1,3.1,0.2c2.3,0.2,4.6,0.3,6.9,0.5c0.6,0,1.3,0,1.9,0.1c1.4,0,2.8,0,4.1,0
				c1.4,0,2.8,0,4.1,0.1c1.6,0,3.1,0,4.7,0c1.6,0,3.2,0,4.8,0c0.8,0,1.6,0,2.4,0c3.5-0.2,7-0.3,10.5-0.5c0.7,0,1.5,0,2.2-0.1
				c2.5-0.1,5-0.3,7.5-0.5c2.4-0.4,3.9,0.2,4.9-1.6c-0.3-2-6.1-2-8-2.8C74,91.9,73,89,72.4,87.8c-1.5-3.4-3.1-6.8-4.6-10.1
				c-0.5-2.4-1.1-4.7-1.6-7.1c-1.3-4.9-2.3-9.9-3.6-14.9c-0.8-2.9-1.2-5.8-2-8.5c0.9-1.1,2.9-1.3,3.8-2.4c1.4-1.7,1.8-4.1,2.5-6.4
				c0.6-1.8,1.2-3.7,1.6-5.7c0.1-0.5-0.3-0.7-0.4-1.4c0.9-1.1,2.5-2.5,2.8-4c-0.1-0.3-0.2-0.6-0.3-0.8c-0.2-0.2-0.5-0.4-0.7-0.6
				c-1-0.9-1.9-1.7-3-2.5c-1.1-0.9-2.2-1.8-3.3-2.7c-0.8-0.4-2.7-1-3.7-1.1c0-0.2,0.2-0.3,0.3-0.6c0.3-0.9,0.7-2.2,0.5-3.3
				c-0.4-1.6-1.5-2.5-2.1-3.9c-0.6-1.4-1-2.7-1.6-4.3c-0.5-1.5-4-5.1-5.6-5.5C50.5,2.6,50,3.4,49.4,4.3"/>
		</defs>
		<use xlink:href="#SVGID_1_"  style="overflow:visible;"/>
		<clipPath id="SVGID_00000159467201424542805940000012016418191959372711_">
			<use xlink:href="#SVGID_1_"  style="overflow:visible;"/>
		</clipPath>
	</g>
</g>
</svg>
