<?xml version="1.0" encoding="utf-8"?>
<!-- Generator: Adobe Illustrator 27.9.0, SVG Export Plug-In . SVG Version: 6.00 Build 0)  -->
<svg version="1.1" id="Layer_1" xmlns="http://www.w3.org/2000/svg" xmlns:xlink="http://www.w3.org/1999/xlink" x="0px" y="0px"
	 viewBox="0 0 100 100" style="enable-background:new 0 0 100 100;" xml:space="preserve">
<path d="M31.6,58.6l-18.1-5.1l0.3-1.3l18.3,5.2c0.1-0.2,0.2-0.4,0.4-0.6c0.2-0.3,0.3-0.6,0.5-1c0.1-0.2,0.1-0.5,0.2-0.8
	c0.1-0.3,0.1-0.6,0.1-0.9c-0.2-0.9-0.3-1.9-0.4-2.8c-0.2-1.3-0.4-2.6-0.8-3.8c-0.3-0.9-0.4-1.7-0.5-2.6c0-0.7-0.1-1.5,0.1-2.2
	c0.1-0.3,0.2-0.6,0.5-0.8c0.5-0.3,0.7-0.7,0.8-1.2c0.1-0.5,0.2-0.9,0.3-1.4c0.1-0.4,0.1-0.9,0.3-1.3C33.9,37,34,36,34.2,35
	c0.1-0.7,0.2-1.3,0.3-2c0.1-0.6,0.1-1.3-0.1-1.9c-0.3-1-0.4-2-0.1-3c0.2-0.8,0.4-1.5,0.6-2.3c0.1-0.5,0.3-0.8,0.7-1.1
	c0.3-0.3,0.7-0.5,1.1-0.8c0.7-0.4,1.3-0.9,1.9-1.5c0.5-0.6,1.2-1,2-1c0.3-0.5,0.5-0.9,0.9-1.3c0.8-0.9,1.1-1.9,1.3-3
	c0.2-1.1,0.4-2.1,0.6-3.2c0.2-1,0.4-2,0.5-3c0.2-1.5-0.1-2.8-1.1-4c-1.3-1.5-2.4-3.1-3.6-4.6c-0.2-0.2-0.2-0.5,0-0.7
	c0.2-0.3,0.5-0.5,0.8-0.3c0.4,0.2,0.8,0.4,1.2,0.6c0.5,0.3,1,0.6,1.5,0.8C43,2.8,43.2,2.9,43.3,3c0.2,0.1,0.4,0.3,0.6,0.5
	c0.4-0.2,0.6-0.6,0.8-1c0.3-0.8,0.9-1.4,1.7-1.7c0.4-0.1,0.8-0.3,1.1-0.5c0.8-0.4,1.6-0.3,2.4,0.1c0.9,0.5,1.7,1.1,2.3,2
	c0.1,0.1,0.2,0.2,0.4,0.4c0.1-0.2,0.2-0.4,0.3-0.6l0.1-0.1c0.1,0,0.2,0.1,0.2,0.1c0,0.1,0.1,0.2,0.1,0.2c0,0.9,0.3,1.8,0.5,2.7
	C54.1,6,54.3,7,54.2,8c-0.2,1.2-0.4,2.4-0.9,3.5c-0.2,0.6-0.4,1.2-0.6,1.9c-0.1,0.6-0.4,1.2-0.6,1.8c-0.2,0.5-0.4,1-0.7,1.5
	c-0.2,0.4-0.4,0.8-0.7,1.2c-0.2,0.4-0.5,0.5-1,0.3c-0.1,0-0.2,0-0.3,0c0,0.2,0.1,0.4,0.1,0.5c0.2,0.5,0.5,1,0.7,1.5
	c0.2,0.4,0.6,0.8,1,1.1c0.3,0.2,0.6,0.4,0.8,0.6c0.8,0.7,1.5,1.4,2.4,2c0.2,0.2,0.5,0.4,0.6,0.6c0.5,1,1.2,2,1.5,3.2
	c0.4,1.2,0.5,2.3,0.1,3.5c-0.2,0.7-0.5,1.4-0.4,2.1c0,0.2-0.1,0.4-0.1,0.6c-0.1,0.3-0.1,0.6,0,1c0.3,1.7,0.6,3.4,0.9,5
	c0.1,0.8,0.3,1.6,0.8,2.2c0.1,0.2,0.2,0.4,0.3,0.6c0.4,1,0.6,1.9,1.1,2.9c0.2,0.4,0.3,0.8,0,1.2c-0.3,0.5-0.3,1-0.3,1.5
	c0,0.3,0,0.7-0.1,1c-0.1,0.6-0.1,1.1,0,1.7s0.1,1.2,0,1.8c-0.2,1.2-0.1,2.5-0.1,3.7s0,2.5,0.3,3.7c0,0.1,0,0.2,0,0.4
	c0,0.4,0.1,0.8,0.2,1.2s0.2,0.7,0.3,1.1c0.1,0.3,0.1,0.6-0.1,0.8c-0.3,0.2-0.5,0.6-0.6,0.9l23.5,6.6l0.7-1.5l3.5,3.6l-4.9,1.2
	l0.5-1.8l-23.6-6.6c-0.3,0.7-0.5,1.3-1,1.9c-0.2,0.3-0.4,0.6-0.7,0.8c-0.3,0.3-0.6,0.2-0.9,0.1c-0.3-0.2-0.3-0.5-0.2-0.9
	c0.1-0.2,0.2-0.5,0.2-0.8c0.1-0.3,0-1.1,0-1.9l-2.5-0.7c-0.2,0.8-0.3,1.6-0.5,2.4c-0.1,0.4-0.3,0.9-0.4,1.3
	c-0.1,0.3-0.3,0.6-0.7,0.7c-0.1,0-0.2,0.1-0.3,0.2c0,0.2-0.1,0.3-0.1,0.5c0,0.5-0.1,1.1-0.1,1.6c0,1,0,1.9-0.1,2.8
	c0,0.3,0,0.7-0.2,0.9c-0.4,0.5-0.4,1-0.4,1.5c-0.2,2.5-0.4,4.9-0.9,7.4c-0.1,0.5-0.2,1-0.5,1.4c-0.4,0.6-0.5,1.2-0.5,1.9
	c0.1,1.1,0.1,2.3,0.2,3.4c0,0.6,0.2,1,0.7,1.3c1.2,0.9,2.5,1.5,3.9,2c0.3,0.1,0.7,0.3,0.8,0.6c0.2,0.5,0.6,0.6,1,0.8
	c0.2,0.1,0.4,0.2,0.6,0.3c0.2,0.2,0.5,0.4,0.6,0.6c0.3,0.4,0.2,0.7-0.2,0.9c-0.3,0.2-0.7,0.2-1,0.1c-0.5-0.2-1-0.4-1.5-0.6
	c-0.3-0.1-0.6-0.2-0.9-0.1c-0.6,0.1-1.1,0-1.6-0.2c-0.3-0.1-0.7-0.2-1-0.1c-0.3,0.1-0.7,0.1-1-0.1c-0.7-0.4-1.3-0.7-2-1.1
	c-0.5-0.3-0.6-0.7-0.5-1.2c0.1-0.3,0.1-0.6,0.1-0.9c-0.1-1.1-0.2-2.1-0.2-3.2c0-0.4-0.1-0.7-0.2-1s-0.3-0.6-0.4-1
	c-0.2-1.1-0.4-2.1-0.5-3.2c-0.1-2.7-0.3-5.4-0.7-8.1c-0.2-1.5,0-3,0.7-4.4c0.1-0.3,0.2-0.5,0.3-0.8c0.4-1.3,0.8-2.6,1.5-3.8
	c0.3-0.5,0.4-1,0.4-1.6c0-1-0.1-1.9-0.1-2.9l-3.3-0.9c-0.3,1-0.5,1.9-0.7,2.9c-0.3,1.4-0.6,2.8-0.9,4.2c-0.2,1.4-0.6,2.7-1,4
	c-0.1,0.4-0.3,0.9-0.4,1.4c-0.3,1.3-0.6,2.5-0.9,3.8c-0.2,0.9-0.5,1.9-1.1,2.6c-0.6,0.7-0.8,1.4-0.8,2.3c0,0.1,0,0.3,0,0.4
	c-0.2,1.8-0.5,3.6-0.7,5.3c0,0.2-0.1,0.5-0.2,0.7c-0.2,1-0.2,1.9-0.3,2.9c0,0.3,0.1,0.7,0.1,1c0.1,0.5,0.2,1,0.4,1.5
	c0.2,1,0.6,2,1.3,2.8c0.2,0.3,0.4,0.6,0.5,0.9c0.2,0.7-0.2,1.2-0.9,1c-0.2,0-0.4-0.1-0.7-0.2c-0.2,0-0.4,0-0.5,0.1
	c-0.3,0.4-0.7,0.2-1.1,0.2c-0.3,0-0.4-0.1-0.5-0.4c-0.1-0.5-0.1-1-0.2-1.6c0-0.6,0-1.2,0-1.9c0-1.3-0.1-2.5,0.1-3.8
	c0-0.2,0-0.4,0-0.6c0-0.5,0-1.1,0-1.6c0-1,0-1.9,0-2.9c0-0.5-0.1-0.9-0.1-1.4c0-0.5,0-0.9-0.1-1.4c-0.2-2.1-0.4-4.3-0.6-6.4
	c0-0.3-0.1-0.6-0.2-0.9c-0.2-0.4-0.2-0.8-0.1-1.2c0.1-0.8,0.2-1.5,0.4-2.3c0-0.3,0.1-0.6,0.3-0.9c0.3-0.6,0.6-1.2,0.9-1.8
	c0.5-1,1-2,1.8-2.8c0.3-0.4,0.4-0.8,0.4-1.2c-0.2-1.5-0.3-2.9-0.5-4.4c-0.1-0.7-0.2-1.5-0.1-2.2L37.2,60l0,0
	c-0.1,0.1-0.1,0.3-0.2,0.5c0,0.1-0.4,0.6-0.4,0.7c-0.1,0.3-0.2,0.6-0.3,0.8c-0.2,0.4-0.6,0.5-1,0.5c-0.2,0-0.3-0.1-0.6-0.1
	c-0.2,0.2-0.4,0.4-0.5,0.5c-0.5,0.3-1.4,0.1-1.6-0.5c-0.1-0.3-0.7-0.9-0.8-1.1c0-0.1-0.1-0.4-0.1-0.5s0-0.3-0.1-0.6
	c0-0.2,0-0.3-0.1-0.5c-0.2-0.5-0.2-0.3-0.1-0.8C31.5,58.8,31.5,58.7,31.6,58.6z M51.6,9.1c0,0.1,0.2,0.2,0.3,0.2c0,0,0.1,0,0.2,0
	c0.1,0,0.3-0.1,0.4-0.2c0.2-0.1,0.2-0.3,0.1-0.5c-0.1-0.2-0.2-0.3-0.4-0.2c-0.2,0-0.3,0.1-0.5,0.2C51.6,8.8,51.6,9,51.6,9.1z
	 M41.2,39.5c-0.5-0.7-1-1.3-1.6-1.9c-0.1-0.1-0.2-0.1-0.3-0.2c-0.1,0.2-0.2,0.4-0.3,0.7c-0.7,1.9-1.2,3.8-1.4,5.8
	c-0.3,3.4-0.7,6.8-1.3,10.2c-0.1,0.5,0,0.9,0.4,1.3c0.2,0.2,0.5,0.5,0.7,0.7c0.2,0.2,0.4,0.4,0.5,0.6c0.3,0.4,0.3,0.8,0,1.2
	c-0.2,0.3-0.3,0.6-0.4,1l0.8,0.2c0.1-0.8,0.3-1.6,0.4-2.4c0.4-2.2,1-4.4,1.8-6.6c0.2-0.6,0.4-1.2,0.6-1.8c0.2-0.8,0.3-1.5,0.4-2.3
	c0-0.3,0.1-0.7,0.1-1c0-0.5,0-1,0-1.5c0-0.9,0-1.8,0-2.7C41.5,40.3,41.5,39.9,41.2,39.5z M48.8,8.7C48.4,8.2,47.9,8,47.2,8
	c-0.1,0.5,0.1,0.7,0.4,0.9c0.3,0.2,0.7,0.2,1,0.3c0.1,0,0.2,0,0.3-0.1C48.9,9,48.9,8.8,48.8,8.7z M55.9,56c-0.5-2.4-0.9-4.8-1.4-7.2
	c0-0.2-0.1-0.4-0.2-0.7c-0.2,0.1-0.2,0.2-0.2,0.4c0,0.6,0.1,1.3,0.1,1.9c0.1,1.4,0.1,2.7,0,4.1c0,0.2,0,0.5,0,0.7c0,1,0.1,2,0.2,3
	c0,0.2,0,0.4,0.3,0.5c0.3-0.2,0.4-0.5,0.7-0.8C55.9,57.4,56,56.8,55.9,56z M55.8,64L55.8,64L55.8,64L55.8,64z M55.1,63.8
	c-0.3-0.1-0.4-0.3-0.5-0.6c0-0.2,0-0.3,0-0.5c0-0.8,0-1.6,0.2-2.4c0-0.2,0-0.4,0-0.6c0-0.1-0.1-0.1-0.2-0.1c-0.1,0-0.2,0.1-0.2,0.1
	c0,0.1,0,0.2-0.1,0.3c-0.1,0.6-0.1,1.2-0.2,1.8s-0.2,1.1-0.3,1.7L55.1,63.8z M48,61.8c0-1.3,0-2.6,0.1-3.9c0-0.9,0-1.8-0.1-2.7
	c0-0.4-0.2-0.5-0.6-0.5c-0.4,0-0.6,0.2-0.7,0.6c0,0.2-0.1,0.3-0.1,0.5c-0.4,1.4-0.8,2.7-1.2,4.1c-0.1,0.3-0.2,0.7-0.3,1L48,61.8z"/>
</svg>
