<?xml version="1.0" encoding="utf-8"?>
<!-- Generator: Adobe Illustrator 27.9.0, SVG Export Plug-In . SVG Version: 6.00 Build 0)  -->
<svg version="1.1" id="Layer_1" xmlns="http://www.w3.org/2000/svg" xmlns:xlink="http://www.w3.org/1999/xlink" x="0px" y="0px"
	 viewBox="0 0 100 100" style="enable-background:new 0 0 100 100;" xml:space="preserve">
<path d="M69.8,88.4c-0.9-0.3-1.7-0.6-2.6-0.9c-1.5-0.4-2.3-1.3-2.2-3c0.1-1.6,0.3-3.1,0.5-4.7c0.4-3.3,0.9-6.6,1-9.9
	c0.1-5.3,1-10.5,3.1-15.4c0-0.1,0.1-0.2,0.2-0.3c-0.7,3.1-1.4,6.1-2.1,9.2c0,0,0.1,0,0.1,0c0.1-0.1,0.2-0.1,0.2-0.2
	c2.9-4.1,5.2-8.5,7-13.3c1.3-3.6,3.4-6.7,5.5-9.8c1-1.5,2.1-3.1,3.1-4.6c0.1-0.1,0.2-0.2,0.4-0.3c-0.1,0.2-0.2,0.5-0.4,0.7
	c-1.2,2-2.4,4.1-3.6,6.1c-2.1,3.3-3.5,6.9-4.8,10.5c-1.4,3.8-3.4,7.3-6.1,10.4c-1.4,1.6-2.1,3.4-2.1,5.5c0,0.7-0.1,1.4-0.1,2.1
	c0,0.2,0,0.4,0.1,0.6c0.2-0.1,0.3-0.1,0.4-0.2c4.3-3.5,8.4-7.4,11.2-12.3c2.3-4,3.7-8.3,4.7-12.8c0.8-3.7,1.4-7.4,2.6-10.9
	c0.5-1.5,1.1-2.9,2.1-4.2c0.6-0.8,0.4-1.8,0.4-2.7c-0.3-3.9-0.4-7.7,0.5-11.6c0.1-0.3,0.2-0.6,0.3-0.8c-1.1,5.1-0.9,10.2-0.5,15.3
	c0.1,0,0.1,0,0.2,0c0.1-0.6,0.1-1.2,0.2-1.8c0.1-0.7,0.6-1,1.3-1.2c-0.1,2.4-0.2,4.8-0.4,7.3c0.1-0.3,0.2-0.5,0.3-0.7
	c0.7-2.5,1.1-5,1.1-7.6c0-1.7,0.7-3.1,1.9-4.3c0.1-0.1,0.2-0.1,0.3-0.2c1,4.7,0.4,9.3-0.4,13.8c0.1,0,0.1,0.1,0.2,0.1
	c0.2-0.2,0.4-0.3,0.5-0.5c0.5-1.2,1-2.5,1.3-3.7c0.7-2.8,0.8-5.6,0.7-8.4c0-1.2,0-2.5,0-3.7c0-0.2,0-0.4,0-0.6
	c0.1,0,0.1-0.1,0.2-0.1c0.2,0.3,0.5,0.7,0.7,1c0.6,1.4,0.9,2.8,1,4.3c0.3,3.1,0.1,6.3-0.5,9.4c0,0.1,0,0.3,0,0.4
	c1.3-2.9,1.7-6,1.6-9.1c-0.1-3.2-0.9-6.2-2-9.2c0.1,0.1,0.2,0.2,0.3,0.4c0-0.2,0.1-0.3,0.1-0.4c-0.3-1.3-0.7-2.6-1-4
	c-0.1-0.3-0.3-0.7-0.4-1c-1.1-2.2-2.8-3-5.2-2.3c-2.1,0.6-4.1,1.4-6.2,2c-0.9,0.3-1.9,0.4-2.9,0.4c-1.2,0.1-2.2,0.5-3,1.2
	c-0.2,0.2-0.4,0.3-0.6,0.4c1-1.1,2.2-1.9,3.8-2c1.1-0.1,2.1-0.3,3.1-0.5c0-0.1,0-0.1,0-0.2c-0.4-0.1-0.7-0.1-1.1-0.2
	c-2.5-0.5-4.8,0-7.2,0.6c-3.3,0.9-6,2.5-8.3,5c-3.6,4-7.5,7.7-11.5,11.3c-3,2.7-5.2,6-6.7,9.7c0,0.1-0.1,0.2-0.2,0.3
	c0.9-3.2,2.4-6.1,4.6-8.6c0,0-0.1-0.1-0.1-0.1c-0.2,0.1-0.4,0.2-0.6,0.3c-4,2.8-8.1,5.7-12.1,8.4c-1.4,0.9-2.8,1.8-4.2,2.6
	c-4.3,2.4-6.8,6.1-8.2,10.7c-0.2,0.8-0.4,1.6-0.6,2.3c0.3-4.2,1.4-8,4.9-10.8c0,0-0.1-0.1-0.1-0.1c-0.2,0.1-0.4,0.2-0.6,0.3
	c-4.6,2.1-9.1,4.1-13.7,6.2c-4.7,2.1-8.7,5-11.8,9.1C5,60.6,3.5,64.3,3.1,68.4c-0.4,4.5-0.3,8.9,0.7,13.2c0.3,1.4,0,2.7-0.8,3.9
	c-0.4,0.6-0.9,1.2-1.3,1.9c-0.2,0.3-0.4,0.6-0.5,0.8c-0.4,0.9-0.2,1.4,0.7,1.7C3,90.2,4,90.5,5.1,90.5c3.9,0.2,7.9,0.4,11.8,0.5
	c2.9,0,5.9-0.3,8.8-0.4c0.3,0,0.6,0,0.9-0.1c0.2-0.1,0.3-0.3,0.5-0.4c-0.1-0.1-0.3-0.4-0.4-0.4c-0.9-0.1-1.7-0.3-2.6-0.3
	c-1.4-0.1-2.8-0.2-4.1-0.8c-0.3-0.1-0.5-0.3-0.7-0.5c-0.3-0.3-0.3-0.5,0.3-0.8c-0.4,0.5-0.1,0.7,0.2,0.8c1.1,0.3,2.2,0.8,3.4,0.9
	c4.3,0.5,8.6,0.4,13,0c0.9-0.1,1.9-0.3,2.8-0.5c0.4-0.1,0.7-0.2,0.7-0.7c0-0.4-0.4-0.5-0.7-0.6c-1.2-0.2-2.4-0.3-3.7-0.4
	C34,86.7,33,86.6,32,85.9c-0.2-0.2-0.6-0.2-0.9-0.2c-1.5,0.1-3,0.1-4.5,0.2c-1,0.1-1.9,0.2-2.9,0.3c-0.2,0-0.3,0-0.5,0
	c0-0.1,0-0.1,0-0.2c2-0.2,4-0.4,5.9-0.5c5.8-0.2,11.5-0.9,17-2.6c2.4-0.8,4.8-1.8,7.2-2.7c0.4-0.1,0.5-0.4,0.4-0.8
	c-0.1-1.7-0.1-3.3-0.1-5c0-1.4,0.1-2.8,0.1-4.2c0-0.2-0.1-0.5-0.2-0.7c-3-3.6-4.1-7.8-4.2-12.4c0-0.3,0-0.7,0-1
	c0.4,4.4,1.8,8.5,4.2,12.3c0.1,0,0.1,0,0.2,0c-0.1-1.1-0.2-2.3-0.4-3.4c-0.5-3.7-1.3-7.3-1.2-11c0-0.2,0-0.4,0.1-0.6
	c0.2,1,0.3,1.9,0.5,2.9c0.4,2.7,0.8,5.4,1.1,8.1c0.4,3.5,0.6,7,0.2,10.6c-0.2,2.4-0.2,4.8,0.7,7.2c0.5,1.3,0.7,2.6,0.4,4
	c-0.1,0.4-0.3,0.8-0.4,1.2c-0.1,0.5-0.3,0.9-0.3,1.4c0,1.4,0.8,2.1,2.2,2.2c0.8,0.1,1.7,0.3,2.5,0.4c0.7,0.1,1.4,0.1,2.1-0.1
	c1.6-0.3,3.3-0.5,5-0.3c0.7,0.1,1.5,0,2.2-0.1C70.3,90.7,70.7,89.8,69.8,88.4L69.8,88.4z M90.1,19.8C90.2,19.8,90.2,19.8,90.1,19.8
	c0.1,2.4,0.1,4.8,0.1,7.2c0,0-0.1,0-0.1,0C90.1,24.5,90.1,22.2,90.1,19.8z"/>
</svg>
