<?xml version="1.0" encoding="utf-8"?>
<!-- Generator: Adobe Illustrator 27.9.0, SVG Export Plug-In . SVG Version: 6.00 Build 0)  -->
<svg version="1.1" id="Layer_1" xmlns="http://www.w3.org/2000/svg" xmlns:xlink="http://www.w3.org/1999/xlink" x="0px" y="0px"
	 viewBox="0 0 100 100" style="enable-background:new 0 0 100 100;" xml:space="preserve">
<path d="M47,67.6c0-0.3,0-0.5-0.1-0.6c-0.1-0.2-0.4-0.2-1,0c0.2-0.1,0.3-0.3,0.4-0.4c0.1-0.2,0.2-0.4,0.3-0.5
	c-0.3,0-0.5-0.1-0.7-0.2l-0.1-0.1c0-0.1,0-0.1,0.1-0.2c0.1-0.2,0.3-0.4,0.6-0.6c0.3-0.2,0.5-0.4,0.9-0.4c0-0.4-0.3-1-0.9-1.7
	c-0.6-0.7-1-1.4-1.1-2c-0.1-0.2-0.2-0.6-0.2-1.3c0-0.6-0.2-1.1-0.5-1.4c-0.1,0-0.4,0.1-0.8,0.2c-0.4,0.1-0.7,0.2-0.9,0.2h-0.2
	c-0.5,0-1.1-0.1-1.7-0.2c-0.7-0.1-1.3-0.3-1.8-0.4h-0.2h-0.1c0.1,0.5,0.2,0.8,0.3,0.8v0.2v0.2l-0.3,0.6c-0.1,0.1-0.1,0.2-0.1,0.3
	h0.8c-0.1,0.1-0.1,0.2-0.2,0.4C39,60.5,39,60.7,39,60.8c0.4,0.8,0.8,1.4,1.1,1.9c0.3,0.5,0.6,0.9,0.8,1.4c0.3,0.4,0.5,0.7,0.5,0.8
	c0.1,0.4,0.4,1,0.7,1.7c0.3,0.7,0.8,1.1,1.4,1.2c0,0.1,0.1,0.1,0.3,0.1c0.3,0,0.5,0,0.7,0c0.2,0,0.4,0,0.6,0h0.5
	c0.1,0.2,0.2,0.3,0.3,0.3c0.1,0.1,0.2,0.2,0.3,0.4c0.1,0.2,0.3,0.3,0.4,0.4C46.9,68.5,47,68.1,47,67.6 M41.8,88.7v0.2
	c-0.1,0.1-0.2,0.3-0.3,0.7c-0.1,0.3-0.3,0.5-0.6,0.5L40.8,90c-0.1-0.1-0.2-0.3-0.3-0.6c-0.1-0.3-0.3-0.6-0.4-1
	c-0.2-0.3-0.3-0.6-0.6-0.9c-0.2-0.3-0.5-0.4-0.8-0.4c-0.4,0-0.7,0.2-0.8,0.5c-0.1,0.3-0.1,0.7-0.1,1c0,0.3,0,0.7,0,1
	c0,0.3-0.3,0.5-0.7,0.5L36.9,90c-0.1-0.9-0.3-1.5-0.5-1.8c-0.2-0.3-0.8-0.4-1.7-0.4c0,0.6,0,1.1,0,1.6c0,0.5-0.4,0.7-1.4,0.7
	c-0.3,0-0.5-0.1-0.7-0.4c0.2,0,0.3-0.1,0.5-0.3c0.1-0.2,0.2-0.4,0.2-0.5c0-0.5-0.2-0.7-0.5-0.8c-0.3,0-0.7,0-1,0v1.2
	c0,0.4-0.4,0.6-1.1,0.6v-0.9c-0.3,0-0.6,0.1-1.1,0.2c-0.2,0-0.4,0-0.6-0.1c-0.1-0.1-0.3-0.2-0.5-0.3c-0.2-0.1-0.4-0.2-0.5-0.3
	l-0.4-0.2h-0.4h-1.4h-0.2c-0.8-0.1-1.8-0.2-2.9-0.4c-1.1-0.2-2.1-0.4-3-0.4c-0.3,0-0.4,0-0.5,0.1c-0.1,0.1-0.2,0.1-0.5,0.1
	c-0.6,0-1.3-0.1-2.1-0.4c-0.8-0.3-1.5-0.6-2.3-0.9c-0.8-0.3-1.5-0.7-2.3-0.9c-0.8-0.3-1.5-0.4-2.2-0.4c0-0.9,0.3-1.7,1-2.5
	c0.7-0.7,1.2-1.6,1.5-2.5v-0.2c0-0.2,0-0.3,0-0.4c0-0.1,0-0.2,0-0.3c-0.1-0.3,0.1-0.4,0.6-0.4c0.4,0,0.6-0.1,0.5-0.2V78v-0.2
	c0.1-0.1,0.2-0.3,0.3-0.6c0.2-0.3,0.3-0.5,0.4-0.5c-0.2,0-0.4-0.1-0.4-0.3c0-0.1,0.1-0.3,0.2-0.6c0.1-0.3,0.3-0.5,0.6-0.6v-2.1
	c0.3,0,0.4-0.3,0.4-0.8c0-0.2,0-0.4-0.1-0.6c0.1-0.3,0.4-0.5,0.8-0.6c0.4-0.1,0.6-0.4,0.6-0.8c0-0.4-0.1-0.6-0.4-0.6
	c0.1,0,0.2-0.1,0.4-0.2c-0.1-0.2-0.1-0.3,0-0.4c0.1,0,0.2,0,0.5-0.1c0.3-0.1,0.4-0.1,0.5-0.1l0.9-1.9h1.5c0-0.2-0.1-0.4-0.2-0.6
	c-0.1-0.2,0-0.3,0.3-0.4h-0.8c-0.5,0-1.1,0-1.9,0.1c-0.8,0.1-1.3,0.3-1.5,0.7L14.9,66v2.9c-0.4,0.1-0.7,0.3-1,0.6
	c-0.3,0.3-0.6,0.6-0.8,1c-0.3,0.4-0.5,0.7-0.7,1.1c-0.2,0.3-0.4,0.6-0.6,0.8V76l-0.5,0.3c0-0.1,0-0.4-0.1-0.8
	c-0.1-0.4-0.3-0.7-0.6-0.8c0-0.1,0-0.3,0-0.6c0-0.3,0-0.5,0-0.6c0-0.4,0.1-0.8,0.3-1c0.2-0.3,0.3-0.6,0.3-1v-0.3
	c-0.1-0.2-0.3-0.4-0.4-0.6c-0.2-0.2-0.3-0.4-0.3-0.5c0-0.2,0.1-0.3,0.3-0.3c0.1,0,0.2,0.1,0.5,0.2c0.3,0.1,0.5,0.2,0.6,0.2
	c0.1,0,0.2-0.1,0.2-0.2c0-0.2,0-0.3,0-0.4c0-0.1,0-0.2-0.1-0.4c-0.1-0.2-0.1-0.5-0.2-0.8c-0.1-0.3-0.2-0.5-0.3-0.8
	c-0.1-0.2-0.2-0.3-0.2-0.3h-0.1c-0.1,0.1-0.2,0.2-0.5,0.3c-0.1,0-0.4,0-0.7-0.1c-0.3-0.1-0.6-0.1-0.8-0.1c0,0.7-0.1,1.5-0.2,2.3
	c-0.1,0.8-0.6,1.4-1.3,1.6V71c0-0.6,0.1-1.2,0.3-1.8c0.2-0.6,0.3-1.2,0.3-1.9v-0.1c-0.3-0.6-0.5-0.9-0.7-0.9s-0.3,0-0.6,0.1
	c-0.3,0.1-0.5,0.1-0.5,0.1c-0.1,0.1-0.2,0.1-0.5,0.1H5.4c0.1-0.2,0.1-0.3,0.2-0.3c0.1,0,0.2-0.1,0.5-0.4c0.3-0.2,0.4-0.4,0.4-0.5
	c-0.1-0.3-0.2-0.5-0.3-0.6c-0.3-0.4-0.6-0.9-0.8-1.4c-0.2-0.5-0.3-0.9-0.3-1.4c0-0.4,0.2-0.7,0.5-0.8H5.2c-0.4,0-0.8,0.2-0.9,0.6
	c0-0.1,0-0.2,0-0.4c0-0.1,0-0.3,0-0.4c0-0.4,0-0.7,0.1-0.9c0.1-0.2,0.1-0.5,0.1-1v-0.9l-0.2-0.3c0-0.3,0.1-0.5,0.2-0.6H4.3
	c-0.4,0-0.7,0.1-0.8,0.3c-0.2-0.1-0.4-0.3-0.5-0.7c-0.2-0.4-0.2-0.7-0.2-0.8v-0.4c0-0.1,0.1-0.1,0.4-0.2c0.3-0.1,0.4-0.2,0.4-0.3
	c0.1-0.1,0-0.4-0.1-0.8c-0.1-0.4-0.2-0.7-0.2-0.8c-0.3,0-0.5,0-0.7,0c-0.1,0-0.2-0.2-0.2-0.6c0-0.4,0.1-0.7,0.4-0.7l-0.5-0.3v-1
	c-0.3,0-0.5,0.1-0.7,0.2c-0.1,0.2-0.2,0.4-0.3,0.6c-0.1,0.2-0.2,0.5-0.3,0.7c-0.1,0.2-0.3,0.4-0.6,0.6c-0.1-0.1-0.2-0.3-0.2-0.6
	c0-0.3,0-0.5,0-0.6v-0.2v-0.3c0-0.1,0-0.2,0.1-0.4c0.1-0.2,0.1-0.4,0.1-0.5c0-0.1,0-0.1-0.1-0.2c-0.1-0.1-0.1-0.2-0.1-0.3L0,50
	c0-0.4,0.2-0.7,0.6-1.1c0.4-0.4,0.8-0.6,1.2-0.6c-0.1,0-0.3,0-0.5-0.1c-0.2-0.1-0.4-0.1-0.5-0.2c-0.1-0.1-0.2-0.2-0.4-0.4h1.7
	l-0.3-0.4l0.3-0.5h2.8c-0.2-0.2-0.4-0.4-0.6-0.6c-0.2-0.2-0.5-0.3-0.8-0.4c0.1,0,0.2-0.1,0.5-0.2c0.3-0.2,0.4-0.3,0.5-0.4
	c0.3-0.1,0.4-0.2,0.5-0.2c0.1,0,0.2,0,0.3,0.1C5.3,45,5.5,45,5.6,45h0.2c0.1-0.1,0.3-0.3,0.4-0.4c0.2-0.2,0.3-0.3,0.3-0.3
	c-0.2,0-0.5-0.1-0.7-0.4c-0.1-0.1-0.1-0.1-0.1-0.2c0-0.1,0-0.1,0.1-0.1l0.7-0.9v-0.2v-0.2l-0.3,0.3c0-0.2-0.2-0.4-0.5-0.6
	c-0.3-0.3-0.7-0.5-1.1-0.8c-0.4-0.2-0.8-0.5-1.2-0.7c-0.4-0.2-0.6-0.4-0.8-0.5c0.5-0.2,0.9-0.5,1.1-0.9c0.2-0.4,0.4-0.8,0.5-1.3
	c0.1-0.5,0.2-0.9,0.3-1.4c0.1-0.5,0.2-0.9,0.3-1.3c0.1-0.3,0.3-0.8,0.6-1.4c0.3-0.6,0.5-1.2,0.8-1.9c0.3-0.6,0.5-1.2,0.7-1.8
	c0.2-0.5,0.3-0.9,0.3-1c0.1-0.2,0.3-0.6,0.6-1c0.3-0.5,0.5-1,0.8-1.5c0.3-0.5,0.6-1,0.8-1.5c0.3-0.5,0.4-0.8,0.6-1
	c0.1-0.3,0.4-0.6,0.8-0.9c0.4-0.3,0.8-0.6,1.2-1c0.4-0.3,0.7-0.6,1-1c0.3-0.3,0.3-0.6,0.1-1l0.7,0.2v-0.2c0-0.4-0.1-0.7-0.4-1h0.2
	h0.2c0.1,0.1,0.3,0.2,0.4,0.3c0.1,0.1,0.3,0.2,0.4,0.3c0.5-0.4,1-0.8,1.4-1.2c0.4-0.4,0.9-0.8,1.2-1.3h0.4c0.3,0,0.4,0,0.5-0.1
	c0.1-0.1,0.2-0.2,0.3-0.4l0.4-0.6c0.2,0.2,0.6,0.3,1.1,0.3c0.5,0,0.7-0.1,0.7-0.4c0-0.2,0.1-0.4,0.5-0.5c0.4-0.1,0.8-0.2,1.3-0.2
	c0.5,0,1-0.1,1.4-0.4h0.4h1.5H26c1.4,0,2.7,0.1,3.9,0.4c1.2,0.3,2.5,0.4,3.7,0.4c0.1,0,0.4-0.2,0.8-0.7c0.4-0.5,0.9-1,1.5-1.5
	c0.6-0.6,1.3-1.1,2.2-1.5c0.9-0.5,1.8-0.7,2.8-0.7c1.7,0,3.3,0.3,4.9,0.9c0.2,0.1,0.3,0.1,0.4,0.1c0.4,0,0.6-0.1,0.7-0.4
	c0.1-0.3,0.1-0.5,0.1-0.8c0-0.3,0-0.6,0.1-0.9c0.1-0.3,0.3-0.4,0.7-0.4l1.1,1.8h0.3c0.4,0,0.6-0.1,0.8-0.3h4.1c0,0.1,0,0.1,0.1,0.3
	c0.1,0.1,0.2,0.2,0.3,0.3h0.1h0.1l0.8-0.2c0.1-0.1,0.1-0.1,0.2-0.1v0.2c0,0.2,0,0.3,0.1,0.6c0.1,0.2,0.2,0.3,0.5,0.4
	c0.2-0.1,0.4-0.3,0.6-0.6c0.2-0.3,0.5-0.6,0.8-0.9c0.3-0.3,0.6-0.6,0.9-0.8c0.3-0.2,0.6-0.3,0.9-0.2c0.1,0,0.2,0.1,0.3,0.2
	c0.2,0.1,0.3,0.3,0.3,0.4c-0.6,0.3-0.9,0.6-1.1,1.1c-0.2,0.5-0.3,1-0.3,1.5v0.9c0.1,0.2,0.5,0.5,1.2,0.9c0.8,0.5,1.6,0.9,2.5,1.4
	c0.9,0.5,1.7,1,2.5,1.4c0.8,0.4,1.3,0.6,1.5,0.6c0.3-0.2,0.5-0.3,0.7-0.3c0.1,0,0.1,0.1,0.1,0.2c0,0.1,0.1,0.1,0.2,0.2V19
	c-0.1,0.1-0.3,0.4-0.6,0.8c-0.3,0.4-0.4,0.6-0.4,0.7c-0.1,0.2-0.1,0.3-0.1,0.4c0,0.3,0.2,0.5,0.5,0.6c0.3,0.2,0.6,0.2,0.9,0.2
	c0.3,0,0.7-0.2,1.2-0.5c0.5-0.3,0.9-0.5,1.1-0.4c0.1,0,0.2,0.1,0.4,0.2c0.2,0.1,0.3,0.3,0.4,0.4c0,0.1-0.1,0.3-0.2,0.6
	c-0.1,0.3-0.2,0.5-0.2,0.6c-0.1,0.4-0.1,0.6-0.1,0.7c0,0.5,0.2,1,0.6,1.5c0.4,0.5,1,0.8,1.7,0.8v1.1c0,0.4,0.1,0.7,0.2,0.8
	c0,0.1,0.1,0.3,0.3,0.5c0.2,0.2,0.3,0.3,0.3,0.4c0.1,0.4,0,0.7-0.3,1.1c-0.3,0.3-0.7,0.6-1,0.7c-0.8,0.3-1.2,0.5-1.2,0.8
	c0,0.3-0.2,0.5-0.5,0.6l0.7,1h-0.2h-0.1c-0.1-0.1-0.4-0.2-0.8-0.4c-0.4-0.2-0.7-0.4-0.9-0.6c-0.2,0.4-0.4,0.7-0.8,1
	c-0.1-0.1-0.2-0.2-0.3-0.4c-0.2-0.1-0.3-0.3-0.5-0.4l-0.2-0.2c0-0.1-0.2,0-0.7,0.2c-0.4,0.1-1.1,0.3-1.9,0.5
	c-0.8,0.2-1.6,0.5-2.4,0.7c-0.8,0.2-1.5,0.5-2,0.6c-0.6,0.2-0.8,0.3-0.8,0.4c0,0.5,0,1,0.1,1.4c0.1,0.4,0.1,0.9,0.1,1.5v0.5
	c0,0.3,0,0.7,0,1.2c0,0.5-0.1,0.9-0.1,1.4c-0.1,0.4-0.2,0.8-0.3,1.1c-0.2,0.3-0.3,0.5-0.5,0.5v-4.6l-0.6-0.8v4.1L57,34.9l-0.4-0.6
	c-0.1,0.6-0.3,1.3-0.5,2c-0.2,0.8-0.3,1.5-0.3,2.2c0,0.4,0.1,0.9,0.2,1.3c0.2,0.4,0.2,0.9,0.2,1.4v0.2c0,0.1,0,0.4-0.1,0.8
	c-0.1,0.5-0.2,0.7-0.2,0.8c-0.1-0.2-0.2-0.5-0.4-1c-0.2-0.5-0.4-1-0.6-1.5c-0.2-0.5-0.4-1-0.5-1.4c-0.2-0.4-0.3-0.6-0.4-0.6v-3.3V36
	c-0.4-0.3-0.6-0.6-0.7-0.9c-0.1-0.3-0.1-0.7-0.1-1.2h-0.7c0,1.1,0,2-0.1,2.6c-0.1,0.7-0.1,1.6-0.1,2.6h-0.4V38h-0.6v-1.7l-0.5,0.6
	v-3.5H50c-0.1,0-0.2,0.2-0.3,0.6c-0.1,0.4-0.1,0.7-0.1,1c0,0.1,0.1,0.2,0.2,0.5C50,35.7,50,35.9,50,36c0,0.1-0.1,0.3-0.2,0.7
	c-0.1,0.4-0.2,0.6-0.2,0.7v0.2c0,0.1,0,0.1,0,0.3c0,0.1,0,0.3,0,0.4v0.2c0,0.6,0.1,1.3,0.4,1.8c0.3,0.6,0.6,1.1,1,1.7
	c0.4,0.5,0.7,1,1,1.5c0.3,0.5,0.4,0.9,0.4,1.2c0.8,0,1.6-0.1,2.5-0.4c0.9-0.3,1.8-0.6,2.8-1c1-0.3,2-0.7,3-1c1-0.3,2.1-0.4,3.2-0.4
	c2.3,0,4.5,0.4,6.8,1.2c2.2,0.8,4.2,1.9,6,3.2c1.7,1.4,3.2,3,4.3,4.8c1.1,1.8,1.7,3.7,1.7,5.8c0,0.5-0.1,1.2-0.3,2
	c-0.2,0.8-0.4,1.7-0.8,2.5c-0.3,0.9-0.6,1.7-1,2.4c-0.3,0.7-0.7,1.3-1.1,1.8c-0.9,1.1-2,2-3.2,2.6c-1.2,0.6-2.3,1.4-3.4,2.4
	c-0.1,0.1-0.4,0.1-0.7,0.2c-0.3,0.1-0.7,0.1-1.1,0.2c-0.4,0.1-0.8,0.1-1.1,0.2c-0.3,0.1-0.6,0.1-0.7,0.1h-1.3c-0.9,0-1.9,0-3,0
	c-1.1,0-1.9-0.1-2.3-0.1h-0.9c0,0.6,0.2,1,0.7,1.2c0.4,0.2,0.9,0.4,1.5,0.6c0.6,0.1,1.1,0.3,1.7,0.4c0.6,0.2,1,0.4,1.2,0.8l5.9,1.5
	c0.7,0.2,1.2,0.5,1.4,1c0.3,0.5,0.7,0.8,1.3,1c0.6,0.2,1.6,0.4,3,0.7c1.4,0.3,3.1,0.7,4.9,1.2c1.9,0.5,3.8,0.9,5.8,1.4
	c2,0.5,3.8,1,5.4,1.5c1.6,0.5,3,0.9,4.1,1.4c1.1,0.5,1.6,0.8,1.6,1.2c0,0.2-0.1,0.2-0.3,0.2h-9.3l-16.3-2.1c-1.8-0.4-3.7-0.8-5.7-1
	c-2-0.2-3.8-0.6-5.7-1c-1.5-0.3-3.1-0.7-4.7-1.1c-1.6-0.4-3.2-0.6-4.8-0.6c0,0.3,0.1,0.4,0.3,0.5c0.2,0.1,0.3,0.3,0.3,0.5
	c0,0.2-0.1,0.5-0.3,0.9c-0.2,0.4-0.5,0.6-0.7,0.6c-0.5,0-0.8-0.2-0.9-0.6c-0.1-0.4-0.4-0.6-1-0.6c-0.2,0-0.4,0.1-0.5,0.2
	c-0.1,0.1-0.2,0.2-0.2,0.4c0,0.2-0.1,0.3-0.2,0.4c-0.1,0.1-0.3,0.2-0.6,0.2c-0.8,0-1.4-0.2-1.9-0.7c-0.5-0.5-1-0.9-1.6-1.4
	c-0.6,0.1-1.2,0.1-1.7,0c-0.5-0.1-0.9-0.2-1.4-0.3c-0.5-0.1-0.9-0.2-1.4-0.3c-0.5-0.1-1.1-0.1-1.7,0c-0.5-0.6-1.1-0.9-1.8-1
	c-0.7-0.1-1.3-0.5-1.8-1c-0.1,0-0.2-0.1-0.4-0.4c-0.2-0.2-0.3-0.4-0.4-0.4c-0.3-0.3-0.6-0.4-1.2-0.5c-0.5-0.1-1-0.1-1.5-0.2
	c-0.5-0.1-0.9-0.3-1.3-0.5c-0.4-0.2-0.6-0.7-0.6-1.2c0-0.2,0.1-0.4,0.3-0.6c0.2-0.2,0.4-0.5,0.7-0.7c0.3-0.2,0.6-0.4,0.8-0.6
	c0.3-0.2,0.5-0.3,0.7-0.4c0.1,0,0.2,0.1,0.3,0.2c0.1,0.1,0.3,0.2,0.4,0.2h0.6c0-0.1,0-0.2,0.1-0.3c0-0.2-0.1-0.2-0.4-0.2l0.4-0.3
	c-0.1-0.1-0.1-0.1-0.2-0.2C34.3,71,34.2,71,34.2,71c-0.1,0-0.2,0-0.4,0c-0.2,0-0.3-0.1-0.4-0.2c-0.2-0.2-0.4-0.5-0.8-0.9
	c-0.3-0.4-0.6-0.8-0.9-1.2c-0.3-0.4-0.5-0.9-0.8-1.3c-0.2-0.4-0.3-0.8-0.3-1v-0.4c0-0.2,0.1-0.3,0.4-0.4c-0.1-0.1-0.2-0.1-0.3-0.1
	c-0.5,0-0.8,0.2-0.9,0.7c-0.1,0.5-0.2,0.8-0.2,1.2c0,0.1,0,0.2,0.1,0.6c0,0.1,0,0.2,0.1,0.3c0.1,0.1,0.1,0.2,0.1,0.2
	c0,0.3-0.1,0.4-0.3,0.4c0.1,0.6,0.2,1.2,0.1,1.8c-0.1,0.6-0.3,1.1-0.8,1.7c0.2,0,0.3,0.1,0.3,0.2c0,0.1,0,0.2-0.1,0.4
	C29.1,72.9,29,73,29,73.1c-0.1,0.1-0.1,0.1-0.1,0.2s0,0.1,0.1,0.2c0.1,0,0.2,0.1,0.4,0.2c0.2,0.2,0.3,0.3,0.3,0.3
	c0.1,0.3,0,0.7-0.3,1.2c-0.3,0.5-0.5,0.9-0.5,1.2h-0.5c0,0.8,0.1,1.5,0.4,2.1c0.3,0.6,1,0.9,2.2,0.9c0.3,0,0.4-0.1,0.5-0.2
	c0.1-0.1,0.2-0.2,0.3-0.2h0.2c0.3,0.4,0.5,1,0.7,1.6c0.2,0.6,0.6,1.1,1.1,1.4c0.9,0.5,2.1,0.9,3.6,1.1c1.5,0.2,3,0.4,4.4,0.7
	c1.4,0.3,2.7,0.7,3.7,1.2c1,0.5,1.6,1.4,1.6,2.6c0,0.3-0.1,0.4-0.2,0.5c-0.1,0.1-0.3,0.1-0.7,0.1c-0.3,0-0.5-0.1-0.7-0.3
	c-0.1-0.2-0.3-0.5-0.4-0.7c-0.2-0.3-0.3-0.5-0.6-0.7c-0.2-0.2-0.6-0.3-1.1-0.3c-0.3,0-0.7,0.2-1.3,0.6c-0.6,0.4-0.9,0.6-0.9,0.7v0.2
	l0.4,1.1V88.7z"/>
</svg>
