<?xml version="1.0" encoding="utf-8"?>
<!-- Generator: Adobe Illustrator 27.9.0, SVG Export Plug-In . SVG Version: 6.00 Build 0)  -->
<svg version="1.1" id="Layer_1" xmlns="http://www.w3.org/2000/svg" xmlns:xlink="http://www.w3.org/1999/xlink" x="0px" y="0px"
	 viewBox="0 0 100 100" style="enable-background:new 0 0 100 100;" xml:space="preserve">
<g>
	<path d="M68.7,29.9c0,0,0-0.7,0.5-1.4c0.5-0.7,1.7-1.3,2.5-2.1c0.8-0.8,0.9-0.3,0.9-0.3s0.3,0.4-0.2,1.2c-0.5,0.8-1.7,2.2-1.8,3.2
		c-0.2,1.1-1.3,3-2.7,3.6l0,0l0,0l0,0L68.7,29.9z"/>
	<path d="M68.6,21.4c0,0-0.8-1.6-2.2-2.8l-0.6-0.5c0,0,3.1,0.2,4.3-1.5c1.2-1.8,0.4-5.3,0.7-5.8c0.3-0.3,2.8,2.9,1.8,6.3
		C71.8,20,69.4,21.6,68.6,21.4z"/>
	<path d="M35.1,78.2c1.2-1.2,5.2-5.2,5.2-5.2s0.7-2.2,0.8-4.1c1.3,0.2,5.1,0.3,5.3-4.2c0.1-2.5-0.5-4.3-1.3-5.3
		c0.3-1.4,1.4-8.9,2.3-11.2c0,0-2.3,3.3-4.1,6.3c-1.1,1.9,0.2,4.2,1,6.3l0,0c0.2,0.4,1,2.4,0.8,3.8c-0.3,1.5-1.1,4.1-4,2.8v-0.1
		c-0.5-0.3-0.8-0.8-0.8-2c0,0,0.2-1.4-0.8-3.9c-1-2.5-2.6-6.5-0.3-10.4c1.3-2.3,3.7-5.3,4.8-7.6c1.2-2.3,3.4-3.8,5.9-4.2
		c2.1-0.3,4-0.3,4.4-0.7c0.7-0.6-1.4-2.8-1.4-2.8c-0.4-0.6-0.8-1.3-1.1-1.9l-1.2-0.4c-2.4-1.1-2.8-4.5-3.1-5.8s-1-3.3-0.8-4.3
		c0.2-0.9,0.5-0.7,0.6-0.3c0.1,0.3,1.8,2.5,2.8,2.8c0.1,0,0.1,0.1,0.2,0.1c0.2-1,0.3-1.9,0.4-2.3c0.3-1,0.7-2.2,1.3-3.2
		c-0.5-0.5-1.2-1.3-2.1-2.8c-1.8-2.9,1.1-6.3,2.1-7.2c1.1-0.9,1-0.3,1-0.3s-0.8,1.3-1.2,3.5c-0.3,1.5,1.7,3.2,3.1,4.2
		c1.1-0.5,2.5-0.8,4.3-0.9c3.3-0.2,6.7,2.2,7.9,4.4c1,1.9,1.3,4.2,0.8,6.3c-0.2,0.8-0.3,1.5-0.4,1.9c0,0.5-0.1,0.9-0.2,1.4
		c-0.3,4-2.3,7.3-5.7,8.3h0.1l-0.5,3.5l1.3-2.3c0,0,1.3,0.1,3.1,1.4c0,0,2.9,1.3,3.3,6.2c0.5,4.9,2.5,8.9,2.5,8.9s5.2,3.2,5.8,4.5
		c0.6,1.3,1,3,0,4.5c-1.1,1.6-3.5,0.6-4.5-0.6s-0.3-2-0.3-2s-3.8-2.3-5.3-3.2S64.3,52,64.3,52l-0.4-1.5l-1.6,5.3
		c0,0-1.1,4.5-2.3,6.9c-0.4,0.9,0.2,2,2.9,4.3c2.7,2.3,6.7,8.9,5,11.4c-2.1,3-7.9,2.8-12.4,1.8c0,0-0.5-0.4-2.2,1.8
		c-1.7,2.3-0.3,6.2-2.7,7.3c0,0-1,1.3-2.2,0.2c-1.2-1.2,0.3-5.3,0.3-6.5c-0.1-1.3,0-6.2,1.9-6.9c2.2-1,6.8-1.9,6.8-1.9
		s2.8,1.7,4.2,2.2l-1-1.3c-2.1-2.4-4.7-4.4-7.6-5.7H53c-2.1-0.9-6.3,7.3-10.4,8.4s-4.3,3.4-4.3,3.4s-0.9,4.1-1,5.3
		c-0.1,1.3-1,3.5-2.3,3.4c-1.3-0.1-3.8-1.1-2.7-4.8C33.4,81.5,34,79.3,35.1,78.2z M66.4,30c0,0-0.6-0.8-1.3-0.9
		c-0.8-0.1-1.7,0.6-1.7,0.6C64.8,31.5,66.4,30,66.4,30z M59.2,29.6c0,0-0.6-0.8-1.3-0.9c-0.8-0.1-1.7,0.6-1.7,0.6
		C57.6,31,59.2,29.6,59.2,29.6z"/>
	<path d="M47.6,31.5c0.5,2.3,3.6,3.7,3.6,3.7l0.5,2.5c-3.6-0.2-6,1.9-6,1.9c-4.8-3.8-7.4,3.5-7.4,3.5c0.3-3.8-2.6-9.4-5.9-9.8
		c-3.3-0.3-8.3,3.2-8.3,3.2s1.3-1.6,2.5-6.3c1.2-4.8-7.8-11.4-7.8-11.4S30,20.5,35.3,23l3.1-1.5c-0.1,1.2-0.6,2.4-0.8,3
		c0.2,0.2,0.3,0.3,0.3,0.5C39.8,28.6,47.6,31.5,47.6,31.5z"/>
	<path d="M15.8,59.8c1,3.2,5.8,6.2,5.8,6.2c-1.4-0.1-2.3,1.3-2.5,1.7c1.5,2,3.6,4,5.8,3.5c3.7-0.8,3.5-2,6.4-5.8c1.3-1.7,3-3,5-3.8
		c0.6-0.3,1.2-0.3,1.7-0.3l0.8,2.4c0,0-2.8,0.4-4.9,2.5c-3,3-4.1,6.9-8.7,7.4c-4,0.4-6.2-3-7.4-5.8c-1.8,0.2-2.6,1.3-2.6,1.3
		C14.6,65.5,15.8,59.8,15.8,59.8z"/>
	<path d="M71.9,43.8l-0.5,1.7l-1.5-1c0,0-1.8-4.3-5.7-4.8l2.3-2.1c0,0,3.6-1.3,4.2-4.9c0,0,1.4,0.3,4.1-2.8s10.1-4.2,10.1-4.2
		s-5.9,4.3-6.4,9.4c-0.4,5.1,0.7,6.3,0.7,6.3S74.2,39.7,71.9,43.8z"/>
</g>
</svg>
