<?xml version="1.0" encoding="utf-8"?>
<!-- Generator: Adobe Illustrator 27.9.0, SVG Export Plug-In . SVG Version: 6.00 Build 0)  -->
<svg version="1.1" id="Layer_1" xmlns="http://www.w3.org/2000/svg" xmlns:xlink="http://www.w3.org/1999/xlink" x="0px" y="0px"
	 viewBox="0 0 100 100" style="enable-background:new 0 0 100 100;" xml:space="preserve">
<g>
	<path d="M71.7,46.5c-0.2,0-0.5,0-0.7,0c-2.7,0-4.1-2.2-4.6-3.3c4.8-3.7,7.9-6.9,7.9-6.9c-5,3.9-7.6,5.5-8.8,6.2
		c-3.6-0.4-4.2-4-4.2-4s-3.5-0.6-4-4.1c0.6-1.2,2.2-3.7,6.3-8.9c0,0-3.1,3-6.8,7.9c-1.1-0.5-3.7-2-3.4-5.4c0,0-3-0.6-3.6-3.5
		c0.3-0.8,1.6-3.3,6.6-9.5c0,0-3.3,2.9-7.2,7.7c-0.9-0.4-2.8-1.7-2.6-4.7l1.8-4.7c2.5-5.2,7.7-8.4,13.5-8.4c0.1,0,0.2,0,0.3,0
		c5.2,0.1,10.5,1.7,14.1,4c5.6,3.5,7.7,6.9,7.7,6.9s3,1.3,6.9,7.7c2.2,3.6,3.9,8.8,4,14.1c0.1,5.9-3.1,11.3-8.4,13.8L82,53.7
		c-0.1,0-0.3,0-0.4,0c-2.5,0-3.6-1.6-4.1-2.6c4.6-3.7,7.3-6.8,7.3-6.8c-5,4-7.6,5.6-8.8,6.3C72.7,50.5,71.7,46.5,71.7,46.5z"/>
	<path d="M40.8,60.7c-0.7,0.9-1.1,1.3-2.1,1.8c-0.1,0-0.1,0.1-0.1,0.1c-0.2,0.3-0.3,0.5-0.5,0.8c0,0.2,0,0.4-0.1,0.7
		c-0.2,0.6-0.5,1.3-1.2,1.7c-0.2,0.1-0.4,0.1-0.7,0.1c-0.1,0-0.1,0-0.2,0c-0.7,0.6-1.4,1-2.1,1.2c-0.3,0.4-0.6,0.8-1.2,0.9
		c-0.1,0-0.2,0-0.3,0c-0.5,0-0.9-0.3-1.3-0.6c-0.4,0-0.9-0.1-1.3-0.2c-4.4-0.8-4.6-5.6-3.1-5.6l0,0c1.3,0.1,0.2,3.4,3.6,3.4
		c0.4,0,1-0.1,1.6-0.2c5.3-1.1,2.9-5.3,11.4-19.9c3.3-5.6,6.7-9.6,9.6-12.2c0.8,1,1.8,1.7,2.7,2.2c0.4,2.7,2.3,4.3,4,5
		c0,0.4-0.1,0.8-0.2,1.1c-0.3,0.5-0.6,0.6-0.9,0.6c-0.6,0-1.3-0.6-1.9-0.6c-0.3,0-0.5,0.1-0.7,0.5c-0.3,0.6,0.3,1-0.4,1.5
		c-0.2,0.2-0.4,0.3-0.6,0.3c-0.4,0-0.8-0.4-1.3-0.4c-0.1,0-0.3,0-0.4,0c-1.5,0-1.2,1.8-1.2,2.8c0,0.7-0.3,1.5-1,1.9
		c-0.3,0.1-0.5,0.2-0.8,0.2s-0.6-0.1-0.9-0.1c-0.1,0-0.3,0-0.4,0c-0.8,0.2-1.1,0.6-1.2,1.4c0,0.9,0.2,1.5-0.4,2.4
		c-0.5,0.8-1,1.1-1.8,1.3c-0.7,0.2-1.1,0.4-1.3,1.2c-0.2,0.7,0.1,1.3-0.1,1.9c-0.4,1-0.9,0.8-1.7,1.1c-0.7,0.3-0.8,0.8-0.8,1.5
		c0,0.3,0.2,0.9,0.2,1.2C41.5,60,41.1,60.4,40.8,60.7z"/>
	<path d="M60.8,42.1c0.1,0,0.1-0.1,0.2-0.1c0.9,1,2.1,1.9,3.9,2.2c0.4,0.7,0.9,1.5,1.6,2.2c-3,4-5.4,4.5-8.5,6
		c-4.2,2-8.5,3.1-10.4,5.1c-1.2,1.3-2.8,3.9-3.2,3.9c-0.2,0-0.1-0.6,0.5-2.3c-0.1-0.7-0.1-1.5,0-2.1c0.2-1,1-1.3,1.6-2.2
		c0.2-0.4,0.1-0.7,0.4-1.1c0.4-0.5,0.7-0.7,1.3-0.8c0.8-0.2,1.7-0.5,1.5-1.5c0.5-1,1.3-1.2,2.1-1.2c0.3,0,0.6,0,0.8,0.1
		c0.1,0,0.2,0,0.3,0c1,0,1.3-0.7,1.6-1.8c0.3-1.2,0.7-2,2.1-2.1h0.1c0.4,0,0.8,0.2,1.2,0.2c0.2,0,0.3,0,0.4-0.1
		c0.6-0.3,0.4-0.9,0.8-1.4c-0.1-0.5,0.1-1.1,0-1.6C59.5,42.7,60,42.5,60.8,42.1z"/>
	<path d="M5.1,80.8c0.1-0.1,0.3-0.3,0.5-0.5c0.5-0.4,1.1-1.1,1.8-2.1c0.6-1,1.2-2.3,1.5-3.9s0.3-3.4,0.7-5.4c0.2-1,0.6-2,1.3-2.9
		c0.4-0.4,0.9-0.8,1.4-1c0.5-0.3,1.1-0.4,1.7-0.6c1.1-0.3,2.3-0.4,3.5-0.7h0.1c0.6-0.8,1.2-1.5,1.9-2.1c0.5-0.5,1.1-0.9,1.7-1.3
		c0.2-0.6,0.2-1.2,0.3-1.8c0.1-1.3,0-2.6,0-3.9c0-1.4,0.1-2.7,0.4-4s0.7-2.7,1.6-3.9c0.4-0.6,1-1.1,1.6-1.5s1.3-0.7,1.9-0.9
		c1.3-0.4,2.7-0.6,4.1-0.6c1.3-0.1,2.7,0,3.9-0.1c0.1,0,0.3,0,0.4,0c0.1-1,0.3-2.1,0.6-3.2c0.7-2.5,2.5-4.6,4.6-5.7
		c1-0.6,2.1-0.9,3.2-1.2c0.7-0.2,1.4-0.3,2.1-0.4c0.2-1.9,0.4-3.8,0.6-5.4c0.2-1.5,0.6-2.7,1-3.8c0.2,0.2,0.4,0.3,0.6,0.4
		c0.1,0.6,0.2,1.2,0.4,1.8c-0.2,0.6-0.3,1.2-0.4,1.9c-0.3,1.4-0.4,3-0.7,4.7c0.4-0.2,0.9-0.4,1.2-0.6c0.3-0.2,0.6-0.4,0.8-0.7
		l0.2-0.2l0.1-0.1c0,0,0-0.1,0.1-0.1c0.1-0.1,0.2-0.3,0.3-0.4c0.4-0.5,0.7-1,0.9-1.4c0.2,0.2,0.5,0.3,0.7,0.4
		c0.1,0.6,0.2,1.1,0.3,1.6c-0.1,0.2-0.3,0.4-0.5,0.7c-0.1,0.2-0.3,0.3-0.4,0.5L51,32.5l-0.1,0.1l-0.2,0.2c-0.3,0.3-0.7,0.6-1.1,0.9
		c-0.8,0.6-1.7,1-2.7,1.3c0,0,0,0-0.1,0c-0.1,0.5-0.2,1.1-0.4,1.6c-0.1,0.5-0.4,1.1-0.6,1.6c-0.1,0.3-0.3,0.5-0.4,0.8
		c-0.2,0.3-0.3,0.5-0.5,0.8c-0.7,1-1.6,2-2.6,2.7c-1.1,0.7-2.3,1.3-3.5,1.6c-0.5,0.1-1,0.2-1.5,0.3c-0.1,0.5-0.1,1.1-0.2,1.7
		l-0.2,0.2l-0.1,0.5c-0.1,0.3-0.2,0.6-0.3,1c-0.8,2.5-2.4,4.7-4.2,6.6c-0.4,0.5-0.9,0.9-1.4,1.3c-0.5,0.4-1,0.8-1.5,1.2
		c-1,0.8-2,1.5-3,2.1c-2,1.4-4.1,2.6-5.7,4c-0.8,0.7-1.5,1.5-2,2.3S18.1,67,18.1,68s0.2,2,0.2,3c0,1.1,0,2.1-0.2,3
		c-0.1,1-0.3,1.8-0.5,2.7c-0.1,0.4-0.2,0.8-0.4,1.3c-0.1,0.2-0.2,0.4-0.3,0.6c-0.1,0.2-0.2,0.4-0.3,0.6c-0.9,1.4-2.1,2.3-3,2.8
		c-1,0.5-1.8,0.8-2.3,1s-0.8,0.3-0.8,0.3s0.2-0.2,0.7-0.6c0.4-0.4,1.1-0.9,1.9-1.6s1.6-1.6,2.2-2.8c0.1-0.2,0.1-0.3,0.2-0.5
		s0.1-0.3,0.2-0.5c0.1-0.3,0.2-0.7,0.3-1.1c0.2-0.8,0.3-1.6,0.4-2.5s0.1-1.8,0.1-2.7c0-0.9-0.2-1.9-0.3-3.1c0-0.6,0-1.2,0.2-1.8
		c0.1-0.3,0.1-0.6,0.3-0.9c0.1-0.3,0.3-0.7,0.4-0.9c0-0.1,0.1-0.1,0.1-0.2c-1.1,0.2-2.1,0.3-3.1,0.6c-0.6,0.1-1.1,0.3-1.6,0.5
		s-0.9,0.6-1.3,0.9c-0.7,0.8-1.1,1.8-1.3,2.8c-0.4,1.9-0.5,3.8-0.8,5.4s-0.9,3-1.6,3.9c-0.7,1-1.4,1.6-1.8,2
		C5.4,80.5,5.2,80.7,5.1,80.8C5,80.9,4.9,81,4.9,81S5,80.9,5.1,80.8z M43.8,38.8c0.8-1.2,1.2-2.5,1.4-3.7c-0.4,0.1-0.8,0.2-1.3,0.3
		c-0.9,0.2-1.8,0.6-2.6,1c-1.6,0.9-3,2.5-3.5,4.4c-0.2,0.7-0.3,1.4-0.5,2.2c0.3-0.1,0.7-0.2,1-0.3C40.7,42.1,42.6,40.7,43.8,38.8z
		 M25.3,57.3c1-0.7,2-1.4,2.9-2.1c0.5-0.4,0.9-0.7,1.4-1.1c0.4-0.4,0.9-0.8,1.3-1.2c1.6-1.7,3-3.6,3.6-5.7c0.1-0.3,0.2-0.5,0.2-0.8
		l0.1-0.4l0.1-0.4c0.1-0.3,0.1-0.7,0.1-1c-0.1,0-0.1,0-0.2,0c-1.3,0.1-2.6,0-3.9,0s-2.6,0.1-3.8,0.5c-0.6,0.2-1.2,0.4-1.7,0.8
		c-0.5,0.3-1,0.8-1.4,1.2c-0.8,1-1.2,2.2-1.5,3.5s-0.4,2.6-0.4,3.9c0,1.3,0,2.6-0.1,3.9c0,0.4-0.1,0.8-0.2,1.2
		c0.2-0.1,0.3-0.2,0.5-0.3C23.3,58.6,24.3,58,25.3,57.3z"/>
	<path d="M18.3,85c0.5-1,1.4-2.2,2.8-3c0.2-0.1,0.4-0.2,0.6-0.3c0.2-0.1,0.4-0.2,0.6-0.3c0.4-0.2,0.9-0.3,1.3-0.4
		c0.9-0.2,1.7-0.4,2.7-0.5s2-0.2,3-0.2c1.1,0,2.1,0.2,3,0.2c1,0,1.8-0.2,2.7-0.6c0.4-0.2,0.8-0.5,1.1-0.8c0.3-0.4,0.6-0.8,1-1.1l0,0
		c0,0,0-0.1,0.1-0.1c1.4-1.6,2.6-3.7,4-5.7c0.7-1,1.4-2,2.1-3c0.4-0.5,0.8-1,1.2-1.5s0.9-0.9,1.3-1.4c1.8-1.8,4-3.4,6.6-4.2
		c0.3-0.1,0.6-0.2,1-0.3l0.5-0.1l0.4-0.1c0.2,0,0.4-0.1,0.6-0.1c0.1-0.5,0.2-1,0.3-1.5c0.4-1.3,0.9-2.5,1.6-3.5
		c0.7-1.1,1.7-2,2.7-2.6c0.3-0.2,0.5-0.3,0.8-0.5c0.3-0.1,0.5-0.3,0.8-0.4c0.6-0.2,1.1-0.5,1.6-0.6c0.9-0.3,1.8-0.4,2.7-0.6l0,0
		c0.3-1,0.7-1.9,1.3-2.7c0.3-0.4,0.6-0.7,0.9-1.1l0.3-0.2l0.1-0.1l0.1-0.1c0.7,0.4,1.5,0.6,2.3,0.7c-0.2,0.1-0.4,0.3-0.6,0.4
		c-0.1,0.1-0.3,0.2-0.4,0.3l-0.1,0.1l-0.1,0.1L69,49.4c-0.2,0.2-0.5,0.5-0.7,0.8c-0.3,0.4-0.5,0.8-0.6,1.2c1.3-0.2,2.6-0.3,3.7-0.5
		c0.3,0,0.5-0.1,0.8-0.2c0.5,0.5,1.2,0.9,1.9,1.2c-0.7,0.2-1.6,0.4-2.4,0.5c-1.3,0.2-2.8,0.4-4.4,0.5c-0.1,0.6-0.3,1.3-0.4,2
		c-0.2,1.1-0.6,2.1-1.2,3.2c-1.1,2-3.1,3.9-5.7,4.6c-1.2,0.4-2.4,0.5-3.6,0.7c-0.2,0-0.4,0.1-0.6,0.1c0,0.1,0,0.2,0,0.4
		c-0.1,1.2,0,2.6-0.1,3.9s-0.2,2.7-0.6,4.1c-0.2,0.7-0.5,1.3-0.9,1.9s-0.9,1.1-1.5,1.6c-1.2,0.9-2.5,1.3-3.9,1.5
		c-1.3,0.2-2.7,0.4-4,0.4s-2.6-0.1-3.9,0c-0.2,0-0.5,0-0.7,0.1c-0.4,0.6-0.9,1.2-1.4,1.8c-0.8,0.9-1.7,1.8-2.9,2.4
		c-0.1,0.1-0.2,0.1-0.4,0.2c-0.2,1-0.4,2-0.6,3c-0.1,0.6-0.3,1.1-0.6,1.7c-0.2,0.5-0.6,1-1,1.3c-0.9,0.7-1.9,1.1-2.9,1.3
		c-2,0.4-3.8,0.4-5.4,0.7c-1.6,0.3-2.9,0.8-3.9,1.5c-1,0.6-1.6,1.3-2.1,1.8c-0.2,0.2-0.4,0.4-0.5,0.5s-0.2,0.2-0.2,0.2
		s0.1-0.1,0.2-0.2s0.3-0.3,0.5-0.5c0.4-0.5,1.1-1.2,2-1.8c1-0.7,2.3-1.2,3.9-1.5c1.6-0.4,3.5-0.4,5.4-0.8c1-0.2,2-0.6,2.7-1.3
		c0.4-0.4,0.7-0.7,0.9-1.3c0.2-0.5,0.4-1,0.5-1.6c0.2-0.9,0.3-1.8,0.5-2.7c-0.3,0.1-0.6,0.2-0.9,0.3c-0.6,0.1-1.2,0.2-1.8,0.2
		c-1.2,0-2.2-0.2-3.1-0.3c-0.9-0.1-1.8,0-2.7,0.1c-0.9,0.1-1.7,0.3-2.5,0.4c-0.4,0.1-0.8,0.2-1.1,0.3c-0.2,0.1-0.3,0.1-0.5,0.2
		s-0.3,0.1-0.5,0.2c-1.2,0.6-2.1,1.4-2.8,2.2c-0.7,0.8-1.2,1.5-1.6,1.9c-0.4,0.5-0.6,0.7-0.6,0.7s0.1-0.3,0.3-0.8
		C17.5,86.8,17.7,86,18.3,85z M59.4,60.7c2-0.5,3.5-1.9,4.4-3.5c0.5-0.8,0.8-1.7,1-2.6c0.1-0.4,0.2-0.9,0.3-1.3
		c-1.6,0.2-3.3,0.7-4.8,1.6c-1.8,1.1-3.2,3.1-3.9,5.4c-0.1,0.3-0.2,0.7-0.3,1C57.3,61.2,58.4,61,59.4,60.7z M40.8,76.7
		c1.3-0.1,2.6-0.1,3.9-0.1c1.3,0,2.6-0.2,3.9-0.4c1.3-0.3,2.5-0.7,3.5-1.5c0.5-0.4,0.9-0.8,1.2-1.4c0.4-0.5,0.6-1.1,0.8-1.7
		c0.4-1.2,0.5-2.5,0.5-3.8s0-2.6,0-3.9v-0.1l0,0l-0.4,0.1L53.8,64c-0.2,0-0.5,0.1-0.8,0.2c-2.1,0.7-4,2-5.7,3.6
		c-0.4,0.4-0.8,0.8-1.2,1.3c-0.4,0.4-0.8,0.9-1.1,1.4c-0.7,0.8-1.4,1.8-2.1,2.8s-1.3,2-2,3c-0.1,0.1-0.2,0.3-0.3,0.4
		C40.7,76.7,40.7,76.7,40.8,76.7z"/>
</g>
</svg>
