<?xml version="1.0" encoding="utf-8"?>
<!-- Generator: Adobe Illustrator 27.9.0, SVG Export Plug-In . SVG Version: 6.00 Build 0)  -->
<svg version="1.1" id="Layer_1" xmlns="http://www.w3.org/2000/svg" xmlns:xlink="http://www.w3.org/1999/xlink" x="0px" y="0px"
	 viewBox="0 0 100 100" style="enable-background:new 0 0 100 100;" xml:space="preserve">
<g>
	<path d="M74.5,20.6c-0.8-2-1.1-4-1.1-6.1c0-0.5,0.1-1.1,0.2-1.7c3.9,0,7.5,0,11.3,0c-0.4-3.3-0.8-9.2-1.2-12.5
		c-1.3,0-2.6-0.1-3.9,0c-1.7,0.2-1.2,0.1-2.9,0c-1.1-0.2-2.5-0.3-3.7-0.1c0,0-2.4,0.1-2.8,0.4c-0.7,0-1.4,0-2,0.1
		c-0.8,0.1-2.3-0.5-3-0.2c-1.3,0.2-1.4,0.1-2.2,0.1c-1.4,0-2.9,0-4.3,0c-0.8,3.3-0.3,9.2-0.4,12.5c3.6,0,6.9,0,10.3,0
		c0,0.5,0,0.8,0,1.1c-0.1,1.6-0.4,3.2-0.1,4.8c0.3,1.7-0.1,3.3-1.1,4.8c-0.8,1.1-0.7,2.1,0,3.1c0.5,0.7,0.3,1.2,0,1.9
		C66.2,32,63,34.6,61,37.6c-1.5-1-1.4-1-1.7-2.3c0-0.3-0.3-0.6-0.5-0.9c-1.5-2-3-3.9-4.4-5.8c-0.6-0.9-1.6-1.6-2.9-2.1
		c-0.5-0.3-1-0.6-1.8-1.1c-0.1,0-0.6,0-1.1-0.1c-1.3-2.5-0.5-5-0.9-7.5c-1.1-0.2-1.7,0.1-1.9,0.7c-0.5,1.1-0.8,2.2-1.4,3.2
		c-0.2,0.4-0.5,0.8-0.8,1.1c0.4-0.8,0.6-1.7,0.6-2.7c0.1-2.1-0.6-4-2.6-4.9c-2.4-1.2-4.9-1.1-7.3,0.2c-1.9,1.1-2.9,3.4-2.6,5.7
		c0,0.3,0.1,0.6,0.2,0.8c-0.7-0.8-1.4-1.6-2.2-2.4c-0.9-0.2-1.5,0.2-1.5,0.9c0,0.5,0.1,1.1,0.2,1.6c0.4,1.5,0.8,2.9,1.3,4.6
		c-1.3,0.4-2.6,0.8-3.8,1.2c-2.1,0.7-4.1,1.4-4.9,3c-0.4,0.7-1,1.3-1.6,1.9c-1,1-1,1.5,0.1,2.5c0.2,0.3,0.5,0.5,0.7,0.7
		c-1.1,3-1.4,5.8-1.5,8.7c0.7,0.1,1.2,0.2,1.8,0.4c-0.3,1.3-0.4,2.7-0.7,4c-0.6,2.8-0.6,5.6-0.3,8.4c0.1,0.7-0.1,1.4-0.3,2.1
		c-0.3,1.3-0.9,2.5-0.9,3.8c0,1.3,1.1,2.6,2.9,3.5c-0.3-1.9-0.1-3.9,0.4-5.9c1.5,1-0.2,2.4,1.8,3.3c0.3-1.6,1-3,0.2-4.5
		c-0.2-0.3-0.2-0.5-0.2-0.8c0.3-1.8,0.5-3.7,0.8-5.5c0.1-0.8,0.8-1.7,0.5-2.5c-0.6-1.6,0.7-2.8,1.4-4.2c0.2-0.5,0.7-0.6,1.4-0.4
		C28,47,27,48,28.8,48.4c0.1,0,0.1,0.7-0.1,0.8c-0.9,0.6-0.7,1.3-0.9,2c-0.7,2.5-0.3,5.1-0.7,7.6c-0.6,4-1.7,8.1-2.2,12.1
		c-0.4,2.8-2.3,5.3-1.9,8.2c0.2,1.7-0.6,3.5-0.7,5.3C22,87.8,22,91.2,22,94.6c0,1.9-0.8,2.7-3.5,3.4c-0.6,0.2-1.3,0.3-1.9,0.5
		c-0.4,0.1-0.7,0.3-1.5,0.6c1.1,0.3,1.7,0.5,2.3,0.5c3.4,0,6.8-0.1,10.2-0.2c2.2-0.1,2.4-0.4,2.1-1.7c-0.6-2.2,0.6-4.2,1.5-6.3
		c0-0.1,0.2-0.3,0.4-0.4c0.8-0.3,0.7-0.7,0.6-1.2c-0.3-1.6-0.7-3.1-0.8-4.7c-0.1-1.9,0.2-3.7,0.3-5.5c0,0,0.2-0.1,0.4-0.2
		c0.2,0.5,0.4,0.9,0.6,1.3c0.7,1.7,1.3,3.5,2.1,5.3s1.9,3.5,2.9,5.3c0.3,0.6,0.6,1.2,2,1.3c1.9-3.9,3.7-7.7,5.5-11.5
		c0,1.6,0,3.2,1.2,4.7c0.3,0.4,0.3,0.8,0.3,1.1c-0.3,2.5,2.6,4.5,2.7,6.9l0.1,0.1c0.2,0.5,0.5,1,0.6,1.5c0.2,1.4,0.3,2.7,0.5,4.1
		c4.1,0,7.9,0,11.8,0c0-1.2-0.2-1.4-1.7-1.6c-1.1-0.1-2.1-0.3-3.2-0.4c-1.6-0.2-1.6-0.2-1.8-1.2c-0.2-0.8,0.1-1.7-0.9-2.5
		c-0.2-0.1-0.1-0.4-0.1-0.6c0-0.8,0.2-1.7,0.1-2.5c-0.5-3.6-1.1-7.2-1.7-10.8c-0.1-0.8-0.2-1.4,0.4-2.1c0.6-0.7,0.7-1.4,0.4-2.1
		c-0.2-0.5-0.2-1-0.3-1.5c-0.7-5.3-2-10.5-3.5-15.7c-0.9-2.9-1.5-5.9-1.5-8.9c-1.6-0.8-1.5-1.1,0.1-2.1c-0.1-2.2-0.1-4.3-0.2-6.4
		c0-0.6,0.1-1.1,1.4-1.1c0.4,1.4,0.9,2.9,1.3,4.4c0.6-0.3,1-0.4,1.4-0.6c1.9-0.9,1.9-0.9,3.3,0.3c1.5,1.2,1.5,1.2,3.9,0.7
		c0.5-0.1,1.1-0.2,1.6-0.3c1.1-0.2,1.9-0.7,2.3-1.4c0.4-0.7,0.9-1.3,1.2-2c1.3-2.7,2.6-5.5,3.9-8.3c0.1-0.3,0.3-0.5,0.4-0.8
		c0.3,0.4,0.3,0.7,0.3,1c-0.1,7.6-0.2,15.2-0.3,22.8c-0.1,2.1-0.2,4.3-0.4,6.4c-0.2,1.6-0.7,3.3-1,5c-0.1,0.3-0.2,0.6-0.1,0.9
		c0.2,1.1,0.4,2.2,0.7,3.3c0.2,0.6,0.2,1.3,0.7,1.8c1.3,1.4,0.9,2.8,0.2,4.1c-1,1.9-1.8,3.6-1.5,5.7c0.4,2.5,0,4.9,0.1,7.4
		c0.1,1.9-0.6,3.7-0.1,5.6c0.3,1-0.2,2.1-0.2,3.2c0,0.2,0.3,0.6,0.6,0.7c0.3,0.1,1.1,0,1.2-0.2c0.4-0.4,0.5-0.9,0.6-1.4
		c0.1-0.6,0.1-1.2,0.2-1.8c0-0.4,0.2-0.8,0.2-1.2c0.2-2.7,0-5.4,0.9-8.1c1.1-3.3,1.6-6.7,1.9-10.1c0.1-0.8,0.8-1.6,0.2-2.5
		c-0.1-0.1,0.1-0.3,0.1-0.5c0-0.6,0.1-1.2-0.1-1.8c-0.3-1.1-0.9-2.3-1.1-3.5c-0.4-2.3,0.1-4.5,1.4-6.6c0.4-0.6,0.6-1.3,0.6-2
		c0-10.5-0.3-21-1.1-31.5c-0.1-1.1,0.1-2.1,0.8-3.1C75.5,23.2,75.6,23.2,74.5,20.6z"/>
	<path d="M35.2,13.5c-0.3-0.8-0.6-1.5-0.9-2.3c-0.2-0.6-0.4-1.3-0.5-2c-0.1-0.5-0.2-1-0.9-1C32,8.3,32,8.9,32,9.5
		C32,11,32,12.6,31.8,14.1c0,0.3,0,0.7,0,1.1C33.8,15.7,34.2,14.1,35.2,13.5z"/>
	<path d="M42.2,8.7C42,8.4,41.7,8,41.5,8c-0.4,0.1-0.8,0.4-0.9,0.7c-0.5,1.2-0.9,2.4-1.3,3.7c1.2,0.4,2.4,0.7,4,1.2
		C42.8,11.8,42.5,10.3,42.2,8.7z"/>
	<path d="M37.2,12c0.7,0.1,1-0.5,1-1.1c0-1.2,0.1-2.5,0-3.8c0-1.1-0.1-1.2-1.8-0.9c0,1.5,0,3.1,0,4.7C36.5,11.3,37,11.9,37.2,12z"/>
</g>
</svg>
