<?xml version="1.0" encoding="utf-8"?>
<!-- Generator: Adobe Illustrator 27.9.0, SVG Export Plug-In . SVG Version: 6.00 Build 0)  -->
<svg version="1.1" id="Layer_1" xmlns="http://www.w3.org/2000/svg" xmlns:xlink="http://www.w3.org/1999/xlink" x="0px" y="0px"
	 viewBox="0 0 100 100" style="enable-background:new 0 0 100 100;" xml:space="preserve">
<style type="text/css">
	.{fill-rule:evenodd;clip-rule:evenodd;}
</style>
<path class="" d="M32.4,67.4c0.5-0.5,1.1-0.8,2.1-0.8c0-0.1,0-0.5,0.1-0.6c0-0.1,0-0.1-0.1-0.2c-0.5-0.1-1.2,0-1.7-0.2
	c-1.1-0.4-1.8-1.3-2.7-1.9c-1-0.8-2.2-1.6-2.9-2.7c-0.3-0.4-0.4-1-0.8-1.5c-0.3-0.4-1.5-0.5-1.9-0.9c-1.4,0.2-1.7,2.1-2.4,3.1
	c-0.2,0.5-1.4,1.5-2,1.8c-0.5,0.2-1,0.1-1.4,0.3c-0.3,0.1-0.6,0.3-0.8,0.5c0,0.1,0,0.1-0.1,0.2c-0.2,0-0.3,0-0.5,0
	c-0.3,0.1-0.5,0.2-0.8,0.3c0,0.8-0.1,1.7-0.3,2.4c-0.1,0.3,0,0.7-0.1,1c0,0.5-0.2,0.3-0.4,0.5C15.4,69,15.1,69.6,15,70
	c0,0.3-0.1,0.7-0.1,1c-0.3,0.7-0.6,1.5-0.9,2.2c0,0.3-0.1,0.5-0.1,0.8c-0.2,0.7-0.4,1.4-0.8,1.9c0,0,0,0,0,0.1c0,0-0.1-0.1-0.1-0.2
	c0,0,0,0,0-0.1c-0.2,0.1-0.2,0.1-0.3,0.2V76c-0.1-0.1-0.1-0.3-0.2-0.4c-0.8,0.1-1.3,0.4-1.8,0.9c-0.1,0-0.4-0.1-0.6,0.1
	c-0.4,0.2-0.6,0.5-0.9,0.8c-0.1,0-0.3-0.3-0.5-0.1c-0.1-0.1-0.2-0.4-0.3-0.5c-0.3,0-0.5,0-0.7,0.1c-0.3,0.1-0.4,0.6-0.3,1
	c0,0,0,0-0.1,0c-0.2-0.4-0.1-1,0.2-1.3v-0.1c-0.1,0-0.2,0-0.3,0c-0.2,0.2-0.4,0.4-0.6,0.7H6.4c0-0.1,0-0.2,0-0.3
	c0.1-0.1,0.2-0.3,0.3-0.4c0.2-0.2,0.4-0.3,0.6-0.4c0.2-0.2,0.1-0.5,0.3-0.7c0.2-0.3,0.8-0.6,1.2-0.7c0.6-0.3,1.9-0.1,2.4-0.5
	c0.3-0.1,0.2-0.5,0.3-0.8c0.1-0.3,0.4-0.7,0.5-1c0.1-0.4,0.1-0.9,0.2-1.3c0.2-0.8,0.5-1.6,0.7-2.4c0-0.3,0-0.7,0-1
	c0.1-0.3,0.2-0.6,0.3-0.9c0-0.3,0-0.5,0.1-0.8c0.1-0.4,0.4-1,0.6-1.5c0.3-0.9,0.3-1.9,1.2-2.2c-0.1-0.4-0.2-0.5-0.2-1
	c0.5-0.5,0.9-1.1,1.3-1.7c0.3-0.4,0.9-0.9,1.3-1.2c0.4-0.3,0.8-0.8,1.2-1.1c0.7-0.5,1.3-0.9,2-1.3c0.5-0.3,1.9-1.4,2.6-0.8
	c0.4-0.1,0.9-0.5,1.3-0.6c0.5-0.1,1.8,0.4,2,0.6c0.1,0,0.1,0,0.2,0c-0.3-0.4-0.4-1.2-0.6-1.6c-0.1-0.5-1.2-1-1.6-1.2
	c-1-0.7-2.6-2.3-2.7-3.9c-0.8-0.4-1.8-1.2-2.3-1.9c-0.4,0-0.6,0.2-0.9,0.3c-0.3,0.1-0.7-0.1-0.9-0.1c-0.1,0.1-0.3,0.2-0.4,0.3
	c-0.1,0.4-0.3,0.9-0.4,1.3c-0.3,0.8-0.2,1.5-0.5,2.2c-0.1,0.3-0.4,0.4-0.5,0.6c-0.2,0.3-0.3,0.7-0.5,1c-0.2,0.6-0.4,1.2-0.6,1.7
	c0,0.1,0,0.3-0.1,0.4c-0.1,0.2-0.4,0.3-0.5,0.5c-0.3,0.4-0.3,0.9-0.5,1.5c-0.1,0.2-0.2,0.6-0.1,0.8c0,0.1,0,0.2,0,0.3c0,0,0,0-0.1,0
	c0-0.1,0-0.2-0.1-0.2c0,0,0,0,0-0.1c0,0,0,0-0.1,0c0,0,0,0,0,0.1c-0.5,0.4-0.6,1.2-0.9,1.7v0.1c-0.2-0.2-0.1-0.5-0.3-0.7
	c0,0,0,0,0-0.1c-0.1,0-0.5,0.7-0.6,0.9c0,0,0,0-0.1,0c0-0.2,0-0.4,0.1-0.5c0-0.1,0-0.2,0-0.3c-0.4,0.1-0.8,0.2-0.9,0.6
	c-0.1-0.1-0.1-0.1-0.2-0.2c-0.3,0.1-0.3,0.2-0.4,0.4c0,0-0.5-0.1-0.8,0c-0.4,0.4-0.7,0.8-1.2,1.1c-0.1-0.2-0.2-0.4-0.3-0.6
	c-0.2,0-0.3,0.1-0.4,0.2c0,0,0,0-0.1,0c0-0.1,0-0.1,0.1-0.1c0-0.2,0-0.3-0.1-0.3c-0.1-0.1-0.6-0.1-0.7-0.2c0-0.2,0.1-0.6,0.1-0.6
	c-0.1-0.2-0.3-0.1-0.2-0.4c0.3-0.8,2.7-0.9,3.7-1.2c0.2-0.1,0.8,0.1,0.9,0.2c0.1-0.1,0-0.3,0.1-0.5s0.3-0.3,0.4-0.5
	c0.7-1.4,1.2-2.9,1.7-4.4c0.2-0.5,0.1-1,0.3-1.5c0.2-0.5,0.6-0.9,0.8-1.4c0.5-1.1,0.6-2.4,1.2-3.4c0.3-0.5,0.8-0.9,1.2-1.4
	c0.1-0.1,0-0.2-0.1-0.4c0.1-0.1,0.1-0.3,0.2-0.3c0.2-0.1,0.3-0.2,0.5-0.3c0,0,0,0,0.1,0c-0.2-0.4-0.8-0.8-1-1.3
	c-0.3-0.6-0.8-1.4-1-2c-0.1-0.3-0.2-0.7-0.2-1c-0.2-0.4-1.1-1.3-0.5-2c0.1-0.2,0.3-0.2,0.7-0.2c-0.1-0.3-0.1-0.7-0.1-1.1
	c-2.3-0.9-3.4-3.5-4.4-5.8c-0.3-0.7-1.1-2.1-0.4-2.9c-0.2-0.6-0.7-1-1-1.5c-0.8-1.3-1.8-4.3-1.8-6.3c0-1.3-0.4-4.3,0.9-4
	c-0.4-3.8,1.5-6.7,3-9.2c0.2-0.3,0.3-0.6,0.5-0.9c0.3-0.4,0.8-0.7,1-1.1c0.2-0.3,0.5-0.8,0.9-1s0.9-0.1,1.3-0.2
	c0.3-0.1,0.6-0.5,0.9-0.6c0.3-0.1,0.6-0.1,0.9-0.2c0.1-0.1,0.1-0.2,0.2-0.2c0.5-0.3,1.3-0.4,1.9-0.6c1-0.2,1.9-0.3,2.9-0.5
	c0.3,0,0.6,0,0.9,0C23.7,0,24.5-0.1,25.1,0c0.2,0,0.4,0.2,0.5,0.2c0.2,0.1,0.6,0,0.7-0.1c0.3,0,0.7,0.1,1,0.2c0.5,0,1,0,1.5,0.1
	c0.9,0.2,1.9,0.9,2,1.9c0.1,0,0.1,0,0.2,0c0.3,0.3,0.6,0.5,0.8,1c0,0.3,0.1,0.7,0.1,1c0.1,0.1,0.2,0.2,0.3,0.3
	c0.2,0.3,0.5,0.7,0.6,1c0,0.2,0,0.4,0,0.6c0.1,0.2,0.3,0.4,0.3,0.6c0.2,0.6,0.2,1.3,0.6,1.6c-0.3,0.5-0.2,1,0.1,1.6
	c0,0.1,0.2,0.3,0.2,0.3c0,0.2-0.2,0.2-0.2,0.5c0,0.1,0,0.3,0.1,0.4c0.1,0,0.1,0,0.2,0.1c0,0.1-0.1,0.2-0.1,0.4
	c0.1,0.1,0.3,0.2,0.3,0.3c0,0-0.3,0.4,0.2,0.7c-0.1,0.1-0.3,0.1-0.5,0.2c0.1,0.2,0.1,0.3,0.3,0.3c-0.5,0.7,0.1,0.6,0.2,1.3
	c-0.1,0-0.2,0-0.2,0.1h-0.1c0,0.4,0.2,0.8,0.5,0.9c-0.1,0.2-0.4,0.3-0.5,0.3c0.1,0.2,0.3,0.4,0.3,0.5c0,0.3-0.3,0.3,0.1,0.6
	c-0.1,0.1,0,0.1-0.1,0.1c0,0.3,0,0.3,0.2,0.3c-0.6,1.1,0.8,2.2,1.2,2.8c0,0,0,0,0.1,0c-0.1,0.1-0.3,0.1-0.6,0.1c0,0,0,0,0,0.1
	c0.1,0.1,0.3,0.2,0.4,0.3c0,0,0,0,0.1,0c0,0,0,0,0,0.1c-0.3,0-1.3-0.2-1.5-0.1c-0.1,0-0.2,0-0.2,0.1c-0.5,0.7-0.4,1.8-1.2,2.1
	c0,0.2,0.1,0.4,0.2,0.6c0,0.2,0,0.2-0.1,0.3c-0.2,0-0.3,0-0.5-0.1c-0.4,0.1-0.6,0.1-0.7,0.4c0,0.1,0,0.1-0.1,0.2
	c-0.3,0-0.5-0.1-0.7,0.1c0,0.1,0,0.1-0.1,0.2c0,0-0.5-0.1-0.7-0.1c-0.2,0.1-0.2,0.4-0.3,0.5c0,0-0.3-0.1-0.4-0.1s-0.2,0.3-0.2,0.3
	c-0.4,0.2-1-0.1-1.4,0.2c-0.3-0.1-0.5-0.3-0.7-0.4c-0.4-0.2-0.9-0.1-1.3-0.3c-0.1-0.1-0.2-0.2-0.3-0.3c-0.2-0.1-0.3-0.1-0.5-0.2
	s-0.1-0.4-0.2-0.6c-0.1-0.1-0.3-0.1-0.4-0.2c0-0.1,0-0.3-0.1-0.4c0-0.1-0.2-0.2-0.3-0.2C24,22.7,24.1,22.3,24,22
	c-0.1-0.1-0.2-0.3-0.3-0.4c0-0.3,0-0.5-0.1-0.8c0-0.1-0.2-0.2-0.2-0.2c0-0.2,0.2-0.4,0.2-0.6c0-0.1-0.1-0.2-0.1-0.3
	c0-0.3,0.5-0.9,0.6-1.2c0-0.2,0-0.3-0.1-0.5c0.1-0.2,0.4-0.4,0.5-0.7c0.2-0.6-0.1-1.2-0.2-1.5c-0.4-1-1.4-3-3.1-2.6
	c-0.5,0.1-0.8,0.4-1.2,0.5c0.2-0.8,2.1-1,3-0.7c1.4,0.6,2.1,1.9,3.3,2.8c0.1,0.2,0.2,0.3,0.3,0.5c0.4,0.3,1,0.3,1.4,0.7h0.1
	c0-0.3-0.2-0.4-0.3-0.6c-0.1,0-0.1,0-0.2,0c0-0.3,0-0.4,0-0.6c0,0,0,0-0.1,0s-0.1,0-0.2-0.1c0-0.2,0-0.5,0.1-0.7
	c-0.1-0.1-0.2-0.1-0.2-0.2c-0.1-0.3,0-0.5-0.1-0.8c-0.1-0.1-0.2-0.1-0.2-0.2c-0.1-0.1,0.2-0.5,0.2-0.8c0-0.2-0.3-0.3-0.3-0.5
	c-0.1-0.4,0.5-1.1-0.2-1.3c0.1-0.2,0.3-0.5,0.2-0.9c0-0.1-0.2-0.2-0.2-0.3c0-0.1,0.2-0.4,0.2-0.5c0.1-0.3-0.1-0.6-0.1-0.8
	c0,0,0,0,0.1,0c0.1-0.5,0.2-0.8,0.3-1c0.1-0.1,0.2-0.2,0.3-0.2c0.1-0.2,0-0.4,0.1-0.5c0.1-0.2,0.4-0.3,0.5-0.6c0-0.1,0,0,0.1-0.1
	c0-0.1,0,0-0.1-0.1c-0.9,0-1.3,0.1-1.9,0.5c-0.1,0-0.1,0.2-0.2,0.3c-0.2,0.1-0.4,0-0.6,0.1l-0.1,0.2c-0.3,0-0.5,0-0.8-0.1
	c-0.4,0.1-0.6,0.3-0.9,0.5c0,0.1-0.3-0.1-0.4-0.2C23,7.5,23,7.5,22.9,7.6c-0.6-0.4-0.6,0.1-1,0l-0.2-0.2c-0.1,0-0.3,0.1-0.3,0.1
	c-0.1,0-0.1-0.2-0.2-0.2c-0.3-0.1-0.4,0.1-0.5,0.2c-0.2-0.1-0.4-0.2-0.5-0.3c-0.3,0.1-0.4,0.4-0.7,0.5c0,0.3,0,0.4,0.1,0.5
	c-0.1,0.3-0.5,0.3-0.6,0.6c0,0.1,0,0.2,0.1,0.3c-0.1,0.1-0.4,0.2-0.5,0.3c0,0.1,0,0.2,0,0.2c-0.1,0.1-0.4,0.1-0.5,0.3
	c-0.1,0.1,0.1,0.3,0,0.3s-0.2,0.1-0.3,0.1c-0.3,0.2-0.2,0.4-0.3,0.6c-0.2,0.3-0.7,0.1-0.6,0.6c-0.4,0.1-0.8,0.2-1.2,0.3
	c0.1,0.2,0,0.1,0.2,0.2c-0.4,0.3-1.5,0-1.8,0.2c-0.3,0.3-0.4,0.8-0.7,1.1c0,0,0,0,0,0.1c0.2,0,0.6-0.1,0.8-0.2
	c0.2,0.1,0.2,0.4,0.3,0.6c0.1,0.2,0.3,0.3,0.5,0.5c0.3,0,0.6,0.1,0.8-0.1h0.1c0,0.1,0,0.2-0.1,0.3c0.1,0.2,0.3,0.3,0.3,0.4
	c0.1,0.4-0.4,0.7,0.2,1.2c-0.1,0.4-0.4,0.9,0.1,1.2c-0.1,0.4-0.5,1-0.1,1.3c-0.1,0.2-0.2,0.4-0.2,0.6c0,0.4,0,0.8,0,1.2
	c-0.1,0.4-0.3,0.8-0.4,1.2c-0.1,0.3-0.2,0.9-0.1,1.1c0,0.5,1.3,1.1,1.7,0.6c0.2,0.1,0.2,0.3,0.5,0.2c0.1,0.1,0.1,0.4,0.2,0.5
	c0.1,0.2,0.5,0.2,0.6,0.4c0.2,0.2,0.1,0.6,0.2,0.8c0.2,0.3,0.5,0.5,0.6,0.9c0,0.2,0,0.3,0.1,0.5s0.4,0.3,0.5,0.5c0,0.2,0,0.5,0,0.7
	c0.1,0.2,0.3,0.3,0.4,0.5c0,0.3,0.1,0.5,0.1,0.8c0.1,0.3,0.4,0.4,0.6,0.6s0.2,0.5,0.3,0.6c0.4,0.3,1.1-0.2,1.6,0
	c0.4,0.2,0.6,0.6,0.9,0.8c0.3,0.2,0.7,0.3,1,0.5c0.3,0.2,0.6,0.6,1,0.8c0.9,0.6,2.2,0.7,2.8,1.5c1.1-0.1,2.5,0.2,3.2,0.9
	c0,0,0,0,0.1,0c-1-1.5-4.2-3.9-2.5-6.4c0.4-0.1,1.2-0.4,1.7-0.3c0.4,0.1,0.7,0.2,1.1,0.3c0.4,0.1,1.1,0,1.4,0.2c0.2,0,0.3,0,0.5,0
	c-0.2-0.3-0.5-0.5-0.8-0.8c-0.2-0.3-0.3-0.6-0.5-0.8c0,0,0,0,0-0.1c0.1,0,0.4,0.1,0.5,0.1c0.1,0,0.1,0,0.2,0
	c-0.1-0.2-0.2-0.4-0.2-0.6c0.1-0.2,0.3-0.3,0.4-0.5c0.2,0.1,0.1,0.3,0.2,0.5c0,0,0.1,0,0.1,0.1c0.1-0.3,0.2-0.4,0.3-0.6
	c0.3,0,0.4,0.2,0.5,0.4c0,0,0,0,0.1,0c-0.1,0.1-0.1,0.1-0.2,0.2s0.3,0.5,0.3,0.7s0,0.5,0.1,0.7c0.2,0.7,0.8,1.1,1.5,1.3
	c-0.1,0.1-0.1,0.2-0.2,0.2c0,0.4,0.1,0.6,0.3,0.8c-0.2,0.2-0.4,0.2-0.3,0.5c-0.2,0-0.5,0-0.7,0c0,0.1,0,0.1-0.1,0.2
	c-0.2-0.1-0.5-0.3-0.7-0.4c-0.4,0-0.8,0-1.2,0c0.4,0.8,0.9,1.3,0.8,2.4c1.3,0.2,2.7,2,3.6,2.7c1.8,1.4,3.5,3.1,5.4,4.5
	c0.8,0.6,1.5,1.3,2.3,1.9c0.3,0.2,0.7,0.4,0.9,0.7c0.2,0,0.4,0,0.5-0.1c0.4,0.1,1,1.4,1.4,1.7c1.1,1,1.5,2.2,2.4,3.4
	c0.1,0.2,0.4,0.3,0.6,0.4c0.4,0.3,2,1.9,2.1,2.4c0.1,0,0.2,0,0.2-0.1c0.2-0.1,0.2-0.1,0.3-0.3c0.1-0.2,0.2-0.8,0.1-1
	c0-0.2-0.2-0.4-0.3-0.5c-0.3-0.9-0.2-1.6-0.6-2.3c-0.6-1-1.5-1.8-2.2-2.7c-0.3-0.4-0.6-0.9-1-1.2c-0.6-0.5-1.4-1-1.9-1.6
	c-0.2-0.2-0.2-0.5-0.4-0.7C48,40,47.3,40,47.1,39.7c-0.3-0.4-0.4-0.9-0.7-1.2c0-0.8,0.2-0.5,0.5-0.9c0,0-0.1-0.3-0.1-0.4
	c0.1-0.3,0.2-0.6,0.3-0.8c0.4-0.6,1.9-1.2,2.7-1.4c0.5,0,1,0,1.5-0.1c0.4-0.1,1.3-0.1,1.6,0c0.3,0.1,0.3,0.4,0.5,0.6
	c0.1,0.1,0.3,0,0.5,0.1c0.2,0.1,0.5,0.3,0.8,0.5c0.2,0.2,0.3,0.4,0.5,0.6c0.9,0.6,1.6,1.3,2.5,2c0.4,0.3,0.7,0.8,1.1,1
	c1.1,0.8,2.4,1.3,3.1,2.4c0.4-0.1,0.4-0.3,0.6-0.6c0.3-0.4,1.5-1.1,2.2-0.8c0,0.1,0.1,0.3,0.1,0.5c0.7-0.1,0.9,0.1,1.3,0.4
	c0,0.1,0,0.2,0,0.2s0,0-0.1,0c-0.1-0.2-0.2-0.3-0.5-0.4c-0.1,0,0,0-0.1-0.1c-0.1,0,0,0-0.1,0.1c0,0.4-0.2,0.7-0.2,0.9
	c0.1,0.1,0,0.1,0.1,0.2c-0.1,0.2-0.4,0.2-0.5,0.3c0,0.2,0.1,0.2,0.2,0.3v0.1c-0.4,0.1-0.7-0.1-0.9-0.1c-0.4,0.1-0.6,0.8-1,0.2
	c-0.1,0-0.1,0-0.2,0c0.1,0.3,0.3,0.4,0.3,0.6c0.6,0,1,0.1,1.4,0.2c0.4,0,0.9,0,1.3,0.1c0.7,0.2,1.5,0.6,2.4,0.6
	c0.1,0.3,0.3,0.5,0.3,0.9c1.3,0,1.8,0.9,2.4,1.5c0.4,0.4,0.9,0.9,1.3,1.3c0.2,0.1,0.5,0.2,0.6,0.5c0.1,0.1,0,0.3,0.1,0.4
	c0.1,0.1,0.2,0.2,0.3,0.3c0.2,0.3,0.3,0.6,0.5,0.8c0.2,0.2,0.4,0.4,0.6,0.6c0.4,0.5,0.3,0.8,0.9,1.1c0,0.2,0.1,0.3,0.1,0.5
	c0.3,0,0.3,0.1,0.5,0.2c0.3,0,0.7-0.1,1-0.1c0.4,0.1,0.7,0.3,1,0.3c0.4,0.1,0.8,0,1.2,0.2c0.3,0.1,0.5,0.4,0.8,0.5
	c0.4,0.2,0.7,0.4,1,0.5c0.1,0,0.2,0,0.3,0c0.5,0.2,1,0.7,1.4,1c0.2,0.1,0.4,0.2,0.6,0.2c0.3,0.2,0.5,0.5,0.8,0.7
	c0.9,0.7,2,1.8,2,3.3c0.9,0,0.9,0.7,1.3,1.3c0,0.3-0.1,0.4-0.3,0.5c0,0.2,0.1,0.4,0.2,0.5c0.2,0.3,0.5,0.1,0.8,0.3
	c0.2,0.2,0.3,0.7,0.6,0.9c0.2,0.1,0.4,0.1,0.6,0.2c0.1,0.1,0.2,0.5,0.3,0.6c0.4,0.4,1,0.7,1.2,1.2c0,0.2,0,0.3,0.1,0.5
	c0.1,0.1,0.2,0.2,0.3,0.3c0,0.2,0,0.4,0.1,0.6c0.1,0.1,0.2,0.1,0.3,0.2c-0.1,0.1-0.1,0.3,0,0.4c0.1,0.1,0.2,0.1,0.3,0.2
	c0,0.2,0,0.4,0.1,0.6c0,0.1,0.2,0.2,0.2,0.3c0.1,0.2,0,0.4,0.1,0.6c0.1,0,0.1,0.1,0.2,0.1c0,0.2,0,0.5,0.1,0.7
	c0.2,0.4,0.4,0.8,0.6,1.2c0,0.5,0,0.5,0.1,0.9c0,0.3,0,0.6-0.1,0.9c0.1,0.2,0.4,1.3,0.3,1.5c0,0.2-0.3,0.3-0.2,0.5
	c0.1,0.2,0.2,0.3,0.2,0.5c0.1,0.3-0.2,0.6-0.2,0.8c0,0.1,0.1,0.3,0.2,0.4c0.1,0.4-0.4,1.9-0.5,2.3c-0.1,0.5,0.4,1,0.1,1.5
	c-0.1,0.2-0.2,0.3-0.5,0.3c-0.1,0.4,0.2,0.5,0.2,0.8c-0.1,0.6-0.4,1.4-0.6,2c-0.2,0.8-0.3,1.6-0.5,2.4c-0.5,1.5-1.2,2.7-2,3.8
	c-0.7,0.9-1.4,1.7-2.9,1.7c-0.1-0.1-0.2-0.2-0.3-0.2c0-0.2-0.1-0.5,0-0.6c0.1-0.2,0.7-0.5,0.9-0.8c0.5-0.5,1-1.3,1.3-2
	c0-0.2,0-0.3,0.1-0.5c0.1-0.4,0.6-0.8,0.8-1.3c0.2-0.5,0-1.6,0.3-2c0-0.2,0-0.4,0-0.6c-0.5,0.4-0.8,1.2-1.5,1.5
	c0,1.6-0.2,1.1-0.9,1.8c-0.6,0.6-0.7,1-2,0.9c-0.1-0.1-0.2-0.2-0.3-0.2c-0.2-0.9,0.3-1.9,0.6-2.6c0.4-1.1,0.6-2.3,0.9-3.5
	c0.1-0.5,0-2.3-0.1-2.6c-0.3-0.7-0.8-0.9-0.8-2c-0.2,0-0.2,0-0.3,0.2c-0.4-0.6,0-0.8-0.9-0.6c0-0.2,0-0.3,0.1-0.4
	c0-0.2,0-0.2-0.1-0.3c-0.2,0-0.4,0-0.5,0.1c-0.1,0-0.1,0-0.2-0.1c-0.1-0.2,0-0.4-0.1-0.6c-0.1-0.1-0.2,0-0.3-0.1
	c-0.3-0.2-0.2-0.6-0.6-0.7c-0.2-0.1-0.5,0-0.7,0c0-0.3,0-0.6-0.1-0.8c-0.1-0.2-0.3-0.3-0.7-0.3c0-0.2,0-0.4-0.1-0.5
	c-0.1-0.3-0.4-0.3-0.8-0.3c0-0.4,0-0.8-0.2-1c-0.1-0.3-0.3-0.3-0.6-0.5c-0.1-0.1,0-0.5-0.1-0.8c-0.1-0.2-0.3-0.4-0.4-0.5
	c0-0.2,0-0.4-0.1-0.6c-0.1-0.2-0.3-0.3-0.5-0.5c-0.2-0.3-0.2-0.7-0.3-1c-0.1-0.1-0.3-0.2-0.4-0.3c0-0.3,0-0.7,0-1
	c-0.1-0.2-0.3-0.3-0.4-0.4c-0.3-0.3-0.5-0.8-0.5-1.3c-0.1,0.2-0.3,0.3-0.4,0.5c0,0,0,0-0.1,0c0,0.1,0,0.2,0.1,0.2
	c-0.1,0.1-0.2,0-0.3,0.2c-0.1,0.1,0,0.4,0.2,0.5c-0.2,0.1-0.4,0.2-0.6,0.3c-0.1,0.2-0.1,0.3-0.1,0.5c-0.6,0-1,0.5-1.3,0.2
	c-0.1,0-0.1,0-0.2,0c0.3,0.6,0.6,1.3,0.8,2.1c0.1,0.3-0.1,0.9-0.1,1.2c0.2,0.5,0.7,1,0.9,1.6c0,0.2,0,0.4,0,0.6
	c0.1,0.3,0.3,0.8,0.1,1.1c0,0,0,0,0,0.1c0,0,0,0-0.1,0c-0.1-0.4-0.2-0.8-0.5-1c0,0,0,0,0-0.1c-0.2,0.3-0.1,0.8-0.3,1.1v0.1
	c0,0,0,0-0.1,0c0-0.4,0.1-1-0.1-1.2c-0.1-0.1-0.2-0.1-0.3-0.1c-0.1,0.1-0.2,0.1-0.2,0.4c-0.2-0.1-0.4-0.3-0.8-0.2
	c-0.2-0.3-0.3-0.5-0.3-1c-0.3,0.2-0.5,0.4-1,0.4c0,0.2-0.1,0.3-0.2,0.5c0,0-0.3,0-0.3,0.1c-0.1,0.1-0.1,0.3-0.3,0.3
	c-0.2,0.1-0.2-0.2-0.4-0.1c-0.1,0-0.1,0.1-0.2,0.2c-0.1,0-1-0.3-1.2-0.5c0,0-0.4,0.2-0.6,0.1c-0.4-0.2-0.8-1-0.8-1.6
	c-0.2-0.1-0.5-0.1-0.6-0.3c-0.2,0-0.3,0-0.4,0.1c-0.2,0.3-0.1,0.9-0.2,1.3c-0.2,1-0.7,2-1.7,1.9c-0.3,0-0.5,0-0.7-0.1c0,0,0,0-0.1,0
	c0,0.3,0.1,0.3,0.2,0.5c0,0,0,0-0.1,0.1c0,0.2,0,0.2,0.2,0.3c-0.3,0.4-1.2,0.7-1.8,0.9c-0.3,0.1-0.7,0-1,0.1c-0.3,0-0.6,0-0.9,0
	c0.1,0.2,0.3,0.6,0.5,0.8s0.6,0.3,0.9,0.3c-0.1-0.6-0.2-0.6-0.2-0.4c0.3,0.2,0.5,0.5,0.9,0.6c0,0.1-0.1,0.1-0.1,0.2
	c0,0.6,0.5,0.6,1,0.5c0,0.1-0.1,0.3-0.2,0.3c0,0.3,0.1,0.3,0.2,0.5c0.2,0.1,0.4,0.1,0.7,0.1c-0.1,0.1-0.2,0.2-0.3,0.3
	c0,0.6,0.4,0.7,1,0.7c-0.1,0.2-0.2,0.5-0.3,0.7c0.1,0.5,0.6,0.7,1.1,0.8c-0.1,0.1-0.4,0.3-0.5,0.3c0,0.4,0.4,0.4,0.8,0.4
	c0,0.2-0.1,0.3-0.2,0.4c0.1,0.3,0.2,0.3,0.5,0.3c-0.1,0.1-0.4,0.2-0.5,0.3c0,0.1,0,0.1-0.1,0.2c0.2,0,0.3,0,0.4,0.1h0.1
	c-0.1,0.1-0.1,0.2-0.2,0.3c0.1,0.3,0.3,0.4,0.7,0.4c-0.1,0.2-0.2,0.4-0.3,0.5c0,0.5,0.3,0.3,0.6,0.5c0,0.1-0.3,0.2-0.4,0.3
	c-0.1,0.1,0,0-0.1,0.1c0.2,0.1,0.3,0.1,0.5,0.2c-0.1,0.2-0.2,0.2-0.2,0.3c0.1,0.2,0.2,0.2,0.3,0.3c-0.1,0.1-0.2,0.2-0.3,0.3
	c0,0,0,0.1,0.1,0.1c0.2,0.1,0.4,0.1,0.6,0.1c-0.2,0.2-0.4,0.5-0.6,0.6c0,0.3,0.1,0.3,0.3,0.3c0,0.2-0.1,0.3-0.2,0.3
	c0,0.1,0,0.2,0,0.2c0.2,0,0.2,0,0.4,0c0,0.2-0.1,0.4-0.2,0.5c0,0.1,0,0.2,0,0.3c0.2,0,0.2,0,0.5,0c0,0.2,0,0.3-0.1,0.5
	c0.1,0,0.1,0,0.2-0.1c0.3,0,0.3,0.1,0.3,0.3c0.3,0,0.4-0.1,0.5-0.3c0.1,0.1,0.1,0.5,0.1,0.6c0.9,0.4,1.9,0.6,2.8,0.9
	c0.6,0.2,1.2,0.6,1.8,0.8c0.9,0.3,2,0.2,2.8,0.7c0.4,0.2,0.5,0.6,0.8,1c0,0.5-0.2,0.7-0.5,0.9c0,0,0,0,0,0.1
	c-0.2-0.1-0.2-0.3-0.5-0.3c-0.2,0.2-0.8,0.5-1.1,0.6c-0.2,0-0.3,0-0.5,0c-0.4,0.1-1,0.5-1.4,0.6c-0.5-0.2-0.9-0.3-1.4-0.5
	c-0.6-0.1-2.6,0.5-2.8,0.8c-1.1-0.1-1.7-0.8-2.1-1.6c-0.3-0.1-0.5-0.1-0.8-0.1c-0.4,0.4-1,0.6-1.3,1.1c-0.8,0-1.5-0.8-1.8-1.3
	c-0.6,0-1,0.2-1.3,0.6c0,0,0,0-0.1,0c0,0,0,0,0,0.1c0,0,0,0,0.1,0c0.1,0.6,0.6,0.9,1.3,0.8c0.4,0.8,0.9,1.6,2,1.6
	c0.4-0.5,0.9-1,1.6-1.2c0.2,0.1,0.3,0.3,0.5,0.4c0.4,0.5,0.4,1.1,1.3,1c-0.1,0.1,0,0.1-0.1,0.1c0,0.2,0,0.2,0.1,0.3
	c0.8,0.1,2.6-0.1,3-0.5c0.5,0.1,0.8,0.5,1.2,0.6c0.6,0.2,0.9-0.2,1.2-0.3c0.2,0,0.5,0,0.7,0.1c0.7-0.2,1.3-0.5,1.9-0.8
	c0.1,0.1,0.1,0.4,0.2,0.5c-0.1,1.5-3,2.3-4.3,2.7c-1.2,0.4-4.2,0.8-5.8,0.5c-0.9-0.2-1.8,0.1-2.6-0.2c-0.2-0.1-0.3-0.3-0.5-0.3
	c-0.3-0.1-0.5,0.2-0.9,0.2c-0.5-0.1-1-0.2-1.5-0.3c-1.2-0.4-2.4-0.9-3.5-1.3c-0.7-0.3-1.5-0.4-2.1-0.8c-0.3-0.2-0.5-0.4-0.8-0.6
	c0-0.1,0-0.2-0.1-0.3c-0.7-0.1-0.5-0.3-0.9-0.5c-0.6-0.4-1.6-0.6-2.2-1c-0.1-0.1-0.1-0.2-0.2-0.3c-0.2-0.2-1.3-0.6-1.6-0.8
	c-1.7-1-3.9-2.5-4.7-4.3c-0.1-0.3-0.4-0.4-0.5-0.7c-0.3-0.7,0-1.7,0.3-2.3c-0.7,0-1.3,0-1.9-0.4c-1.5-1.1-2.1-3.6-2.1-6.3
	c0-0.8-0.1-1.3,0-2c0-0.3,0-0.7,0-1c0.1-0.2,0.1-0.5,0.1-0.8c0-0.3,0-0.5,0-0.8c0.1-0.4,0.4-0.5,0.5-0.8c0.1-0.2-0.1-0.3,0-0.5
	c0-0.1,0.2-0.1,0.3-0.2c0.2-0.5-0.3-0.4,0.2-0.8c0-0.1,0-0.2,0-0.2c-1.3-0.3-3-0.4-4.1-0.9c-0.9-0.4-2.1-1.6-3.5-1
	c-0.2,0.9,0.3,1.6,0.2,2.4c-0.1,0.7-0.2,1.6-0.6,2.1c-0.2,0.2-0.5,0.3-0.7,0.5c-0.4,0.6-0.3,1.2-0.9,1.6c0.1,1.2,1.2,1.8,1.7,2.7
	c0.2,0.4,0.1,0.9,0.3,1.3c0.5,1.3,1.4,2.4,2,3.5c0.1,0.2,0.3,0.6,0.4,0.9c0.1,0.2,0,0.4,0.1,0.5c0,0.3,0,0.7,0,1c0,0,0,0-0.1,0
	c-0.1-0.2-0.2-0.5-0.3-0.6c-0.1-0.1,0,0-0.1-0.1c-0.1,0.3-0.1,0.5-0.2,0.8c0,0.1-0.3,0.1-0.3,0.2c0,0.2,0.1,0.4,0.1,0.6
	c0,0.2-0.1,1.8-0.2,2c-0.1,0.1-0.2,0-0.2-0.1h-0.1c0,0.4,0.2,0.9,0.5,1.2v0.1h-0.1c-0.2-0.3-0.5-1-0.7-1.2c-0.1-0.1-0.2-0.1-0.3-0.1
	C34.7,90,34.7,90,34.6,90c-0.1,0.3-0.3,0.8-0.3,1.2c-0.1,0-0.1-0.1-0.2-0.1c0-0.4,0-1,0.2-1.3c-0.1-0.1-0.3-0.1-0.4-0.2
	c-0.3-0.8,0.4-1.4,0.6-2v-1.3c-0.1-0.4-1.1-2.2-1.5-2.4c0,0,0,0,0-0.1c-0.1,0.1-0.2,0.3-0.2,0.5c-0.2-0.3,0.1-0.9-0.1-1.3
	c-0.2-0.4-0.6-0.8-0.9-1.2c-0.2,0-0.1,0-0.2,0.1c-0.3-0.1-0.6-1.1-0.8-1.3c-0.1-0.1-0.2,0.1-0.3,0.2c0,0,0,0-0.1,0
	c0.3-1.5-1.1-2.2-0.8-4.1c-0.2-0.1-0.4-0.2-0.6-0.3c-0.5-2.4,0.5-4.5,1.2-6.1c0.4-1,0.7-2,1.9-2.2C32.4,67.8,32.4,67.6,32.4,67.4z
	 M34.1,36.5c0.5,1.3,2.2,1.3,3.3,2c0.7,0.4,1.6,1.1,2.1,1.7c0.2,0.2,0.5,0.8,0.7,1c0.3,0.1,0.7,0.2,1,0.2c0.6,0.3,1.4,0.7,1.9,1.2
	c0,0,0,0,0.1,0c-1.1-2.3-4.2-3.9-6.5-5.1c-0.7-0.3-1.8-0.6-2.4-1C34.2,36.5,34.1,36.5,34.1,36.5z M57.1,48.4c0.8,0.1,1.2,1.2,1.3,2
	c0,0.2,0,0.4,0,0.6c0.1,0.3,0.3,0.7,0.3,1.1c0.1,1,0,2.2-0.7,2.4c0.3,0.9,1,0.8,1.7,1.3c0.3,0.2,0.6,0.5,0.9,0.6c0,0,0,0,0,0.1
	c0.2-0.1,0.5-0.5,0.4-0.8c0-0.1-0.2-0.2-0.2-0.3c0,0,0.2-0.2,0.2-0.3c0.1-0.3-0.2-0.4-0.2-0.6l0.1-0.2c0-0.1-0.1-1.1-0.1-1.2
	c-0.3-1.4-0.6-2.8-1-4.2c-0.1-0.5-0.1-1.2-0.2-1.6c0-0.1-0.2-0.2-0.3-0.3c-0.4-0.6-0.2-1.4,0.1-2c0.5-0.1,1-0.1,1.3-0.3
	c0-0.1,0-0.1,0.1-0.2c0.1-0.3,0.4-0.2,0.6-0.4c0.1-0.1-0.2-0.4-0.3-0.5c-0.3,0-0.2,0-0.3,0.2h-0.1c-0.2-0.7-0.8-1-1.3-1.4
	c-0.8-0.5-1.5-1.2-2.3-1.6c-0.3-0.1-0.6-0.2-0.9-0.3c-0.2-0.1-0.2-0.3-0.3-0.5c-0.2-0.2-0.6-0.3-0.8-0.6c-0.3-0.3-0.5-0.8-0.9-1
	c0,0,0,0,0-0.1c0,0,0,0-0.1,0c-0.1,0.2-0.3,0.4-0.2,0.7c-0.2,0.1-0.4,0.1-0.6,0.2c-0.3,0.2-0.8,0.8-1.4,0.3h-0.1
	c0.8,2,2.2,3.4,3.3,5c0.3,0.4,0.4,0.9,0.7,1.3c0.4,0.7,1,1.5,1,2.5C56.9,48.4,57,48.4,57.1,48.4z M68.3,48.1c-0.3,0-0.5,0-0.8,0
	c-0.3,0.1-0.6,0.3-0.9,0.4c-0.8,0.2-2.1-0.3-2.7-0.5c-0.3-0.1-0.6-0.1-0.9-0.2h-0.1c0.1,0.4,0.3,0.8,0.4,1.3c0,0.7,0.1,1.4,0.1,2.1
	c0.1,0.5,0.2,1.2,0.3,1.7c0,0.2,0,0.5,0,0.7c0.1,0.3,0.2,0.6,0.2,1c-0.2,0.2-0.2,0.3-0.5,0.4c0,0.3-0.1,0.7,0.1,0.9
	c0.1,0.2,0.4,0.2,0.5,0.4c0.3,0.4,0.5,1.6,0.1,2.1c0.2,0.3,0.8,0.4,1,0.7h0.1c0-1.4-0.2-3.3,0.3-4.2c0.1-0.2,0.4-0.4,0.6-0.6
	c0.3,0,0.3,0.1,0.5,0.2c0.1,0.1,0.3-0.1,0.6-0.1c0.1,0,0.4,0.2,0.5,0.1c0.2-0.1,0.4-0.4,0.9-0.2c0.3,0.1,0.6,0.3,0.9,0.4
	c0.6,0.2,1.1,0.3,1.7,0.6c0.2,0.1,0.4,0.3,0.7,0.4c0.1,0,0,0,0.1,0.1c0.4-0.8,1-1.8,1.7-2.3c-0.2-0.9-1.2-1.4-1.6-2
	c-0.2-0.2-0.3-0.6-0.5-0.8c-0.3-0.2-0.7-0.1-0.9-0.2c-0.3-0.2-1-1.3-1.2-1.6c-0.1-0.2-0.2-0.4-0.2-0.6c-0.1-0.1-0.3-0.2-0.4-0.3
	c-0.1,0-0.1,0-0.2-0.1C68.5,47.9,68.5,48.1,68.3,48.1z M71.2,60.7c0.1-0.3,0.1-0.6,0.2-0.8c0-0.1,0-0.2,0-0.2
	c-0.9,0.3-2.4-1-2.7-1.5h-0.1c0,0.3-0.1,1.2-0.1,1.5c0,0.1,0.2,0.2,0.1,0.4s-0.3,0.5-0.3,0.8c-0.2,0.9,0.2,1.3-0.5,1.7
	c0.1,0.2,0.1,0.4,0.2,0.6c-0.2,0.1-0.2,0.2-0.5,0.3c0,0.3,0,0.7-0.1,0.9c0,0.3,0,0.4,0.2,0.5c0,0,0,0,0,0.1c0,0,0,0,0.1,0
	c0.1-0.3,0.3-0.5,0.5-0.7c0.4,0,0.6-0.1,0.8,0.2c0.2-0.1,0.1-0.4,0.2-0.6c0.1-0.2,0.3-0.3,0.3-0.5c0.6,0,1,0.3,1.6,0.4
	C71.1,62.7,70.9,61.7,71.2,60.7z M46.9,76c0.2,0.6,0.8,0.5,1.2,0.9l0.6-1C48.1,75.8,47.6,75.9,46.9,76z M32.8,84.5L32.8,84.5
	c0-0.1,0-0.1,0-0.2C32.8,84.4,32.8,84.5,32.8,84.5z"/>
</svg>
