<?xml version="1.0" encoding="utf-8"?>
<!-- Generator: Adobe Illustrator 27.9.0, SVG Export Plug-In . SVG Version: 6.00 Build 0)  -->
<svg version="1.1" id="Layer_1" xmlns="http://www.w3.org/2000/svg" xmlns:xlink="http://www.w3.org/1999/xlink" x="0px" y="0px"
	 viewBox="0 0 100 100" style="enable-background:new 0 0 100 100;" xml:space="preserve">
<path d="M38.8,15.1c1.5-0.5,4.9,0,5.6,0.9c1-0.9,2.2-0.3,3.5-0.6c-0.4,0.5-0.7,0.8-1,1.1c-1.9,1.5-3.3,3.3-4.5,5.4
	c-0.3,0.4-0.6,0.7-1,0.9c-8.5,3.8-16.9,7.7-25,12.3c-4,2.2-7.9,4.6-11.4,7.5c-0.8,0.7-1.6,1.5-2.4,2.3c-0.8,0.8-1.1,1.9-1.2,3
	c3.7-3.8,8.3-6.2,12.8-8.7c8.2-4.5,16.8-8.3,25.4-12.1c0.1,0,0.2-0.1,0.3-0.1c0.2,0.9-0.2,2.3-0.9,2.8c-1,0.7-1.6,1.6-1.9,2.7
	c-0.5,1.8-1.3,3.4-2.2,5c-0.9,1.4-1.5,3-2.3,4.5c-0.2,0.3-0.2,0.7-0.4,1.2c1.1-0.2,1.5-1,2.3-1.5c0,0.3,0,0.4,0,0.6
	c0,0.2,0.1,0.3,0.1,0.5c0.2-0.1,0.4-0.1,0.5-0.2c0.3-0.3,0.6-0.6,0.9-0.9c0.5,0.7,0.7,0.7,1.1,0c0.4-0.7,0.5-0.7,1.2-0.3
	c0.5,0.3,0.8,0.2,0.9-0.4c0.2-0.7,0.3-0.7,1.1-0.7c0.7,0,1.4-0.2,2.1-0.4c0.2,0,0.4-0.3,0.5-0.5c0.1-0.3,0.1-0.5-0.4-0.4
	c-0.7,0.2-1.4,0.2-2-0.4c-0.1-0.1-0.2-0.1-0.3-0.2c-0.3-0.2-0.8-0.1-0.8-0.7c0-0.6,0.2-1.1,0.7-1.4c0.4-0.3,0.9-0.5,1.3-0.8
	c1-0.7,1.6-1.6,2-2.8c0.3-1,1.5-2,2.5-2c0.4,0,0.6,0.1,0.6,0.6c-0.1,0.9,0.3,1.8,0.8,2.6c0.8,1.1,1.6,2.2,2.5,3.2
	c1.6,1.8,3,3.6,4.3,5.6c0.3,0.6,0.4,1.1,0,1.6c-0.3,0.4-0.5,1-0.6,1.5c-0.5,1.7-1,3.4-1.6,5c-1,2.8-1.2,5.6-1.3,8.5
	c0,1.2,0,2.4,0,3.6c0,0.9,0.1,1.7,0.5,2.5c0.2,0.4,0.3,0.8,0.4,1.2c0.2,0.7,0.1,1.3-0.4,1.9c-0.5,0.5-0.7,1.1-0.6,1.8
	c0,1.7,0.2,3.4,0.9,5c0.3,0.7,0.3,1.3-0.4,1.8c-0.6,0.4-0.8,1.1-0.9,1.8c-0.2,2.2-0.4,4.3-0.7,6.4c-0.2,1.6-0.8,3.2-0.9,4.8
	c-0.2,2.6-0.1,5.3-0.1,7.9c0,1,0.9,1.8,2,1.7c0.7,0,1.5-0.1,2.2,0.1c0.4,0.1,0.7-0.1,0.9-0.5c0.7-1.2,0.9-2.5,0.8-3.8
	c-0.2-1.3-0.5-2.5-0.7-3.7c-0.1-0.5-0.1-1-0.1-1.5c0-0.2,0.3-0.5,0.4-0.7c0.1-0.1,0.2-0.3,0.2-0.4c-0.1-0.4-0.1-0.8-0.3-1.1
	c-0.5-1.1-0.2-2.1,0.5-2.9c1-1.2,2.3-2.3,3.4-3.4c0.5-0.5,1.1-0.9,1.7-1.3c0.8-0.6,1.4-1.3,1.8-2.2c0.4-0.9,1.1-1.6,1.7-2.4
	c0.3-0.4,0.6-0.7,0.9-1c1-1.1,1.2-1.8,0.5-3.1c-0.3-0.6-0.3-1,0-1.6c0.8-1.6,0.9-3.4,1-5.2c0.1-1.9,0.1-3.7,0.3-5.6
	c0.1-1.1,0.3-2.2,0.7-3.3c0.8-2.7,2.4-3.6,5.2-3.1c0.8,0.2,1.5,0.5,2.3,0.8c1.2,0.5,2.4,1,3.7,1.6c0.2,0.1,0.5,0.2,0.6,0.3
	c0.2,0.1,0.4,0.5,0.3,0.5c-0.2,0.2-0.4,0.4-0.6,0.4c-0.5-0.1-1-0.2-1.5-0.5c-0.6-0.3-1.2-0.7-1.8-1.1c-0.6-0.4-1.3-0.4-2-0.3
	c-0.6,0.1-1.3,0.1-1.9,0.2c-0.7,0.1-1.1,0.6-1.2,1.3c0,0.9,0,1.7,0,2.6c0,0.2,0.1,0.4,0.2,0.5c1,0.7,1,1.7,0.8,2.7
	c-0.7,2.7,0.2,5,1.2,7.4c0.2,0.5,0.4,0.9,0.7,1.4c0.4,0.8,1.1,0.8,1.6,0.1c0.4-0.6,0.6-1.2,0.8-1.9c0.3-1.2,0.3-2.5-0.1-3.7
	c-0.4-1.3-0.4-2.6,0.6-3.7c0.2-0.3,0.3-0.7,0.5-1.1c1,0.2,2.1,0.3,3.2,0.6c3.2,0.7,6.3,1.9,9.3,3.1c1.1,0.5,2.2,0.7,3.4,0.4
	c0.5-0.1,0.9-0.4,1.3-0.7c1.1-0.9,2-2,3.1-2.7c1.1-0.8,1.8-1.8,2.1-3.1c0.5-2.1,0.4-4.2-0.1-6.3c-0.3-0.9-0.8-1.9-1.5-2.6
	c-1.2-1.4-2.7-2.6-4.6-3c-0.3-0.1-0.6-0.3-0.8-0.5c-0.4-0.4-0.8-0.9-1-1.4c-0.6-1.2-1.7-1.7-2.9-1.9c-0.3-0.1-0.7-0.1-1-0.2
	c-4.2-1.7-8.6-2.6-13.1-3c-1.2-0.1-2.5-0.2-3.7-0.2c-0.4,0-0.6-0.2-0.7-0.5c-0.1-0.3-0.3-0.6-0.4-0.8c-0.7,0.2-1.4,0.4-1.9,0.5
	c-0.1-0.2-0.2-0.2-0.2-0.2c0.2-1-0.3-1.5-1.2-1.9c-1.2-0.5-1.4-1.7-1.6-2.9c-0.2-1.2-0.1-2.4,0.2-3.5c0.1-0.3,0.1-0.6-0.3-0.8
	c-0.1-0.1-0.2-0.3-0.3-0.5c0.2-0.1,0.3-0.2,0.5-0.2c0.5,0,1.1,0,1.6,0c0-0.1,0.1-0.1,0.1-0.1c0-1.2,0-1.2,1.3-1.3c0.3,0,0.5,0,0.8,0
	c0.9,0.1,1.7,0,2.4-0.8C70.2,25,71,24.8,72,25c0.2,0.1,0.5-0.1,0.7-0.2c2.5-1.9,4.6-4,6-6.9c1-2.2,2.1-4.3,3.2-6.4
	c0.1-0.2,0.1-0.5,0-0.7c-0.2-0.6-0.4-1.2-0.7-1.9c2-0.7,3.9-1.4,5.8-2.1c3.6-1.3,7.2-2.7,10.7-4c0.9-0.4,1.2-1.5,0.6-2.3
	c-0.5-0.6-0.9-0.7-1.6-0.4C91.4,2.3,86.2,4.4,81,6.5c-0.1,0.1-0.3,0.1-0.4,0.1c0-0.6-0.4-0.6-0.8-0.6c-0.9,0.1-1.9,0.1-2.8,0.3
	c-0.4,0.1-0.7,0.4-1,0.7c-0.2,0.2-0.3,0.5-0.5,0.8c-0.6-1.3-0.8-2.7-2.3-3.5c0.2,0.9,0.3,1.6,0.4,2.3c0.1,0.6,0.2,1.2,0.3,1.8
	c0.1,0.3,0,0.5-0.3,0.7c-0.7,0.3-1.4,0.6-2.1,0.9c-0.2,0.1-0.5,0-0.7-0.1c-2.6-1.3-5.2-2.6-8.1-3.4c-1.1-0.3-2.1-0.8-3.2-1.3
	c-1.8-0.9-3.7-1.6-5.5-2.4c-0.4-0.2-0.8-0.1-1.1,0.2c-1.9,1.6-3.8,3.2-5.7,4.9c-1.9,1.7-3.8,3.4-5.8,5
	C40.5,13.7,39.6,14.4,38.8,15.1z M76.3,14c-1.5,1.4-3,2.9-4.6,4.3c-0.7,0.6-1.6,0.9-2.4,1.4c-0.2-0.2-0.3-0.3-0.3-0.4
	c-0.2-0.6-0.6-0.6-1.1-0.5c-0.3,0.1-0.7,0.1-1.1,0.2c0.2-0.4,0.4-0.8,0.6-1.1c-1.5,0.2-2.9,0-4.4-0.5c4.2-1.6,8.2-3.2,12.2-4.8
	C75.6,13,75.9,13.5,76.3,14z M61.9,13.9c-0.2-0.5,0-0.7,0.4-0.8c0.4-0.1,0.8-0.2,1.3-0.3c0.7-0.2,1.4-0.4,2-0.5c0,0,0,0.1,0,0.1
	C64.4,12.9,63.1,13.4,61.9,13.9z M68.2,11.3c0.9-1.5,1.3-1.6,2.6-1.1C70,10.6,69.2,10.9,68.2,11.3z"/>
</svg>
