<?xml version="1.0" encoding="utf-8"?>
<!-- Generator: Adobe Illustrator 27.9.0, SVG Export Plug-In . SVG Version: 6.00 Build 0)  -->
<svg version="1.1" id="Layer_1" xmlns="http://www.w3.org/2000/svg" xmlns:xlink="http://www.w3.org/1999/xlink" x="0px" y="0px"
	 viewBox="0 0 100 100" style="enable-background:new 0 0 100 100;" xml:space="preserve">
<g>
	<g>
		<path d="M81.8,51.9c9.6,2.1,6.5,6.1,6.5,6.1c-0.4-2-2.4-2.3-2.4-2.3c0.4,1.3-0.3,1.6-0.3,1.6s-1.2-2.4-4.4-3.2
			c-3.2-0.7-6.6,1.1-6.6,1.1c0.5-3.3,1.9-4,1.9-4C78.5,51.1,81.8,51.9,81.8,51.9z M97.2,40.4c0.8,1.1-2,3.4-2,3.4l-0.7-0.1l0.3-0.6
			c-0.9,0.3-5.9-0.2-5.9-0.2c-0.9,0.4-2.2,0.6-2.2,0.6c1.2,1.8,5.1,2.1,5.1,2.1l0.7-0.3l0.7,0.2c0,0-0.6,0.8-0.7,1.2
			c-0.1,0.5-0.9,0.5-0.9,0.5c-0.8,0-1.8-0.1-2.6-0.1c-0.5,0-1.1,0-1.6,0c-2.8,0.3-6.7,0.2-6.7,0.2s-5.5,1.9-6.7,6.2
			s-0.6,7.8-0.6,7.8s1.3,5.9,6.1,5.9c4.8,0,4.5,1.3,4.5,1.3c-0.8-0.3-3-0.1-3-0.1c4.2,0.9,3.6,2.4,3.6,2.4c-1-0.7-4.3-1.1-4.3-1.1
			c0.3,0.7,1.9,1.6,1.9,1.6c-2.5,0.9-5-2.2-5-2.2l-8.2-4.4c-0.3,0.2-0.5,1.2-0.5,1.2C67.3,65.3,67,64,67,64l-0.4,0.7
			c-1.5-1.4-1.9-4.8-1.9-4.8c-0.5,1.5-0.3,4.3-0.3,4.3c-1.2,0.7-3.1,3.3-3.1,3.3c-0.4,2.6-1.6,3.7-1.6,3.7
			c-2.6,3.8-9.9,4.2-11.6,4.5c-1.7,0.3-1,2-1,2l-0.7-0.1c-0.1,1.5,2,1.8,2,1.8s4.4,0.4,7.2-0.6s3.1,0.4,3.1,0.4l-1.4,0.2
			c0,0,1.1,0,3.5,0.3c2.4,0.3,1.9,1.7,1.9,1.7c-0.8-0.3-2.9-0.3-2.9-0.3c4.7,1,4.4,2.7,4.4,2.7l-4.6-1.2c0,0.4,1,1.6,1,1.6
			c-0.4,0.4-3-0.4-4.5-1.1c-1.5-0.7-9.7-0.7-12.4-0.3s-3.9-0.7-3.6-2.8c0.3-2.1-0.7-2.8-0.7-2.8C35.7,81,31.9,78,31.9,78
			c-1.4-1.5-10.4,2.3-10.4,2.3S8.1,84.8,3.7,71.6s4.6-19.2,4.6-19.2l14.6-10.9c0,0,7.7-6,11.7-13S34.5,18.4,34,17.9s-2-1.7-1-2.3
			c1-0.5,2.5,1.3,2.5,1.3c9.8,12.8-11.3,26.8-11.3,26.8S12.8,51.9,9.3,55.4c-0.9,1-2.8,3.1-3.3,6.7c-0.8,5,0.4,11.9,5.8,14.2
			c10.4,4.3,13.7-6.1,13.7-6.1L24,71c1.8-2.4,2.8-7.6,2.8-7.6s0.4-3.4,1.6-5.1s1.7-3.3,1.7-3.3l-1.5,1c-0.1-1,1.4-3.3,4-5
			c2.6-1.6,4.5-4,4.5-4l-1.9,0.2c0,0,0.8-1.3,3-2.2c2.2-0.9,4.8-2,4.8-2c6-3.2,15.7-2.8,15.7-2.8l-0.5-0.7c5.3,1.4,9.8-1,9.8-1
			s-8.6,0.2-6.3-5.4s8-2.9,9.8-2c1.8,1,2.7,1,2.7,1c5.2-1.9,10.6-1.4,14.5,2.1s7.4,4.5,7.4,4.5C98.4,39.1,97.2,40.4,97.2,40.4z
			 M72.2,33c0,0-5.4-3.4-7.9-1.1c-0.9,0.8-1.7,2.4-1.3,3.5c0.5,1.3,2.4,2.5,6.4,1.7c0,0-1.7-1-1.7-2.5C67.6,34.6,71,35.2,72.2,33z
			 M86,37.1c-0.9-0.9-3-1.3-3-1.3c-0.9,0.3-0.8,2.1-0.8,2.1c1.3-0.3,3.4-0.2,3.4-0.2L86,37.1z M71.6,30.3c1.5,0.8,2.5,1.1,2.5,1.1
			l1.2-0.3L73,29.3c-3.3-2.6-5.8-0.4-5.8-0.4C68.4,28.8,70.2,29.6,71.6,30.3z"/>
	</g>
</g>
</svg>
