<?xml version="1.0" encoding="utf-8"?>
<!-- Generator: Adobe Illustrator 27.9.0, SVG Export Plug-In . SVG Version: 6.00 Build 0)  -->
<svg version="1.1" id="Layer_1" xmlns="http://www.w3.org/2000/svg" xmlns:xlink="http://www.w3.org/1999/xlink" x="0px" y="0px"
	 viewBox="0 0 100 100" style="enable-background:new 0 0 100 100;" xml:space="preserve">
<path d="M33.7,97.9c0.3,0,0.5,0,0.7,0c0-0.1,0-0.1,0.1-0.2c-0.2-0.1-0.4-0.2-0.7-0.3c-0.6,0-1.3,0-1.9,0c-0.2,0-0.3-0.1-0.5-0.1
	c-0.6-0.2-1.1-0.5-1.7-0.7c-0.5-0.2-1-0.5-1.5-0.7c-0.4-0.2-0.9-0.3-1.3-0.4c0,0-0.1,0-0.2,0c-0.3-0.1-1.4-1.5-1.4-1.8
	c-0.1-0.4-0.1-0.8-0.2-1.2c-0.1-0.2-0.4-0.3-0.6-0.4c-0.8-0.4-0.8-0.9-0.2-1.5c0.3-0.3,0.6-0.7,0.9-1c0.2-0.3,0.4-0.6-0.1-0.9
	c0.2-0.4,0.6-0.7,0.3-1.2c0,0,0-0.1,0.1-0.2c0.2-0.4,0.6-0.7,0.4-1.2c0-0.1,0.1-0.2,0.1-0.3c1.2-1.3,2.4-2.6,3.7-3.8
	c0.2-0.2,0.5-0.4,0.8-0.6c0.4-0.3,1-0.5,1.3-1.1c0.2-0.3,0.6-0.5,0.9-0.7c1.5-0.9,3.1-1.7,4.7-2.6c0.7-0.4,1.2-0.9,1.9-1.3
	c1.2-0.7,2.5-1.3,3.7-2c0.5-0.3,0.9-0.6,1.4-1c0.3-0.2,0.6-0.5,1-0.7c0.5-0.3,1.1-0.5,1.6-0.7c0.5-0.2,0.7-0.6,0.8-1.1
	c0.3-1.7,0.6-3.4,0.9-5.1c0.2-1,0.3-2.1,0.5-3.2c0.1-0.4,0.1-0.8,0.7-1c0.2-0.1,0.3-0.6,0.4-0.9c0.2-1.5,0.4-3,0.7-4.5
	c0.1,0,0.1,0,0.2,0c-0.1,1.7-0.2,3.4-0.3,5.2c0.6-0.6,0.7-0.5,1.5-0.3c0.6,0.2,0.8,0.6,1.1,1c1,1.2,2.1,2.4,3.1,3.6
	c0.1,0.1,0.1,0.3,0.1,0.4c-0.1,0.1-0.3,0.2-0.5,0.2c-0.3-0.1-0.5-0.3-0.8-0.5c0,1.1,0,2.2,0,3.3c0,0.4-0.2,0.4-0.5,0.5
	c-0.4,0.1-0.5,0.2-0.3,0.6c0.1,0.2,0.3,0.5,0,0.7c0,0,0.1,0.2,0.1,0.3c0.2,0.3,0.4,0.6,0.6,0.9c0,0,0.2,0,0.3,0c0,0.9,0,1.9,0,2.8
	c0,1.8-0.2,3.7,0.4,5.4c0.5,1.5,0.2,3.1,0.4,4.6c0,0.2-0.3,0.5-0.5,0.8c0,0-0.1,0-0.1-0.1c0.1,0.6,0.3,1.2,0.4,1.8
	c0.1,0.4-0.1,0.7-0.1,1.1c0,0.3,0,0.7,0.1,1c0.3,0.9,0.2,1.8,0,2.7c-0.2,0.9-0.6,1.7-0.9,2.5c-0.6,1.4,0.1,2.6,1.7,2.6
	c0.7,0,1.4-0.1,2.1-0.1c0.5,0,0.9,0,1.4,0.1c0.5,0.1,1,0.2,1.6,0.1c0.9-0.2,1.8-0.1,2.6,0.2c0.8,0.3,1.6,0.2,2.4,0
	c0.2-0.1,0.4-0.1,0.5,0c1,0.4,1.8,0.1,2.1-1c0-0.1,0.2-0.3,0.2-0.4c-0.6-0.1-1.2-0.2-1.7-0.3c-0.6-0.2-1.2-0.5-1.8-0.8
	c-0.3-0.2-0.5-0.7-0.3-1.3c-0.9-0.3-1.8-0.6-2.4-1.5c0,0.3,0,0.4-0.1,0.6c-0.1,0-0.1,0-0.1-0.1c-0.3-0.2-0.6-0.5-0.9-0.7
	c-0.1-0.1-0.2-0.1-0.2-0.1c-0.2-1-1.4-1.4-1.6-2.6c-0.1-0.7-0.3-1.4-0.3-2c0-0.2-0.2-0.5-0.2-0.7c0-0.1-0.1-0.3,0-0.5
	c0.3-0.6,0.1-1-0.2-1.5c-0.7-1.1-0.4-2.3-0.4-3.5c0.1-2.9,0.7-5.7,1-8.5c0.1-0.6-0.1-1.2-0.2-1.7c-0.1-0.4,0-0.7,0.3-0.9
	c0.2-0.1,0.4-0.3,0.4-0.5c0.4-0.9,0.8-1.9,1.1-2.8c0.3-1,0.4-2,0-3c-0.2-0.7-0.3-1.4-0.6-2c-0.2-0.5-0.5-0.9-0.7-1.3
	c-0.2-0.5-0.5-1-0.7-1.4c0,0,0.1-0.1,0.1-0.1c0.5,0.3,1,0.7,1.5,1c0.1,0.1,0.3,0.1,0.5,0.2c0-0.2,0.1-0.4,0.1-0.5
	c-0.3-0.9-0.5-1.9-0.9-2.7c-0.2-0.4-0.5-1-1.2-1.2c0,0-0.1,0-0.1-0.1c-0.5-0.9-1.5-1.4-2.1-2.1c-0.2-0.2-0.3-0.5-0.4-0.8
	c0,0,0.1-0.1,0.1-0.1c0.3,0.2,0.6,0.5,0.9,0.7c-0.6-1.6-1.2-3.2-1.9-4.6c-0.3-0.7-0.8-1.4-1.2-2.1c-0.2-0.4-0.5-0.9-0.7-1.3
	c-0.2-0.4-0.6-0.6-1-0.5c-0.4,0-0.8-0.1-1.2-0.2c-0.3-0.1-0.6-0.3-0.8-0.4c-0.5-0.2-1.1-0.4-1.6-0.7c-1-0.6-1.6-1.4-1.4-2.6
	c0.2-1.2,0.4-2.3,0.6-3.5c0.1,0,0.1,0,0.2,0c0.2,0.3,0.3,0.6,0.5,0.9c0.3,0.4,0.7,0.8,1.1,1.2c0.1,0.1,0.2,0.1,0.2,0.2
	c0.2,0.7,0.7,0.6,1.3,0.6c0.3,0,0.6-0.5,0.4-0.8c-0.2-0.4-0.6-0.7-0.8-1.1c-0.1-0.1-0.2-0.2-0.3-0.4c0.8-0.1,1.6,0.4,2,1.3
	c0.3,0.7,0.4,0.7,1,0.2c0.5-0.4,0.9-0.7,1.4-1.1c0.4-0.3,0.7-0.2,1.1,0.3c0.1-0.1,0.3-0.2,0.5-0.4c0.4,1.3,0.8,2.5,1.3,3.8
	c0.5,1.2,0.5,2.5,0.6,3.8c0.1,0.7,0.2,1.4,1,1.7c0.2,0.1,0.2,0.3,0.3,0.5c0,0,0-0.1,0.1-0.1c0.2,0.1,0.4,0.1,0.5,0.2
	c0.2,0.1,0.4,0.3,0.6,0.4c0.2,0.1,0.4,0.3,0.6,0.5c0.4,0.6,0.8,1.3,1.3,1.9c1.1,1.4,1.6,3,2.4,4.6c0.1,0.1,0,0.4-0.1,0.6
	c-0.1,0.2-0.2,0.5-0.2,0.7c0,0.5,0.2,1.1-0.1,1.6c-0.1,0.1,0.1,0.4,0.2,0.7c0,0.2,0.1,0.4,0.1,0.6c-0.1,0.4-0.2,0.8-0.3,1.2
	c-0.1,0.3-0.1,0.5-0.2,0.8c-0.1,0.4-0.4,0.5-0.8,0.4c-0.3,0-0.6,0.1-1,0.2c0.8,0.8,1.4,0.8,2.4,0.2c-0.2,0.5-0.4,1-0.8,1
	c-0.8,0.1-1.2,0.6-1.8,1.2c1.1,0,2.1-0.3,3.1-0.6c0,0,0.1,0.1,0.1,0.1c-0.4,0.3-0.7,0.6-1.1,1c-0.3,0.2-0.6,0.4-0.6,0.8
	c0,0.2-0.4,0.4-0.6,0.6c0.4,0.1,1.9-0.5,2.4-0.9c0.6-0.6,1.4-1,1.4-2c0.4,0.1,0.7,0.5,0.7,1.1c0,0.3,0,0.5,0,0.8
	c0,0.6,0.1,1.3,0.2,2c0.2-0.2,0.4-0.2,0.4-0.3c0.1-0.5,0.2-1,0.3-1.5c0.1-0.3,0.1-0.5,0.1-0.8c0-0.2,0.1-0.4,0-0.6
	c-0.4-0.7-0.2-1.3,0-1.9c0.1-0.5,0-1.1,0-1.7c-0.1-0.4-0.2-0.7,0-1.1c0.3-0.6,0.5-1.3,0.4-1.9c0-0.4-0.5-0.9-0.7-1.3
	c-0.1-0.1-0.2-0.1-0.2-0.2c-0.3-0.8-0.5-1.5-0.8-2.3c-0.6-1.5-1.3-3.1-2-4.6c-0.4-0.9-0.9-1.9-1.4-2.8c-0.3-0.5-0.6-1-0.9-1.5
	c-0.1-0.3-0.2-0.6-0.3-0.8c-0.1-0.2-0.2-0.4-0.2-0.7c-0.8,0.2-0.9,0.1-1.2-0.5c-0.6-1.2-0.6-2.5-0.8-3.9c0.2,0.6,0.4,1,0.6,1.4
	c0,0,0.1,0,0.1,0c-0.3-1.4-0.8-2.9-0.6-4.4c0.6-0.1,0.9,0.2,1.1,0.7c0.5,1.1,1.1,2.1,1.8,3.1c0.8,1.3,1.8,2.5,2.7,3.8
	c0.1,0.2,0.5,0.3,0.7,0.4c0.9,0.3,1.8,0.4,2.6,0.8c1.1,0.5,2,1.1,3,1.7c0.4,0.2,0.9,0.4,1.3,0.6c0.1,0,0.2,0,0.3,0.1
	c1.3,0.3,1.8,0.6,1.6,2.3c0,0.4-0.1,0.9,0.3,1.2c0.1,0.1,0.1,0.5,0.1,0.7c-0.1,0.4-0.2,0.8-0.2,1.3c0,0.7-0.3,1.4-0.4,2.2
	c-0.1,0.6-0.2,1.2,0.6,1.6c0.7-0.4,0.8-1.1,0.8-1.9c-0.1,0.1-0.2,0.1-0.2,0.1c-0.1,0-0.1,0-0.2-0.1c0.2-0.5,0.4-1,0.6-1.5
	c0.4,0,0.8,0.1,1.2,0c0.2,0,0.3-0.4,0.4-0.7c-0.2,0-0.3,0.1-0.4,0.1c0.2-0.4,0.4-0.8,0.5-1.3c0,0,0.1,0,0.1,0c0,0.2-0.1,0.5-0.1,0.8
	c0.1,0,0.1-0.1,0.2-0.1c0.7,1.5,1.1,3.1,1,4.7c0,0.2,0,0.4,0,0.6c0.2-0.2,0.4-0.3,0.6-0.5c0.1-0.2,0.1-0.4,0.2-0.6
	c0.8,0.1,0.7-0.7,0.9-1.1c0.3,0.3,0.5,1,0.4,1.5c-0.1,0.4-0.1,0.9-0.1,1.3c0,0.2-0.2,0.4-0.2,0.7c-0.1,0.2-0.2,0.5-0.3,0.7
	c0,0.1,0.1,0.2,0.1,0.3c0.1-0.1,0.2-0.1,0.3-0.2c0.3-0.3,0.6-0.7,0.9-1c0,0,0.2,0.1,0.3,0.1c0.2,0.2,0.4,0.5,0.7,0.8
	c0.1-1.3,0.2-2.4,0.2-3.5c0-0.6-0.1-1.3-0.4-1.8c-0.5-1-1.1-1.9-1.7-2.8c-0.1-0.2-0.2-0.4-0.2-0.6c-0.3-1.1-0.8-1.9-1.8-2.5
	c-1.9-1.1-3.7-2.1-5.6-3.2c-0.7-0.4-1.4-0.9-2-1.4c-0.2-0.2-0.4-0.4-0.5-0.7c-0.1-0.1-0.2-0.2-0.3-0.3c-0.8-0.4-1.7-0.7-2.5-1.2
	c-0.3-0.1-0.5-0.4-0.8-0.6c-0.2-0.1-0.4-0.2-0.6-0.1c-0.4,0.1-1-0.1-1.2-0.5c-0.9-1.5-1.8-3.1-2.7-4.6c-0.5-0.8-0.3-2.7,0.3-3.4
	c0.3-0.3,0.5-0.6,0.8-0.9c0.1,0,0.1,0.1,0.2,0.1c0,0.7-0.1,1.3-0.1,2c0,0.2,0.1,0.4,0.1,0.6c0.1,0.4,0.2,0.9,0.2,1.3
	c0,0.7,0.4,1.2,0.7,1.7c0.1,0,0.1,0,0.2-0.1c-0.1-0.2-0.2-0.5-0.3-0.7c0,0,0.1-0.1,0.1-0.1c0.2,0.1,0.4,0.3,0.6,0.4
	c0.1-1.2,0.3-2.3,0.4-3.4c0,0,0,0,0,0c0,0.3,0,0.5,0.1,0.8c0,0,0.1,0,0.1,0c0.1-0.6,0.1-1.1,0.2-1.7c0,0,0.1,0,0.1,0
	c0.2,0.5,0.4,1.1,0.6,1.6c0.2,0.6,0.3,1.2,0.3,1.8c0,0.6,0.4,0.9,0.8,1.2c0.1,0.1,0.3,0,0.4,0c0.4-0.2,0.8-0.4,1.3-0.6
	c-0.2-0.1-0.3-0.2-0.4-0.3c0-0.1,0-0.1,0.1-0.2c0.4,0.2,0.7,0.3,1.1,0.5c-0.1,0.1-0.2,0.2-0.4,0.4c0.5,0.2,0.9,0.6,1.5,0.3
	c0.1-0.1,0.4,0.1,0.5,0.3c0.3,0.4,0.6,0.4,1,0.2c0.4-0.3,0.9-0.6,1.3-0.9c0.1-0.1,0.2-0.2,0.3-0.2c0.7,0.3,1.1-0.2,1.6-0.5
	c0.3-0.2,0.5-0.3,0.8-0.4c0.6-0.2,1.2-0.5,1.6-1.1c1.7-2.3,1.9-4.8,0.7-7.4c-0.7-1.5-1.7-2.6-3.3-2.9c-0.6-0.1-1.2-0.5-1.9-0.5
	c-1.4,0-2.7,0.6-3.5,1.8c-0.8,1.2-1.8,1.3-3,1c-0.3-0.1-0.5-0.3-0.8-0.4c-0.2-0.1-0.4,0-0.7,0c-0.3-0.6-0.6-1.1-1.4-1.3
	c-0.3-0.1-0.6-0.4-0.9-0.7c-0.9-1.2-2-2.2-3.5-2.7c-0.4-0.1-0.7-0.5-1.1-0.8c-0.4-0.3-1-0.4-1.5-0.4c-0.7,0.1-1.4,0.2-2.1,0.3
	c-0.7,0.1-0.8,0.2-0.9,0.9c0,0.1-0.1,0.3-0.2,0.5c-0.3-0.8-0.7-1.4-0.9-2c-1.1-3.2-2.2-6.4-3.2-9.6C53,7.5,53,6.5,52.9,5.5
	c0-0.2,0-0.4-0.1-0.6c-0.4-1.5-0.9-2.9-1.3-4.4c-0.1-0.2-0.2-0.4-0.3-0.6c-0.6,0.8-0.1,1.7-0.5,2.4c-0.4-0.5-0.8-1.1-1.2-1.7
	c0,0-0.1,0-0.1,0C49.7,1.4,50,2,50,2.7c0.2,1.2,0.8,2.3,1.5,3.3c1.2,1.8,1.6,3.9,2.3,5.9c0.7,2,1.3,4,1.9,6c0.2,0.7,0.3,1.5,0.5,2.2
	c0.1,0.2,0.1,0.4,0.2,0.7c-0.1,0-0.2,0.1-0.4,0.2c-0.9,0.3-1.7,0.6-2.5,1c-0.6,0.3-0.9,0.1-1.4-0.3c-3.3-3.4-6.6-6.8-9.9-10.2
	c-0.9-1-1.9-1.8-2.8-2.9c-0.9-1.1-1.7-2.2-2.6-3.4c-0.3-0.4-0.7-0.8-1-1.3c0,0-0.1,0-0.1,0.1c0.1,0.3,0.2,0.5,0.3,0.8
	c0,0-0.1,0-0.1,0.1c-0.5-0.6-1-1.3-1.4-1.9c0,0-0.1,0-0.1,0.1c0,0.1,0,0.3,0,0.4C34,3,33.6,2.6,33.2,2.3c0,0-0.1,0.1-0.1,0.1
	c0.5,0.8,1,1.6,1.6,2.6c-0.3-0.2-0.5-0.3-0.7-0.5c0,0,0,0-0.1,0.1c0.1,0.2,0.3,0.3,0.5,0.6c-0.9-0.5-1.7-0.9-2.5-1.3
	c0,0-0.1,0.1-0.1,0.1c0.1,0.2,0.2,0.3,0.3,0.4c1.8,1.4,3.6,2.8,5.4,4.2c0.2,0.1,0.4,0.2,0.6,0.3c1,0.2,1.6,1,2.2,1.6
	c3.4,3.5,6.8,6.9,10.2,10.4c0.2,0.2,0.4,0.4,0.6,0.6c0.6,0.4,0.5,1,0.2,1.6c-0.2,0.5-0.5,0.9-0.7,1.4c-0.2,0.4-0.7,0.7-1.3,0.5
	c-0.1,0-0.3-0.1-0.4-0.2c-0.8,1.1-1.5,2.3-2.3,3.4c-0.4,0.6-0.9,1.3-1.3,1.9c-0.1,0.2-0.2,0.5-0.2,0.8c0,0.1,0,0.3,0,0.4
	c-0.2,0.7-0.3,0.7-1,0.6c-4.1-0.6-8.1-1.3-12.2-1.9c-0.3,0-0.6-0.1-0.9-0.1c-1.1-0.1-2-0.4-3-0.8c-1.4-0.6-2.9-0.5-4.4-0.7
	c0,0.1-0.1,0.1-0.1,0.2c0.2,0.1,0.4,0.3,0.6,0.5c-0.3,0-0.5,0-0.7,0c-0.1,0-0.2,0.2-0.2,0.3c0,0.1,0.1,0.2,0.2,0.2
	c0.2,0.1,0.5,0.2,0.8,0.4c-0.2,0.1-0.4,0.2-0.7,0.3c0.3,0.1,0.4,0.2,0.6,0.2c1.3,0.5,2.5,0.1,3.8-0.1c0.2,0,0.3-0.1,0.5-0.1
	c1.6-0.1,3.1,0.3,4.7,0.5c1.8,0.2,3.6,0.4,5.4,0.6c1.5,0.2,3,0.5,4.4,0.7c0.5,0.1,1,0.4,1.5,0.6c-0.2,1-1.4,1.4-1.4,2.5
	c-0.1,0-0.2,0.1-0.3,0.1c-0.6-0.1-1,0.1-1.5,0.4c-0.3,0.2-0.8,0.1-1.1,0c-0.3-0.1-0.5,0-0.6,0.2c-0.3,0.5-0.6,1-0.9,1.6
	c-0.1,0.1-0.2,0.1-0.3,0.2c-0.3,0.3-0.8,0.4-1,0.8c-0.4,0.8-0.8,1.7-1,2.5c-0.3,1.2-0.6,2.3-1.1,3.4c-0.6,1.2-1.1,2.5-1.3,3.9
	c-0.2,1.7-0.6,3.3-1.4,4.8c0,0,0.1,0.1,0.1,0.1c0.7-1.1,1.5-2.2,2.2-3.3c0,0,0.1,0,0.1,0.1c-0.3,0.7-0.7,1.4-0.9,2.2
	c-0.1,0.3-0.1,0.6-0.1,1c0,0,0.1,0,0.1,0c-0.2,0.2-0.4,0.5-0.7,0.7c0,0,0.1,0.1,0.1,0.1c0.4-0.3,0.7-0.5,1.1-0.8
	c0.1,0.5,0.1,0.9-0.2,1.3c-0.4,0.5-0.7,1-1,1.5c-0.4,0.7-0.3,0.8,0.4,1.1c-0.2,0.3-0.5,0.6-0.8,0.9c0.3,0.2,0,0.8,0.6,0.7
	c0.1,0,0.2,0.3,0.2,0.5c0,0.2-0.2,0.4-0.4,0.5c-0.1-0.1-0.2-0.1-0.3-0.2c0,0.9-0.5,1.5-1.1,2c-0.3,0.3-0.6,0.5-0.8,0.7
	c-0.2,0.2-0.2,0.4-0.3,0.7c0.3,0,0.5,0.1,0.8,0.1c0.2,0,0.4-0.2,0.6-0.4c0.3-0.3,0.7-0.6,1-1c0.1,0.2,0.3,0.4,0.4,0.7
	c0.3-0.4,0.6-0.8,0.9-1.2c0,0.3,0.1,0.5,0.1,0.6c-0.4,0.7-0.2,1.5-0.2,2.2c0,0.4-0.2,0.7-0.3,1.1c1.6-2,2.4-4.5,4.2-6.3
	c0.1,0,0.1,0,0.2,0.1c0,0.2,0,0.5,0,0.7c-0.1,0.7-0.2,1.3,0.5,1.8c0.5,0.3,0.4,0.8,0.4,1.3c0,0.3-0.2,0.8,0.3,0.8
	c0.5,0.1,0.4-0.5,0.5-0.7c0.1-0.3,0.2-0.7,0.3-1c0,0,0.1,0,0.1,0c-0.1,0.6-0.2,1.2-0.3,1.8c0,0.1-0.1,0.2,0,0.3
	c0.1,0.1,0.1,0.3,0.2,0.4c0.1-0.1,0.3-0.2,0.4-0.3c0.2-0.6,0.3-1.1,0.4-1.7c0.1-0.6,0.3-1.1,0.5-1.6c0.2,1.1,0.4,2.1,0.6,3.2
	c0.1,0.3-0.1,0.6-0.4,0.7c-0.6,0.2-1.1,0.5-1.6,0.7c0,0-0.1,0.1-0.1,0.1c-0.3,0.8-1,1.3-1.5,1.9c-0.1,0.1-0.1,0.2-0.2,0.4
	c-0.1,0.8-0.6,1.3-1.4,1.5c-0.7,0.3-1.4,0.6-2.1,0.9c-0.9,0.4-1.7,0.9-2.5,1.2c-0.5,0.2-1,0.5-1.3,1.1c-0.3,0.5-0.6,1-0.9,1.5
	c-1.1,1.9-2.4,3.5-3.9,5.1c-1,1.1-1.7,2.4-2.6,3.6c-0.2,0.3-0.3,0.6-0.8,0.3c-0.9,2.1-2.2,3.7-3.7,5.3c-0.1,0-0.3-0.1-0.4-0.1
	c0,0-0.1,0.1-0.1,0.1c-0.4,0.9-0.9,1.7-1.7,2.4c-0.5,0.5-1,1-0.9,1.9c0,0.3-0.4,0.7-0.6,1c-0.5,0.8-0.8,1.7-0.8,2.7
	c0,1.2,1,2.3,2.2,2.3c0.7,0,1.5-0.1,2.2-0.2c0.1,0,0.2-0.1,0.3,0c0.9,0.3,1.8,0.5,2.6,0.8c0.3,0.1,0.7,0.1,1,0.1
	c0.4-0.1,0.6-0.2,1-0.1c0.9,0.3,1.8,0.6,2.8,0.9c0.3,0.1,0.7,0.1,1,0.1c0.8-0.1,1.6-0.2,2.4-0.3c0.3,0,0.6,0,0.8,0.1
	c0.9,0.4,1.7,0.2,2.4-0.3C33.5,99.1,33.8,98.6,33.7,97.9z M67.3,53.1c-1.1-2-2-4.1-2.5-6.4c1.2,2,2.7,3.9,3.2,6.3
	C67.8,53,67.6,53,67.3,53.1z M57.6,73.6c-0.2,1.4-0.4,2.8-0.6,4.2c-0.1-1.2-0.2-2.3-0.3-3.5C56.7,73.8,56.9,73.6,57.6,73.6z
	 M58,82.8c-0.1,0-0.2,0-0.2,0.1c-0.1-0.2-0.3-0.4-0.2-0.5c0.2-1.2,0.4-2.4,0.6-3.6c0.1,0,0.1,0,0.2,0C58.2,80.1,58.1,81.4,58,82.8z
	 M49.1,36.8c-0.2,1.1-0.4,2.2-0.6,3.2c0-1.1,0-2.2,0-3.4C48.8,36.8,48.9,36.8,49.1,36.8z M36.4,52.5c0.5,0.6,0.4,0.9-0.2,1.3
	c-0.1,0.1-0.2,0.3-0.2,0.4c-0.1-0.2-0.3-0.3-0.3-0.5c0-0.1-0.1-0.3,0-0.4C35.9,53,36.1,52.8,36.4,52.5z M58,74.8
	c0.6,1,0,1.8-0.1,2.7c0,0-0.1,0-0.1,0C57.8,76.6,57.9,75.7,58,74.8z M47.3,41.1c0.2,0.5,0.4,1,0.6,1.5
	C47.2,42.4,47.3,42.3,47.3,41.1z M37.5,55.9c0.1-0.7,0.2-1.4,0.3-2.2c0,0,0.1,0,0.1,0C38.1,54.5,37.8,55.2,37.5,55.9z M78.1,52.3
	c-0.1,0-0.1,0-0.2,0c0.2-0.5,0.3-1,0.5-1.6C78.8,51.4,78.3,51.8,78.1,52.3z M47.6,38.9c0,0.5,0.1,0.9,0.1,1.5
	C47.1,39.3,47,39,47.6,38.9z M40.9,57.9c-0.2,0.4-0.4,0.7-0.6,1C40.2,57.9,40.3,57.7,40.9,57.9z M79.4,50.6c0-0.5,0-0.9,0-1.3
	C79.8,49.5,79.9,49.7,79.4,50.6z M77.8,52.8c0,0.4,0,0.9,0,1.3C77.2,53.7,77.7,53.3,77.8,52.8z M67.8,31.8c0,0-0.1,0-0.1,0
	c0-0.7,0-1.4,0-2.1c0,0,0.1,0,0.1,0C67.8,30.4,67.8,31.1,67.8,31.8z M78,48.9C78,48.9,78,48.9,78,48.9c-0.1-0.4-0.1-0.9-0.1-1.3
	c0.1,0,0.1,0,0.2,0C78.1,48,78,48.4,78,48.9z"/>
</svg>
