<?xml version="1.0" encoding="utf-8"?>
<!-- Generator: Adobe Illustrator 27.9.0, SVG Export Plug-In . SVG Version: 6.00 Build 0)  -->
<svg version="1.1" id="Layer_1" xmlns="http://www.w3.org/2000/svg" xmlns:xlink="http://www.w3.org/1999/xlink" x="0px" y="0px"
	 viewBox="0 0 100 100" style="enable-background:new 0 0 100 100;" xml:space="preserve">
<style type="text/css">
	.{fill-rule:evenodd;clip-rule:evenodd;}
</style>
<path class="" d="M59.7,16.5c-2.4,0.3-4.5,0.3-6.4-0.7c-0.8-0.4-2.4-1.9-2.9-1.8c-1.2,0.4-2.6,1.4-4.6,1c-0.8-0.2-2.4-1-2.8-0.8
	c-1.1,0.6-2.1,1.4-3.4,1.9c-0.6,0-1.2,0-1.9,0c-0.4,0.3-0.8,1.2-1.2,1.5c-0.8,0.4-1.7,0.8-2.4,1.3c-0.8,0.7-1.2,2.1-1.9,2.8
	c0.4,2.6,0.3,5.1-0.7,7.2c0.5-0.1,0.5-0.2,0.8,0c1.1,0.7,2.4,2.7,2.8,4c0.1,0.8,0.3,1.8,0.3,2.6c0.4,0.8,2,0.5,2.9,1
	c1,0.5,2.5,1.9,3.1,2.8c0.3-0.1,0.7-0.2,1.2-0.2c0.1-0.4-0.1-0.3,0.3-0.3c0.2,0.1,0.2,0.1,0.5,0.2c0.2-1.1,1.9-5,2.6-5.3
	c0.4,0,0.8,0,1.3,0c1.3,1.2,3.8,1.8,4.1,3.8c0.2,0,0.3,0,0.5,0c0.4,0.6,1.3,0.9,1.7,1.5c0.4,0.8,0.8,1.7,1.3,2.4c0.1,0,0.1,0,0.2,0
	c0.1-0.8,0.6-1.1,0.8-1.7c0.8-1.6,0.5-3.8,2.8-3.8c0.4,0.4,1.2,0.7,1.5,1.2c1.3,1.9,3.6,7.7,2.8,11.7c-0.3,1.2-0.4,2.8-0.5,4
	c0.7,0.2,1.3,0.7,1.9,0.5c1.3-1.9,0.6-5,1.2-7.7c0.5-2,0.9-4.5,1.5-6.6c0.4-0.3,0.8-0.6,1.2-0.8c0.3,0.1,0.7,0.3,1,0.3
	c0.2,0.5,0.5,0.9,0.7,1.5c0.2,0.9-0.2,3.4-0.2,4.8c-1.1,0.7-1.1,1.7-1,3.4c-0.4,0.8-0.3,1.9-0.5,2.8c-0.3,1.2-0.8,2.4-1.2,3.6
	c0.1,0,0.1,0,0.2,0c0.5-0.3,1.7,0.2,2.3,0.3c0.8-2.8,3.8-4,5.9-5.5c0.6-0.3,2.1-1.9,2.8-1.5c0.4,0.2,0.5,0.3,0.8,0.5
	c0.2-0.8,0.3-0.8,1.3-0.8c0.6-0.3,1.9,0.3,2.4,0.5c2.6,0.9,4.6,2,5.7,4.5c1.8-0.6,3.4,0.3,4.6,0.7c1.9,0.7,4,1.3,5,2.9
	c0.3,0.8,0.4,1.5,0.7,2.3c0,0.3-0.4,0.9-0.3,1.3c0.1,0.2,0.6,0.6,0.7,0.8c0.3,0.7,0.3,1.5,0.5,2.1c1.2,4.8-2.7,11.9-5.3,13.1
	c0-0.1,0-0.3,0-0.3c0.5-0.5,0.5-1.1,0.8-1.9c1.3-2.9,2.5-5.6,1.7-9.3c-0.1,0-0.1,0-0.2,0c-0.3,1.9-2,4.5-2.8,5.9
	c-0.9,1.7-1.3,3.5-1.9,5.3c-0.1,0-0.1,0-0.2,0c0-0.1,0-0.1,0-0.2c-1.6-1.8,0.1-5.3-0.5-8.1c-1.1-4.6-4.9-7.1-4.5-12.2
	c-1.8-0.4-6.7-2-6.9-3.8c-0.3,0.1-0.3,0-0.5,0.2c-0.3,0.7-0.4,1.3-0.7,1.9c-1.3,2-4.8,3.6-8.2,3.6c-0.5,0.8-1.3,1.5-1.7,2.3
	c1.3,0.8,1.7,2.3,1.7,4.5c-0.1,0-0.1,0-0.2,0c-0.2-0.3-0.3-0.6-0.7-0.8c0,0.1,0,0.1,0,0.2c0.2,0.2,0.3,0.4,0.5,0.7
	c-0.1,0-0.3,0-0.3,0c-0.4-0.4-4.4-2.5-5-2.6c0,0.1,0,0.3,0,0.3c1.6,0.9,3,2.2,4,3.8c-0.2,0-0.3,0-0.5,0c-0.2-0.2-0.1-0.1-0.3-0.2
	c0,0.1,0,0.1,0,0.2c0.1,0,0.3,0,0.3,0c0.2,0.1,0.3,0.3,0.5,0.3c-0.1,0-0.1,0-0.2,0c0,0.1,0,0.1,0,0.2c-2.9,1.7-4.6-0.3-7.1-0.8
	c-0.2,1.6-0.8,3.7-1.9,4.5c-0.3,0.3-0.7,0.3-1.3,0.3c-0.1,2.8-1.9,4.4-3.8,5.3c-0.8,0.3-1.4,0.3-1.9,0.8c0.1,0,0.1,0,0.2,0
	c0.8,1.3,1.7,2.4,2.4,3.6c0.1,0,0.3,0,0.3,0c1.5-1.9,6.7-3,10.3-2.1c2.8,0.7,4.8,2,7.1,2.9c2.9,1.2,6.8,0.9,9.3,2.6
	c0.4,0.3,0.6,1,1,1.3c0,0.1,0,0.1,0,0.2c-0.1,0-0.3,0-0.3,0c-0.7-0.5-2.9-0.3-4.1,0c-3.7,0.9-8.3,1.7-11.7,3.1c0,0.1,0,0.1,0,0.2
	c1.7,0.3,1.9,1.6,3.6,1.9c0.6,0.2,1.4-0.1,1.9-0.2c1.5-0.1,3.1-0.1,4.6-0.2c1.5-0.4,3.6-1.1,5.1-1.5c0,0.1,0,0.1,0,0.2
	c-0.1,0-0.1,0-0.2,0c-1.9,2.9-9.7,5.3-15,3.8c-1.4-0.4-3.4-1-4.6-1.9c-0.2-0.3-0.3-0.4-0.5-0.7c-0.4,0.1-0.8,0.1-1.3,0.2
	c-1-0.2-2.3-0.9-3.1-1.5c-0.9-0.6-1.9-1.9-2.4-2.9c-0.3-0.6-0.4-1.2-0.7-1.9c-0.6,0-1.2,0-1.9,0c-0.4-0.3-0.9-0.2-1.5-0.5
	c-0.6-0.3-1.8-1.4-2.1-1.9c-3.1-4.3-2-8.2,2.1-10.7c0-0.1,0-0.1,0-0.2c-1.3-0.1-2.1-1.3-3.1-1.3c-0.2,0-0.4,0.3-0.5,0.3
	c-0.8,0.3-1.9-0.1-2.6-0.2c-1,1.6-3.3,2.7-5,3.6c-0.9,0.5-1.3-0.4-1.5,0.7c0.4,0.8-0.6,3.5-1,4.1c-0.2,0.2-0.7,0.2-0.8,0.3
	c-0.1,0.5-0.1,1-0.2,1.5c-0.4,1.1-1.2,2.4-1.9,3.4c-0.3,0.3-0.8,1.1-1.2,1.3c-0.2,0-0.3,0-0.5,0c-0.7,0.6-0.8,1.6-1.5,2.1
	c-0.8,0.5-1.5,0.6-2.1,1.2c0-0.2,0-0.3,0-0.5c0.3-0.2,0.3-0.3,0.5-0.7c-0.1,0-0.3,0-0.3,0c-0.2,0.2-0.4,0.3-0.7,0.5
	c0-0.1,0-0.3,0-0.3c1.3-0.8,1.9-2.1,3.3-2.8c-0.5-2.1,1.6-4.9,2.4-6.2c0.3-0.5-0.1-0.8,0-1.3c0.2-0.7,1.1-2.7,1.5-3.4
	c0.3-0.4,1.1-0.8,1.3-1.3s-0.1-1.1,0.2-1.5c0.4-0.7,1.3-1,1.9-1.7c-0.1,0-0.1,0-0.2,0c0-0.1,0-0.1,0-0.2c-1.7,0-2.9-1.3-4-1.2
	c-0.2,0-0.7,0.4-0.8,0.5c-1.5,0.6-4.5,1.2-5.6,0.5c0.1,2.3-1,2.9-2.1,4.3c-0.1,0.3-0.1,0.6-0.2,0.8c-0.7,1-1.9,2.8-2.8,3.4
	c-1.8,1.3-4.3,1.3-6.4,1.9c0-0.1,0-0.1,0-0.2c0.1,0,0.1,0,0.2,0c0.3-0.3,0.5-0.4,0.8-0.7c-0.3,0.1-0.6,0.1-0.8,0.2
	c0-0.1,0-0.1,0-0.2c0.1,0,0.1,0,0.2,0c0.6-0.7,3.1-1.3,4.3-1.5c-0.1-1.3,1.3-3.4,2.1-4.5c0.2-0.3,0.8-0.4,1-0.7c0-0.3,0-0.6,0-0.8
	c0.4-0.8,2.2-3.6,3.1-3.8c0.1-0.4,0.1-0.8,0.2-1.2c0.8-0.3,1.8-0.8,2.6-1.2c0-0.1,0-0.1,0-0.2c-1.2-0.7-2.6-1.7-4.1-1.8
	c-1.2,0.8-6.6,1.1-8.1,0.3c0.1,1.5-1.3,3.8-2.4,4c0,0.4,0,0.5-0.2,0.7c-0.8,2.4-4.1,4.5-6.4,5.1c-0.8,0.3-1.9-0.2-2.6,0
	c0-0.1,0-0.1,0-0.2c0.4-0.3,0.1-0.3,0.5-0.7c0.8-0.5,2.5-0.9,3.6-1c0.2-1.8,1.6-3.5,2.6-4.6c0.2-0.2,0.7-0.3,0.8-0.5
	c0.3-0.3,0.1-0.8,0.3-1.2c0.6-0.8,1.2-1.8,1.9-2.6c0.6-0.8,1.4-1.1,1.9-2.1c0.7-0.1,3.6-0.5,4.1-0.8c-2.1-1.4-2.9-4.5-6.6-4.5
	c-0.7-0.4-1.8-0.3-2.6-0.5c-0.9-0.4-1.9-0.8-2.8-1.3c-0.3-0.1-0.3,0.1-0.3,0.2c-0.7,0.8-1.3,1.5-1.9,2.3c-0.3,0-0.4,0-0.7,0
	C7.8,56.6,2.4,58,0,56.1c0.1,0,0.3,0,0.3,0c0.5-0.7,1.9-0.5,3.1-0.5c0.3-0.8,1.9-2.9,2.6-3.3c0.3,0,0.4,0,0.7,0
	c0.1-0.3,0.1-0.4,0.2-0.7c1-1.3,3.3-3.6,5.6-3.6c0.8,0.5,2,0.3,2.9,0.7c0.8,0.3,2.3,0.7,3.1,1.2c0.2,0.3,0.3,0.4,0.5,0.7
	c1,0.5,2,0.2,2.9,0.7c2.4,1.3,4.8,4.4,7.1,6.1c0.3,0.4,0.7,0.8,1,1.2c0.8,0.5,1.9,0.5,2.6,1c2.4,1.5,3.4,2.3,7.6,2.3
	c0-0.1,0-0.3,0-0.3c-0.4-0.3-0.4-0.8-0.7-1.3c-1.8-0.7-3.9-0.2-5.6-1.3c-0.5-0.3-1.6-1.5-1.9-2.1c-0.1-0.4,0.2-0.6,0.2-0.8
	c0-0.8-0.8-1.3-1.7-1.5c-1.5,0.7-5-4-5.5-5.5c-0.3-0.8,0.4-1.5,0.2-2.1c-0.4-1.6-2-1.3-2.8-2.4c-0.6-1.2-1.1-2.4-1.7-3.6
	c-0.6-0.1-1.5-0.3-1.9-0.7c0.1,0,0.1,0,0.2,0c0.2-0.1,0.7-0.3,0.8-0.3c-0.3-0.1-0.3,0-0.5-0.2c0.1,0,0.1,0,0.2,0
	c0.3-0.2,0.4-0.1,1,0c-0.2-1.6,0.1-2.9,0.3-4.1c-0.6-0.4-1.3-0.8-1.3-1.9c-0.4-0.7-0.8-3.1-0.5-4.3c0.8-3.4,2.4-5.9,4-8.4
	c1.8-2.9,3.8-4.5,6.4-6.6c1.3-1,2.5-2.4,4.1-3.3c0.9-0.5,1.9-0.3,2.9-0.8c2-0.9,4.4-2.5,7.4-1.9c0.7,0.1,1.1-0.3,1.5-0.3
	c1.5-0.3,5.5,0.1,6.4,0.5c0.1,0.2,0.3,0.3,0.3,0.5c0.6,0.2,1.4-0.5,2.3-0.3c2.9,0.7,6,1.8,7.6,3.8c0.8-0.5,1.8,0.2,2.3,0.5
	c1.9,1.2,3.4,2.6,5.1,3.8c-0.1,0.3-0.1,0.6-0.2,0.8c0.3,0.1,1.5,0.2,1.9,0.3c1.3,0.6,4,5.6,4.3,7.4c0.1,0.5-0.3,0.8-0.5,1.2
	c1.9,1.2,4.8,4,3.6,7.6c-0.4,1.3-1.9,2.4-2.9,3.1c-0.5,0.3-0.8,1-1.2,1.5c-0.2,3.2,1.1,4.3,2.4,6.2c-0.1,0-0.3,0-0.3,0
	c-0.4-0.6-1.1-0.9-1.5-1.5c-1.4-2-5-8.7-4-12.8c0.3-1.3,1.3-1.9,1.5-3.1c-2.6-1.1-5.3-3.4-5.9-6.7c-0.1,0-0.3,0-0.3,0
	c-0.4,0.4-1.8,0.2-2.4-0.2c-1.7-0.8-2.9-2.2-4.1-3.4C59.7,17.1,59.7,16.8,59.7,16.5z M46.8,37.3c-0.3,0.9-1.3,2.6-2.1,2.9
	c-0.4,0.3-1.1,0-1.9,0c-0.3-0.4-0.6-0.8-1-1c0,0.1,0,0.3,0,0.3c1.7,1.1,2.8,3,4,4.6c0.4,0.6,1.2,1.1,1.7,1.7
	c0.8,0.9,1.4,2.4,2.9,2.4c1.2-0.8,3.1,0.8,3.4,1.5c0.3-0.1,0.5-0.2,1-0.2c0-0.1,0-0.3,0-0.3c-0.7-0.8-0.7-1.9-1.2-2.9
	c-1-2.4-2.6-4.5-3.3-7.2C48.8,38.9,48,37.7,46.8,37.3z M57.6,49.7c1.1,0.2,1.6,0.8,2.4,1.2c0-0.5,0-1,0-1.5c0.6-0.9-0.4-6.4-0.5-8.1
	c-0.5-0.3-0.8-0.7-1.2-1.2c-0.1,0-0.1,0-0.2,0c0,0.1,0,0.1,0,0.2c-0.3,0.2-2.4,3.2-2.4,3.4C56.5,44.8,57.4,48.4,57.6,49.7z
	 M77.1,45.3c0.2,0.1,0.3,0.1,0.5,0.2c0,0.1,0,0.1,0,0.2C77.2,45.5,77.2,45.6,77.1,45.3z M77.6,45.6c0.1,0,0.3,0,0.3,0
	c0,0.1,0,0.1,0,0.2C77.6,45.7,77.7,45.8,77.6,45.6z M65.5,64.4c0.2,0.2,0.1,0.1,0.3,0.2C65.7,64.5,65.8,64.5,65.5,64.4z M67,64.9
	c0.2,0.2,0.1,0.1,0.3,0.2C67.1,64.9,67.3,65,67,64.9z"/>
</svg>
