<?xml version="1.0" encoding="utf-8"?>
<!-- Generator: Adobe Illustrator 27.9.0, SVG Export Plug-In . SVG Version: 6.00 Build 0)  -->
<svg version="1.1" id="Layer_1" xmlns="http://www.w3.org/2000/svg" xmlns:xlink="http://www.w3.org/1999/xlink" x="0px" y="0px"
	 viewBox="0 0 100 100" style="enable-background:new 0 0 100 100;" xml:space="preserve">
<path d="M18,47.2c0.2,0.1,0.4,0.2,0.7,0.4c0,0,0,0,0,0.1c-0.1,0-0.1,0-0.2,0C18.4,47.5,18.2,47.4,18,47.2 M9.2,15.9
	c-0.1-0.4-0.1-0.8-0.2-1.2c0.1,0,0.1,0.1,0.2,0.1c0.2,0.3,0.4,0.7,0.7,1.1c0,0-0.1,0.1-0.2,0.2C9.5,16,9.4,15.9,9.2,15.9 M7.8,12.3
	c-0.5-0.2-1-0.3-1.6-0.4L5.9,12c0.2,0.7,0.9,1.2,1.7,1.8c0,0.3,0,0.7-0.1,1c0.1,0.5-0.1,1.1,0.1,1.5c0,0.1,0,0.2,0,0.3
	c-0.1,0-0.2-0.1-0.3-0.1c-0.1,0-0.2,0-0.3-0.1c0,0,0,0,0,0c-0.1,0-0.2,0-0.2,0c-0.1,0-0.2,0-0.3,0c0,0.1,0.1,0.1,0.1,0.1
	c0.3,0.3,0.5,0.6,0.8,0.9c-1-0.7-1.6-1.1-2.3-0.8c0.2,1.2,1.3,2.4,2.5,3.5c0,0-0.1,0-0.1,0c0,0,0,0-0.1,0c0,0,0,0-0.1,0
	c-0.1,0-0.2,0.1-0.2,0.1c0,0,0,0,0,0c0,0,0,0,0,0c0,0-0.1,0-0.1,0c-0.1,0-0.1,0-0.2,0.1c0,0,0,0-0.1,0.1c0.1,0.2,0.3,0.3,0.5,0.4
	c0.2,0.1,0.4,0.2,0.6,0.4c0.1,0,0.2,0.1,0.2,0.1c0.2,0,0.4,0.1,0.6,0.2c0.1,0,0.1,0,0.2,0c0,0.1,0.1,0.2,0.1,0.4
	c-0.2,0-0.4,0.1-0.6,0.1c0,0-0.1,0-0.1,0c0,0-0.1,0-0.1,0c-0.2,0-0.3,0-0.5,0c-0.1,0-0.1,0-0.2,0c-0.1,0-0.1,0-0.1,0
	c-0.2,0-0.4,0-0.5,0c0,0-0.1,0-0.1,0c0,0,0,0,0,0c0,0,0,0,0,0c-0.1,0-0.2,0.1-0.3,0.1c0,0,0,0.1,0.1,0.1c0.1,0.1,0.2,0.1,0.3,0.2
	c0.1,0,0.2,0.1,0.3,0.1c0.1,0,0.2,0.1,0.3,0.2C7.7,22.8,8,23,8.5,23.1c0.2,0.1,0.4,0.1,0.6,0.2c0.1,0,0.2,0.1,0.3,0.1
	c-0.1,0-0.3-0.1-0.4-0.1c-0.1,0-0.2-0.1-0.4-0.1c-0.2-0.1-0.5-0.1-0.7-0.2c0,0-0.1,0-0.1,0c0,0,0,0-0.1,0c-0.1,0-0.3-0.1-0.5-0.1
	c-0.2,0-0.4,0-0.6,0c0,0,0.1,0.1,0.2,0.1c0.2,0.1,0.5,0.2,0.7,0.4c0.3,0.2,0.8,0.4,1.3,0.7c0.2,0.1,0.4,0.2,0.6,0.3
	c0.1,0,0.2,0,0.2,0.1c-0.4,0-0.7-0.1-1.1-0.2c-0.1,0-0.3-0.1-0.4-0.1c0,0.1,0.1,0.1,0.2,0.2c0.1,0.1,0.1,0.2,0.2,0.3
	c0.1,0.1,0.2,0.2,0.3,0.3c0,0,0.1,0.1,0.2,0.1c0.4,0.3,0.8,0.7,1.4,1c-0.4-0.1-0.8-0.3-1-0.4c-0.4-0.2-0.8-0.3-1.1-0.3
	c0,0.1,0.1,0.1,0.2,0.2c0.1,0.1,0.1,0.1,0.2,0.1C9,26,9.2,26.2,9.4,26.4c0.1,0.1,0.2,0.2,0.3,0.4c-0.2,0-0.4,0-0.6,0
	c-0.1,0-0.1,0-0.2,0c0,0,0,0,0,0c-0.2,0-0.3,0.1-0.5,0.2c0.4,1.4,1.1,2.3,1.9,3c0,0,0,0,0,0.1c0.6,0.9,1.3,1.8,2,2.6
	c0,0,0,0.1,0,0.1c-0.2,0.1-0.3,0.2-0.4,0.2c-0.6-0.4-1.2-0.6-1.8-0.7l0,0.3c0.6,1.4,1.6,2.6,2.7,3.6c0.1,0.3,0.2,0.6,0.2,0.9
	c-0.9-0.3-1.8-0.8-2.7-0.7c0.5,1.1,1.4,1.8,2.3,2.6c0.4,0.4,0.9,0.7,1.4,1c0.1,0.2,0.2,0.4,0.3,0.6c-0.5-0.2-1-0.3-1.4-0.5
	c-0.4-0.1-0.8-0.2-1.1,0c0.4,0.6,0.9,1,1.4,1.5c0.8,0.6,1.5,1.1,2.3,1.5c0.2,0.2,0.4,0.4,0.5,0.5c0.1,0.2,0.2,0.3,0.3,0.5
	c-1-0.3-2-0.4-3.1-0.2c0.1,0.4,0.5,0.7,0.8,1c0.2,0.2,0.5,0.2,0.6,0.4c0,0,0,0,0,0c0,0-0.1,0-0.1,0c0.2,1,0.9,1.9,1.4,2.8
	c0,0,0,0,0,0c0,0,0,0,0.1,0.1c0.1,0.1,0.1,0.2,0.2,0.3c0.9,1.1,1.9,2.2,3,3.2c0.2,0.1,0.5,0.3,0.6,0.5l0.1,0
	c0.1,0.1,0.1,0.2,0.2,0.2c0,0.2,0.1,0.4,0.2,0.5c-0.3-0.2-0.6-0.4-0.9-0.6c-0.8-0.8-1.9-1.4-3.1-1.5l0,0.3c1.2,2.1,3.1,3.8,5.3,4.9
	c0,0,0,0.1,0,0.1c0,0.1,0,0.1,0,0.2c-0.6-0.2-1-0.6-1.7-0.8c-1-0.2-2.1-0.7-3.1-0.6c0.5,1,1.6,1.7,2.5,2.4c0.9,0.7,1.9,1,2.9,1.4
	c0,0.1,0.1,0.2,0.1,0.4c-0.9-0.2-1.8-0.5-2.7-0.7c-0.4,0-0.8-0.1-1.1,0.1c0.4,0.6,1,1,1.5,1.4c1.1,0.7,2.2,1.2,3.4,1.7
	c0.1,0,0.1,0.1,0.2,0.1c0.1,0.1,0.1,0.2,0.2,0.2c0.1,0.1,0.2,0.2,0.3,0.3c-1.2-0.3-2.5-0.4-3.7-0.1c0.2,0.4,0.6,0.6,0.9,0.9
	c0.2,0.1,0.5,0.1,0.6,0.4c1.4,0.8,3.1,1.2,4.8,1.5c0.1,0.2,0.2,0.3,0.2,0.4c-0.9,0-1.8,0.1-2.7,0.4c-0.1,0.2-0.7,0.1-0.7,0.5
	c1.4,0.9,3.3,1.3,5,1.4c0.1,0.1,0.2,0.3,0.2,0.4c-0.9,0.1-1.7,0.2-2.2,0.9c0.3,0.3,0.8,0.4,1.1,0.6l1.6,0.4c0.8,0.2,1.5,0.3,2.3,0.2
	c0.1,0.1,0.1,0.2,0.2,0.3c-0.2,0-0.3,0.1-0.5,0.1c-0.4,0.2-1.2,0.2-1.1,0.8c0.8,0.4,1.7,0.5,2.6,0.5c0.1,0.1,0.2,0.1,0.3,0.2
	c0.1,0.1,0.2,0.2,0.4,0.2c-0.4,0.2-0.8,0.4-1,0.8c0.8,0.3,1.8,0.4,2.7,0.4c0,0,0,0.1,0,0.1c-1.6,0.3-3.4,0.9-4.7,1.3c0,0,0,0-0.1,0
	c-2.9,0.2-6.8,0.5-8.7,0.5c-3-0.1-6.9,0-7.1,0c-0.1,0-0.1,0.4,0.1,0.8L12.5,77l3.5,0.4c0.3,0.1,0.6,0.3,0.9,0.4L15.6,79l0.9,0.5
	c0,0-0.5,0.7-1.2,0.9c-0.7,0.1,1.1,0.3,1.1,0.3s-0.9,1.4-1.1,1.5c-0.1,0,1.4-0.1,3.3-0.2c0,0,0.1,0.1,0.1,0.1
	c0.4,0.2,2.5,0.5,3.7,0.3c0.5-0.1,1.1-0.4,1.8-0.8c0.9-0.1,1.5-0.1,1.5-0.1l-0.4-0.4c0.3-0.1,0.6-0.2,0.9-0.3
	c-0.9,2.1,2.5,3.6,2.5,3.6s0.7-0.8,1.2,0.6c0.1,0.2,0.2,0.3,0.3,0.4c-0.2,0.1-0.5,0.2-0.7,0.2c-1.2,0.1-2.6,0.9-3.3,1.4
	c-0.1-0.1-0.2-0.2-0.2-0.4c0-0.1-0.1-0.2-0.1-0.3c-0.1-0.2-0.3-0.4-0.4-0.7c-0.1-0.2-0.2-0.2-0.3-0.4c0-0.1-0.1-0.1-0.2-0.2
	c0,0-0.1-0.1-0.1-0.1c-0.1-0.2-0.1-0.2-0.3-0.1c-0.3-0.3-0.7-0.5-1.1-0.6c-0.4-0.1-0.8-0.1-1.2,0c-0.4,0.1-0.6,0.5-0.5,0.9
	c0-0.2,0.1-0.4,0.3-0.5c0.2-0.1,0.4-0.1,0.6-0.1c0.4,0,0.8,0.2,1.2,0.4c0.1,0.1,0.1,0.1,0,0.2c-0.1,0.1-0.2,0.2-0.2,0.3
	c0,0.2,0.1,0.4,0.3,0.5c0.2,0.1,0.3,0.2,0.5,0.1c0,0,0.1,0.1,0.1,0.1c0,0.2,0.1,0.3,0.3,0.3c0.1,0,0.1,0,0.1,0.1
	c0,0.1,0.1,0.1,0.1,0.2c0,0,0.1,0,0.1,0.1c-0.1,0.2-0.1,0.4-0.2,0.5c-0.2,0-0.3,0-0.5,0c-0.1,0-0.2-0.1-0.2-0.1
	c-0.2-0.2-0.4-0.2-0.6,0c0,0-0.1,0-0.1,0c-0.1,0-0.2,0-0.3-0.1c-0.1,0-0.1-0.1-0.1-0.2c-0.1-0.2-0.2-0.4-0.4-0.4c-0.1,0-0.2,0-0.3,0
	c-0.1,0-0.1,0-0.2-0.1c-0.1-0.2-0.1-0.4,0-0.6c0.1-0.2,0.3-0.2,0.4-0.2c0.1,0,0.3,0.1,0.4,0.1C23.2,86,23.1,86,23,86
	c-0.3-0.2-0.7-0.1-0.9,0.2c-0.3,0.4-0.3,0.9,0,1.2c0,0,0,0,0,0c0.1,0.3,0.4,0.4,0.6,0.6c0.2,0.2,0.5,0.3,0.8,0.3
	c0.2,0,0.4,0,0.7,0.1c0,0-0.1,0-0.1,0c-0.1,0-0.2,0.1-0.2,0.2c-0.1,0.1-0.1,0.1-0.2,0.1c-0.1,0-0.2-0.1-0.4-0.1
	c-0.1,0-0.1,0-0.1-0.1c-0.1-0.3-0.5-0.4-0.8-0.2c0,0-0.1,0.1-0.2,0c-0.9-0.2-1-1.2-0.5-1.7c0,0,0,0,0,0c-0.2,0-0.4,0.1-0.5,0.3
	c-0.3,0.6-0.2,1.5,0.7,1.9c0.1,0,0.1,0.1,0.2,0.2c0,0,0,0,0.1,0.1c0.3,0.2,0.6,0.3,0.9,0.3c0.1,0,0.2,0,0.4,0c0,0,0,0,0,0.1
	c-0.1,0-0.2,0.1-0.3,0.1c0,0-0.1,0-0.1,0c-0.1,0-0.2-0.1-0.2-0.1c-0.2-0.1-0.3,0-0.4,0.1c-0.1,0.1-0.2,0.1-0.4,0
	c0,0-0.1-0.1-0.1-0.1c0,0-0.1-0.1-0.1-0.1c-0.2,0-0.2-0.2-0.3-0.3c-0.1-0.2-0.2-0.4-0.5-0.4c-0.2,0-0.3,0-0.3,0.3c0,0,0,0.1,0,0.1
	c-0.3-0.1-0.5-0.3-0.5-0.6c0-0.2,0-0.4,0-0.5c0.1-0.3,0.2-0.4,0.5-0.5c0,0,0,0,0.1,0c0,0,0,0,0,0c-0.1-0.1-0.3,0-0.4,0
	c-0.4,0.2-0.7,0.6-0.6,1.1c0,0.5,0.3,0.8,0.7,1.1c0,0,0.1,0.1,0.1,0.1c0,0,0,0.1,0.1,0.1c0.1,0.1,0.2,0.1,0.3,0.2
	c0.2,0.1,0.3,0.1,0.5,0.2c0.1,0.1,0.3,0.2,0.4,0.2c0.1,0.1,0.3,0.1,0.4,0.2c0.1,0,0.3,0.1,0.4,0.1c0.1,0,0.2,0,0.3,0
	c0.2-0.1,0.3-0.1,0.5-0.2c0.3-0.1,0.7-0.2,1-0.3c0.1,0,0.3-0.1,0.4-0.2c0.5-0.3,0.9-0.6,1.4-0.8c0.6,0.3,0.9,0.1,0.9,0.1
	s0.3,0.1,0.8,0.2c0.5,0.1,0.8-0.2,0.8-0.2s0.9-0.1,1.3-0.1c0.4-0.1,1.1-0.7,1.1-0.7s1-0.2,1.8-0.3c0.6-0.1,2.6-1.4,3.7-2.1
	c1.5,0.5,3.6,0.3,4.7,0c0.5-0.2,1.8-0.3,3.4-0.4c0.9,0.4,2,0.7,3.1,0.8c2.1,0.2,3.7-0.3,4.7-0.8c0.2,0,0.4,0.1,0.6,0.1
	c2.8,0.6,14.3,1.6,15.4,1.6c1.1,0,1.2-0.4,2.9-0.8c1.8-0.4,2.7-1.9,3-2.3c0.3-0.4,0.5-0.8,0.6-1.1c0.2,0.2,0.3,0.4,0.3,0.4
	c0.5-1.1,0.3-2.1,0-2.8c0.1-2.1-0.9-6.4-0.9-6.8c-0.2-0.8-0.6-1.7-0.9-2.2c-0.3-0.6-1.8-1.7-2.6-1.9c-0.8-0.2-2-0.1-3.1-0.7
	c-0.3-0.1-1.3-0.3-2.7-0.5c0.8-1.1,2.8-3.7,4.6-5.5c2.4-2.4,6.6-6.4,7.5-7.2c2-1.8,3.9-4.3,4.8-5.5c0.7-1,1.3-1.9,2.2-2.7
	c1-0.8,5.5-5.7,6-6.2c0.5-0.5,3.8-4.5,4.3-9.9c0.5-5.5,0.4-5.3-0.3-7.1c-0.7-1.8-1.7-2.9-1.8-3.3c-0.1-0.4-0.6-1.3-1-1.2
	c-0.4,0-0.6,0.5-0.8,0.5c-0.1,0-0.4-0.8-1-0.9c0-0.1,0-0.2,0-0.3c0-0.1,0-0.3,0-0.4c0-0.1,0-0.2,0-0.4c0,0,0,0,0-0.1
	c-0.1-0.2-0.1-0.4-0.2-0.5c-0.1,0-0.1,0.1-0.1,0.1c-0.7,1.2-1.5,2.1-2,3.1c-0.2-0.1-0.3-0.5-0.5-0.8c0.4-0.3,0.8-0.6,1.3-0.9
	c0,0-0.7,0.1-1.7,0.5c0,0-0.1,0-0.1,0c0,0,0-0.1-0.1-0.1c0,0,0,0,0-0.1c0,0,0,0,0-0.1c0-0.1-0.1-0.2-0.1-0.2c0,0,0,0,0,0
	c0,0,0-0.1,0-0.1c0-0.1-0.1-0.1-0.1-0.2c-0.1,0,0,0-0.1,0c-0.2,0.2-0.2,0.4-0.3,0.6c0,0.1,0,0.2-0.1,0.3c-0.4,0.1-0.7,0.3-0.9,0.6
	c0,0,0,0,0,0c0-0.1-0.1-0.2-0.1-0.3c-0.1-0.2-0.1-0.3-0.2-0.5c0,0,0-0.1,0-0.1c0,0,0,0,0-0.1c0-0.1-0.1-0.2-0.2-0.3c0,0,0,0-0.1,0.1
	c0,0.1-0.1,0.2-0.1,0.4c0,0.1,0,0.2-0.1,0.3c0,0.1,0,0.2-0.1,0.4c0,0.2-0.1,0.5-0.1,0.8c-0.1,0-0.2,0.1-0.2,0.1c0-0.1,0-0.2,0-0.3
	c0-0.1,0-0.1,0-0.1c0-0.1,0-0.3,0-0.5c-0.1-0.2-0.1-0.4-0.2-0.6c0,0,0,0.1-0.1,0.2c0,0.2-0.1,0.5-0.2,0.8c-0.1,0.3-0.1,0.6-0.2,1
	c-0.1,0.1-0.3,0.2-0.4,0.3c0-0.1,0-0.3,0-0.4c0,0-0.1,0.2-0.1,0.2c-0.1,0.1-0.1,0.2-0.2,0.3c0,0,0,0,0,0.1c0,0,0,0,0,0
	c-0.2-0.2-0.6-0.5-1-0.4c0.3-0.5,0.6-0.9,1-1.4c-0.1,0-2.8,1.1-4.9,4.7c-0.2-0.1-0.3-0.1-0.5-0.1c0.3-1.1,0.7-2.4,1.4-3.6
	c-0.2,0.4-2.2,2.8-2.8,4.2c-0.1,0-0.1,0.1-0.2,0.1c-0.1-0.7-0.3-2.1,0.2-2.8c0.6-0.9-1.8,1-1.7,2.3c0,0-1.2-0.9-1.5,1.1
	c0,0-1.3-0.4-1.6,0.9c0,0-1.3,0.5-1.6,1.3c0,0-1.4,0.4-1.6,1.3c0,0-1.5,0.5-1.5,1.3c0,0-0.9,0.3-0.5,1.3c0,0-1.4,0.7-1.2,1.3
	c0,0-0.9,0.6-0.8,1.2c0,0-0.2,0.2-0.3,1c0,0-0.8,0.4-0.6,0.9c0,0-0.3,0.1-0.5,0.3c-0.2,0.1-0.5,0.2-0.7,0.4
	c-0.5-0.4-1.2-0.8-1.9-1.2c-0.3,1,0,2.2,0.5,3.4c-0.1,0-0.3,0.1-0.6,0.2c0,0-0.1-0.1-0.1-0.1c-0.4-0.3-0.9-0.5-1.4-0.7
	c-0.2-0.1-0.5-0.1-0.7-0.2c-0.1,0-0.3-0.1-0.4-0.1c-0.2,0-0.2,0-0.1,0.2c0.3,0.9,0.7,1.7,1.1,2.7c0,0,0,0,0,0
	c-0.1,0.2-0.1,0.3-0.1,0.4c0,0.2-0.1,0.4-0.3,0.5c-0.1,0-0.2-0.1-0.3-0.1c-0.4-0.2-1-0.5-1.5-0.7c-0.2,0-0.4-0.1-0.5-0.1
	c-0.1,0,0.3,0.6,0.3,0.7c0.2,0.3,0.3,0.6,0.5,1c-0.1,0.1-0.1,0.1-0.2,0.2c-0.6,0.8-0.4,2-0.6,2.3c-0.1,0-0.2,0-0.3,0
	c0,0.1,0,0.1,0.1,0.2c-0.2,0.1-0.4,0.2-0.7,0.5c-0.4,0.4-0.4,1-0.6,1.3c-0.2,0.2-0.7,0.3-1.3,0.8c-0.6,0.5-0.8,1-0.8,1.3
	c0,0.3-0.3,0.8-0.7,1c-0.3,0.1-1.1,0.7-1.3,1.3c-0.1,0.3,0.1,0.9-0.2,1.4c-0.2,0.5-0.5,0.7-1,1.1c-0.4,0.4-0.5,0.8-0.5,1.2
	c0,0.3,0,0.8-0.3,1.1c-1.4-2.9-2.6-5.2-3.1-5.8c-0.6-0.7-3.3-3.7-6.7-7.4c-0.9-2.3-1.9-5-3.3-8.3c-0.7-1.7-2.8-4.2-4.2-5.8
	c-1.8-2.1-3-2.2-4.7-3.9c-3-3.2-5.9-6.1-9.1-8.6c-1.6-2.5-2.7-4.6-2.9-6.1c-0.2,0.7-0.3,1-0.3,1.4c-0.6-0.4-1.5-1.2-1.7-2.2
	c0,0-0.1,1-0.2,2.2c-0.6-0.3-1.4-0.8-1.5-1.3c0,0-0.4,0.9-0.1,2c-0.3-0.1-0.6-0.2-0.9-0.3c-0.1-1-0.1-2-0.1-3.1
	C8.2,10.3,8,11.3,7.8,12.3"/>
</svg>
