<?xml version="1.0" encoding="utf-8"?>
<!-- Generator: Adobe Illustrator 27.9.0, SVG Export Plug-In . SVG Version: 6.00 Build 0)  -->
<svg version="1.1" id="Layer_1" xmlns="http://www.w3.org/2000/svg" xmlns:xlink="http://www.w3.org/1999/xlink" x="0px" y="0px"
	 viewBox="0 0 100 100" style="enable-background:new 0 0 100 100;" xml:space="preserve">
<g>
	<g>
		<path d="M43.1,24.3C43.1,24.3,43,24.4,43.1,24.3L43,25.3c0,0,0,0,0.1,0V24.3z M42.5,29.6c0-0.3,0.1-0.5,0.1-0.7c0,0,0,0-0.1,0
			c-0.1,0.2-0.2,0.4-0.3,0.6C42.3,29.6,42.4,29.6,42.5,29.6 M50.6,11.8C50.6,11.8,50.6,11.8,50.6,11.8c-0.4-0.3-0.7-0.3-1.1-0.1
			C49.8,11.7,50.2,11.8,50.6,11.8 M43.6,20.5C43.6,20.6,43.6,20.6,43.6,20.5c0.2-0.6,0.4-1.3,0.5-1.9c0,0-0.1,0-0.1,0
			C43.8,19.2,43.7,19.9,43.6,20.5 M74.8,74.1c0.1-0.1,0.1-0.2,0.2-0.3c1-1.3,2-2.7,3.1-4c0.2-0.2,0.3-0.4,0.1-0.7
			C78,68.9,78,68.6,78,68.4c-0.1-0.4-0.1-0.8,0.1-1.2c0.1,0.1,0.2,0.2,0.2,0.3c0.2,0.4,0.5,0.5,1,0.5c0.2,0,0.5-0.1,0.7-0.1
			c0.6-0.1,1.3-0.2,1.8-0.3c-0.3-0.2-0.6-0.4-1-0.5C80.7,67,80.6,67,80.4,67c-0.3-0.1-0.6-0.1-0.8-0.3c-0.2-0.3-0.6-0.4-0.9-0.5
			c-0.1,0-0.2-0.1-0.3-0.1c-1.5-0.8-3.1-1.6-4.6-2.4c-0.2-0.1-0.4-0.1-0.6-0.1c-0.6,0-0.9-0.2-1-0.8c0-0.1-0.2-0.2-0.3-0.3
			c-0.1-0.1-0.2-0.2-0.3-0.3c-0.1-0.1-0.1-0.2-0.2-0.2c-0.5-0.3-0.8-0.7-1.2-1c-0.1-0.1-0.2-0.1-0.2-0.1c-0.1-0.1-0.2-0.1-0.2-0.2
			c-0.3-0.3-0.5-0.5-0.8-0.8c-0.1-0.1-0.1-0.1-0.2-0.2c-0.1-0.1-0.2-0.3-0.3-0.3c-0.3-0.1-0.4-0.3-0.2-0.6c0-0.1,0.1-0.3,0-0.4
			c-0.3-0.3-0.6-0.7-1-1c-1.1-0.7-1.8-1.8-2.1-3c-0.2-0.7-0.4-1.4-0.8-2c-0.1-0.3-0.2-0.6-0.4-0.9c0-0.1-0.1-0.2-0.2-0.2
			c-0.5-0.3-0.7-0.7-0.3-1.2c0.1-0.2,0.1-0.3,0.1-0.4c-0.3-1-0.7-2-1-2.9c-0.1-0.2-0.1-0.4-0.2-0.6c-0.1,0.1-0.1,0.2-0.1,0.3
			c-0.1,0.4-0.2,0.9-0.4,1.3c-0.3,0.4-0.4,0.9-0.5,1.4c0,0,0,0.1,0,0.1c-0.4,1-0.7,2.1-1.1,3.1c-0.6,1.5-0.9,3-0.8,4.6
			c0.1,1.7,0.2,3.3,0.3,5c0,0.4,0.1,0.8,0.4,1.1c0.4,0.5,0.6,1.1,0.9,1.7c0.1,0.2,0.1,0.3,0.2,0.5c0.6,1.5,1.2,2.9,1.8,4.4
			c0.1,0.2,0.2,0.4,0.3,0.7c0.2-0.5,0.4-0.4,0.7-0.3c0.6,0.3,1.2,0.6,1.8,1c2.5,1.6,5.1,3.2,7.6,4.8c0.1,0.1,0.2,0.1,0.3,0.2
			c0.3-0.4,0.6-0.9,1-1.3L74.8,74.1z M43.5,56C43.5,55.9,43.4,55.9,43.5,56c0-1.4-0.5-2.7-1-3.9c-0.3-0.6-0.5-1.2-0.8-1.8l-0.3-1.2
			c0-0.3-0.1-0.5-0.1-0.8c0-0.2-0.1-0.3-0.1-0.5c-0.1-0.3-0.3-0.6-0.4-1c-0.1-0.3-0.1-0.7-0.1-1.1c-0.5,1.3-1,2.6-1.5,3.8l0,0.8V51
			c-0.2,0-0.5,0-0.7,0C38,51,38,51.1,38,51.3c0,0.8,0,1.7-0.2,2.5c-0.3,1.4-0.9,2.5-2.1,3.2c-0.1,0-0.1,0.1-0.2,0.1
			c0,0.1,0.1,0.1,0.1,0.2c0.3,0.8,0.4,0.8-0.3,1.4c-0.4,0.4-0.9,0.7-1.5,0.9c-1.2,0.6-2.3,1.3-3.3,2.1c-0.8,0.6-1.6,1.1-2.4,1.6
			c-0.2,0.2-0.4,0.3-0.5,0.6c-0.2,0.7-0.7,1-1.6,0.9c-0.3,0.5-0.7,0.7-1.3,0.7c-0.2,0-0.4,0.1-0.6,0.2c-0.3,0.1-0.5,0.4-0.7,0.5
			c-0.7,0.1-1,0.7-1.6,0.9c0.8,0.2,0.8,0.2,0.8,0.9c0,0.4,0.1,0.5,0.5,0.6c0.2,0,0.4,0.1,0.6,0.4c0.2,0.5,0.5,0.9,0.8,1.3
			c1,1.7,2.1,3.3,3.3,4.9c0.2,0.3,0.5,0.5,0.6,0.7c1.6-1,3.1-2,4.6-3c1.8-1.1,3.7-2.1,5.6-3.1c0.3-0.1,0.6-0.4,0.8,0.1
			c0.1-0.2,0.2-0.3,0.3-0.4c0.1-0.1,0.1-0.2,0.1-0.3c-0.1-0.4,0-0.7,0.2-1c0.5-0.9,1-1.8,1.5-2.7c0.1-0.1,0.1-0.2,0.2-0.3
			c0.2-0.9,0.6-1.6,1.1-2.3c0.1-0.1,0.1-0.2,0.1-0.2c0.1-1.4,0.2-2.8,0.4-4.2c0-0.5,0.1-0.9,0.1-1.4L43.5,56z M12.1,57.7
			c0.5,0.6,0.9,1.2,1.4,1.8c0.4,0.5,0.8,0.9,1.3,1.4c0,0,0.1,0.1,0.2,0c1.5-0.3,2.7,0.2,3.8,1.2c0.1,0.1,0.2,0.1,0.3,0.2
			c0.2,0.1,0.3,0.2,0.5,0c0.3-0.3,0.8-0.3,1.2-0.4c0.2,0,0.3-0.1,0.4-0.2c0.2-0.2,0.4-0.4,0.7-0.5c0.1,0,0.1-0.1,0.2-0.2
			c0.2-0.4,0.4-0.7,0.8-0.9c0.1,0,0.1-0.1,0.1-0.2c0.1-0.8,0.6-1.2,1.4-1.3c0.2,0,0.4-0.3,0.5-0.5c0-0.1,0.1-0.3,0.2-0.4
			c0.2-0.2,0.4-0.3,0.6-0.5c0.1,0,0.1-0.2,0.1-0.2c0-0.3,0.1-0.4,0.4-0.4c0.3,0,0.4-0.2,0.6-0.5c0.1-0.1,0.2-0.3,0.3-0.3
			c0.4-0.1,0.6-0.3,0.7-0.7c0-0.1,0.1-0.2,0.2-0.2c0.4-0.1,0.6-0.4,0.8-0.7c0-0.1,0.2-0.2,0.3-0.2c0.3-0.1,0.5-0.3,0.7-0.6
			c0-0.1,0.1-0.1,0.2-0.2c0.1-0.1,0.3-0.2,0.4-0.3c0,0,0.1-0.1,0.1-0.1c0.6-0.1,1-0.5,1.2-1c0.1-0.2,0.3-0.3,0.5-0.3
			c0.2,0,0.3-0.1,0.2-0.3c0-0.2,0-0.4,0-0.6c0-0.2,0.1-0.4,0.2-0.6c0.1-0.3,0.1-0.6-0.1-0.9c-0.4-0.6-0.1-1.4,0.5-1.8
			c0.1-0.1,0.2-0.2,0.2-0.3c0.1-0.3,0.2-0.5,0.1-0.8c0-0.1,0-0.3,0.1-0.4c0.3-0.2,0.4-0.5,0.3-0.9c0-0.1,0.1-0.3,0.2-0.4
			c0.3-0.2,0.3-0.4,0.3-0.8c0-0.1,0.1-0.3,0.2-0.4c0.3-0.2,0.4-0.5,0.3-0.8c0-0.1,0.1-0.3,0.2-0.4c0.4-0.4,0.6-0.8,0.6-1.3
			c0.1-1.1,0.3-2.3,0.8-3.3c0.2-0.5,0.4-0.9,0.5-1.4c0,0,0-0.1,0-0.1c-0.4,0.1-0.6-0.1-0.6-0.5c0-0.5,0-0.5-0.5-0.5
			c-0.5,0-0.9-0.1-1.4-0.2c0.1-1,0.3-1.9,0.8-2.8c0.6-1.1,1.6-1.7,1.6-1.7c1.3-0.9,2.8-1.2,4.4-1.1c0.3,0,0.5,0,0.8,0.1
			c0.2,0,0.3,0,0.3-0.2c0.4-0.9,0.7-1.9,0.9-2.9c0-0.2,0-0.4,0-0.6c0-0.4-0.1-0.9-0.1-1.3c0.1-1,0.2-1.9,0.3-2.9
			c0.3-1.9,0.6-3.9,1.3-5.7c0.3-0.8,0.7-1.6,1.3-2.2c0.1-0.1,0.2-0.2,0.2-0.3c0.3-0.6,0.8-0.9,1.3-1.2c0.6-0.2,1.1-0.5,1.7-0.7
			c0.6-0.2,1.1-0.2,1.7,0.1c0.2,0.1,0.5,0.2,0.7,0.1c2.1-0.6,3.8,0.3,5.3,1.7c1.1,1.1,1.6,2.5,1.8,4c0,0.1,0,0.2,0,0.2
			c0,0.1,0,0.2,0,0.2l-0.3-1.4c0,0,0,0,0,0c0.5,2.6,0.9,5.2,1.4,7.9l0.1,3.6c0,0,0,0.6,0.1,0.6c0.1,0.2,0.2,0.5,0.3,0.7
			c0.1,0.2,0.2,0.3,0.4,0.2c0.2-0.1,0.4-0.1,0.6,0c0.7,0.2,1.4,0.1,2-0.3c0.1-0.1,0.2-0.1,0.3-0.1c1.4,0,2.6,0.6,3.5,1.7l0.9,1.4
			c0.2,0.5,0.3,1,0.5,1.5c0.1,0.3,0.1,0.7,0.2,1.1c0,0.1-0.1,0.2-0.2,0.3c-0.3,0.1-0.6,0.1-0.8,0.1c-0.1,0-0.3,0-0.5,0
			c0,0.4-0.1,0.8-0.4,1.1c-0.1,0-0.1,0.2-0.1,0.2c0.1,0.4,0,0.8,0.3,1.2c0.2,0.2,0.2,0.6,0.3,0.9c0.1,0.3,0.1,0.5,0.2,0.8
			c0,0.1,0.1,0.1,0.1,0.1c0.2,0.1,0.3,0.3,0.2,0.5c-0.1,0.3,0,0.5,0,0.6c0.2,0.1,0.3,0.2,0.4,0.3c0.1,0.1,0.1,0.3-0.1,0.5
			c0,0,0,0.1,0,0.2c0,0.1,0.1,0.3,0.1,0.5c0.2-0.1,0.4-0.1,0.4,0.2c0.1,0.2,0,0.4-0.2,0.4c0.1,0.2,0.1,0.3,0.2,0.5
			c0,0.1,0.1,0.1,0.1,0.1c0.4,0.1,0.4,0.3,0.2,0.6c-0.1,0.2,0.1,0.5,0.2,0.6c0.2,0.2,0.3,0.4,0.2,0.6c-0.1,0.2,0,0.5,0.2,0.7
			c0.1,0.1,0.2,0.4,0.2,0.5c-0.2,0.3,0,0.5,0.1,0.8c0,0,0.1,0.1,0.1,0.1c0.7,0.3,1.1,1.1,0.7,1.8c-0.1,0.2-0.1,0.4,0,0.6
			c0.2,0.5,0.5,1.1,0.4,1.7c0,0.1,0.2,0.3,0.2,0.4c0.1,0.2,0.3,0.5,0.4,0.7c0.2,0.3,0.4,0.6,0.6,0.8c0,0,0.1,0.1,0.1,0.1
			c0.3-0.1,0.4,0.1,0.5,0.2c0.4,0.1,0.5,0.5,0.8,0.7c0.1,0.1,0.2,0.1,0.3,0.2c0.1,0.1,0.2,0.1,0.2,0.2c0.2,0.3,0.4,0.6,0.8,0.7
			c0.1,0,0.1,0.1,0.2,0.2c0.1,0.4,0.4,0.6,0.7,0.7c0.1,0,0.1,0.1,0.1,0.1c0.1,0.3,0.3,0.4,0.5,0.4c0.3,0.1,0.6,0.3,0.7,0.7
			c0,0.1,0.1,0.2,0.2,0.3c1.2,1.2,2.4,2.3,3.6,3.4c0.3,0.3,0.6,0.6,0.8,0.9c0.1,0.1,0.1,0.1,0.2,0.1c0.4,0.1,0.7,0.3,0.9,0.7
			c0.2,0,0.5,0,0.7,0c0.1,0,0.2-0.1,0.3-0.2c0.8-0.7,1.6-1.3,2.6-1.4c0.2,0,0.4-0.1,0.7,0c0.3,0,0.5-0.1,0.6-0.3
			c0.6-0.7,1.2-1.3,1.7-1.9c0.1-0.1,0.1-0.2,0.1-0.3c0.1-0.3,0.1-0.7,0.2-1c0.1-0.3,0.3-0.6,0.8-0.5c0-0.4,0.2-0.3,0.5-0.4
			c-0.1,0.2-0.1,0.3-0.2,0.4h0.4c0-0.1,0-0.3,0-0.4c0.2,0,0.3,0,0.5,0c0,0.1,0,0.2,0,0.4h0.4c-0.1-0.1-0.1-0.2-0.2-0.2
			c0.3,0,0.6,0.2,0.8,0.4c0.5,0.6,0.6,1.2,0.3,1.9c-0.3,0.7-0.9,1.1-1.6,1.2c-0.1,0-0.3,0.1-0.4,0.2c-0.6,0.7-1.1,1.4-1.7,2.1
			c-0.1,0.1-0.1,0.3-0.1,0.4c0.1,0.5,0.3,0.9,0.3,1.4c0.1,0.4,0,0.9-0.3,1.1c-0.3,0.2-0.5,0.5-0.7,0.8c-0.2,0.4-0.5,0.5-1,0.5
			c-0.2,0.6-0.5,1.1-1.2,1.1c-0.2,0.7-0.5,0.9-1.2,0.9c-0.1,0-0.2,0-0.2,0c-0.5-0.2-0.8,0.1-1.1,0.5C84,69.4,84,69.5,84,69.7
			c0.1,0.5,0,1,0,1.5c0,0.3,0,0.7,0,1c0,0.4,0.2,0.6,0.6,0.7c0.1,0,0.2,0.1,0.3,0.2c0,0,0,0.1,0,0.1c-0.2,0.1-0.4,0.2-0.6,0.2
			c-0.4,0-0.9,0-1.3-0.1c-0.1,0-0.3,0-0.3,0.1c-1.5,1.6-3.1,3.2-4.6,4.9c0,0,0,0.1-0.1,0.1c0.4,0.2,0.9,0.4,1.3,0.6
			c1.7,0.6,3.1,1.5,4.1,3.1c1,1.7,1.2,3.5,0.6,5.3c-0.6,1.6-1.9,2.4-3.5,2.8c-1.3,0.3-2.6,0.2-3.8-0.2c-0.5-0.1-0.9-0.3-1.3-0.7
			c-0.1-0.1-0.4-0.1-0.6-0.1c-0.3,0-0.4,0-0.6-0.2C73.9,89,73.7,89,73.5,89c-0.1,0-0.3,0-0.4-0.1c-0.5-0.4-1.1-0.4-1.6-0.6
			c-0.8-0.3-1.7-0.5-2.5-0.8c-0.2-0.1-0.3,0-0.5,0.1c-1.1,0.9-2.2,1.9-3.4,2.8c-0.5,0.4-1,0.6-1.5,0.9c-0.1,0-0.1,0.1-0.2,0.1
			c0.5-1.8,1.4-3.3,2.4-4.8c-2.3-0.8-4.5-1.6-6.7-2.8c-0.1,0.3-0.1,0.5-0.1,0.6c-0.1,0.5-0.3,1-0.2,1.6c0,0.2-0.1,0.4-0.2,0.6
			c-0.1,0.1-0.1,0.2-0.2,0.4c0.3,0.2,0.3,0.5,0.2,0.7c-0.2,0.3-0.1,0.7,0.1,1c0.2,0.4,0.5,0.7,0.7,1.1c0.1,0.1,0.2,0.1,0.3,0.2
			c0.1,0.1,0.2,0.2,0.4,0.3c0.1,0,0.1,0.1,0.2,0.1c0.4,0.1,0.6,0.3,0.8,0.6c0.1,0.2,0.2,0.3,0.4,0.4c0.9,0.1,1.7,0.3,2.6,0.5
			c0.3,0.1,0.6,0.1,0.6,0.4c0.1,0.4,0,0.7-0.3,1c-1,0.8-2.2,1.2-3.5,1.2c-1.6,0-3.2-0.1-4.8-0.3c-0.8-0.1-1.4-0.6-1.7-1.3
			c-0.6-1.5-1.2-3.1-1.7-4.7c-0.2-0.6-0.1-1.3,0.1-1.9c0.1-0.4,0.2-0.9,0.3-1.3c0.1-0.2,0-0.3-0.2-0.4c-1.2-0.6-1-0.2-1.1-1.6
			c-0.1-0.9,0-1.7,0-2.6c0-0.5,0-0.5,0.4-0.8h-1.4c0.5,0.4,0.5,0.4,0.5,1.1c0,1-0.1,2-0.1,3c0,0.3-0.1,0.4-0.4,0.5
			c-0.2,0.1-0.4,0.2-0.6,0.2c-0.2,0.1-0.4,0.2-0.3,0.4c0,0.4,0,0.8,0.1,1.1c0.2,0.8,0.2,1.6,0,2.4c-0.4,1.3-0.7,2.6-1.1,3.9
			c-0.1,0.4-0.3,0.7-0.5,1c-0.3,0.5-0.9,0.8-1.5,0.9c-1.7,0.2-3.5,0.4-5.3,0.3c-1.1-0.1-2.1-0.5-3-1.1c-0.4-0.3-0.5-0.8-0.3-1.3
			c0.2-0.6,0.7-0.7,1.2-0.7c0.6,0,1.2,0,1.7,0.1c0.3,0,0.5-0.1,0.6-0.3c0.2-0.3,0.5-0.5,1-0.6c0-0.2-0.1-0.3-0.1-0.4
			c-0.1-0.3,0-0.3,0.3-0.3c0.1,0,0.2,0.1,0.3,0.1c0.2,0.1,0.3,0,0.3-0.2c-0.1-0.4,0.1-0.7,0.2-1c0.2-0.4,0.3-0.9,0.1-1.4
			c-0.1-0.3,0-0.4,0.3-0.3c0-0.1-0.1-0.2-0.1-0.3c-0.3-0.4-0.2-0.9-0.2-1.3c0-0.4-0.1-0.8-0.1-1.2c-1.5,0.5-3,1-4.5,1.5
			c1.2,1.2,2.7,2,3.9,3.2c0,0,0,0.1,0,0.1c-0.5-0.1-0.9-0.1-1.4-0.3c-1.8-0.5-3.5-1.2-5.2-2c-0.2-0.1-0.3-0.1-0.5,0
			c-1,0.6-2,0.9-3.1,1.1c-0.9,0.2-1.8,0.4-2.7,0.6c0,0-0.1,0-0.1,0c-0.4,0.2-0.8,0.3-1.3,0.4c-0.4,0.1-0.8,0.3-1.3,0.3
			c-0.1,0-0.2,0-0.2,0.1c-0.4,0.4-0.9,0.6-1.5,0.7c-1.8,0.5-3.6,0.4-5.3-0.5c-1.1-0.6-1.8-1.5-2-2.7c-0.4-1.6-0.3-3.1,0.5-4.5
			c0.4-0.7,1-1.4,1.4-1.7l0.9-0.7c0.2-0.1,0.3-0.2,0.5-0.3c0.2-0.1,0.5-0.3,0.7-0.4c0.4-0.2,0.8-0.4,1.4-0.3c0.2,0.1,0.5,0,0.8,0
			c-0.1-0.3-0.1-0.6-0.1-0.8c0,0-0.1,0.1-0.1,0.1l-2.8-2.1c-0.6-0.5-1.1-1-1.7-1.5l-1-0.9c-0.7-0.8-1.5-1.5-2.2-2.3
			c-0.7-0.8-0.7-1,0.1-1.7c0.4-0.4,0.6-0.7,0.4-1.3c-0.6,0.1-1.1-0.1-1.2-0.7c-0.7,0.1-1.1-0.3-1.3-0.9c-0.6-0.1-1.2-0.6-1.2-1.1
			c-0.2-0.1-0.4-0.2-0.6-0.3c-0.5-0.4-0.6-0.9-0.5-1.5c0-0.1,0.1-0.3,0.1-0.4c0.1-0.2,0.2-0.4,0.2-0.6c0-0.2-0.3-0.3-0.4-0.4
			c-0.3-0.3-0.6-0.7-0.9-1c-0.3-0.3-0.5-0.7-0.7-1c-0.3-0.3-0.6-0.6-0.9-1c-0.4-0.5-0.8-1.1-1.3-1.7c-0.1-0.1-0.2-0.2-0.3-0.2
			c-0.5-0.1-0.9-0.2-1.3-0.6L7,56.9c-0.4-0.2-0.5-1.1-0.1-1.3c-0.1,0-0.2-0.1-0.3-0.1c0.1-0.5,0.2-1,0.7-1.3
			c0.3-0.2,0.5-0.4,0.8-0.6c0.2-0.1,0.3-0.1,0.5,0.1c0.4,0.7,1.1,0.9,1.9,0.8c0.2,0,0.3,0,0.4,0.2c0.1,0.3,0.1,0.6,0.2,0.9
			c0,0.3,0,0.6,0,0.8c0,0.3,0.2,0.6,0.5,0.6c0.1,0,0.2,0.1,0.4,0.1L12.1,57.7z"/>
	</g>
</g>
</svg>
