<?xml version="1.0" encoding="utf-8"?>
<!-- Generator: Adobe Illustrator 27.9.0, SVG Export Plug-In . SVG Version: 6.00 Build 0)  -->
<svg version="1.1" id="Layer_1" xmlns="http://www.w3.org/2000/svg" xmlns:xlink="http://www.w3.org/1999/xlink" x="0px" y="0px"
	 viewBox="0 0 100 100" style="enable-background:new 0 0 100 100;" xml:space="preserve">
<g>
	<path d="M65.7,13.5c0.1,0.1,0.2-0.1,0.2-0.2s0-0.2,0-0.2l-0.2-0.2c0,0,0.1,0.2,0.2,0.2C66,13.2,66,13,66,13l-0.2-0.3
		c0,0,0.2,0.2,0.3,0.2c0.1,0.1,0.1-0.2,0.1-0.2l-0.2-0.5c0,0,0.2,0.2,0.3,0.3c0.2,0.1,0.2,0,0.2-0.1s0-0.2,0-0.2l0.2,0.1
		c0,0,0.1,0.1,0.1-0.1V12l0.1,0.1c0,0,0.1,0.2,0.2,0c0-0.2,0-0.2,0-0.2s0,0.1,0.1,0.2c0.1,0.1,0.2,0.1,0.4-0.1
		c0.1-0.2,0-0.2,0.1-0.2c0.1,0,0.1,0,0.2,0c0.1,0,0.1,0,0.2,0.1c0.1,0.1,0.1,0.1,0.2,0.2s0.1,0.2,0.1,0.2s0,0.2,0.1,0.2
		c0.1,0,0.1,0.1,0.2,0.2c0,0.2,0,0.1,0,0.2s0,0.1,0,0.2s0,0.3,0,0.4s-0.1,0.2-0.2,0.2c0,0,0,0.1,0,0.2c0,0.2-0.1,0.5-0.2,0.5
		c-0.2,0.1-0.2,0.5-0.2,0.5c0,0.2,0.1,0.5,0.1,0.5l0.6-0.2c0,0-0.5,0.2-0.5,0.2c-0.1,0-0.1,0.2-0.1,0.2l0.3,0.2l-0.3,0.1v0.2
		l0.3,0.1h-0.5l-0.1,0.3c0,0.1,0.2,0.2,0.1,0.2c-0.1,0-0.4-0.2-0.4-0.2l-0.2,0.2l0.2,0.3c-0.1,0-0.4-0.2-0.4-0.2l0.2,0.5l-0.3-0.2
		l-0.2,0.1c0,0,0.4,0.5,0.3,0.5c-0.1,0-0.3-0.3-0.3-0.3v0.2c0,0,0.3,0.4,0.2,0.3c-0.1,0-0.4-0.5-0.5-0.5S65.8,17,65.8,17l-0.1-0.2
		l-0.2-0.1v0.2l-0.2-0.3h-0.2l0.2,0.5l-0.2-0.5c0,0.1-0.1,0.2-0.1,0.2l-0.1-0.3h-0.2v0.4l-0.4-0.5l-0.2-0.1l-0.1,0.8l-0.1-0.5
		c0,0-0.1,0-0.2-0.1c0-0.1,0-0.2,0-0.2l-0.2-0.1l0.3,0.8l-0.3-0.5l-0.1,0.2V17l-0.1-0.5h-0.3v0.3l-0.2-0.2c0,0-0.1,0-0.2,0.2
		c0,0.2-0.1,0.2-0.2,0.2c-0.2,0-0.2,0-0.2,0c0,0.1,0.5,0.5,0.5,0.5l-0.4-0.2h-0.4l0.1,0.4l0.2,0.2c0,0-0.3-0.2-0.4-0.3
		c-0.1-0.1-0.2-0.1-0.2-0.1v0.3l-0.3-0.5c0,0-0.2-0.1-0.2,0c-0.1,0,0.1,0.2,0,0.2s-0.2-0.2-0.2-0.2s-0.2-0.1-0.2-0.1
		c-0.1,0,0,0.2-0.2,0.2s-0.2,0.2-0.2,0.2l0.6,0.7l-0.6-0.6l0.4,0.5c0,0-0.4-0.3-0.5-0.4c-0.1-0.1-0.2,0.1-0.4,0.3s0,0.4-0.1,0.8
		C60.2,19,60.1,19.4,60,20c-0.1,0.5-0.2,1.2-0.2,1.4s0,0.1,0,0.2s0,0.2-0.1,0.2c-0.1,0.2-0.1,0.2-0.1,0.3c0,0.1,0,0.3-0.2,0.5
		c-0.1,0.2-0.1,0.3-0.2,0.5c-0.1,0.2,0,0.2-0.1,0.3c0,0.2-0.2,0.2-0.2,0.2s-0.1,0.2-0.1,0.3s0,0.2-0.1,0.4c-0.1,0.2-0.2,0.4-0.2,0.5
		c-0.1,0.2,0.1,0.2,0,0.3c-0.1,0.2-0.1,0.1-0.1,0.2c0,0.2,0.1,0.2-0.1,0.2c-0.1,0.1-0.1,0.2-0.1,0.3c0,0.2,0.1,0.2,0,0.3
		c-0.1,0.2-0.2,0.2-0.1,0.2c0,0.1,0,0.2,0,0.2s-0.2,0.1-0.1,0.2c0.1,0.1,0,0.1,0,0.2c-0.1,0.1-0.1,0.1,0,0.2c0.1,0.1,0,0.2-0.1,0.2
		s-0.1,0.2-0.1,0.4s0.1,0.2,0,0.2c-0.2,0-0.1,0.2-0.1,0.2s0.1,0.1-0.1,0.2c-0.2,0.1,0,0.2,0,0.4c-0.1,0.2-0.1,0.2-0.2,0.2
		c-0.1,0-0.2,0-0.1,0.1c0.1,0.1,0.1,0,0,0.2s-0.1,0.2-0.1,0.3c0,0.2,0.1,0.1,0,0.2s-0.1,0.2-0.2,0.4c-0.1,0.2,0,0.2,0,0.2l0.6,0.1
		h-0.7l-0.1,0.3l0.3,0.2c0,0-0.3-0.2-0.4-0.1s-0.2,0.2-0.2,0.4s0.2,0.1,0.2,0.1l0.3-0.1c0,0-0.6,0-0.6,0.1c0,0.1,0,0.2-0.1,0.2
		C57,31.3,57,31.3,57,31.3c0.1,0.1,0.2,0.2,0,0.2c-0.1,0.1-0.2,0-0.2,0.2s0.2,0.2,0,0.3c-0.2,0.2-0.2,0-0.2,0.2
		c0.1,0.2-0.2,0-0.2,0.1c0,0.1-0.1,0.2,0,0.3c0.1,0.1,0.2,0.2,0.2,0.2s-0.1,0.1-0.1,0.2c0,0.1,0.1,0.2,0.2,0.2c0.1,0,0.1,0.1,0.2,0
		s0-0.1,0.2-0.1c0.2,0,0.2-0.1,0.2-0.2c0-0.1,0-0.2,0-0.2l0.1,0.1v-0.4l0.2,0.1l0.2-0.2L57.5,32h0.3v-0.2H58l0.1-0.2h0.2
		c0,0-0.1-0.2,0-0.2s0.2,0,0.2-0.2c0-0.1-0.1-0.1,0.1-0.1c0.2-0.1,0.2,0,0.2-0.1v-0.2l0.2,0.1c0,0,0-0.1,0-0.2s0.1-0.2,0.1-0.2
		s0.2,0,0.2-0.2v-0.2h0.2c0,0,0.1-0.2,0.1-0.2c0-0.2,0-0.2,0-0.2h0.2c0,0-0.1,0-0.1-0.2v-0.2h0.2c0,0,0,0,0-0.2c0-0.2,0-0.2,0-0.2
		l0.2-0.2c0,0,0.2,0,0.2-0.1s0.1-0.1,0-0.2c-0.1-0.1,0-0.2,0-0.2h0.2c0,0,0,0,0.1-0.2c0.1-0.2,0.1-0.2,0.1-0.2s0.1,0,0.1-0.2v-0.1
		l0.2-0.1c0,0,0,0,0-0.2s0-0.2,0-0.2h0.2c0,0,0.1,0,0-0.2c-0.1-0.1,0-0.2,0-0.2s0.2,0,0.2-0.2c0.1-0.2,0-0.2,0-0.2l0.2-0.1v-0.2
		c0,0,0.2,0,0.2-0.1c0.1-0.2,0.1-0.2,0.2-0.2c0.1-0.1,0-0.1,0.2-0.2c0.1,0,0.1-0.2,0.2-0.2c0.1-0.2,0.1-0.2,0.2-0.2
		c0.1,0,0.1,0,0.1-0.1c0-0.2,0-0.3,0-0.3s0.1,0,0.2-0.1c0.2-0.1,0.1-0.1,0.1-0.2c0-0.2,0.1-0.2,0.1-0.2s0.1,0.1,0.2-0.1
		c0.1-0.2,0.1-0.2,0.1-0.3s0.1,0,0.1-0.1s0.1-0.1,0.1-0.1h0.2v-0.3l0.2,0.1l0.1-0.2l0.1-0.1v-0.2h0.2c0,0,0.1,0,0.1-0.1
		c0-0.2,0-0.2,0-0.2h0.2c0,0,0.3-0.3,0.8-0.8c0.5-0.4,0.3-0.3,0.5-0.5c0.2-0.1,0.2-0.2,0.3-0.2c0.2-0.1,0.3-0.1,0.3-0.1
		s0.1-0.1,0.2-0.1c0,0,0.2-0.2,0.4-0.4c0.2-0.2,0.5-0.3,0.8-0.5c0.6-0.2,0.8-0.2,0.9-0.3c0.2-0.1,0.5-0.2,0.5-0.2l0.1-0.3
		c0,0,0,0.1,0,0.2c0,0.2,0,0.2,0.2,0.2c0.2,0,0.3,0,0.5,0c0.2,0,0.4,0,0.5,0.1c0.1,0.1,0.2,0.1,0.2,0.1c0.1,0,0.2,0.1,0.2,0.2
		s0.1,0.2,0.2,0.1c0.1-0.1,0.1-0.2,0.1-0.2s0,0.1,0.1,0.2c0,0.1,0,0.2,0.1,0.2l0.1-0.1c0,0-0.1,0.2,0,0.2c0,0.1,0.1,0.2,0.2,0.2
		c0.1,0,0.2,0,0.2-0.2c0-0.2,0.1-0.3,0.1-0.3s-0.1,0.3,0.1,0.3c0.1,0,0.2-0.2,0.2-0.2l0.2-0.2c0,0,0,0.2-0.2,0.2s-0.4,0.2-0.4,0.3
		s0,0.2,0,0.2s0.1,0.1,0.2,0c0.2,0,0.2-0.1,0.2-0.1s0.5-0.2,0.5-0.2s-0.2,0.2-0.3,0.2c-0.1,0.1-0.2,0.1-0.2,0.2s0,0.2,0.2,0.2
		c0.1,0,0.3-0.1,0.4-0.1c0.1,0,0.8-0.1,0.8-0.1s-0.6,0.2-0.7,0.2c0,0.1,0.1,0.1,0.2,0.2c0.1,0.1,0.1,0.1,0.2,0.2
		c0.1,0.1,0.1,0.2,0.2,0.1s0.2-0.1,0.2-0.1l0.2-0.2c0,0-0.2,0.1-0.2,0.2c0,0.1,0,0.2,0.2,0.1c0.2,0,0.3-0.1,0.3-0.1
		s-0.2,0.1-0.2,0.2c0,0.2,0.2,0.2,0.3,0.2c0.1,0,0.2,0.2,0.2,0.2s0,0.1,0.2,0.1s0.3,0,0.3,0s-0.2,0-0.1,0.2c0.1,0.2,0.1,0.2,0.2,0.2
		c0.1,0,0,0,0.2,0c0.1,0.1,0.2,0.1,0.2,0s0-0.2,0-0.2l0.1,0.3l0.2,0.1c0,0,0-0.2,0.1-0.2s0.2-0.2,0.2-0.2s-0.3,0.2-0.2,0.3
		c0.1,0.2,0.2,0.1,0.2,0.1s0-0.2,0.1-0.3c0.1-0.2,0.2-0.2,0.2-0.2s-0.2,0.2-0.1,0.4c0,0.2,0.2,0.2,0.3,0.2c0.1,0,0,0,0.2,0
		s0.2,0,0.2,0.1c0.1,0,0.3,0.1,0.5,0.1h0.2c0,0,0.2-0.2,0.2-0.2c0.1,0,0.1,0,0.1,0s-0.2,0.1-0.2,0.2c0,0.2,0.3,0.2,0.3,0.2
		c0.1,0,0.2-0.4,0.3-0.5c0.1-0.1,0.5-0.7,0.5-0.7s-0.2,0.3-0.3,0.5c-0.2,0.3-0.2,0.5-0.3,0.5c0.5,0.1,0.5,0.2,0.5,0.2s0.2,0,0.4-0.1
		c0.2-0.1,0.2-0.1,0.3-0.1c0.1,0,0.6-0.3,0.6-0.3s-0.6,0.4-0.7,0.5s-0.1,0.2,0.1,0.2c0.1,0,0.2,0,0.2,0c0.1-0.1,0.1-0.1,0.2-0.1
		s0.1,0.1,0.2,0l0.2-0.2c0,0-0.2,0.1-0.1,0.2c0.1,0.2,0.2,0.2,0.2,0.1c0.2-0.1,0.2-0.5,0.2-0.5s-0.1,0.3,0,0.4
		c0.1,0.1,0.2,0.1,0.2,0c0.3,0,0.3-0.1,0.3-0.1s0.1,0,0.2-0.1c0.1-0.1,0.2-0.2,0.2-0.2s-0.2,0.5-0.2,0.5s0.3,0,0.4-0.1
		s0.1-0.2,0.1-0.3s-0.1-0.2-0.1-0.2s0.1,0.2,0.2,0.3c0.1,0.2,0.2-0.1,0.2-0.1l-0.1-0.5c0,0,0,0.4,0.2,0.4c0.2,0.1,0.1-0.1,0.2-0.1
		c0.2,0,0.1,0,0.1-0.1c0-0.2,0-0.2,0.2-0.2c0.1-0.2,0.2-0.2,0.2-0.2l0.1,0.2c0,0,0.1-0.1,0.1-0.2v-0.2l0.2,0.1c0,0,0.1,0.1,0.1-0.2
		v-0.2l0.2-0.1c0,0,0.1,0,0.1-0.1s0-0.1,0.1-0.1c0.2,0,0.2,0.1,0.2-0.1c0.1-0.2,0-0.2,0.2-0.2c0.1,0,0.4-0.1,0.5-0.1
		s0.1,0.1,0.2-0.1c0.1-0.2,0.1-0.2,0.3-0.2c0.2,0,0.2-0.1,0.5-0.1c0.3,0,0.3-0.2,0.5,0c0.2,0.2,0.3,0.3,0.2,0.3
		C84,22,84,22.2,84,22.5c0,0.3,0,0.7-0.5,1.3c-0.5,0.6-0.8,0.9-0.9,1c-0.1,0.1-0.2,0.1-0.2,0.2c0,0.1,0,0.2-0.2,0.2
		c-0.1,0.1-0.1,0-0.2,0.1c-0.1,0.2-0.1,0.2-0.2,0.2c-0.1,0-0.1,0-0.2,0.2c0,0.2,0.1,0.2-0.1,0.2c-0.2,0-0.2-0.1-0.2,0
		c0,0.2,0.1,0.2-0.1,0.2c-0.1,0-0.2,0-0.2,0.1s0.1,0.2,0.2,0.2c0.1,0.1,0.1,0.2,0.1,0.2s-0.2-0.1-0.2-0.2C81,26.1,81,26.1,81,26.1
		s0,0.1,0,0.2c0.1,0.2-0.1,0.3-0.2,0.2c-0.2,0-0.2,0-0.2,0s0.1,0.2,0,0.1c0,0-0.2-0.1-0.2-0.1s-0.2-0.1-0.2,0
		c-0.2,0.2-0.1,0.2-0.2,0.2c-0.2-0.1-0.2,0.1-0.4,0.1s-0.3-0.1-0.3,0s0.2,0.3,0.2,0.3s-0.2-0.2-0.4-0.2c-0.2,0-0.3,0-0.5-0.1
		s-0.2-0.2-0.2-0.2s0.2,0.5,0.2,0.5c-0.1,0-0.2-0.2-0.2-0.2c0-0.1-0.1-0.1-0.2-0.2c-0.1-0.1-0.2-0.1-0.3-0.1c-0.1,0-0.1,0-0.2,0
		c-0.1-0.1-0.1-0.1-0.2-0.2c-0.1-0.2-0.1-0.1-0.1-0.1l-0.2,0.2c0,0,0.1-0.2,0-0.3c-0.1-0.1-0.2-0.2-0.2-0.1v0.3c0,0-0.1-0.1-0.1-0.2
		c-0.1-0.1,0-0.2-0.2-0.2c-0.1,0-0.1,0-0.2-0.1c0-0.1-0.1-0.2-0.1-0.2s-0.2-0.1-0.2,0s0.1,0.5,0.1,0.5s-0.2-0.5-0.2-0.5
		c-0.1,0,0,0.3,0,0.3s0-0.3-0.2-0.3c-0.2-0.1-0.3,0-0.3,0v0.4V26c0,0-0.2,0-0.3,0h-0.2c0,0-0.1,0.3-0.1,0.2v-0.3c0,0-0.2-0.1-0.2,0
		v0.5L75.1,26l-0.1,0.2l-0.3,0.5c0,0,0.2-0.5,0.2-0.7s-0.2-0.2-0.4-0.2c-0.2,0-0.4,0.2-0.5,0.2h-0.2c0,0-0.1,0.1,0.2,0.2
		c0.2,0.1,0.3,0.2,0.3,0.2s-0.3-0.1-0.5-0.2C73.6,26,73.7,26,73.5,26c-0.2,0-0.2,0.1-0.2,0.1s0.1,0.2,0.2,0.4
		c0.1,0.2,0.2,0.2,0.2,0.2s-0.2-0.2-0.3-0.3c-0.2-0.2-0.2-0.2-0.2-0.2h-0.2c0,0,0.2,0.4,0.3,0.5c0.2,0.1-0.1,0-0.3-0.2
		c-0.2-0.2-0.3-0.2-0.4-0.3c-0.1,0-0.2-0.1-0.2-0.1c0,0.1,0.1,0.7,0.1,0.7s0-0.5-0.2-0.6c-0.2-0.1-0.2,0-0.2,0l0.1,0.3
		c0,0-0.2-0.2-0.2-0.4c0-0.2-0.2-0.3-0.3-0.4c-0.1-0.1-0.1-0.1-0.1-0.2c-0.1-0.1-0.1,0-0.2-0.1c0-0.1,0-0.1-0.2-0.2
		c-0.2,0-0.2,0.1-0.2,0S71,25,71,25c0-0.1-0.1-0.1-0.2-0.1l0.1,0.6c0,0-0.2-0.3-0.2-0.5c-0.1-0.2,0-0.2-0.1-0.2
		c-0.1,0-0.1,0-0.2-0.1c-0.1-0.1-0.2-0.1-0.2-0.1c-0.1,0-0.2,0.1-0.2,0.1s0,0.2,0,0.4c0,0.1,0.2,0.6,0.2,0.6S70,25.1,70,25
		c0-0.2,0-0.2,0-0.2c-0.1,0-0.2,0.1-0.2,0.1L69.5,25l0.1,0.8L69.4,25c0,0-0.3,0.1-0.4,0.1c-0.1,0-0.2-0.1-0.1,0
		c0,0.1,0.1,0.3,0.1,0.3s-0.1-0.2-0.2-0.3C68.8,25,68.7,25,68.7,25s0,0.2-0.3,0.7c-0.2,0.5-0.5,1-0.6,1.1s0,0.1-0.1,0.2
		c-0.1,0.2,0,0.2-0.2,0.2c-0.1,0.1-0.2,0-0.2,0.2c0,0.2-0.2,0.3-0.2,0.4s-0.7,0.9-0.8,1.1c-0.1,0.2-0.1,0.2-0.2,0.3
		c-0.1,0.2-0.4,0.4-0.4,0.4s-0.1,0.2-0.2,0.2c-0.2,0.2-0.2,0.2-0.4,0.5c-0.2,0.2-0.1,0.2-0.2,0.3c-0.2,0.2-0.1,0.2-0.2,0.2
		c-0.2,0-0.2,0.2-0.2,0.2c-0.1,0.1,0,0.1-0.1,0.2c-0.2,0.1,0,0.1-0.1,0.3c-0.2,0.3-0.2,0.3-0.3,0.3c-0.2,0.1-0.1-0.1-0.2,0.1
		c-0.1,0.2-0.1,0.2-0.2,0.2c-0.1,0.1-0.1-0.1-0.2,0.1c-0.1,0.2,0,0.2-0.1,0.2c-0.1,0-0.2,0-0.2,0.1c0,0.2,0.2,0.1,0,0.2
		c-0.1,0.1-0.1,0-0.2,0.2c0,0.1,0,0.1-0.2,0.2c-0.1,0-0.3,0.2-0.3,0.3c-0.1,0.2,0,0.2-0.1,0.2s1.1,0,1.1,0s-1.2,0-1.3,0.2
		c-0.1,0.2-0.1,0.2-0.2,0.2C62,33.5,62,33.6,62,33.7l0.8,0.3c0,0-0.9-0.2-0.9-0.1c-0.1,0.2-0.2,0.2-0.2,0.2c0.1,0.1,0.5,0.5,0.5,0.5
		s-0.5-0.3-0.6-0.3c-0.1,0-0.2,0-0.2,0.1c0,0.1-0.2,0.1-0.2,0.1c0,0.2,0,0.2-0.2,0.2c-0.2,0-0.2,0.2-0.2,0.2s0.8,0.5,1.1,0.6
		c0.2,0.1-0.1,0-0.5-0.2c-0.3-0.2-0.6-0.4-0.7-0.3c-0.2,0.2-0.2,0.2-0.2,0.3c-0.1,0.1-0.2,0-0.3,0.1c-0.1,0.1-0.1,0.2-0.1,0.2
		s0,0.3-0.2,0.3c-0.2,0.1-0.2,0.2-0.2,0.3c-0.1,0.1-0.2,0.2-0.2,0.2c0,0.1-0.2,0.2,0.3,0.3c0.4,0,0.6-0.1,0.8-0.2
		c0.2,0,0.2-0.1,0.2,0.1c0,0.2,0,0.2,0.2,0.3c0.2,0.1,0.3,0.2,0.5,0c0.2-0.2,0.3-0.3,0.5-0.2c0.2,0.1,0.2,0.2,0.3,0.2
		s0.2,0.2,0.2,0.1c0.1-0.1,0.1-0.2,0.1-0.3s0-0.3,0.2-0.4c0.1-0.1,0.2,0,0.2-0.2c0-0.2-0.2-0.1,0-0.2c0.2-0.1,0.2,0,0.2-0.2
		c0-0.1,0-0.1,0.2-0.2c0.2,0,0.2-0.1,0.2-0.2s-0.1-0.2,0-0.2c0.2,0,0.2,0,0.2-0.2s0-0.2,0.2-0.2c0.1,0,0.1,0.2,0.2,0
		c0.1-0.2,0-0.2,0.1-0.2c0.1,0.1,0.2,0,0.2-0.2s0.2-0.3,0.3-0.3c0.1,0,0.2,0,0.2-0.2c0-0.2,0.1-0.3,0.2-0.2s0.3,0,0.2-0.2
		c0-0.2,0.1-0.2,0.1-0.2s0.2,0,0.2-0.2c0.1-0.2,0.1-0.2,0.2-0.2c0.1,0,0.1,0.1,0.2-0.1c0-0.2-0.1-0.2,0.1-0.2c0.2,0,0.2-0.1,0.2-0.2
		c0.2-0.2,0.1-0.1,0.2-0.2c0.2-0.2,0.2-0.2,0.3-0.2c0.1-0.1,0.1,0,0.2-0.1s0.2-0.1,0.2-0.2c0.1-0.1,0-0.2,0.2-0.2
		c0.2-0.1,0.7-0.4,1.1-0.8c0.5-0.4,0.9-0.6,1.1-0.6c0.2,0,0.4-0.2,0.6-0.2c0.2-0.1,0.3,0,0.5-0.1s0.2-0.2,0.4-0.2
		c0.2,0,0.2,0.1,0.2,0c0.2-0.1,0.3-0.1,0.4-0.1c0.2,0,0.3-0.1,0.5-0.2c0.2-0.1,0.3-0.1,0.5,0c0.2,0.1,0,0.2,0.3,0.2
		c0.3-0.1,0.5-0.2,0.5-0.2c0.2,0,0.4,0.1,0.5,0.1c0.1,0,0.8,0,1,0c0.2,0,0.5,0,1,0.2c0.5,0.2,0.5,0.1,0.5,0.1s0.1-0.2,0.2-0.5
		c0.1-0.2,0.2-0.2,0.2-0.2s-0.2,0.3-0.2,0.5c0,0.2,0,0.3,0,0.3l0.3,0.1c0,0,0.1-0.1,0.3-0.2c0.2-0.1,0.5-0.2,0.5-0.2
		s-0.4,0.1-0.5,0.2c-0.1,0.1-0.4,0.2-0.3,0.2c0.2,0.1,0.2,0.1,0.2,0.2c0.2,0.2,0.2,0.2,0.2,0.2c0.1,0,0.1-0.1,0.1,0
		s-0.1,0.2,0.1,0.2s0.3,0,0.3,0s0.5,0.1,0.7,0.2c0.2,0.1,0.2,0.1,0.2,0.1s-0.8-0.2-0.8-0.1s0.1,0.2,0.2,0.2c0.1,0,0.1,0.1,0.2,0.1
		s0-0.1,0.1,0c0.1,0.2,0,0.1,0.1,0.2c0.1,0,0.1,0.1,0.3,0.2c0.5,0.5,0.9,1,0.9,1.1c0,0.1,0.1,0.3,0.2,0.3s0,0,0.3,0.1
		c0.3,0,0.6,0.2,0.6,0.2c-0.1,0-0.5-0.1-0.5-0.1c0,0.1,0,0.2,0.1,0.3l0.3,0.3c0.1,0.1,0.2,0.2,0.2,0.2c0.1,0,0.1,0.1,0.2,0.2
		c0.1,0.1,0.1,0.2,0.1,0.2c0.2,0.2,0.2,0.2,0.2,0.2c0.2,0,0.1,0,0.2,0.1c0,0.1,0.1,0.2,0.2,0.3c0.2,0.1,0.1,0.1,0.2,0.2
		c0.1,0.1,0,0,0.2,0.2c0.2,0.1,0.2,0.1,0.2,0.2c0.1,0.1,0.2,0.2,0.2,0.3c0.1,0.1,0.2,0.2,0.3,0.2c0.1,0,0.1,0,0.2,0.1
		c0.1,0.1,0.1,0.2,0.2,0.2c0.1,0.1,0.2,0.1,0.2,0.2c0.1,0.1,0.2,0.2,0.3,0.3c0.1,0.1,0.1,0.1,0.2,0.2c0,0.1,0,0.1,0.2,0.2
		c0.2,0.2,0.3,0.2,0.3,0.2c0,0.1,0,0.2,0.2,0.3c0.2,0.2,0.2,0.2,0.2,0.2c0,0.1,0.3,0.2,0.4,0.3c0.1,0.1,0.1,0,0.1,0.2
		s0.1,0.1,0.2,0.2s0.1,0.1,0.1,0.2c0,0.1,0.2,0.2,0.2,0.2c0.1,0.1,0,0.1,0.2,0.2c0.1,0,0.1,0.1,0.2,0.1c0.1,0.1,0,0.3,0.2,0.4
		c0.1,0.1,0.1,0.1,0.1,0.2c0,0.1,0.1,0.2,0.2,0.2c0.1,0,0-0.1,0.1,0c0.1,0.1,0.1,0.1,0.2,0.1c0.1,0,0.1,0.1,0.1,0.1
		c0,0.1,0.2,0.3,0.2,0.3c0.1,0,0.1,0,0.2,0.1l0.4-0.3c0,0-0.4,0.2-0.3,0.3c0,0.2,0.2,0.2,0.2,0.2s0-0.1,0.2,0l0.3,0.2
		c0,0,0.2,0,0.2-0.2s-0.1-0.2,0.1-0.2c0.1-0.1,0.3-0.2,0.5-0.1c0.2,0,0,0.1,0.3,0L89,40c0,0-0.3,0.1-0.5,0.2s-0.1,0.1-0.2,0.1
		c-0.2-0.1-0.1-0.1-0.2-0.1c-0.2,0-0.2,0.2-0.2,0.2c0,0.1-0.2,0.2-0.2,0.2h-0.2c0,0,0.2,0.2,0.3,0.2c0.1,0,0.1-0.1,0.2,0.1
		C88,41,88,41,88,41c0.1,0,0.1,0,0.2,0.1c0,0.1,0,0.2,0.1,0.2c0.1,0,0.2,0,0.2,0.1c0.2,0.1,0.2,0.1,0.2,0.2c0.1,0.1,0.1,0.2,0.2,0.2
		c0.1,0,0.2,0.1,0.2,0.2c0.2,0.2,0.2,0.2,0.3,0.2c0.1,0.1,1.2-0.2,1.1-0.2c-0.1,0-1.1,0.2-1.1,0.2c0.1,0.1,0.2,0.2,0.2,0.2
		c0.1,0,1.1-0.1,1-0.1s-1.1,0.1-0.9,0.2c0.2,0.1,0.2,0.1,0.2,0.2c0.2,0.2,0.3,0.2,0.3,0.2c0,0,0,0.2,0.1,0.2
		c0.1,0.1,0.2,0.1,0.2,0.1c0.2,0,0.1,0,0.2,0.1c0.1,0.2,0.2,0.2,0.3,0.2c0.1,0.1,0.2,0.1,0.2,0c0.1,0,1.1-0.2,1.1-0.2
		s-1.3,0.1-1.2,0.2c0.1,0.2,0.2,0.3,0.4,0.3s0.2,0,0.3,0c0.2,0,0.2,0.1,0.1,0.1s-0.2,0-0.2,0.2c0.1,0.2,0.1,0.2,0.2,0.1
		c0.2,0.2,0.2,0.2,0.4,0.1c0.2-0.1,0.5,0,0.5,0s-0.5,0-0.5,0.2s0.1,0,0.1,0.1c0,0.1-0.1,0.1,0.1,0.2c0.2,0.1,0.2,0.1,0.2,0.1h0.3
		c0,0-0.3-0.1-0.2,0.1c0.1,0.1,0.2,0.1,0.2,0.2c0,0.1,0,0.1,0.2,0.1s0.4,0.1,0.5,0.1s0.3,0,0.3,0s-0.4,0-0.5,0c-0.2,0-0.2,0-0.2,0.1
		c0.1,0.1,0,0.1,0.2,0.1c0.1,0,0.3,0.2,0.2,0.2c-0.1,0-0.3-0.2-0.3-0.1c0,0.1,0,0.1,0.1,0.1s0.3,0,0.3,0s-0.2,0-0.3,0.1
		c0,0.1,0.2,0.2,0.3,0.2c0.2,0,0.1,0,0.2,0.1c0.1,0.1,0.2,0.2,0.2,0.2l0.2-0.3c0,0-0.1,0.3,0,0.4c0.1,0.1,0.4,0.2,0.5,0.2
		c0.1,0,0.2,0,0.2,0s0.1,0.1,0.2,0.1c0.1,0,0.1,0,0.2,0.1c0.1,0.1,0,0.1,0.2,0.1c0.2,0,0.2,0.1,0.3,0.1c0.1,0,0.2,0.1,0.2,0.1
		c0,0.1,0.2,0.2,0.2,0.2c0.1-0.1,0.2-0.1,0.2,0c0,0.1,0,0.2,0.2,0.2s0.2,0,0.2,0l0.8-0.5c0,0-0.8,0.5-0.8,0.5s0.1,0.2,0.2,0.1
		c0.1,0,0.2,0,0.2,0l0.8-0.4c0,0-0.7,0.3-0.6,0.4c0,0.1,0.1,0.2,0.2,0.2c0.2,0,0.2,0.1,0.2,0.1s0.1,0.1,0.2,0.1h0.2
		c0,0-0.2,0.2-0.2,0.2s0.3,0.2,0.5,0.2c0.2,0,0.3,0,0.3,0l-0.4,0.2c0,0,0.2,0.2,0.3,0.2c0.1,0,0.2-0.1,0.2-0.1s-0.2,0.2-0.1,0.2h0.1
		c0,0-0.1,0.2,0,0.2h0.1v0.2c0,0,0.2,0.2,0.3,0.2s0.2,0.1,0.3,0.2c0.2,0.1,0.2,0.2,0.3,0.2c-0.1,0-0.1-0.1-0.2,0
		c-0.1,0.1-0.1,0,0,0.2c0.1,0.2,0.1,0.2,0.1,0.4s0.1,0.2-0.2,0.2c-0.2,0-0.1,0.2-0.5,0.3c-0.5,0.2-1,0.3-2-0.2s-1.8-1.1-2-1.1h-0.2
		v-0.1c0,0-0.3-0.2-0.5-0.2c-0.2-0.1-1.3-0.5-1.4-0.6c-0.2-0.1-0.2,0.8-0.2,0.8l-0.2-0.9h-0.1v1l-0.1-0.7L92,47.7l-0.2,0.5l0.1-0.6
		h-0.1l-0.1,0.5l0.1-0.5h-0.1l-0.1,0.3l-0.1-0.5l-0.3-0.2l-0.1,0.5v-0.5l-0.1,0.3v-0.4c0,0-0.8-0.5-1.5-1c-0.4-0.4-0.8-0.7-1.1-1
		c-0.2-0.2-0.5-0.4-0.6-0.5c-0.5-0.5-1.1-1-1.1-1.1c-0.1-0.1-0.1,0-0.2-0.2c-0.1-0.1-0.2-0.2-0.2-0.2v0.3c0,0-0.1-0.3-0.1-0.4
		c0-0.1-0.3-0.5-0.3-0.5s0,0.2,0,0.4c0,0.2,0,0.3,0,0.3s-0.1-0.5-0.1-0.8c0-0.2-0.2-0.2-0.2-0.2s0-0.2,0-0.4s-0.1,0.1-0.1-0.1
		c0-0.2-0.2-0.5-0.3-0.5c-0.2,0-0.2,0-0.2,0s0.1,0-0.1-0.2s-0.2-0.2-0.3-0.2c-0.1,0-0.4-0.1-0.6-0.2c-0.2,0-0.2,0-0.3-0.1
		c-0.1,0-0.1,0-0.2-0.2c-0.1-0.1-0.2-0.1-0.2-0.2c-0.1-0.1-0.2-0.1-0.2-0.1c-0.1,0.1,0,0.2,0.1,0.4l0.2,0.2c0,0-0.3-0.5-0.4-0.5
		c-0.1,0-0.1,0-0.2-0.1c-0.1,0-0.1,0-0.2-0.1s-0.2-0.1-0.2-0.1l-0.1,0.5c0,0,0-0.5-0.1-0.5c-0.1,0-0.1,0-0.1-0.1c0-0.1,0-0.1,0-0.2
		c0-0.1-0.2-0.1-0.2-0.1v-0.2c0,0,0-0.1-0.1-0.1c-0.1-0.1,0-0.2-0.1-0.2h-0.2c0,0,0.1,0,0.1-0.2c0-0.2,0-0.2,0-0.2h-0.1h-0.2
		c0,0.1-0.1,0.2-0.1,0.2s0.1-0.2,0.1-0.3c0-0.1-0.2-0.2-0.2-0.2h-0.2v-0.2c0,0,0-0.1-0.1-0.1S81.5,39,81.5,39v-0.3
		c0-0.1,0-0.2-0.1-0.2c-0.1,0-0.2,0-0.2,0v-0.2c0,0,0,0-0.1,0c-0.1,0-0.1,0-0.2-0.1c0-0.1-0.1-0.2-0.2-0.2l-0.2,0.2
		c0,0,0.1-0.2,0.1-0.2c0-0.2,0-0.2-0.1-0.2c-0.1,0.1-0.1,0.2-0.1,0.2v-0.2c-0.2,0-0.2,0.2-0.2,0.2v-0.3c0-0.1-0.2-0.2-0.2-0.2
		S80,37.7,80,37.7s0.2-0.2,0.1-0.3c-0.1-0.2-0.2-0.2-0.2-0.3c0,0-0.1-0.1-0.1,0v0.2l-0.1-0.2l-0.2,0.3c0,0,0.1-0.3,0.1-0.5
		c0-0.1-0.3-0.2-0.3-0.2v0.5c0,0,0-0.5,0-0.6c0,0-0.2-0.2-0.2-0.2c-0.1,0-0.1-0.1-0.1,0L79,36.7c0,0,0-0.2,0-0.3
		c0-0.1,0-0.1-0.1-0.2c-0.1,0-0.2-0.1-0.2-0.1v0.2c0,0,0-0.3-0.1-0.4c-0.1-0.1-0.1-0.1-0.2-0.1c-0.1,0-0.1-0.2-0.1-0.2v0.5
		c0,0,0-0.5,0-0.5c0-0.1-0.1-0.2-0.1-0.1s-0.1,0.2-0.1,0.2s-0.1-0.1-0.1,0c0,0.1-0.1,0.3-0.1,0.3s0-0.3,0-0.4c0-0.1,0.1-0.1,0.1-0.2
		c-0.1-0.1-0.2-0.1-0.2-0.2c0-0.1-0.1-0.1-0.1-0.2h-0.2c0,0-0.2,0.4-0.2,0.3s0.1-0.4,0.1-0.5s-0.2-0.2-0.2-0.1c0,0-0.1,0.5-0.1,0.5
		V35c0,0-0.1-0.1-0.2-0.2c-0.1-0.1-0.2-0.2-0.2-0.1v0.3l-0.2-0.2l-0.2,0.5v-0.5l-0.2,0.3v-0.3c0,0-0.1,0-0.2-0.1
		c-0.1-0.1-0.2-0.1-0.2-0.1c0-0.1-0.2-0.1-0.2-0.1s0.2,0.2,0,0.2c0.2,0.2,0.2,0.3,0.2,0.3l-0.3-0.3L76,34.6
		c-0.2,0.1-0.2-0.1-0.3-0.2c0-0.1-0.1-0.2-0.2-0.2c-0.1,0-0.2-0.1-0.2-0.2c-0.1-0.1-0.1-0.1-0.2-0.2c-0.2-0.1-0.2,0-0.2,0
		c0.1-0.1,0.2-0.2-0.1-0.2c-0.2,0-0.2,0-0.2,0l-0.1-0.1h-0.2v-0.1h-0.2c0-0.1,0-0.2-0.1-0.2l-0.2,0.2v-0.2c0,0-0.1-0.1-0.2,0
		c-0.1,0.1-0.2,0.2-0.2,0.2s0.2-0.2,0.1-0.2c-0.1,0-0.2-0.2-0.2-0.1c-0.1,0-0.2,0.1-0.2,0.1s0.1-0.1,0-0.2c-0.1-0.1-0.2-0.1-0.2-0.1
		V33c0,0-0.2,0-0.3,0c0,0-0.1,0.1-0.2,0.2c0,0-0.1,0.1-0.1,0.2c0,0.1,0,0.2-0.1,0.2c-0.1,0-0.2,0.2-0.4,0.3
		c-0.2,0.1-0.4,0.1-0.5,0.2c0,0.1-0.1,0.2-0.2,0.2c-0.1,0.1-0.1,0-0.2,0.1c0,0.1-0.1,0.2-0.2,0.2l-0.1,0.1c0,0,0,0.1-0.1,0.1
		s0,0.1-0.1,0.2c-0.1,0.1-0.1-0.1-0.2,0.1c-0.1,0.2,0,0.2-0.2,0.2c-0.1,0-0.2,0.2-0.2,0.2s0,0.1-0.1,0.1c-0.1,0.1-0.2,0.2-0.2,0.2
		c-0.2,0.2-0.2,0.2-0.2,0.2s0,0.1-0.1,0.2c-0.1,0.1-0.1,0-0.1,0.1c-0.1,0.1-0.1,0.1-0.2,0.2c-0.1,0-0.1,0-0.2,0.1
		c0,0.1,0,0.1-0.1,0.2c-0.1,0.1-0.2,0.1-0.2,0.2c-0.1,0.1-0.1,0.1-0.2,0.1c-0.1,0.2-0.1,0.2-0.2,0.2c-0.1,0-0.1,0.1-0.2,0.2
		c0,0.1,0,0.2-0.2,0.2c-0.1,0-0.2,0-0.2,0c0,0.1,0.1,0.2,0.1,0.2h-0.2c-0.1,0.1-0.2,0.2-0.2,0.2c-0.1,0.2-0.1,0.2-0.1,0.2l0.3,0.2
		l-0.4-0.2l-0.2,0.1c0,0,0.2,0.2,0.2,0.3c0,0.1,0,0.1,0,0.1s-0.2-0.2-0.2-0.3c0-0.1-0.1-0.1-0.1-0.1s-0.2,0-0.2,0.1
		c0,0.1,0,0.1,0,0.1c-0.1,0-0.1,0-0.2,0c-0.1,0-0.1,0-0.2,0c-0.1,0.1-0.2,0.2-0.2,0.2l0.8,0.8l-0.7-0.7c0,0-0.1-0.1-0.2-0.1
		s-0.1,0.1-0.2,0.1L67.2,38l0.2,0.3l0.5,0.2l-0.5-0.2l0.2,0.2c0,0,0.2,0.2,0.3,0.2c0.1,0.1,0.5,0.4,0.5,0.4l-0.5-0.3
		c-0.1-0.1-0.2-0.2-0.2-0.2V39l-0.2-0.3l-0.2-0.3c0-0.1-0.2-0.3-0.2-0.4s-0.1-0.2-0.2-0.2c-0.1,0,0,0.2,0,0.2l0.2,0.3l0.5,0.2h-0.2
		l-0.2,0.1c0,0,0.1,0.2,0.2,0.2c0.1,0,0.2,0.1,0.2,0.1l0.3,0.5c0,0-0.2-0.2-0.4-0.3c-0.2-0.2-0.2-0.2-0.3-0.2l-0.2,0.1V39l0.2,0.5
		c0,0-0.3-0.5-0.4-0.5c-0.1,0-0.1,0-0.2,0l0.2,0.7c0,0-0.2-0.6-0.3-0.6c-0.1,0-0.2,0-0.2,0l0.1,0.2L66.5,39l0.2,0.3
		c0,0-0.2-0.2-0.3-0.2l0.2,0.5l-0.2-0.3H66c0,0,0,0.2,0,0.3l-0.2-0.1l0.1,0.2l-0.2-0.2v0.2l-0.1-0.2c0,0-0.1,0.1-0.2,0.2L65.4,40
		c0,0,0-0.1-0.1-0.1s-0.2,0-0.2,0v0.2c0,0-0.1-0.1-0.2-0.1c-0.1,0-0.2,0-0.2,0s-0.1,0.1-0.2,0.1c-0.1,0-0.3,0.2-0.3,0.2l0.1-0.2
		c0-0.1-0.1-0.1-0.2-0.1c-0.1,0.1-0.2,0.1-0.2,0c0-0.1-0.1-0.1-0.2-0.1c-0.1,0-0.2,0-0.2,0c-0.1-0.1-0.2,0-0.2,0l-0.2,0.2
		c0,0.1,0.2,0.1,0.2,0.1c0,0.1,0.1,0.2,0.2,0.2c0.2,0.1,0.2,0.2,0,0.1c-0.2-0.1-0.2-0.1-0.3-0.1s-0.2,0-0.2,0l0.1,0.5
		c0,0,0.1,0,0.2,0c0.1,0.1,0.2,0.2,0.3,0.2c0.2,0,0.1,0,0.2,0c0.2,0,0.2,0,0.2,0c0.1,0,0-0.2,0.1-0.2c0.1-0.1,0.2-0.2,0.2-0.2
		L64.5,41c-0.1,0.1-0.1,0.2-0.1,0.2s0.1,0,0.2,0l0.1-0.2c0.1-0.2,0.2-0.2,0.2-0.2s0.1,0,0.2-0.1s0,0.1,0.1,0.1c0.1,0,0.2,0.1,0.2,0
		s0.1-0.1,0.2-0.1c0.1-0.2,0.1-0.1,0.1-0.1s0.1,0,0.2,0c0.1,0,0.2,0,0.2-0.1c0.1-0.1,0.1,0,0.2-0.1c0.1-0.1,0.2-0.1,0.2-0.1
		c0.1,0,0.2,0,0.3-0.1c0.1,0,0-0.2,0-0.2l0.2,0.2c0.1,0.1,0.1,0,0.2,0c0.2,0,0.2,0.1,0.3,0s0.2-0.2,0.2-0.2c0.1,0,0.4,0.1,0.5,0.1
		s0.2,0,0.2,0c0.1,0,0.1-0.2,0.1-0.2s-0.1,0.1,0,0.2c0.1,0,0.2,0.1,0.2,0c0.1-0.1,0.1-0.1,0.1,0s0.1,0.1,0.2,0.1c0.1,0,0.2,0,0.2,0
		c0.1,0,0.2-0.1,0.2-0.1l0.1,0.2H69h0.2v0.1c0,0,0.2,0.1,0.3,0.1c0.1,0,0.2,0.1,0.3,0.1c0.1,0,0.2,0,0.3,0.1c0.1,0,0.2,0,0.3,0.2
		c0.2,0.1,0.2,0.1,0.3,0.1c0.2,0,0.1,0.1,0.2,0.1c0.1,0.1,0.2,0,0.2,0.1c0,0.1,0.2,0.2,0.3,0.2c0.2,0,0.2,0,0.2,0.1
		c0.1,0,0.1,0,0.2,0.1c0.1,0,0.1,0,0.2,0.1c0.1,0,0.1,0,0.2,0.1c0,0.1,0.1,0.1,0.2,0.1c0.1,0,0.2,0.1,0.2,0.2
		c0.2,0.2,0.1,0.2,0.2,0.2c0.1,0.1,0.1,0.1,0.2,0.2c0.1,0.1,0.2,0.2,0.3,0.2c0.1,0.1,0,0.1,0.2,0.1c0.1,0,0.2,0,0.2,0.1
		c0.1,0,0.2,0.2,0.3,0.2c0.2,0.1,0.2,0.1,0.2,0.2c0.1,0.1,0.1,0,0.2,0.1c0.2,0.1,0.2,0.2,0.2,0.2s0,0.2,0.2,0.2c0.1,0,0.2,0,0.2,0
		c0.2,0.2,0.2,0.2,0.4,0.3c0.2,0.1,0.2,0.1,0.2,0.2c0.2,0.1,0.2,0.2,0.3,0.2c0.1,0.1,0.4,0.4,0.5,0.5c0.2,0.1,0.2,0.1,0.2,0.2
		c0.2,0.1,0.2,0.1,0.2,0.2c0.1,0.1,0.2,0.2,0.3,0.2c0.2,0.1,0.2,0.2,0.3,0.2c0.2,0.1,0.2,0.1,0.2,0.2c0.1,0.1,0.1,0,0.2,0.2
		c0.1,0.1,0.1,0.1,0.2,0.1c0,0,0,0,0.1,0.2c0.2,0.2,0.2,0.3,0.3,0.5c0.2,0.2,0.2,0.5,0.3,0.5c0.2,0.1,0.3,0.1,0.3,0.2
		c0,0.1,0.2,0.3,0.2,0.3s0.3,0,0.5,0c0.2,0.1,0.7,0.2,0.7,0.2s-0.6-0.2-0.9-0.2c-0.2,0-0.3,0.1-0.2,0.1c0.2,0.1,0.2,0,0.2,0.1
		c0,0.1,0.1,0.2,0.2,0.2c0,0.1,0.1,0.2,0.2,0.2c0.1,0,0.3,0,0.3,0l-0.1,0.1c0,0,0.1,0.1,0.2,0.1h0.9c0,0-1,0-0.9,0.1
		c0.1,0.1,0.2,0.2,0.2,0.2s0.1,0.1,0.1,0.1c0.1,0.1,0.2,0,0.2,0.1s0.9,0,0.9,0l-1,0.1c0,0,0.1,0.2,0.2,0.2c0.1,0,1.1,0,1.1,0
		s-1.1,0-1,0.1c0,0.1,0.2,0.2,0.2,0.2c0,0.1,0,0.1,0.2,0.2c0.2,0.1,0.2,0.2,0.3,0.2c0,0.1,1.3,0.2,1.3,0.2s-1.3-0.2-1.2,0
		c0.1,0.2,0.2,0.3,0.2,0.3s0,0.1,0.2,0.2c0.1,0,0.1,0.1,0.2,0.1c0,0,0.2,0.2,0.2,0.2c0.1,0.1,0.2,0.1,0.2,0.2c0,0.1,0.2,0.2,0.2,0.3
		c0.1,0.1,0.1,0.2,0.2,0.2c0.1,0,0.6,0,0.6,0s-0.5,0-0.5,0.1c0,0.1,0.3,0.4,0.4,0.5c0.1,0.1,0.2,0.1,0.2,0.2s0.1,0.2,0.2,0.2
		c0.1,0.1,0.2,0.2,0.3,0.2c0,0.1,0,0.2,0.2,0.2c0.2,0,0.2,0,0.2,0.1c0,0.1,0.1,0.2,0.2,0.3c0.1,0.1,0.2,0.2,0.3,0.2s0.8,0.5,0.8,0.5
		s-0.8-0.5-0.9-0.4c-0.1,0.1,0.1,0.2,0.2,0.3c0.1,0,0.2,0.1,0.2,0.1c0,0.1-0.1,0.2,0.1,0.2c0.2,0.2,0.2,0.1,0.2,0.2
		c0.2,0.1,0.2,0.2,0.2,0.3c0,0.1,0.2,0.2,0.2,0.2l0.1-0.2c0,0,0,0.2,0,0.2c0,0.1,0.2,0.2,0.2,0.3c0.1,0.2,0.2,0.1,0.2,0.1
		c0.1,0,0.1-0.1,0-0.2c0-0.2,0-0.1,0-0.1s0.1,0.2,0.1,0.3c0,0.1-0.1,0.2-0.1,0.2s0,0.2,0.1,0.2c0.1,0.1,0.1,0.2,0.2,0.2
		c0.1,0.1,0.2,0.2,0.3,0.3c0.1,0.1,0.1,0.1,0.2,0.2c0.1,0.2,0,0.3,0.1,0.4c0,0.1,0.1,0.1,0.1,0.2c0,0.1,0.1,0.1,0.2,0.2
		s0.5,0.5,0.8,0.7c0.3,0.2,0.4,0.3,0.7,0.7c0.4,0.3,0.7,0.6,0.8,0.8c0.2,0.2,0.2,0.2,0.2,0.1c0-0.1-0.1-0.2-0.2-0.3
		c-0.1-0.1-0.2-0.2-0.2-0.2l0.3,0.3c0.2,0.2,0.2,0.2,0.4,0.3s0.4,0.2,0.5,0.2s0.1,0,0.2,0c-0.1,0,0.1,0.1,0.3,0.2
		c0.1,0,0.2,0.1,0.2,0.1s0.2,0.1,0.2,0.1s0.2,0.2-0.2,0c-0.3-0.1-0.5-0.3-0.8-0.3c-0.2,0-0.2,0-0.2,0.1s0,0.2,0.2,0.2h0.2l0.2,0.2
		l0.2-0.1l-0.2,0.3h0.4l0.1,0.2l0.5,0.1h0.2l0.5,0.1l-0.5,0.1c0,0,0.2,0.1,0.1,0.1c-0.1,0-0.1,0.2,0,0.2c0.1,0,0.7-0.1,0.6,0
		c-0.1,0-0.6,0-0.5,0.1c0,0.1,0.1,0.2,0.2,0.2c0.1,0,0.6-0.1,0.6-0.1s-0.5,0.1-0.5,0.2c0.1,0.1,0,0.2,0.2,0.2s0.8,0.1,0.8,0.1
		s-0.6,0-0.5,0.1c0.1,0.2,0.2,0.2,0.3,0.2c0.1,0,0.6,0,0.6,0s-0.2,0.1-0.3,0.1c-0.2,0-0.2,0-0.1,0.1c0.1,0.1,0.2,0.1,0.2,0.1
		l0.1,0.2c0,0,0.2,0.1,0.3,0.1c0.1,0,0.4,0,0.4,0s-0.5,0-0.4,0.1c0.1,0.1,0.2,0.1,0.2,0.2c0.2,0,0.5,0.2,0.5,0.2
		c-0.1,0-0.5-0.2-0.4-0.1c0.1,0.1,0.1,0.2,0.2,0.2c0.1,0,0.4,0.1,0.5,0.2c0.1,0,0.2,0.1,0.2,0.1s-0.5-0.2-0.4,0
		c0.1,0.2,0.1,0.2,0.2,0.3c0.1,0.1,0.2,0.2,0.2,0.3c0,0.2,0.1,0.3,0.1,0.4c0.1,0.1,0.2,0.2,0.2,0.2c0.2,0,0.1,0,0.2,0
		s0.2-0.1,0.2-0.1s-0.2,0.1-0.1,0.2c0,0.1,0.1,0.2,0.2,0.2c0.1,0.2,0.2,0.1,0.2,0.2s0,0.1,0.2,0.1h0.8c0,0-0.5,0.1-0.5,0.1
		c0,0.1,0.2,0.2,0.2,0.2c0,0,0.3,0,0.4,0s0.7-0.1,0.6-0.1c-0.1,0-0.4,0.2-0.5,0.2c-0.2,0-0.2,0.1-0.2,0.1s0.1,0.2,0.2,0.2
		c0.1,0,0.2,0.1,0.2,0.1l0.1-0.2l0.1,0.2h0.6l-0.3,0.1l0.2,0.1c-0.1,0-0.2,0.1-0.2,0.1s0.1,0.2,0.2,0.2c0.2,0.1,0.4,0.1,0.4,0.1
		s0-0.2,0.1-0.1c0.1,0.1,0.2,0.2,0.2,0.3c0.1,0.1,0.2,0.1,0.2,0.1s0.1,0.1,0.2,0.2c0,0.1,0.1,0.1,0.2,0.2c0.1,0.1,0.2,0.2,0.4,0.2
		c0.2,0.1,0.2,0.2,0.3,0.2c0.1,0,0.2,0,0.2,0L99,66.2c0,0-0.1,0.1,0,0.1c0.1,0,0.2,0,0.2,0l-0.2,0.1c0,0,0.2,0.2,0.3,0.2
		c0.2,0,0.5,0,0.5,0l-0.2,0.1c0.2,0.2,0.2,0.2,0.2,0.2s0,0.2,0,0.3c0,0.2,0.1,0.1,0.1,0.2c0,0.1-0.1,0.2,0,0.3
		c0.1,0.2,0.2,0.2,0.2,0.2s0.2,0.1,0.2,0.2c0,0.1,0.1,0.2,0,0.2c0,0.1-0.1,0.1-0.2,0.1l-0.2,0.4c0,0,0,0-0.2,0c-0.2,0-0.2,0-0.2,0.2
		c-0.1,0.1-0.1,0.1-0.3,0.1c-0.5,0-0.8-0.1-1.4-0.2c-0.3-0.1-0.8-0.3-1.3-0.6c-0.5-0.3-0.9-0.6-1.3-0.9c-0.8-0.6-1.6-1.2-1.9-1.5
		l-0.5-0.4v0.2l-0.1-0.3l-0.1-0.3c-0.1-0.2,0.1-0.2-0.2-0.3c-0.2-0.1-0.2-0.1-0.2-0.1l0.3,0.6c0,0-0.2-0.5-0.3-0.6
		c-0.1,0-0.5-0.1-0.8-0.2c-0.5-0.2-0.7-0.5-0.7-0.5v0.5c0,0,0-0.5-0.1-0.5c-0.1-0.2-0.6-0.5-0.6-0.5v0.8l-0.1-0.8
		c0,0-0.5-0.5-0.7-0.7c-0.2-0.2-0.2-0.2-0.2-0.2l0.2,0.6c0,0-0.2-0.6-0.2-0.8c-0.1-0.2-1.1-1-1.1-1s0,0.2,0,0.2c0,0,0.2,0.2,0.1,0.2
		c0,0,0.2,0.2,0.2,0.4v0.2c0,0-0.2-0.3-0.3-0.5c-0.2-0.2,0-0.4-0.1-0.5C87.6,61,87.5,61,87.5,61s-0.1,0.2,0,0.5
		c0.2,0.3,0.2,0.4,0.2,0.4s-0.2-0.5-0.3-0.7c0-0.2,0.1-0.3,0.1-0.3l-0.6-0.5c-0.3-0.3-0.8-0.8-1-0.9c-0.2-0.2-0.2-0.3-0.2-0.3
		c-0.1,0-0.2,0-0.2,0s0.1,0,0.1-0.2c0-0.1,0-0.2,0-0.3s-0.1-0.2-0.1-0.2c-0.1,0-0.2,0-0.2,0c-0.1,0.1-0.2,0.6-0.2,0.6
		s0.1-0.5,0.1-0.7s0.2-0.2,0.1-0.2c-0.1-0.1-0.4-0.5-0.5-0.6c-0.2-0.1-0.2-0.1-0.2-0.2c0-0.1,0-0.1-0.2-0.1s-0.1,0-0.2-0.1
		s-0.1-0.2-0.2-0.2c-0.2,0-0.1,0-0.2,0c-0.1-0.1-0.2-0.1-0.2,0s0.1,0.2,0.1,0.2l0.1,0.1l-0.2-0.3c-0.1-0.2-0.3-0.3-0.3-0.3
		c-0.1,0-0.1-0.1-0.1,0s0,0.7,0.1,0.9l0.1,0.3c0,0-0.2-0.8-0.3-1.1c0-0.3-0.1-0.2-0.2-0.2c-0.1,0.1,0,0.5,0,0.5l-0.2-0.5l-0.2,0.1
		l0.1-0.2l-0.2-0.1c0,0-0.1,0.2,0,0.5s0.1,0.4,0.1,0.4s-0.2-0.7-0.2-0.9c0-0.2-0.2-0.2-0.2-0.2s-0.1-0.1-0.1-0.2
		c0-0.2-0.1-0.1-0.1-0.2c0-0.1-0.1-0.1-0.2-0.2c-0.1-0.2-0.2-0.2-0.2-0.1c0,0.1-0.1,0.5-0.1,0.5v-0.7c0,0-0.2-0.1-0.3-0.2
		c-0.1-0.1-0.1-0.1-0.2-0.2c-0.1-0.1-0.2-0.2-0.2-0.2v0.3v-0.3c0,0-0.1-0.1-0.2-0.2s-0.2-0.2-0.2-0.2v0.2l-0.1-0.2
		c-0.1,0-0.1-0.2-0.2-0.2s-0.1-0.1-0.2-0.2C80.4,54,80.4,54,80.4,54v0.5c0,0,0-0.5-0.1-0.5c-0.1-0.2-0.1-0.2-0.1-0.2s-0.1,0.1-0.1,0
		c0-0.1-0.1-0.2-0.1-0.2c0,0.1,0,0.6,0,0.6s0-0.6,0-0.7c-0.1-0.1-0.2-0.5-0.4-0.5c-0.2-0.1-0.2-0.1-0.2-0.2c0-0.1-0.1-0.2-0.2-0.2
		c-0.1,0-0.1,0-0.1-0.1c0-0.1,0-0.1-0.1-0.2c-0.1,0-0.2-0.2-0.2-0.3c-0.1-0.1-0.1-0.1-0.2-0.1c-0.1-0.1-0.2-0.3-0.2-0.4
		c-0.2-0.2-0.5-0.5-0.6-0.6c-0.1-0.1-0.3-0.2-0.5-0.4c-0.2-0.2-0.2-0.2-0.2-0.2c-0.1-0.1-0.2-0.2-0.4-0.3c-0.2-0.2-0.2-0.1-0.2-0.2
		c-0.1-0.1-0.5-0.4-0.7-0.5s-0.2-0.1-0.3-0.2c-0.2-0.1-0.2,0-0.3-0.1c-0.2-0.1-0.5-0.2-0.6-0.5c-0.2-0.2-0.8-0.8-1.2-1.1
		c-0.4-0.3-0.6-0.5-0.8-0.7c-0.3-0.2-1-0.8-1.2-0.9c-0.2-0.2-0.3-0.2-0.6-0.2s-0.2,0-0.4-0.1C70.5,46,70.5,46,70.4,46
		s-0.1-0.1-0.2,0.1c-0.1,0.2,0,0.3-0.2,0.3c-0.2,0-0.4,0-0.7,0c-0.2,0-0.3-0.1-0.5-0.2c-0.2,0-0.2,0-0.2,0s-0.1,0,0.2,0.2
		c0.2,0.2,0.5,0.5,0.5,0.5s-0.6-0.8-0.8-0.8c-0.2,0-0.2,0-0.2,0s0.1,0.2,0.2,0.3c0,0.1,0,0.2,0.1,0.2c0.2,0.2,0.2,0.2,0.2,0.2
		s-0.2-0.3-0.3-0.5c0.2-0.2,0.1-0.2,0.1-0.2c-0.1,0-0.2-0.1-0.2,0c0,0.1,0.1,0.2,0.1,0.2c0.1,0,0.2,0.3,0.3,0.5c0,0-0.3-0.8-0.5-0.8
		S68,46.2,68,46.4c0,0.1-0.1-0.2-0.1-0.2c-0.1,0-0.2,0-0.2,0s0.1,0.2,0.2,0.3c0.1,0.1,0.2,0.2,0.3,0.3c0.2,0.2,0.5,1.2,0.5,1.2
		s-0.5-1.3-0.6-1.3l0.2,0.8c0,0-0.3-0.5-0.3-0.7c-0.1-0.2-0.1-0.2-0.2-0.4c-0.1-0.2-0.1-0.2-0.2-0.2c-0.1,0-0.1-0.1-0.1,0l0.2,0.3
		c0,0-0.1,0-0.2-0.1c0-0.1,0-0.1-0.1-0.2c-0.1-0.1-0.2-0.1-0.2-0.1s0,0.1,0,0.2s0,0.2,0.1,0.2c0.1,0.1,0.3,0.3,0.3,0.3
		s-0.4-0.4-0.5-0.5c-0.1-0.1-0.2-0.2-0.2-0.2s-0.1-0.1-0.2,0c0,0.1,0,0,0,0.1s0.1,0.4,0.1,0.5s-0.1-0.5-0.2-0.5c-0.1,0-0.2,0-0.2,0
		s0.1,0.2,0,0.2c0,0-0.2-0.2-0.2-0.2h-0.1v0.5l-0.1-0.4h-0.2c-0.1,0,0.2,0.4,0.2,0.4c-0.1,0-0.2-0.2-0.3-0.3s-0.2-0.1-0.2-0.1
		s0,0.2,0,0.3c0,0.1,0,0.2,0.1,0.2l0.6,0.6c0,0-0.6-0.5-0.7-0.5c-0.2,0-0.2,0.1-0.1,0.2c0.2,0.2,0.2,0.3,0.4,0.5
		c0.2,0.1,0.7,0.4,0.7,0.4s-0.5-0.2-0.7-0.2c-0.1,0,0.2,0.2,0.2,0.5c0.2,0.2,0.2,0.2,0.2,0.4c0,0.1,0.2,0.3,0.2,0.5
		c0.1,0.1,0,0.2,0.2,0.4c0.1,0.2,0.2,0.3,0.3,0.4c0.1,0.3,0.2,0.5,0.2,0.5c0,0.2,0,0.7,0,0.8c0.1,0.1,0.2,0.2,0.2,0.2
		c0.1,0,0.2,0.2,0.3,0.3c0.2,0.2,0.4,0.4,0.4,0.4s-0.2-0.1-0.4-0.3c-0.2-0.2-0.3-0.3-0.3-0.2c0,0.1,0,0.2,0,0.2S68,51.9,68,52
		c0.1,0.1,0.2,0.2,0.5,0.3c0.2,0.2,0.5,0.6,0.5,0.6s-0.3-0.3-0.5-0.5c-0.1-0.2-0.4-0.3-0.5-0.3c-0.1,0,0,0.2,0.1,0.4
		c0.1,0.2,0.3,0.2,0.5,0.3c0.2,0.1,0.6,0.4,0.8,0.5c0.2,0.2,0.2,0.2,0.2,0.2s-0.5-0.3-0.6-0.5c-0.2-0.2-0.2-0.2-0.4-0.2
		c-0.1-0.1-0.1,0-0.1,0s0.5,0.5,0.5,0.6c0.1,0.1-0.4-0.3-0.5-0.5c-0.2-0.2-0.3-0.3-0.5-0.4c-0.1-0.1-0.1,0.2,0,0.2
		c0.1,0.1,0.1,0,0.1,0.2c0,0.1-0.1,0.2,0,0.2c0.1,0.1,0.5,0.2,0.7,0.3c0.2,0.1,0.6,0.4,0.6,0.4c-0.1,0-0.8-0.5-1-0.5
		c-0.2-0.1-0.2,0.2,0,0.2c0.1,0.1,0.9,0.4,0.9,0.4l-0.9-0.3c0,0,0.1,0.2,0.2,0.3c0,0.1,0.2,0.1,0.4,0.2c0.2,0.2,0.3,0.3,0.3,0.3
		L69,54.2c-0.1-0.1-0.1,0.1-0.1,0.2c0.1,0.1,0.2,0.2,0.2,0.2c0,0,0,0.1,0,0.2c0,0.2,0.1,0.2,0.2,0.3c0.2,0.2,0.5,0.5,0.5,0.5
		l-0.5-0.3l0.2,0.2l-0.2-0.2c-0.1-0.1-0.2-0.2-0.2-0.1c0,0.2,0.2,0.2,0.2,0.3c0.1,0.1,0.1,0.1,0.2,0.2c0.2,0.1,0.3,0.3,0.3,0.3
		s-0.3-0.2-0.4-0.2c-0.1,0-0.2-0.1-0.2,0c0,0.1,0,0.2,0.2,0.2c0.1,0,0.2,0.2,0.2,0.2s0,0.1,0.1,0.2c0.1,0.1,0.1,0.1,0.2,0.2
		c0,0.1,0.1,0.2,0,0.2c0,0.1,0.5,0.2,0.5,0.2l-0.2,0.1c0,0,0,0,0,0.1C70,56.9,70,57,70,57h-0.3l0.1,0.2l0.6,0.5l-0.7-0.5v0.2
		l0.5,0.7c0,0-0.2-0.2-0.3-0.2c-0.1-0.1-0.1,0-0.1,0s-0.1,0.2,0,0.3c0.1,0.1,0,0.1,0.2,0.2c0.2,0.1,0.2,0.1,0.2,0.2
		c0,0.2,0,0.2-0.1,0.2c0,0.1,0,0.3,0,0.3H70v-0.2h-0.2c0,0,0,0.1,0.1,0.2c0.1,0.2,0.2,0.2,0.2,0.2c0,0.1,0.2,0.2,0.2,0.2l0.8,0.1
		c0,0-0.8-0.1-0.8,0c0,0.1-0.1,0.2,0,0.2c0,0,0.5,0.3,0.5,0.3c-0.1,0-0.5-0.3-0.5-0.2c0,0.1,0.1,0.3,0.1,0.3c0.1,0.1,0.2,0,0.1,0.1
		c0,0.1-0.1,0.1,0,0.2l0.2,0.2c0,0-0.2,0-0.2-0.1c0-0.1-0.1-0.2-0.1-0.1c0,0.1-0.1,0.2,0,0.3c0.1,0.1,0.1,0,0.2,0.1
		c0,0.1,0,0.1,0.1,0.2c0.2,0.1,0.1,0.2,0.1,0.2c0,0.1,0,0.2,0,0.2s0.3,0.2,0.4,0.3c0.1,0.1,0.1,0.2,0.1,0.2s-0.4-0.5-0.5-0.3
		c-0.1,0.2,0,0.7,0,0.7s0.2,0.1,0.2,0.2c0,0.1,0.1,0.2-0.1,0.2c-0.2,0-0.2,0.1-0.1,0.2c0.2,0.1,0.2,0.2,0.2,0.2c0.1,0.1,0,0.1,0,0.1
		s-0.2-0.2-0.2-0.2s-0.1,0-0.1,0.2c0,0.1,0.1,0.2,0.2,0.3c0.1,0.2,0.1,0.3,0.1,0.5c0,0.2,0.1,0.2,0.1,0.2h-0.2c0,0,0,0.1,0,0.2
		l-0.2,0.2v0.2l-0.1,0.5l-0.2-0.1L70,64.9L69.9,65c0,0-0.1,0.1-0.2,0.2c-0.1,0.2-0.1,0.2-0.2,0.2c-0.2,0-0.2,0-0.3,0.1
		c-0.2,0.1-0.2,0.1-0.3-0.1c-0.2-0.2-0.2-0.2-0.2-0.2l-0.2,0.2h-0.2v-0.2c0,0,0-0.2-0.2-0.2C68,65.1,68,65,68,65s-0.1,0-0.2-0.3
		c-0.1-0.2-0.1-0.5-0.1-0.5c0-0.2,0.1-0.1,0.1-0.2s0-0.3-0.2-0.2c-0.1,0.1-0.2,0-0.2,0s0-0.5-0.1-0.5c0-0.1-0.1,0-0.1-0.2
		c0-0.2,0-0.8-0.1-0.8c-0.1-0.1-0.1-0.1-0.1-0.1s0.1-0.1,0.2-0.2c0-0.2,0.1-0.4,0.1-0.4l0.2-0.1c0,0,0.1-0.2,0-0.2
		c-0.1,0-0.3,0-0.3,0s0-0.4,0.1-0.5c0-0.2,0-0.3,0-0.3s0.2-0.2,0.3-0.3c0.1-0.1,0.1-0.2,0.1-0.2l-0.1-0.2L67.6,60c0,0-0.2,0-0.2,0
		s-0.2,0-0.2,0.1c-0.1,0,0-0.2,0.1-0.2c0.1-0.1-0.1-0.1,0-0.2c0.1-0.1,0.2-0.2,0.2-0.2s0.2-0.1,0.3-0.2c0.1-0.1,0,0,0.1-0.1
		c0.1-0.1,0-0.1-0.1-0.2c-0.1,0-0.1-0.1-0.1,0s-0.2,0.2-0.2,0.2s0,0.1-0.1,0c-0.1-0.2-0.1-0.1-0.2-0.2c-0.1-0.1-0.1-0.2-0.1-0.1
		c-0.1,0-0.1,0.2-0.2,0.3c0,0.1-0.2,0-0.1-0.3c0-0.3,0-0.6,0-0.8c0-0.2,0-0.3,0-0.3s-0.1,0-0.2,0.2l-0.2,0.2c0,0,0-0.2,0.1-0.3
		c0.1-0.1,0.2-0.2,0.2-0.3c0.1-0.1,0.1-0.1,0.1-0.2c0-0.2-0.1-0.2-0.1-0.2s-0.2,0.1-0.2,0.3c-0.1,0.2-0.2,0.3-0.2,0.3
		s0.2-0.5,0.2-0.6s0-0.2,0-0.2s0-0.2-0.1-0.1c-0.1,0.1-0.2,0.2-0.2,0.2s0.1-0.3,0.1-0.4s0.1,0.1,0.2-0.1c0-0.2,0-0.2-0.1-0.2
		c-0.1,0-0.2,0.1-0.2,0c0.1-0.2,0-0.3,0-0.4c0-0.2,0.1-0.4,0-0.4l-0.3,0.5c0,0,0.2-0.5,0.2-0.5c0-0.1,0-0.2,0-0.1L66.2,56
		c0,0,0.2-0.3,0.2-0.5c0-0.2,0-0.4,0-0.5c0-0.1,0-0.2,0-0.1c0,0.1-0.2,0.5-0.2,0.5s0.1-0.3,0.1-0.5c0-0.2-0.1-0.5-0.1-0.5
		s-0.2,0.4-0.2,0.5s0.3-0.5,0.2-0.7c-0.1-0.2-0.2-0.1-0.2,0c-0.1,0.2-0.2,0.4-0.2,0.4s0.3-0.5,0.2-0.7c0-0.2-0.2-0.2-0.2,0
		c-0.1,0.2-0.2,0.5-0.3,0.6c-0.1,0.2,0,0,0.2-0.4c0.2-0.4,0.2-0.3,0.2-0.6c0-0.2-0.1-0.3-0.2-0.2c0,0-0.1,0.1-0.1-0.2
		c0-0.2-0.1-0.2-0.1-0.2s0.2-0.2-0.2,0.4c-0.2,0.3-0.3,0.5-0.3,0.5s0-0.1,0.1-0.2c0.2-0.4,0.4-0.5,0.4-0.8s-0.1-0.3-0.1-0.3
		l-0.4,0.6c0,0,0.4-0.6,0.4-0.8s-0.1-0.2-0.2-0.2c-0.2,0.2-0.6,0.9-0.6,0.9l0.2-0.7c0,0-0.1-0.2-0.1-0.4s0-0.2,0-0.2
		c-0.1,0-0.2,0-0.2,0v-0.3c-0.1,0-0.2,0.4-0.2,0.5c0,0.1,0-0.3,0.1-0.5c0-0.2-0.2-0.4-0.2-0.5l-0.1-0.2c-0.1,0.1-0.2,0.2-0.5,0.6
		c-0.2,0.5-0.2,0.4-0.2,0.4s0.2-0.5,0.5-0.8s0.2-0.3,0.3-0.4c0-0.1,0-0.2-0.1-0.2c-0.1,0-0.1,0-0.1-0.2c0-0.1-0.1-0.2-0.1-0.2
		c-0.1-0.2-0.2-0.4-0.2-0.4S63.6,50,63.5,50c-0.1,0.1,0.2-0.2,0.2-0.5s-0.2-0.2-0.2-0.2s-0.1,0.3-0.1,0.5c0,0.1,0-0.3,0-0.4
		s-0.2-0.2-0.2-0.2v0.6c0,0-0.1-0.5-0.1-0.5c0-0.1-0.2-0.2-0.2-0.2L63,49.7v-0.7l-0.2,0.4l0.1-0.6c0,0-0.2,0-0.2,0.1
		c-0.1,0.1-0.2-0.2-0.2-0.2h-0.2V49l-0.1-0.3L62.2,49v-0.6c0,0,0-0.1-0.2-0.2c-0.2-0.1-0.2-0.2-0.2-0.1c0,0,0.2,0.5,0.2,0.7
		s-0.1-0.5-0.2-0.6c-0.1-0.2-0.2,0-0.2,0c-0.1-0.1-0.1-0.1-0.2-0.2c-0.1,0-0.2-0.1-0.2-0.2c0,0-0.1-0.1-0.2-0.2
		c-0.1-0.1-0.2-0.1-0.2-0.1c-0.1,0,0,0-0.2,0s-0.1,0-0.1,0.2c0.1,0.2,0.1,0.4,0.1,0.4s-0.1-0.2-0.2-0.2c-0.1-0.1-0.2-0.1-0.2-0.1
		s0,0.2,0,0.3s0.2,0.2,0.2,0.3c0.1,0.2-0.1,0-0.2-0.1l0.1,0.4c0,0-0.2-0.2-0.2-0.4c-0.1-0.2-0.1-0.5-0.1-0.5s-0.2-0.3-0.2-0.2v0.6
		c0,0-0.1-0.5-0.2-0.6c-0.1-0.1-0.2-0.2-0.3-0.3c-0.1,0-0.2,0-0.2,0V48c0,0,0.5,0.5,0.7,0.7c0.2,0.2,0.6,0.4,1.1,0.5
		c0.5,0.1,0.7,0.1,0.7,0.1s-0.8,0.1-1.4-0.2c-0.5-0.3-1.1-1-1.2-0.8c0,0.2,0,0.9,0,1.4c-0.1,0.5-0.2,1-0.2,1.3
		c0,0.3-0.1,0.5-0.1,0.5l0.2,0.6l-0.1-0.5v0.2l0.1,0.5l-0.2-0.3V52l0.2,0.6c0,0-0.2-0.5-0.3-0.5c-0.1-0.1-0.2,0-0.2,0.1
		s0.1,0.7,0.1,0.7l-0.2-0.6c0,0,0,0-0.1,0.1l0.1,0.8l-0.2-0.8h-0.1v0.4l-0.2-0.3l-0.1,0.1l0.1,0.3l-0.2-0.3v0.5L58,52.5h-0.2v0.5
		v-0.4h-0.2v1.5l-0.1-1.6h-0.2l-0.1,0.3c-0.2,0.2-0.2,0.5-0.2,0.5v-0.5l-0.1-0.2c0,0-0.1,0-0.1,0.1s0,0.1-0.1,0.1s-0.2,0.1-0.2,0.1
		s-0.2,0.7-0.2,0.8s0.3-0.7,0.2-0.8c-0.2-0.1-0.2,0.2-0.2,0.2s-0.1,0.5-0.2,0.7c-0.2,0.2,0.2-0.3,0.2-0.5c0.1-0.8-0.2,0.1-0.2-0.1
		c-0.1,0.2-0.3,0-0.3,0l-0.1,0.6v-0.7c0,0-0.1,0.1-0.2,0c-0.1,0-0.2,0.2-0.2,0.2s-0.1-0.1-0.1-0.2s-0.1,0-0.2-0.1
		c-0.1,0-0.2,0-0.2,0s-0.2-0.2-0.2-0.2s-0.2-0.1-0.2-0.1s-0.1-0.2-0.2-0.1c0.1,0.5,0.1,0.7-0.1,0.8c-0.1,0-0.2,0.1-0.2,0.2
		s-0.1,0.3-0.1,0.3s-0.1,0.5,0,0.6l0.1,0.2c0,0-0.1-0.1-0.2-0.2c0-0.1,0-0.2,0-0.4c0-0.3-0.2-0.1-0.2-0.1v0.7L54,53.7l-0.4,0.1
		l0.2,0.8l-0.3-0.8l0.2,0.8l-0.3-0.7l-0.2,0.4l0.3,0.6l-0.3-0.6V54v-0.1l-0.2-0.2c0,0-0.1,0.1-0.1,0.2l-0.1,0.8l-0.1-0.3l-0.2-0.1
		v0.6l-0.2-0.3c0,0,0,0-0.1,0.3c-0.1,0.3-0.1,1-0.1,1c0,0.1,0,0.2,0.1,0.2c0.1,0,0.4,0.3,0.4,0.3s-0.2-0.2-0.3-0.2s-0.1,0.2-0.1,0.2
		s0.6,0.3,0.8,0.5l0.2,0.1c0.3,0.2,0.8,0.5,1.1,0.8c0.3,0.4,0.5,0.8,0.5,0.8s-0.2-0.6-0.8-1c-0.5-0.4-0.8-0.7-0.8-0.7
		s0.5,0.5,0.7,0.9c0.2,0.4,0.4,0.6,0.4,0.6s-0.4-0.6-0.8-1.1c-0.4-0.5-0.7-0.7-0.8-0.8c-0.2-0.1-0.2,0-0.2,0s0,0.2,0.2,0.3
		c0.1,0.1,0.2,0.1,0.2,0.1c0.2,0,0.2,0.1,0.4,0.2c0.2,0.2,0.2,0.2,0.2,0.2S53.3,57.1,53,57c-0.3-0.1-0.3-0.1-0.3-0.1s0,0.2,0.1,0.4
		c0.1,0.2,0.2,0.4,0.2,0.4s1.1,0.5,1.5,0.8l0.5,0.5c0,0-0.7-0.6-1.2-0.9c-0.6-0.3-0.7-0.3-0.7-0.3l0.2,0.5c0,0,0.6,0.2,1.1,0.5
		c0.4,0.3,0.5,0.4,0.5,0.4s-0.5-0.3-0.8-0.6c-0.2-0.1-0.3-0.2-0.4-0.2c-0.5,0-0.4,0-0.4,0v0.2l0.5,0.4c0.1,0.1-0.4-0.2-0.5-0.2
		s0.1,0.3,0.1,0.3s0.6,0.5,0.8,0.6l0.2,0.2l-0.9-0.7l0.3,0.3l-0.3-0.1c0,0,0.1,0.3,0.2,0.5c0.2,0.1,0.2,0.2,0.2,0.2l-0.3-0.1
		l0.1,0.2c0,0,0.3,0.1,0.5,0.2c0.3,0.2,0.6,0.5,0.6,0.5s-1.1-0.6-1.1-0.5s0.2,0.5,0.2,0.5s0.5,0.2,0.8,0.3c0.3,0.2,0.4,0.3,0.4,0.3
		S54.2,61,53.9,61l-0.4-0.2c0,0,0,0.2,0.1,0.5c0.1,0.2,0.4,0.2,0.6,0.6c0.3,0.3,0.3,0.3,0.3,0.3s-0.9-0.9-0.9-0.8
		c0,0.2,0.1,0.4,0.2,0.5s0.4,0.2,0.7,0.9c0.2,0.5,0.2,0.8,0.2,0.8s-0.2-0.8-0.5-1.2c-0.2-0.3-0.4-0.5-0.4-0.4c0,0.2,0,0.2,0,0.2
		c-0.1,0,0,0.1,0,0.1s0.1,0.3,0.1,0.5c0,0.1,0.1,0.1,0.2,0.3c0.1,0.2,0.2,0.2,0.2,0.4c0,0.2,0,0.2,0.1,0.2l0.4,0.2
		c0.1,0.1-0.1,0-0.2,0v0.2l0.3,0.2c0,0-0.2-0.1-0.2-0.1c-0.1,0-0.1,0.1-0.1,0.1s-0.1,0,0.1,0.3c0.2,0.2,0.3,0.5,0.5,1.1
		c0,0.2,0.1,0.2,0.1,0.3c0.1,0.4,0.1,0.6,0.1,0.7c0,0.2,0,0.1,0.1,0.3c0.1,0.2,0.1,0.5,0.1,0.6c0,0.1,0,0.2-0.1,0.2
		c-0.1-0.1-0.2-0.1-0.2,0.1c0.1,0.2,0.1,0.2,0.2,0.2c0.1,0.1,0.1,0.2,0,0.2c-0.1,0.1-0.2,0.1,0,0.3c0.1,0.1,0.2,0.3,0,0.3
		s-0.2-0.1-0.2,0.1c0,0.1,0,0.1,0,0.2c0.1,0.1,0.2,0.2,0.1,0.2s0,0.2-0.1,0.4c-0.1,0.2-0.2,0.5-0.3,0.5c-0.2,0.1-0.3,0.1-0.3,0.2
		c0,0.1,0,0.2-0.1,0.2c0.2,0.1,0.3,0.3,0.3,0.3c0,0.1-0.1,0.1-0.2,0.2c-0.1,0.1,0,0.1-0.2,0.2C54.3,71,54.3,71,54.2,71
		c-0.1,0-0.1,0-0.2,0s-0.2,0-0.3-0.1c-0.2-0.1-0.2-0.2-0.3-0.2c-0.2,0-0.1,0-0.2,0S53,70.6,53,70.6l-0.1,0.2v-0.3l-0.2-0.2
		c-0.1-0.1-0.2-0.2-0.3-0.4c-0.1-0.2-0.2-0.4-0.2-0.5c-0.1-0.1-0.1-0.1-0.2-0.2c0-0.2,0.1-0.1,0-0.2S52,69.1,52,69
		c0-0.1-0.1-0.2-0.1-0.3c0-0.1-0.1-0.1-0.1-0.2c0-0.2-0.1-0.4-0.1-0.6c0-0.2,0-0.2-0.1-0.3c-0.1-0.1-0.2-0.6-0.2-0.8
		c0-0.1-0.1-0.3-0.1-0.3l-0.3,0.2c0,0,0.3-0.2,0.3-0.3c0-0.1,0-0.3,0-0.3s-0.2,0.1-0.2,0.2l-0.1,0.2c0,0,0.2-0.4,0.3-0.5
		c0.1-0.1,0.1-0.4,0.1-0.4s-0.6,0.3-0.6,0.4c-0.1,0.1,0.1-0.2,0.3-0.3c0.2-0.2,0.2-0.2,0.2-0.2l0.1-0.5c0,0-0.2,0.2-0.3,0.4
		c-0.2,0.2-0.2,0.2-0.2,0.2l0.5-0.7c-0.1,0-0.4,0.2-0.4,0.2s0.2-0.2,0.3-0.3c0.1-0.2,0.2-0.2,0.2-0.2s0-0.2-0.1-0.1
		c-0.1,0.1-0.2,0.1-0.2,0.1s0.2-0.2,0.2-0.2v-0.2L51,64.5c0,0,0.2-0.2,0.3-0.3c0.1-0.2,0.2-0.3,0.2-0.5c0-0.2-0.1-0.1-0.1-0.1
		l-0.2,0.3c0,0,0.2-0.2,0.2-0.3s-0.1-0.1-0.1-0.1l-0.3,0.3c0,0,0.1-0.2,0.1-0.4c0-0.2,0-0.3,0-0.5s0-0.2,0-0.2l-0.3,0.3
		c0,0,0-0.1,0-0.3c0-0.2,0.1-0.2,0.1-0.4c0-0.2-0.1-0.3-0.1-0.3l-0.2,0.5l0.1-0.5c0,0-0.3,0.4-0.3,0.5s-0.1,0.2-0.1,0.2
		s0.3-0.6,0.3-0.8c0-0.2,0-0.2,0-0.4s0-0.2,0-0.2s-0.2-0.2-0.3,0.2c-0.2,0.4-0.2,0.6-0.2,0.6s0,0,0.2-0.4c0.1-0.4,0.2-0.5,0.3-0.6
		c0.1-0.2,0.1-0.5,0.2-0.6s-0.1-0.5-0.1-0.4c-0.1,0.1-0.3,0.5-0.3,0.8s0,0.3,0,0.3s0.2-0.7,0.2-1c0.1-0.3,0.2-0.4,0.2-0.5
		s0-0.2,0-0.2s-0.2,0-0.2,0.2s0,0.4-0.2,0.7C50.1,60.6,50,61,50,61s0.2-1,0.3-1.4c0.2-0.4,0-0.4,0-0.5c0-0.2,0-0.2,0-0.3
		s-0.2,0-0.2,0.2l-0.1,0.4l0.1-0.5c0-0.2,0.1-0.3,0-0.2S50.1,59,50,59.1c-0.1,0.1,0.1-0.2,0.2-0.4s0-0.3,0-0.3s-0.2,0.2-0.3,0.4
		c-0.1,0.2,0.2-0.3,0.2-0.4s0-0.3,0-0.5c0-0.2,0.1-0.2,0-0.3c0-0.1-0.2-0.1-0.2,0c-0.1,0.1,0-0.2-0.2,0.3c-0.2,0.5-0.3,0.5-0.3,0.5
		s0.3-0.8,0.5-1c0.2-0.2,0.2-0.2,0.2-0.3s-0.1-0.2-0.2-0.2s-0.1-0.1-0.2,0.2c-0.2,0.2-0.3,0.6-0.3,0.6s0.3-0.8,0.5-0.9
		c0.2-0.2,0.2-0.2,0.1-0.3c-0.1-0.1-0.2,0-0.3,0.1c0,0.1-0.2,0.4-0.4,0.6s-0.2,0.4-0.2,0.4s0.3-0.6,0.5-0.8c0.2-0.3,0.2-0.4,0.2-0.4
		l-0.1-0.2c0,0-0.5,0.5-0.5,0.7c-0.1,0.1,0-0.1,0.2-0.3c0.2-0.2,0.4-0.5,0.4-0.5c0.1-0.1,0-0.2,0-0.4v-0.2l-0.5,0.5
		c0,0,0.4-0.4,0.5-0.5c0.1-0.2,0.1-0.2,0-0.3c-0.2,0,0,0-0.2,0.1c-0.2,0.1-0.2,0.1-0.2,0.1s0.2-0.2,0.3-0.2c0.2-0.1,0-0.3,0-0.3
		l-0.5,0.6c0,0,0.2-0.6,0.2-0.7c0-0.1,0-0.4,0-0.5c-0.1-0.1-0.1,0-0.1-0.2s-0.1-0.2-0.2-0.3c-0.1,0-0.2-0.2-0.3-0.1
		c-0.2,0.2-0.2,0.2-0.2,0.2l-0.2-0.4c0,0-0.2,0-0.2,0.1l0.2,0.8l-0.4-0.7V54l0.6,1.1c0,0-0.6-1.1-0.6-0.9c0,0.2,0,0.2,0,0.2v0.8
		L47.4,54c0,0-0.2-0.3-0.2-0.2c0,0.1,0.1,1.1,0.1,1.1l-0.2-0.8L47,54.7c0,0,0.1-0.3,0.1-0.5l0.1-0.6l-0.1-0.2v1.2L47,53.9l-0.1,1.8
		v-1.9l-0.2,0.2L46.7,55v-0.8c0,0.1-0.1,0.2-0.1,0.2l-0.1,1.2v-1.4v-0.6L46.4,54l-0.1,0.5v-0.8l-0.2,0.4v-0.3l0.1-0.6l-0.2,0.1
		L46,53.7l-0.1-0.2h-0.2v0.3c0,0,0.2,0.2,0.2,0.3v0.2c0,0-0.1,0.1,0,0.4l0.2,0.5c0,0-0.2-0.5-0.3-0.8c-0.1-0.2-0.1-0.3-0.2-0.5
		l-0.1,1.2c0,0-0.1-1.4-0.1-1.5S45.3,53,45.3,53l-0.1,0.9L45,53.3c0,0-0.1,0-0.1,0.2v0.2c0,0,0,0.2,0,0.3c0.1,0.2,0.1,0.2,0.1,0.2
		l-0.2-0.5c0,0-0.1-0.3-0.1-0.5s0-0.4,0-0.4s-0.2,0.2-0.2,0.5c0,0.3-0.1,0.8-0.1,0.9c0,0.2,0,0.2,0,0.3c0,0.2-0.1,0.4,0,0.5
		c0,0.2,0,0.2,0,0.2s0.3,0,0.5,0.2c0.2,0.2,0.2,0.3,0.2,0.3s-0.2-0.3-0.5-0.4c-0.2-0.1-0.2,0-0.2,0.2c0,0.2,0.2,0.2,0.2,0.4
		s0.2,0.2,0.2,0.3c0.1,0.1-0.1,0-0.2-0.2c-0.2-0.2-0.1-0.2-0.2-0.3s-0.2-0.2-0.2-0.2s0,0.4,0,0.5s0.1,0.2,0,0.2
		c-0.1,0-0.1,0.1-0.1,0.2s0.1,0.6-0.1,0.5c-0.1-0.2-0.3-0.1-0.3,0.2v0.5c0,0,0.5,0.5,0.6,0.7l0.2,0.2c0,0-0.5-0.6-0.6-0.8l0.1,0.2
		c0,0,0.1,0.2,0,0.2s0,0.2,0,0.3v0.1c0,0-0.2-0.2-0.2-0.2s0,0.2,0,0.2s0.2,0.4,0.3,0.5c0,0.1,0.2,0.2,0.2,0.2c0,0.1,0.1,0.2,0.1,0.2
		s-0.4-0.7-0.5-0.7s0.3,0.5,0.3,0.5s-0.3-0.5-0.4-0.5c-0.1,0-0.2,0.2,0,0.3l0.2,0.2c0.2,0.2,0.4,0.5,0.5,0.5
		c0.1,0.2,0.2,0.2,0.2,0.2s-0.5-0.5-0.6-0.6s0.3,0.9,0.3,1.5s0,0.5,0,0.5s0-0.7-0.2-1.3c-0.1-0.4-0.3-0.7-0.3-0.7
		c-0.1,0,0,0.5,0,0.8v0.6l-0.1-0.5v0.9l-0.2-1.1c0,0,0-0.5,0-0.7v-0.2l-0.2,0.2c0,0,0,0.4,0,0.5l0.2,0.6c0,0-0.2-0.5-0.2-0.5
		l-0.2,0.5c0,0,0.2,0.8,0.2,1.1c0,0.4,0,0.4,0,0.4s-0.1-0.6-0.2-1.1c-0.1-0.2-0.2-0.3-0.2-0.3s0,0.3-0.1,0.4
		c-0.1,0.2-0.1,0.1-0.1,0.2c0,0.2,0,0.2,0,0.2c0,0.2,0,0.2-0.1,0.3c-0.1,0.1-0.1,0.2-0.1,0.2s0.2,0.4,0.3,1c0.1,0.7,0.1,0.7,0.1,0.7
		s-0.1-0.8-0.2-1.2c-0.1-0.3-0.2-0.4-0.2-0.4l-0.1,0.4l0.3,0.8c0,0-0.3-0.8-0.3-0.6l-0.1,0.4l0.4,0.8c0,0-0.4-0.8-0.5-0.7
		c-0.1,0.1,0,0.2-0.1,0.2s0,0.2,0,0.2v0.2l0.6,0.9c0,0-0.5-0.6-0.6-0.8c-0.2,0.1-0.2,0.4-0.2,0.5l0.2,0.8c0,0-0.3-0.8-0.3-0.7
		c0,0.1-0.2,0.4-0.2,0.4s0.4,0.5,0.5,0.9c0.2,0.3,0.2,0.3,0.2,0.5c0.1,0.2-0.5-0.8-0.6-1.1c-0.2-0.2-0.2-0.2-0.2-0.2
		s-0.1,0.1-0.1,0.2c0,0.1,0,0.2,0,0.3c0,0.1,0.5,0.9,0.5,0.9s-0.5-0.8-0.5-0.8s0,0.2-0.1,0.2c0,0.1,0,0.3,0,0.3s0.1,0,0.2,0.5
		c0,0.1,0,0.2,0,0.2s0,0.5,0,0.5s-0.1-0.5-0.1-0.6s-0.1-0.5-0.2-0.4c-0.1,0.2,0,0.2-0.1,0.4c0,0.2-0.1,0.2-0.1,0.2l0.1,1.2l-0.2-1.1
		c0,0,0,0.2-0.1,0.2c-0.1,0.2,0,0.2-0.1,0.3c-0.1,0.2-0.1,0.2-0.1,0.3c0,0.2,0,0.2,0,0.2c-0.1,0.1,0,0.3,0,0.3l0.1,0.8
		c0,0-0.1-0.6-0.2-0.7c-0.1-0.1-0.2,0.2-0.2,0.3c0,0-0.1,0.2-0.2,0.2c-0.1,0.1-0.1,0-0.1,0.2s0,0.8,0,0.8s0-0.4-0.1-0.5
		C40.9,69,40.8,69,40.8,69l-0.1,0.4c0,0.2-0.1,0.2-0.1,0.2l-0.2-0.2h-0.2l-0.1,0.2L40,69.8v0.3l0.4,0.3c0,0-0.4-0.3-0.5-0.2
		c0,0.2,0,0.2-0.1,0.3c0,0.2,0,0.3,0,0.3c-0.1,0-0.1,0.2-0.1,0.3c0,0.1,0,0.2,0.1,0.2c0.1,0.1,0.2,0.1,0.2,0.3c0,0.2-0.1,1.4-0.2,2
		c-0.1,0.6-0.2,0.9-0.2,1s0,0.2-0.1,0.2c0,0,0-0.1-0.1,0.1c0,0.2-0.1,0.4-0.1,0.5s0,0.2-0.1,0.4c0,0.2-0.1,0.2-0.2,0.4
		c0,0.2,0,0.3-0.1,0.4c-0.1,0.1-0.2,0.4-0.2,0.5s-0.1,0.2-0.1,0.3c0,0.2-0.1,0.4,0,0.6c0.1,0.2,0.1,0.3,0,0.5
		c-0.1,0.2-0.5,1-0.6,1.2C38.1,80,38,80,37.9,80.1c-0.1,0.1-0.2,0.2-0.2,0.1s-0.2-0.1-0.2,0s-0.1,0.1-0.1,0.2c0,0.2,0.2,0.3,0.4,0.5
		C37.9,81,38,81,38,81.7c0,0.7,0.1,1.5,0,2.7c-0.1,1.1-0.2,1.4-0.5,1.9c-0.2,0.5-0.5,0.6-0.5,0.6c-0.1,0-0.2,0-0.2,0.2
		c-0.1,0.2-0.1,0.4-0.3,0.5c-0.2,0.2-0.2,0.2-0.4,0.3C36,88,36,88.2,36,88.2s0-0.1-0.1-0.1s-0.3,0-0.4,0c-0.2,0-0.2-0.2-0.2-0.2
		l-0.2,0.2c0,0,0.1-0.1,0-0.2c-0.1-0.1-0.3-0.2-0.3-0.5c0-0.2-0.2-0.4-0.3-0.5c-0.1-0.1-0.5-0.7-0.6-1.5c-0.1-0.5-0.2-0.9-0.1-1.8
		c0-0.3,0.2-0.8,0.2-1.2c0.2-1.5,0.3-1.7,0.5-1.9c0.1-0.2,0.1-0.3,0.2-0.5s0.3-0.2,0.4-0.2c0.1,0,0.1-0.4-0.2-0.4
		c-0.2,0-0.5-0.2-0.6-0.7s0-0.8,0-1c0-0.2,0-0.1,0-0.2c0.1-0.1,0.2-0.2,0.2-0.4s0-0.2,0-0.3c0-0.1-0.1-0.1-0.1-0.1l-0.2,0.4
		c0,0,0.3-0.5,0.5-0.6c0.1-0.2,0.1-0.3,0.2-0.5c0.2-0.2,0.2-0.1,0.2-0.3c0.1-0.2,0.1-0.3,0.1-0.3l-0.4,0.2c0,0,0.3-0.1,0.4-0.2
		c0.1-0.2,0.3-0.6,0.3-0.6s-0.2-0.1-0.4,0.1c-0.2,0.2-0.2,0.2-0.2,0.2s0.2-0.2,0.3-0.2c0.1-0.1,0.2-0.1,0.3-0.1
		c0.2,0,0.2-0.4,0.3-0.5v-0.1c0,0-0.2,0-0.5,0.2c-0.3,0.2-0.5,0.3-0.5,0.3s0.2-0.2,0.4-0.3c0.2-0.2,0.6-0.2,0.6-0.2l0.1-0.2
		c0,0-0.2,0-0.3,0c-0.2,0.1-0.2,0.1-0.2,0.1s0.3-0.2,0.4-0.2c0.2,0,0.2-0.2,0.2-0.3c0-0.2,0-0.1,0.1-0.2c0.1-0.1,0.3-0.5,0.5-0.7
		c0.2-0.2,0.2-0.5,0.4-0.7c0.2-0.2,0.1-0.3,0.1-0.3s-0.2,0-0.4,0.2c-0.3,0.2-0.3,0.2-0.5,0.3h-0.2c0,0,0.3-0.1,0.4-0.3
		c0.2-0.2,0.7-0.3,0.7-0.3s0.1-0.2,0.1-0.3v-0.2c0,0-0.2,0-0.5,0.2c-0.3,0.2-0.4,0.2-0.4,0.2s0.2-0.2,0.5-0.3
		c0.2-0.2,0.5-0.2,0.5-0.2l0.1-0.5c0-0.1,0-0.2,0-0.2s-0.2,0.1-0.5,0.2c-0.2,0.2-0.5,0.2-0.5,0.2s0.5-0.2,0.6-0.2
		c0.2-0.1,0.3-0.2,0.3-0.2c0-0.2,0.1-0.8,0.1-0.8s-0.2-0.2-0.6-0.1c-0.4,0-0.9,0.1-0.9,0.1s1-0.2,1.1-0.1c0.2,0,0.4,0.1,0.4,0.1
		v-0.2c0,0-0.5-0.2-0.7-0.1h-0.2c0,0,0.2-0.1,0.3-0.1s0.4,0,0.5,0c0.2,0,0.2,0.1,0.2-0.2c0-0.2,0-0.2,0.1-0.3c0.1-0.1,0-0.4-0.1-0.4
		s-0.4,0.1-0.4,0c0-0.1-0.1-0.1-0.2,0c0,0.1-0.2,0.2-0.2,0.2s0.1-0.2,0.2-0.2c0.1-0.1,0.2,0.1,0.2,0c0.1-0.1,0.1-0.2,0-0.2
		c0,0-0.1-0.1,0-0.1c0.1-0.1,0.1-0.2,0.2-0.3c0.1-0.1,0.1-0.1,0-0.2c0-0.2,0-0.2,0-0.3c0-0.1-0.1,0-0.1,0l-0.2,0.5l0.3-0.4
		c0.1-0.1,0.1-0.2,0.1-0.4c0-0.2,0.1-0.2,0.1-0.2s0,0-0.1,0c-0.2,0-0.5,0.2-0.6,0.4l-0.2,0.2c0,0,0.1-0.2,0.3-0.4
		c0.2-0.2,0.4-0.2,0.5-0.3c0.2-0.1,0.2,0,0.2-0.2c0-0.2,0-0.3,0-0.3s-0.3,0.2-0.5,0.2s-0.2,0.1-0.2,0.2c-0.1,0.1,0-0.1,0.2-0.2
		c0.2-0.2,0.6-0.2,0.6-0.3c0-0.1,0-0.2,0-0.2s-0.2,0.1-0.3,0.2l-0.2,0.2c0,0,0.2-0.2,0.3-0.3c0.2-0.1,0.1-0.1,0.2-0.2
		c0.1-0.1,0.2-0.1,0.2-0.2c0-0.1-0.5,0.2-0.5,0.3c-0.2,0.2-0.1,0-0.1,0s0.2-0.2,0.4-0.3c0.2-0.2,0.2-0.2,0.2-0.2s0.1-0.1,0.1-0.2
		v-0.2c0,0-0.3,0-0.4,0.2s0,0.2-0.2,0.4c-0.2,0.2-0.3,0.2-0.5,0.3C37,65.9,37,66,37,66c0.1,0,0.2-0.2,0.2-0.2c0.2,0,0.5-0.2,0.5-0.4
		c0-0.2,0.1-0.3,0.2-0.4c0.2-0.1,0.2,0,0.3-0.2c0.1-0.1,0.2-0.6,0.2-0.5c0,0-0.1,0-0.5,0.2c-0.4,0.2-0.5,0.2-0.8,0.2s-0.2,0-0.2,0
		s0.3-0.1,0.5-0.2c0.2-0.1,0.3-0.1,0.5-0.2c0.2-0.1,0.2-0.1,0.3-0.2c0.1-0.1,0.1-0.2,0.1-0.2s-0.2,0-0.3,0.2
		C38,64.4,38,64.5,38,64.4c0-0.1,0.2-0.3,0.4-0.4c0.2-0.1,0.2-0.1,0.2-0.1s0-0.1,0.1-0.2c0.1-0.1,0.1-0.2,0.1-0.2s-0.3,0-0.5,0.1
		c-0.3,0.1-0.5,0.1-0.5,0.1c-0.1,0-0.2,0.1-0.2,0.1c-0.1,0.1-0.2,0.1-0.2,0.1s0.5-0.2,0.6-0.3c0.2,0,0.2-0.2,0.5-0.2
		c0.2,0,0.2-0.1,0.2-0.1s0-0.1,0.1-0.3l0.1-0.2c0,0-0.2,0-0.3,0.1C38.3,63,38.3,63,38.2,63l0.5-0.4c0,0,0,0.1,0.1-0.2
		c0-0.2,0.1-0.2,0.1-0.2s-0.2,0-0.4,0.2c-0.1,0.1-0.2,0.2-0.2,0.3C38,63,38,63,38,63l0.5-0.6c0-0.1-0.2,0-0.5,0
		c-0.2,0-0.2,0-0.4,0.2c-0.1,0.2-0.2,0.2-0.2,0.2l0.2-0.3c0,0,0.4-0.1,0.5-0.2c0.2-0.1,0.3,0,0.5-0.1c0.1-0.1,0.2,0,0.3-0.1
		c0.1-0.1,0.2-0.2,0.1-0.2c-0.1,0,0.1,0-0.4,0c-0.3,0-0.4-0.1-0.6,0.1c-0.2,0.1-0.2,0.2-0.3,0.2c-0.2,0-0.2,0-0.2,0s0.5-0.2,0.7-0.2
		c0.2,0,0.3,0,0.5-0.1c0.2,0,0.4,0,0.5,0c0.1,0,0.1,0,0.1-0.1s0-0.1,0-0.2c0-0.1-0.2-0.1-0.1-0.1s0.2-0.2,0.2-0.5l0.1-0.2
		c0,0-0.4,0.1-0.6,0.3c-0.2,0.2-0.2,0.2-0.2,0.2s0.1-0.2,0.2-0.3c0.2-0.2,0.3-0.2,0.4-0.2c0.2-0.1,0.2,0,0.2,0
		c0.1-0.2,0.1-0.2,0.1-0.3c0.1-0.1,0.1-0.1,0.1-0.2c0-0.1,0-0.1,0.1-0.2c0.1-0.1,0.1-0.3,0.1-0.5c0-0.2,0.1-0.2,0.2-0.3
		c0.1-0.1,0.2-0.5,0.2-0.6s0.1-0.2,0.2-0.3c0.1-0.2,0.2-0.2,0.1-0.2c0-0.1-0.2-0.2-0.3-0.2s-0.2,0.2-0.4,0.2
		c-0.2,0.1-0.1-0.1-0.3,0.1l-0.3,0.2c0,0,0.3-0.3,0.5-0.5s0.3-0.2,0.4-0.2c0.2,0,0.2-0.2,0.2-0.1c0.1,0,0.1,0.2,0.2,0.1
		c0.1-0.1,0.2-0.3,0.1-0.4c0-0.1-0.1-0.1-0.2-0.1c-0.1,0-0.2,0-0.4,0c-0.1,0.1-0.2,0.1-0.2,0.1s0,0,0.2-0.1c0.2-0.1,0.5-0.1,0.5-0.2
		c0.1,0,0.2,0,0.1-0.2c0-0.1,0-0.1-0.2-0.1c-0.2,0.1-0.2,0-0.2,0.1c-0.1,0-0.2,0,0.1-0.1c0.2-0.1,0.2-0.1,0.3-0.2
		c0-0.1,0.2-0.2,0-0.2c-0.1,0-0.2,0-0.2,0s0,0-0.1,0.1l-0.5,0.7c-0.1,0.1,0.1-0.1,0.2-0.2s0.2-0.2,0.4-0.3c0.1-0.1,0.2-0.2,0.2-0.2
		s0.1-0.2-0.1-0.2c-0.1-0.1-0.1-0.2-0.1-0.3c0-0.1,0-0.3,0-0.5c0-0.2-0.1-0.2-0.1-0.2l-0.2,0.4c-0.1,0.1-0.2,0-0.2,0.2
		s-0.1,0.2-0.1,0.4c0,0.3,0,0.3,0,0.4s0-0.2,0-0.5c0-0.1,0-0.2,0-0.2c0.1-0.2,0.2-0.2,0.2-0.3s0.2-0.3,0.2-0.5s0-0.2,0-0.2
		c0-0.1,0-0.3,0-0.3s-0.2,0.3-0.2,0.5c-0.1,0.2-0.1,0.4-0.2,0.5c0,0.1,0-0.1,0-0.3c0.1-0.2-0.1-0.2-0.1-0.2s-0.2,0.2-0.2,0.4
		c-0.1,0.2-0.1,0.1,0-0.1c0.1-0.2-0.1,0-0.1,0s0,0-0.1,0.3c0,0.2,0,0.3,0,0.4c0,0-0.1-0.1-0.1-0.3V56c0,0,0.2-0.4,0.2-0.5
		c0.1-0.2-0.1-0.2-0.2,0c-0.1,0.2-0.1,0.2-0.2,0.4c0,0.1,0.2-0.5,0.3-0.8s0.2,0,0.3-0.5c0-0.5,0-0.7,0-0.7s-0.1-0.3-0.1-0.2
		s-0.3,1.1-0.5,1.5c-0.2,0.3-0.3,0.4-0.3,0.4s0.5-0.7,0.5-1.1c0.2-0.5,0.2-0.8,0.3-0.9c0.1-0.2,0.1-0.2,0.1-0.4
		c-0.1-0.2-0.2,0-0.2,0.2c-0.1,0.2-0.3,0.6-0.5,1.1c-0.2,0.4-0.2,0.9-0.3,1.1c0,0.2,0,0,0.1-0.5c0.1-0.4,0.4-1.2,0.5-1.5
		c0.2-0.3,0.2-0.5,0.2-0.5s-0.3,0.6-0.5,1.1c-0.2,0.5-0.2,0.5-0.2,0.5s0.4-0.8,0.5-1.1l0.1-0.2c0,0-0.1-0.1-0.3,0.3
		c-0.3,0.5-0.4,0.7-0.5,0.8l-0.1,0.2l0.2-0.5l0.9-1.5l-0.8,1.1l0.7-1.1l-0.5,0.6l0.3-0.8l-0.3,0.4l0.2-0.5l-0.2,0.4
		c0,0-0.4,0.5-0.5,1c-0.2,0.5-0.2,0.6-0.2,0.6s0.3-0.9,0.5-1.3c0.2-0.5,0.2-0.3,0.4-0.5c0.2-0.3,0.1-0.2,0.1-0.2s-0.3,0.2-0.5,0.5
		c-0.2,0.3-0.3,0.5-0.4,0.6c-0.1,0.2-0.1,0.2-0.1,0.2l0.2-0.6c0,0-0.2,0.2-0.5,0.5c-0.2,0.2-0.3,0.3-0.3,0.3s0.1-0.1,0.2-0.2
		c0.3-0.4,0.8-0.9,1.1-1.1c0.2-0.2,0.2-0.2,0.2-0.2v-0.2c0-0.1-0.3,0.1-0.4,0.2l-0.5,0.4c0,0,0,0,0.3-0.3c0.3-0.3,0.6-0.5,0.6-0.5
		s-0.2-0.1-0.6,0.2c-0.4,0.3-0.5,0.3-0.7,0.6c-0.2,0.2,0.1-0.2,0.3-0.5c0.2-0.2,0.9-0.5,0.9-0.5s-0.1-0.5-0.1-0.6s0-0.1,0.1-0.2
		c0-0.2,0-0.2,0.1-0.4c0-0.1,0-0.3,0-0.5c0-0.2,0.2-0.3,0.1-0.4c-0.1-0.2-0.1-0.4-0.2-0.6c-0.1-0.2-0.2-0.2-0.2-0.2s-0.1,0-0.1,0.1
		s0.2,0.8,0.2,0.8l-0.2-0.8l0.1,0.6c0,0,0.1-0.6,0.1-0.8s0-0.2-0.1-0.2c-0.1,0-0.2,0.1-0.2,0.1s-0.2,0.4,0,0.8
		c0.2,0.3,0.3,1.1,0.3,1.1l-0.4-1.4c0,0-0.1,0.2-0.2,0.8l-0.1,0.8c0,0,0-0.7,0-1s0.2-0.8,0.1-0.9h-0.2c0,0,0.1,0.2,0,0.4
		c0,0.1,0,0.1-0.1,0.3c-0.1,0.2,0-0.1,0-0.3c0-0.2,0.1-0.4,0.1-0.4H38c0,0-0.4,1.1-0.4,0.9c0-0.1,0.3-0.9,0.3-0.9h-0.2l-0.2,0.8
		c0,0,0.3-0.9,0.2-0.8c-0.2,0,0,0.2,0,0.2L37.2,50l0.2-0.3c0.2-0.3,0.3-1,0.3-1h-0.2c0,0-0.1,0.1-0.2,0.6c0-0.1,0-0.6,0-0.6h-0.1
		L37,49.2L37,48.7l-0.1,0.6v-0.6l-0.2,0.8v-0.8L36.6,50l0.1-1.3c-0.1,0-0.2,1.2-0.2,1.1s0-1.1,0-1.1h-0.1c0,0,0,0.1-0.1,0.2L35.8,50
		c0,0,0,0,0.2-0.5c0.2-0.5,0.3-0.9,0.3-0.9s-0.1-0.1-0.2,0c-0.1,0-0.5,0.9-0.5,0.9l0.5-0.9c-0.1,0-0.5,1.1-0.5,0.8
		c0.1-0.2,0.3-0.8,0.3-0.8h-0.2c0,0-0.2,0.5-0.2,0.5c0-0.1,0.1-0.5,0-0.5c0-0.1,0,0-0.1,0.2s-0.3,0.7-0.3,0.7s0.1-0.2,0.2-0.3
		c0.1-0.2,0.2-0.5,0.2-0.5c-0.2,0-0.2,0-0.2,0.1c-0.1,0.2-0.1,0.3-0.2,0.5c-0.1,0.2-0.3,0.8-0.3,0.6c0-0.2,0.2-0.5,0.3-0.8
		c0.2-0.4,0-0.5,0-0.5s-0.2-0.1-0.2,0c0,0-0.1,0.3-0.2,0.5c-0.2,0.3-0.3,0.5-0.2,0.5c0.2-0.2,0.3-1,0.3-1l-0.1,0.2
		c-0.1,0.1-0.8,1.4-0.5,0.6c0.1-0.2,0.5-0.8,0.5-0.8s0-0.1-0.1-0.1c-0.1,0-0.2,0-0.2,0L34,49.2l0.5-1.1l-0.8,1.1l0.8-1.1l-1.4,2.1
		l1.2-2.1c0,0,0-0.1-0.1-0.1s-0.4,0.5-0.4,0.5l0.3-0.5l-0.9,0.9L34,48l0.1-0.2l-0.5,0.2l0.5-0.3l-0.3-0.1l-0.3,0.2l0.2-0.2l-0.2-0.1
		l-0.3,0.7l0.2-0.7L33,47.5c0,0-0.1,0-0.1,0.2s0,0.7,0,0.7v-0.2c0-0.2,0-0.3,0-0.3l-0.3,0.4c0,0,0,0,0.2-0.2
		c0.1-0.2,0.2-0.8,0.2-0.8s-0.2-0.1-0.3,0c-0.2,0.1-0.1,0-0.2,0.3c-0.1,0.2-0.1,0.3-0.2,0.5c-0.1,0.2-0.2,0.2-0.2,0.2
		s0.1-0.1,0.2-0.3c0.1-0.3,0.1-0.6,0.1-0.6s-0.2,0-0.3,0.2C32,47.8,32,47.8,32,47.9c0,0.1,0,0.1-0.1,0.2c0,0.1-0.4,1-0.4,1l0.1-0.2
		c0.1-0.2,0.2-0.5,0.2-0.7c0-0.1,0.1-0.2,0.1-0.2L31.8,48l0.1,0.2l-0.1,0.2l-0.1,0.1v0.2h-0.1v0.7l-0.1-0.5c0,0,0,0-0.1,0.1
		c-0.1,0.1-0.1,0.1-0.1,0.1l0.1,0.7c0,0-0.1-0.5-0.1-0.5s-0.1,0.1-0.2,0.2c-0.1,0.1,0,0.2,0,0.2l0.2,0.7l-0.3-0.5c0,0-0.1,0-0.2,0
		c-0.1,0-0.1,0.1-0.2,0.2c0,0.1,0,0.1,0,0.2c0,0.1,0,0.1-0.1,0.2c-0.1,0.1-0.1,0.2-0.1,0.2c0,0.1-0.1,0.1-0.2,0.1v0.2l-0.1,0.8v-0.8
		c0,0-0.1-0.2-0.1,0s-0.1,0.2-0.1,0.2l-0.1,0.1c-0.1,0.1,0,0-0.1,0c-0.1,0-0.1,0-0.1,0.1s0.2,0.5,0.2,0.5L30,51
		c-0.1,0-0.2,0-0.2,0.1s0.1,0.5,0.1,0.5l-0.1-0.5l-0.2,0.1c-0.1,0.1-0.1,0-0.1,0.1c0,0.1,0.1,0.4,0.1,0.4l-0.2-0.2c0,0,0,0-0.1,0
		c-0.1,0-0.2,0.2-0.2,0.2c0,0.1,0.1,0.8,0.1,0.8l-0.1-0.6h-0.1v0.6L29.1,52L28.9,52v0.9l-0.1-0.8c0,0-0.1,0-0.2,0.2
		c0,0.2,0.1,0.8,0.1,0.8l-0.2-0.7c0,0,0,0-0.1,0.1c-0.1,0.1-0.1,0.1-0.1,0.2c0,0-0.1,0.1-0.2,0.2c-0.1,0.1-0.1,0.1-0.2,0.2
		c0,0.1,0.2,0.3,0.2,0.5c0,0.1,0.1,0.3,0,0.3c-0.1,0.1-0.1,0.5-0.1,0.5v-0.3c0-0.2,0-0.2,0.1-0.3c0-0.2,0-0.2-0.1-0.3l-0.1-0.4
		c-0.1,0.1-0.2,0.1-0.2,0.2C28,53,28,53,28,53.1S28,53.2,28,53.2c-0.1,0.2-0.2,0.2-0.2,0.2v0.2c0,0.2-0.1,0.5-0.1,0.6l-0.2,0.5
		c0,0,0,0,0.2-0.5c0.1-0.2,0.1-0.3,0.1-0.4c0-0.2,0-0.3,0-0.3s0,0.1-0.1,0.2c-0.1,0.2-0.1,0.2-0.2,0.3c-0.2,0.1-0.1,0.1-0.1,0.2
		c0,0.1-0.1,0.2-0.2,0.2c-0.1,0.1-0.2,0.3-0.4,0.5c-0.2,0.2-0.2,0.3-0.2,0.3s0,0.2-0.1,0.2c0,0.2,0.2,0.5,0.2,0.5l-0.3-0.5h-0.2v0.2
		l-0.1,0.1v0.6v-0.6c-0.2,0-0.2,0.2-0.2,0.2L26,56.6c0,0,0.1-0.2,0.1-0.4s0-0.4,0-0.4H26l-0.1,0.4l-0.2,0.2v0.2
		c0,0.2,0.1,0.7,0.1,0.7l-0.1-0.5v0.4l-0.1-0.3c0,0-0.1,0.1-0.1,0.2c0,0,0,0.1-0.1,0.2l-0.2,0.5l0.1,0.4l-0.2-0.4
		c0,0-0.1,0.1-0.2,0.2s0,0-0.1,0.1c-0.1,0.1,0,0.1,0.1,0.2c0.1,0.2,0,0.5,0,0.5s0,0,0-0.2c0-0.2-0.1-0.3-0.1-0.3s-0.1,0.4-0.1,0.5
		v0.2v0.8c0,0-0.1-0.7-0.1-0.8c0-0.2-0.1-0.2-0.1-0.2s-0.2,0.2-0.2,0.5c-0.1,0.2-0.2,0.3-0.2,0.4l-0.2,0.2v-0.2c0,0-0.1-0.1-0.2,0
		c-0.1,0.1-0.2,0.1-0.2,0.1v-0.2l-0.2,0.1l-0.1,0.2c-0.1,0.2-0.2,0.3-0.2,0.3v-0.4h-0.1l0,0.5l-0.1-0.5c-0.1,0-0.2,0-0.3,0.2
		c-0.2,0.1-0.2,0.2-0.2,0.2C22.8,60,22.8,60,22.8,60c0,0.1,0,0.1-0.2,0.1c-0.1,0-0.1,0.2-0.1,0.2c0,0.1,0.2,0.3,0.2,0.3l-0.2-0.3
		c0,0-0.1,0.1,0,0.2c0,0.1,0.2,0.3,0.2,0.3l-0.2-0.3l-0.1,0.2c0,0.1,0,0.2,0,0.2s0.1,0.1,0.1,0.2c0.1,0.2,0.2,0.6,0.2,0.6
		s-0.1-0.2-0.2-0.4c0-0.1-0.2-0.2-0.2-0.2l0.1,0.3l-0.2-0.2l0.1,0.5c0,0-0.1-0.2-0.1-0.2c0-0.1-0.1-0.1-0.1-0.2l-0.1-0.2
		c0,0,0,0.2,0,0.2s0.1,0.3,0.1,0.3v0.5c0,0,0-0.2,0-0.2c0-0.1-0.1-0.4-0.1-0.5c0-0.1-0.1-0.2-0.1-0.2l0,0c-0.1,0.1-0.1,0.1-0.1,0.2
		c0,0.2,0,0.3-0.1,0.4c-0.2,0.1,0,0,0,0.2c0,0.2,0,0.1-0.2,0.1c-0.1,0-0.1,0-0.2,0.2c-0.1,0.2-0.6,1-1.1,1.6
		c-0.2,0.2-0.6,0.8-1.1,1.4c-0.7,0.8-1.4,1.5-1.6,1.7c-0.3,0.3-1,0.8-1.1,0.9c-0.2,0.2-0.2,0.2-0.2,0.2v0.3c0,0,0-0.4-0.1-0.5
		c0-0.2,0-0.1-0.2,0c-0.1,0.1-0.1,0.1-0.1,0c0-0.2,0-0.2-0.2-0.1c-0.2,0.1-0.2,0.2-0.1,0.3c0.1,0.1,0.2,0.4,0.2,0.5
		c0,0.2,0.1,0.2,0.1,0.2s-0.2-0.2-0.2-0.4c-0.1-0.2-0.2-0.2-0.2-0.2s0,0.2,0,0.2c0,0,0,0.1,0.1,0.3c0.1,0.2,0.2,0.8,0.2,0.8v-0.2
		c0-0.2-0.2-0.4-0.2-0.6c-0.1-0.2-0.2-0.2-0.2-0.2c0,0.2,0,0.3-0.1,0.2c-0.1,0,0.1,0.5,0.2,0.8c0.1,0.4,0.4,0.7,0.4,0.7l-0.3-0.5
		v0.4c0,0-0.2-0.8-0.3-1.1c0-0.3-0.1-0.4-0.1-0.4s-0.1,0-0.1,0.2c0,0.1-0.2,0.1-0.2,0.2c-0.1,0.1,0,0.1-0.2,0.1
		c-0.1,0-0.1,0-0.1,0.2c0,0.1,0,0.3-0.1,0.5c0,0.2-0.1,0.2-0.1,0.2c0,0,0.1-0.2,0.1-0.3c0-0.2,0-0.2,0-0.2c-0.2,0.1-0.4,0.4-0.4,0.4
		v0.5l0.1-0.3c0,0-0.4,0.3-0.5,0.5c-0.2,0.2-0.2,0.2-0.4,0.3c-0.2,0.1-0.4,0.2-0.5,0.3C13.2,71,13.2,71,13.1,71
		c-0.1,0.1,0,0-0.2,0.2c-0.2,0.2-0.6,0.5-0.7,0.5c-0.1,0.1-0.4,0.4-0.4,0.4c0.1-0.1,0.2-0.3,0.2-0.3s-0.1,0-0.2,0.1
		c0,0-0.2,0.2-0.8,0.3c-0.3,0-1.1,0-1.1,0s-0.2-0.1-0.2-0.1L9.7,72c0-0.2-0.2-0.2-0.2-0.2c-0.1,0-0.1-0.1,0-0.2c0-0.2,0-0.2,0-0.3
		s0.1-0.3,0.2-0.5c0-0.2,0-0.2,0-0.3c0-0.1,0-0.1,0-0.2s0.2,0,0.2-0.2c0-0.1,0.1-0.2,0.2-0.2c0.1,0,0.1-0.1,0.1-0.2
		c0-0.1,0.1-0.1,0.2-0.2c0.1-0.2,0.1-0.2,0.2-0.3c0.2-0.2,0.3-0.2,0.4-0.2c0.1-0.1,0.1-0.1,0.3-0.2c0.2,0,0.2-0.1,0.2-0.2
		c0-0.1,0-0.1,0.2-0.2c0.2-0.1,0.2-0.1,0.1-0.2c-0.2-0.1,0.1-0.1,0-0.2c-0.1-0.1-0.3-0.3-0.5-0.4c-0.2-0.1-0.3-0.1-0.4-0.2
		c-0.2,0-0.2,0,0,0c0.2,0,0.3,0,0.5,0.2c0.2,0.1,0.3,0.2,0.3,0.2c0.1,0.1,0.1,0.1,0.2,0c0.1-0.1,0.2-0.1,0.2-0.1s0-0.1,0.1-0.1
		c0.2,0,0.2,0,0.2-0.1c0.1-0.1,0,0,0.2,0c0.1,0,0.2-0.1,0.3-0.2c0.1-0.1,0.2-0.2,0.2-0.2s0,0-0.2,0c-0.2,0-0.5-0.1-0.7-0.2l-0.8-0.1
		c0,0,0.2-0.1,0.8,0c0.2,0,0.5,0.1,0.5,0.1c0.3,0,0.3,0,0.4,0c0.2,0,0.4-0.2,0.4-0.2c0-0.1-0.2-0.2-0.2-0.2c-0.1,0-0.2-0.1-0.2-0.1
		s0.1,0,0.2,0c0.1,0,0.2,0,0.3,0.1c0.1,0,0,0.1,0.1,0.1c0.2,0.1,0.1-0.2,0.2-0.2c0.1,0,0.1,0,0.2-0.1s0.2,0,0.3-0.1
		c0.1,0,0-0.2,0.1-0.2c0.1,0.1,0.1,0,0.1,0s0.1-0.2,0-0.2s-0.1,0-0.2-0.1c-0.1-0.1-0.2-0.1-0.3-0.2c-0.2-0.1-0.7-0.5-0.7-0.5
		s0.2,0.2,0.4,0.2c0.3,0.2,0.6,0.3,0.6,0.3c0-0.2-0.7-0.8-0.7-0.8c0.1,0.1,0.4,0.3,0.5,0.5c0.1,0.1,0.3,0.4,0.3,0.3
		c0.1,0.1,0.1,0.1,0.2,0.2c0.1,0.1,0.2,0,0.2-0.1c0-0.2,0.1-0.1,0.1-0.2c0-0.2,0-0.2-0.1-0.2h-0.2c0,0,0.2,0,0.2-0.1
		c0.1,0,0.1,0,0-0.2c0-0.2,0-0.1,0.1-0.2c0.1-0.1,0.1-0.1,0.2-0.2c0.1-0.2,0.1-0.2-0.2,0c-0.3,0.2-0.5,0.4-0.5,0.4s0,0,0.2-0.2
		c0.2-0.2,0.6-0.3,0.6-0.3s0,0,0.2,0c0.2,0,0,0,0.1-0.2c0-0.1,0.2-0.1,0.2-0.2c0.1-0.1,0-0.2-0.3-0.1c-0.4,0.2-0.8,0.4-0.8,0.4
		s0.1-0.1,0.5-0.2c0.4-0.2,0.6-0.2,0.6-0.2c0.1,0,0.2,0,0.2-0.1c0.1-0.1,0.2-0.1,0.2-0.2c0.1-0.1,0,0,0.1,0s0.1,0,0.1-0.2
		c0-0.1,0.1-0.2,0.2-0.1c0.1,0,0.1-0.1,0.1-0.2c0-0.1-0.2-0.1-0.5-0.1c-0.3,0-0.8,0.1-0.8,0.1H15c0.2,0,0.2-0.1,0.4-0.1
		c0.2,0,0.5,0,0.5,0s0.2-0.1,0.3-0.2c0.2-0.1,0.2-0.2,0.1-0.2c0-0.1-0.1,0-0.2-0.1l-0.4-0.1c0,0,0.1,0,0.2,0c0.2,0,0.5,0.1,0.5,0
		s0.2,0,0.2-0.1c0,0-0.1-0.1-0.2-0.1s-0.2,0-0.4,0c-0.2,0-0.5,0-0.5,0s0,0,0.3,0h0.6h0.2c0.2,0,0.2,0,0.2-0.1l0.1-0.1
		c0,0-0.3,0-0.6,0c-0.3,0.1-0.8,0.2-0.8,0.2l0.2-0.2c0.2-0.1,0.8-0.2,0.6-0.2s0.6-0.1,0.7-0.1C17,63.2,17,63,17,63
		c0-0.1,0.2-0.1,0.2-0.2c0-0.1,0.2-0.1,0.2-0.2c-0.1-0.2-0.7-0.2-0.9-0.1s-0.3,0.2-0.5,0.2c-0.1,0-0.4,0-0.5,0
		c-0.2,0-0.2,0.1-0.4,0.1c-0.2,0-0.5,0.1-0.3,0c0.2-0.1,0.5-0.2,1.4-0.3c0.3-0.1,0.4-0.1,0.5-0.1c0.3,0,0.5,0.1,0.6,0.1
		c0.2,0,0.2,0.1,0.2,0c0-0.1,0.1-0.2,0.2-0.2c-0.2-0.1-0.3-0.2-0.6-0.2c-0.3-0.1-1.6-0.3-1.6-0.3h0.4c0.4,0,1.8,0.3,1.9,0.2
		c0.1,0,0.2-0.2,0.1-0.2c-0.1,0-0.8-0.2-0.9-0.3c-0.2,0-0.3-0.1-0.3-0.1s1.1,0.3,1.3,0.4c0.2,0.1,0.2,0,0.1-0.1
		c-0.1-0.1-1.2-0.6-1.3-0.7c-0.1-0.1-0.2-0.2-0.2-0.2s1.4,0.7,1.5,0.8c0.2,0.1,0.2-0.1,0.2-0.2s-0.7-0.3-0.6-0.3
		c0.1,0,0.5,0.2,0.7,0.2s0.2,0,0.2-0.1s-0.2-0.1-0.3-0.2c-0.1,0-0.5-0.2-0.8-0.3c-0.2-0.1-0.3-0.2-0.3-0.2l0.2,0.1
		c-0.1,0,1.2,0.5,1.3,0.5l0.2-0.2c0,0-0.1,0-0.3-0.1c-0.2,0-0.3-0.3-0.3-0.3s0-0.1,0.2,0.1s0.3,0.2,0.3,0.2s0.2,0,0.3-0.1
		s0.5-0.6,0.6-0.7c0.1-0.2,0.2-0.2,0.2-0.2s-0.1-0.1-0.2-0.2c-0.2-0.1-0.2-0.1-0.4-0.1c-0.2,0-0.3-0.1-0.3-0.1s0.3,0,0.5,0
		c0.2,0,0.4,0.2,0.5,0.2c0.1,0,0.2,0,0.2-0.1s0-0.1,0.1-0.1c0.1-0.2,0.1-0.2,0.2-0.2c0.1-0.1,0.1-0.2,0.1-0.3c0-0.1,0.1-0.3,0.1-0.4
		c0,0,0,0,0.2,0c0.1-0.1,0.2-0.2,0-0.2c-0.1,0-0.1,0-0.3-0.1c-0.2,0-0.7-0.1-0.7-0.1s0,0,0.3,0c0.2,0,0.5,0,0.8-0.1
		c0.2,0,0.2,0.1,0.4-0.1c0.1-0.1,0-0.2,0-0.4c0-0.2,0.1-0.3,0.2-0.4c0.1-0.1,0.2-0.2,0.1-0.2c-0.1-0.1-0.4,0.2-0.4,0.2l0.2-0.2
		c0.2-0.2,0.2-0.1,0.2-0.2c0.1-0.1,0.2-0.2,0.2-0.2c0.1-0.1,0.2-0.2,0.1-0.2c0-0.1-0.2,0-0.4,0.1c-0.2,0.1-0.5,0.2-0.2,0
		c0.2-0.2,0.6-0.2,0.7-0.2c0.1,0,0.2-0.2,0.2-0.2c0.1,0,0.2-0.2,0.1-0.2s-0.2,0-0.4,0.1c-0.2,0.1-0.5,0.3-0.6,0.3
		c-0.2,0,0.2-0.1,0.5-0.3c0.3-0.2,0.2-0.1,0.3-0.2c0.2,0,0.2,0,0.3-0.1c0.2,0,0.2-0.2,0.2-0.2c0-0.1,0.2-0.2,0.2-0.2
		c0.1,0,0,0,0-0.1c0.2-0.1,0.2-0.2,0.1-0.2c-0.1-0.1-0.2,0-0.2-0.1s-0.2-0.2-0.2-0.2s0,0,0.1,0.1c0.1,0.1,0.2,0.1,0.2,0.1
		s0.2,0,0.2,0c0.4,0.3,0.4,0.2,0.4,0.1c0-0.1,0-0.2,0.2-0.2c0.1,0,0.1-0.1,0-0.2c0-0.2,0-0.1,0.1-0.1c0.2,0,0.1-0.2,0.1-0.2
		c0.1-0.2,0.1-0.1,0.2-0.2c0.1-0.1,0.2-0.2,0.2-0.2s-0.2,0-0.2,0c-0.1,0-0.1,0-0.1,0.1c-0.2,0.1-0.2,0.1-0.2,0.2c0,0.1,0,0-0.1,0.1
		c-0.1,0-0.2,0.2-0.3,0.2c-0.1,0-0.2,0-0.2,0.1c-0.1,0.1-0.2,0.2-0.3,0.3c-0.2,0.2-0.3,0.2-0.3,0.2s0,0,0.1-0.1
		c0.1-0.1,0.2-0.3,0.4-0.4c0.2-0.2,0.2-0.1,0.3-0.1c0.1,0,0.2-0.1,0.2-0.2c0.2-0.1,0.2-0.1,0.2-0.1c0.1,0,0.1-0.1,0.1-0.2
		c0-0.1,0.2,0,0.2-0.1c0.1,0,0.1-0.1,0.2-0.2c0.1-0.1,0-0.1,0.1-0.2c0-0.1,0.1-0.1,0.2-0.2c0-0.1,0-0.2,0-0.2
		c-0.1,0-0.2,0.1-0.3,0.2c-0.2,0.1-0.2,0.2-0.3,0.2c-0.2,0.1-0.2,0.1-0.2,0c0.1,0,0.1-0.1,0.3-0.2c0.2-0.2,0.1-0.1,0.2-0.1l0.2-0.1
		c0.1-0.1,0.2,0,0.2-0.1c0.1-0.1,0.2-0.3,0.2-0.3s-0.2-0.1-0.2-0.1c-0.2,0-0.2,0-0.4,0.1c-0.2,0-0.3,0-0.3,0s0.2-0.1,0.4-0.2
		c0.2,0,0.4,0,0.5,0c0.1,0,0.2,0,0.2,0l0.1-0.1c0,0,0.1-0.1,0.1-0.2c0.1-0.1,0-0.2,0.2-0.2c0.2-0.1,0.2-0.2,0.2-0.3
		c0-0.1-0.1-0.1-0.2-0.1c-0.1,0,0,0-0.2,0c-0.2,0-0.8,0-0.8,0c0-0.1,0-0.1,0.2-0.1c0.2,0,0.5,0,0.6-0.1c0.2,0,0.3,0.2,0.3,0.1
		c0,0,0.1-0.1,0.1-0.2c0.2,0,0.2-0.2,0.2-0.2S24.7,52,24.7,52c-0.1,0-0.2,0-0.3,0c-0.1-0.1-0.2-0.2-0.2-0.4c-0.1-0.2,0.1,0,0.2,0.2
		c0.1,0.2,0.2,0.2,0.2,0.1c0.1,0,0.2,0,0.2,0c0.1,0,0.1-0.1,0.1-0.2c0-0.1,0.1,0,0.2-0.1c0-0.2,0-0.1,0.1-0.2c0.1,0,0.2-0.2,0.2-0.2
		s-0.3,0-0.5,0c-0.3,0-0.5,0-0.5,0s0.3-0.1,0.6-0.2c0.3-0.1,0.5,0,0.5,0l0.2-0.2h-0.2c0-0.1,0.2-0.1,0.2-0.1c0.1,0,0.2-0.2,0.2-0.2
		s0.1,0,0.2-0.1c0.1,0,0.1-0.2,0.1-0.2s0,0-0.2,0c-0.2,0-0.2-0.1-0.2-0.1H26c0,0,0,0,0.1,0c0.1-0.1,0.1-0.1,0-0.2
		c0.2-0.1,0.1-0.2,0.1-0.2s0.1-0.1,0.1-0.2c0-0.1,0.1-0.2,0.1-0.2c-0.1,0-0.2-0.1-0.2,0V50H26c0,0,0,0.1-0.2,0.2c-0.2,0-0.1,0-0.2,0
		c-0.1,0-0.2,0-0.2-0.1S25.4,50,25.2,50C25,50,25,49.9,25,49.9s0.1,0,0.2,0c0.2,0,0.2,0,0.3,0c0.1,0,0.1,0.1,0.2,0.1
		c0,0,0.1,0.1,0.1,0l0.1-0.2c0,0,0.1,0,0.2,0c0.1,0,0.1-0.2,0.1-0.2h0.3c0.2,0,0.2-0.1,0.2-0.2s0-0.1,0-0.2c0-0.2-0.1-0.2,0-0.2
		c0.1,0,0-0.2,0-0.2s-0.2,0-0.2,0c-0.1,0-0.2,0-0.2-0.1s-0.2-0.1-0.2,0c-0.1,0.1-0.2,0.2-0.2,0.2l0.2-0.3H26c0.1,0,0.2,0.2,0.2,0.2
		h0.2c0,0,0-0.2,0-0.2c0,0,0-0.1,0.1-0.1s0.2,0,0.2-0.2c0-0.1,0-0.2-0.2-0.1c-0.2,0.1-0.2,0.2-0.2,0.2s-0.1-0.2,0.2-0.2
		c0.2-0.1,0.3-0.2,0.3-0.2V48c0,0-0.1,0-0.2,0c-0.2,0-0.5,0-0.5,0s0.2,0,0.4,0s0.4,0,0.4,0c0.1-0.2,0-0.2,0-0.2s0.1-0.1,0.2-0.1
		c0.1,0,0.1-0.2,0.1-0.2l0.2-0.1c0,0,0-0.2,0-0.3c0-0.1,0-0.1,0.2-0.1c0.1-0.1,0.1,0,0.1-0.2c0.2-0.1,0.2-0.2,0.2-0.2
		c0-0.1,0,0-0.2-0.1c-0.1,0-0.1,0-0.2,0c-0.1,0.1-0.2,0.2-0.2,0.2l0.1-0.1c0.1-0.1,0.1-0.2,0.2-0.2c0.1,0,0.2,0,0.3,0
		c0.2,0,0.2,0,0.2-0.1c0.1-0.2,0.2-0.2,0.2-0.3c0-0.1,0,0,0.2-0.1C28,46.1,28,46,28,45.9s0,0,0.2-0.1c0.1,0,0,0,0.1-0.1
		c0-0.1,0.1-0.1,0.1-0.1s0.1-0.1,0.2-0.2c0-0.1,0-0.1,0.2-0.1c0.1,0,0.2-0.2,0.2-0.2s0,0,0.2-0.1c0.2-0.1,0.2-0.2,0.2-0.2
		c0-0.1,0-0.1,0.1-0.1c0.1,0,0.1-0.1,0.1-0.2c0-0.1,0-0.1,0.2-0.1s0.2-0.2,0.1-0.2c-0.1-0.1-0.4,0-0.4,0s0,0,0.2-0.1
		c0.2,0,0.3,0,0.4,0c0.1,0,0.2-0.1,0.2-0.1l0.3-0.1c0,0,0.1-0.2-0.2-0.2c-0.2,0-0.5,0.1-0.7,0.2c-0.3,0.5-0.5,0.6-0.5,0.5
		c0.1-0.1,0.2-0.2,0.6-0.2c0.2,0,0.3-0.1,0.4-0.1c0.1,0,0.1,0,0.2,0c0.1,0,0.1,0.1,0.2,0.1c0.1,0,0.2-0.1,0.2-0.2
		c0.2-0.2,0.1-0.3,0.2-0.3c0,0,0.1,0.1,0.2,0c0-0.1,0.1-0.2,0.2-0.2c0.1-0.1,0.2-0.1,0.4-0.2c0.2-0.1,0.1,0,0.2-0.2s0.2-0.2,0.5-0.2
		s0.5-0.2,0.7-0.3s0.2-0.1,0.3-0.1s0.1-0.1,0.2-0.2c0.2,0,0.5-0.1,0.6-0.2c0.1-0.1,0.1,0,0.2,0c0.1,0,0,0,0.1-0.1
		c0-0.1,0.1,0,0.2,0.1c0.1,0.1,0.2,0,0.3,0.1c0.2,0.1,0.2,0,0.2,0c0-0.1,0.1-0.1,0.1-0.1s0,0.1,0.1,0.2c0.1,0.1,0.2,0.1,0.3,0
		c0.1,0,0.2,0,0.2,0c0.2,0,0.2,0.2,0.5,0.2s0.9,0.5,1.2,0.7c0.3,0.2,0.7,0.5,1.1,0.4c0.5-0.1,0.8-0.3,0.8-0.5
		c0.1-0.2-0.2-0.5-0.2-0.5s-0.4,0-0.4-0.1s-0.1-0.2-0.2-0.2c-0.2-0.1-0.5,0-0.7,0c-0.1,0-0.2,0.1-0.7,0.1c-0.4,0-1.1-0.1-1-0.1
		c0.1,0-0.2-0.1-0.2-0.1l-0.2-0.1l-0.2-0.2l-0.1,0.2c0,0,0-0.1,0-0.2s-0.1-0.1-0.2,0c-0.1-0.1-0.2-0.2-0.3-0.2h-0.2l-0.2,0.2
		l0.1-0.2V42l-0.1,0.3v-0.2c0,0-0.1-0.2-0.2-0.1c-0.1,0-0.1,0.2-0.1,0.2s0-0.2,0-0.3c0-0.1-0.2-0.1-0.2-0.1s-0.2,0.5-0.2,0.3
		c0-0.2,0.1-0.4,0.1-0.4l-0.2-0.2c0,0-0.2,0.2-0.2,0.3c-0.1,0.1-0.2,0.1-0.2,0.2l-0.3,0.2c0,0,0,0,0.1-0.1c0.1-0.1,0.3-0.2,0.5-0.3
		c0.2-0.2,0.2-0.2,0.1-0.2c-0.2,0-0.2-0.2-0.2-0.1c-0.1,0.1-0.2,0.2-0.2,0.2c0,0.1-0.6,0.5-0.6,0.5l0.2-0.2c0.2-0.2,0.5-0.5,0.5-0.5
		s-0.1,0-0.2,0.1S32.7,42,32.7,42s0,0,0.3-0.2c0.2-0.2,0.3-0.2,0.3-0.2s-0.2-0.2-0.3-0.1c-0.1,0-0.5,0.3-0.5,0.3l0.4-0.3
		c0,0,0-0.1-0.2-0.1s-0.1-0.1-0.2-0.1c-0.1,0-0.1,0-0.2,0.1c-0.1,0.1-0.3,0.3-0.4,0.4c-0.2,0.1-0.4,0.1-0.4,0.1s0.2,0,0.5-0.2
		c0.2-0.1,0.4-0.4,0.3-0.3c-0.1,0.1,0.1-0.2,0.1-0.2c-0.1-0.1-0.2-0.2-0.4-0.1c-0.2,0.1-0.1,0.2-0.2,0.3c-0.2,0.2-0.6,0.5-0.6,0.5
		l0.5-0.3c0.2-0.2,0.2-0.3,0.2-0.3c0-0.1,0.1-0.2,0.1-0.2s-0.2,0.2-0.3,0.2c-0.2,0.1-0.4,0.2-0.4,0.2l0.2-0.1
		c0.2-0.1,0.4-0.2,0.5-0.3c0.1-0.2,0-0.2,0-0.2s0,0-0.2-0.1c-0.2-0.1-0.1,0-0.1,0s-0.2,0-0.4,0.2c-0.2,0.1-0.5,0.3-0.5,0.3l0.2-0.2
		c0.2-0.2,0.5-0.2,0.5-0.2c-0.2-0.1-0.2-0.2-0.3-0.1L31.2,41c-0.1,0.1-0.2,0.2-0.3,0.2c-0.2,0.1-0.4,0.1-0.4,0.1s0,0,0.3-0.1
		c0.1,0,0.1-0.1,0.2-0.2c0.2-0.1,0.3-0.2,0.3-0.2c-0.2,0-0.2-0.1-0.2-0.1c0-0.1-0.1-0.1-0.3,0c-0.3,0.1-0.4,0.4-0.4,0.4
		s0-0.1,0.1-0.2c0.1-0.1,0.1-0.1,0.2-0.2c0.1-0.1,0.2-0.2,0.2-0.2s0.2,0,0.1-0.1c-0.1,0-0.1-0.1-0.2-0.1c-0.1,0-0.2-0.1-0.2-0.1
		s-0.3,0.3-0.5,0.5c-0.2,0.2-0.3,0.3-0.5,0.4c-0.1,0.1-0.2,0.3-0.4,0.4c-0.2,0.1-0.4,0.2-0.4,0.2s0,0,0.3-0.2
		c0.3-0.2,0.3-0.3,0.5-0.5c0.2-0.2,0.8-0.8,0.8-0.8c0-0.2-0.2-0.2-0.2-0.2c-0.1,0-1.1,0.5-1.1,0.5s0,0,0.3-0.2
		c0.3-0.2,0.3-0.2,0.4-0.2c0.1,0,0.3-0.1,0.3-0.2c0-0.1,0-0.1-0.1-0.1c-0.1,0-0.1,0-0.2-0.1c-0.2,0-0.2,0.1-0.3,0.2
		s-0.9,0.3-0.9,0.3s0,0,0.2-0.1c0.2-0.1,0.4-0.2,0.4-0.2s0.8-0.2,0.6-0.3c-0.2,0-0.1,0-0.1-0.1s-0.2,0-0.2,0s-0.6,0.2-0.8,0.2
		s-0.3,0-0.3,0s0,0,0.5,0c0.5,0,0.5-0.1,0.5-0.1c0.1,0,0.2-0.1,0.1-0.1c-0.1,0,0-0.1-0.1-0.2c-0.1-0.1-0.1,0-0.2-0.1
		c-0.2,0-0.1,0-0.1-0.1c0,0,0-0.1-0.2-0.1c-0.2,0-0.1,0-0.2-0.1c0-0.1-0.1-0.1-0.2,0c0,0-0.2,0.2-0.4,0.2s-0.2,0-0.2,0
		s0.1,0,0.3-0.1c0.2-0.1,0.3-0.2,0.3-0.2s-0.2-0.2-0.2-0.2c-0.2,0-0.2,0-0.3,0c-0.2,0-0.4-0.1-0.4-0.1h0.5c0,0,0.1-0.1,0-0.1
		c0,0-0.2-0.1-0.3-0.2c-0.2,0-0.2-0.1-0.5-0.1c-0.2,0-0.2-0.1-0.2-0.1l0.2,0.1c0,0,0.1,0,0.2,0.1c0.2,0.1,0.2,0,0.2,0
		c-0.1-0.2-0.2-0.2-0.2-0.2s0.1,0,0.2,0.1c0.2,0,0-0.2,0-0.2c-0.1,0,0,0-0.1,0c-0.1,0-0.2-0.1-0.2-0.2c0-0.1,0-0.1-0.2-0.2
		c-0.1-0.1-0.2-0.1-0.3-0.1c-0.2,0-0.1-0.1-0.1-0.1s0,0.1-0.2,0.2c-0.1,0.2-0.4,0.4-0.4,0.4s0,0,0.2-0.2s0.2-0.4,0.2-0.4s0,0-0.2,0
		c-0.2,0-0.2,0-0.3,0c-0.1,0.1,0,0.4,0,0.3v-0.3c0,0-0.1,0.1-0.2,0.2c0,0.1,0,0.2,0,0.2s0,0,0-0.2c0-0.1,0-0.1-0.1,0
		c-0.1,0.1,0,0.4,0,0.4v-0.4c0,0,0,0-0.2,0.1s-0.1,0.2-0.1,0.2v0.3c0,0,0-0.3-0.1-0.3c0,0-0.1,0.1-0.2,0.2c-0.1,0.1-0.2,0.1-0.2,0.1
		v-0.2c0-0.1-0.2-0.1-0.2,0c0,0.1,0,0.6,0,0.6v-0.5c0,0-0.2,0.1-0.2,0.2c0,0.1-0.1,0.2-0.1,0.2L25,39c-0.1,0,0,0-0.1,0.2
		c0,0.1,0,0.2,0,0.2c0-0.1-0.1-0.1-0.1-0.1l-0.1,0.2v-0.3c0,0-0.1,0-0.2,0.2c-0.1,0.2-0.1,0.1-0.2,0c-0.1-0.1-0.2-0.1-0.2,0
		c0,0.1,0.2,0.8,0.2,0.8l-0.2-0.8c-0.2,0-0.2,0-0.2-0.1s-0.2,0.1-0.2,0.1s-0.1,0.1-0.2,0.1c-0.1,0-0.2,0-0.2,0l-0.1,0.3
		c0,0,0-0.4,0-0.5s-0.2,0-0.2,0c-0.1,0.1,0,0.8,0,0.8v-0.7c0,0,0-0.1-0.2-0.1c-0.1,0-0.2,0-0.2,0.2c-0.1,0.2-0.1,1-0.1,1v-1.1
		c0,0,0,0-0.2,0.1c-0.2,0-0.2,0-0.3,0.1c-0.1,0.1,0,0.7,0,0.7v-0.5c0,0-0.1,0-0.2,0c-0.1,0-0.2,0.1-0.2,0.1l-0.1,0.8v-0.9
		c0,0-0.1,0.1-0.2,0.2c-0.1,0-0.2-0.1-0.2,0.1c0,0.2-0.1,0.7-0.1,0.7v-0.7c0,0,0-0.1-0.1,0.2c-0.1,0.2,0,0.5,0,0.5V40
		c0,0-0.2-0.1-0.2,0.1s-0.2,0.7-0.2,0.7l0.1-0.7l-0.2,0.1c0,0.2,0.1,0.5,0.1,0.5S21,40.4,21,40.4L20.8,41l0.1-0.2
		c0.1-0.2,0.1-0.6,0.1-0.6s-0.1,0-0.2,0c-0.2,0.1-0.2,0.1-0.2,0.2c0,0.2-0.1,0.8-0.1,0.8v-0.8h-0.1c-0.1,0-0.2,0-0.2,0.2
		s-0.1,0.8-0.1,0.8v-0.8h-0.2c0,0,0,0-0.1,0.2c0,0.2,0,0.2,0,0.1c0-0.1-0.1,0-0.2-0.1c-0.2-0.1-0.2,0.2-0.2,0.2
		c-0.1,0.1-0.1,0.5-0.1,0.5s0-0.2,0-0.3c0-0.1,0-0.2-0.1-0.2s-0.1,0-0.2,0.1c0,0.1-0.2,0.1-0.2,0.2c0,0.1-0.2,0.8-0.2,0.8l0.1-0.3
		c0-0.2,0-0.3-0.1-0.5c-0.1-0.2-0.1,0-0.2,0.1c-0.1,0.1-0.1,0.1-0.1,0.5c-0.1,0.3-0.2,0.5-0.2,0.3c0.1-0.2,0.1-0.3,0-0.5
		c0-0.2-0.2,0-0.2,0s0,0.1,0,0.2s-0.2,0.3-0.2,0.2c0-0.1,0.1-0.3,0.1-0.3s-0.2,0.1-0.2,0.2c-0.1,0.1-0.1,0-0.1,0.1c0,0,0,0-0.1,0.2
		c-0.1,0.2-0.2,0.3-0.2,0.3s0,0,0.1-0.2c0.1-0.2,0-0.2,0-0.2s-0.1-0.1-0.2-0.1l-0.2,0.1c0,0.1-0.2,0.3-0.2,0.3s0,0,0-0.1
		s0.1-0.2,0.1-0.3c0-0.1-0.2-0.1-0.2,0c-0.2,0-0.4,0-0.4,0s-0.1-0.1-0.2-0.1c-0.2,0.1-0.2,0.1-0.3,0.1c-0.2,0-0.5,0-0.7,0.1
		c-0.2,0.1-0.3,0.2-0.3,0.2c0,0.1-0.1,0.3-0.1,0.3v0.2c0,0,0-0.1-0.1-0.2c-0.1,0-0.2,0.1-0.2,0.1s0.1,0.1,0,0.1
		C15,42.7,15,43,15,43.2c0,0.2,0,0.4,0,0.4s0-0.4,0-0.5c0-0.1,0.2-0.5,0-0.5c-0.1-0.1-0.2,0.1-0.2,0.1s-0.5,0.5-0.6,0.5
		s-0.1,0.1-0.1,0.1s0.2-0.2,0.2-0.4c-0.1-0.2-0.2-0.1-0.2-0.1c-0.1,0.1,0,0-0.1,0.1c-0.1,0.1-0.1,0-0.2,0.1c0,0.1-0.2,0.1-0.2,0
		s-0.1,0.2-0.1,0.2s0-0.2,0-0.2c-0.1-0.1-0.2,0-0.2,0c-0.1,0-0.1,0.1-0.2,0.2c0,0.1-0.1,0.1-0.1,0.2c0,0.1-0.1,0.2-0.1,0.2
		s-0.1,0.2-0.1,0.2s0-0.2,0.1-0.3c0.1-0.1,0.1-0.1,0.1-0.2c0-0.1-0.1-0.2-0.2-0.2c-0.1,0.1-0.1,0.2-0.1,0.2v-0.1l-0.1,0.1L13,43.5
		v-0.2c0,0-0.1-0.2-0.2-0.1c-0.1,0.2-0.1,0.2-0.2,0.2s-0.2,0.2-0.2,0.2c0,0,0,0.1-0.2,0.2c-0.1,0-0.3,0.5-0.3,0.5s0-0.1,0-0.2
		c0-0.1,0.2-0.2,0.2-0.2s0-0.2,0-0.2s-0.2,0-0.2,0.1c-0.2,0.1-0.1,0.2-0.2,0.2c-0.1,0-0.2,0.1-0.2,0.1v0.3c0,0,0-0.3-0.1-0.3
		c-0.1,0-0.1,0-0.1,0c-0.1,0-0.2,0-0.2,0.1c-0.1,0.1,0,0.2,0,0.3l-0.1,0.5c0,0,0.1-0.5,0-0.5c-0.1-0.1-0.2,0-0.2,0.1
		s0.1,0.2-0.1,0.2c-0.1,0-0.1,0-0.2,0.1c0,0.1-0.2,0.2-0.2,0.2l0.2,0.8c0,0-0.2-0.6-0.2-0.6c-0.2,0,0,0.2-0.2,0.2
		c-0.1,0-0.2,0.5-0.3,0.8c-0.2,0.2-0.2,0.2-0.2,0.2s0.2-0.3,0.3-0.5c0.1-0.2,0.1-0.4,0.1-0.4s0-0.1-0.1,0s-0.1,0.1-0.2,0.1
		c-0.1,0-0.2-0.1-0.3,0.1c-0.1,0-0.1,0-0.2,0.1c-0.1,0-0.2,0.1-0.3,0.2C9.2,45.6,9,45.8,9,45.8l0.2-0.3c0,0-0.3,0-0.4,0.1
		c-0.1,0.1-0.8,0.9-0.8,0.9s0.3-0.5,0.4-0.6s-0.6-0.1-0.8,0c-0.2,0-0.5,0.2-0.5,0.2l-0.5,0.2l0.2-0.3H6.5c0,0-0.1,0.4-0.2,0.5
		c-0.1,0.1-0.2,0.2-0.2,0.2s0.2-0.2,0.2-0.3c0.1-0.2,0-0.2,0-0.2s-0.5,0.1-0.5,0.1c-0.1,0-0.2,0-0.2,0l-0.2,0.2l0.1-0.3H4.9
		l-0.3,0.5l0.2-0.5l-1.1,0.1L3,46.6c0,0,0.6-0.4,0.4-0.5c-0.2,0-0.9-0.1-1.1,0C2,46.2,2,46.2,2,46.2l0.1-0.2c0,0-0.5,0-0.6,0H1.2
		l0.1-0.2H0.8v-0.4c0,0,0-0.1-0.1-0.1l-0.2-0.2H0.4v-0.2c0,0,0,0-0.1-0.1c-0.1,0-0.2-0.2-0.2-0.2c-0.1,0-0.2,0-0.2,0l0.1-0.1
		c0-0.1,0-0.2,0-0.2s0-0.2,0.1-0.2c0.1-0.1,0.2-0.1,0.2-0.2l0.2-0.1c0,0,0-0.1,0.2-0.1c0.1,0,0.3,0,0.5,0c0.2,0,0.2-0.2,0.2-0.2
		l-0.1-0.2c0,0-0.2-0.1-0.2,0c0,0-0.2,0.1-0.3,0c-0.1,0-0.2-0.2-0.2-0.2c-0.1,0-0.1-0.1,0-0.2s0.2-0.1,0.2-0.2c0-0.1,0-0.2,0.1-0.1
		C0.9,43.1,1,43,1,43.1c0,0.1,0.1,0.1,0.1,0.2h0.2c0.1,0.1,0.1,0.1,0.2,0.1c0.1,0,0.2-0.1,0.2,0c0,0.1,0,0.1,0,0.2v0.2l0.2-0.1
		c0,0-0.1-0.2-0.2-0.2c-0.1-0.1-0.1-0.2-0.1-0.2l0.2,0.3H2v-0.2l0.1,0.2h0.2c0,0,0.1-0.1,0.2-0.1c0.1,0,0.2,0,0.2,0h0.2
		c0.1,0,0.3,0,0.4,0s0.2,0,0.2-0.1s-0.2-0.2-0.2-0.2C3,43.2,2.7,43,2.4,43c-0.2,0-0.4-0.2-0.5-0.2s-0.4-0.1-0.5-0.2
		c-0.2,0-0.2,0-0.2,0l-0.2-0.1c0,0,0.3,0,0.4,0c0,0,0.2,0.2,0.4,0.2c0.2,0,0.7,0.2,0.8,0.2c0.2,0.1,0.5,0.2,0.5,0.4
		c0.1,0.2,0.2,0.1,0.3,0.1c0.1,0,0.2,0.1,0.2,0.1h0.2c0,0,0-0.2-0.2-0.3S3,42.9,3,42.9s0.4,0.1,0.6,0.2c0.2,0.2,0.2,0.2,0.4,0.3
		c0.2,0.1,0.2,0.1,0.2,0.1c0.1,0,0.1,0,0.2,0c0,0.1,0.2,0.2,0.2,0c0.1-0.1,0.2-0.2,0.2-0.2c0.1,0,0.2,0.1,0.4,0.2c0.2,0,0.5,0,0.5,0
		c0,0,0.1,0.1,0.2,0.1c0.1,0,0.2,0,0.3,0c0.2,0,0.5,0,0.5-0.1c0.1,0,0.4-0.2,0.5-0.3c0.1-0.2,0.1-0.2,0.1-0.2s0.1-0.1,0.2,0
		c0.1,0,0.2-0.1,0.2-0.1c0.2-0.2,0.2-0.2,0.2-0.1c0.1,0.1,0.2,0.1,0.3,0c0.2-0.1,0.2-0.2,0.2-0.2l-0.2-0.1c0.1,0-0.2-0.1-0.2-0.2
		c-0.1,0-0.2-0.1-0.2-0.1c-0.1,0-0.2-0.1-0.2-0.2c-0.1,0-0.3-0.1-0.3-0.1l0.5,0.2c0,0,0.4,0.2,0.5,0.3c0.2,0.1,0.2,0.1,0.3,0.1
		s0.2-0.1,0.2-0.1s-0.1-0.2-0.2-0.2c-0.1,0-0.2-0.1-0.4-0.2C7.8,42.1,7.6,42,7.6,42s0.2,0,0.3,0.1l0.5,0.2c0,0,0.2,0.2,0.2,0.2
		s0.2,0,0.1-0.1s-0.1-0.2-0.1-0.2l0.2,0.1c0.1,0.1,0.2,0,0.2-0.1l-0.7-0.4l0.4,0.1c0,0,0.4,0.2,0.5,0.3c0.1,0,0.2,0,0.2,0.1
		c0,0,0.1-0.2,0-0.2S9.2,42,9.2,42s0.1,0,0.3,0.1c0.2,0.2,0.3,0.1,0.3,0.1s0-0.2,0.1-0.1c0,0,0-0.1,0-0.2c-0.1-0.1-0.3-0.3-0.3-0.3
		s0.1,0,0.2,0.2c0.2,0.1,0.2,0.3,0.2,0.3s0.1,0,0.1-0.1c0-0.2,0-0.2,0-0.2l0.2,0.2c0,0,0.4,0,0.3-0.1c-0.1-0.2-0.5-0.4-0.5-0.4
		s0.3,0.2,0.5,0.2c0.2,0.1,0.2,0,0.2,0l-0.2-0.2c0,0,0.2,0.1,0.4,0.1c0.1,0,0.4,0,0.4,0s-0.1-0.2,0-0.1c0.2,0,0.2,0,0.1-0.1
		c-0.1,0-0.3-0.2-0.4-0.2c-0.1-0.1-0.3-0.2-0.3-0.2s0.2,0.1,0.3,0.2c0.2,0.1,0.5,0.2,0.5,0.2s0.2-0.1,0.2-0.2c0,0.4-0.2,0.3-0.2,0.3
		l0.3,0.1c0.1,0,0.2,0,0.2,0c0.1,0,0.1-0.1,0.2-0.1c0.1,0,0.2-0.1,0.2-0.1s-0.2-0.2-0.2-0.2l-1.4-1c0,0,0.6,0.4,0.8,0.5
		c0.2,0.1,0.2,0,0.2,0.1c0.1,0.1,0.2,0.2,0.2,0.2c0,0,0.2,0.2,0.3,0.3c0.2,0.1,0.2,0.2,0.2,0.2l0.1-0.2c0.1,0,0.3,0,0.3-0.1
		c0-0.1-0.2-0.3-0.3-0.3c-0.2,0-0.8-0.2-0.8-0.2s0.2,0,0.3,0c0.2,0,0.5,0.1,0.5,0.2c0.1,0.1,0.3,0.3,0.3,0.3s0.3,0.1,0.3-0.2
		c0-0.2,0-0.2,0-0.2s0.3,0.2,0.2,0.2c0,0,0.3-0.1,0.3-0.2c0-0.1-0.5-0.3-0.5-0.3s0.4,0.1,0.6,0.2c0.2,0.1,0.2-0.1,0.2-0.1
		s0-0.1-0.3-0.2l-0.7-0.3c0,0,0.6,0.2,0.8,0.3c0.2,0.1,0.3,0.3,0.3,0.3H14c0.1,0,0.2-0.2,0.2-0.2s-0.1-0.1-0.4-0.2
		c-0.3-0.1-0.7-0.3-0.7-0.3s0.5,0.2,0.8,0.3c0.3,0.1,0.4,0.1,0.5,0.1s0.2-0.1,0.2-0.1V40c0,0-0.2-0.2-0.5-0.3s-0.5-0.2-0.5-0.2
		s0.5,0.1,0.7,0.2c0.2,0.2,0.3,0.3,0.5,0.3c0.2,0,0.2-0.2,0.2-0.2s-0.1-0.2-0.2-0.2c-0.2-0.1-1.1-0.5-1.1-0.5s0.8,0.3,1,0.4
		c0.2,0.2,0.3,0.2,0.4,0.2c0.2,0,0.2,0,0.2-0.1c0-0.1,0.2-0.2,0.3-0.2c0.2-0.1,0.2-0.1,0.3-0.1c0.1,0,0.2,0,0.2-0.1
		c0.2-0.1,0.2-0.1,0.2-0.2c0-0.1,0.2-0.1,0.2-0.1s0.2-0.2,0.2-0.2c0-0.2,0-0.2,0.1,0c0.1,0.1,0.2,0,0.3,0c0.1,0,0.2,0,0.2-0.1
		s0-0.2,0-0.2h-0.3c0,0,0.1-0.1,0.2,0c0.2,0,0.3,0.1,0.4,0.1c0.1-0.1,0-0.2-0.2-0.3c-0.2-0.1-0.3-0.1-0.3-0.1s0.3,0.2,0.6,0.2
		c0.2,0.1,0.5,0,0.5,0c0.1,0,0-0.2,0-0.2s-0.2-0.1-0.4-0.2c-0.1,0-0.1,0-0.1,0l0.5,0.1c0.1,0,0.1,0.2,0.2,0.2s0.3-0.2,0.3-0.2
		s-0.2-0.1-0.3-0.1c-0.2,0-0.2,0-0.2,0s0.4,0,0.5,0.1c0.2,0,0.2,0,0.2,0c0.1-0.1,0.1-0.1,0.2-0.1c0.1,0,0.1,0,0.2-0.1
		c0.1-0.1,0.2-0.2,0.2-0.2h-0.3h-0.2c0,0,0.2,0,0.2,0s0.4,0.2,0.4,0.2c0.1-0.2,0.1-0.2,0.2-0.2c0.1,0,0.1-0.2,0-0.2
		c-0.1,0-0.2-0.2-0.3-0.2c-0.1,0,0.2,0,0.3,0.1c0.2,0.1,0.5,0,0.5,0s0-0.2-0.2-0.2l-0.3-0.1h0.4c0,0,0,0.1,0.1,0.2
		c0.1,0,0.1-0.2,0.1-0.2l0.1,0.2h0.2l0.1-0.1c0,0,0.1-0.1-0.1-0.1c-0.2,0-0.3-0.1-0.3-0.1s0.4,0,0.5,0c0.2,0,0.4,0,0.4,0v-0.1
		c0,0,0-0.1-0.2-0.1l-0.2-0.1c0.1,0-0.3-0.1-0.3-0.1s0.2,0,0.3,0c0.1,0,0.2,0.2,0.3,0.2c0.1,0,0.2-0.1,0.2-0.1s0-0.2-0.1-0.2
		c-0.1-0.2-0.5-0.4-0.5-0.4s0.4,0.2,0.5,0.2c0.2,0.1,0.3,0.1,0.4,0c0.1-0.1,0.1,0,0.1-0.1c0-0.1,0-0.1,0-0.1s0.1,0,0.2-0.1
		c0-0.1,0-0.1,0.2-0.1s0.2,0,0.2-0.1s0.1-0.2,0-0.2l-0.9-0.1c0,0,0.9,0,1,0c0.1,0,0.3,0,0.3,0s0.4-0.1,0.5-0.2
		c0.1-0.1,0.1-0.1,0.2-0.2c0.2,0,0.2-0.1,0.2-0.2c0-0.1-0.6-0.1-0.6-0.1H23c0.2,0,0.2,0,0.3,0c0.1,0,0-0.1,0.1-0.1s0.2,0,0.3-0.1
		c0-0.1,0-0.2-0.2-0.2c-0.2-0.1-0.3-0.1-0.5,0l-0.5,0.2c0,0,0.2-0.2,0.4-0.2c0.2-0.1,0.3-0.1,0.5,0c0.2,0.1,0.2,0.2,0.3,0.2
		c0.2,0,0.2-0.1,0.3,0c0.2,0.1,0.3,0,0.3,0c0-0.1,0-0.1,0.1-0.1c0.1,0,0.1,0,0.2-0.1c0.1-0.1,0-0.2,0.2-0.1c0.2,0,0.4,0.1,0.5,0
		c0.1-0.1,0.1-0.1,0.2-0.1c0.1,0,0.2-0.1,0.5-0.1c0.2,0,0.2,0,0.3,0c0.1,0,0.1-0.1,0.2-0.1s0.3,0,0.3,0s0-0.2-0.2-0.3
		c-0.2-0.1-0.3-0.2-0.6-0.2c-0.3,0-0.5,0-0.6,0l-0.2,0.1c0,0,0.3-0.2,0.5-0.2s0.4-0.1,0.5,0c0.2,0.1,0.5,0.2,0.5,0.3
		c0.2,0.2,0.2,0.2,0.2,0.2h0.4l-0.2-0.3l0.2,0.2l0.3,0.2c0,0,0-0.2-0.2-0.3c-0.2-0.1-0.2-0.1-0.2-0.1s0.3,0.2,0.3,0.3
		c0.1,0.2,0.1,0,0.2,0s0.2,0,0.2-0.1c0-0.1,0-0.1,0.2-0.1c0.2,0,0.3,0.1,0.4,0.2c0.1,0.1,0.2,0.1,0.3,0c0.1,0,0.1-0.1,0.1,0
		c0,0.1,0.3,0.2,0.4,0.1c0.1-0.1,0.1-0.1,0.1,0s0.2,0.1,0.2,0.1c0.1,0,0.1,0,0.2,0c0.1,0.1,0.2,0.2,0.2,0.1v-0.1c0,0,0,0,0.1,0.1
		c0.1,0.1,0.2,0.2,0.2,0c0-0.1,0-0.1,0-0.1h0.2c0,0,0.7-0.5,0.6-0.5l0.3-0.2l-0.2,0.2c-0.1,0-0.8,0.5-0.8,0.5v0.2h0.2v0.2h0.2
		c0,0,0.2,0,0.2,0.1c0.1,0.1,0.2,0,0.2-0.1c0-0.1,0.9-0.4,0.9-0.4s-0.2,0.1-0.3,0.2c-0.2,0.1-0.5,0.2-0.5,0.2c0,0.2,0.1,0.1,0.1,0.2
		c0.1,0.1,0.2,0.1,0.2,0.1c0.1,0,0.1,0,0.1,0c0.1,0,0.1-0.1,0.2,0c0.1,0.1,0,0.1,0.2,0.2c0.1,0,0.2,0.1,0.2,0c0,0,0-0.2,0-0.1
		c0.1,0.1,0.1,0.2,0.2,0.2c0.2,0.2,0.2,0.2,0.2,0.2s0.1,0,0.2,0.1c0.1,0.1,0.1,0.1,0.2,0c0.1,0.2,0.2,0.2,0.2,0.2c0,0,0.1,0,0.2,0.1
		c0.1,0.1,0.2,0.2,0.2,0.1c0-0.1,0-0.2,0-0.2s0.1,0,0.1,0.2s-0.1,0.2,0,0.1c0.1,0,0.2,0,0.2,0.1s0.1,0.1,0.2,0.1
		c0.1-0.1,0.1,0,0.1,0.1c0,0.1,0.1,0.2,0.2,0.1c0.1-0.1,0.2,0,0.2,0c0,0.1,0.1-0.1,0.2-0.1c0.1,0,0.1,0,0.1,0.1s0.1,0.2,0.1,0.2h0.2
		v0.2l0.1,0.1l0.1-0.1v0.3l0.2-0.2v-0.2L34.8,37l-0.2-0.1l-0.2-0.3c0,0-0.1,0-0.2-0.1c-0.2-0.1-0.2-0.1-0.2-0.1s0-0.2-0.1-0.2
		s0-0.2,0-0.2h-0.2L33.8,36l-0.2-0.2l0.1-0.4l-0.2-0.1v-0.2l-0.2-0.1V35c0,0-0.2-0.2-0.2-0.2c-0.2,0-0.2,0-0.2,0l-0.1-0.3l-0.2-0.1
		v-0.2h-0.2v-0.2h-0.2l0.2-0.6l-0.1-0.2l-0.2,0.1v-0.2h-0.1L32,33.2l-0.1-0.2h-0.1v-0.2h-0.2v-0.2c0,0-0.2-0.1-0.2-0.2
		c-0.2-0.1-0.2-0.2-0.2-0.2s0-0.2-0.2-0.2c-0.1,0-0.2-0.1-0.2-0.1l0.1-0.2l-0.2-0.1c0,0-0.1-0.2-0.2-0.2c-0.2,0-0.1-0.1-0.1-0.1
		v-0.2h-0.2V31c0,0-0.1,0-0.2-0.1c-0.1-0.1-0.1-0.2-0.2-0.3c0-0.1-0.1-0.1-0.2-0.1c-0.1,0,0-0.2-0.2-0.2c-0.1,0-0.1,0-0.1,0v-0.1
		l-0.2-0.1v-0.1h-0.2v-0.3c0,0-0.1-0.1-0.2-0.1c-0.1,0,0.1-0.2,0-0.2c-0.1,0-0.1-0.1-0.2-0.1c0,0-0.1,0-0.1-0.2c0-0.1,0-0.1-0.2-0.2
		c-0.1-0.1-0.1-0.1-0.2-0.2c0-0.1,0-0.2-0.1-0.2l-0.2-0.1c-0.2-0.1-0.3-0.2-0.3-0.2c0-0.2-0.1-0.2-0.2-0.2c-0.1-0.1-0.2-0.2-0.2-0.2
		c0.2-0.1,0.1-0.2,0.1-0.2c0-0.1-0.1-0.2-0.2-0.2c0-0.1-0.1-0.1-0.1-0.2c0-0.2-0.1-0.2-0.2-0.2c-0.1,0-0.2,0-0.2,0v0.2H27l0.1,0.2
		L27,27.5c0,0-0.1,0.1-0.2,0.2c-0.1,0.1-0.1,0.1-0.2,0.1c-0.1,0-0.2,0-0.2,0.1s0,0.2-0.1,0.2c-0.1,0-0.1-0.1-0.2,0
		c-0.1,0.1,0,0.2-0.2,0.1c-0.1,0-0.2-0.1-0.2,0c-0.2,0-0.2-0.1-0.2,0s-0.1,0.2-0.1,0.2s-0.2-0.2-0.2-0.1c-0.1,0.1-0.2,0.2-0.2,0.2
		s-0.1,0.2-0.1,0.2s0.2-0.3,0.1-0.4c-0.1-0.1-0.2-0.1-0.2,0c-0.1,0.1-0.2,0-0.2,0.1s-0.1,0.2-0.1,0.2v-0.3c0,0-0.2-0.2-0.2-0.1
		c-0.1,0.1-0.2,0.2-0.2,0.2c0,0.1,0,0.2,0,0.2l-0.2,0.3c0,0,0.1-0.4,0.1-0.5c0-0.2-0.1-0.2-0.2-0.2c-0.1,0-0.1,0.1-0.2,0.1
		c-0.1,0-0.2-0.1-0.2,0c-0.1,0,0,0.1-0.2,0.1s-0.3,0-0.4,0c0,0-0.2,0.3-0.2,0.5C23,29.2,23,29.3,23,29.3v-0.9l-0.3,0.1l-0.1,0.1
		l-0.2,0.8c0,0,0.2-0.8,0.2-0.8c-0.1-0.1-0.3,0-0.3,0.1c-0.1,0.1-0.1,0.1-0.2,0.1c-0.1,0-0.2,0.1-0.2,0.1s-0.1,0.3-0.2,0.6
		c-0.2,0.3-0.2,0.4-0.2,0.4s0.2-0.5,0.2-0.7s0-0.2-0.1-0.2S21.5,29,21.5,29c-0.1,0-0.1,0-0.1,0.1c-0.1,0.1-0.1,0.2-0.2,0.2
		c-0.1,0-0.2-0.1-0.2,0v0.2l-0.2,0.5l0.1-0.5c0-0.1-0.2-0.1-0.2,0c0,0.1-0.1,0.2-0.1,0.2h-0.2c0,0.1-0.1,0.1-0.1,0.1
		c-0.1,0-0.2,0-0.2,0.1s-0.1,0.2-0.1,0.2l-0.1,0.2c0,0-0.2-0.1-0.2,0c-0.1,0-0.1,0.1-0.2,0.1s-0.2,0-0.2,0v0.2c0,0-0.1,0.1-0.1,0.2
		c0,0,0,0.2,0,0.2c0-0.2,0,0.2,0,0.2l-0.1,0c0,0,0.1-0.2,0.1-0.3c0-0.2,0-0.3,0-0.4V30c0,0,0,0-0.2,0.1c-0.2,0-0.2,0-0.2,0V30
		c0,0-0.2,0-0.2,0.1c-0.1,0.1-0.2,0.2-0.4,0.2l-0.5,0.4l0.3-0.3c0.2-0.2,0.2-0.1,0.2-0.2S18.4,30,18.4,30l-0.3,0.3
		c0,0,0.2-0.2,0.2-0.3c0-0.1-0.1-0.1-0.1-0.1h-0.6h-0.3v-0.2c-0.1,0-0.2-0.1-0.3-0.1c-0.2,0-0.5,0-0.5,0s-0.1,0.1-0.2,0.1
		c-0.1,0-0.1,0-0.2,0c-0.1,0.1-0.1,0.2-0.1,0.2L16,29.8c0,0-0.1,0.1-0.2,0.2c-0.1,0.1-0.2,0-0.2,0l-0.1,0.6l-0.1-0.3l-0.2,0.4
		l0.1-0.2c0,0,0.1-0.2,0.2-0.3c0.1-0.2-0.2-0.3-0.2-0.2c-0.1,0.2,0,0.1,0,0c0-0.1-0.2,0-0.2,0c0,0.1-0.2,0.5-0.2,0.5
		s0.2-0.4,0.1-0.5c0-0.1-0.2-0.1-0.2,0C15,30,14.9,30.1,15,30c0-0.2-0.2-0.2-0.2,0c-0.1,0.2-0.2,0.2-0.2,0.1c0.1-0.1-0.2,0-0.2,0
		v0.2V30c0,0-0.2,0-0.3,0.2c-0.2,0.1-0.4,0.4-0.4,0.4l-0.3,0.2c0,0,0.2-0.2,0.2-0.2c0.1,0,0.2-0.2,0.2-0.2c0-0.1,0-0.2,0-0.2
		l-0.2,0.1l-0.1,0.2v-0.2l-0.2,0.2L13,30.8c0,0,0.2-0.2,0.2-0.3c0.1-0.1,0.2-0.2,0.2-0.2s-0.1-0.1-0.2,0s-0.2,0.1-0.2,0.1
		c-0.1,0-0.3,0.5-0.3,0.5l0.2-0.5c0,0-0.2,0-0.2,0.1c-0.1,0.1-0.1,0.2-0.3,0.2c-0.2,0-0.3-0.2-0.3,0c-0.1,0.2-0.2,0.2-0.2,0.2v-0.3
		l-0.3,0.2l-0.4,0.2v-0.2l-0.2-0.1L10.8,31v-0.4c0,0-0.2,0-0.2,0.1c-0.1,0.1-0.2,0.2-0.2,0.2v-0.2v0.2l-0.1,0.4v-0.3h-0.2v0.5
		L10.2,31L10,31.1v0.3l-0.1-0.2l-0.2,0.1c0,0,0.2-0.2,0.3-0.3c0.1-0.1,0.2-0.2,0.2-0.2s-0.2,0-0.2,0.1S9.8,31,9.8,31
		s-0.2-0.1-0.2,0.2c-0.1,0.2-0.4,0.6-0.4,0.6l0.2-0.5H9.2l-0.8,0.5l-0.2,0.1v-0.2l-0.4,0.2v-0.3l-0.3,0.2v-0.2H7.5v-0.2
		c0,0-0.2-0.1-0.3-0.1c-0.2,0-0.2-0.2-0.2-0.2l-0.3-0.2H6.5v-0.2c0,0-0.3-0.2-0.5-0.3c-0.2-0.2-0.3-0.2-0.4-0.2
		c-0.1,0-0.1-0.1-0.1-0.1c0-0.1-0.1,0-0.2-0.1c-0.2,0-0.2,0-0.2-0.2C5,29.9,5,29.8,4.8,29.8c-0.2,0-0.3-0.2-0.5-0.2
		c-0.2-0.1-0.2-0.1-0.3-0.2C4,29.3,4,29.3,3.8,29.3c-0.2-0.1-0.1-0.1-0.2-0.1c-0.1,0-0.1,0.1-0.2-0.1c-0.1-0.2,0-0.1-0.2-0.2
		c-0.2,0-0.1,0-0.2-0.2c-0.1-0.2-0.2-0.1-0.2-0.2c-0.1-0.2-0.2-0.2-0.2-0.5c0-0.3,0-0.5-0.2-0.5s-0.5-0.1-0.6-0.1
		c-0.2,0-0.2,0-0.2,0s0.5,0,0.7-0.1c0.2-0.1-0.1-0.1,0-0.2s0.3-0.2,0.4-0.2c0.2-0.1,0.1-0.1,0.2,0s0.2,0.2,0.3,0.2
		c0.2,0.1,0.3,0,0.3,0l-0.2-0.2c0,0,0.2,0.2,0.3,0.2c0.1,0.1,0.2-0.1,0.2-0.1L4,27c0,0,0.2,0,0.2,0.2c0.2,0.2,0.2,0.1,0.2,0.1v-0.2
		c0,0,0,0.1,0,0.2s0.2,0.1,0.2,0.1l-0.1-0.2l0.2,0.2l0.1-0.2l0.1,0.2h0.2l-0.1-0.2L5,27.4L5,26.6c0,0,0.2,0.5,0.2,0.5
		c0,0.1,0.1,0.2,0.1,0.2l0.2,0.2l0.1-0.2l0.1,0.2c0,0,0.4,0.2,0.5,0.3C6.1,27.9,6.3,28,6.3,28s-0.1-0.5,0-0.4
		c0.1,0.1,0.1,0.5,0.1,0.5l0.2,0.1v-0.3L6.6,28l0.2,0.1c0,0.1,0,0.1,0.1,0.2c0.1,0.1,0.3,0.2,0.4,0.2c0.1,0.1,0.2,0.2,0.2,0.2v-0.4
		l0.1,0.4c0,0,0,0.2,0.1,0.2c0.1,0,0.2,0.2,0.2,0.2L7.9,29c0.1,0,0.2-0.1,0.2-0.2s0-0.2-0.2-0.2c-0.2-0.1-0.2-0.2-0.2-0.2
		s0.5,0.2,0.5,0.3c0.2,0.1,0.2,0.2,0.4,0.2c0.2,0,0.2,0,0.2,0l0-0.3c0,0,0.1,0.2,0.2,0.2c0.1,0,0.2,0,0.2,0l-0.5-0.4
		c0,0,0.5,0.2,0.5,0.3c0.1,0.1,0.3,0.1,0.3,0.1s0.1-0.2,0-0.3c-0.2-0.1-0.5-0.3-0.5-0.3s0.5,0.2,0.6,0.3c0,0-0.2,0.2,0.1,0.3
		c0.2,0.1,0.2,0,0.2,0v-0.3l0.2,0.3v-0.3l0.3,0.2c0,0,0.2,0,0.3,0c0.1,0,0.2,0.1,0.2,0l-0.6-0.5l0.5,0.3c0,0,0.1,0.2,0.2,0.2
		c0.2,0,0.3-0.2,0.3-0.2l-0.5-0.4c0,0,0.5,0.3,0.5,0.4c0.2,0.1,0.2,0,0.2,0l-0.2-0.2l0.3,0.2h0.2l-0.3-0.4c0,0,0.3,0.3,0.4,0.4
		c0.1,0.1,0.1,0,0.2,0c0.1-0.1,0.2,0,0.2,0s0.2,0,0.3,0c0.2,0,0.1-0.1,0.2-0.1c0.2,0-0.3-0.4-0.3-0.4l-0.5-0.5c0,0,0.8,0.7,0.9,0.8
		s0.2,0.1,0.2,0.1l0.4-0.2c0,0-0.2-0.4-0.3-0.4c-0.2,0-0.3-0.1-0.3-0.1s-0.4-0.3-0.3-0.3c0.1,0,0.5,0.2,0.6,0.3
		c0.2,0.1,0.3,0.5,0.4,0.5s0.1-0.1,0.1-0.1l-0.2-0.5l0.3,0.3l0.3-0.1c0,0,0-0.2-0.2-0.2c-0.2-0.1-0.2-0.1-0.2-0.1s0.3,0.2,0.5,0.2
		c0.2,0.1,0.5,0,0.6-0.1c0.2,0,0.5-0.1,0.5-0.1s-0.3-0.3-0.4-0.3s-0.2-0.1-0.2-0.1s0.1-0.1,0.2,0c0.2,0.1,0.3,0.2,0.4,0.3
		c0.2,0.1,0.3,0,0.3,0s-0.1-0.1-0.2-0.2c-0.2-0.1-0.1-0.1,0.1,0c0.1,0.1,0.2,0.1,0.2,0.2c0.1,0,0.1-0.1,0.2-0.1c0.1,0,0.2,0,0.3,0
		s0.1-0.1,0.1-0.1l-0.5-0.2c0,0,0.4,0,0.5,0.1s0,0.2,0.2,0.2c0.2,0,0.5,0,0.6,0c0.1,0,0.1-0.2,0.1-0.2l0.2,0.2h0.3
		c0-0.1,0.1-0.1,0.2-0.1c0.1,0,0.2-0.1,0.2-0.2c0.1-0.1,0.2-0.1,0.1-0.1c-0.1,0-0.2-0.2-0.2-0.2s0.2,0.2,0.2,0.2
		c0.1,0,0.2-0.2,0.3-0.2c0.2,0,0.3-0.2,0.5-0.2c0.2,0,0.2,0,0.2,0s-0.1-0.2,0-0.2h0.4c0,0-0.1-0.1,0.1-0.2c0.2,0,0.2,0,0.2-0.1
		c0-0.1,0-0.2,0.2-0.2s0.1,0.1,0.2,0.1c0.1-0.1,0.1-0.2,0.2-0.2c0.1,0,0.2-0.1,0.2-0.1l-0.2-0.1h-0.5c0,0,0.2-0.1,0.3-0.1h0.2
		c0,0,0.2,0.2,0.2,0.2c0.1,0,0.1,0,0.1,0s0.1-0.1,0.2-0.1s0.2-0.1,0.1-0.1c-0.1,0-0.2-0.2-0.2-0.2l-0.2-0.1c0,0,0.3,0,0.4,0.1
		c0.1,0.1,0,0.2,0.2,0.2c0.2,0,0.1,0,0.2-0.1h0.2c0.2,0,0.4-0.1,0.3-0.1s-0.8-0.5-0.9-0.5h-0.2c0,0,0.5,0,0.6,0.2s0.5,0.4,0.5,0.4
		h0.2l0.2-0.1v-0.2h0.3v-0.1h0.5l0.1-0.2h0.2l0.3-0.2l-0.7-0.2c0,0,0.5,0.1,0.6,0.2c0.2,0.1,0.2,0.2,0.3,0.1
		c0.1-0.1,0.1-0.2,0.1-0.2l-0.5-0.3c0,0,0.5,0.3,0.6,0.3c0.2,0.1,0.3,0.1,0.2,0c-0.1-0.1-0.2-0.2-0.2-0.2s0.2,0.2,0.3,0.2
		c0.2,0,0.3-0.1,0.2-0.2c-0.2-0.1-0.2-0.2-0.3-0.2c-0.1-0.1-0.2-0.2-0.2-0.2s0.2,0.2,0.5,0.4c0.3,0.1,0.5-0.1,0.5-0.1
		s-0.3-0.3-0.5-0.3c0.2,0,0.5,0.2,0.6,0.2c0.2,0.2,0.2,0,0.2-0.1c0-0.1,0-0.2,0.1,0c0.1,0.1,0.2,0,0.2,0c0.1,0,0.5,0.1,0.6-0.1
		c0.2-0.2,0.2-0.2,0.5-0.2c0.3,0,0.4,0,0.5,0.1l0.2,0.2c0.2-0.2,0.2-0.2,0.5-0.2c0.2,0,0.4,0,0.5,0.1s0.2,0.1,0.4,0.1
		c0.1,0,0.5,0.1,0.6,0.2c0.1,0.1,0.1,0.2,0.2,0.2c0.2,0,0.1-0.1,0.2,0c0.2,0.1,0,0.1,0.2,0.2c0.1,0,0.2,0,0.2,0
		c0.1,0,0.2,0.2,0.2,0.2l0.3,0.1c0,0,0.2,0.2,0.3,0.1s0.2-0.2,0.4,0.1c0.2,0.3,0.6,0.5,0.8,0.5c0.1,0.1,0.2,0.2,0.3,0.2
		c0.1,0.1,0.2,0.2,0.3,0.2c0.2,0.1,0.2-0.1,0.2,0.2c0,0.2,0.2,0.2,0.2,0.2s0.2,0.2,0.2,0.1c0.1-0.1,0.2-0.1,0.2,0.1
		c0,0.2,0,0.1,0.1,0.2s0.2-0.2,0.2,0c0,0.2,0.2,0.2,0.2,0.2s-0.1-0.5-0.2-0.9c0-0.5-0.1-0.5-0.1-0.7s0.1-0.1,0.1-0.2
		c0-0.2,0-0.2,0-0.2c0-0.1-0.1-0.1,0-0.2c0-0.1,0.1-0.2,0.1-0.2s0-0.2,0.1-0.5c0.1-0.2,0.2-0.6,0.3-0.8c0-0.2,0.1-0.1,0.1-0.2
		c0-0.1,0-0.2,0-0.2c0.1,0.1,0.1-0.2,0.1-0.2s-0.1,0.3,0.1,0.3s0.2-0.2,0.2-0.4c0-0.1,0-0.1,0-0.2c0.1-0.1,0.2-0.4,0.2-0.5
		s0.4-0.9,0.5-1c0.1-0.2,0.2-0.5,0.2-0.5l-0.1,0.5c0,0.1-0.1,0.2-0.2,0.5c-0.1,0.2-0.2,0.2,0,0.2c0.2,0,0.2,0,0.2-0.2
		c0-0.1-0.1-0.2-0.1-0.2s0,0.1,0.2,0.1c0.2,0,0.2,0.1,0.2-0.2c0-0.2,0-0.2,0-0.2s0.2,0,0.2,0c0,0,0.1-0.2,0.2-0.3
		c0.1-0.1,0.1-0.2,0.2-0.2c0.1,0,0-0.2,0-0.2c0,0.1,0,0.1,0,0.1s0-0.1,0.2-0.1s0.2,0,0.2,0c0.1,0,0.2-0.2,0.2-0.2
		c0.2,0,0.2,0,0.2-0.1s0-0.1,0.1-0.1s0.1-0.2,0-0.2c-0.1,0-0.2-0.1-0.2-0.1s0.2,0,0.2,0c0.1,0,0-0.1,0.1-0.1c0.1,0,0.2,0,0.2,0
		l0.1-0.2h0.2v-0.2h0.2c0,0,0.2,0,0.2-0.1s0.1-0.2,0.1-0.2h0.2c0,0,0.1,0,0.2-0.2c0.1-0.1,0.2-0.2,0.1-0.2c-0.1,0-0.3,0-0.3,0
		s0.2,0,0.3-0.1c0.2,0,0.5,0,0.5,0v-0.2l0.2,0.1l0.1-0.1h0.2c0,0,0.1,0,0.2-0.1c0-0.1,0.2-0.2,0.3-0.3c0.1-0.1,0-0.2,0.2-0.2
		c0.2-0.1,0.1-0.1,0.1-0.1s0,0,0.2,0.1c0.2,0,0.2,0,0.2,0c0.1-0.1,0.2-0.1,0.2-0.1c0-0.1,0.2-0.1,0.3-0.1s0.2,0,0.3,0
		c0.1,0,0.1-0.2,0.2-0.2s0.2,0.2,0.2,0.1v-0.1c0,0,0.3,0,0.4,0c0.2,0.1,0.3,0,0.5,0c0.1,0,0.2,0,0.2,0c0.1-0.1,0.2-0.1,0.3-0.1
		c0.2,0,0.3,0,0.3,0l-0.4-0.4l-0.3-0.4c0,0,0.5,0.5,0.6,0.6c0.1,0.1,0.2,0.2,0.2,0.2s0-0.2,0.2-0.2s0.7,0,0.7,0l-0.8-1l0.8,1
		c0,0,0.2,0,0.4,0.1c0.2,0,0.2,0.1,0.2,0.1c0.1,0,0.1-0.1,0.2,0c0.1,0-0.5-0.5-0.3-0.4L43.8,17c0,0,0.6,0.5,0.8,0.6
		c0.2,0.1,0.2,0.2,0.3,0.3s0.5,0.2,0.6,0.2h0.2c0,0-0.7-0.6-1-0.8c-0.3-0.2-0.5-0.3-0.5-0.3s0.5,0.2,0.5,0.2
		c0.1,0.1,0.3,0.3,0.5,0.5c0.2,0.2,0.3,0.3,0.3,0.3c0.1,0.1,0.2,0.2,0.2,0.2l0.2-0.1c0.2,0.2,0.2,0.2,0.2,0.2c0.2,0,0.1,0,0.2,0
		c0.1,0.1,0.2,0.2,0.3,0.2c0.2,0,0.5,0.2,0.5,0.2c0.2,0,0.2,0,0.3,0.1s0.2,0.1,0.4,0.1c0.2,0,0.2,0,0.3,0.1c0.1,0.1,0.1,0.1,0.2,0.1
		c0.2,0,0.1,0,0.2,0.1c0.2,0.1,0.2,0.2,0.2,0.1c0.1-0.1,0.2-0.1,0.2,0c0,0.2,0.1,0.1,0.2,0.1s0.1-0.1,0.1,0c0,0.2,0,0.2,0.2,0.3
		c0.2,0,0.2,0.2,0.2,0.2c0.2,0.1,0.3,0.1,0.3,0.1s0.1-0.2,0-0.2s-0.2-0.2-0.2-0.2s0.3,0.2,0.4,0.3c0.1,0.2,0.5,0.5,0.6,0.7
		c0.2,0.2,0.1,0.1,0.2,0.2c0.2,0.1,0.1,0.1,0.2,0.2c0.2,0.2,0.1,0,0.2,0c0.1-0.1,0.1,0,0.2,0c0,0.1,0.2,0.1,0.1,0.2
		c-0.1,0-0.2-0.1-0.2,0s0.1,0.2,0.2,0.3c0.1,0.2,0,0.2,0.2,0.3c0.2,0.1,0.1,0,0.2,0.2c0,0.2,0.1,0.3,0.2,0.4
		c0.1,0.2,0.2,0.2,0.2,0.3c0.1,0.2,0.1,0.2,0.2,0.2c0.1,0.1,0.1,0.2,0.1,0.4c0,0.2,0,0.3,0.1,0.5c0.1,0.2,0.2,0.6,0.4,1
		c0.1,0.2,0.1,0.2,0.2,0.3c0,0,0,0.1,0.1,0.2C52.9,25,53,25,53,25.1c0,0.2,0,0.3,0,0.3c0,0.1,0,0.2-0.1,0.5s-0.1,0.4-0.1,0.5
		c0,0.2,0,0.3-0.1,0.5c-0.1,0.2,0,0.3-0.1,0.5c-0.1,0.1-0.1,0.2-0.1,0.4s0,0.1-0.1,0.2s-0.2,0.1-0.1,0.2s0.2,0.2,0.2,0.2
		s-0.2,0-0.2,0.2c0,0.1,0.1,0.2,0,0.3c0,0.2,0,0.2,0,0.2h0.2c0,0,0,0.2-0.1,0.2s-0.2,0-0.2,0l0.1,0.2c0,0,0.2,0.1,0.2,0.1
		c-0.2,0-0.2,0.1-0.2,0.1s-0.1,0.2,0,0.3c0,0.2,0.1,0.2,0.1,0.2L52.2,30l0.1,0.2l-0.2,0.1c0,0-0.2,0.2-0.1,0.2
		c0.2,0.1,0.2,0.1,0.2,0.1l-0.2,0.2l0.2,0.3H52v0.2l-0.2,0.2l0.1,0.3h-0.2v0.5c0,0,0.2,0,0.3,0c0.1-0.1,0-0.2,0.2-0.2
		c0.1-0.1,0.5-0.4,0.5-0.5c0-0.2,0-0.2,0-0.2l0.1-0.2c0,0,0.3-0.4,0.3-0.5s0-0.2,0-0.2l0.2,0.2c0,0,0.1,0,0.1-0.2v-0.2l0.1,0.1
		l-0.1-0.3l0.1,0.2c0,0,0.1,0,0.1-0.2v-0.2l0.2,0.1v-0.2l0.1-0.2h0.2V29l0.2,0.1c0,0,0-0.2,0-0.2c0-0.1,0.1-0.1,0.1-0.2v-0.2h0.2
		c0,0,0.1-0.1,0.1-0.3c0-0.2,0-0.3,0-0.3l0.2,0.1l0.1-0.3l-0.1-0.2l0.2-0.1v-0.2l-0.2-0.1l0.2-0.1c0,0,0.1-0.3,0-0.3l-0.1-0.1
		c0,0,0.2,0.2,0.2,0c0.1-0.1,0-0.2,0.1-0.2c0-0.2,0-0.2,0-0.2l-0.2-0.1c0,0,0.2,0,0.2-0.1s0-0.3,0-0.3s0.1-0.2,0.1-0.3
		c0-0.2,0.1-0.2,0.1-0.2v-0.4l0.2-0.2v-0.2l-0.1-0.1c0,0,0.2,0,0.2-0.2c0-0.1,0-0.2,0-0.3c0.1-0.2,0.1-0.2,0-0.3l-0.1-0.2l0.2-0.2
		c0,0,0-0.2,0-0.5s0-0.5,0-0.5s0.1-0.3,0-0.5c0.2,0,0.1-0.2,0.1-0.2s0.1-0.1,0.1-0.2c0-0.1,0.1-0.2,0-0.3s-0.1-0.1,0-0.2
		s0.1-0.3,0.2-0.5c0-0.2,0.1-0.5,0.1-0.7s0-0.2,0.1-0.3c0.1-0.2,0.2-0.7,0.2-1.1c0.1-0.4,0.3-0.8,0.4-0.9c0.1-0.1,0.2,0,0.2-0.2
		c0.1-0.1,0.2-0.7,0.3-1c0.2-0.3,0.3-0.2,0.5-0.5c0.2-0.4,0.3-0.6,0.3-0.6s0.1-0.1,0.2-0.1c0.2,0,0.2-0.1,0.2-0.2s0.2-0.5,0.2-0.5
		s-0.2,0.3,0,0.3c0.1,0.1,0.3-0.1,0.5-0.1l0.1-0.1v-0.2l0.2,0.2l0.2-0.1v-0.3c0,0,0.1,0.3,0.2,0.3s0.2-0.1,0.2-0.1l-0.1-0.3l0.2,0.2
		l0.1-0.2l0.1-0.2v0.2c0,0,0.1,0,0.1,0.1s0,0.1,0.1,0.2c0.1,0,0.2,0,0.2,0c0-0.1-0.2-0.2-0.1-0.4c0-0.2,0.2-0.5,0.2-0.5
		s0,0.2-0.1,0.3c0,0.2-0.1,0.2,0,0.3s0.1,0.2,0.1,0.2s0-0.5,0.1-0.6c0-0.2,0.1-0.3,0.1-0.2s-0.1,0.6-0.1,0.7c0,0.2,0,0.2,0,0.2
		c0.1,0.1,0.2,0.1,0.2,0.1l0.2-0.7c0,0-0.2,0.5-0.2,0.6s0.2,0.1,0.2,0c0.1,0,0.1-0.1,0.1-0.2s0-0.3,0-0.3l0.1,0.2l0.2-0.2v-1.5
		l0.1,1.5l0.2-0.5c0,0-0.2,0.5-0.2,0.5c0.1,0.1,0.2,0.1,0.3,0c0-0.1,0-0.4,0-0.4s-0.1,0.3,0.1,0.3c0.1,0,0.2,0.1,0.2,0
		c0.1,0,0.2-0.1,0.3,0c0.2,0.1,0.2,0,0.2,0l0.2-0.5c0.1-0.1-0.1,0.3-0.1,0.5s0.2,0.2,0.2,0.1c0.1,0,0.1-0.1,0.1-0.1
		c0-0.1,0.2-0.4,0.2-0.4l-0.1,0.5l0.2-0.1l0.5-0.9l-0.4,0.8v0.2c0,0,0.2,0.1,0.3,0c0.1,0,0.2-0.1,0.2-0.2c0.1-0.1,0.1-0.1,0.1-0.1
		v0.2h0.2l0.5-0.8c0,0-0.4,0.6-0.4,0.7s0.2,0.2,0.2,0.1c0.1-0.1,0.5-0.8,0.5-0.8s-0.5,0.7-0.4,0.8s0.3,0,0.3,0l0.3-0.2l-0.2,0.4h0.2
		l0.4-0.5c0,0-0.4,0.4-0.3,0.5c0.1,0.1,0.1,0.1,0.2,0c0.1-0.1,0.2-0.1,0.2,0s0.1,0.1,0.2,0.1c0.1-0.1,0-0.1,0-0.2
		c-0.1-0.1-0.1-0.1,0-0.1c0.1,0,0.2-0.3,0.1-0.3c-0.1,0-0.1-0.2,0-0.2c0.2,0,0.2,0,0.2,0.1s0,0.2,0.1,0.2c0,0.2,0,0.2,0.2,0.2
		c0.2,0,0.2,0,0.2-0.2C65.7,13.8,65.5,13.3,65.7,13.5"/>
</g>
</svg>
