<?xml version="1.0" encoding="utf-8"?>
<!-- Generator: Adobe Illustrator 27.9.0, SVG Export Plug-In . SVG Version: 6.00 Build 0)  -->
<svg version="1.1" id="Layer_1" xmlns="http://www.w3.org/2000/svg" xmlns:xlink="http://www.w3.org/1999/xlink" x="0px" y="0px"
	 viewBox="0 0 100 100" style="enable-background:new 0 0 100 100;" xml:space="preserve">
<path d="M32.4,84.5c0.3,2.2-1.7,3.5-0.8,5.5c0.1,0.1,0,0.5-0.1,0.6c-1.9,1.8-0.2,3.6,0.1,5.4c0.1,1,0.5,1.9,0.6,2.9
	c0,0.3-0.5,1-0.9,1c-2.7,0.1-5.4,0.1-8.1,0c-0.9,0-1.4-0.7-1.1-1.7c0.4-1,0.7-2.1,1.2-3.1c0.7-1.4,1.2-2.7,0.6-4.4
	c-0.5-1.5-0.3-3.2-0.4-4.8c-0.1-1.5,0-3.1-0.1-4.6c0-0.2-0.1-0.5,0-0.6c1.1-1.9,0.7-4.1,1.3-6.1c0.1-0.2,0.2-0.6,0.1-0.7
	c-1.9-2.5-0.7-5.3-0.4-7.9c0.2-2.4,1-4.8,1.5-7.2c0.1-0.7,0.1-1.4,0.2-2c0-2.4,0.1-4.9,0.1-7.3c0-1.3-0.2-2.6-0.4-4
	c-0.3,0-0.5,0-0.8,0c-0.1,0.9-0.2,1.8-0.3,2.7c-0.1,0.4-0.1,0.9-0.4,1.1c-1.2,0.8-1,1.9-0.4,2.8c1.2,1.8,0.7,3.6-0.2,5
	c-2.5,3.8-3.2,8.2-4.2,12.4c-0.9,3.9-1.6,7.9-2.8,11.8c-0.6,1.9-2.1,3.5-3.1,5.3c-0.2,0-0.5-0.1-0.7-0.1c-0.1-2.3-0.7-4.6-0.3-6.8
	c1.4-6.4,3.2-12.8,4.7-19.2c0.3-1.4,0-3-0.2-4.5c-0.3-1.5-0.1-2.7,1.2-3.7c1-0.7,1.2-1.7,1-3c-0.5-3.4-0.7-6.9-0.9-10.3
	c-0.1-0.9,0.3-1.9,0.5-3c-0.8-0.7-1-2.3-0.5-3.6c0.7-1.9,1.3-3.9,1.9-5.9c0,0,0-0.1,0-0.2c1.5-2.7,2.1-6.1,5.2-7.8
	c0.6-0.3,1.3-0.7,1.9-0.7c2,0.1,2.9-1.2,4-2.5c0.4-0.5,0.7-1,1.2-1.3c3.6-2.3,3.8-6.2,4.3-9.8C37,3,37.1,2.1,38.4,1.7
	c0.5-0.1,0.9-0.4,1.3-0.7c2.9-2.1,5.4-0.8,7.6,1.2c0.6,0.5,0.3,1.9,0.6,2.8c0.7,2.6,1.4,5.3,2.2,7.9c0.1,0.3,0.6,0.5,1,0.8
	c1.9,1.2,1.9,1.2,1.9,2.9c2.6,1.5,5.1,2.9,7.5,4.4c0.6,0.4,1.5,0.8,0.8,1.9c-0.1,0.2,0.2,0.7,0.3,1c0.8,1.7,1.6,3.4,2.3,5.1
	c0.2,0.5,0.1,1.1,0.1,1.7c0,1-0.3,2,0.8,2.7c0.3,0.2,0.2,1,0.2,1.5c-0.1,1.5,0,2.7,1,4c0.7,1,1.1,2.3,1.3,3.5
	c0.4,2.6,0.4,5.2,0.8,7.8c0.1,0.9,0.9,1.8,1,2.7c0.3,2.6,2.3,3.6,4.1,4.9c4.5,3.3,9,6.5,13.4,9.9c0.6,0.4,1.3,1.5,1.1,2
	c-0.2,0.7-1.2,1.1-1.9,1.5c-0.2,0.1-0.7,0.2-0.7,0.3c-0.1,2-1.8,2.2-3.6,2.9c3.3,1.1,3.4,3.1,2,5.6c-4-2.5-8.8-4.3-10.8-9.1
	c-0.7-1.6-0.4-3.7-0.6-5.8c3.1,1.4,3.8,2.4,3.6,4.7c2,0.3,3.4-0.6,4.5-2.1c0,0,0-0.2-0.1-0.2c-3.7-3.2-7.4-6.5-11.1-9.7
	c-0.3-0.3-0.9-0.6-1.1-0.5c-1.6,0.9-2.9,0-4.4-0.9c1.1,4.5,1,9.1,4,12.8c1,1.3,1.6,3,2.4,4.5c2.6,4.4,4.3,9.1,6,13.8
	c0.2,0.5,0.3,1,0.4,1.6c-1.3-2-3.2-2-5-1.5c-1.8,0.4-3.5,1.3-5.3,1.9c-1,0.3-2.1,0.5-3.2,0.7c0-0.1-0.1-0.3-0.1-0.4
	c0,0.1-0.1,0.2-0.1,0.3c-0.4,3.4,0.2,4.2,4.6,4.9c2.1,0.3,2.5,1.4,2.8,3.1c0.2,1.3-0.4,1.8-1.6,1.8c-1.6,0-3.2-0.1-4.8-0.2
	c-2.5-0.3-4.9-0.7-7.4-1c-1.3-0.2-1.8-1-1.6-2.4c0.4-2.5,0.7-4.9-0.9-7.2c-0.1-0.2-0.2-0.5-0.2-0.8c-0.2-2-0.3-2.1-2.2-1.6
	c-2.1,0.6-4.3,1.3-6.4,2c-1.9,0.6-3.6,0.7-5.3-0.7c-0.6-0.5-1.7-0.7-2.5-0.6c-1.5,0.2-2.4-0.3-3.1-1.5
	C33.5,85.6,33.1,85.3,32.4,84.5z"/>
</svg>
