<?xml version="1.0" encoding="utf-8"?>
<!-- Generator: Adobe Illustrator 27.9.0, SVG Export Plug-In . SVG Version: 6.00 Build 0)  -->
<svg version="1.1" id="Layer_1" xmlns="http://www.w3.org/2000/svg" xmlns:xlink="http://www.w3.org/1999/xlink" x="0px" y="0px"
	 viewBox="0 0 100 100" style="enable-background:new 0 0 100 100;" xml:space="preserve">
<g>
	<g>
		<path d="M70.7,27.1c0.4,0.2,0.8,0.4,1.1,0.6c1.4,0.8,2.8,1.5,4.2,2.3c1.8,1,3.7,1.3,5.7,1.1c0.2,0,0.4,0,0.7-0.1
			c0.1,0,0.4-0.1,0.4-0.2c0-0.1-0.1-0.4-0.2-0.4c-0.5-0.2-1-0.5-1.6-0.6c-1.2-0.3-2.5-0.6-3.6-1.2c-0.8-0.4-1.5-0.9-2-1.5
			c-0.1-0.1-0.1-0.2-0.2-0.3c0.5,0.1,1,0.2,1.5,0.2c1.1,0,2.1,0,3.1-0.2c1-0.1,1.9,0,2.8,0.6c0.7,0.5,1.6,1,2.5,1
			c0.4,0,0.8,0,1.2-0.1c0.2,0,0.3-0.2,0.5-0.3c-0.1-0.1-0.3-0.3-0.4-0.4c-0.5-0.2-1-0.3-1.5-0.4c-1.2-0.2-2.2-0.8-3-1.8
			c-0.9-1.2-1.9-2.2-3.2-3c-0.8-0.5-1.5-1.2-2-2.1c-0.5-0.9-1-1.7-1.6-2.7c0.4-0.1,0.8-0.3,1.2-0.3c1.7,0,3-0.6,3.8-2.2
			c0,0,0-0.1,0.1-0.1c0.7-0.5,1.1-1.2,1.6-1.9c0.1-0.1,0.1-0.2,0.1-0.3c-0.1,0-0.3-0.1-0.4-0.1c-0.1,0-0.2,0.1-0.3,0.2
			c-0.3,0.3-0.6,0.6-1,0.8c-0.1,0.1-0.2,0.1-0.3,0c-0.1,0-0.1-0.2-0.1-0.3c0.1-0.9,0.3-1.7,1.2-2.2c0.4-0.2,0.8-0.5,1.2-0.7
			c0.1-0.1,0.2-0.2,0.2-0.3c-0.2,0-0.3-0.2-0.5-0.1c-0.4,0.1-0.7,0.3-1.2,0.4c0.2-0.5,0.4-1,0.5-1.4c0-0.1,0-0.4-0.1-0.5
			c-0.2-0.2-0.4,0-0.5,0.2c-0.2,0.4-0.4,0.8-0.7,1.1c-0.1,0.2-0.3,0.5-0.6,0.4c-0.1,0-0.2,0.1-0.3,0.2c-0.5,0.6-0.9,1.2-1.1,2
			c-0.2,0.7-0.5,1.3-1.1,1.8c-0.2,0.1-0.3,0.3-0.4,0.5c-0.1,0.3-0.3,0.4-0.6,0.4c-0.3,0-0.6,0-0.9,0c-0.4,0-0.8,0-0.9-0.5
			c-0.1-0.4-0.6-0.5-1-0.3c-0.3,0.1-0.5,0.3-0.8,0.4c-0.6,0.3-1.1,0.4-1.8,0.2c-0.8-0.3-1.4-0.7-2-1.4c0,0,0,0,0-0.1
			c1.1-1,1.8-2.4,2.7-3.6c0.4-0.5,0.8-1,1.2-1.5c0.4-0.4,0.5-0.3,0.8,0.1c0.3,0.4,0.7,0.6,1.1,0.7c0.3,0.1,0.5,0.1,0.8,0.1
			c0.6,0.1,1,0.3,1.4,0.7c0.1,0.1,0.3,0.3,0.5,0.3c0.1,0,0.3,0,0.4,0c0.1-0.1,0-0.3,0-0.4c-0.3-0.4-0.6-0.7-0.9-1.1
			c-0.1-0.1-0.2-0.2-0.3-0.3C76.5,8,76.7,8,77.3,8.3c0.5,0.3,1,0.6,1.5,0.9c0.1,0.1,0.3,0,0.5-0.1C79.2,9,79.1,8.9,79,8.8
			c-0.5-0.4-1-0.8-1.5-1.2c1-0.4,2,0,3.1-0.5C80.4,7,80.2,6.8,80,6.8c-0.5-0.1-0.9-0.3-1.4-0.4c-0.3-0.1-0.6-0.1-0.9-0.1
			c-1.1,0.2-2.2,0.2-3.3,0c-2.1-0.3-3.7,0.6-5,2.1c-0.8,1-1.7,1.9-2.9,2.6c-0.1,0.1-0.3,0.1-0.5,0.1c-0.5-0.2-1-0.1-1.4,0.2
			c-1,0.9-2.1,1.4-3.4,1.4c-0.5,0-0.9,0.3-1.1,0.8C60,13.9,59.8,14,59.4,14c-0.4,0-0.8,0.1-1.1,0.2c-0.1,0-0.3,0-0.4,0
			c-0.7-0.2-1.3-0.4-2-0.7c-0.1,0-0.2-0.2-0.2-0.4c0-0.5,0-1,0-1.6c0-0.4-0.1-0.8-0.3-1.2c-0.1-0.2-0.3-0.4-0.5-0.4
			c-0.3-0.1-0.3-0.2-0.4-0.4c-0.5-1.7-1-3.5-1.4-5.2c-0.3-1.1-0.8-2.1-1.7-2.9c-0.4-0.3-0.6-0.8-0.8-1.2C50.3,0.1,50.2,0,49.9,0
			c-0.5,0.1-1.1,0.2-1.6,0.3c-0.8,0.2-1.6,0.2-2.5,0c-1.1-0.3-2,0-2.8,0.9c-0.2,0.3-0.5,0.5-0.7,0.8c-0.6,0.9-1.3,1.5-2.2,2
			c-1.3,0.7-1.9,1.8-1.8,3.3c0,0.3-0.1,0.6-0.3,0.8c-0.7,0.9-1.5,1.7-2.4,2.3c-1.3,0.8-1.7,2-1.4,3.5c0,0.1,0,0.2,0.1,0.3
			c0.2,0.5,0.1,0.8-0.3,1.1c-0.4,0.2-0.5,0.6-0.5,1.1c0,0.2-0.1,0.4-0.3,0.4c-0.7,0.2-1.1,0.6-1.3,1.3c0,0.1-0.1,0.2-0.2,0.3
			C31,18.5,30.4,19,30,19.6c-0.4,0.5-0.7,1-1,1.5c-0.4,0.8-0.2,1.2,0.6,1.6c1,0.5,2,0.4,3,0.4c1.2,0.1,2.4,0,3.6,0.2
			c1.4,0.2,2.7,0.8,3.2,2.3c0.3,0.8,0.5,1.6,0.6,2.4c0.1,0.9,0,1.9-0.1,2.8c0,0.7-0.1,1.5-0.1,2.2c0,0.6-0.2,1.2-0.6,1.8
			c-0.6,0.9-1,1.9-1.3,3c-0.5,1.9-1.2,3.6-2.3,5.2c-0.9,1.4-1.6,2.9-2.5,4.3c-1.4,2.3-2.3,4.7-3.1,7.2c-0.7,2.3-1.4,4.6-2.2,6.9
			c-0.4,1.3-1,2.6-1.4,3.9c-1.4,4.8-2.5,9.6-2.8,14.6c-0.1,1.6,0,3.2,0,4.8c0,0.3,0,0.5-0.2,0.6c-1.9,1.7-3.8,3.2-6.1,4.3
			c-0.9,0.4-1.8,0.8-2.6,1.2c-0.3,0.1-0.6,0.4-0.8,0.6c-0.5,0.5-0.6,1.1,0,1.6c0.6,0.5,1.3,1,2,1.3c1.5,0.7,3.2,0.9,4.8,1.2
			c0.9,0.2,1.8,0.4,2.7,0.6c1,0.2,1.8,0.7,2.5,1.4c0.2,0.2,0.5,0.4,0.7,0.6c1.5,1.5,3.3,2,5.3,1.9c1.4,0,2.7-0.2,4.1-0.4
			c2.7-0.5,5.3-0.9,8-1.4c0.2,0,0.4-0.1,0.5-0.2c1.1-0.9,2.3-1.5,3.7-1.9c1-0.3,2-0.7,3-1.2c1.3-0.7,2.7-1.1,4.2-1
			c1.3,0,2.5-0.3,3.7-0.8c1.5-0.7,3-1.1,4.6-1.6c2.6-0.8,3.8-2.7,4.3-5.1c0.2-0.9-0.1-1.6-0.7-2.3c-0.4-0.4-0.8-0.8-1.2-1.2
			C66,82.6,66,82.4,66,82.2c0.5-3.8,0-7.6-0.6-11.3c-0.9-4.7-2.2-9.3-3.7-13.8c-1.9-5.7-4.1-11.4-6.3-17c-0.4-1-0.7-2-1.1-3
			c-0.1-0.3-0.1-0.4,0.2-0.5c0.1,0,0.2-0.4,0.2-0.5c-0.2-0.5-0.4-1-0.8-1.3c-0.5-0.6-0.5-1.3-0.2-1.8c1.3-2,1.5-4.3,1.4-6.6
			c0-0.5,0-1,0-1.6c0-0.3,0.1-0.4,0.4-0.4c0.2,0,0.5-0.1,0.7-0.1c0.7-0.1,1.4-0.1,2.1,0.1c1.2,0.4,2.4,0.8,3.7,1.1
			c2.1,0.4,4,1.3,5.7,2.5c1.9,1.4,4.1,2.1,6.3,2.5c0.1,0,0.3-0.1,0.4-0.1c-0.1-0.2-0.1-0.4-0.2-0.5c-0.7-0.5-1.4-0.9-2-1.3
			c-0.4-0.3-0.8-0.7-1.2-1.1C70.8,27.5,70.7,27.4,70.7,27.1C70.6,27.2,70.7,27.1,70.7,27.1"/>
	</g>
</g>
</svg>
