<?xml version="1.0" encoding="utf-8"?>
<!-- Generator: Adobe Illustrator 27.9.0, SVG Export Plug-In . SVG Version: 6.00 Build 0)  -->
<svg version="1.1" id="Layer_1" xmlns="http://www.w3.org/2000/svg" xmlns:xlink="http://www.w3.org/1999/xlink" x="0px" y="0px"
	 viewBox="0 0 100 100" style="enable-background:new 0 0 100 100;" xml:space="preserve">
<g>
	<g>
		<path d="M73.3,17.3c0-0.5-0.5-1-1-1c-0.6,0-1,0.4-1,1c0,0.6,0.5,1,1,1C72.9,18.3,73.3,17.9,73.3,17.3 M72.8,11.7
			c1.1,0,2-0.8,2-1.9c0-1.1-0.9-2-2-2c-1.1,0-1.9,0.9-2,1.9C70.8,10.8,71.7,11.7,72.8,11.7 M71.6,14.5c-2.3-1.5-2.3-1.5-3.4-3.9
			c-1.7-0.1-1.7-0.1-1.7,1.6c0,7,0.1,14-0.7,20.9c-0.1,1-0.3,1.9-0.5,2.9c1.1-1.2,2.6-2.1,2.8-4c0-0.2,0.1-0.4,0.2-0.6
			c0.4-1,0.8-2,1.2-2.9c0.1-0.3,0.4-0.5,0.5-0.7c0.2-0.6,0.3-1.3,0.3-1.9c0-0.6-0.3-1.2-0.3-1.7c0-0.4-0.1-0.8,0.1-1.1
			c0.3-0.9,0.3-1.1-0.6-1.5c-0.3-0.1-0.6-0.2-0.9-0.4c-0.2-0.1-0.4-0.3-0.4-0.4C68,20,68,19.3,67.9,18.5c0.7,0,1.3-0.1,1.7,0.6
			c0.1,0.2,0.5,0.3,0.8,0.4C69.2,17,69.5,15.6,71.6,14.5 M58.1,31.9c-0.8,1.8-1.5,3.5-2.2,5.2c-1.2,2.5-0.8,4.8,0.7,7.2
			c1.1,1.7,2.1,3.6,2.9,5.5c1.7,3.7,2.6,7.5,2.8,11.5c0.2,3.7,0.7,7.4,1.1,11.2c0,0.2,0.1,0.3,0.2,0.5c0.1,0,0.1,0,0.2,0
			c1.7-11.8,3.4-23.6,5.2-35.6c-0.5,0.3-0.8,0.4-1.1,0.6c0.2,0.4,0.3,0.7,0.4,1c-0.5-0.1-0.8-0.1-1.1-0.1c-0.2,1.4-0.2,2.8-0.5,4.1
			c-0.3,1.3-0.9,2.5-2.1,3.3c0-0.2,0.1-0.3,0.1-0.5c0.2-0.9,0.4-1.7,0.5-2.6c0-0.3-0.5-0.6-0.7-0.8c-0.2,0.2-0.5,0.4-0.7,0.7
			c-0.1,0.2-0.2,0.5-0.3,0.8c-0.2,0-0.4-0.1-0.6-0.1c0,0.7-0.1,1.4-0.1,2.1c0,0.7,0,1.4,0,2.1c-1.6,0-1.7-0.1-1.6-1.5
			c0.1-1.7,0.4-3.4,0.5-5.2c0-0.2,0-0.5-0.2-0.7c-0.5-1-1-1.9-1.4-2.9C59.3,35.7,58.8,33.8,58.1,31.9 M80.1,4.2
			c-1,0.4-1.9,0.7-2.9,1c-0.7,0.2-1.3-0.3-1.2-1c0-0.5-0.1-0.8-0.5-0.8c-0.2,0-0.4,0.4-0.5,0.6c0,0,0,0.1,0,0.1
			c-0.3,1-0.1,1.8,0.9,2.5c0.6,0.4,0.9,1.2,1.2,1.9c0.2,0.6,0.5,0.7,1,0.7c1.3,0,2.5,0.1,3.8,0.1c0.4,0,0.9-0.1,1.3-0.4
			c0.5-0.4,1-0.5,1.7-0.1c-0.5,1-0.4,2.4-1.7,3c0-0.3-0.1-0.6-0.1-0.9c-0.2,0-0.5,0-0.9-0.1c0.9,13.1,1,26.2,2.8,39.4
			c-0.6,0-1.2,0-1.8,0c-0.2,0-0.4-0.4-0.4-0.6c-0.2-2.2-0.4-4.4-0.7-6.6c-1.2-10.5-1.4-21.1-1.9-31.6c0-0.6-0.2-0.8-0.8-0.7
			c-0.1,0-0.1,0-0.2,0c-1.1-0.1-2.1-0.1-2.6,1.4c-0.4,1.3-1.7,1.9-3.3,2.2c1,0.6,1.7,1.4,1.7,2.5c0.1,1.1-0.4,2-1.3,2.7
			c0.9,0,1.6-1.4,2.7-0.4c-0.3,0.6-0.6,1.3-1,2c-0.1,0.2-0.3,0.3-0.5,0.3c-0.4,0.1-0.7,0.1-1.1,0.2c-0.6,0.1-0.6,0.5-0.7,1
			c-0.1,0.9-0.5,1.7-0.7,2.6c-0.3,1.1-0.5,2.2-0.7,3.3c0,0,0,0.1,0,0.1c0.4,0.5,0.3,1.2,0.5,1.6c0.4,0.7,0.3,1.4,0.3,2.1
			c0,0.8-0.7,1.1-1.2,1.5c-0.4,0.3-0.6,0.6-0.7,1.1c-1.1,7.1-2.2,14.3-3.3,21.4c-1,6.7-1.9,13.3-2.8,20c0,0.3,0.2,0.5,0.2,0.8
			c0,0.5-0.1,0.9,0,1.4c0,0.8-0.1,1.6,0.1,2.4c0.7,3.6,0.7,7.7-0.3,10.9c-0.3-0.9-0.5-1.6-0.8-2.4c-0.6,0.7-1,1.3-1,2.2
			c0,0.8-0.2,1.6-0.3,2.4c-0.1,0.7-0.7,1-1.5,1c-0.7-0.1-1.3-0.6-1.2-1.2c0-0.7,0.1-1.4,0.2-2.2c-1.3,0.2-1.3-0.7-1.5-1.6
			c-0.1-0.7-0.4-1.3-0.6-2c-0.1,0-0.2,0-0.3,0c-0.3,0.5-0.6,1-0.9,1.5c-1,1.5-1.8,1.6-3.1,0.3c-0.1-0.1-0.4-0.2-0.6-0.1
			c-0.6,0.2-1.2,0.4-1.8,0.6c-0.2,0.8-0.4,1.7-0.7,2.6c-0.4,1.1-0.9,1.4-2.1,1.3c-0.3,0-0.6-0.1-0.9-0.1c-0.3,1.2-0.6,2.4-0.8,3.6
			c-0.2,1.2-1,1.7-2.1,1.8c-1.3,0.1-2.4,0-3.2-1.2c-0.1-0.1-0.2-0.4-0.1-0.5c0.5-3.1,1-6.2,2.2-9.1c0.7-1.7,1.2-4,1-5.6
			c-0.1,0-0.1,0.1-0.2,0.1c-0.3-0.4-0.6-0.7-0.9-1.1c-0.2-0.2-0.3-0.6-0.5-0.8c-0.6-0.5-1.1-0.3-1.3,0.4c-0.2,0.9-0.4,1.7-0.7,2.6
			c-0.2,0.8-0.6,1-1.4,0.5c-0.3-0.2-0.6-0.5-0.8-0.8c-0.7-0.9-1.3-0.9-2.1-0.2c-1.3,1.3-2.1,1.4-3.8,0.6c-0.8-0.4-1.5,0.1-2.1,0.6
			c-0.3,0.2-0.5,0.5-0.9,0.7c0.3-0.9,0.7-1.8,1-2.8c0.3-1,0.6-1.9,0.9-2.9c0.2-1,0.4-2,0.6-3.1c-0.5,0.1-0.7,0.2-1,0.3
			c-2,0.5-3.6-0.1-4.7-1.9c-0.2-0.4-0.5-0.7-0.8-1.1c-0.8-0.9-1.4-1.8-1.5-3.1c-0.5,0.3-1.3,1.5-1.2,2c0.1,0.3,0.3,0.5,0.5,0.7
			c0.9,0.9,1.8,1.8,2.1,3.2c-0.4,0-0.8-0.1-1.2-0.1c-0.5,0-0.7,0.2-0.5,0.7c0.5,1.2,1,2.4,1.4,3.6c-0.7,0-1.1-0.4-1.4-1.1
			c-0.2-0.6-0.7-1.1-1.1-1.6C21.5,78.1,21,76.7,21,75c0-0.9-0.5-1.4-1-2c-0.1-0.1-0.4-0.2-0.4-0.1c-0.5,0.4-1.2,0.7-1.5,1.2
			c-0.7,0.9-0.2,2,1,2.1c0.4,0.1,0.8,0,1.3,0c0,0.1,0.1,0.2,0.1,0.2c-0.2,0.1-0.4,0.3-0.6,0.4c-0.2,0.1-0.4,0-0.7-0.1
			c-0.6-0.1-1,0-1.2,0.7c-1-0.2-1.6-0.9-1.7-1.9c-0.1-1.8,0.8-2.9,2.2-3.7c0.6-0.3,1.1-0.6,1.1-1.4c0-0.5,0.4-1.1,0.6-1.7
			c-1.6,0.4-3.2,1-5.1,0.7c0.3-0.3,0.5-0.5,0.7-0.7c2.6-1.9,5.1-3.8,7.7-5.7c0.7-0.5,1.1-1.3,1.6-2c1.3-1.9,2.9-3.5,4.6-5.1
			c1.6-1.4,2.8-3.2,3.6-5.2c0.2-0.4,0.2-0.9,0.3-1.4c0.1-1,0.5-1.8,1.4-2.2c1.1-0.5,1.9-1.2,2.7-2.1c1.3-1.5,2.8-2.7,4.6-3.5
			c1.1-0.5,2.5-2.1,2.2-3.8c-0.2-1.1-0.3-2.3-0.5-3.4c-0.1-0.4-0.2-0.8-0.4-1.2c-0.3-0.7-0.5-1.4-0.8-2.2c-2.9,2.1-5.7,4.6-9.3,5.9
			c0,0.2,0,0.5,0,0.7c0,0.2,0,0.4-0.1,0.8c-0.4-0.8-0.6-1.4-1-2c-0.3-0.5-0.8-0.8-1.2-1.2c-0.1-0.1-0.4-0.1-0.6-0.2
			c0,0.3-0.2,0.5-0.1,0.8c0.4,1.5,0.9,2.9,1.9,4.1c0.1,0.1,0.1,0.2,0.3,0.3c-1.7-0.5-3.6-2.7-4.1-4.5c-0.5-1.7-1.2-3.2-2.4-4.5
			c-0.7-0.7-1.1-0.9-2-0.9c0.3-0.2,0.5-0.4,1-0.6c-0.7-0.8-1.4-1.7-2-2.6c0,0,0.1-0.1,0.3-0.1c-1.2-1.4-2.5-2.9-3.7-4.3
			c0.1-0.1,0.1-0.1,0.2-0.2c0.3,0.2,0.6,0.5,1,0.7c0,0,0.1-0.1,0.1-0.1c-0.4-0.6-0.8-1.1-1.3-1.9c1.1,0.1,1.2,1.1,2,1.4
			c-0.3-0.7-0.6-1.3-0.8-1.9c0.1-0.1,0.2-0.1,0.3-0.2c0.5,0.6,0.9,1.1,1.4,1.7c0.1,0,0.2,0,0.2-0.1c-0.1-0.5-0.2-0.9-0.3-1.4
			c0.1,0,0.1-0.1,0.2-0.1c0.5,0.7,1,1.5,1.4,2.2c0.1,0,0.2,0,0.3,0c0.3-0.7,0.6-1.5,0.9-2.2c0.1,0,0.1,0,0.2,0
			c0.1,0.6,0.2,1.1,0.3,1.7c0,0.5,0.1,1.1,0,1.6c-0.2,1.4,0.4,2.6,1.3,3.6c1.7,1.7,3.4,3.3,5.2,4.9c1.1,1,1.8,1,3,0
			c1.5-1.2,2.9-2.4,4.3-3.8c0.6-0.6,1-1.4,1.4-2.1c0.2-0.2,0.3-0.4,0.6-0.7c-1-1.3-2-2.7-1.9-4.7c0.6,0.6,1.1,1,1.7,1.6
			c0.1-0.5,0.2-0.8,0.3-1.2c0.1,0,0.1-0.1,0.2-0.1c0.5,1.2,1.4,1.6,2.6,1.8c0-0.3,0-0.6,0-0.9c-0.1-2.9-0.1-5.7,0.9-8.4
			c0.3-0.9,0.8-1.7,1.4-2.4C48,10,49.6,10,51.1,9.9c0.2,0,0.3,0,0.5,0.1c1,0.2,2,0.3,3.1,0.1c0.6-0.1,1.3,0.1,1.9,0.2
			c0,0.1,0,0.1,0,0.2c-0.3,0-0.5,0.1-0.9,0.1c0.5,0.3,0.9,0.5,1.5,0.8c-0.5,0.1-0.9,0.1-1.3,0.2c0.7,0.4,1.3,0.8,1.9,1.2
			c0,0-0.1,0.1-0.1,0.1c-0.7-0.1-1.4-0.1-2.3-0.2c0.2,0.6,0.4,1,0.6,1.4c0.6,1.6,1.2,3.1,1.7,4.7c0.3,1,0.4,2,0.1,3
			c-0.3,1,0.2,1.6,1.2,1.6c0.3,0,0.7,0,0.9,0.2c1.2,0.4,2.3,0.4,3.4-0.6c-0.1,0.3-0.1,0.7-0.2,1.2c0.6-0.2,1.2-0.4,1.8-0.6
			c-0.7,1.5-1.6,2.8-2.9,3.7c-0.2,0.2-0.5,0.6-0.5,0.9c0.1,2.6,0.9,5.1,2,7.5c0.1,0.2,0.2,0.3,0.4,0.7c0.3-0.9,0.5-1.6,0.7-2.3
			c0.6-2.3,0.9-4.7,0.8-7.1c-0.2-5.2-0.5-10.4-0.8-15.6c0-0.2-0.1-0.3-0.1-0.5c-0.9-0.3-1.1,0.2-1.1,1c-1.6-0.5-1-2-1.7-3
			c0.7-0.2,1.2-0.4,1.7,0.2c0.1,0.1,0.4,0.1,0.6,0.1c1.2-0.1,2.4-0.1,3.6-0.2c0.4,0,0.6-0.2,0.8-0.6c0.4-1.3,1.3-2.3,2.6-2.9
			c0.2-0.1,0.5-0.5,0.5-0.7c0.1-0.4,0.1-0.8,0-1.2c0-0.2-0.2-0.4-0.3-0.6c-0.2,0.2-0.4,0.3-0.6,0.5c-0.1,0.2,0,0.5-0.1,0.6
			c-0.3,0.4-0.5,0.7-1.2,0.4c-0.7-0.3-1.4-0.5-2.2-0.8c0.1-0.4,0.3-0.9,0.5-1.4c0-0.1,0.3-0.2,0.4-0.2c0.6,0.2,0.9-0.2,1.3-0.6
			c0.3-0.4,0.7-0.8,1.1-1.2c0.5,0.4,0.9,0.2,1.4-0.1c1.4-0.8,2.7-0.5,3.9,0.4c0.2,0.1,0.3,0.2,0.5,0.4c0.1-0.2,0.3-0.4,0.3-0.5
			c0.4,0.4,0.8,0.8,1.3,1.1c0.3,0.2,0.8,0.4,1.1,0.6c0.2,0.1,0.4,0.3,0.5,0.5C79.9,3.4,80,3.8,80.1,4.2"/>
	</g>
</g>
</svg>
