<?xml version="1.0" encoding="utf-8"?>
<!-- Generator: Adobe Illustrator 27.9.0, SVG Export Plug-In . SVG Version: 6.00 Build 0)  -->
<svg version="1.1" id="Layer_1" xmlns="http://www.w3.org/2000/svg" xmlns:xlink="http://www.w3.org/1999/xlink" x="0px" y="0px"
	 viewBox="0 0 100 100" style="enable-background:new 0 0 100 100;" xml:space="preserve">
<g>
	<path d="M92.2,97.4c-0.8-1.4-1.6-2.9-2.5-4.2c-2.5-3.8-5.1-7.6-7.7-11.4c-0.2-0.3-0.6-0.6-0.9-0.9c-0.3-0.3-0.5-0.7-0.7-1.1
		c-0.1-0.2-0.2-0.4-0.4-0.4c-0.8-0.5-1.9-0.8-2.1-2.2c1.7-0.1,3.5,0.5,5.2-0.1c-0.1,0-0.2-0.1-0.3-0.1c-1.2-0.2-2.3-0.6-3.6-0.3
		c-0.2,0.1-0.5,0.1-0.7,0c-0.3-0.1-0.6-0.3-0.7-0.5c-0.1-0.4-0.3-0.9,0.2-1.2c0.3-0.1,0.8-0.1,1.1-0.2c0.3,0,0.5,0.1,0.7,0
		c0.5-0.2,0.9-0.5,1.3-0.7c0,0,0-0.1,0-0.1c-0.8,0.1-1.6,0.1-2.4,0.2c-0.1,0-0.2,0.1-0.2,0.1c-0.6,0.4-0.8,0.3-1.2-0.3
		c-0.1-0.1-0.2-0.3-0.3-0.4c-0.3-0.5-0.1-1,0.5-1.3c0.2-0.1,0.3-0.2,0.4-0.3c0.2-0.5,0.4-1,0.5-1.5c0.1-0.5,0.2-1,0.3-1.6
		c-0.6,0.3-2,2.1-2,2.6c0,0,0,0.1,0,0.1c-0.1,0.4-0.2,0.8-0.4,1.2c-1.3-0.5-1.3-0.5-1.6-1.7c-0.1-0.4-0.4-0.9-0.6-1.3
		c-0.1,0-0.1,0-0.2,0c0,0.8,0,1.6,0,2.5c-0.3,0-0.6,0-0.7-0.1c-0.5-0.4-1-0.9-1.4-1.4C69,66.3,66,62,62.9,57.7
		c-0.2-0.3-0.4-0.4-0.7-0.2c0.4-0.4,0.8-0.7,1.2-1c-1.1-2.3-1.2-4.7-1-7.1c0-0.3,0-0.6,0.1-0.9c0-0.2,0.1-0.4,0.2-0.5
		c0.5-0.5,0.8-1,0.7-1.7c-0.3,0.4-0.6,0.8-0.9,1.2c-0.1,0-0.1-0.1-0.2-0.1c0-0.2,0.1-0.3,0.1-0.5c0.1-0.3,0.3-0.5,0.4-0.8
		c0.3-0.8,0.1-1.4-0.5-1.8c0.3,0.7,0.3,1.3-0.1,1.9c-0.1-0.4-0.2-0.8-0.4-1.3c-0.2,0.4-0.4,0.7-0.6,0.9c-0.1-0.3-0.2-0.6-0.4-0.9
		c-0.8-1.1-1-2.4-1.3-3.7c-0.3-1.4-0.7-2.8-1.1-4.2c-0.1-0.3-0.1-0.5-0.1-0.8c0.1-1.2-0.8-2.7-1.9-3.2c-0.6-0.2-1.2-0.3-1.8-0.5
		c-0.6-0.2-1.1-0.5-1.6-0.7c0.3-0.5,0.5-0.9,0.7-1.3c0,0-0.1-0.1-0.1-0.1c-0.4,0.1-0.8,0.3-1.2,0.4c-0.2-0.5-0.1-0.8,0.3-1.1
		c0.3-0.2,0.4-0.5,0.6-0.7c0.5-0.6,0.8-1.3,1.4-1.9c1-1,0.7-2.1,0.1-2.9c-0.3-0.3-0.3-0.6-0.1-0.9c0.3-0.5,0.6-1.1,0.9-1.6
		c-0.2,0.1-0.3,0.1-0.5,0.2c0.2-0.6,0.7-0.9,0.6-1.5c-0.1-0.5-0.2-1-0.3-1.5c-0.2,0.4-0.3,0.7-0.4,1.1c-0.1,0.3-0.1,0.6-0.2,0.8
		c-0.2,0.2-0.5,0.2-0.8,0.3c0,0-0.1,0-0.1,0c0-0.2-0.1-0.4-0.1-0.7c-0.1-0.8-0.6-1.3-1.3-1.5c-0.6-0.2-1.1-0.4-1.8-0.1
		c-0.6,0.2-1.4,0.2-2,0.3c-0.8,0.1-1.6,0.3-2.4,0.5c-0.5,0.1-0.9-0.1-1.2-0.4c-0.3-0.2-0.3-0.5-0.2-0.8c0.1-0.3,0.3-0.4,0.6-0.4
		c1.4-0.1,2.8-0.3,4.3-0.5c1.7-0.2,3.3-0.7,4.7-1.6c2.3-1.3,3-3.6,1.9-5.8c-0.2-0.4-0.3-0.8-0.4-1.3c-0.4-1.7-1.2-3.1-2.8-4
		c-0.4-0.2-0.9-0.5-1.2-0.8c-1-0.8-2.1-0.7-3,0.3c-0.1,0.1-0.2,0.3-0.4,0.4c-1.4-0.7-2-2.1-2.6-3.4c0.6-0.7,1.3-0.6,2.1-0.4
		c0.8,0.2,0.7,0.9,0.9,1.5c0-0.4,0.1-0.8,0-1.2c-0.1-0.9-1.1-1.6-1.9-1.3c-1.1,0.5-2.2,1.1-2.7,2.2c-0.4,1-1,1.4-2.1,1.4
		c-1-0.1-1.5,0.8-1.2,1.8c0.2,1,0.8,1.9,1.5,2.6c1,1,2.3,1,3.6,1c0.5,0,1,0,1.5,0c1.1,0.1,1.8,0.8,2.1,1.8c0.2,1.1-0.3,2.3-1.1,2.8
		c0.2-0.6,0.5-1.2,0.6-1.8c0.2-0.7-0.1-1.5-0.8-1.7c-0.4-0.2-0.8-0.3-1.1-0.3c-1,0-2,0.1-3,0.3c-0.8,0.2-1.6,0.5-2.3,0.8
		c-0.6,0.3-0.6,0.9-0.2,1.3c0.6,0.6,1.7,0.7,2.4,0.2c0.2-0.1,0.2-0.3,0.4-0.5c-0.4,0.2-0.7,0.4-1.1,0.5c-0.4,0.1-1.1-0.3-1.2-0.7
		c-0.2-0.5,0.2-0.7,0.5-0.9c1.4-0.8,3-1,4.6-0.8c0.6,0.1,0.8,0.4,0.8,1c-0.5-0.2-1.1-0.3-1.6,0.1c-0.2,0.1-0.3,0.4-0.3,0.6
		c0.1,0.2,0.3,0.4,0.5,0.4c0.2,0.1,0.4,0,0.6-0.1c0,0,0-0.1,0-0.1c-0.1,0-0.3,0.1-0.3,0.1c-0.2-0.1-0.4-0.2-0.4-0.3
		c0-0.2,0.1-0.4,0.2-0.5c0.3-0.2,1-0.1,1.1,0.2c0.1,0.2-0.1,0.6-0.2,0.8c-0.8,1-1.8,1.6-3.2,1.6c-0.8,0-1.7,0.1-2,0.9
		c-0.3,0.6-0.7,0.9-1.1,1.4c-0.2,0.3-0.4,0.6-0.7,0.7c-0.5,0.3-1,0.5-1.5,0.8c-0.4,0.2-0.7,0.5-1,0.7c0,0,0,0.1,0.1,0.1
		c0.4-0.2,0.7-0.5,1.1-0.7c-0.8,2-1.1,3.9,0,5.9c-0.4-0.3-0.8-0.5-1.1-0.8c-0.3-0.3-0.6-0.7-0.9-1.1c0.1,0.1,0.1,0.2,0.1,0.3
		c0.6,1.4,1.6,2.5,2.7,3.4c0.1,0.1,0.3,0.3,0.3,0.5c0.1,1.2,0.9,1.8,1.9,2.2c0.6,0.2,1.3,0.3,1.9,0.4c-0.1,0.1-0.1,0.3-0.2,0.4
		c-0.3,0.5-0.7,0.9-1,1.4c-0.1-0.1-0.2-0.2-0.3-0.3c-0.9-1.3-1.8-2.5-2.7-3.8c-2.3-3.2-4.8-6.3-6.6-9.9c-0.1-0.2-0.2-0.4-0.2-0.6
		c0-0.5-0.2-0.8-0.7-1c-0.1-0.1-0.3-0.3-0.3-0.4c0-0.5-0.2-0.8-0.6-1.1c-0.4-0.3-0.8-0.5-1.1-0.9c-1.5-1.7-2.9-3.4-4.4-5.1
		c-0.6-0.7-1.3-1.4-2-2.2c0,0-0.1,0.1-0.1,0.1c0.1,0.1,0.1,0.3,0.2,0.4c0.5,0.9,1,1.7,1.5,2.5c0.8,1.2,1.6,2.4,2.3,3.7
		c0.6,1.1,1.4,2.2,1.6,3.5c0,0.2,0.4,0.5,0.7,0.6c0.2,0.1,0.4,0.2,0.4,0.5c0,0.5,0.3,0.9,0.8,1c0.1,0,0.2,0.1,0.2,0.1
		c0.9,1,2,2,2.8,3.1c2.2,2.9,4.3,5.8,6.4,8.7c0.3,0.4,0.6,0.8,0.9,1.3c0,0,0,0,0,0c0,0,0,0,0,0c0,0,0,0,0,0c0.3,0.3,0.5,0.7,0.8,1
		c-0.6,0.3-1,0.7-1.1,1.3c0,0.7,0.5,0.9,1,1.2c-0.2,0.4-0.4,0.7-0.5,1c0-0.1,0-0.3,0.1-0.4c-0.8-0.1-1.5-0.3-1.5-1.3
		c-0.3,0.6-0.2,1,0.1,1.3c0.4,0.3,0.8,0.5,1.3,0.4C42,35,42,35.1,41.9,35.1c-0.8,0.4-1.5,0.3-2.3,0c-1.5-0.4-2.5-1.5-3.5-2.6
		c-0.9-1-1.4-2.2-1.1-3.6c0.2-1,0.5-2,0.7-3c0.1-0.3,0.1-0.8-0.1-1c-0.4-0.8-0.9-1.5-1.4-2.2c-0.4-0.5-0.9-0.8-1.5-0.8
		c0.5,0.4,1.2,0.9,1.7,1.4c0.5,0.5,0.7,1.2,0.4,1.8c-0.3,0.5-0.1,1-0.2,1.6c0,0.3,0,0.6-0.1,0.9c-0.1,1.7-0.1,3.3-0.1,5
		c0,0.3,0.1,0.6,0.5,0.6c0.1,0,0.3,0.2,0.4,0.3c0.3,0.6,0.7,1.2,1.2,1.7c0.5,0.3,0.9,0.7,1.3,1.1c-0.4-0.2-0.7-0.4-1.1-0.6
		c-0.2-0.1-0.5-0.3-0.7-0.3c-1.2-0.1-2.2-0.7-3-1.7c-1.3-1.9-2.7-3.8-4-5.7c-1.1-1.6-2.6-2.8-4.4-3.5c-0.4-0.2-0.9-0.3-1.3-0.4
		c-0.7-0.2-1.2-0.7-1.5-1.3c-0.6,0.3-0.6,0.5-0.2,0.9c0.1,0.1,0.3,0.3,0.5,0.4c0.8,0.5,1.6,1,2.4,1.5c0.3,0.2,0.9,0.3,0.7,1
		c0,0,0.1,0.1,0.1,0.1c0.3,0.3,0.6,0.7,0.8,1c0.1,0.1,0.2,0.3,0.1,0.4c-0.1,0.1-0.3,0.2-0.5,0.3c0.4,0.3,0.8,0.6,1.3,0.8
		c1.1,0.4,1.8,1.2,2.4,2.1c0.8,1.2,1.5,2.4,2.3,3.6c0.3,0.5,0.8,1,1.2,1.4c0.1,0.1,0.4,0.2,0.6,0.2c1.2,0,2.5,0,3.7,0
		c0.3,0,0.5,0,0.8,0c0.8,0.2,1.6,0.3,2.4,0.5c0.9,0.2,1.7,0.2,2.6-0.1c0.5-0.1,1-0.2,1.5-0.3c-0.7,0.3-1.5,0.5-2.2,0.7
		c-0.2,0.1-0.5,0.2-0.7,0.3c-0.6,0.6-1.2,1.3-1.8,1.9c0.5,0,1.1,0.1,1.9,0.2c-0.5,1.3-0.9,2.5-1.4,3.7c-0.1,0.2-0.3,0.2-0.5,0
		c-0.1-0.2-0.2-0.3-0.3-0.4c0,0-0.1,0-0.1,0.1c0,0.4-0.1,0.8-0.1,1.2c0,0-0.1,0-0.1,0c-0.2-0.4-0.3-0.7-0.5-1.1
		c-0.1,0.2-0.1,0.4-0.1,0.6c0.1,0.3,0.2,0.7,0.2,1c0,0.1,0,0.3-0.1,0.3c-0.1,0-0.2,0-0.3-0.1c-0.1-0.1-0.3-0.3-0.3-0.5
		c-0.2-0.3-0.3-0.7-0.4-1c-0.1,0.3-0.2,0.5-0.1,0.8c0.1,0.5,0.3,0.9,0.4,1.4c0.2,0.5,0.1,1.1-0.4,1.4c-0.9,0.6-1.9,1.2-2.9,1.8
		c-0.3,0.2-0.7,0.3-1,0.3c-0.7,0-1.4,0.1-2.1,0.4c-1.4,0.5-2.9,0.9-4.4,0.2c-1.4-0.6-2.8-1.2-4.2-1.9c-1.4-0.7-2.5-1.8-3.4-3.1
		c-0.5-0.8-1.1-1.6-1.7-2.4c-1-1.3-1.9-1.5-3.4-0.6c-1,0.6-2,1.2-3,1.7c-1.3,0.6-2.3,1.5-3.2,2.5c-0.3,0.3-0.5,0.6-0.8,0.9
		c0.9-0.6,1.8-1.3,2.7-1.9c1.8-1.2,4.9-1.2,6.6,1.4c-0.1,0-0.1,0-0.2,0c-0.8-0.1-1.7-0.3-2.5-0.2c-1.5,0.2-2.3,1.2-2.6,2.6
		c-0.1,0.6,0,1.1,0.4,1.5c-0.2-2.2,0.6-2.7,1.6-2.8c0.2,1,0.8,1.7,1.7,2.2c0-0.1-0.1-0.2-0.2-0.3c-0.4-0.3-0.7-0.7-0.5-1.2
		c0.1-0.3,0.6-0.6,0.9-0.7c0.9-0.2,1.8,0.1,2.7,0.5c1.3,0.6,2.6,1.3,3.7,2.3c0.9,0.9,2,1.6,3.3,1.7c0.8,0.1,1.7,0.2,2.5,0.1
		c1.3-0.1,2.5-0.1,3.7-0.4c1.5-0.4,2.9-1,4.3-1.5c0.8-0.3,1.6-0.8,2.4-1.2c-0.2,0.7-0.4,1.3-0.7,1.9c-0.2,0.4-0.2,0.8-0.1,1.2
		c0.2,0.7,0.2,1.4-0.1,2.1c-0.2,0.5-0.4,1-0.5,1.3c0.2,0.3,0.5,0.5,0.5,0.7c0.1,0.4,0.2,0.8,0.3,1.2c0,0.1,0.1,0.3,0,0.4
		c-0.3,0.4-0.1,0.8-0.3,1.2c0.1-0.1,0.3-0.2,0.4-0.3c0,0,0.1,0.1,0.1,0.1c-0.2,0.2-0.4,0.3-0.6,0.5c-1.6,1.3-3.5,1.8-5.5,1.5
		c-2.1-0.3-4.1-1-6-1.9c-1.6-0.7-3.3-1.2-5-1.8c0.2,0.9,0.7,1.5,1.4,1.9c0.9,0.6,1.8,1.2,2.7,1.8c0.1,0.1,0.2,0.1,0.3,0.1
		c0,0-0.1,0.1-0.1,0.1c-0.8,0-1.6-0.1-2.5-0.1c0.3,0.2,0.4,0.3,0.6,0.4c1.8,1,3.3,2.4,4.5,4.1c0.6,0.8,1.2,1.7,1.9,2.5
		c1.2,1.3,2.7,1.9,4.1,1.3c3.7-1.5,7.1-3.4,9.8-6.4c0.1-0.1,0.2-0.2,0.3-0.3c-0.1,0.3-0.2,0.5-0.4,0.7c-0.4,0.4-0.4,0.7-0.3,1.2
		c0.1,0.3,0,0.6,0,0.9c0,0.2-0.1,0.5-0.1,0.7c0.2,0.6,0.4,1.1,0.6,1.7c0.1,0.4,0.2,0.7,0,1.1c-0.1,0.1-0.1,0.4-0.1,0.5
		c0.2,0.6,0.3,1.2-0.1,1.8c-0.1,0.1,0,0.3,0,0.5c0.4,1.3,1.1,2.5,2.3,3.3c0.3,0.2,0.6,0.4,0.7,0.7c0.3,0.9,0.6,1.9,0.7,2.8
		c0.2,1.2,0.1,2.4,0.3,3.6c0.4,3,1,5.9,1.9,8.8c0.1,0.3,0.2,0.7,0,0.9c-0.5,0.7-0.3,1.4-0.1,2.2c0.1,0.5,0.3,1,0.2,1.5
		c-0.2,1.3-0.3,2.6,0,4c0.2,0.6,0.3,0.8,0.9,0.8c0.6,0,1.1,0,1.7,0c0.5,0,0.7-0.2,0.8-0.6c0.2-1,0.4-2,0.2-3.1
		c-0.1-0.5-0.2-1.1-0.2-1.6c0-1,0.2-2.1,0.1-3.1c-0.1-1,0-2,0.3-3c0.5-1.7,0.9-3.4,1.1-5.1c0.2-2.4,0.1-4.7,0.4-7.1
		c0.1-1,0.9-1.7,1.7-1.4c0.1-0.3,0.3-0.7,0.5-1c0.3,0,0.6,0,0.8-0.2c0.4-0.2,0.9-0.4,1.1-0.8c0.4-0.6,0.4-1.4,0.2-2.1
		c-0.2-0.8-0.4-1.5-0.6-2.3c-0.1-0.3,0-0.6,0-0.9c0-0.7,0.1-1.5,0.1-2.2c0-0.6-0.2-1.1,0.1-1.7c0.2-0.3,0-0.9,0-1.3
		c0-0.4-0.1-0.7-0.1-1.1c0-0.2,0-0.5,0-0.7c-0.1-0.6-0.3-1.3-0.5-1.9c0-0.2,0-0.4,0.2-0.5c0.1-0.1,0.4,0,0.5,0.1
		c0.2,0.1,0.4,0.2,0.6,0.4c-0.3-2-0.6-4-0.9-5.9c0.5,0.6,1,1.3,1.5,2c-0.3,0.4-0.2,1.5,0.2,1.8c0.1,0.1,0.2,0.1,0.2,0.2
		c0.3,1.1,1,1.5,2,1c0.1,0.2,0.2,0.4,0.3,0.5c1,1.4,2.1,2.9,3.1,4.3c2.3,3.3,4.9,6.4,7,9.9c0.2,0.4,0.2,0.6,0,0.9
		c-0.8-0.2-1.5-0.3-2.2-0.5c0,0.1,0,0.1-0.1,0.2c0.6,0.5,1.3,0.9,1.9,1.4c0.4,0.3,0.5,0.7,0.4,1.1c-0.1,0.2-0.6,0.4-0.9,0.4
		c-0.8-0.2-1.5,0.2-2.2,0.4c-0.3,0.1-0.5,0.3-0.8,0.5c0.9,0.3,1.7,0.3,2.6,0.2c0.3,0,0.5,0,0.7-0.4c0.2-0.4,0.9-0.4,1.3-0.1
		c0.5,0.4,0.7,1.2,0.4,1.5c-0.7,0.7-0.6,1.6-1,2.4c0.5-0.5,1.3-0.9,1.2-1.8c0-0.4,0.3-0.8,0.7-0.9c0.4-0.1,1.1,0.5,1.1,0.8
		c0,0.3-0.1,0.6-0.3,0.9c-0.5,1-0.5,2.1-0.5,3.4c0.7-1.1,0.9-2.2,1.1-3.3c0.1-0.4,0.2-0.8,0.3-1.2c1,0.3,1.2,1.1,1.4,1.9
		c0.1,0.5,0.2,0.9,0.8,1.2c0.3,0.2,0.4,0.6,0.6,0.9c0.1,0.2,0.2,0.4,0.3,0.5c3.7,4.3,7.2,8.7,11.1,12.7c0.7,0.7,1.3,1.3,2,2
		C92.3,97.6,92.3,97.5,92.2,97.4z M54.9,26.6c-0.2-0.7-0.3-1.5-0.5-2.3C55.4,24.9,55.6,26.2,54.9,26.6z M54,26.1
		c0.3,0.8,0.3,0.9-0.3,1.1C53.8,26.8,53.9,26.5,54,26.1z M48.6,28.7c-0.4,0-0.7,0.1-1.1,0.1C47.7,28.4,47.7,28.4,48.6,28.7z
		 M46.9,19.8c-0.8,0.5-1,0.6-1.5,0.1C45.9,19.9,46.4,19.8,46.9,19.8z M47.3,28.2c-0.5,0.4-1.5,0.3-1.8,0c-0.1-0.1-0.1-0.2-0.1-0.2
		c0.1-0.1,0.2-0.2,0.3-0.1C46.1,28,46.7,28.1,47.3,28.2z M45.5,15.8c0.6-0.2,1.2-0.3,1.8-0.5c0,0.1,0,0.1,0,0.2
		c-0.6,0.2-1.2,0.3-1.8,0.5C45.5,15.9,45.5,15.9,45.5,15.8z M53.5,6c0.4,0.7,0.9,1.5,1.4,2.2c-1.3-0.3-1-1.4-1.5-2.1
		C53.4,6,53.4,6,53.5,6z M53.5,11.9c0.2-0.6,0.4-1.1,0.5-1.7c0.1-0.6,0.1-1.2,0.1-1.8c1,0.5,1.6,1.7,1.4,3.1
		c-0.2,1.1-1.2,2.1-2.5,2.3C53.2,13.1,53.3,12.5,53.5,11.9z M53.1,14.5c1.6-0.7,2.5-1.9,2.9-3.7c0.5,1.1,0.5,2.1-0.3,3
		c-0.9,1-2,1.8-3.4,2c0.2-0.4,0.4-0.8,0.6-1.1C52.9,14.6,53,14.5,53.1,14.5z M52.9,10C52.9,10,52.8,10,52.9,10
		c-0.2-0.2-0.3-0.4-0.4-0.7c0,0.6-0.1,1.1-0.1,1.7c-0.3-0.9-0.6-1.8-1.4-2.4c0.1-0.1,0.2-0.2,0.3-0.4C51.4,8.1,51.6,8,51.8,8
		c0.1,0.2,0.2,0.3,0.3,0.5c0.1,0.2,0.2,0.4,0.4,0.5c-0.1-0.4-0.2-0.7-0.3-1.1c0.2,0,0.5,0,0.7,0C52.9,8.6,52.9,9.3,52.9,10z
		 M50.7,4.9c1.2,0.3,1.9,1.2,2.1,2.4C52.3,7.7,52,7.5,51.7,7c-0.4-0.8-1.2-1.2-2-1.6c-0.2-0.1-0.3-0.1-0.6-0.3
		C49.7,4.7,50.2,4.8,50.7,4.9z M50.1,13.6c0.8-1,0.8-1.9,0.2-3.1c-0.1-0.2-0.2-0.4-0.3-0.5c-0.3-0.2-0.6-0.5-0.9-0.7
		c-0.9-0.6-2-0.8-3.1-1C45,8.2,44.1,8,43.2,7.8c-0.3-0.1-0.6-0.3-0.8-0.5c-0.6-0.5-0.9-1.4-0.6-2.1c0.2-0.6,1.2-1.4,1.8-1.4
		c-0.2,2.6,1.3,4.5,3.8,4.4c-0.2-0.1-0.3-0.1-0.4-0.2c-0.4-0.1-0.8-0.3-1.2-0.4C44,6.9,43.6,5.8,44.2,4c0.2,0.2,0.4,0.4,0.6,0.6
		c0,0,0.1,0,0.1,0c-0.2-0.3-0.4-0.6-0.6-0.9c0.4-0.6,0.8-1.2,1.2-1.8c0.4,0.7,0.8,1.3,1.2,1.9c0.5,0.5,1,1,1.5,1.4
		c-0.2,0.8-0.4,1.6-0.5,2.4c0,0.1,0.1,0.2,0.3,0.4c-0.1-1,0.1-1.7,0.9-2.4c0.9,0.7,1.8,1.4,2.8,2.2c-0.2,0.3-0.3,0.4-0.4,0.5
		c-0.3,0.2-0.5,0.1-0.9,0.1c-0.9-0.1-1.8,0-2.8,0c0.8,0.3,1.5,0.5,2.2,0.8c0.2,0.1,0.2,0.3,0.4,0.5c0.1,0,0.3,0,0.4,0.1
		c0.9,0.8,1.3,2.7,0.9,3.8c0,0.1-0.1,0.2-0.1,0.3c-0.7,0.6-1.4,1.2-2.4,1C49.3,14.3,49.7,14,50.1,13.6z M49,16.8
		c-0.9,0.3-1.7,0.3-2.4,0c0,0,0-0.1,0-0.1C47.3,16.7,48.1,16.7,49,16.8z M47.8,14c-1,0.4-2.1,0.7-3.1,1.1C45.2,14.6,46.8,14,47.8,14
		z M46.2,20.7c-0.6,0.3-1.6-0.2-1.7-1.2C45,19.9,45.6,20.3,46.2,20.7z M44.6,14.2c0,0,0,0.1,0,0.1c-0.4,0.2-0.9,0.4-1.3,0.6
		c0,0,0-0.1-0.1-0.1C43.6,14.3,44,14.2,44.6,14.2z M43.3,18.1c0,0.6,0,1.1,0,1.6C42.7,18.9,42.7,18.4,43.3,18.1z M39.3,20
		c-0.1,0-0.1,0-0.2-0.1c0.2-0.4,0.4-0.7,0.5-1.1c0.1,0,0.1,0.1,0.2,0.1C39.6,19.2,39.5,19.6,39.3,20z M40.3,18.8
		c0.2,1.7,0.8,3.2,0.8,4.9C39.3,22.3,39.2,20.5,40.3,18.8z M40.9,25.8c0.7,0.7,1.4,1.2,2.1,1.8C42,27.5,41,26.7,40.9,25.8z
		 M42.2,22.8c0.6,0.8,1.2,1.6,1.7,2.2C42.9,24.9,42.2,24,42.2,22.8z M43.5,19.7c0.5,0.5,1.1,0.9,1.6,1.4
		C44.2,21.1,43.3,20.2,43.5,19.7z M44.1,27c0.4,0.2,0.7,0.3,1.1,0.5C44.9,27.8,44.5,27.7,44.1,27z M44.8,29.1
		c0.4-0.5,0.5-0.5,1.2-0.2c-0.5,0.7-1.2,0.9-1.9,1.1C44.3,29.7,44.6,29.4,44.8,29.1z M43.2,33c-0.2,0.3-0.3,0.6-0.8,0.4
		c-0.4-0.3-0.7-0.8-0.4-1.2c0.1-0.2,0.4-0.4,0.6-0.7c0.4,0.5,0.6,0.9,0.9,1.3C43.5,32.8,43.3,32.9,43.2,33z M46.1,45.8
		c-0.5,0.1-0.9,0.3-1.1,0.9c-0.1,0.5-0.4,0.9-0.3,1.5c0,0.2-0.1,0.5-0.3,0.6c-2.1,1.7-3.6,3.9-4.4,6.5c-0.3,1.1-1,1.8-1.9,2.5
		c0.3-0.3,0.5-0.5,0.8-0.8c0.2-0.3,0.5-0.7,0.6-1.1c0.6-2.4,1.3-4.7,2.5-6.9c0.2-0.4,0.5-0.8,0.7-1.1c0.3-0.4,0.3-0.8,0.2-1.3
		c-0.1-0.4-0.1-0.8,0.1-1.2c0.1-0.3,0.1-0.7,0.1-1c0-0.2-0.1-0.4,0-0.6c0.8-1.8,1.7-3.6,2.6-5.5C46.2,39.8,46.5,44.2,46.1,45.8z
		 M48.1,31c0.1,0.4-0.1,0.8-0.5,0.8c-0.5,0.1-1,0.2-1.5,0.1c-0.5-0.1-1-0.3-1.3-0.7c-0.3-0.4-0.5-0.5-0.8,0c0,0-0.1,0.1-0.2,0.1
		c-0.2-0.4-0.4-0.7-0.6-1.1c0.2,0,0.4,0.1,0.5,0.1c1-0.3,2-0.7,2.9-1.1c0.3-0.1,0.4-0.1,0.7,0c0.5,0.3,1,0.5,1.5,0.8
		c0,0.2,0,0.4,0,0.7c-0.3-0.1-0.7-0.3-1.1-0.5C47.9,30.7,48,30.8,48.1,31z M50.9,19.2c0.6-0.4,2.1,0.2,2.4,0.9
		C52.5,19.8,51.8,19.5,50.9,19.2z M60.1,53.8c-0.2-0.2-0.2-0.3-0.3-0.4c-0.6-0.8-1.2-1.6-1.8-2.4c-0.4-0.5-0.7-1-0.6-1.7
		c0.1-0.7-0.2-1.3-0.9-1.7c-0.5-0.3-0.7-0.7-0.8-1.2c-0.1-0.6-0.3-1-0.9-1.1c-0.1,0-0.3-0.3-0.3-0.4c-0.4-0.9-0.5-1.9-0.2-2.8
		c0.4-1.2,1-2.3,1.5-3.5c0,0,0.1,0,0.1,0c0.3,1.1,0.6,2.2,1,3.3c0.6,1.9,1.3,3.8,1.9,5.7c0,0.1,0.1,0.2,0.1,0.3
		c-0.2,0.7,0.2,1.1,0.4,1.7c0.3,1.1,0.6,2.1,0.8,3.2C60.2,53,60.1,53.4,60.1,53.8z M75.4,73.9c-0.3-0.3-0.5-0.5-0.7-0.7
		C75.4,73.1,75.4,73.1,75.4,73.9z M73.3,74c0.2,0.4,0.4,0.6,0.6,1C73,74.9,73.1,74.5,73.3,74z M74.2,76.7c-0.3-0.4-0.6-0.7-0.9-1.1
		c0-0.1,0.1-0.1,0.1-0.2c0.1,0.1,0.3,0.2,0.4,0.3C74,76,74.1,76.3,74.2,76.7C74.2,76.7,74.2,76.7,74.2,76.7z M74.1,74.1
		c-0.2-0.2-0.4-0.4-0.7-0.7c0.2-0.1,0.4-0.3,0.5-0.3c0.2,0.1,0.4,0.4,0.6,0.6C74.3,73.9,74.2,74,74.1,74.1z M76.5,76.1
		c-0.1,0.4-0.4,0.6-0.7,0.5c-0.9,0-1.5-0.9-1.3-1.7c0.1-0.4,0.5-0.6,0.9-0.5C76.2,74.6,76.7,75.4,76.5,76.1z M76.8,74.7
		c-0.3-0.2-0.6-0.4-0.9-0.7c-0.1-0.1-0.1-0.3-0.2-0.4c0.1,0,0.1-0.1,0.2-0.1C76.3,73.9,76.6,74.3,76.8,74.7
		C76.9,74.7,76.8,74.7,76.8,74.7z M83.6,87.3c-1.3-1.5-2.6-3-3.9-4.6c0,0,0.1-0.1,0.1-0.1c1.3,1.5,2.6,3,3.9,4.6
		C83.7,87.2,83.6,87.2,83.6,87.3z M83.7,86.5c-1.6-2-3.3-4-4.7-6.2c0.1-0.1,0.1-0.1,0.2-0.2c1.5,2.1,3.1,4.1,4.6,6.2
		C83.8,86.5,83.7,86.5,83.7,86.5z M84.7,87c-1.2-1.8-2.4-3.5-3.6-5.3c0.1,0,0.1-0.1,0.2-0.1c1.2,1.8,2.4,3.5,3.6,5.3
		C84.8,87,84.8,87,84.7,87z"/>
	<path d="M39.1,28.3c0.1-0.2,0.1-0.5,0.2-0.7c0-0.2-0.1-0.4-0.1-0.6C39.1,27,39,27,39,27c-0.7,0.9-0.6,1.7,0.3,2.9
		c0.3,0.5,1.8,0.9,2.4,0.7c0.1,0,0.1-0.2,0.1-0.3c-0.6-0.1-1.2,0-1.7-0.2C39.2,29.7,38.9,29.2,39.1,28.3z"/>
</g>
</svg>
