<?xml version="1.0" encoding="utf-8"?>
<!-- Generator: Adobe Illustrator 27.9.0, SVG Export Plug-In . SVG Version: 6.00 Build 0)  -->
<svg version="1.1" id="Layer_1" xmlns="http://www.w3.org/2000/svg" xmlns:xlink="http://www.w3.org/1999/xlink" x="0px" y="0px"
	 viewBox="0 0 100 100" style="enable-background:new 0 0 100 100;" xml:space="preserve">
<g>
	<path d="M73.1,55.8c0,0,3.4,4,4.6,5.9c1.2,1.9,4.2,6.3,3,8.8c-1.2,2.6-3.6,5.7-3.6,5.7s-0.6-1.6-1-3c-0.4-1.2,0-2.6,0-3.2
		s-3.2-3.6-4-3.6S65.9,64,65.9,64C66.5,62.7,73.1,55.8,73.1,55.8z"/>
	<path d="M30.7,63.2l-8.8,7.8v1.6l1.9,6.1c0,0,3.4,2.3,2.1,3c-1.2,0.6-3.8-0.2-4.6,0.2c-0.8,0.4-4.8-4.8-5.4-6.3l-0.2-6.9
		c1.9-0.2,7.8-5.4,9-5.9C25.8,62.3,30.7,63.2,30.7,63.2z"/>
	<path d="M1.5,77c0.2-1.6,0-9.9,1.2-12.4c1.2-2.6,7.4-2.3,7.4-6.9s-4-11.1-4-14.7s4-8.6,10.3-11.7s6.1-8.4,13.1-8.8
		c5.1-0.3,13,0,18.7-0.5l-1.2-0.8c5.1-0.4,7.2-0.4,8.2-0.4c0.1,0,0.2,0,0.3-0.1l-2.9-1.3c5-0.4,8.2,0.1,9.6,0.5c0.1,0,0.3,0,0.4,0
		l-3.3-1.9c4.9-0.8,9.7,1.4,10.8,1.9c0.2,0,0.4,0,0.5,0.1c-0.3,0.8-0.7,1.9-1,3.1c-0.7,2.2-0.9,4.7,0.8,6.1c1.3,1.1,2.8,5,2.8,5
		L73,31.9c0-3.6-2.3-3.8-2.1-6.3c0.1-1.6,1.3-4,2.1-5.3h0.1v-0.1c0,0,1.2-1.1,2.2-0.8c0.3,0.1,0.6,0.3,0.9,0.5h-0.1
		c0.2,0.1,0.5,0.3,0.7,0.5c0.1,0.1,0.3,0.3,0.4,0.4c0,0,0,0,0.1,0c1.6,1.8,2.2,4.7,2.2,4.7c0.6-1.2,0.4-3,0.1-4.4
		c0.8,0.1,1.4,0.3,1.7,0.3c1.4,0.4,4.4,3.2,4.4,6.3s8.7,11.8,9.9,15.2c1.2,3.4,3.8,3.8,3.2,4.8c-0.6,1-3.8,5-4.4,4
		c-0.2-0.3-0.5-0.6-0.8-0.9c-0.4-0.8-1.7-3.5-2.6-4.2c-0.5-0.4-1.2-0.8-2-1.4c0.4-0.4,2.5-2.3,2.6-3.8c0,0-3.3,2.1-4.4,2.1
		c-0.2-0.2-0.4-0.4-0.6-0.7c0,0,0.2,0.3,0.5,0.7l0,0l0,0c0.8,1.1,2.3,3.2,3.3,3.8c0.4,0.3,0.8,1.2,1.1,2.3c-0.8-0.3-1.8-0.5-2.8-0.5
		c-2.6,0-12.8,1.2-16.3,4.4c-3.6,3.2-8.4,8-9.7,12.2c-1.2,4.2,0.4,11.9,1.6,12.6c1.2,0.6,1.2,0.6,1.2,0.6l0.7,3c0,0-3.2,0.6-4.2,0.4
		c-1-0.2-2.1-2.6-2.1-2.6s-0.2,2.1-1.2,0.6c-1-1.4-0.2-4.4-1-7.1c-0.8-2.8-5.2-12.2-6.5-12.8c-1.2-0.6-15.9,1-21.9,0
		c-5.9-1-6.3,0.4-8.4,1.4c-2.1,1-4,4.2-8.8,6.1c-4.8,1.9-5,3.4-6.1,7.6c-1,4.2-3.2,6.5-4.4,6.5C0.4,82.1,1.3,78.7,1.5,77z
		 M83.4,35.2c0.4-0.7,0.1-1.3,0.1-1.3s-1-0.7-2,0.1C80.5,34.7,83.1,35.9,83.4,35.2z"/>
	<path d="M8.2,52.8c0,0-0.5,0.6-0.5,1.9c0,1.3,0.7,5.1-0.1,6L5,62c0,0,0.1-2.5,0.3-5.1c0.3-2.7,0.9-9,0.9-9S7.8,52.1,8.2,52.8z"/>
</g>
</svg>
