<?xml version="1.0" encoding="utf-8"?>
<!-- Generator: Adobe Illustrator 27.9.0, SVG Export Plug-In . SVG Version: 6.00 Build 0)  -->
<svg version="1.1" id="Layer_1" xmlns="http://www.w3.org/2000/svg" xmlns:xlink="http://www.w3.org/1999/xlink" x="0px" y="0px"
	 viewBox="0 0 100 100" style="enable-background:new 0 0 100 100;" xml:space="preserve">
<path d="M93.3,11.4c-2.2-2.7-6.5-3.6-10.2-1.6c-0.5,0.3-1.1,0.6-1.6,0.9c-0.6,0.4-1.1,0.8-1.6,1.3c2.7-1.1,5.8-2.7,8.4-1.6
	c2.8,1,4.3,4.2,3,7.5c-0.7,1.4-1.8,2.7-3.4,3.1c-0.2,0.1-0.5,0.1-0.7,0.1c0.1-0.3,0.1-0.5,0.2-0.8c0.9-0.1,1.7-0.5,2.3-1.2
	c1-1.2,1.4-2.8,1.1-4.4c-0.5-2.3-2.2-3.7-4.6-3.6c-4.4-0.1-8,3.6-9.5,7.6c-0.4,0.4-0.7,0.9-0.9,1.3c-0.3,0.5-0.5,1.1-0.6,1.7
	c-0.2,0.6-0.3,1.2-0.3,1.7c-2.4,2.4-5,4.6-7.7,6.7c-0.3,0.3-0.7,0.7-1.2,1.1c-1.7,1.6-3.5,3.2-5.3,4.6c-1.3,0.9-2.5,2-3.5,3.2
	c-0.4,0.5-0.9,1-1.3,1.4c-0.4,0.4-1,0.9-1.4,1.3c-0.3,0.2-0.9,0.7-1.8,1.6c-1.8,2.1-3.7,4-5.7,5.9c-0.2,0.2-0.5,0.5-0.9,0.8
	c-4.6,3.6-8.8,7.6-12.6,11.9c-0.5,0.5-0.9,1.1-1.5,1.7c-5.7,3.5-11,7.5-15.6,12.8c-0.6,0.6-1.1,1.1-1.3,1.3
	c-1.6,1.6-3.2,3.1-4.8,4.7c-0.4,0.4-0.8,0.8-1.2,1.2C8,85,6.8,86.2,5.6,87.4c-0.2,0.3-0.4,0.6-0.5,0.9c-0.2,0.5-0.1,1,0.1,1.4
	l0.6,0.7l0.6,0.7c0.1,0.2,1.4,0,1.6,0.1c0.3-0.1,0.7-0.3,1-0.4c0.5-0.2,0.9-0.4,1.3-0.6c1.1-0.4,2.1-1,3-1.8c0.4-0.3,1.3-1,1.8-1.4
	c4.7-4.7,9.5-9.2,14.6-13.1l1-0.8c5.3-5.1,10.5-9.8,16.2-14.1c0.3-0.2,1-0.9,1.4-1.2c2.5-1.8,4.9-3.7,7.3-5.6
	c0.4-0.4,1.1-1.1,1.5-1.5c2.2-2.6,4-5.7,6.5-7.8c2.8-2.4,6.1-3.8,9.2-5.9c0.6-0.6,1.1-1.1,1.7-1.6c2.2-2.1,4.4-4.1,6.7-6
	c1.6,0,3.2-0.4,4.5-1.2c0.8-0.4,1.2-0.6,1.6-0.8c1.6-0.6,3-1.5,4.2-2.7c0.5-0.5,0.9-1,1.3-1.6C95.8,19.5,95.6,14.6,93.3,11.4z"/>
</svg>
