<?xml version="1.0" encoding="utf-8"?>
<!-- Generator: Adobe Illustrator 27.9.0, SVG Export Plug-In . SVG Version: 6.00 Build 0)  -->
<svg version="1.1" id="Layer_1" xmlns="http://www.w3.org/2000/svg" xmlns:xlink="http://www.w3.org/1999/xlink" x="0px" y="0px"
	 viewBox="0 0 100 100" style="enable-background:new 0 0 100 100;" xml:space="preserve">
<g>
	<path d="M37.4,31.9c-1.7,0.1-3.5,0.4-5.1,0.8C29,18.8,37.7,4.9,51.6,1.7c3.8-0.9,7.8-0.9,11.7,0c-0.4,1.7-0.7,3.4-0.8,5.1
		c-11-2.8-22.2,3.8-25,14.9C36.5,25,36.5,28.5,37.4,31.9L37.4,31.9z M84.8,18.8v-3.6l-3.6,0l-4,4l3.6,3.6L84.8,18.8z M71.1,24.7
		l4.2,4.2c1,1,2.6,1,3.6,0c1-1,1-2.6,0-3.6l-4.2-4.2c-1-1-2.6-1-3.6,0C70.1,22.1,70.1,23.7,71.1,24.7z M1.8,94.6c-1,1-1,2.6,0,3.6
		c1,1,2.6,1,3.6,0c0,0,0,0,0,0l48-48l-3.6-3.6L1.8,94.6z M98.3,36.8c-1.7,0.4-3.4,0.7-5.1,0.8c2.8,11-3.8,22.2-14.9,25.1
		c-3.3,0.9-6.8,0.9-10.2,0c-0.1,1.7-0.4,3.4-0.8,5.1c13.9,3.2,27.8-5.4,31-19.3C99.2,44.6,99.2,40.6,98.3,36.8z M59.5,44.7l-4.2-4.2
		c-1-1-2.6-1-3.6,0c-1,1-1,2.6,0,3.6l4.2,4.2c1,1,2.6,1,3.6,0C60.5,47.3,60.5,45.7,59.5,44.7z M85.6,55c4.6-4.6,6.3-11.3,4.4-17.4
		l0,0c-7.2-0.3-14.1-3.3-19.2-8.4c-5.1-5.1-8.1-12-8.4-19.2l-0.1-0.1C52.9,7.2,43.2,12.6,40.5,22c-0.9,3.2-0.9,6.6,0,9.8l0,0
		c15,0.7,27,12.7,27.7,27.7l0,0C74.4,61.3,81.1,59.6,85.6,55L85.6,55z"/>
</g>
</svg>
