<?xml version="1.0" encoding="utf-8"?>
<!-- Generator: Adobe Illustrator 27.9.0, SVG Export Plug-In . SVG Version: 6.00 Build 0)  -->
<svg version="1.1" id="Layer_1" xmlns="http://www.w3.org/2000/svg" xmlns:xlink="http://www.w3.org/1999/xlink" x="0px" y="0px"
	 viewBox="0 0 100 100" style="enable-background:new 0 0 100 100;" xml:space="preserve">
<path d="M99.5,2.2L32.6,70.8l-1.1-1.1L99.5,2.2l-9.3,2.3L28.5,66.7c0,0-5-1.4-6-6c-1.1-4.6-6.4,4.6-4.7,4.3c1.7-0.3,7.4,7.4,7.4,7.4
	C19.2,80.5,2.9,95.2,0.8,97c-2.1,1.7,10,0.7,11.7-1.6c1.8-2.4,9.2-11.4,17.8-17.9c0,0,7.4,6,7.4,7.4c-0.9,2.4,9.2-4,4.3-4.8
	c-4.2-1-6.3-6.3-6.3-6.3l61.8-62.3L99.5,2.2z"/>
</svg>
