<?xml version="1.0" encoding="utf-8"?>
<!-- Generator: Adobe Illustrator 27.9.0, SVG Export Plug-In . SVG Version: 6.00 Build 0)  -->
<svg version="1.1" id="Layer_1" xmlns="http://www.w3.org/2000/svg" xmlns:xlink="http://www.w3.org/1999/xlink" x="0px" y="0px"
	 viewBox="0 0 100 100" style="enable-background:new 0 0 100 100;" xml:space="preserve">
<g>
	<path d="M31.7,64l-14.1-9.8L14,57.9l10.5,10.6l-15,16.6l-6.7,3.4L4,96.1l7.5,1.1l3.3-6.7l16.7-14.9L42,86.1l3.8-3.7l-9.8-14.1
		L31.7,64z M8.4,94.3c-1.5,0-2.7-1.2-2.7-2.6s1.2-2.7,2.6-2.7c1.5,0,2.7,1.2,2.7,2.6S9.9,94.3,8.4,94.3z"/>
	<polygon points="75.5,12 30.8,61.6 32.7,63 34.3,64.6 78.3,20.6 79.3,21.7 35.4,65.6 37,67.2 38.4,69.3 88.1,24.5 97.2,2.9 	"/>
</g>
</svg>
