<?xml version="1.0" encoding="utf-8"?>
<!-- Generator: Adobe Illustrator 27.9.0, SVG Export Plug-In . SVG Version: 6.00 Build 0)  -->
<svg version="1.1" id="Layer_1" xmlns="http://www.w3.org/2000/svg" xmlns:xlink="http://www.w3.org/1999/xlink" x="0px" y="0px"
	 viewBox="0 0 100 100" style="enable-background:new 0 0 100 100;" xml:space="preserve">
<path d="M90.4,43.3c1.4-0.4,2.7-0.8,4.1-1.1c0.8-0.2,1.5-0.1,2.3,0.3c1,0.5,1.4,1.5,1.6,2.5c0.1,0.4,0,0.8,0,1.3c0,0.6,0,1.3,0,1.9
	c0,0.6,0,1.3,0,1.9c0,0.8,0,1.7,0,2.5c0,0.6-0.1,1.3,0,1.9c0,0.8-0.3,1.5-0.7,2.2c-0.4,0.6-1,0.8-1.7,1c-1.2,0.3-2.2-0.2-3.3-0.5
	c-0.8-0.2-1.6-0.4-2.3-0.6c-0.1,0.8-0.2,1.7-0.4,2.5c-0.2,1-0.3,2-0.5,3c-0.2,0.8-0.4,1.7-0.7,2.5c-0.3,1-0.6,2-0.9,2.9
	c-0.3,0.9-0.7,1.8-1.1,2.7c-0.4,0.9-0.9,1.9-1.4,2.8c-0.5,0.9-1.1,1.8-1.7,2.7c-1.3,2-2.9,3.8-4.6,5.4c-1.4,1.3-2.9,2.6-4.4,3.8
	c-1.5,1.2-3,2.5-4.2,4.1c-0.8,1-1.5,2-2,3.2c-0.2,0.5-0.4,0.9-0.6,1.4c-0.1,0.2-0.1,0.3-0.1,0.5c-0.1,0.4-0.5,0.9-1,0.9
	c-0.4,0-0.8-0.3-1-0.7c0,0,0-0.1,0-0.1c0.1-0.9-0.4-1.6-0.7-2.4c-0.6-1.3-1.1-2.6-1.7-3.9c-0.4-0.9-0.8-1.8-1.2-2.7
	c-0.4-1-0.9-2-1.3-3c-0.4-1-0.9-1.9-1.3-2.9c-0.5-1.1-0.9-2.2-1.4-3.3c-0.5-1.1-0.9-2.1-1.4-3.2c-0.4-1-0.9-2-1.3-2.9
	c-0.3-0.8-0.7-1.6-1-2.4c-0.2-0.4-0.4-0.8-0.5-1.2c-0.4-0.9-0.8-1.8-1.2-2.7c-0.5-1.1-1-2.2-1.4-3.3c-0.4-0.9-0.8-1.9-1.2-2.8
	c-0.3-0.6-0.5-1.2-0.8-1.7c-0.1-0.1-0.3-0.3-0.4-0.3c-0.6,0-1.3,0-1.9,0c-0.5,0-0.9,0-1.4-0.1c-0.6-0.1-1.2-0.1-1.7-0.3
	c-0.8-0.2-1.5-0.6-2.2-0.9c-1-0.4-2-0.5-3-0.2c-1,0.3-2,0.5-3,0.8c-0.6,0.2-1.2,0.4-1.8,0.5c-0.6,0.1-1.1,0.1-1.7,0.2
	c-1,0.1-1.9,0.1-2.9,0.1c-1.1,0-2.2,0.1-3.4,0.1c-0.8,0-1.6,0.1-2.4,0.1c-0.6,0-1.3,0-1.9,0c-0.6,0-1.3,0.1-1.9,0.1
	c-1.1,0-2.2,0.1-3.4,0.1c-1.2,0-2.3,0.1-3.5,0.1c-1,0-2,0-3,0c-0.9,0-1.8,0.1-2.6,0.1c-0.6,0-1.3,0-1.9,0c-0.6,0-1.3,0.1-1.9,0.1
	c-0.6,0-1.3,0.2-1.8-0.3c-0.3-0.3-0.4-0.7-0.4-1.2c0-1.2,0-2.3,0-3.5c0-1.1,0-2.1,0-3.2c0-0.9,0.1-1.8,0-2.8c0-0.5-0.1-1,0.3-1.4
	c0.3-0.3,0.7-0.4,1.2-0.4c0.8,0,1.6,0.1,2.4,0.1c1.1,0,2.2,0,3.3,0.1c0.8,0,1.6,0.1,2.4,0.1c0.6,0,1.3,0,1.9,0
	c0.8,0,1.6,0.1,2.4,0.1c1,0,2,0,3,0.1c0.9,0,1.8,0.1,2.7,0.1c0.6,0,1.3,0,1.9,0c0.8,0,1.6,0.1,2.4,0.1c0.9,0,1.7,0.1,2.6,0.1
	c0.9,0,1.8,0.1,2.6,0.1c0.8,0,1.6,0,2.5,0.1c0.5,0,1,0.1,1.5,0.2c1,0.2,1.9,0.5,2.9,0.8c0.5,0.1,1,0.3,1.6,0.4
	c0.8,0.3,1.6,0.2,2.4-0.1c0.9-0.3,1.8-0.7,2.7-1c0.9-0.3,1.8-0.4,2.7-0.3c0.7,0,1.3,0,2,0c0.8,0,0.7-0.1,1-0.9
	c0.2-0.5,0.4-0.9,0.6-1.3c0.5-1.1,0.9-2.2,1.4-3.3c0.2-0.5,0.5-1,0.7-1.6c0.3-0.8,0.6-1.5,0.9-2.3c0.2-0.5,0.4-0.9,0.6-1.4
	c0.4-0.8,0.7-1.7,1.1-2.5c0.2-0.4,0.3-0.8,0.5-1.1c0.4-0.8,0.8-1.6,1.1-2.4c0.4-1,0.8-2.1,1.3-3.1c0.3-0.8,0.7-1.6,1.1-2.4
	c0.5-1.1,0.9-2.2,1.4-3.2c0.2-0.4,0.4-0.8,0.5-1.2c0.5-1.1,1-2.3,1.5-3.4c0.4-0.9,0.8-1.9,1.2-2.8c0.6-1.3,1.2-2.6,1.7-3.9
	C65.8,7,65.9,6.5,66,6c0-0.4,0.2-0.9,0.6-1c0.5-0.2,1.2,0.2,1.3,0.8C68,6.2,68.1,6.6,68.3,7c0.6,1.2,1.2,2.3,2,3.4
	c1.1,1.6,2.6,2.9,4,4.2c1.4,1.2,2.8,2.3,4.2,3.5c1.2,1.1,2.3,2.2,3.3,3.4c0.6,0.7,1.2,1.4,1.8,2.2c0.8,1.1,1.5,2.2,2.2,3.4
	c0.6,1,1,2,1.5,3c0.4,1,0.7,2,1.1,3c0.2,0.6,0.4,1.2,0.6,1.9c0.2,0.8,0.4,1.6,0.5,2.5c0.2,0.8,0.3,1.6,0.5,2.3
	c0.1,0.7,0.2,1.5,0.3,2.2C90.3,42.4,90.4,42.9,90.4,43.3z M66.7,91.9c0.2-0.4,0.3-0.7,0.4-0.9c0.7-1.1,1.4-2.3,2.2-3.4
	c0.4-0.5,0.8-1,1.3-1.4c1.1-1,2.2-2,3.3-3c2.4-2,4.6-4.2,6.2-6.9c0.6-1.1,1.2-2.2,1.8-3.3c0.1-0.3,0.2-0.6,0.3-0.8
	c0.4-1,0.7-2.1,1.1-3.1c0.2-0.6,0.4-1.2,0.5-1.9c0.2-1,0.4-1.9,0.6-2.9c0.2-1.2,0.4-2.4,0.6-3.6c0.2-1.2,0.3-2.4,0.4-3.7
	c0-0.4,0-0.9,0-1.3c0-0.1-0.2-0.3-0.3-0.3c-0.6,0-1.2,0-1.8,0c-0.6,0-1.3,0-1.9,0c-0.6,0-1.3,0-1.9,0c-0.6,0-1.3,0-1.9,0
	c-0.6,0-1.2,0-1.8,0c-0.4,0-0.9,0.1-1.3,0.1c-0.8,0-1.7,0-2.5,0c-0.8,0-1.6,0-2.4,0c-0.7,0-1.3,0-2,0c-0.6,0-1.2,0-1.8,0
	c-0.7,0-1.4,0-2,0c-0.6,0-1.2,0-1.8,0c-1,0-2,0-2.9,0c-0.8,0-1.6,0-2.5,0c-0.8,0-1.6,0-2.4-0.1c-1,0-2.1-0.1-3.1-0.2
	c0.1,0.4,0.1,0.6,0.2,0.8c0.4,0.9,0.8,1.9,1.2,2.8c0.4,0.9,0.8,1.9,1.2,2.8c0.4,0.9,0.8,1.9,1.2,2.8c0.6,1.4,1.2,2.7,1.8,4.1
	c0.4,0.9,0.8,1.8,1.2,2.7c0.6,1.3,1.1,2.5,1.7,3.8c0.4,0.9,0.8,1.9,1.2,2.8c0.4,0.9,0.8,1.9,1.2,2.9c0.4,0.9,0.8,1.9,1.2,2.8
	c0.4,1,0.8,1.9,1.3,2.9c0.4,0.9,0.8,1.8,1.2,2.7c0.1,0.3,0.3,0.6,0.4,1C66.2,90.8,66.4,91.3,66.7,91.9z M85.4,44.4
	c0-0.4,0-0.9-0.1-1.3c-0.1-0.9-0.1-1.8-0.2-2.6c-0.1-0.7-0.2-1.5-0.3-2.2c-0.2-1-0.3-2.1-0.5-3.1c-0.1-0.5-0.2-1.1-0.4-1.6
	c-0.2-0.9-0.4-1.8-0.7-2.7c-0.2-0.6-0.4-1.2-0.6-1.8c-0.3-0.8-0.6-1.5-0.9-2.3c-0.2-0.6-0.5-1.1-0.8-1.6c-0.6-1.1-1.2-2.2-2-3.2
	c-1.8-2.2-3.9-4.2-6.1-6c-1.4-1.1-2.8-2.4-3.9-4c-0.6-0.8-1.1-1.7-1.7-2.5c-0.3-0.4-0.4-0.8-0.7-1.3c-0.1,0.1-0.1,0.2-0.2,0.3
	c-0.3,0.7-0.6,1.5-0.9,2.2c-0.4,0.8-0.7,1.6-1.1,2.4c-0.4,0.9-0.8,1.9-1.2,2.8c-0.3,0.7-0.7,1.4-1,2.2c-0.4,0.8-0.7,1.7-1.1,2.5
	c-0.4,0.9-0.7,1.8-1.1,2.6c-0.6,1.4-1.2,2.7-1.8,4.1c-0.4,0.8-0.7,1.6-1.1,2.4c-0.1,0.3-0.3,0.6-0.4,0.9c-0.3,0.8-0.6,1.6-1,2.4
	c-0.4,0.9-0.8,1.8-1.1,2.7c-0.5,1.1-1,2.3-1.5,3.4c-0.1,0.3-0.3,0.6-0.4,0.9c-0.4,0.9-0.7,1.7-1.1,2.6c-0.3,0.6-0.5,1.2-0.8,1.8
	C62.5,44.4,73.9,44.4,85.4,44.4z M87.2,50C87.2,50,87.2,50,87.2,50c-0.4-0.2-0.8-0.3-1.2-0.5c-0.7-0.2-1.3-0.4-2-0.5
	c-0.4-0.1-0.8-0.2-1.3-0.3c-0.4,0-0.8,0-1.1,0c-0.8,0-1.7,0-2.5,0c-0.8,0-1.6,0-2.5,0c-0.6,0-1.3,0-1.9,0c-0.6,0-1.1,0-1.7,0
	c-0.7,0-1.3,0-2,0c-0.6,0-1.2,0-1.8,0c-0.7,0-1.4,0-2,0c-0.6,0-1.2,0-1.8,0c-0.6,0-1.3,0-1.9,0c-0.8,0-1.6,0-2.4,0c-0.7,0-1.4,0-2,0
	c-0.6,0-1.2,0-1.8,0c-0.8,0-1.7,0-2.5,0c-1,0-1.9,0-2.9,0c-0.9,0-1.9,0-2.8,0.1c0,0.1-0.1,0.2-0.1,0.3c-0.3,0.6-0.5,1.1-0.1,1.7
	c0.2,0.4,0.5,0.4,0.8,0.4c0.8,0,1.5,0,2.3,0c0.7,0,1.4,0,2.1,0c0.6,0,1.1,0,1.7,0c0.9,0,1.7,0,2.6,0c0.6,0,1.2,0,1.8,0
	c0.7,0,1.3,0,2,0c0.6,0,1.2,0,1.8,0c0.7,0,1.3,0,2,0c0.7,0,1.3,0,2,0c0.4,0,0.8,0,1.2,0c0.6,0,1.3,0,1.9,0c0.6,0,1.3,0,1.9,0
	c0.6,0,1.3,0,1.9,0c0.7,0,1.3,0,2,0c0.4,0,0.8,0,1.2,0c0.7,0,1.3,0,2,0c0.6,0,1.3,0,1.9,0c0.5,0,1-0.1,1.6-0.2
	c0.6-0.1,1.2-0.3,1.8-0.5C85.9,50.4,86.6,50.2,87.2,50z M95.7,55.2c0.1-0.2,0.1-0.3,0.1-0.4c0-0.7,0-1.4,0-2.1c0-1.2,0-2.3,0-3.5
	c0-1.3,0-2.6,0-3.8c0-0.4-0.2-0.6-0.6-0.5c-0.7,0.1-1.4,0.3-2.1,0.5c-0.7,0.2-1.4,0.3-2.1,0.5c-0.2,0.1-0.5,0.1-0.4,0.4
	c0,0.2,0,0.4,0,0.6c0,0.8,0.1,1.7,0.1,2.5c0,0.8,0,1.7,0,2.5c0,0.6,0,1.2-0.1,1.8c-0.1,0.5,0.1,0.5,0.4,0.6c0.4,0.1,0.7,0.1,1.1,0.2
	c0.9,0.2,1.7,0.5,2.6,0.7C95.1,55.2,95.4,55.2,95.7,55.2z"/>
</svg>
