<?xml version="1.0" encoding="utf-8"?>
<!-- Generator: Adobe Illustrator 27.9.0, SVG Export Plug-In . SVG Version: 6.00 Build 0)  -->
<svg version="1.1" id="Layer_1" xmlns="http://www.w3.org/2000/svg" xmlns:xlink="http://www.w3.org/1999/xlink" x="0px" y="0px"
	 viewBox="0 0 100 100" style="enable-background:new 0 0 100 100;" xml:space="preserve">
<g>
	<path d="M19.3,44.7v13.9c0,7.9,1.6,10.1,7.6,10.1h3.4V34.6H27C21,34.6,19.3,36.8,19.3,44.7z"/>
	<path d="M77.8,55l-0.1-2.8c1-0.3,1.9-1.1,2.4-2.2c0.4-0.8,0.6-1.6,0.6-2.5c0-0.9-0.2-1.7-0.6-2.5c-0.7-1.3-1.9-2.2-3.2-2.3
		l-0.5-2.6c0.6-0.4,1.1-1,1.5-1.7c0.4-0.8,0.6-1.6,0.6-2.5c0-0.9-0.2-1.7-0.6-2.5c-0.7-1.4-2.1-2.4-3.5-2.4h-1.4L73,31l-2.6,0.1H68
		l0,0.1l-2.4,0.1l-0.3-2.2c-1.4-5-4.1-6-12.3-4.1c-7.4,1.6-10.3,4.1-12.7,6c-2.1,1.7-3.9,3.2-7.5,3.5v34.2c3.4,0.3,5.4,1.7,7.2,3.2
		c2.4,1.9,4.8,3.9,11.4,3.8l3,0l0,0l2.7,0l2.6,0c0,0,0,0,0,0l4.7-0.1c0.2,0,0.3,0,0.5,0.1l9.5,0c1.3-0.1,2.5-1,3.2-2.3
		c0.4-0.8,0.6-1.6,0.6-2.5c0-0.9-0.2-1.7-0.6-2.5c-0.3-0.6-0.7-1.1-1.2-1.5l0.5-2.7c1.3-0.1,2.5-1,3.2-2.3c0.4-0.8,0.6-1.6,0.6-2.5
		c0-0.9-0.2-1.7-0.6-2.5C79.6,56.1,78.8,55.4,77.8,55z"/>
</g>
</svg>
