<?xml version="1.0" encoding="utf-8"?>
<!-- Generator: Adobe Illustrator 27.9.0, SVG Export Plug-In . SVG Version: 6.00 Build 0)  -->
<svg version="1.1" id="Layer_1" xmlns="http://www.w3.org/2000/svg" xmlns:xlink="http://www.w3.org/1999/xlink" x="0px" y="0px"
	 viewBox="0 0 100 100" style="enable-background:new 0 0 100 100;" xml:space="preserve">
<g>
	<path d="M75,50c0,1-0.1,2-0.4,2.9l8.5,0l0,4.7c0,0.8,0.9,1.2,1.5,0.7l10-7.5c0.5-0.4,0.5-1.1,0-1.5l-10-7.6c-0.6-0.5-1.5,0-1.5,0.8
		l0,4.7l-8.5,0C74.9,48.1,75,49,75,50z"/>
	<path d="M9.9,52.8C9.9,52.8,9.8,52.8,9.9,52.8C10.1,52.8,10.2,52.8,9.9,52.8z"/>
	<path d="M61.9,92.1c0.8-1.7,0-3.7-1.5-4.3c-1.1-0.4-1.9,1.1-0.9,1.8c2,2-3,3.3-3.2-2c-0.5-7.9,9.7-11.6,14.1-19.7
		c1.9-3.6,2.2-7.2,1.3-10.3c-1.8,1.7-4.3,2.8-7,2.8c-0.2,0-0.3,0-0.5,0C67.3,66.7,54,74,52.5,83.9L33.4,52.8l21.3,0
		c-0.3-0.9-0.4-1.9-0.4-2.9c0-1,0.1-1.9,0.4-2.8l-21.9,0l19.6-31c0.9,6.1,6.1,10.8,8.8,14.4c3.2,4.1,3.7,7.3,3,9.1
		c0.2,0,0.3,0,0.5,0c2.6,0,5.1,1,7.1,2.8c4.2-13.8-16.2-19.9-15.6-29.9C56.2,9,58.8,7.9,59.6,9c0.3,0.3,0.2,1-0.1,1.2l-0.2,0.1
		c-1,0.7-0.2,2.2,0.9,1.8c3.3-1.2,2-6.9-2.6-6.3c-2.8,0.4-4.7,3.1-5.2,6c-0.1,0.3-0.1,0.7-0.2,1L30.4,47.1c-14.6,0-19.5,0-20.9,0
		c0,0,0,0,0,0c-0.1,0-0.3,0-0.5,0c-1.5,0-2.8,1.2-2.8,2.8c0,1.6,1.3,2.8,2.8,2.8c0,0,0.1,0,0.1,0c0,0,0.1,0,0.2,0c0,0,0.1,0,0.1,0
		c0,0,0,0-0.1,0c0.1,0,0.2,0,0.4,0c0,0,0,0-0.1,0c0,0,0.1,0,0.1,0c1.8,0,7.2,0,21.3,0l21.2,34.3c0,0.3,0.1,0.7,0.2,1
		C54,95,60.2,95.5,61.9,92.1z M9.5,47.1c-0.2,0-0.3,0-0.4,0C9.2,47.1,9.3,47.1,9.5,47.1z"/>
	<path d="M9.8,47.1C9.9,47.1,9.9,47.1,9.8,47.1L9.8,47.1z"/>
	<path d="M9.6,47.1c0.1,0,0.2,0,0.3,0C9.8,47.1,9.7,47.1,9.6,47.1z"/>
	<path d="M9.2,52.8c-0.2,0,0,0,0.3,0c0,0-0.1,0-0.1,0C9.3,52.8,9.2,52.8,9.2,52.8z"/>
	<path d="M56.1,50c0,4.7,3.8,8.5,8.5,8.6c4.7,0,8.5-3.9,8.5-8.5c0-4.6-3.7-8.5-8.5-8.6C59.9,41.4,56.1,45.2,56.1,50z"/>
	<path d="M17,39.2l-11.1,0c-0.8,0-1.2,0.8-0.8,1.4l3.1,4.6c0.3-0.1,0.5-0.1,0.8-0.1l12,0L17,39.2z"/>
	<path d="M9.1,54.6c-0.3,0-0.6,0-0.8-0.1l-3.1,4.6c-0.4,0.6,0,1.4,0.8,1.4l11.1,0l4-6L9.1,54.6z"/>
</g>
</svg>
