<?xml version="1.0" encoding="utf-8"?>
<!-- Generator: Adobe Illustrator 27.9.0, SVG Export Plug-In . SVG Version: 6.00 Build 0)  -->
<svg version="1.1" id="Layer_1" xmlns="http://www.w3.org/2000/svg" xmlns:xlink="http://www.w3.org/1999/xlink" x="0px" y="0px"
	 viewBox="0 0 100 100" style="enable-background:new 0 0 100 100;" xml:space="preserve">
<style type="text/css">
	.{fill-rule:evenodd;clip-rule:evenodd;}
</style>
<g>
	<path class="" d="M30.1,59.9c-1.4-1.4-3.7-1.4-5.1,0c0,0-15.5,15.2-22.4,22c-3.2,3.2-3.3,8.4-0.1,11.6L6.1,97
		c3.2,3.2,8.4,3.3,11.6,0.1l22.4-22c1.4-1.4,1.4-3.7,0-5.1L30.1,59.9z"/>
	<path class="" d="M31.1,51.3c-0.5,0.6-0.7,1.4-0.7,2.2l0,3.6L30,57.6c0.5,0.3,1,0.6,1.4,1l10.1,10.3c0.4,0.4,0.8,1,1,1.5
		l0.4-0.4l3.6,0c0.8,0,1.5-0.2,2.2-0.7l6.3-4.6L35.8,45.2L31.1,51.3z"/>
	<path class="" d="M99.6,51.5l-3.7-8.9c-0.2-0.4-0.4-0.8-0.8-1.1L59.8,5.5c-0.3-0.3-0.7-0.6-1.1-0.8l-8.9-3.9
		c-1.3-0.6-2.9-0.3-4,0.7L25.4,21.7c-1.1,1-1.4,2.6-0.8,3.9l3.7,8.9c0.2,0.4,0.4,0.8,0.8,1.1l35.2,35.9c0.3,0.3,0.7,0.6,1.1,0.8
		l8.9,3.9c1.3,0.6,2.9,0.3,4-0.7l20.5-20.1C99.8,54.4,100.1,52.8,99.6,51.5z M68.4,45c-3.5,3.5-9.2,3.4-12.7-0.1
		c-3.5-3.5-3.4-9.2,0.1-12.7c3.5-3.5,9.2-3.4,12.7,0.1C72,35.8,71.9,41.5,68.4,45z"/>
	<path class="" d="M60.8,37.3c-0.7,0.7-0.7,1.8,0,2.5c0.7,0.7,1.8,0.7,2.5,0c0.7-0.7,0.7-1.8,0-2.5
		C62.7,36.6,61.5,36.6,60.8,37.3z"/>
	<path class="" d="M87.6,28.6c1.2-1.2,1.4-3,0.6-4.4l-3.8-6.4c-0.3-0.5-0.7-0.9-1.2-1.2l-6.3-3.9c-1.4-0.9-3.2-0.7-4.4,0.5
		l-1.3,1.3l15.1,15.4L87.6,28.6z"/>
</g>
</svg>
