<?xml version="1.0" encoding="utf-8"?>
<!-- Generator: Adobe Illustrator 27.9.0, SVG Export Plug-In . SVG Version: 6.00 Build 0)  -->
<svg version="1.1" id="Layer_1" xmlns="http://www.w3.org/2000/svg" xmlns:xlink="http://www.w3.org/1999/xlink" x="0px" y="0px"
	 viewBox="0 0 100 100" style="enable-background:new 0 0 100 100;" xml:space="preserve">
<g>
	<polygon points="42.7,62 39.2,58.5 3.6,93.4 7.1,96.9 	"/>
	<rect x="41.5" y="55.8" transform="matrix(0.7117 -0.7025 0.7025 0.7117 -28.8392 46.8516)" width="2.3" height="5.6"/>
	<polygon points="53.5,51.1 53.7,50.3 50.9,47.4 50.1,47.6 42.6,55.1 46.1,58.6 	"/>
	<polygon points="1.1,98.5 1.2,98.9 1.3,99.1 1.5,99.3 1.9,99.4 2.3,99.5 2.8,99.5 3.3,99.5 3.8,99.4 4.4,99.2 4.9,99 5.5,98.8 
		6,98.4 6.5,98.1 6.5,98.1 2.4,93.9 2.1,94.5 1.7,95 1.5,95.5 1.2,96.1 1.1,96.6 1,97.1 1,97.6 1,98.1 	"/>
	<path d="M47.2,43.6L47.2,43.6l0.1,0.2l0.1,0l0.3,0.1c0,0,0,0,0,0c0,0,0,0,0,0L48,44c0,0,0,0,0,0c0,0,0,0,0,0l0.4,0.1c0,0,0,0,0,0
		c0,0,0,0,0,0l0.4,0.2c0,0,0,0,0,0c0,0,0,0,0,0l0.3,0.2c0,0,0,0,0,0c0,0,0,0,0,0l0.4,0.2c0,0,0,0,0,0c0,0,0,0,0,0l0.3,0.2
		c0,0,0,0,0,0c0,0,0,0,0,0l0.3,0.2c0,0,0,0,0,0c0,0,0,0,0,0l0.3,0.2c0,0,0,0,0,0c0,0,0,0,0,0l0.3,0.2l1.1-2.1l-0.3-0.2l-0.3-0.2
		L51,42.9l-0.4-0.1l-0.4-0.1l-0.4-0.1l-0.4,0l-0.4,0l-0.4,0.1l-0.4,0.1l-0.4,0.2c0,0,0,0-0.1,0c0,0-0.1,0-0.1,0l-0.2,0l-0.1,0
		L47.3,43l-0.1,0.1l-0.1,0.1l0,0.1l0,0.1l0,0.1L47.2,43.6z"/>
	<polygon points="59,45 60.7,43.3 59.8,41.5 57.9,40.5 56.2,42.2 	"/>
	<polygon points="56.7,48.3 52.9,44.5 51.8,46.6 54.6,49.3 	"/>
	<path d="M97.1,5.4C97.1,5.4,97.1,5.4,97.1,5.4l-2,2.7c0,0,0,0,0,0c0,0,0,0,0,0L93,10.7c0,0,0,0,0,0c0,0,0,0,0,0l-2.1,2.6
		c0,0,0,0,0,0c0,0,0,0,0,0l-2.2,2.5c0,0,0,0,0,0c0,0,0,0,0,0l-2.3,2.4c0,0,0,0,0,0c0,0,0,0,0,0L84,20.6c0,0,0,0,0,0c0,0,0,0,0,0
		l-2.4,2.3c0,0,0,0,0,0c0,0,0,0,0,0l-2.4,2.3c0,0,0,0,0,0c0,0,0,0,0,0l-2.5,2.2l-0.8,0.7l-0.7,0.7l-0.7,0.7l-0.7,0.8l-0.6,0.8
		l-0.6,0.8l-0.5,0.9l-0.5,0.9l-0.4,0.9l-0.4,0.9l-0.3,0.7L71,36c0,0,0,0,0,0c0,0,0,0,0,0l0.9-0.2c0,0,0,0,0,0s0,0,0,0l0.7-0.1
		l3.1-2.5l3.1-2.7l3-2.9l2.8-3l2.7-3.1l2.5-3.3l2.4-3.4l2.2-3.5l2-3.6l1.9-3.7L99,2.7l0,0c0,0,0,0,0,0c0,0,0,0,0,0L97.1,5.4
		C97.1,5.4,97.1,5.4,97.1,5.4z"/>
	<path d="M60.6,40.5C60.6,40.5,60.7,40.5,60.6,40.5c0.1,0.1,0.2,0.1,0.2,0.2c0,0,0,0,0,0l0.7,1.4l1.6-1.5c0,0,0,0,0,0c0,0,0,0,0,0
		l0.6-0.6c0,0,0,0,0,0s0,0,0,0l0.7-0.6c0,0,0,0,0,0c0,0,0,0,0,0l0.7-0.5c0,0,0,0,0,0c0,0,0,0,0,0l0.7-0.5c0,0,0,0,0,0c0,0,0,0,0,0
		l0.8-0.5c0,0,0,0,0,0c0,0,0,0,0,0l0.8-0.4c0,0,0,0,0,0s0,0,0,0l0.8-0.4c0,0,0,0,0,0c0,0,0,0,0,0l0.6-0.2l0.2-0.7c0,0,0,0,0,0
		c0,0,0,0,0,0l0.4-1c0,0,0,0,0,0c0,0,0,0,0,0l0.4-1c0,0,0,0,0,0c0,0,0,0,0,0l0.5-0.9c0,0,0,0,0,0c0,0,0,0,0,0l0.5-0.9c0,0,0,0,0,0
		c0,0,0,0,0,0l0.6-0.9c0,0,0,0,0,0c0,0,0,0,0,0l0.6-0.9c0,0,0,0,0,0c0,0,0,0,0,0l0.6-0.8c0,0,0,0,0,0c0,0,0,0,0,0l0.7-0.8
		c0,0,0,0,0,0c0,0,0,0,0,0l0.7-0.8c0,0,0,0,0,0c0,0,0,0,0,0l0.7-0.7c0,0,0,0,0,0s0,0,0,0l0.8-0.7c0,0,0,0,0,0c0,0,0,0,0,0l2.5-2.2
		l2.4-2.2l2.4-2.3l2.3-2.4l2.3-2.4l2.2-2.5L92,9.9l2.1-2.6l2-2.6L98,2l1-1.5L67,29.5l-0.2,0.5c0,0,0,0,0,0c0,0,0,0,0,0l-0.3,0.7
		c0,0,0,0,0,0c0,0,0,0,0,0l-0.3,0.7c0,0,0,0,0,0c0,0,0,0,0,0l-0.3,0.7c0,0,0,0,0,0c0,0,0,0,0,0l-0.4,0.6c0,0,0,0,0,0c0,0,0,0,0,0
		l-0.4,0.6c0,0,0,0,0,0c0,0,0,0,0,0l-0.4,0.6c0,0,0,0,0,0c0,0,0,0,0,0l-0.4,0.6c0,0,0,0,0,0c0,0,0,0,0,0l-0.5,0.6c0,0,0,0,0,0
		c0,0,0,0,0,0l-0.5,0.5c0,0,0,0,0,0c0,0,0,0,0,0l-0.5,0.5c0,0,0,0,0,0c0,0,0,0,0,0L62,36.9c0,0,0,0,0,0l0,0l-2.8,2.8L60.6,40.5
		C60.6,40.5,60.6,40.5,60.6,40.5z"/>
	<path d="M54.4,38.3l0.2,0.9l0.3,0.8l0.3,0.8l0.3,0.5l1.7-1.7L57,39.4c0,0,0,0,0,0c0,0,0,0,0,0l-0.2-0.6c0,0,0,0,0,0c0,0,0,0,0,0
		L56.5,38c0,0,0,0,0,0c0,0,0,0,0,0l-0.2-0.7c0,0,0,0,0,0c0,0,0,0,0,0l-0.1-0.7c0,0,0,0,0,0c0,0,0,0,0,0l0-0.7c0,0,0,0,0,0
		c0,0,0,0,0,0l0-0.7c0,0,0,0,0,0c0,0,0,0,0,0l0-0.7c0,0,0,0,0,0c0,0,0,0,0,0l0.1-0.7c0,0,0,0,0,0c0,0,0,0,0,0l0.2-0.6c0,0,0,0,0,0
		c0,0,0,0,0,0l0.2-0.6c0,0,0,0,0,0c0,0,0,0,0,0l0.2-0.5l0,0l0-0.1l0,0l0,0l-0.1,0l-0.1,0l-0.1,0l0,0l-0.1,0l-0.1,0l-0.1,0l-0.5,0.7
		l-0.5,0.7L54.9,34l-0.3,0.8l-0.2,0.8l-0.1,0.9l0,0.9L54.4,38.3z"/>
	<rect x="55.5" y="42.5" transform="matrix(0.7107 -0.7035 0.7035 0.7107 -15.3817 52.5624)" width="1.4" height="4.9"/>
	<path d="M55.7,50.5C55.7,50.5,55.7,50.6,55.7,50.5C55.7,50.6,55.7,50.6,55.7,50.5l0.3,0.3c0,0,0,0,0,0c0,0,0,0,0,0l0.2,0.3
		c0,0,0,0,0,0c0,0,0,0,0,0l0.2,0.3c0,0,0,0,0,0c0,0,0,0,0,0l0.2,0.3c0,0,0,0,0,0c0,0,0,0,0,0l0.2,0.4c0,0,0,0,0,0c0,0,0,0,0,0
		l0.1,0.4c0,0,0,0,0,0s0,0,0,0l0.1,0.4c0,0,0,0,0,0c0,0,0,0,0,0l0.1,0.4c0,0,0,0,0,0c0,0,0,0,0,0l0.1,0.3l0,0.1l0.1,0.1l0.1,0.1
		l0.1,0l0.1,0l0.1,0l0.1,0l0.1-0.1l0.1-0.1l0.1-0.1l0-0.1l0-0.2c0,0,0-0.1,0-0.1c0,0,0-0.1,0-0.1l0.2-0.4l0.1-0.4l0.1-0.4l0-0.4
		l0-0.4L58.5,51l-0.1-0.4l-0.1-0.4L58,49.8l-0.2-0.3l-0.2-0.3l-2.1,1.1L55.7,50.5z"/>
	<path d="M62.1,46.7l0.9,0.2l0.9,0.1l0.9,0l0.9-0.1l0.9-0.2l0.8-0.3L68,46l0.7-0.5l0.7-0.5l0.1-0.1l0,0l0-0.1l0-0.1l0-0.1l0,0l0-0.1
		l0-0.1l-0.1,0l0,0l-0.1,0l-0.5,0.2c0,0,0,0,0,0s0,0,0,0l-0.6,0.2c0,0,0,0,0,0c0,0,0,0,0,0L67.4,45c0,0,0,0,0,0c0,0,0,0,0,0
		l-0.7,0.1c0,0,0,0,0,0c0,0,0,0,0,0l-0.7,0c0,0,0,0,0,0c0,0,0,0,0,0l-0.7,0c0,0,0,0,0,0c0,0,0,0,0,0l-0.7-0.1c0,0,0,0,0,0
		c0,0,0,0,0,0L63.9,45c0,0,0,0,0,0c0,0,0,0,0,0l-0.7-0.2c0,0,0,0,0,0c0,0,0,0,0,0l-0.6-0.2c0,0,0,0,0,0c0,0,0,0,0,0l-0.6-0.2
		c0,0,0,0,0,0c0,0,0,0,0,0l-0.2-0.1L60,45.9l0.5,0.3l0.8,0.4L62.1,46.7z"/>
</g>
</svg>
