<?xml version="1.0" encoding="utf-8"?>
<!-- Generator: Adobe Illustrator 27.9.0, SVG Export Plug-In . SVG Version: 6.00 Build 0)  -->
<svg version="1.1" id="Layer_1" xmlns="http://www.w3.org/2000/svg" xmlns:xlink="http://www.w3.org/1999/xlink" x="0px" y="0px"
	 viewBox="0 0 100 100" style="enable-background:new 0 0 100 100;" xml:space="preserve">
<g>
	<rect x="64.6" y="32.5" transform="matrix(0.7071 -0.7071 0.7071 0.7071 -5.4486 58.6066)" width="6.8" height="6.8"/>
	<rect x="0.5" y="63" transform="matrix(0.7071 -0.7071 0.7071 0.7071 -35.9838 45.9582)" width="74" height="6.8"/>
	<path d="M88.7,59L88.7,59c-4.3-1.1-7.2-5.1-7.1-9.5c0-0.8-0.6-1.4-1.3-1.4c-0.6,0-1.2,0.4-1.4,1c-1.1,4.3-5.1,7.2-9.5,7.1
		c-0.8,0-1.4,0.6-1.4,1.3c0,0.6,0.4,1.2,1,1.4c4.3,1.1,7.2,5.1,7.1,9.5c0,0.8,0.6,1.4,1.3,1.4c0.6,0,1.2-0.4,1.4-1
		c1.1-4.3,5.1-7.2,9.5-7.1c0.8,0,1.4-0.6,1.4-1.3C89.7,59.8,89.3,59.2,88.7,59z"/>
	<path d="M90.7,9.1c-0.5-0.4-1.2-0.5-1.7-0.1v0c-2.6,1.8-6.1,1.6-8.4-0.6c-0.6-0.5-1.4-0.5-1.9,0.1c-0.4,0.5-0.5,1.2-0.1,1.7
		c1.8,2.6,1.6,6.1-0.6,8.4c-0.5,0.6-0.5,1.4,0.1,1.9c0.5,0.4,1.2,0.5,1.7,0.1c2.6-1.8,6.1-1.6,8.4,0.6c0.6,0.5,1.4,0.5,1.9-0.1
		c0.4-0.5,0.5-1.2,0.1-1.7c-1.8-2.6-1.6-6.1,0.6-8.4C91.3,10.5,91.2,9.7,90.7,9.1z"/>
	<path d="M33.2,14.2L33.2,14.2c5.3,3,7.8,9.3,6,15.1C39,30,39.4,30.8,40.1,31c0.6,0.2,1.3-0.1,1.6-0.6c3-5.3,9.3-7.8,15.1-6
		c0.7,0.2,1.5-0.2,1.7-0.9c0.2-0.6-0.1-1.3-0.6-1.6c-5.3-3-7.8-9.3-6-15.1c0.2-0.7-0.2-1.5-0.9-1.7c-0.6-0.2-1.3,0.1-1.6,0.6
		c-3,5.3-9.3,7.8-15.1,6c-0.7-0.2-1.5,0.2-1.7,0.9C32.4,13.3,32.6,13.9,33.2,14.2z"/>
</g>
</svg>
