<?xml version="1.0" encoding="utf-8"?>
<!-- Generator: Adobe Illustrator 27.9.0, SVG Export Plug-In . SVG Version: 6.00 Build 0)  -->
<svg version="1.1" id="Layer_1" xmlns="http://www.w3.org/2000/svg" xmlns:xlink="http://www.w3.org/1999/xlink" x="0px" y="0px"
	 viewBox="0 0 100 100" style="enable-background:new 0 0 100 100;" xml:space="preserve">
<g>
	<g>
		<path d="M17,65.9l17.2,17.2l-1.9,1.9c-1,1-2.7,1-3.7,0C24,80.5,19.5,76,15.1,71.5c-1-1-1-2.7,0-3.7L17,65.9L17,65.9z M21.3,83.7
			L17,83l-0.7-4.3l1.6-1.6l5,5L21.3,83.7L21.3,83.7z M87.9,0.5l9.2,2.4l2.4,9.2l-55,55c-0.6-0.6-1.3-0.8-2.1-0.9
			c-2.7-0.1-5,2.1-5.1,4.8c-0.1,1.3-0.1,3.2-4.7,7.9L21.1,67.3c4.7-4.6,6.6-4.6,7.9-4.7c2.7-0.1,4.9-2.4,4.8-5.1
			c0-0.8-0.3-1.5-0.9-2.1L87.9,0.5L87.9,0.5z M12.8,97c0,2.2-2.7,3.4-4.3,1.8l-7.2-7.2c-1.6-1.6-0.5-4.3,1.8-4.3
			c1.1,0,1.6,0.5,2.2,1.2l6.8,6.8C12.5,95.6,12.8,96.3,12.8,97L12.8,97z M14.6,80.4l0.7,4.3l4.3,0.7L17,88l-4.3-0.7L12,83L14.6,80.4
			z M12.3,92.7l-5-5l2.9-2.9l0.7,4.3l4.3,0.7L12.3,92.7z"/>
	</g>
</g>
</svg>
