<?xml version="1.0" encoding="utf-8"?>
<!-- Generator: Adobe Illustrator 27.9.0, SVG Export Plug-In . SVG Version: 6.00 Build 0)  -->
<svg version="1.1" id="Layer_1" xmlns="http://www.w3.org/2000/svg" xmlns:xlink="http://www.w3.org/1999/xlink" x="0px" y="0px"
	 viewBox="0 0 100 100" style="enable-background:new 0 0 100 100;" xml:space="preserve">
<g>
	<path d="M65.1,32.6c-1.3,0-2.3,1-2.3,2.3s1,2.3,2.3,2.3c1.3,0,2.3-1,2.3-2.3S66.4,32.6,65.1,32.6z"/>
	<path d="M79,54.4c5.8-5.8,9.9-12.7,11.9-20.2c-2.1,0.6-4.2,0.9-6.2,0.9c-3.7,0-7.2-0.9-10.3-2.7c-1.4-0.8-2.6-1.8-3.7-2.9
		c-1.1-1.1-2.1-2.4-2.9-3.7c-2.9-4.8-3.5-10.8-1.9-16.6c-7.5,2-14.4,6.1-20.2,11.9c-4.6,4.6-8.2,10.1-10.5,16
		c3.3-1.6,6.8-2.4,10.2-2.4c3.7,0,7.4,0.9,10.6,2.9c1.4,0.8,2.6,1.8,3.7,2.9c1.1,1.1,2.1,2.4,2.9,3.7c3.7,6.1,3.8,14,0.4,20.8
		C68.8,62.7,74.3,59.1,79,54.4z M65.1,39.5c-2.6,0-4.6-2.1-4.6-4.6s2.1-4.6,4.6-4.6c2.6,0,4.6,2.1,4.6,4.6S67.7,39.5,65.1,39.5z"/>
	<path d="M99.9,29.5c-2,1.6-4.1,2.9-6.5,3.8c0,0.1-0.1,0.3-0.1,0.4c-0.1,0.4-0.2,0.8-0.3,1.2c-0.1,0.4-0.2,0.8-0.3,1.2
		c-0.2,0.7-0.4,1.3-0.7,2c-0.1,0.4-0.3,0.8-0.4,1.2c-0.3,0.7-0.5,1.3-0.8,2c-0.2,0.4-0.3,0.7-0.5,1.1c-0.3,0.7-0.7,1.4-1,2
		c-0.2,0.3-0.3,0.6-0.5,0.9c-0.4,0.7-0.9,1.5-1.3,2.2c-0.1,0.2-0.3,0.5-0.4,0.7c-0.5,0.9-1.1,1.7-1.7,2.5c-0.1,0.1-0.1,0.2-0.2,0.3
		c-0.1,0.1-0.2,0.2-0.3,0.4c0.1-0.1,0.2-0.2,0.3-0.4c-0.6,0.8-1.2,1.5-1.9,2.3c-0.1,0.1-0.1,0.1-0.2,0.2c0,0,0,0,0,0
		c-0.8,0.9-1.7,1.9-2.5,2.7c-2,2-4.1,3.7-6.3,5.3c-0.3,0.2-0.7,0.5-1,0.7c-0.6,0.4-1.3,0.9-1.9,1.2c-0.1,0.1-0.2,0.1-0.3,0.2
		c-0.7,0.4-1.5,0.9-2.2,1.3c-0.3,0.2-0.6,0.3-0.9,0.5c-0.5,0.3-1.1,0.5-1.6,0.8c-0.5,0.2-1,0.4-1.6,0.6c-0.4,0.1-0.7,0.3-1.1,0.4
		c-0.7,0.3-1.5,0.5-2.2,0.8c-0.1,0-0.3,0.1-0.4,0.1c-0.8,1.2-1.8,2.4-2.8,3.4c-1.5,1.5-3.2,2.8-5.1,3.9c11.7,1,24.3-3.8,33.6-13.1
		C95.8,53.2,100.7,41.1,99.9,29.5z"/>
	<path d="M28.6,41.7c1-1,2.2-2,3.4-2.8c0-0.1,0.1-0.3,0.1-0.5c0.2-0.7,0.5-1.5,0.8-2.2c0.1-0.4,0.3-0.7,0.4-1.1
		c0.2-0.5,0.4-1,0.6-1.6c0.3-0.5,0.5-1.1,0.8-1.6c0.2-0.3,0.3-0.6,0.5-1c0.4-0.7,0.8-1.4,1.2-2.1c0.1-0.1,0.1-0.2,0.2-0.4
		c0.5-0.8,0.9-1.5,1.5-2.2c1.7-2.5,3.6-4.8,5.8-7c1.4-1.4,2.8-2.6,4.2-3.8c0.3-0.2,0.6-0.5,1-0.8c0,0,0,0,0,0
		c0.9-0.7,1.8-1.3,2.7-1.9c0.1-0.1,0.3-0.2,0.4-0.2c0.8-0.5,1.6-1,2.5-1.5c0.2-0.1,0.4-0.2,0.6-0.3c0.8-0.4,1.5-0.8,2.3-1.2
		c0.3-0.1,0.6-0.2,0.9-0.4C59.3,9,60,8.7,60.7,8.4c0.4-0.1,0.7-0.2,1.1-0.4c0.7-0.2,1.4-0.5,2-0.7C64.2,7.2,64.6,7.1,65,7
		c0.4-0.1,0.8-0.2,1.2-0.3c0.1,0,0.3-0.1,0.4-0.1c0.9-2.3,2.2-4.5,3.8-6.5C69.7,0,68.9,0,68.1,0C57.3,0,46.2,4.8,37.8,13.2
		c-9.3,9.3-14.1,21.8-13.1,33.6C25.7,45,27,43.3,28.6,41.7z"/>
	<path d="M59.5,43.9c-0.1-0.1-0.2-0.3-0.3-0.4c-0.3-0.4-0.7-0.8-1-1.2c-0.1-0.1-0.1-0.2-0.2-0.2s-0.2-0.1-0.2-0.2
		c-0.4-0.4-0.8-0.7-1.2-1c-0.1-0.1-0.3-0.2-0.4-0.3c-0.2-0.2-0.4-0.3-0.7-0.5l0,0l-11,11L23.1,72.3l4.6,4.6L60,44.6
		C59.9,44.3,59.7,44.1,59.5,43.9z"/>
	<path d="M70.1,25.3c0.1,0.2,0.3,0.4,0.5,0.6c0.1,0.2,0.2,0.3,0.4,0.5c0.3,0.4,0.7,0.8,1.1,1.2c0,0,0.1,0.1,0.1,0.1
		c0,0,0.1,0.1,0.1,0.1c0,0,0.1,0.1,0.1,0.1c0,0,0.1,0.1,0.1,0.1c0.4,0.4,0.8,0.7,1.2,1.1c0.2,0.1,0.3,0.2,0.5,0.4
		c0.2,0.1,0.4,0.3,0.6,0.5l0,0l5.7-5.7l-4.6-4.6L70.1,25.3L70.1,25.3z"/>
	<path d="M20.6,73.2c-0.2-0.2-0.6-0.4-0.9-0.4c-0.4,0-0.7,0.1-1,0.4l-0.3,0.3c-0.3,0.3-0.4,0.6-0.4,1c0,0.4,0.1,0.7,0.4,1l0.2,0.2
		l0.3,0.3l5.6,5.6c0.3,0.3,0.6,0.4,1,0.4c0.4,0,0.7-0.1,1-0.4l0.3-0.3c0.5-0.5,0.5-1.4,0-1.9L20.6,73.2z"/>
	<path d="M83,23.2c0.5,0.5,1.4,0.5,1.9,0l0.4-0.3c0.5-0.5,0.5-1.4,0-1.9l-0.1-0.1c0,0-0.1-0.1-0.1-0.1l-5.8-5.8c0,0-0.1-0.1-0.1-0.1
		l-0.1-0.1c-0.3-0.3-0.6-0.4-1-0.4s-0.7,0.1-1,0.4l-0.3,0.3c-0.3,0.3-0.4,0.6-0.4,1c0,0.4,0.1,0.7,0.4,1L83,23.2z"/>
	<rect x="7.7" y="82.2" transform="matrix(0.7071 -0.7071 0.7071 0.7071 -55.9115 35.4165)" width="14.2" height="5.9"/>
	<path d="M5,88.7c-0.5-0.5-1.2-0.8-1.9-0.8c-0.7,0-1.4,0.3-1.9,0.8l-0.5,0.5C0.3,89.7,0,90.3,0,91c0,0.7,0.3,1.4,0.8,1.9l6.3,6.3
		c1,1,2.7,1,3.7,0l0.5-0.5c1-1,1-2.7,0-3.7L5,88.7z"/>
	<polygon points="89.7,16.3 91.2,8.8 83.7,10.3 81.5,13.9 86.1,18.5 	"/>
</g>
</svg>
