<?xml version="1.0" encoding="utf-8"?>
<!-- Generator: Adobe Illustrator 27.9.0, SVG Export Plug-In . SVG Version: 6.00 Build 0)  -->
<svg version="1.1" id="Layer_1" xmlns="http://www.w3.org/2000/svg" xmlns:xlink="http://www.w3.org/1999/xlink" x="0px" y="0px"
	 viewBox="0 0 100 100" style="enable-background:new 0 0 100 100;" xml:space="preserve">
<g>
	<path d="M99.3,0c-1.1,0.6-2.4,0.9-3.3,1.7C92.2,5,88.5,8.4,85,11.9c-8.2,7.8-16.2,15.8-24.3,23.7c-9.2,9-18.2,18.1-27.3,27.1
		c-2.1,2.1-4.2,4.2-6.3,6.3l1,1.2l8.4-7.2l-7.2,8.4l1.2,1c1.4-1.5,5.8-6.1,7.9-8.2c0.6-0.7,37.3-38,49.4-50.2
		c3.5-3.5,7-7.2,10.4-10.8c0.7-0.8,1-2,1.4-2.9C99.6,0.3,99.4,0.2,99.3,0z"/>
	<path d="M12.2,84.9c-2.3,2.9-4.9,5.5-7.2,8.5c-0.9,1.1-1.9,1.8-3.6,1.4c-0.9-0.1-1.3,0.3-1.1,1.4c0.3,1.2,2.1,3.2,3.3,3.6
		c1.3,0.4,1.9-0.2,1.8-1.4c-0.1-0.8,0-1.9,0.4-2.3c2.8-2.8,6.4-5.7,9.3-8.3c0.6-0.6,7-7,9.7-10c1-1.1,2-2.1,3.2-3.2l-2.8-2.8
		C21.7,75.4,13.6,83.3,12.2,84.9z"/>
	<path d="M29.9,72.9l-3.4-3.4c-4-4-7.8-7.8-11.8-11.8c-0.4,0.4-0.9,0.9-1.4,1.4c5.1,3.5,24.5,23.2,27.9,27.8
		c0.3-0.3,1.1-1.3,1.3-1.5c-2-2-3.9-3.9-5.7-5.7C35,77.8,29.9,72.9,29.9,72.9z"/>
</g>
</svg>
