<?xml version="1.0" encoding="utf-8"?>
<!-- Generator: Adobe Illustrator 27.9.0, SVG Export Plug-In . SVG Version: 6.00 Build 0)  -->
<svg version="1.1" id="Layer_1" xmlns="http://www.w3.org/2000/svg" xmlns:xlink="http://www.w3.org/1999/xlink" x="0px" y="0px"
	 viewBox="0 0 100 100" style="enable-background:new 0 0 100 100;" xml:space="preserve">
<g>
	<circle cx="27.4" cy="72.6" r="7.2"/>
	<path d="M14.4,95.9H5.9c-1,0-1.8-0.8-1.8-1.8v-8.5l-3.6,2.3v11.6h11.6L14.4,95.9z"/>
	<path d="M23,82.4c-2.4-1.1-4.3-3-5.4-5.4l-9.9,6.3v9h9L23,82.4z"/>
	<path d="M21.4,63.7l-7.8-7.8c-1.8-1.8-4.6-2.2-6.8-1.1l11.7,11.7C19.3,65.4,20.3,64.4,21.4,63.7z"/>
	<path d="M27.4,61.8V45.9L22,53.4v5.9l2.8,2.8C25.7,61.9,26.5,61.8,27.4,61.8z"/>
	<path d="M97,0.5l-7.6,1.9L31,60.8v1.7c0.9,0.3,1.8,0.8,2.6,1.4L97,0.5z"/>
	<path d="M36.3,78.6c-0.8,1.1-1.7,2.1-2.8,2.8l11.7,11.7c1.1-2.2,0.8-4.9-1.1-6.8L36.3,78.6z"/>
	<path d="M37.9,75.1l2.8,2.8h5.9l7.5-5.4H38.2C38.2,73.5,38.1,74.3,37.9,75.1z"/>
	<path d="M37.6,69h1.7l58.4-58.4L99.5,3L36.2,66.3C36.8,67.1,37.2,68,37.6,69z"/>
</g>
</svg>
