<?xml version="1.0" encoding="utf-8"?>
<!-- Generator: Adobe Illustrator 27.9.0, SVG Export Plug-In . SVG Version: 6.00 Build 0)  -->
<svg version="1.1" id="Layer_1" xmlns="http://www.w3.org/2000/svg" xmlns:xlink="http://www.w3.org/1999/xlink" x="0px" y="0px"
	 viewBox="0 0 100 100" style="enable-background:new 0 0 100 100;" xml:space="preserve">
<path d="M90.1,47.8l-3.9-2.2v2.9c0,0,0,0,0,0H80v-2.1c0-1-0.8-1.9-1.9-1.9H36.5l16.7-26.8c1.7,4.8,5.4,9.9,7.3,12.8
	c2.6,3.8,4.4,8,5.3,12.4h5.9c-1-5.5-3.1-10.9-6.4-15.7c-0.1-0.2-0.2-0.3-0.6-0.9c-2-2.9-5.8-8.3-6.7-11.7c-0.8-2.7,2.2-4.4-0.6-6.4
	c-1.3-0.9-3.1-0.7-4.1,0.6c-0.9,1.2-1.2,2.7-1.2,4.3L33.2,43.9c0,0,0,0.1-0.1,0.1c-4.6-0.8-15.4-2.3-24.3-1.4
	c-0.6,0.1-1.2,0.4-1.5,1C5.5,47,5.5,53,7.4,56.3c0.3,0.6,0.8,0.9,1.5,1c8.9,0.9,19.6-0.6,24.2-1.4c0,0,0,0.1,0.1,0.1l19.2,30.3
	c-0.1,1.8,0.2,3.4,1.1,4.7c0.9,1.3,2.8,1.6,4.1,0.6c2.8-2-0.7-3.7,1.2-8c1.5-3.4,4.5-7.8,6.2-10.2c0.4-0.6,0.1-0.1,0.5-0.7
	c3.3-4.8,5.4-10.2,6.4-15.7h-5.9c-0.9,4.4-2.7,8.6-5.3,12.5c-1.9,2.8-5.4,7.7-7.2,12.5L36.5,55.5H72h6.1c1,0,1.9-0.8,1.9-1.9v-2.1
	h6.3c0,0,0,0,0,0v2.9l3.9-2.2L94,50L90.1,47.8z M14.8,53.5c0,0.4-0.4,0.8-0.8,0.8c-0.4,0-0.8-0.4-0.8-0.8v-7c0-0.4,0.4-0.8,0.8-0.8
	c0.4,0,0.8,0.4,0.8,0.8V53.5z M19,53.5c0,0.4-0.4,0.8-0.8,0.8s-0.8-0.4-0.8-0.8v-7c0-0.4,0.4-0.8,0.8-0.8s0.8,0.4,0.8,0.8V53.5z
	 M23.2,53.5c0,0.4-0.4,0.8-0.8,0.8c-0.4,0-0.8-0.4-0.8-0.8v-7c0-0.4,0.4-0.8,0.8-0.8c0.4,0,0.8,0.4,0.8,0.8V53.5z"/>
</svg>
