<?xml version="1.0" encoding="utf-8"?>
<!-- Generator: Adobe Illustrator 27.9.0, SVG Export Plug-In . SVG Version: 6.00 Build 0)  -->
<svg version="1.1" id="Layer_1" xmlns="http://www.w3.org/2000/svg" xmlns:xlink="http://www.w3.org/1999/xlink" x="0px" y="0px"
	 viewBox="0 0 100 100" style="enable-background:new 0 0 100 100;" xml:space="preserve">
<path d="M28.5,72l-2-2l-0.7,0.8l2,2C15.4,85,6.7,93,4.6,95.1c-0.6,0.7-0.1,1.5-0.1,1.5C5,97,6,98.1,7,99.1c0.4,0.4,0.9,0.5,1.2,0.2
	c2.2-2.2,23.2-23,23.2-23l2.4,2.4l0.7-0.8l-2.4-2.4C50.5,56.7,67,42.2,94,9.7C97.1,6,95,0.5,95,0.5C70.7,29.1,46,54.6,28.5,72z
	 M8.5,97.2L7,96.7l-0.4-1.5L8,95.6L8.5,97.2z M10,95.6l-1.5-0.5l-0.4-1.5l1.5,0.5L10,95.6z M11.6,94.1l-1.5-0.5l-0.4-1.5l1.5,0.5
	L11.6,94.1z M13.2,92.6l-1.5-0.5l-0.4-1.5l1.5,0.5L13.2,92.6z M14.8,91l-1.5-0.5L12.8,89l1.5,0.5L14.8,91z M16.3,89.5L14.8,89
	l-0.4-1.5l1.5,0.5L16.3,89.5z M17.9,88l-1.5-0.5L16,86l1.5,0.5L17.9,88z M19.5,86.4L18,86l-0.4-1.5l1.5,0.5L19.5,86.4z M21.1,84.9
	l-1.5-0.5l-0.4-1.5l1.5,0.5L21.1,84.9z M22.7,83.4l-1.5-0.5l-0.4-1.5l1.5,0.5L22.7,83.4z M24.2,81.8l-1.5-0.5l-0.4-1.5l1.5,0.5
	L24.2,81.8z M25.8,80.3l-1.5-0.5l-0.4-1.5l1.5,0.5L25.8,80.3z M27.4,78.8l-1.5-0.5l-0.4-1.5l1.5,0.5L27.4,78.8z M29,77.2l-1.5-0.5
	L27,75.2l1.5,0.5L29,77.2z"/>
</svg>
