<?xml version="1.0" encoding="utf-8"?>
<!-- Generator: Adobe Illustrator 27.9.0, SVG Export Plug-In . SVG Version: 6.00 Build 0)  -->
<svg version="1.1" id="Layer_1" xmlns="http://www.w3.org/2000/svg" xmlns:xlink="http://www.w3.org/1999/xlink" x="0px" y="0px"
	 viewBox="0 0 100 100" style="enable-background:new 0 0 100 100;" xml:space="preserve">
<g>
	<path d="M16.9,43.6l33.9-31.8c0.6,1.6,1.6,3.1,2.8,4.3c0,0,17.9,16.3,18.7,19.8c0.6,2.4,0.4,4.7-3.4,8.5c-0.7,0.7-1.5,1.4-2.4,2.2
		l6.4,0c2.5-2.6,3.9-6,3.9-9.6c0-9.1-22.1-21.1-20.8-25.7c1.3-4.2-2.1-6.3-4.4-4c-0.2,0.2-0.4,0.5-0.6,0.7c-0.5,0.7-0.7,1.6-0.6,2.5
		c-0.2,0-0.4,0.1-0.5,0.2l-0.7,0.7L16,42.5c0.1,0,0.2,0.1,0.3,0.2L16.9,43.6z"/>
	<path d="M72.3,64.1c-0.4,1.5-4.1,5.6-8.1,9.6c-5.1,5.1-10.6,10.1-10.6,10.1c-1.2,1.2-2.1,2.6-2.7,4.2L17.2,56.6l-0.8,1.2l32.9,30.7
		l0.8,0.8c0.1,0.1,0.2,0.1,0.4,0.2c-0.1,0.9,0.1,1.8,0.6,2.5c1.3,1.9,3.3,2.1,4.4,0.9c0.8-0.8,1.2-2.3,0.6-4.2
		c-0.4-1.2,0.9-2.9,2.9-4.9c3-3,7.8-6.8,11.7-10.7c3.4-3.4,6.1-7,6.2-10.1c0-3.2-1.2-6.3-3.2-8.8l-6.2-0.1
		C72.7,58.9,73,61.4,72.3,64.1z"/>
	<path d="M21.2,50.1c0,0.1,0,0.1,0,0.2c0,0.1,0,0.1,0,0.2c0,0,0,0.1,0,0.1l0,0l-1.4,2l60.4,0.1l1.6-2.4L80.2,48l-60.4,0l1.3,2
		C21.2,50,21.2,50.1,21.2,50.1z"/>
	<polygon points="83.5,50.4 78.6,57.7 98,50.4 78.6,43.1 	"/>
	<polygon points="19.3,49.7 15.4,43.8 2.5,43.8 6.4,49.7 9.3,49.7 	"/>
	<polygon points="15.4,56.9 19.3,51.1 6.4,51.1 2,56.9 	"/>
</g>
</svg>
