<?xml version="1.0" encoding="utf-8"?>
<!-- Generator: Adobe Illustrator 27.9.0, SVG Export Plug-In . SVG Version: 6.00 Build 0)  -->
<svg version="1.1" id="Layer_1" xmlns="http://www.w3.org/2000/svg" xmlns:xlink="http://www.w3.org/1999/xlink" x="0px" y="0px"
	 viewBox="0 0 100 100" style="enable-background:new 0 0 100 100;" xml:space="preserve">
<g>
	<path d="M70.8,68.8c2-1.2,3.2-3.2,3.2-5.4V56H61.2v7.4c0,1,0.2,2,0.8,3c-2.8,11.8-8.4,21.6-15.6,27.1L29,56h-4.4l18.2,39.5
		c-1.6,0.8-3.4,1.6-5.2,2c1.6,0.4,3.2,0.6,4.8,0.6C55.2,98.1,66.2,86.1,70.8,68.8z M65.6,63c0-1,0.8-2,2-2c1,0,2,1,2,2s-0.8,2-2,2
		C66.4,65,65.6,64,65.6,63z"/>
	<path d="M29.2,44L46.4,6.9c7.2,5.4,12.8,15,15.4,26.9c-0.4,0.8-0.8,1.8-0.8,3V44h13v-7.4c0-2.4-1.2-4.4-3-5.4
		C66.2,13.9,55.2,1.9,42.6,1.9c-1.6,0-3.2,0.2-4.8,0.6c1.8,0.4,3.6,1.2,5.4,2.2L24.7,44H29.2z M69.6,37.4c0,1-0.8,2-2,2
		c-1,0-2-0.8-2-2c0-1.2,0.8-2,2-2C68.6,35.4,69.6,36.2,69.6,37.4z"/>
	<path d="M11.5,60c0.2-0.2,8.2-8.2,8-8c27.5,0,36.9,0,64.7,0v9.2L98.5,50L84.1,38.8V48c-18.6,0-31.7,0-64.7,0c-0.2-0.2-8.2-8.2-8-8
		c0,0.2,3.8,8.2,3.6,8h-3.6c0-0.2-7.3-7.5-7.8-8c0,0.2,3.8,8.2,3.6,8H3.5c-1.2,0-2,1-2,2s0.8,2,2,2h3.6c0,0.2-4,8.6-3.6,8
		c0.2-0.2,7.5-7.5,8-8h3.6C15.1,52.2,11.1,60.6,11.5,60z"/>
	<path d="M3.5,40L3.5,40C3.5,39.9,3.5,39.9,3.5,40z"/>
</g>
</svg>
