<?xml version="1.0" encoding="utf-8"?>
<!-- Generator: Adobe Illustrator 27.9.0, SVG Export Plug-In . SVG Version: 6.00 Build 0)  -->
<svg version="1.1" id="Layer_1" xmlns="http://www.w3.org/2000/svg" xmlns:xlink="http://www.w3.org/1999/xlink" x="0px" y="0px"
	 viewBox="0 0 100 100" style="enable-background:new 0 0 100 100;" xml:space="preserve">
<path d="M91.1,5.1c-2.7,0.8-5.5,1.6-8.2,2.5c-1.7,0.5-3.5,1.1-5.2,1.6c-1.3,0.4-2.2,1.1-2.6,2.4c-0.2,0.8-0.5,1.6-0.7,2.4
	c-0.5,1.6-1,3.2-1.5,4.8c0,0-0.1,0-0.1,0c0-0.9,0-1.7,0-2.6c0-1-0.4-1.8-1.2-2.4c-1.1-0.9-2.4-1.1-3.7-0.4c-1.2,0.7-1.8,1.7-1.8,3.1
	c0,3.9,0,7.7,0,11.6c0,0.5-0.1,0.9-0.5,1.2c-1.7,1.6-3.3,3.2-5,4.8c-2.9,2.8-5.8,5.7-8.7,8.6c-3,2.9-6,5.9-9,8.8
	c-2.9,2.9-5.9,5.8-8.8,8.6c-3.2,3.1-6.4,6.3-9.6,9.4c-1.4,1.4-2.7,2.7-4.1,4.1c-2.5,2.5-5,4.9-7.5,7.4c-0.1,0.1-0.2,0.2-0.3,0.2
	c-1,0.3-2,0.7-3,0.9c-1.3,0.3-2.2,1.1-2.6,2.3c-0.7,1.9-1.2,3.8-1.8,5.7c-0.6,1.6-0.4,3.1,1.1,4.2c0.7,0.5,1.5,0.9,2.3,0.6
	c2.4-0.7,4.8-1.5,7.2-2.4c0.5-0.2,1.1-0.8,1.3-1.3c0.6-1.2,0.9-2.5,1.4-3.8c0.1-0.2,0.2-0.5,0.4-0.6c1.2-1.3,2.5-2.7,3.8-4
	c2.9-3,5.9-6,8.8-9c2.9-2.9,5.7-5.9,8.6-8.8c2.9-3,5.8-5.9,8.7-8.9c2.9-3,5.8-5.9,8.7-8.9c2.9-3,5.8-5.9,8.7-8.9
	c1.4-1.5,2.9-2.9,4.4-4.4c0.2-0.2,0.6-0.4,0.9-0.4c2.9,0,5.7,0,8.6,0c1.2,0,2.4,0,3.6-0.1c1.7-0.1,3-1.7,3-3.2
	c0-1.5-1.3-3.2-2.9-3.3c-0.7,0-1.3-0.1-2.1-0.1c0.2-0.1,0.3-0.1,0.4-0.1c2-0.7,3.9-1.4,5.9-2c1.3-0.4,2.1-1.2,2.5-2.5
	c0.7-1.9,1.3-3.8,2-5.7c0.8-2.5,1.7-4.9,2.5-7.4c0.1-0.2,0.1-0.5,0.1-0.7C95,6.2,93.2,4.5,91.1,5.1z M85.2,17.5
	c-0.3,1.1-0.8,1.6-1.9,1.9c-1.3,0.4-2.6,0.9-4.1,1.4c0.6-1.9,1.1-3.7,1.7-5.4c0-0.1,0.2-0.3,0.3-0.3c1.7-0.6,3.5-1.1,5.3-1.6
	C86,14.8,85.5,16.1,85.2,17.5z"/>
</svg>
