<?xml version="1.0" encoding="utf-8"?>
<!-- Generator: Adobe Illustrator 27.9.0, SVG Export Plug-In . SVG Version: 6.00 Build 0)  -->
<svg version="1.1" id="Layer_1" xmlns="http://www.w3.org/2000/svg" xmlns:xlink="http://www.w3.org/1999/xlink" x="0px" y="0px"
	 viewBox="0 0 100 100" style="enable-background:new 0 0 100 100;" xml:space="preserve">
<style type="text/css">
	.{fill-rule:evenodd;clip-rule:evenodd;}
</style>
<g>
	<g>
		<path class="" d="M38.5,83.1l0.6-0.6c0.8-0.8,2-0.8,2.8,0c0.8,0.8,0.8,2,0,2.8c-1.3,1.3-2.5,2.5-3.8,3.8L27.8,78.8l-17,15.3
			c0.1,1.3-0.5,2.8-1.5,3.9c-2,2-5.3,2-7.3,0c-2.1-2.1-2.1-5.4-0.1-7.4c1.1-1.1,2.6-1.7,4-1.4L21.1,72L10.7,61.6
			c1.3-1.3,2.5-2.5,3.8-3.8c0.8-0.8,2.1-0.7,2.8,0c0.8,0.8,0.8,2,0,2.8l-0.6,0.6l7.4,7.4L85.3,7.6l14.4-7.1l-7.3,14.2L31.2,75.8
			L38.5,83.1z M4.1,95.9c-0.9-0.9-0.8-2.2,0-3.1c0.8-0.8,2.1-0.9,3.1,0c0.8,0.8,0.7,2.1-0.1,3C6.2,96.6,4.9,96.7,4.1,95.9z"/>
	</g>
</g>
</svg>
