<?xml version="1.0" encoding="utf-8"?>
<!-- Generator: Adobe Illustrator 27.9.0, SVG Export Plug-In . SVG Version: 6.00 Build 0)  -->
<svg version="1.1" id="Layer_1" xmlns="http://www.w3.org/2000/svg" xmlns:xlink="http://www.w3.org/1999/xlink" x="0px" y="0px"
	 viewBox="0 0 100 100" style="enable-background:new 0 0 100 100;" xml:space="preserve">
<g>
	<path d="M25.9,48.9c0.2,0.5,0.3,1.1,0.2,1.6l55.5,0.3l-1.9,4.3l12-4.9l-12-4.9l1.8,3.9L25.9,48.9z"/>
	<path d="M62.8,44.7C62.8,44.7,62.8,44.7,62.8,44.7l0,2.8l6.7,0l0-2.9c0-0.5-0.4-0.9-0.9-0.9l-4.8,0C63.2,43.7,62.8,44.1,62.8,44.7z
		"/>
	<path d="M70.3,59.5l-0.8-1.5l-5.6,0c1,3.4,2.3,7,1.8,10.6c-0.6,4.2-2.5,8.2-5.3,11.3c-0.2,0.2-0.5,0.5-0.6,0.6
		c-1.1,0.9-2.3,1.7-3.6,2.3c-3.9,1.7-12.2,7.7-14.1,13.9c-0.1,0.5-0.2,0.9-0.3,1.4L12.9,53.1l2.8,0.1l0.2-6.7l-2.7,0L42.1,2
		c0.1,0.4,0.2,0.8,0.3,1.1c2.1,6.1,10.3,12.2,14,13.9c1.3,0.6,2.5,1.4,3.6,2.4c0.2,0.2,0.5,0.4,0.6,0.6c5.8,6.4,6.4,14.6,3.3,22.1
		l5.6,0c0.1,0,0.2,0,0.3,0l0.8-1.5c3.5-6.5,0.4-16.5-5.6-22.2c-0.1-0.1-0.3-0.2-0.4-0.4c-1.1-1-2.3-1.9-3.7-2.5
		c-2.6-1.3-7.9-4.1-12.4-7.5c-3-2.3-5.1-4.4-6.3-6.4l0.3-0.5c0.2-0.4,0.1-0.9-0.2-1.1c-0.4-0.2-0.9-0.1-1.1,0.2c0,0,0,0,0,0
		l-30,46.3c-1.3,2.1-1.3,4.7,0,6.8L41,99.6c0.2,0.4,0.7,0.5,1.1,0.2c0.4-0.2,0.5-0.7,0.2-1.1L41.8,98c1-2,3-4.1,6-6.3
		c4.6-3.4,10.2-6.1,12.9-7.5c1.3-0.7,2.5-1.5,3.7-2.4c0.1-0.1,0.3-0.2,0.4-0.3C70.7,75.9,73.8,66.1,70.3,59.5z M11.7,50
		c0-0.9,0.3-1.8,0.7-2.5l0.1-0.1l0.8,1.3c0.3,0.6,0.3,1.3-0.1,1.9l-1,1.4C11.9,51.4,11.7,50.7,11.7,50z"/>
	<polygon points="17.4,46.6 17.3,53.3 18.4,53.3 18.6,46.6 	"/>
	<path d="M22.3,53.5C22.4,53.5,22.4,53.4,22.3,53.5l2-2.8c0.3-0.4,0.3-1-0.1-1.4l-2.2-2.6c0,0-0.1,0-0.1,0l-1.9,0L20,53.4L22.3,53.5
		z"/>
	<path d="M69.5,52.3l-6.7,0l0,3c0,0.5,0.4,0.9,0.9,0.9l4.8,0c0.5,0,1-0.4,1-0.9c0,0,0,0,0,0L69.5,52.3z"/>
</g>
</svg>
