<?xml version="1.0" encoding="utf-8"?>
<!-- Generator: Adobe Illustrator 27.9.0, SVG Export Plug-In . SVG Version: 6.00 Build 0)  -->
<svg version="1.1" id="Layer_1" xmlns="http://www.w3.org/2000/svg" xmlns:xlink="http://www.w3.org/1999/xlink" x="0px" y="0px"
	 viewBox="0 0 100 100" style="enable-background:new 0 0 100 100;" xml:space="preserve">
<g>
	<polygon points="37.8,55.2 41.9,59.3 43.6,53.8 40.3,52.7 	"/>
	<polygon points="35.1,57.8 15.4,77.5 22.5,84.6 42.2,64.9 40.6,63.3 	"/>
	<path d="M14.4,88.3l-7.3,9C8,97.5,9,97.6,9.8,97.3l6.8-6.8L14.4,88.3z"/>
	<path d="M9.5,83.4l-6.8,6.8c-0.7,2.1,0.7,4.7,2.7,6.1l8.5-8.5L9.5,83.4z"/>
	<polygon points="44.8,62.3 50.9,56.2 47.1,55 	"/>
	<polygon points="48.5,44.4 58.7,47.8 51.9,41 	"/>
	<path d="M87.3,15.5l3.9-3.9c-0.5-0.4-1-0.8-1.5-1.3C88.6,9,87.6,7.6,86.9,6l-6.4,6.4l7.1,7.1l6.4-6.5c-0.4-0.2-0.8-0.3-1.2-0.5
		L87.3,15.5z"/>
	<path d="M95.5,4.5c-0.4-0.4-0.8-0.7-1.3-1L93,5.7L93.6,3c-1.1-0.5-2.3-0.7-3.4-0.4L90,2.8c0.1,1.6,1,3.4,2.4,4.7
		c1.4,1.3,3.1,2.2,4.7,2.4l0.2-0.2C97.9,8,97,5.9,95.5,4.5z"/>
	<polygon points="43.3,49.7 53.9,53.2 56.2,50.9 45.6,47.4 	"/>
	<polygon points="74.5,18.4 54.6,38.3 56,39.7 64.4,31.3 57.8,41.6 61.7,45.5 81.6,25.5 	"/>
</g>
</svg>
