<?xml version="1.0" encoding="utf-8"?>
<!-- Generator: Adobe Illustrator 27.9.0, SVG Export Plug-In . SVG Version: 6.00 Build 0)  -->
<svg version="1.1" id="Layer_1" xmlns="http://www.w3.org/2000/svg" xmlns:xlink="http://www.w3.org/1999/xlink" x="0px" y="0px"
	 viewBox="0 0 100 100" style="enable-background:new 0 0 100 100;" xml:space="preserve">
<g>
	<path d="M97.5,50.9L84.8,40.3l4,8.5H26.6l-8.6-5h-3.6l1.3,3.3l-3.4-3.3H2.5l12.2,7L2.5,58h9.8l6.3-4.6L14,58h0.5l4.3-3.3L16.4,58
		h0.7l10-5.8h62.2l-5.2,9.4L97.5,50.9z M77.9,47C77,32.6,69.3,18.2,54.1,3.8l-3.1,1.3c12.7,12.3,20,24.7,21.9,37.3l-5.6,2.4V47H77.9
		z M77.7,54H67.4v2.8l5.1,1.9c-2.6,12-10,24.1-22.2,36.3l3.8,1.2C68.3,82.1,76.2,68.1,77.7,54z M70.1,40.9c-0.3-1.7-0.7-3.4-1.5-5.4
		L3.8,40.3V42h8.5c0.4,0,0.7,0.1,1.1,0.3c0.3-0.2,0.7-0.3,1.1-0.3H18c0.3,0,0.6,0.1,0.9,0.2l8.2,4.7h37.6v-4.2L70.1,40.9z
		 M69.7,60.3l-5-1.7V54H27.6L18,59.6c-0.3,0.2-0.6,0.2-0.9,0.2h-0.7c-0.3,0-0.7-0.1-0.9-0.3c-0.3,0.2-0.6,0.3-1,0.3H14
		c-0.3,0-0.6-0.1-0.9-0.2c-0.3,0.1-0.6,0.2-0.9,0.2H3.8v0.3l64.3,5.2C69,63.5,69.6,61.8,69.7,60.3z M52.5,8.8l-0.8-0.8l-29,29
		l0.8,0.8L52.5,8.8z M51.4,91.9L23.1,62.5l-0.8,0.7l28.4,29.4L51.4,91.9z M23.9,67.4h-7.7l0.1-5l-4.1-0.3v8.3h8.1v6.7h3.5V67.4z
		 M11,50.9l-7.2-4.1v8.3L11,50.9z"/>
</g>
</svg>
