<?xml version="1.0" encoding="utf-8"?>
<!-- Generator: Adobe Illustrator 27.9.0, SVG Export Plug-In . SVG Version: 6.00 Build 0)  -->
<svg version="1.1" id="Layer_1" xmlns="http://www.w3.org/2000/svg" xmlns:xlink="http://www.w3.org/1999/xlink" x="0px" y="0px"
	 viewBox="0 0 100 100" style="enable-background:new 0 0 100 100;" xml:space="preserve">
<g>
	<path d="M78.4,7.5h-32v22.9l17.9,1.8c1.8,0.2,3.2,1.6,3.4,3.4l1.8,17.9h22.9v-32C92.5,13.8,86.2,7.5,78.4,7.5z M81,29.8
		c0,1.2-1,2.2-2.2,2.2c-1.2,0-2.2-1-2.2-2.2v-2.9c0-2-1.6-3.6-3.6-3.6h-2.9c-1.2,0-2.2-1-2.2-2.2c0-1.2,1-2.2,2.2-2.2h2.9
		c4.4,0,7.9,3.6,7.9,7.9V29.8z"/>
	<path d="M72.5,83.5c0.5,5.1,4.8,9,9.9,9h0c5.5,0,10-4.5,10-10V72.3H71.4L72.5,83.5z"/>
	<polygon points="71,68 92.5,68 92.5,57.9 70,57.9 	"/>
	<polygon points="42.1,7.5 32,7.5 32,29 42.1,30 	"/>
	<path d="M27.7,7.5H17.5c-5.5,0-10,4.5-10,10c0,5.2,3.9,9.4,9,9.9l11.2,1.1V7.5z"/>
	<path d="M54.7,42.2L38.4,58.5c-0.8,0.8-0.8,2.2,0,3.1c0.8,0.8,2.2,0.8,3.1,0c0,0,16.3-16.3,16.3-16.3c0.8-0.8,0.8-2.2,0-3.1
		C57,41.4,55.6,41.4,54.7,42.2z"/>
	<path d="M41.5,42.2c-0.8-0.8-2.2-0.8-3.1,0L24.2,56.5c-0.8,0.8-0.8,2.2,0,3.1c0.8,0.8,2.2,0.8,3.1,0c0,0,14.3-14.3,14.3-14.3
		C42.3,44.4,42.3,43,41.5,42.2z"/>
	<path d="M54.7,58.5L40.5,72.8c-0.8,0.8-0.8,2.2,0,3.1c0.8,0.8,2.2,0.8,3.1,0c0,0,14.3-14.3,14.3-14.3c0.8-0.8,0.8-2.2,0-3.1
		C57,57.7,55.6,57.7,54.7,58.5z"/>
</g>
</svg>
