<?xml version="1.0" encoding="utf-8"?>
<!-- Generator: Adobe Illustrator 27.9.0, SVG Export Plug-In . SVG Version: 6.00 Build 0)  -->
<svg version="1.1" id="Layer_1" xmlns="http://www.w3.org/2000/svg" xmlns:xlink="http://www.w3.org/1999/xlink" x="0px" y="0px"
	 viewBox="0 0 100 100" style="enable-background:new 0 0 100 100;" xml:space="preserve">
<g>
	<polygon points="13.6,79.9 14.6,81 11.4,84.3 15.7,88.6 19,85.4 16.8,83.2 20.1,86.4 23.3,83.2 17.9,77.7 16.8,76.7 	"/>
	<polygon points="7,86.4 8.1,87.5 4.9,90.8 7,93 4.9,90.8 2.1,91.3 0.5,93 7,99.5 8.7,97.9 9.2,95.1 9.2,95.1 12.5,91.9 13.6,93 
		16.8,89.7 10.3,83.2 	"/>
	<rect x="19.4" y="75.2" transform="matrix(0.7071 -0.7071 0.7071 0.7071 -48.9964 38.2836)" width="4.6" height="6.2"/>
	<polygon points="89.3,4.2 87.5,5.9 28.8,64.7 17.9,53.8 16.5,55.2 21.3,61.2 20.6,61.9 19.9,62.6 13.8,57.9 12.5,59.2 23.3,70.1 
		20.1,73.4 26.6,79.9 29.9,76.7 40.8,87.5 42.1,86.2 37.4,80.1 38.1,79.4 38.8,78.7 44.8,83.5 46.2,82.1 35.3,71.2 35.3,71.2 
		33.4,69.3 35.3,71.2 94.1,12.5 91.3,9.7 32.6,68.5 31.5,67.4 90.3,8.7 94.1,12.5 95.8,10.7 99.5,0.5 	"/>
</g>
</svg>
