<?xml version="1.0" encoding="utf-8"?>
<!-- Generator: Adobe Illustrator 27.9.0, SVG Export Plug-In . SVG Version: 6.00 Build 0)  -->
<svg version="1.1" id="Layer_1" xmlns="http://www.w3.org/2000/svg" xmlns:xlink="http://www.w3.org/1999/xlink" x="0px" y="0px"
	 viewBox="0 0 100 100" style="enable-background:new 0 0 100 100;" xml:space="preserve">
<g>
	<path d="M46.2,64.2l6-1.7l3.6-3.6l-6.8,1.9c-0.4,0.1-0.9,0-1.2-0.3c-0.1-0.1-0.2-0.3-0.3-0.5c-0.2-0.6,0.2-1.3,0.8-1.5l10.9-3.1
		l3.4-3.4L56,53.9c-0.4,0.1-0.9,0-1.2-0.3c-0.1-0.1-0.2-0.3-0.3-0.5c-0.2-0.6,0.2-1.3,0.8-1.5l10.9-3.1l3.9-3.9l-6.8,1.9
		c-0.4,0.1-0.9,0-1.2-0.3c-0.1-0.1-0.2-0.3-0.3-0.5c-0.2-0.6,0.2-1.3,0.8-1.5l10.9-3.1l3.4-3.4l-6.8,1.9c-0.4,0.1-0.9,0-1.2-0.3
		c-0.1-0.1-0.2-0.3-0.3-0.5c-0.2-0.6,0.2-1.3,0.8-1.5l10.9-3.1l0.7-0.7L87,13l-20.5,5.8L37.5,47.7l-1.7,6L46.2,64.2z"/>
	<polygon points="17.2,70.2 13,70.8 29.2,87 29.8,82.8 	"/>
	<path d="M33.6,66.8c-0.1-0.1-0.2-0.1-0.3-0.2c-0.1-0.1-0.2-0.2-0.2-0.3l-1.8-3.4l-9,9l5.8,5.8l9-9L33.6,66.8z"/>
	<path d="M53.8,71.4c-1-1-2.4-1.3-3.7-0.9c-0.4,0.1-0.9,0-1.2-0.3L29.8,51.1c-0.3-0.3-0.4-0.8-0.3-1.2c0.4-1.3,0.1-2.7-0.9-3.7
		c-1.4-1.4-3.8-1.4-5.2,0c-1.4,1.4-1.4,3.8,0,5.2c1,1,2.5,1.3,3.8,0.9c0.4-0.2,0.9,0,1.2,0.3c0.1,0.1,0.2,0.2,0.2,0.3l6.5,12l12,6.5
		c0.5,0.3,0.8,0.9,0.6,1.4c-0.5,1.4-0.1,2.8,0.9,3.8c1.4,1.4,3.8,1.4,5.2,0C55.2,75.2,55.2,72.8,53.8,71.4z"/>
</g>
</svg>
