<?xml version="1.0" encoding="utf-8"?>
<!-- Generator: Adobe Illustrator 27.9.0, SVG Export Plug-In . SVG Version: 6.00 Build 0)  -->
<svg version="1.1" id="Layer_1" xmlns="http://www.w3.org/2000/svg" xmlns:xlink="http://www.w3.org/1999/xlink" x="0px" y="0px"
	 viewBox="0 0 100 100" style="enable-background:new 0 0 100 100;" xml:space="preserve">
<g transform="translate(0,0)">
	<path d="M50,9C27.3,9,9,27.3,9,50s18.3,41,41,41s41-18.3,41-41S72.7,9,50,9z M55.4,13.3c5.5,1.4,7.9,2.8,10.8,5.9
		c-2.5,1.8-5.7,2.3-9.1,2.5c4.8,1.2,9.2,3.6,12.7,6.9c1.4,0.6,2.8,0.9,3.7,0.5c-2.8-1.7-3.8-5.6-3.1-8c3.6,4,5.2,6.6,9.4,6.8
		c2.9,4.9,3.6,7.5,3.5,11.8c-3-0.5-5.7-2.4-8.2-4.7c2.5,4.1,4,8.8,4.2,13.9c0.6,1.4,1.3,2.5,2.2,2.9c-0.7-3.2,1.3-6.7,3.5-7.8
		c-0.3,5.3-1,8.4,1.8,11.5c-1.4,5.5-2.8,7.9-5.8,10.8c-1.7-2.5-2.3-5.6-2.5-9c-1.2,4.8-3.6,9.2-6.9,12.7c-0.6,1.4-0.8,2.7-0.4,3.6
		c1.7-2.8,5.6-3.8,8-3.1c-4,3.5-6.6,5.2-6.8,9.4c-4.9,2.9-7.5,3.6-11.8,3.5c0.5-3,2.4-5.6,4.6-8.2c-4.1,2.5-8.8,3.9-13.9,4.1
		c-1.4,0.6-2.5,1.3-2.8,2.2c3.2-0.7,6.7,1.3,7.8,3.5c-5.3-0.3-8.4-1-11.5,1.8c-5.5-1.4-7.9-2.8-10.8-5.8c2.4-1.7,5.6-2.3,9-2.5
		c-4.8-1.2-9.2-3.6-12.7-6.9c-1.4-0.6-2.7-0.8-3.6-0.5c2.8,1.7,3.8,5.6,3.1,8c-3.6-4-5.2-6.6-9.4-6.8c-2.9-4.9-3.6-7.5-3.5-11.8
		c3,0.5,5.6,2.3,8.2,4.6c-2.5-4.1-3.9-8.8-4.1-13.9c-0.6-1.4-1.3-2.5-2.2-2.9c0.7,3.2-1.3,6.7-3.5,7.8c0.3-5.3,1-8.4-1.8-11.5
		c1.4-5.5,2.8-7.9,5.8-10.8c1.8,2.4,2.3,5.6,2.5,9c1.2-4.7,3.6-9.1,6.9-12.7c0.6-1.4,0.9-2.7,0.5-3.7c-1.7,2.8-5.6,3.8-8,3.1
		c4-3.6,6.6-5.2,6.8-9.4c4.6-2.8,7.2-3.5,11-3.5c0.3,0,0.5,0,0.8,0c-0.5,3-2.4,5.6-4.7,8.2c4.1-2.5,8.8-4,13.9-4.2
		c1.4-0.6,2.5-1.3,2.9-2.2c-3.2,0.7-6.7-1.3-7.8-3.5C49.3,15.4,52.3,16.1,55.4,13.3L55.4,13.3z M57.6,15.7c-1,0-1.7,0.8-1.7,1.7
		c0,1,0.8,1.7,1.7,1.7s1.7-0.8,1.7-1.7C59.4,16.5,58.6,15.7,57.6,15.7z M32.4,19.8c-0.4,0-0.9,0.2-1.2,0.5c-0.7,0.7-0.7,1.8,0,2.4
		c0.7,0.7,1.8,0.7,2.5,0c0.7-0.7,0.7-1.8,0-2.4C33.2,20,32.8,19.8,32.4,19.8L32.4,19.8z M78.4,30.6c-0.4,0-0.9,0.2-1.2,0.5
		c-0.7,0.7-0.7,1.8,0,2.4c0.7,0.7,1.8,0.7,2.5,0s0.7-1.8,0-2.4C79.3,30.8,78.9,30.6,78.4,30.6z M17.4,40.6c-1,0-1.7,0.8-1.7,1.7
		s0.8,1.7,1.7,1.7s1.7-0.8,1.7-1.7S18.4,40.6,17.4,40.6z M82.6,55.9c-1,0-1.7,0.8-1.7,1.7c0,1,0.8,1.7,1.7,1.7s1.7-0.8,1.7-1.7
		C84.3,56.7,83.5,55.9,82.6,55.9z M21.6,65.9c-0.4,0-0.9,0.2-1.2,0.5c-0.7,0.7-0.7,1.8,0,2.5c0.7,0.7,1.8,0.7,2.4,0
		c0.7-0.7,0.7-1.8,0-2.5C22.5,66.1,22,65.9,21.6,65.9z M67.6,76.7c-0.4,0-0.9,0.2-1.2,0.5c-0.7,0.7-0.7,1.8,0,2.5
		c0.7,0.7,1.8,0.7,2.4,0s0.7-1.8,0-2.5C68.5,76.8,68.1,76.7,67.6,76.7z M42.4,80.8c-1,0-1.7,0.8-1.7,1.7s0.8,1.7,1.7,1.7
		c1,0,1.7-0.8,1.7-1.7S43.3,80.8,42.4,80.8z"/>
</g>
</svg>
