<?xml version="1.0" encoding="utf-8"?>
<!-- Generator: Adobe Illustrator 27.9.0, SVG Export Plug-In . SVG Version: 6.00 Build 0)  -->
<svg version="1.1" id="Layer_1" xmlns="http://www.w3.org/2000/svg" xmlns:xlink="http://www.w3.org/1999/xlink" x="0px" y="0px"
	 viewBox="0 0 100 100" style="enable-background:new 0 0 100 100;" xml:space="preserve">
<g>
	<path d="M99.2,72.9L91.7,66c0.9-3.3,0.9-6.7,0-10l4.3-3.2c0.3-0.2,0.4-0.6,0.3-0.9c-0.1-0.3-0.4-0.5-0.7-0.5l-5.8,0
		c-1.6-2.7-3.9-5-6.6-6.7c0.3-0.3,0.5-0.7,0.7-1.1c0.6-1.3,0.7-2.7,0.2-3.9c-0.4-1-1.1-1.7-1.9-2.1c0,0,0,0,0,0
		c0.1-1.1,0-2.2-0.2-3.4l0.4-0.1c0.7-0.2,1.3-0.6,1.7-1.3c0.4-0.6,0.5-1.4,0.3-2.1l-1.2-4.9c-0.4-1.5-1.9-2.4-3.4-2l-0.1,0
		c-0.2-0.9-0.5-1.8-0.9-2.7L79,21c0.6-0.4,1.1-1,1.3-1.7c0.2-0.7,0.1-1.5-0.3-2.1l-2.6-4.4c-0.8-1.3-2.5-1.8-3.8-1l-0.2,0.1
		c-0.6-0.9-1.2-1.7-2-2.4l0.4-0.8c0.4-0.7,0.5-1.4,0.3-2.1c-0.2-0.7-0.7-1.3-1.3-1.7l-4.5-2.5c-1.4-0.7-3.1-0.3-3.8,1.1l-0.2,0.4
		c-1.3-0.4-2.5-0.7-3.8-0.6l-0.2-0.6c-0.4-1.5-1.9-2.4-3.4-2l-5,1.2c-0.7,0.2-1.3,0.6-1.7,1.3c-0.4,0.6-0.5,1.4-0.3,2.1l0.1,0.6
		c-1.5,0.7-2.8,1.5-3.8,2.5c-2.8-1.2-6.2,0.3-7.6,3.4c-0.6,1.4-0.8,3-0.4,4.4c-0.5,0.4-1,1-1.3,1.7l-34,75.1
		c-0.5,1.1-0.6,2.4-0.1,3.5c0.4,1.2,1.3,2.1,2.5,2.6c0.6,0.3,1.3,0.4,1.9,0.4c1.8,0,3.5-1,4.3-2.7L17,80l21.2-46.9l-0.7-0.3v0h0
		l0.7,0.3l5.2-11.4c0.3-0.6,0.4-1.2,0.4-1.9c0-0.1,0-0.1,0-0.2c1.3-0.7,2.4-1.8,3.1-3.2c1.2-2.6,0.6-5.6-1.3-7.2
		c0.8-0.7,1.7-1.3,2.8-1.8l0,0.1c0.3,1.3,1.5,2.1,2.7,2.1c0.2,0,0.5,0,0.7-0.1l5-1.2c0.7-0.2,1.3-0.6,1.7-1.3
		c0.4-0.6,0.5-1.4,0.3-2.1l0,0c0.9,0,1.7,0.2,2.6,0.5l-0.1,0.2c-0.4,0.7-0.5,1.4-0.3,2.1c0.2,0.7,0.7,1.3,1.3,1.7l4.5,2.5
		c0.4,0.2,0.9,0.4,1.4,0.4c0.9,0,1.8-0.4,2.3-1.2c0.5,0.5,1,1.1,1.4,1.8l-0.5,0.3c-0.6,0.4-1.1,1-1.3,1.7c-0.2,0.7-0.1,1.5,0.3,2.1
		l2.6,4.4c0.5,0.9,1.5,1.4,2.4,1.4c0.5,0,1-0.1,1.4-0.4l0.3-0.2c0.3,0.7,0.5,1.5,0.7,2.2l-0.6,0.1c-0.7,0.2-1.3,0.6-1.7,1.3
		c-0.4,0.6-0.5,1.4-0.3,2.1l1.2,4.9c0.3,1.3,1.5,2.1,2.7,2.1c0.2,0,0.5,0,0.7-0.1l0.3-0.1c0.2,1,0.2,1.9,0.2,2.7
		c-1.7,0-3.3,1.2-4.1,3c-0.3,0.6-0.4,1.2-0.5,1.8c-1.7-0.3-3.4-0.3-5.2-0.1l-4.6-5.3c-0.2-0.3-0.6-0.3-0.9-0.2
		c-0.3,0.1-0.5,0.4-0.5,0.8l0.5,6.2c-1.6,0.7-3.2,1.6-4.5,2.8l-9.9-2c-0.3-0.1-0.7,0.1-0.8,0.4c-0.2,0.3-0.1,0.7,0.1,0.9l5.9,6.5
		c-0.2,0.3-0.4,0.7-0.5,1.1c-0.9,2.1-1.5,4.2-1.6,6.4l-5.3,2.2c-0.3,0.1-0.5,0.4-0.5,0.8s0.3,0.6,0.6,0.7l5.5,1.3
		c0.9,4.5,3.3,8.5,6.9,11.3l-3.5,8.4c-0.1,0.3,0,0.7,0.2,0.9c0.1,0.1,0.3,0.2,0.5,0.2c0.1,0,0.3,0,0.4-0.1l9.7-5.7
		c1.5,0.4,3.1,0.6,4.7,0.6c2.5,0,5.1-0.5,7.5-1.5l2.8,2.9c0.2,0.2,0.4,0.2,0.6,0.2c0.1,0,0.2,0,0.3-0.1c0.3-0.1,0.5-0.5,0.4-0.8
		l-0.6-4.2c1.5-1,2.8-2.2,3.9-3.6l10.6,1.1c0,0,0.1,0,0.1,0c0.3,0,0.6-0.2,0.7-0.5C99.6,73.5,99.5,73.1,99.2,72.9z M41.1,15.5
		L41.1,15.5c-0.1-0.1-0.2-0.2-0.3-0.3c-0.2-0.4-0.1-1,0.1-1.5c0.3-0.7,0.9-1.1,1.3-1.1c0.1,0,0.1,0,0.2,0c0,0,0,0,0,0
		c0.1,0.1,0.2,0.2,0.3,0.3c0.2,0.4,0.1,1-0.1,1.5C42.2,15.3,41.5,15.7,41.1,15.5z M38,12.4c1-2.2,3.2-3.3,5.1-2.8
		c-0.3,0.4-0.6,0.9-0.9,1.4c-1.1,0-2.2,0.8-2.8,2.1c-0.3,0.7-0.4,1.4-0.3,2.1c-0.5,0-1.1,0.1-1.6,0.3C37.5,14.4,37.6,13.4,38,12.4z
		 M11.9,80.1c-0.9-0.4-2-0.6-3.1-0.7l1-2.2c1.2-0.1,2.2,0.1,3.2,0.5c0.9,0.4,1.8,1.1,2.5,2l-1,2.2C13.7,81.1,12.8,80.5,11.9,80.1z
		 M42,21l-4.7,10.3c-0.8-0.8-1.6-1.4-2.6-1.9c-0.9-0.4-2-0.6-3.1-0.7l4.7-10.3c0.3-0.6,0.7-1,1.2-1.3c0.9-0.5,2-0.6,2.9-0.2
		c0,0,0,0,0,0c0,0,0,0,0,0c0.9,0.4,1.6,1.3,1.8,2.3c0,0.2,0,0.3,0,0.5C42.3,20.2,42.2,20.6,42,21z M45.5,15.7c-0.4,1-1.1,1.8-2,2.3
		c-0.2-0.5-0.5-0.9-0.8-1.3c0.5-0.4,1-0.9,1.3-1.6c0.4-0.9,0.5-1.9,0.2-2.7c-0.1-0.3-0.3-0.5-0.4-0.7c0.2-0.5,0.5-0.9,0.8-1.3
		C46,11.5,46.4,13.8,45.5,15.7z M57.2,6.1c-0.2,0.3-0.4,0.5-0.8,0.6l-5,1.2C50.8,8.1,50.2,7.7,50,7l-0.1-0.3
		c0.4-0.1,0.8-0.2,1.2-0.4c0.4-0.1,0.7-0.5,0.6-1c-0.1-0.4-0.5-0.7-1-0.6c-0.4,0.1-0.8,0.2-1.2,0.4l-0.1-0.4c-0.1-0.3,0-0.6,0.1-0.9
		c0.2-0.3,0.4-0.5,0.8-0.6l5-1.2C56,1.9,56.6,2.3,56.8,3l0.1,0.4c-0.5,0.1-1,0.2-1.5,0.3c-0.4,0.1-0.7,0.6-0.5,1
		c0.1,0.4,0.6,0.7,1,0.5c0.5-0.1,1-0.3,1.5-0.3l0.1,0.3C57.4,5.5,57.4,5.9,57.2,6.1z M67.7,10.4l-4.5-2.5c-0.3-0.2-0.5-0.4-0.6-0.7
		c-0.1-0.3-0.1-0.6,0.1-0.9L63,5.9c0.4,0.2,0.7,0.4,1.1,0.6c0.1,0.1,0.3,0.1,0.4,0.1c0.3,0,0.5-0.1,0.7-0.4c0.2-0.4,0.1-0.9-0.3-1.1
		c-0.4-0.2-0.8-0.4-1.1-0.6l0.1-0.2c0.2-0.4,0.7-0.6,1.1-0.6c0.2,0,0.4,0.1,0.6,0.2L70,6.3c0.3,0.2,0.5,0.4,0.6,0.7
		c0.1,0.3,0,0.6-0.1,0.9l-0.3,0.5c-0.4-0.3-0.7-0.5-1.1-0.8c-0.4-0.2-0.9-0.1-1.1,0.3c-0.2,0.4-0.1,0.9,0.3,1.1
		c0.4,0.2,0.8,0.5,1.2,0.8l-0.1,0.1C69,10.5,68.3,10.7,67.7,10.4z M74.5,20.3l-2.6-4.4c-0.2-0.3-0.2-0.6-0.1-0.9
		c0.1-0.3,0.3-0.6,0.6-0.8l0.5-0.3c0.2,0.3,0.4,0.7,0.6,1.1c0.1,0.3,0.4,0.4,0.7,0.4c0.1,0,0.2,0,0.3-0.1c0.4-0.2,0.6-0.7,0.4-1
		c-0.2-0.4-0.4-0.8-0.6-1.2l0.1-0.1c0.6-0.3,1.4-0.1,1.7,0.4l2.6,4.4c0.2,0.3,0.2,0.6,0.1,0.9c-0.1,0.3-0.3,0.6-0.6,0.8l-0.1,0.1
		c-0.1-0.2-0.2-0.3-0.2-0.5c-0.2-0.4-0.7-0.6-1-0.4c-0.4,0.2-0.6,0.7-0.4,1c0.1,0.2,0.2,0.4,0.3,0.6l-0.5,0.3
		C75.6,21.1,74.9,20.9,74.5,20.3z M78.2,32.3l-1.2-4.9c-0.1-0.3,0-0.6,0.1-0.9c0.2-0.3,0.4-0.5,0.8-0.6l0.5-0.1
		c0.1,0.3,0.1,0.7,0.2,1c0.1,0.4,0.4,0.7,0.8,0.7c0,0,0.1,0,0.1,0c0.4-0.1,0.7-0.5,0.7-0.9c-0.1-0.4-0.1-0.8-0.2-1.1l0.2,0
		c0.7-0.2,1.3,0.2,1.5,0.9l1.2,4.9c0.1,0.3,0,0.6-0.1,0.9c-0.2,0.3-0.4,0.5-0.8,0.6l-0.3,0.1c-0.1-0.4-0.2-0.7-0.3-1.1
		c-0.1-0.4-0.6-0.6-1-0.5c-0.4,0.1-0.6,0.6-0.5,1c0.1,0.3,0.2,0.7,0.3,1l-0.4,0.1C79,33.3,78.3,32.9,78.2,32.3z M69.9,61
		c-0.2-0.6-0.2-1.3,0.1-1.9c0.4-0.9,1.4-1.5,2.3-1.5c0.4,0,0.7,0.1,1.1,0.2c0.6,0.3,1.1,0.8,1.3,1.4c0.2,0.6,0.2,1.3-0.1,1.9
		c-0.6,1.3-2.1,1.9-3.4,1.3C70.6,62.2,70.1,61.7,69.9,61z M61,47.2L61,47.2L61,47.2L61,47.2L61,47.2z M86.7,57.7
		c-0.4,0.3-0.9,0.3-1.2,0.1c-0.7-0.4-1.2-1-1.4-1.8c-0.3-0.9-0.2-1.7,0.1-2.4c0.2-0.4,0.6-0.6,1-0.6c0,0,0,0,0,0l4.1,0l3.9,0
		L86.7,57.7z M77.9,41c0.5-1.1,1.5-1.9,2.5-2.1c-0.1,0.7-0.3,1.4-0.6,2c-0.2,0.4,0,0.9,0.4,1c0.1,0,0.2,0.1,0.3,0.1
		c0.3,0,0.6-0.2,0.7-0.5c0.3-0.7,0.6-1.5,0.7-2.2c0.4,0.3,0.6,0.7,0.7,1c0.3,0.8,0.2,1.8-0.2,2.7c-0.2,0.4-0.4,0.7-0.7,1
		c-0.2-0.1-0.5-0.2-0.8-0.4c-1.1-0.5-2.3-0.9-3.4-1.2C77.6,42,77.7,41.4,77.9,41z M71.9,45.6c0.3,0.3,0.4,0.8,0.2,1.2
		c-0.3,0.7-0.9,1.2-1.7,1.6c-0.8,0.4-1.6,0.4-2.4,0.1c-0.4-0.1-0.7-0.5-0.7-0.9L66.9,44c0,0,0,0,0,0l-0.3-4.4L71.9,45.6z M59.4,47.7
		c-0.9,0.9-1.8,2-2.5,3.1l-4-4.4L59.4,47.7z M58.7,59.3c0.4-0.2,0.9-0.1,1.2,0.2c0.6,0.5,0.9,1.2,1,2.1c0.1,0.9-0.1,1.7-0.6,2.3
		c-0.3,0.3-0.7,0.5-1.1,0.4l-4.1-1l0,0l-3.7-0.9L58.7,59.3z M62.4,77c0.9,0.6,1.8,1.1,2.8,1.6c0.4,0.2,0.8,0.3,1.2,0.5l-6.4,3.8
		L62.4,77z M77.2,73.2c-0.3-0.3-0.4-0.8-0.2-1.2c0.3-0.7,0.8-1.3,1.6-1.7c0.5-0.2,1-0.4,1.5-0.4c0.3,0,0.6,0,0.9,0.1
		c0.4,0.1,0.7,0.5,0.7,0.9l0.7,5.5c0,0,0,0,0,0l0.3,2.4L77.2,73.2z M89.1,71.7c0.6-0.9,1.1-1.8,1.5-2.8c0.2-0.4,0.4-0.8,0.5-1.3
		l5.2,4.8L89.1,71.7z"/>
</g>
</svg>
