<?xml version="1.0" encoding="utf-8"?>
<!-- Generator: Adobe Illustrator 27.9.0, SVG Export Plug-In . SVG Version: 6.00 Build 0)  -->
<svg version="1.1" id="Layer_1" xmlns="http://www.w3.org/2000/svg" xmlns:xlink="http://www.w3.org/1999/xlink" x="0px" y="0px"
	 viewBox="0 0 100 100" style="enable-background:new 0 0 100 100;" xml:space="preserve">
<g>
	<path d="M68.9,68c1.9-1.1,4.1-3.1,4.1-5.2v-7.1H60.7v7.1c0,1,2.2,3.9,2.8,4.9c-2.7,11.3-10,18.7-16.9,23.9L29.9,55.7h-4.2
		l17.4,37.7c-1.5,0.8-5.3,1.5-7,1.9c1.5,0.4,5.1,0.6,6.6,0.6C49.6,96,64.5,84.5,68.9,68z M64.9,62.4c0-1,0.8-1.9,1.9-1.9
		c1,0,1.9,1,1.9,1.9s-0.8,1.9-1.9,1.9C65.7,64.4,64.9,63.4,64.9,62.4z"/>
	<path d="M30.1,44.3L46.6,8.8c6.9,5.2,14.3,12.4,16.7,23.7c-0.4,0.8-2.8,3.7-2.8,4.9v6.9H73v-7.1c0-2.3-2.1-4.2-3.9-5.2
		C64.5,15.5,49.6,4,42.9,4c-1.5,0-5.1,0.2-6.6,0.6C38,5,41.8,5.8,43.5,6.7L25.9,44.3H30.1z M68.8,37.9c0,1-0.8,1.9-1.9,1.9
		c-1,0-1.9-0.8-1.9-1.9c0-1.1,0.8-1.9,1.9-1.9C67.8,36,68.8,36.8,68.8,37.9z"/>
	<path d="M13.2,59.6c0.2-0.2,7.9-7.9,7.7-7.7c26.2,0,35.2,0,61.9,0v6.8L96.3,50l-13.8-8.7v6.8c-17.8,0-30.3,0-61.9,0
		c-0.2-0.2-7.9-7.9-7.7-7.7c0,0.2,3.6,7.9,3.4,7.7H13c0-0.2-7-7.2-7.5-7.7c0,0.2,3.6,7.9,3.4,7.7H5.6c-1.1,0-1.9,1-1.9,1.9
		s0.8,1.9,1.9,1.9H9c0,0.2-3.8,8.2-3.4,7.7c0.2-0.2,7.2-7.2,7.7-7.7h3.4C16.7,52.1,12.8,60.2,13.2,59.6z"/>
	<path d="M5.6,40.4L5.6,40.4C5.5,40.4,5.5,40.4,5.6,40.4z"/>
</g>
</svg>
