<?xml version="1.0" encoding="utf-8"?>
<!-- Generator: Adobe Illustrator 27.9.0, SVG Export Plug-In . SVG Version: 6.00 Build 0)  -->
<svg version="1.1" id="Layer_1" xmlns="http://www.w3.org/2000/svg" xmlns:xlink="http://www.w3.org/1999/xlink" x="0px" y="0px"
	 viewBox="0 0 100 100" style="enable-background:new 0 0 100 100;" xml:space="preserve">
<path d="M35.7,15.7c0.2-0.3,0.5-0.4,0.8-0.6l5.1-3.4c0.4-0.4,0.9-0.6,1.5-0.6h4.5c-0.1-0.2-0.2-0.5-0.4-0.7c-1-1.4-2.5-2.2-4.1-2.2
	c-1,0-1.9,0.3-2.8,0.8l-5.8,3.9c-2,1.4-2.7,4-1.7,6.2L35.7,15.7z M38.8,18.4L36,21.8c0.4,0.1,0.9,0.2,1.3,0.2c1,0,1.9-0.3,2.8-0.8
	l5.8-3.9c0.8-0.5,1.3-1.2,1.7-2h-4L38.8,18.4z M23.2,38.3l1-4.4c0,0,0-0.1,0.1-0.1l1.9-6.1c0-0.5,0.1-1,0.5-1.4l2.8-3.3
	c-0.4-0.1-0.8-0.2-1.2-0.2c-2.1,0-4.1,1.4-4.7,3.5L21.5,33C20.8,35,21.6,37.2,23.2,38.3z M30.1,28.7l-1.8,5.7c0,0.1,0,0.3,0,0.4
	l-1,4.4c1.7-0.4,3.1-1.6,3.6-3.3l2.1-6.7c0.4-1.3,0.2-2.5-0.3-3.6L30.1,28.7z M58.5,11.7l5.1,3.4c0.3,0.1,0.6,0.3,0.8,0.6l2.9,3.4
	c1-2.2,0.3-4.8-1.7-6.2L59.8,9C59,8.4,58,8.2,57,8.2c-1.6,0-3.2,0.8-4.1,2.2c-0.2,0.2-0.3,0.5-0.4,0.7H57
	C57.6,11.1,58.1,11.3,58.5,11.7z M56.4,15.2h-3.9c0.4,0.8,0.9,1.5,1.7,2l5.8,3.9c0.8,0.6,1.8,0.8,2.8,0.8c0.4,0,0.9-0.1,1.3-0.2
	l-2.8-3.4L56.4,15.2z M71.7,34.8c0-0.1,0-0.3,0-0.4l-1.8-5.7l-2.6-3.1c-0.5,1.1-0.7,2.4-0.3,3.6l2.1,6.7c0.5,1.7,2,3,3.6,3.3
	L71.7,34.8z M73.8,27.7l1.9,6.1c0,0,0,0.1,0.1,0.1l1,4.4c1.6-1.2,2.4-3.4,1.8-5.4l-2.1-6.6c-0.7-2.1-2.6-3.5-4.7-3.5
	c-0.4,0-0.8,0.1-1.2,0.2l2.8,3.3C73.7,26.7,73.8,27.2,73.8,27.7z M43,11.7c-0.8,0-1.5,0.7-1.5,1.5s0.7,1.5,1.5,1.5h14
	c0.8,0,1.5-0.7,1.5-1.5s-0.7-1.5-1.5-1.5H43z M26.6,33c-0.1,0-0.2,0-0.3,0c-0.7,0-1.3,0.5-1.4,1.1l-2.7,12.4l2.8,0.8l2.8-12.5
	C27.8,33.8,27.3,33.2,26.6,33z M29.4,28.6l9-10.7c0.5-0.6,0.4-1.5-0.2-2.1c-0.3-0.2-0.6-0.3-0.9-0.3c-0.4,0-0.8,0.2-1.1,0.5l-9,10.7
	c-0.5,0.6-0.4,1.5,0.2,2.1C27.7,29,28,29,28.3,29C28.7,29.2,29.1,29,29.4,28.6z M75.1,47.2l2.8-0.8l-2.7-12.4
	C75,33.4,74.4,33,73.8,33c-0.1,0-0.2,0-0.3,0c-0.8,0.2-1.3,1-1.1,1.7L75.1,47.2z M72.9,26.7l-9-10.7c-0.3-0.3-0.7-0.5-1.1-0.5
	c-0.3,0-0.7,0.1-0.9,0.3c-0.6,0.5-0.7,1.4-0.2,2.1l9,10.7c0.3,0.3,0.7,0.5,1.1,0.5c0.3,0,0.7-0.1,0.9-0.3
	C73.3,28.3,73.4,27.4,72.9,26.7z M12.4,63.2l12.9,2.3l1.6-5.9l-11.6-7.2L12.4,63.2z M84.4,51l-0.8-2.9c-0.3-1.1-1.3-1.8-2.4-1.8l0,0
	c-0.2,0-0.4,0-0.6,0.1l-7.8,2.1c-1.3,0.4-2.1,1.7-1.8,3l1.8,6.8l11.2-7L84.4,51z M27.2,48.5l-7.8-2.1c-0.2-0.1-0.4-0.1-0.6-0.1
	c-1.1,0-2.1,0.7-2.4,1.8l-0.8,3l0.3,0.2l11.2,7l1.8-6.8C29.4,50.2,28.6,48.8,27.2,48.5z M93.9,86.7l-1.5-5.6l-11.2,7.2l-0.3,0.2
	l0.4,1.6c0.3,1.1,1.3,1.8,2.4,1.8c0.2,0,0.4,0,0.6-0.1l7.8-2.1C93.5,89.3,94.3,88.1,93.9,86.7z M89.5,70.2l-1.6-5.8h-0.1L75,66.8
	l2.8,10.4l11.4-6.7L89.5,70.2z M7.6,81.1l-1.5,5.6c-0.4,1.3,0.4,2.7,1.8,3l7.8,2.1c0.2,0.1,0.4,0.1,0.6,0.1c1.1,0,2.1-0.7,2.4-1.8
	l0.4-1.6l-0.3-0.2L7.6,81.1z M84.7,52.3l-11.6,7.2l1.6,5.9l12.9-2.3L84.7,52.3z M12.1,64.3l-1.6,5.9l0.3,0.2l11.4,6.7L25,66.7
	L12.1,64.3L12.1,64.3z M89.8,71.4l-11.6,6.8l2.4,8.9l11.5-7.3L89.8,71.4z M7.9,79.8l11.5,7.3l2.4-8.9l-11.7-6.8L7.9,79.8z"/>
</svg>
