<?xml version="1.0" encoding="utf-8"?>
<!-- Generator: Adobe Illustrator 27.9.0, SVG Export Plug-In . SVG Version: 6.00 Build 0)  -->
<svg version="1.1" id="Layer_1" xmlns="http://www.w3.org/2000/svg" xmlns:xlink="http://www.w3.org/1999/xlink" x="0px" y="0px"
	 viewBox="0 0 100 100" style="enable-background:new 0 0 100 100;" xml:space="preserve">
<g>
	<path d="M24.5,62.3c-0.5,0.5-0.5,1.2,0,1.6l13.9,13.9c-1.2,3.3-7.4,17.9-22.5,17.3c-0.6,0-1.2,0.5-1.2,1.1c0,0.3,0.1,0.6,0.3,0.9
		c0.2,0.2,0.5,0.3,0.8,0.3c18.5,0.7,24.9-19.4,25-19.6l0.2-0.7L26.1,62.3C25.7,61.9,24.9,61.9,24.5,62.3z"/>
	<path d="M27.3,68.6c0,0-16.2,11.3-19.4,14.5C4.7,86.3,5.1,88.7,7,90c1.9,1.3,4.2-0.9,4.2-3.3c0-2.3,20.8-13.5,20.8-13.5L27.3,68.6z
		"/>
	<path d="M31.7,65.3l2.6,2.6c5.5-3.9,10.9-8,16.2-12.2c6.1-4.9,11.9-10,17.5-15.4c5.6-5.4,10.9-11.1,15.6-17.3
		c2.3-3.1,4.5-6.3,6.4-9.8c1.9-3.4,3.5-7,4.4-10.8C94.5,2.5,74.7,36.3,31.7,65.3z"/>
	<path d="M90.1,13.3c-1.9,3.4-4,6.7-6.3,9.8c-4.6,6.3-9.9,12-15.5,17.5c-5.6,5.5-11.4,10.7-17.4,15.6c-5.2,4.3-10.5,8.4-16,12.3
		l2.5,2.5c0,0,55.4-38.7,57.1-68.5C93.5,6.3,92,9.9,90.1,13.3z"/>
</g>
</svg>
