<?xml version="1.0" encoding="utf-8"?>
<!-- Generator: Adobe Illustrator 27.9.0, SVG Export Plug-In . SVG Version: 6.00 Build 0)  -->
<svg version="1.1" id="Layer_1" xmlns="http://www.w3.org/2000/svg" xmlns:xlink="http://www.w3.org/1999/xlink" x="0px" y="0px"
	 viewBox="0 0 100 100" style="enable-background:new 0 0 100 100;" xml:space="preserve">
<g>
	<path d="M65,33.3c-21.4,23.1-3.7,8.8-63.5,65.9c-1.7,0.8,6.8-0.1,9.9-3c50.1-53.3,34.5-38.7,56.3-60.4c-1-0.4-1.8-0.8-1.8-0.8
		S65.4,34.2,65,33.3z"/>
	<path d="M69.7,31.4L69.2,31l-1-1.4c0,0-4-0.6-4.2-0.4c-0.2,0.2,1.1,3.8,1.1,3.8l0.9,1.7l1.8,0.8c0,0,3.6,1.1,3.8,0.9
		c0.2-0.2-0.6-4.1-0.6-4.1L69.7,31.4z"/>
	<path d="M88.7,6.4c-19.3,19.9-22.5,20-22.5,20l2,2.7l1.2,1.7l0.9-0.9l13.8-14L70.7,30.4l-0.8,0.9l1.7,1.1l2.8,1.8
		c0,0-0.1-3.2,18.9-23.4c5.4-7.7,5.4-10.3,5.4-10.3S96.1,0.6,88.7,6.4z M93.2,10.6C73.4,31.5,74.3,33.9,74.3,33.9l-1.8-1.2
		c-0.2-3.7,15.9-19.2,18.4-24c-4.6,2.7-19.5,19.5-23.1,19.5l-1.3-1.8c0,0,2.4,0.8,22.4-19.9c0,0,7.8-5.7,9.6-5.7l0,0c0,0,0,0,0,0
		c0,0,0,0,0,0l0,0C98.6,2.6,93.2,10.6,93.2,10.6z"/>
</g>
</svg>
