<?xml version="1.0" encoding="utf-8"?>
<!-- Generator: Adobe Illustrator 27.9.0, SVG Export Plug-In . SVG Version: 6.00 Build 0)  -->
<svg version="1.1" id="Layer_1" xmlns="http://www.w3.org/2000/svg" xmlns:xlink="http://www.w3.org/1999/xlink" x="0px" y="0px"
	 viewBox="0 0 100 100" style="enable-background:new 0 0 100 100;" xml:space="preserve">
<g transform="translate(851.24347,348.81778)">
	<path d="M-768.1-298.8c0-0.3-0.2-0.6-0.4-0.8l-7.6-4.4c-0.4-0.2-1-0.1-1.2,0.3c-0.1,0.2-0.2,0.5-0.1,0.7l0.9,3.3h-3.9v-2.2
		c0.4-0.5,0.8-1.1,1.1-1.6c1.2-2,1.8-4.4,1.8-6.7v0c0-2.9-0.9-5.6-2.1-7.9c-1.2-2.4-2.8-4.4-4.4-6.2c-3.2-3.7-6.4-7.1-7.7-11
		c-0.5-1.6-0.8-3.4-0.6-5.1c0.3,0.1,0.5,0.1,0.8,0.1c2.4,0,4.4-1.9,4.4-4.2s-2-4.2-4.4-4.2c-2,0-3.8,1.3-4.2,3.2
		c-0.1,0.1-0.1,0.3-0.2,0.4c-0.8,2.3-1,4.8-0.8,7.2l-23.7,38.3h-2.2c-1.3-1.4-3.4-3.6-3.4-3.6c-0.2-0.2-0.4-0.3-0.6-0.3h-9.5
		c-0.5,0-0.9,0.4-0.9,0.9c0,0.2,0.1,0.4,0.2,0.6l2.3,2.4h-1.7c-0.5,0-0.9,0.4-0.9,0.9c0,0.5,0.4,0.9,0.9,0.9c0,0,0,0,0,0h1.7
		l-2.2,2.4c-0.3,0.4-0.3,0.9,0,1.3c0.2,0.2,0.4,0.2,0.6,0.2h9.5c0.2,0,0.5-0.1,0.6-0.3c0,0,2.1-2.2,3.4-3.6h2.2l23.7,38.3
		c-0.2,2.3,0.1,4.6,0.9,6.8c0,0.1,0.1,0.1,0.1,0.2c0.2,2.2,2.1,3.8,4.3,3.8c2.4,0,4.4-1.9,4.4-4.2s-2-4.2-4.4-4.2
		c-0.3,0-0.5,0-0.8,0.1c-0.2-1.9,0-3.7,0.6-5.5c1.3-3.9,4.5-7.3,7.7-11c1.6-1.9,3.2-3.9,4.4-6.2c1.2-2.4,2.1-5.1,2.1-7.9
		c0-2.4-0.7-4.7-1.8-6.7c-0.3-0.6-0.7-1.1-1.1-1.6v-1.8h3.8l-0.9,3.3c-0.1,0.5,0.2,1,0.6,1.1c0.2,0.1,0.5,0,0.7-0.1l7.6-4.4
		C-768.3-298.2-768.1-298.5-768.1-298.8L-768.1-298.8z M-782-310.3c0,0.7-0.1,1.4-0.2,2c-0.2,0-0.3-0.1-0.5-0.1h-3.4
		c-1.2,0-2.2,1-2.2,2.2v1.8v4.6h-30.1l22.1-35.6c0.1,0.5,0.2,0.9,0.4,1.3c1.7,5.2,5.5,8.9,8.5,12.5c1.5,1.8,2.9,3.6,3.9,5.4
		C-782.6-314.2-782-312.2-782-310.3L-782-310.3z M-782-287.8c0,1.9-0.6,3.9-1.6,5.8c-1,1.9-2.4,3.7-3.9,5.4c-3,3.6-6.8,7.3-8.5,12.5
		c-0.2,0.5-0.3,1.1-0.5,1.6l-22-35.5h30.1v4.1v1.8c0,1.2,1,2.2,2.2,2.2h3.4c0.2,0,0.3,0,0.5,0C-782.1-289.1-782-288.5-782-287.8
		L-782-287.8z"/>
</g>
</svg>
