<?xml version="1.0" encoding="utf-8"?>
<!-- Generator: Adobe Illustrator 27.9.0, SVG Export Plug-In . SVG Version: 6.00 Build 0)  -->
<svg version="1.1" id="Layer_1" xmlns="http://www.w3.org/2000/svg" xmlns:xlink="http://www.w3.org/1999/xlink" x="0px" y="0px"
	 viewBox="0 0 100 100" style="enable-background:new 0 0 100 100;" xml:space="preserve">
<g>
	<polygon points="26,54.4 28.1,54.1 28.1,51.7 28.1,48.3 28.1,45.9 26,45.6 	"/>
	<polygon points="29.7,53.9 31.1,53.8 31.1,52.5 29.7,52.5 	"/>
	<path d="M35.8,46.3v1.2H74c-0.1-0.8-0.1-1.6-0.2-2.3H37.7L35.8,46.3z"/>
	<path d="M82.2,56.3c-0.1,0.9-0.2,1.7-0.3,2.5l3.2,0.6c0.8-1.9,1.2-4.1,1.3-6.8h-0.8C85.3,54.6,84.2,55.9,82.2,56.3z"/>
	<path d="M97.5,50l-7.1-4.4v2.7c0,0.4-0.4,0.8-0.8,0.8H29.7v1.9h59.9c0.4,0,0.8,0.4,0.8,0.8v2.7L97.5,50z"/>
	<polygon points="34.2,52.5 32.7,52.5 32.7,53.6 34.2,53.4 	"/>
	<path d="M82.5,52.5c0,0.7-0.1,1.4-0.1,2.1c1-0.3,1.4-0.9,1.6-2.1H82.5z"/>
	<polygon points="31.1,46.2 29.7,46.1 29.7,47.5 31.1,47.5 	"/>
	<polygon points="34.2,46.6 32.7,46.4 32.7,47.5 34.2,47.5 	"/>
	<path d="M82.5,47.5H84c-0.1-1.2-0.6-1.8-1.6-2.1C82.4,46.1,82.5,46.8,82.5,47.5z"/>
	<path d="M55.3,82c0.5,0.3,0.9,0.6,1.2,1.1c0.6,0.9,0.9,1.9,0.9,3.1c8.3-2.9,22.5-11.1,23.5-33.7h-5.3C74.6,69.7,62.8,78.3,55.3,82z
		"/>
	<path d="M53.3,82.9c-0.5,0.2-0.9,0.4-1.4,0.6c-1.7,0.7-2.9,2.1-3.4,3.9l-1.9,7.5l1.3,0.4l2.2-4.5c0.9-1.9,2.6-3.2,4.6-3.8
		c0.3-0.1,0.6-0.2,1-0.3c0.1-1.1-0.1-2-0.6-2.7C54.8,83.4,54.1,83.1,53.3,82.9z"/>
	<polygon points="2.5,50 2.5,57 24.5,54.5 24.5,45.5 2.5,43 	"/>
	<path d="M51.9,16.5c0.4,0.2,0.9,0.4,1.4,0.6c0.8-0.1,1.5-0.5,1.9-1.1c0.5-0.7,0.7-1.6,0.6-2.7c-0.3-0.1-0.7-0.2-1-0.3
		c-2-0.5-3.7-1.9-4.6-3.8l-2.2-4.5l-1.3,0.4l1.9,7.5C49,14.4,50.3,15.8,51.9,16.5z"/>
	<path d="M74,52.5H35.8v1.2l1.9,1.1h36.1C73.9,54.1,74,53.3,74,52.5z"/>
	<path d="M85.5,47.5h0.8c-0.1-2.7-0.5-4.9-1.3-6.8l-3.2,0.6c0.1,0.8,0.2,1.6,0.3,2.5C84.2,44.1,85.3,45.4,85.5,47.5z"/>
	<path d="M75.6,47.5h5.3c-1-22.7-15.2-30.9-23.5-33.7c0,1.2-0.3,2.3-0.9,3.1c-0.3,0.4-0.7,0.8-1.2,1.1
		C62.8,21.7,74.6,30.3,75.6,47.5z"/>
	<path d="M34.5,43.3l17.6-22.8c0.3-0.3,0.2-0.8-0.1-1.1c-0.3-0.3-0.8-0.2-1.1,0.1L33.3,42.4c-0.1,0.1-0.2,0.3-0.2,0.5
		c0,0.2,0.1,0.5,0.3,0.6C33.8,43.7,34.3,43.7,34.5,43.3z"/>
	<path d="M52,80.5c0.3-0.3,0.4-0.8,0.1-1.1L34.5,56.7c-0.3-0.3-0.8-0.4-1.1-0.1c-0.2,0.2-0.3,0.4-0.3,0.6c0,0.2,0.1,0.3,0.2,0.5
		l17.6,22.8C51.1,80.7,51.6,80.8,52,80.5z"/>
</g>
</svg>
