<?xml version="1.0" encoding="utf-8"?>
<!-- Generator: Adobe Illustrator 27.9.0, SVG Export Plug-In . SVG Version: 6.00 Build 0)  -->
<svg version="1.1" id="Layer_1" xmlns="http://www.w3.org/2000/svg" xmlns:xlink="http://www.w3.org/1999/xlink" x="0px" y="0px"
	 viewBox="0 0 100 100" style="enable-background:new 0 0 100 100;" xml:space="preserve">
<g>
	<path d="M41.2,7.4c-0.1,0.7,0.2,1.4,0.9,1.7c5.3,2.5,10,6.3,13.5,11c3.5,4.7,5.9,10.1,7,15.8c-0.4,0.6-0.7,1.3-0.7,2v8
		c0,0.9,0.7,1.6,1.6,1.6h9.7c0.9,0,1.6-0.7,1.6-1.6v-8c0-1.2-0.7-2.3-1.7-2.8c-0.6-4.5-2-8.9-4.1-13c-2.6-5.4-6.8-10-12-13
		c-4.4-2.4-9.3-3.4-14.3-3C42,6.1,41.4,6.7,41.2,7.4z M71.2,41c-0.1,1.6-1.4,2.9-3,2.8c-1.5-0.1-2.8-1.3-2.8-2.8
		c0.1-1.6,1.4-2.9,3-2.8C69.9,38.3,71.2,39.5,71.2,41z"/>
	<path d="M56.9,90.9c5.2-3,9.4-7.6,12-13c2.1-4,3.5-8.4,4.1-13c1-0.5,1.7-1.6,1.7-2.8v-8c0-0.9-0.7-1.6-1.6-1.6h-9.7
		c-0.9,0-1.6,0.7-1.6,1.6v8c0,0.7,0.2,1.4,0.7,2c-1.1,5.7-3.5,11.1-7,15.8c-3.5,4.7-8.2,8.5-13.5,11c-0.8,0.4-1.1,1.3-0.8,2.1
		c0.2,0.5,0.7,0.9,1.3,0.9C47.6,94.3,52.6,93.3,56.9,90.9z M65.4,59c0.1-1.6,1.4-2.9,3-2.8c1.5,0,2.8,1.3,2.8,2.8
		c-0.1,1.6-1.4,2.9-3,2.8C66.7,61.7,65.4,60.5,65.4,59z"/>
	<path d="M39,91.1c-2.2-1.5-20.8-15.2-21.5-39.7h64.3l-2.8,4.8l15.6-6.4l-15.6-6.4l2.8,4.8H17.5C18.4,23.9,36.9,10.4,39,8.9
		c0.7-0.5,0.9-1.5,0.4-2.2c-0.5-0.7-1.4-0.9-2.1-0.4C35,7.9,15.5,22.1,14.4,47.7c-1.9-1.5-3.6-3.2-5.1-5.1c0,2.6,0.9,5.1,2.5,7.1
		c-1.6,2-2.5,4.5-2.5,7.1c1.4-1.9,3.1-3.7,5.1-5.1c0.9,25.9,20.5,40.2,22.8,41.8c0.7,0.5,1.7,0.3,2.2-0.4
		C39.9,92.5,39.7,91.6,39,91.1z"/>
</g>
</svg>
