<?xml version="1.0" encoding="utf-8"?>
<!-- Generator: Adobe Illustrator 27.9.0, SVG Export Plug-In . SVG Version: 6.00 Build 0)  -->
<svg version="1.1" id="Layer_1" xmlns="http://www.w3.org/2000/svg" xmlns:xlink="http://www.w3.org/1999/xlink" x="0px" y="0px"
	 viewBox="0 0 100 100" style="enable-background:new 0 0 100 100;" xml:space="preserve">
<g>
	<path d="M94.5,15l-1-1c0-0.2,0.1-0.4,0.1-0.5l1.7,0c0,0,0,0,0,0c0.5,0,0.9-0.4,0.9-0.9c0-0.5-0.4-0.9-0.9-0.9l-1.7,0
		c0-0.2,0-0.4-0.1-0.5l1.3-1.3c1.2,0,2.4-0.5,3.3-1.4c0.9-0.9,1.4-2.1,1.4-3.3c0-1.2-0.5-2.4-1.4-3.3c-0.9-0.9-2.1-1.4-3.3-1.4
		c-1.2,0-2.4,0.5-3.3,1.4c-0.9,0.9-1.3,2-1.4,3.3l-1.3,1.3c-0.1,0-0.3,0-0.4-0.1l0-1.5c0-0.5-0.4-0.9-0.9-0.9c0,0,0,0,0,0
		c-0.5,0-0.9,0.4-0.9,0.9l0,1.5c-0.2,0-0.5,0.1-0.7,0.1l-1-1c0.1-1.3-0.4-2.6-1.4-3.6c-1.8-1.8-4.8-1.8-6.6,0
		c-1.8,1.8-1.8,4.8,0,6.6c0.8,0.8,1.8,1.3,3,1.4l1.3,1.4c0,0.2-0.1,0.4-0.1,0.6l-1.5,0c0,0,0,0,0,0c-0.5,0-0.9,0.4-0.9,0.9
		c0,0.5,0.4,0.9,0.9,0.9l1.6,0c0,0.1,0,0.2,0.1,0.3l-0.2,0.2c0,0,0,0.1,0,0.1c0,0-0.1,0-0.1,0.1L70.7,24.6l-0.9,0
		c-0.1,0-0.3,0-0.4,0.1l-2.4,1.2c0,0,0,0,0,0l-3.9,1.9c-0.2,0.1-0.4,0.3-0.4,0.5l-1.7,4.1c0,0,0,0,0,0c0,0.1-0.1,0.2-0.1,0.3
		c0,0.1,0,0.1,0,0.1c0,0.1,0,0.1,0,0.2c0,0.1,0.1,0.2,0.2,0.3c0,0,0,0,0,0l0.4,0.4L0.8,94.5c-0.2,0.2-0.3,0.4-0.3,0.6
		c0,0.2,0.1,0.5,0.3,0.6l3.5,3.5c0.2,0.2,0.4,0.3,0.6,0.3c0.2,0,0.5-0.1,0.6-0.3l56.5-56.5l4.3-4.5l0.4,0.4c0,0,0,0,0,0
		c0.1,0.1,0.1,0.1,0.2,0.1c0,0,0.1,0,0.1,0c0.1,0,0.2,0.1,0.3,0.1c0.1,0,0.2,0,0.3-0.1l4.1-1.7c0.2-0.1,0.4-0.2,0.5-0.4l1.9-3.9
		c0.1-0.1,0.1-0.2,0.1-0.3l1-2.1c0.1-0.1,0.1-0.2,0.1-0.3l0-0.8l10.7-10.7c0.2,0,0.3,0.1,0.5,0.1l0,1.7c0,0.5,0.4,0.9,0.9,0.9
		c0,0,0,0,0,0c0.5,0,0.9-0.4,0.9-0.9l0-1.7c0.1,0,0.2,0,0.4-0.1l1.4,1.4c0.1,1.1,0.6,2.2,1.4,3c0.9,0.9,2.1,1.4,3.3,1.4
		c1.2,0,2.4-0.5,3.3-1.4c1.8-1.8,1.8-4.8,0-6.6C97.1,15.4,95.8,14.9,94.5,15z M70.9,35.7L67.7,37l-2.3-2.3l-1.8-1.8c0,0,0,0,0,0
		L63,32.3l1.3-3.2l3-1.4l5,5L70.9,35.7z M96.8,21.7c-1.1,1.1-3,1.1-4.1,0c-0.6-0.6-0.9-1.3-0.9-2.1c0-0.2-0.1-0.5-0.3-0.6L89.6,17
		c-0.2-0.2-0.6-0.3-0.9-0.2c-0.9,0.3-1.8,0.3-2.7,0c-0.3-0.1-0.7,0-0.9,0.2L73.9,28.3c-0.2,0.2-0.2,0.4-0.3,0.6l-0.1,1L73.1,31
		L69,26.9l1.1-0.6l1,0c0.2,0,0.5-0.1,0.6-0.3l10.6-10.6c0,0,0-0.1,0-0.1c0,0,0.1,0,0.1-0.1l0.6-0.6c0.2-0.2,0.3-0.6,0.2-0.9
		c-0.3-0.9-0.3-1.8,0-2.7c0.1-0.3,0-0.6-0.2-0.9L81,8.4c-0.2-0.2-0.4-0.3-0.6-0.3c-0.8,0-1.5-0.3-2.1-0.9c-1.1-1.1-1.1-3,0-4.1
		c1.1-1.1,3-1.1,4.1,0c0.7,0.7,1,1.6,0.8,2.5c0,0.3,0,0.6,0.2,0.8l1.6,1.6c0.2,0.2,0.6,0.3,0.9,0.2C87,8,87.9,8,88.8,8.3
		c0.3,0.1,0.7,0,0.9-0.2l1.9-1.9c0.2-0.2,0.3-0.4,0.3-0.7c-0.1-0.9,0.2-1.7,0.8-2.3c1.1-1.1,3-1.1,4.1,0c0.6,0.6,0.9,1.3,0.9,2.1
		s-0.3,1.5-0.9,2.1c-0.6,0.6-1.4,0.9-2.3,0.8c-0.3,0-0.5,0.1-0.7,0.3l-1.9,1.9c-0.2,0.2-0.3,0.6-0.2,0.9l0.2,3.7l1.6,1.6
		c0.2,0.2,0.5,0.3,0.8,0.2c0.9-0.1,1.8,0.2,2.5,0.8C98,18.7,98,20.5,96.8,21.7z"/>
	<path d="M65.7,29.8c-1.2,1.2-1.1,3.2,0.3,4.5c0.6,0.6,1.4,1,2.2,1.1c0.1,0,0.2,0,0.3,0c0.8,0,1.5-0.3,2-0.8c0.3-0.3,0.3-0.9,0-1.2
		c-0.3-0.3-0.9-0.3-1.2,0c-0.2,0.2-0.5,0.3-0.9,0.3c-0.4,0-0.8-0.2-1.1-0.5c-0.6-0.6-0.7-1.5-0.3-2c0.1-0.1,0.3-0.2,0.5-0.3
		c0.5-0.1,0.8-0.5,0.7-1c-0.1-0.5-0.6-0.8-1-0.7C66.6,29.2,66.1,29.5,65.7,29.8z"/>
	<path d="M89.3,9.5l-0.6,0.6c-0.8-0.4-1.8-0.4-2.7,0l-0.3-0.3c-0.3-0.3-0.9-0.3-1.2,0c-0.3,0.3-0.3,0.9,0,1.2l0.3,0.3
		c-0.4,0.8-0.4,1.8,0,2.7l-1.3,1.3c-0.3,0.3-0.3,0.9,0,1.2c0.2,0.2,0.4,0.3,0.6,0.3c0.2,0,0.5-0.1,0.6-0.3l1.3-1.3
		c0.1,0.1,0.2,0.1,0.4,0.2c0.1,0,0.2,0,0.3,0c0.4,0,0.7-0.2,0.8-0.6c0.2-0.5-0.1-1-0.5-1.1c-0.2-0.1-0.3-0.1-0.4-0.3
		c-0.4-0.4-0.4-1.2,0-1.6c0.4-0.4,1.2-0.4,1.6,0c0.1,0.1,0.2,0.2,0.3,0.4c0.2,0.5,0.7,0.7,1.1,0.5c0.5-0.2,0.7-0.7,0.5-1.1
		c0-0.1-0.1-0.2-0.1-0.2l0.6-0.6c0.3-0.3,0.3-0.9,0-1.2C90.2,9.1,89.6,9.1,89.3,9.5z"/>
</g>
</svg>
