<?xml version="1.0" encoding="utf-8"?>
<!-- Generator: Adobe Illustrator 27.9.0, SVG Export Plug-In . SVG Version: 6.00 Build 0)  -->
<svg version="1.1" id="Layer_1" xmlns="http://www.w3.org/2000/svg" xmlns:xlink="http://www.w3.org/1999/xlink" x="0px" y="0px"
	 viewBox="0 0 100 100" style="enable-background:new 0 0 100 100;" xml:space="preserve">
<path d="M92.8,17.6L89.3,14l-7.1,12.7l-1.5-2l2.8-8.2l-8.2,2.8l-2-1.5L86,10.7l-3.6-3.6L54.6,19.8l4.9,14.7L7.2,86.8v6h6l52.3-52.3
	l14.7,4.9L92.8,17.6z M77,36.1L74.8,35l2.4-3.4l2.3,0L77,36.1z M69.6,30.4l0.7,2.3l-2-1l-1-2L69.6,30.4z M68.4,22.8L65,25.2L63.9,23
	l4.4-2.5L68.4,22.8z"/>
</svg>
