<?xml version="1.0" encoding="utf-8"?>
<!-- Generator: Adobe Illustrator 27.9.0, SVG Export Plug-In . SVG Version: 6.00 Build 0)  -->
<svg version="1.1" id="Layer_1" xmlns="http://www.w3.org/2000/svg" xmlns:xlink="http://www.w3.org/1999/xlink" x="0px" y="0px"
	 viewBox="0 0 100 100" style="enable-background:new 0 0 100 100;" xml:space="preserve">
<g>
	<path d="M33.6,61c-0.2,0.2-0.5,0.3-0.7,0.3c-1.4-0.1-2.5,0.3-3.3,1.1c-0.8,0.8-1.1,1.9-1.1,3.3c0,0.3-0.1,0.5-0.3,0.7l-18,18
		c-0.2,0.2-0.5,0.3-0.7,0.3C8.2,84.5,7,85,6.2,85.8c-0.9,1-1.2,2.5-0.9,4.3c0,0.2,0,0.5-0.2,0.7l-1.8,2.5c0,0,0,0,0,0
		C2.7,94.3,2,96,3,97c1,1,2.7,0.3,3.5-0.3c0,0,0,0,0,0l2.5-1.8c0.2-0.1,0.4-0.2,0.7-0.2c1.9,0.3,3.4,0,4.3-0.9
		c0.9-0.8,1.3-2,1.2-3.4c0-0.3,0.1-0.5,0.3-0.7l18-18c0.2-0.2,0.5-0.3,0.7-0.3c1.4,0.1,2.5-0.3,3.3-1.1s1.1-1.9,1.1-3.3
		c0-0.3,0.1-0.5,0.3-0.7L52.3,53L47,47.7L33.6,61z M9.7,93c-0.4,0.4-1,0.4-1.3,0L7,91.7c-0.4-0.4-0.4-1,0-1.3c0.4-0.4,1-0.4,1.3,0
		l1.3,1.3C10,92,10,92.6,9.7,93z M13.7,90.3c-0.4,0.4-1,0.4-1.3,0l-2.7-2.7c-0.4-0.4-0.4-1,0-1.3c0.4-0.4,1-0.4,1.3,0l2.7,2.7
		C14,89.4,14,90,13.7,90.3z M34.3,69.7c-0.4,0.4-1,0.4-1.3,0L30.3,67c-0.4-0.4-0.4-1,0-1.3c0.4-0.4,1-0.4,1.3,0l2.7,2.7
		C34.7,68.7,34.7,69.3,34.3,69.7z M37,67c-0.4,0.4-1,0.4-1.3,0L33,64.4c-0.4-0.4-0.4-1,0-1.3c0.4-0.4,1-0.4,1.3,0l2.7,2.7
		C37.3,66.1,37.3,66.7,37,67z"/>
	<path d="M50.4,43.2c-0.9-0.3-1.7,0.1-2.1,0.5c-0.5,0.5-0.8,1.3-0.5,2.1l6.4,6.4c0.9,0.3,1.7-0.1,2.1-0.5c0.5-0.5,0.8-1.3,0.5-2.1
		L50.4,43.2z"/>
	<path d="M94,25.6c-0.2-0.2-0.5-0.3-0.8-0.3c-0.3,0-0.6,0.2-0.7,0.5c-2.2,4-4.8,7.3-5.7,8.6l-0.1,0.1c-0.4,0.5-1,0.9-1.7,0.9
		c-0.7,0-1.3-0.2-1.8-0.7l-4.9-4.9c-0.7-0.7-1-1.6-0.9-2.6l0.5-3.9c0-0.4-0.2-0.7-0.4-0.9S77,22,76.6,22l-3.9,0.5
		c-0.9,0.1-1.9-0.2-2.6-0.9l-4.9-4.9c-0.5-0.5-0.7-1.1-0.7-1.8c0-0.7,0.4-1.3,0.9-1.7l0.1-0.1c1.2-1,4.5-3.5,8.6-5.7
		c0.3-0.1,0.4-0.4,0.5-0.7c0-0.3-0.1-0.6-0.3-0.8L71,2.5l0,1.7c0,0,0,0.1,0,0.1c-0.1,0.8-0.6,1.5-1.4,1.8c-0.8,0.3-1.6,0.1-2.2-0.5
		l-0.5-0.5c-0.4-0.4-1-0.4-1.3,0l-1.5,1.5c-0.5,0.5-1.3,0.8-2,0.7c-1.2-0.2-2.7,0-3.4,1.7c0.7,0.9,2.4,2.8,3.7,4.6
		c0.3,0.4,0.2,1-0.2,1.3c-0.4,0.3-0.9,0.2-1.2-0.1c0,0-0.1-0.1-0.1-0.1c-1.3-1.7-2.8-3.6-3.6-4.4c-0.7,0.3-1.7,1.3-1.5,3.8l4.9,4.9
		c0.4,0.4,0.4,1,0,1.3s-1,0.4-1.3,0l-4.6-4.6c-0.3,0.3-0.7,0.7-0.9,1.4c-0.4,1.5,0.1,3.5,1.6,6c1,0.3,3.8,1.2,5.7,2
		c0.5,0.2,0.7,0.7,0.5,1.2c-0.2,0.5-0.7,0.7-1.2,0.5c-1.7-0.6-4.1-1.4-5.3-1.8c-0.2,0.9,0.4,2,1.3,3.7c1.2,2.1,2.5,4.6,1.6,7
		c1.4-0.3,2.8-0.7,3.9-1.9c0.4-0.4,1-0.4,1.3,0c0.4,0.4,0.4,1,0,1.3c-2.1,2.1-4.7,2.4-6.8,2.7c-2.8,0.3-4.5,0.6-4.9,4.3l6,6
		c3.7-0.4,3.9-2.1,4.3-4.9c0.3-2.1,0.6-4.7,2.7-6.8c0.4-0.4,1-0.4,1.3,0c0.4,0.4,0.4,1,0,1.3c-1.2,1.2-1.7,2.6-1.9,3.9
		c2.5-0.9,5,0.5,7,1.6c1.7,0.9,2.9,1.6,3.7,1.3c-0.4-1.2-1.2-3.6-1.8-5.3c-0.2-0.5,0.1-1,0.5-1.2c0.5-0.2,1,0.1,1.2,0.5
		c0.7,2,1.6,4.8,2,5.7c2.4,1.5,4.5,2,6,1.6c0.7-0.2,1.1-0.6,1.4-0.9l-4.6-4.6c-0.4-0.4-0.4-1,0-1.3c0.4-0.4,1-0.4,1.3,0l4.9,4.9
		c2.5,0.3,3.4-0.8,3.8-1.5c-0.9-0.7-2.7-2.3-4.4-3.6c0,0-0.1-0.1-0.1-0.1c-0.3-0.3-0.4-0.8-0.1-1.2c0.3-0.4,0.9-0.5,1.3-0.2
		c1.8,1.3,3.7,3,4.6,3.7c1.7-0.8,1.9-2.3,1.7-3.4c-0.1-0.7,0.1-1.5,0.7-2l1.5-1.5c0.4-0.4,0.4-1,0-1.3l-0.5-0.5
		c-0.6-0.6-0.8-1.4-0.5-2.2c0.3-0.8,0.9-1.3,1.8-1.4c0,0,0.1,0,0.1,0l1.7,0L94,25.6z M59.6,45.7c-0.4,0.4-1,0.4-1.3,0l-4-4
		c-0.4-0.4-0.4-1,0-1.3c0.4-0.4,1-0.4,1.3,0l4,4C60,44.8,60,45.4,59.6,45.7z M69,36c-0.3,0-0.5-0.1-0.7-0.3
		c-0.2-0.2-0.3-0.4-0.3-0.6l-0.1-2.2c0-0.4-0.4-0.7-0.8-0.8L64.9,32c-0.5,0-0.9-0.5-0.9-1c0-0.5,0.5-0.9,1-0.9l2.2,0.1
		c1.3,0.1,2.4,1.2,2.5,2.5l0.1,2.2C69.9,35.5,69.5,36,69,36z M76.5,31.4c-0.2,0.5-0.7,0.7-1.2,0.5l-4-1.6c-0.4-0.1-0.7-0.4-0.9-0.6
		c-0.3-0.3-0.5-0.6-0.6-0.9l-1.6-4c-0.2-0.5,0-1,0.5-1.2c0.5-0.2,1,0,1.2,0.5l1.6,4c0.1,0.2,0.3,0.4,0.5,0.5l4,1.6
		C76.4,30.4,76.7,30.9,76.5,31.4z"/>
	<path d="M76.7,18c0.2-0.5,0.8-0.7,1.2-0.5c0.5,0.2,0.7,0.8,0.5,1.2c-0.3,0.7-0.1,1.7,0.5,2.3c0.6,0.6,1.5,0.8,2.3,0.5
		c0.5-0.2,1,0,1.2,0.5c0.2,0.5,0,1-0.5,1.2c-0.7,0.3-1.4,0.4-2.1,0.3l-0.2,1.7c0.2-0.1,0.4-0.1,0.6-0.2l0.3-0.1c0,0,0,0,0.1,0
		c1.5-0.3,2.6-0.9,3.2-1.9c1.3-1.9,0.8-5,0.3-7.2c-2.2-0.4-5.2-1-7.2,0.3c-1,0.7-1.6,1.7-1.9,3.2c0,0,0,0,0,0.1
		c0,0.1-0.1,0.2-0.1,0.4c0,0.2-0.1,0.3-0.1,0.5l1.6-0.2C76.3,19.4,76.4,18.7,76.7,18z"/>
</g>
</svg>
