<?xml version="1.0" encoding="utf-8"?>
<!-- Generator: Adobe Illustrator 27.9.0, SVG Export Plug-In . SVG Version: 6.00 Build 0)  -->
<svg version="1.1" id="Layer_1" xmlns="http://www.w3.org/2000/svg" xmlns:xlink="http://www.w3.org/1999/xlink" x="0px" y="0px"
	 viewBox="0 0 100 100" style="enable-background:new 0 0 100 100;" xml:space="preserve">
<path d="M99.5,0.5c-0.4,0.9-0.9,1.7-1.2,2.5c-0.3,0.9-1.1,1.5-1.7,2.1c-6.2,6.4-12.3,12.7-18.5,19c-4,4.1-7.9,8.2-11.9,12.3
	c-7.6,7.9-15.3,15.7-22.9,23.6c-4.6,4.7-9.1,9.4-13.7,14.1c-0.1,0.1-0.3,0.3-0.4,0.4c1.4,0.9,2.7,1.7,4,2.6c1.1,0.7,2.2,1.4,3.2,2.1
	c0.5,0.3,1.4,0.2,1.8-0.2c0.4-0.4,0.8-0.5,1.2-0.3c0.5,0.2,0.6,0.6,0.7,1.1c0,0.2,0.1,0.4,0.2,0.6c0.3,0.4,0.5,0.8,0.3,1.2
	c-0.2,0.5-0.6,0.7-1.1,0.7c-0.2,0-0.5,0.1-0.6,0.2c-0.4,0.3-0.7,0.4-1.2,0.2c-0.4-0.2-0.6-0.5-0.7-1c-0.1-0.7-0.4-1.3-1.1-1.5
	c-3.2-1.3-6.5-2.5-9.7-3.8c-0.5-0.2-0.8-0.1-1.1,0.3c-0.2,0.3-0.9,0.5-0.6,1.1c0,0.1-0.2,0.2-0.2,0.3c-2.8,2.9-5.6,5.9-8.4,8.7
	c-2.2,2.1-4.5,4-6.7,6c-1,0.9-2,1.7-3,2.6c-0.1,0.1-0.2,0.4-0.2,0.5c0.3,2.1-1.4,3.6-3.5,3.1c-0.2,0-0.4,0-0.6,0
	c-0.3-0.1-0.8-0.1-0.9-0.3c-0.2-0.2-0.2-0.7-0.3-1c0-0.2,0-0.3,0-0.5c-0.6-2,1-3.9,3-3.6C4,94.1,4.2,94,4.4,93.8
	c2.7-3,5.3-6.1,8.1-9.1c2.2-2.3,4.5-4.4,6.8-6.7c0.7-0.7,1.4-1.4,2.1-2.1c0.2-0.2,0.4-0.5,0.9-0.5c0.4,0,0.8-0.6,1.1-1
	c0.1-0.1,0-0.4-0.1-0.6c-1.3-3.3-2.5-6.6-3.8-9.9c-0.2-0.6-0.8-0.9-1.4-1c-0.5-0.1-0.8-0.2-1-0.7c-0.2-0.5-0.1-0.9,0.2-1.3
	c0.1-0.1,0.2-0.4,0.2-0.6c0-0.5,0.2-0.9,0.7-1.1c0.5-0.2,0.9,0,1.2,0.3c0.1,0.1,0.3,0.2,0.5,0.2c0.5,0,0.9,0.2,1.1,0.7
	c0.2,0.5,0,0.9-0.3,1.3c-0.2,0.2-0.4,1.3-0.2,1.6c1.6,2.4,3.1,4.9,4.7,7.3c0,0,0.1,0,0.2,0.1c0.5-0.5,1-1.1,1.6-1.6
	c4.8-4.7,9.7-9.5,14.6-14.2c5.7-5.5,11.4-11,17.1-16.6c4.5-4.4,9-8.7,13.5-13.1C78.1,19.7,84,14,89.9,8.2c2-1.9,4-3.9,6-5.8
	c0.2-0.2,0.5-0.4,0.7-0.5C97.5,1.5,98.4,1,99.5,0.5z"/>
</svg>
