<?xml version="1.0" encoding="utf-8"?>
<!-- Generator: Adobe Illustrator 27.9.0, SVG Export Plug-In . SVG Version: 6.00 Build 0)  -->
<svg version="1.1" id="Layer_1" xmlns="http://www.w3.org/2000/svg" xmlns:xlink="http://www.w3.org/1999/xlink" x="0px" y="0px"
	 viewBox="0 0 100 100" style="enable-background:new 0 0 100 100;" xml:space="preserve">
<style type="text/css">
	.{fill-rule:evenodd;clip-rule:evenodd;}
</style>
<path class="" d="M18.5,76.5l1.6,1.6l-0.6-0.6l0,0l-7.8-7.8l-0.4,2.7l6.6,6.6L6.5,90.3c-1.5-0.4-3.1,0-4.2,1.1
	c-1.7,1.7-1.7,4.5,0,6.2c1.7,1.7,4.5,1.7,6.2,0c1.2-1.2,1.5-2.8,1.1-4.2L21,82.1l5.8,5.8l3.5,0.4l-7-7C57.6,46.5,70.9,35.3,99,1
	C64.7,29.1,53.6,42.5,18.5,76.5z M3.9,96.1C3,95.3,3,93.9,3.9,93c0.5-0.5,1.3-0.7,1.9-0.6c0.2,0,0.3,0.1,0.4,0.1
	C6.5,92.7,6.8,92.8,7,93c0.1,0.1,0.2,0.2,0.3,0.3c0,0,0,0.1,0.1,0.1c0.1,0.1,0.1,0.2,0.1,0.3c0,0,0,0.1,0,0.2c0,0.1,0.1,0.2,0.1,0.3
	c0,0.1,0,0.1,0,0.2c0,0.1,0,0.2,0,0.2c0,0.1,0,0.1,0,0.2c0,0.1,0,0.2,0,0.2c0,0.1,0,0.1-0.1,0.2c0,0.1,0,0.2-0.1,0.2
	c0,0.1-0.1,0.1-0.1,0.2c0,0.1-0.1,0.1-0.1,0.2c0,0.1-0.1,0.1-0.1,0.2C7.1,96,7,96.1,7,96.1C6.1,97,4.7,97,3.9,96.1z"/>
</svg>
