<?xml version="1.0" encoding="utf-8"?>
<!-- Generator: Adobe Illustrator 27.9.0, SVG Export Plug-In . SVG Version: 6.00 Build 0)  -->
<svg version="1.1" id="Layer_1" xmlns="http://www.w3.org/2000/svg" xmlns:xlink="http://www.w3.org/1999/xlink" x="0px" y="0px"
	 viewBox="0 0 100 100" style="enable-background:new 0 0 100 100;" xml:space="preserve">
<g>
	<path d="M16.5,80.7L7.2,90.8c1.1,0.4,1.5,1.1,1.9,1.9l10.2-9.1C18.2,82.9,17.2,82,16.5,80.7z"/>
	<path d="M5.2,91c-2.1,0-3.7,1.7-3.7,3.7c0,2.1,1.7,3.7,3.7,3.7c2.1,0,3.7-1.7,3.7-3.7C9,92.7,7.3,91,5.2,91z"/>
	<path d="M84.5,10.4C79.6,15.2,16.8,76,16.8,76c2.1,2.7,4.5,5.2,7.1,7.1c0,0,60.7-62.6,65.7-67.6c4.9-5.1,8.9-14,8.9-14
		S89.4,5.5,84.5,10.4z M21.6,78.4c-0.7-0.3-1-0.9-1.2-1.8l51.2-48.4L21.6,78.4z"/>
	<path d="M10,70l-1.3,1.2c6,7,12.8,13.6,20,19.9l1.2-1.2C22.4,83.3,15.7,76.7,10,70z"/>
</g>
</svg>
