<?xml version="1.0" encoding="utf-8"?>
<!-- Generator: Adobe Illustrator 27.9.0, SVG Export Plug-In . SVG Version: 6.00 Build 0)  -->
<svg version="1.1" id="Layer_1" xmlns="http://www.w3.org/2000/svg" xmlns:xlink="http://www.w3.org/1999/xlink" x="0px" y="0px"
	 viewBox="0 0 100 100" style="enable-background:new 0 0 100 100;" xml:space="preserve">
<g>
	<path d="M93.5,32.5H82.6c-0.8,0-1.5,0.7-1.5,1.5s0.7,1.5,1.5,1.5h10.9c0.8,0,1.5-0.7,1.5-1.5S94.4,32.5,93.5,32.5z"/>
	<path d="M39,35.5h10.9c0.8,0,1.5-0.7,1.5-1.5s-0.7-1.5-1.5-1.5H39c-0.8,0-1.5,0.7-1.5,1.5S38.2,35.5,39,35.5z"/>
	<path d="M66.3,19.1c0.8,0,1.5-0.7,1.5-1.5V6.7c0-0.8-0.7-1.5-1.5-1.5s-1.5,0.7-1.5,1.5v10.9C64.8,18.5,65.4,19.1,66.3,19.1z"/>
	<path d="M66.3,48.9c-0.8,0-1.5,0.7-1.5,1.5v10.9c0,0.8,0.7,1.5,1.5,1.5s1.5-0.7,1.5-1.5V50.4C67.8,49.6,67.1,48.9,66.3,48.9z"/>
	<path d="M78.9,44.5c-0.6-0.6-1.5-0.6-2.1-0.1s-0.6,1.5-0.1,2.1c0,0,0,0.1,0.1,0.1l7.8,7.7c0.3,0.3,0.7,0.4,1.1,0.4
		c0.8,0,1.5-0.7,1.5-1.5c0-0.4-0.2-0.8-0.4-1.1L78.9,44.5z"/>
	<path d="M53.6,23.5c0.3,0.3,0.7,0.4,1.1,0.4c0.8,0,1.5-0.7,1.5-1.5c0-0.4-0.2-0.8-0.4-1.1L48,13.7c-0.6-0.6-1.6-0.5-2.1,0.1
		c-0.5,0.6-0.5,1.5,0,2L53.6,23.5z"/>
	<path d="M76.8,23.5c0.3,0.3,0.7,0.5,1.1,0.5c0.4,0,0.8-0.2,1.1-0.5l7.7-7.7c0.6-0.6,0.6-1.5,0-2.1c-0.6-0.6-1.5-0.6-2.1,0
		c0,0,0,0,0,0l-7.7,7.7C76.2,21.9,76.2,22.9,76.8,23.5C76.8,23.4,76.8,23.4,76.8,23.5z"/>
	<path d="M6,88.1c-1.5,1.5-1.5,3.8,0,5.3l0.3,0.3c1.5,1.5,3.8,1.5,5.3,0l15.5-15.5l-5.6-5.6L6,88.1z"/>
	<path d="M70.5,28.9c-1.5-1.5-3.8-1.5-5.3,0L23.7,70.5l5.6,5.6l41.5-41.6c1.5-1.5,1.5-3.8,0-5.3L70.5,28.9z"/>
</g>
</svg>
