<?xml version="1.0" encoding="utf-8"?>
<!-- Generator: Adobe Illustrator 27.9.0, SVG Export Plug-In . SVG Version: 6.00 Build 0)  -->
<svg version="1.1" id="Layer_1" xmlns="http://www.w3.org/2000/svg" xmlns:xlink="http://www.w3.org/1999/xlink" x="0px" y="0px"
	 viewBox="0 0 100 100" style="enable-background:new 0 0 100 100;" xml:space="preserve">
<path d="M93.5,5H79.4c-0.4,0-0.8,0.2-1.1,0.4L64.3,19.5c-0.3,0.3-0.4,0.7-0.4,1.1v2.9l-6.6,6.6c-0.3,0.3-0.4,0.7-0.4,1.1v7.3
	c-0.5-0.1-1,0.1-1.3,0.4L6.2,88.2c-1.6,1.6-1.6,4.1,0,5.6s4.1,1.6,5.6,0l49.3-49.3c0.4-0.4,0.5-0.9,0.4-1.3h7.3
	c0.4,0,0.8-0.2,1.1-0.4l6.6-6.6h2.9c0.4,0,0.8-0.2,1.1-0.4l14.1-14.1c0.3-0.3,0.4-0.7,0.4-1.1V6.5C95,5.7,94.3,5,93.5,5z M68.2,40.2
	h-8.5v-8.5l4.1-4.1v7c0,0.8,0.7,1.5,1.5,1.5h7L68.2,40.2z"/>
</svg>
