<?xml version="1.0" encoding="utf-8"?>
<!-- Generator: Adobe Illustrator 27.9.0, SVG Export Plug-In . SVG Version: 6.00 Build 0)  -->
<svg version="1.1" id="Layer_1" xmlns="http://www.w3.org/2000/svg" xmlns:xlink="http://www.w3.org/1999/xlink" x="0px" y="0px"
	 viewBox="0 0 100 100" style="enable-background:new 0 0 100 100;" xml:space="preserve">
<path d="M65.1,26.5c-1.9-1.4-3.7-2.9-5.6-4.3c1.3-1.3,2.6-2.6,4-4c1.5,1.8,2.9,3.7,4.4,5.6c0.6-0.6,1.1-1.1,1.7-1.7
	c1.4,1.4,2.8,2.8,4.3,4.3c-0.4,0.5-0.8,0.9-1.4,1.5c1,0.9,2,1.8,3.1,2.5c1.3,0.9,2.7,1.9,4.2,2.6c3.4,1.6,6.6,0.4,8.7-3.1
	c3.1-5.2,2.7-10.5-1.1-15.6c-3-4-7-7-11.3-9.6c-0.3-0.2-0.6-0.4-1-0.6c7.2-0.1,17.3,4.9,22,15.1c5.1,11.2,1.9,24.3-8,32
	c-9.2,7.2-23.1,7.2-32.2-0.2c1.6,0,3.1,0.1,4.6-0.1c3.3-0.3,6.5-0.8,9.1-3.1c4-3.6,4.6-8.6,1.6-13.5c-0.8-1.2-1.7-2.3-2.6-3.6
	c-1,0.8-1.9,1.5-2.6,2.2C46.4,53.6,52.2,47.8,31.8,68.2c-6.3,6.3-0.2,0.6-6.8,6.7C14.6,84.5,14.7,85,4.6,94.9
	c-1.7,1.6-3.6,0.7-4-0.6c-0.3-1,0.1-1.7,0.8-2.4c2.7-2.7,5.4-5.5,8.2-8.2c6.8-6.8,4.2-3.7,10.7-10.8c7-7.7,2.3-2.6,9.6-10
	c12.4-12.5-1.4,1.4,11-11.1c7.5-7.5,14.9-14.9,22.4-22.4c0.3-0.3,0.9-0.5,0.6-1.3C63.8,27.7,64.5,27.2,65.1,26.5z"/>
</svg>
