<?xml version="1.0" encoding="utf-8"?>
<!-- Generator: Adobe Illustrator 27.9.0, SVG Export Plug-In . SVG Version: 6.00 Build 0)  -->
<svg version="1.1" id="Layer_1" xmlns="http://www.w3.org/2000/svg" xmlns:xlink="http://www.w3.org/1999/xlink" x="0px" y="0px"
	 viewBox="0 0 100 100" style="enable-background:new 0 0 100 100;" xml:space="preserve">
<path d="M97.5,2.5l-14.4,9L16.9,74.9c0.3,0.3,0.5,0.6,0.8,0.9c0.6,0.1,1.2,0.3,1.8,0.4c0.9,0.2,1.8,0.4,2.5,1l57.2-56.9l8.4-7.9
	l-7.9,8.4L22.8,78c0.2,0.3,0.4,0.6,0.5,0.9c0.4,1.1,0.6,2.3,0.9,3.5c0.3,0.3,0.6,0.5,0.9,0.8l63.5-66.2L97.5,2.5z M30.3,88.9
	c0-0.3-0.1-0.5-0.3-0.7l-6.5-5.6c0-0.1,0-0.2-0.1-0.4l-0.7-2.8c-0.2-1-1.2-1.9-2.2-2.2l-2.8-0.7c-0.1,0-0.2,0-0.4-0.1L11.8,70
	c-0.4-0.4-1-0.4-1.4,0l-0.8,0.8c-0.4,0.4-0.4,1,0,1.4l6.7,7.8l-8.4,8.7l0,0c-1,0.6-2.2,1.1-3.1,1.1c-0.2,0.1-0.3,0.3-0.5,0.5
	c-2,2-2.4,4.9-1,6.4s4.3,1.1,6.4-1c0.2-0.2,0.3-0.3,0.5-0.5c0-0.9,0.4-2.1,1.1-3.1l0,0l8.7-8.4l7.8,6.7c0.4,0.4,1,0.4,1.4,0l0.8-0.8
	C30.2,89.5,30.3,89.2,30.3,88.9L30.3,88.9z"/>
</svg>
