<?xml version="1.0" encoding="utf-8"?>
<!-- Generator: Adobe Illustrator 27.9.0, SVG Export Plug-In . SVG Version: 6.00 Build 0)  -->
<svg version="1.1" id="Layer_1" xmlns="http://www.w3.org/2000/svg" xmlns:xlink="http://www.w3.org/1999/xlink" x="0px" y="0px"
	 viewBox="0 0 100 100" style="enable-background:new 0 0 100 100;" xml:space="preserve">
<g>
	<path d="M2.8,94.5c-0.2,0.2-0.3,0.5-0.3,0.8c0,0.3,0.1,0.6,0.3,0.8l1.1,1.1c0.2,0.2,0.5,0.3,0.8,0.3c0.3,0,0.6-0.1,0.8-0.3l38-38
		l-2.7-2.7L2.8,94.5z"/>
	<path d="M97.2,3.9l-1.1-1.1c-0.4-0.4-1.2-0.4-1.6,0l-38,38l2.7,2.7l38-38c0.2-0.2,0.3-0.5,0.3-0.8C97.5,4.4,97.4,4.1,97.2,3.9z"/>
	<path d="M41.9,55.7c0.5,1,1,2.1,1.6,3.1l1.7-1.7l-2.3-2.3C42.5,55.1,42.2,55.4,41.9,55.7z"/>
	<path d="M45.8,51.9c0.5,1,1.1,2.1,1.6,3.1l1.7-1.7l-2.3-2.3C46.4,51.2,46.1,51.5,45.8,51.9z"/>
	<path d="M47,50.6l2.3,2.3c0.3-0.3,0.6-0.6,0.8-0.8c-0.5-1.1-1-2.1-1.5-3.2L47,50.6z"/>
	<path d="M43.1,54.6l2.3,2.3c0.3-0.3,0.6-0.6,0.8-0.8c-0.5-1.1-1-2.1-1.5-3.2L43.1,54.6z"/>
	<path d="M49.7,47.9c0.5,1,1,2.1,1.6,3.1l1.7-1.7L50.6,47L49.7,47.9z"/>
	<path d="M53.6,44c0.5,1,1.1,2.1,1.6,3.1l1.7-1.7l-2.3-2.3C54.2,43.4,53.9,43.7,53.6,44z"/>
	<path d="M54.8,42.8l2.3,2.3c0.3-0.3,0.6-0.6,0.8-0.8c-0.5-1.1-1-2.1-1.5-3.2L54.8,42.8z"/>
	<path d="M50.9,46.7L50.9,46.7l2.4,2.3c0.3-0.3,0.6-0.6,0.8-0.8c-0.5-1.1-1-2.1-1.5-3.2L50.9,46.7z"/>
</g>
</svg>
