<?xml version="1.0" encoding="utf-8"?>
<!-- Generator: Adobe Illustrator 27.9.0, SVG Export Plug-In . SVG Version: 6.00 Build 0)  -->
<svg version="1.1" id="Layer_1" xmlns="http://www.w3.org/2000/svg" xmlns:xlink="http://www.w3.org/1999/xlink" x="0px" y="0px"
	 viewBox="0 0 100 100" style="enable-background:new 0 0 100 100;" xml:space="preserve">
<style type="text/css">
	.{fill-rule:evenodd;clip-rule:evenodd;}
</style>
<g>
	<g>
		<path class="" d="M58.3,28.3c1.3,0.1,3,0.1,4.7,0.3c2.7-1.7,3.8,0.4,2.1,1.4c0.3,0.4,0.5,1.3,0,2.3c-0.1,0.4-0.3,0.7-0.3,0.8
			c-0.4,0-0.7,0.1-0.9,0.4l-1,0.9c-0.4,0.4-0.4,1-0.1,1.4l-0.3-0.4c-0.3-0.1-0.5-0.3-0.8,0L61.1,36c-0.3,0.1-0.3,0.5,0,0.8l0.4,0.4
			l-3.8,3.5l-0.3-0.3c-0.3-0.4-0.8-0.4-1.2,0l-0.8,0.7l-0.1-0.1c-0.7-0.5-1.8-0.1-2.1,0.3c-1.8,2.6-3,4.8-3.8,6.9L0,93.7l2.1,2.3
			l46.7-42.9C49,62.1,57.9,68.1,60,79.5c1.7-2.7,3.1-4,3.5-9c3.7,4.3,4.8,5.1,5.3,9.9c6.3-14.1-9.3-22.9-8.3-33.5
			c0.1-0.8-0.4-1.3-0.9-1.7l0.7-0.7c0.3-0.3,0.4-0.8,0-1.2L59.8,43l3.8-3.5l0.7,0.7c0.1,0.3,0.5,0.3,0.8,0l0.5-0.5
			c0.1-0.1,0.3-0.5,0-0.8l-0.4-0.3c0.4,0.4,1.2,0.4,1.6,0l1-0.9c0.3-0.3,0.4-0.8,0.3-1c0.1-0.1,0.4-0.1,0.7-0.3
			c1-0.4,2.1-0.1,2.3,0.3c1.2-1.7,3.3-0.4,1.3,2.1c0,1.7-0.1,3.4-0.1,4.8c1.4-1.6,3.9-6.1,4.7-7.8c-0.4-0.7-0.8-1.4-0.9-2.5
			c-0.4-1.8,0.1-3.5,0.9-3.8c0.9-0.1,1,2.2,1.6,3.8c0.5-1.6,1.7-4.2,2.2-5.1c-1.6,0.8-2.5,0.9-2.5,0.3c-0.1-0.7,0.8-1.6,2.1-1.8
			c0.5,0,1,0,1.4,0c5.1-7.3,15.1-14.3,18.3-22.7c-8.6,2.5-16.4,11.9-24.1,16.3c0,0.4,0,0.9-0.1,1.4c-0.4,1.3-1.3,2.2-2,2
			c-0.7-0.1-0.5-1,0.4-2.5c-0.9,0.4-3.7,1.3-5.2,1.8c1.4,0.7,3.8,0.9,3.7,1.8c-0.3,0.8-2,1.2-3.9,0.7c-0.9-0.3-1.7-0.7-2.2-1.2
			C64.5,24.9,60,27,58.3,28.3z M67.4,36.5c0.3,0.3,0.3,0.7,0.1,0.8c-0.3,0.1-0.5,0.1-0.8-0.1c-0.3-0.3-0.4-0.7-0.1-0.8
			C66.8,36.1,67.1,36.2,67.4,36.5z M55.4,42.8l2.2,2.3l0.1,0.1c0.5,0.5,1.7,1.2,1.6,1.6C58.4,57.1,70.8,64.7,69,76
			c-2.6-6.5-9.3-8.5-8-18c-2.6,6.4,0.9,8.3,1.3,12.5c-0.3,3-0.8,4.3-1.8,6c-1.6-5.3-3.7-9.1-5.5-12.3c0.9-1.4,1.6-6.6,0.4-10.8
			c0.1,2.3-0.3,11.2-2.9,6.9c-2.6-4.6-3.8-8,0-14.2c0.5-0.8,1.4,7.7,0.7,11.5C55.3,51,52.8,42.2,55.4,42.8z M67.1,35.3l0.4,0.5
			c0.1-0.1,0.5-0.1,0.9-0.3c0.7-0.3,1.7-0.4,2.5-0.1c1.8-1.6,4.4,0.5,2.3,3.5c0,0.5,0,1.2-0.1,1.7c1-1.6,2.2-3.7,2.7-5
			c-0.4-0.7-0.7-1.4-0.8-2.2c-0.3-1.6-0.3-4.6,1.7-4.8c0.3-0.1,0.4-0.1,0.5,0c0-0.1,0-0.1,0-0.1c-0.3-1.6,1.7-2.6,2.9-2.7
			c0.4-0.1,0.8-0.1,1.2-0.1C85.5,19.8,92.7,14.2,96.9,8L67.1,35.3z M78.4,29.7c0.1,0.1,0.3,0.4,0.3,0.7c0.1-0.3,0.3-0.5,0.4-0.7
			C78.7,29.7,78.6,29.7,78.4,29.7z"/>
	</g>
</g>
</svg>
