<?xml version="1.0" encoding="utf-8"?>
<!-- Generator: Adobe Illustrator 27.9.0, SVG Export Plug-In . SVG Version: 6.00 Build 0)  -->
<svg version="1.1" id="Layer_1" xmlns="http://www.w3.org/2000/svg" xmlns:xlink="http://www.w3.org/1999/xlink" x="0px" y="0px"
	 viewBox="0 0 100 100" style="enable-background:new 0 0 100 100;" xml:space="preserve">
<g>
	<g>
		<path d="M60.1,46.4l0.2-5.1c1.4,1.9,3.1,3.6,5,5.1L60.1,46.4z"/>
		<path d="M59.8,56.5l0.3-8.1l8.1-0.1c4.6,2.8,10.1,4.4,15.9,4.3c3.4-0.1,6.7-0.8,9.8-2c0.3,1.5,0.5,3.1,0.5,4.7
			c0.2,7.4-2.7,14.2-7.4,19.2c-5.7,6-14,9.2-22.7,8.2c-0.9-0.1-1.8-0.3-2.6-0.4c1.5-3.7,2.3-7.7,2.2-11.7
			C63.7,65.4,62.2,60.6,59.8,56.5z"/>
		<path d="M58,48.5l-0.2,5.1c-1.4-1.9-3.1-3.6-5-5L58,48.5z"/>
		<path d="M58.3,38.3l-0.3,8.1L50,46.5c-2-1.2-4.2-2.2-6.4-2.9c2.6-5.1,6.8-9.2,12-11.8C56.2,34.1,57.1,36.3,58.3,38.3z"/>
		<path d="M13.6,43.7l-5.3-1c1.3-0.4,2.7-0.6,4.1-0.7L13.6,43.7z"/>
		<path d="M16.4,44.2l-0.9-0.2L14,41.8c0.3,0,0.5,0,0.8,0L16.4,44.2z"/>
		<path d="M31.9,47.2l-13.6-2.6l-1.8-2.7C22.1,42.2,27.9,44.1,31.9,47.2z"/>
		<path d="M18.1,45.9l13.5,2.6c-4.9,1.4-11,1-16.3-0.8L18.1,45.9z"/>
		<path d="M15.3,45.4l0.9,0.2l-2.4,1.6c-0.2-0.1-0.5-0.2-0.7-0.3L15.3,45.4z"/>
		<path d="M8.1,44l5.3,1l-1.8,1.2C10.3,45.6,9.1,44.8,8.1,44z"/>
		<path d="M29.7,53.3l-3.5,0.8c0.7-0.6,1.5-1.1,2.3-1.5L29.7,53.3z"/>
		<path d="M32,52.8l-0.4,0.1l-1.6-1c0.1,0,0.2-0.1,0.3-0.1L32,52.8z"/>
		<path d="M44.4,50l-10.5,2.3l-2-1.3C36,49.6,40.6,49.2,44.4,50z"/>
		<path d="M34.2,53.7l10.5-2.3c-3.1,2.4-7.5,4-11.8,4.4L34.2,53.7z"/>
		<path d="M31.9,54.2l0.4-0.1l-1.1,1.7c-0.1,0-0.2,0-0.3,0L31.9,54.2z"/>
		<path d="M26.5,55.4l3.5-0.8l-0.7,1.2C28.3,55.7,27.4,55.6,26.5,55.4z"/>
		<path d="M51.9,50.5c1.5,1.2,2.8,2.5,4,4L10.4,99.2c-0.6,0.5-1.3,0.8-2,0.8c-0.7,0-1.5-0.3-2-0.8h0c-1.1-1.1-1.1-2.9,0-4L51.9,50.5
			z"/>
		<path d="M66.2,44.4c-1.5-1.2-2.8-2.5-4-4l10.1-9.9c0.6-0.5,1.3-0.8,2-0.8c0.7,0,1.5,0.3,2,0.8l0,0c1.1,1.1,1.1,2.9,0,4L66.2,44.4z
			"/>
	</g>
</g>
<g>
	<g>
		<path d="M60.1,16.8l0.2-5.1c1.4,1.9,3.1,3.6,5,5.1L60.1,16.8z"/>
		<path d="M59.8,26.9l0.3-8.1l8.1-0.1c4.6,2.8,10.1,4.4,15.9,4.3c3.4-0.1,6.7-0.8,9.8-2c0.3,1.5,0.5,3.1,0.5,4.7
			c0.2,7.4-2.7,14.2-7.4,19.2c-5.7,6-14,9.2-22.7,8.2c-0.9-0.1-1.8-0.3-2.6-0.4c1.5-3.7,2.3-7.7,2.2-11.7
			C63.7,35.8,62.2,31,59.8,26.9z"/>
		<path d="M58,18.9L57.8,24c-1.4-1.9-3.1-3.6-5-5L58,18.9z"/>
		<path d="M58.3,8.7l-0.3,8.1L50,17c-2-1.2-4.2-2.2-6.4-2.9c2.6-5.1,6.8-9.2,12-11.8C56.2,4.6,57.1,6.7,58.3,8.7z"/>
		<path d="M13.6,14.1l-5.3-1c1.3-0.4,2.7-0.6,4.1-0.7L13.6,14.1z"/>
		<path d="M16.4,14.6l-0.9-0.2L14,12.2c0.3,0,0.5,0,0.8,0L16.4,14.6z"/>
		<path d="M31.9,17.6L18.3,15l-1.8-2.7C22.1,12.6,27.9,14.5,31.9,17.6z"/>
		<path d="M18.1,16.4L31.6,19c-4.9,1.4-11,1-16.3-0.8L18.1,16.4z"/>
		<path d="M15.3,15.8l0.9,0.2l-2.4,1.6c-0.2-0.1-0.5-0.2-0.7-0.3L15.3,15.8z"/>
		<path d="M8.1,14.4l5.3,1l-1.8,1.2C10.3,16,9.1,15.3,8.1,14.4z"/>
		<path d="M29.7,23.7l-3.5,0.8c0.7-0.6,1.5-1.1,2.3-1.5L29.7,23.7z"/>
		<path d="M32,23.2l-0.4,0.1l-1.6-1c0.1,0,0.2-0.1,0.3-0.1L32,23.2z"/>
		<path d="M44.4,20.4l-10.5,2.3l-2-1.3C36,20,40.6,19.6,44.4,20.4z"/>
		<path d="M34.2,24.1l10.5-2.3c-3.1,2.4-7.5,4-11.8,4.4L34.2,24.1z"/>
		<path d="M31.9,24.6l0.4-0.1l-1.1,1.7c-0.1,0-0.2,0-0.3,0L31.9,24.6z"/>
		<path d="M26.5,25.8L30,25l-0.7,1.2C28.3,26.1,27.4,26,26.5,25.8z"/>
		<path d="M51.9,20.9c1.5,1.2,2.8,2.5,4,4L10.4,69.6c-0.6,0.5-1.3,0.8-2,0.8c-0.7,0-1.5-0.3-2-0.8h0c-1.1-1.1-1.1-2.9,0-4L51.9,20.9
			z"/>
		<path d="M66.2,14.8c-1.5-1.2-2.8-2.5-4-4l10.1-9.9c0.6-0.5,1.3-0.8,2-0.8c0.7,0,1.5,0.3,2,0.8l0,0c1.1,1.1,1.1,2.9,0,4L66.2,14.8z
			"/>
	</g>
</g>
</svg>
