<?xml version="1.0" encoding="utf-8"?>
<!-- Generator: Adobe Illustrator 27.9.0, SVG Export Plug-In . SVG Version: 6.00 Build 0)  -->
<svg version="1.1" id="Layer_1" xmlns="http://www.w3.org/2000/svg" xmlns:xlink="http://www.w3.org/1999/xlink" x="0px" y="0px"
	 viewBox="0 0 100 100" style="enable-background:new 0 0 100 100;" xml:space="preserve">
<path d="M5.9,98.8c0.9-2.5,2.1-4.7,4.7-5.8c0.1-0.1,0.3-0.2,0.3-0.3c-0.1-0.7,0.1-1.1,0.9-1c0.1,0,0.2-0.2,0.4-0.3
	c4.3-4.2,4.2-4.2,8.5-8.4c4.2-4.1,5.1-5.1,9.2-9.2c3.1-3.1,6.2-6.2,9.3-9.3C45,58.6,50.8,52.8,56.6,47c1.9-1.9,3.7-3.8,5.6-5.6
	c0.3-0.3,0.5-0.6,0.3-1.1c-0.3-0.6-0.6-1.2-0.9-1.8c-0.1-0.2-0.1-0.5-0.1-0.8c0.3,0,0.6-0.1,0.8,0.1c0.4,0.2,0.8,0.6,1.1,0.8
	c1-0.9,1.9-1.7,2.7-2.6c0.6-0.6,1.1-1.3,1.6-2c2.4-3.2,4.2-6.6,5-10.6c0.1-0.6,0.2-1.2,0.3-1.8c1.2,1.2,1.7,2.5,1.7,4.1
	c2-1.4,3-3.2,3.4-5.6c0.1-0.4,0.2-0.8,0.5-1.1c1.2-1.6,1.8-3.3,1.8-5.2c0-0.4,0.1-0.6,0.5-0.9c3.5-2.4,6.6-5.3,9-8.9
	c0.9-1.3,1.7-2.7,2.5-4.1c0.1,0.1,0.2,0.1,0.2,0.2c1.3,2.8,2.2,5.7,2,8.8c-0.2,3.5-1.6,6.5-3.4,9.4c-2.8,4.5-6.6,8.3-10.5,11.8
	c-4.3,3.8-8.7,7.5-13.1,11.3c-0.3,0.2-0.5,0.4-0.8,0.7c0.3,0.5,0.6,0.9,0.8,1.3c0.1,0.2,0.1,0.5,0,0.6c-0.1,0.1-0.4,0.1-0.6,0.1
	c-0.3-0.2-0.6-0.4-0.9-0.7c-0.8-0.6-1.3-0.6-2.1,0.1c-2.2,2.1-4.4,4.1-6.7,6.2c-0.8,0.8-1.6,1.6-2.4,2.4c-4.1,4.1-8.2,8.2-12.3,12.3
	c-4.9,4.9-9.9,9.8-14.9,14.7c-3.9,3.9-4.6,4.6-8.5,8.5c-2.5,2.5-0.8,0.7-3.3,3.3c-0.6,0.6-1.2,1.3-1.9,1.9c-0.6,0.5-0.6,1.7-1.8,1.7
	c0,0-0.1,0.2-0.2,0.3c-1.2,3-3.9,4.1-6.7,5.3C5.7,99.5,5.8,99.2,5.9,98.8z"/>
</svg>
