<?xml version="1.0" encoding="utf-8"?>
<!-- Generator: Adobe Illustrator 27.9.0, SVG Export Plug-In . SVG Version: 6.00 Build 0)  -->
<svg version="1.1" id="Layer_1" xmlns="http://www.w3.org/2000/svg" xmlns:xlink="http://www.w3.org/1999/xlink" x="0px" y="0px"
	 viewBox="0 0 100 100" style="enable-background:new 0 0 100 100;" xml:space="preserve">
<g>
	<path d="M14.3,89.6L14.3,89.6c0.3,0.4,0.4,1,0.2,1.5c-0.2,0.6-0.7,0.9-1.4,1c-0.8,0-1.6,0.4-2.1,0.9c-1.3,1.3-1.3,3.3,0,4.6
		c1.3,1.3,3.3,1.3,4.6,0c0.6-0.6,0.9-1.3,0.9-2.1c0-0.6,0.4-1.1,1-1.4c0.5-0.2,1.1-0.1,1.5,0.2l4.2-4.2l-4.7-4.7L14.3,89.6z"/>
	<rect x="22.5" y="81.1" transform="matrix(0.7071 -0.7071 0.7071 0.7071 -52.6311 41.7847)" width="3.3" height="6.7"/>
	<rect x="27" y="76.7" transform="matrix(0.7071 -0.7071 0.7071 0.7071 -48.2359 43.6101)" width="3.1" height="6.7"/>
	<path d="M32.1,68C32,67.9,32,67.9,32.1,68l-14.4-7.2l-1,1l30.1,30.1l1-1l-10.1-20L32.1,68z"/>
	<path d="M40.2,69l0.9,1.7l30.2-30.2C85,26.8,86.9,10.8,86.8,2.9L66,12.8c-1.3,23.1-25.1,47.8-30.7,53.3l4.4,2.2
		C39.9,68.5,40.1,68.7,40.2,69z"/>
	<path d="M89.8,1.5l-2.1,1c0.3,7.2-0.8,24.4-15.4,39L41.8,72.1l0.9,1.7l31.8-31.8C90.2,26.2,90.3,7.6,89.8,1.5z"/>
</g>
</svg>
