<?xml version="1.0" encoding="utf-8"?>
<!-- Generator: Adobe Illustrator 27.9.0, SVG Export Plug-In . SVG Version: 6.00 Build 0)  -->
<svg version="1.1" id="Layer_1" xmlns="http://www.w3.org/2000/svg" xmlns:xlink="http://www.w3.org/1999/xlink" x="0px" y="0px"
	 viewBox="0 0 100 100" style="enable-background:new 0 0 100 100;" xml:space="preserve">
<g>
	<rect x="41.9" y="45.5" transform="matrix(0.7071 -0.7071 0.7071 0.7071 -19.6511 47.439)" width="11.1" height="3.8"/>
	<polygon points="58.5,50.7 58.5,56.1 88.1,85.7 91,75.6 99.5,99.5 75.6,92.7 85.9,88.3 56.1,58.5 50.7,58.5 47.3,55.1 55.1,47.3 	
		"/>
	<rect x="27" y="16.7" transform="matrix(0.7071 -0.7071 0.7071 0.7071 -13.465 32.5043)" width="11.1" height="31.6"/>
	<rect x="12" y="15.7" transform="matrix(0.7071 -0.7071 0.7071 0.7071 -7.2785 17.5685)" width="11.1" height="3.8"/>
	<path d="M9.9,2.1l2.6,2.6l-7.8,7.8L2.1,9.9c-1-1-1.6-2.4-1.6-3.9C0.5,3,3,0.5,6,0.5C7.5,0.5,8.9,1.1,9.9,2.1z"/>
	<rect x="6.9" y="10.5" transform="matrix(0.7071 -0.7071 0.7071 0.7071 -5.1574 12.4478)" width="11.1" height="3.8"/>
	<path d="M67.1,51.7c0-5.6-4.6-10.2-10.2-10.2c-0.8,0-1.6,0.1-2.4,0.3L49.7,37c1.3-2.9,2-6,2-9.2c0-12.2-10-22.2-22.2-22.2
		c-3.2,0-6.3,0.7-9.2,2l-2.6-2.6c3.6-1.9,7.7-2.9,11.8-2.9c14.1,0,25.6,11.5,25.6,25.6c0,3.8-0.8,7.5-2.4,10.9
		c1.3-0.4,2.7-0.7,4.2-0.7c7.5,0,13.7,6.1,13.7,13.7c0,3.1-1.1,6.1-3,8.5L65,57.8C66.3,56.1,67.1,53.9,67.1,51.7z"/>
</g>
</svg>
