<?xml version="1.0" encoding="utf-8"?>
<!-- Generator: Adobe Illustrator 27.9.0, SVG Export Plug-In . SVG Version: 6.00 Build 0)  -->
<svg version="1.1" id="Layer_1" xmlns="http://www.w3.org/2000/svg" xmlns:xlink="http://www.w3.org/1999/xlink" x="0px" y="0px"
	 viewBox="0 0 100 100" style="enable-background:new 0 0 100 100;" xml:space="preserve">
<g>
	<path d="M88.4,18.1l-6.4-6.4h6.4V18.1z M87.8,20.7l-8.4-8.4L79,12.6l8.4,8.4L87.8,20.7z M98.5,35.3l-3.2-3.2L71.8,55.6l3.2,3.2
		c1.3,1.3,3.5,1.3,4.8,0L98.5,40C99.8,38.7,99.8,36.6,98.5,35.3z M86.6,23.4L86.6,23.4l-10-10l-7.1-7L46,29.8L70.2,54l23.5-23.5
		L86.6,23.4z M44.5,28.2L67.9,4.7l-3.2-3.2c-0.6-0.6-1.5-1-2.4-1c-0.9,0-1.8,0.4-2.4,1L41.2,20.2c-1.3,1.3-1.3,3.5,0,4.8L44.5,28.2z
		 M30.7,60.8C30.7,60.8,30.8,60.9,30.7,60.8l8.4,8.4c0,0,0,0,0,0.1l21.6-21.6l-8.4-8.4L30.7,60.8z M29.2,62.5
		c-1.3-1.3-3.4-1.3-4.8,0L2.3,84.5C1,85.9,1,88,2.3,89.3c0,0,0,0,0,0l8.4,8.4c1.3,1.3,3.5,1.3,4.8,0l22.1-22.1
		c1.3-1.3,1.3-3.5,0-4.8L29.2,62.5z M1.2,93.8l5,5c0.8,0.7,1.9,0.9,2.8,0.4L0.8,91C0.3,91.9,0.4,93,1.2,93.8z"/>
</g>
</svg>
