<?xml version="1.0" encoding="utf-8"?>
<!-- Generator: Adobe Illustrator 27.9.0, SVG Export Plug-In . SVG Version: 6.00 Build 0)  -->
<svg version="1.1" id="Layer_1" xmlns="http://www.w3.org/2000/svg" xmlns:xlink="http://www.w3.org/1999/xlink" x="0px" y="0px"
	 viewBox="0 0 100 100" style="enable-background:new 0 0 100 100;" xml:space="preserve">
<g>
	<path d="M38.7,57.8c-10.4,10-20.7,20-31.1,30c-0.6,0.6-1,1.2-1.1,2c0,0.3,0,0.6,0.2,0.8c1,1,2,2,3,3c0.1,0.1,0.4,0.3,0.5,0.3
		c0.7-0.3,1.6-0.4,2.1-0.9C22.4,82.5,32.5,72,42.6,61.4c0.1-0.1,0.2-0.3,0.3-0.4c-1.2-1.2-2.4-2.4-3.7-3.7
		C39.1,57.5,38.9,57.7,38.7,57.8z"/>
	<path d="M59.2,38.5c0.8,0.8,1.6,1.6,2.4,2.4c6.1-6.1,12.3-12.2,18.4-18.3c-0.8-0.8-1.6-1.7-2.4-2.4C71.5,26.3,65.3,32.4,59.2,38.5z
		"/>
	<path d="M86.8,29.7c-0.1-0.4-0.3-0.7-0.4-1.1c-0.4-1-0.8-2.1-1.3-3.1c0,0,0.1,0,0.1-0.1c1.2,1.5,2.5,3.1,3.7,4.6
		c1.7-1.7,3.3-3.3,4.9-4.9c-1.5-1.2-3-2.4-4.5-3.6c0.3,0,0.5,0,0.7,0.1c1.6,0.6,3.2,1.3,4.8,1.9c0.2,0.1,0.6,0.1,0.7,0
		c0.6-0.5,1.1-1,1.8-1.6c-2.8-1-5.4-2-8.1-2.9c-0.2-0.1-0.6,0.1-0.7,0.2c-1.8,1.8-3.7,3.7-5.5,5.5c-0.3,0.3-0.4,0.6-0.2,1
		c0.6,1.6,1.2,3.2,1.8,4.8c0.3,1,0.7,1.9,1.1,2.9C87.6,31.9,87.6,31.7,86.8,29.7z"/>
	<path d="M70.5,12.8c1.3-1.3,2.4-2.4,3.7-3.7c-0.6-0.5-1.2-1.1-1.8-1.6c-4.7-4-10.1-5.9-16.3-5.1c-0.6,0.1-1.3,0.2-1.9,0.4
		c-0.2,0.1-0.4,0.3-0.6,0.5c0,0.1,0,0.1,0.1,0.2C60.9,3.8,66.2,7.4,70.5,12.8z"/>
	<path d="M74.7,8.7c0.7-0.7,1.4-1.3,2-2c-0.1-0.1-0.2-0.2-0.3-0.3c-5.2-4.8-11.3-6.8-18.3-5.7c-1.4,0.2-2.7,0.5-3.8,1.5
		C62.4,0.5,68.9,3.3,74.7,8.7z"/>
	<path d="M50.8,46.6c0.9,0.9,1.8,1.8,2.8,2.8c2.2-1.7,4.4-3.4,6.6-5.1c-1.4-1.4-2.9-2.8-4.3-4.2C54.2,42.2,52.5,44.4,50.8,46.6z"/>
	<path d="M42.4,55c0.9,0.9,1.9,1.9,2.8,2.8c2.2-1.7,4.4-3.4,6.5-5c-1.4-1.4-2.8-2.9-4.2-4.3C45.8,50.7,44.1,52.9,42.4,55z"/>
	<path d="M75,17.5c0.2,0.1,0.5-0.1,0.6-0.2c1.9-1.8,3.7-3.7,5.5-5.5c0.1-0.1,0.2-0.5,0.2-0.7c-0.3-1.2-0.7-2.4-1.1-3.6
		c-3,3-5.9,5.9-8.9,8.9C72.6,16.8,73.8,17.2,75,17.5z"/>
	<path d="M80.9,22.4c1.9-1.9,3.8-3.7,5.5-5.5c-1.1-1.1-2.2-2.2-3.2-3.2c-1.8,1.8-3.7,3.7-5.5,5.5C78.8,20.2,79.9,21.3,80.9,22.4z"/>
	<path d="M1.6,95.9c-0.2,0.4-0.4,0.9-0.5,1.4c-0.3,1.8,0.5,2.5,2.3,2.1c0.3-0.1,0.7-0.2,1-0.3c1-0.5,2.1-1.1,3-1.5
		c-1.4-1.4-2.9-2.9-4.4-4.4C2.5,94,2,95,1.6,95.9z"/>
	<path d="M71.3,13c-0.2,0.2-0.3,0.4-0.3,0.6c0,0.6,0,1.3,0,2c0.1,0,0.2,0.1,0.3,0.1c2.8-2.8,5.6-5.6,8.4-8.4c0-0.1-0.1-0.2-0.1-0.3
		c-0.6,0-1.3,0-1.9,0c-0.2,0-0.5,0.1-0.6,0.3C75,9.3,73.2,11.1,71.3,13z"/>
	<path d="M88,18.5c0.4-0.4,0.5-0.9,0-1.3c-0.4-0.4-0.9-0.3-1.3,0.1c-0.1,0.1-0.1,0.1-0.2,0.2c-1.7,1.7-3.5,3.5-5.2,5.2
		c-0.2,0.2-0.4,0.4-0.5,0.6c-0.3,0.6,0.2,1.2,0.9,1.2c0.1-0.1,0.3-0.1,0.5-0.3C84.3,22.3,86.2,20.4,88,18.5z"/>
	<path d="M76,17.6c-0.5,0.5-0.6,1.1-0.1,1.4c0.5,0.4,0.9,0.3,1.4-0.1c1.8-1.8,3.7-3.7,5.5-5.5c0.2-0.2,0.3-0.5,0.5-0.8
		c-0.2-0.3-0.4-0.7-0.7-0.7c-0.4,0-0.8,0.1-1.1,0.3C79.6,13.9,77.8,15.8,76,17.6z"/>
	<path d="M4.4,92.8c0,0.2,0,0.4,0.2,0.5c0.8,0.9,1.7,1.7,2.6,2.6C7.3,96,7.6,96.1,7.8,96c0.7-0.2,1.4-0.5,1.9-0.7
		c-1.5-1.5-3.1-3-4.6-4.6C4.9,91.4,4.7,92.1,4.4,92.8z"/>
	<path d="M50.4,47.4c-0.1-0.1-0.4-0.1-0.6-0.1c-0.6,0.2-1.2,0.4-1.7,0.6c1.4,1.4,2.8,2.8,4.1,4.1c0.2-0.5,0.4-1.1,0.6-1.8
		c0.1-0.2,0-0.4-0.1-0.6C52,49,51.2,48.2,50.4,47.4z"/>
	<path d="M58.9,39.1c-0.1-0.1-0.4-0.2-0.5-0.2c-0.7,0.2-1.3,0.5-1.9,0.7c1.4,1.4,2.8,2.8,4.1,4.1c0.2-0.6,0.5-1.2,0.6-1.8
		c0.1-0.2,0-0.5-0.1-0.6C60.4,40.6,59.7,39.8,58.9,39.1z"/>
	<path d="M42.1,56c-0.1-0.1-0.5-0.2-0.7-0.2c-0.6,0.2-1.2,0.4-1.7,0.6c1.3,1.4,2.7,2.8,4.1,4.2c0.2-0.6,0.4-1.1,0.6-1.7
		c0.1-0.2,0-0.6-0.1-0.7C43.7,57.4,42.9,56.7,42.1,56z"/>
	<path d="M87.7,12.3c-1.3,0.3-2.4,0.5-3.5,0.7c1,1,2,2,3,3C87.4,14.8,87.5,13.6,87.7,12.3z"/>
	<path d="M99,27.1c-0.4-1.5-0.8-3-1.3-4.8c-0.3,0.4-0.4,0.7-0.6,0.8c-1.3,0.9-1.5,2-0.9,3.4c0.2,0.5,0.2,1,0.3,1.5
		c-0.1,0-0.2,0.1-0.2,0.1c-0.5-0.8-1.1-1.5-1.6-2.3c-1.7,1.7-3.3,3.3-5,5c0.8,0.5,1.5,1.1,2.3,1.6c-0.3,0.1-0.6,0.2-0.9,0.1
		c-0.7-0.2-1.4-0.4-2.1-0.5c-0.2,0-0.5-0.1-0.6,0c-0.6,0.6-1.2,1.2-1.9,1.9c1.6,0.5,3.1,0.9,4.5,1.3c0.2,0,0.5-0.1,0.6-0.2
		c2.4-2.4,4.9-4.9,7.3-7.3C98.9,27.5,99,27.2,99,27.1z"/>
</g>
</svg>
