<?xml version="1.0" encoding="utf-8"?>
<!-- Generator: Adobe Illustrator 27.9.0, SVG Export Plug-In . SVG Version: 6.00 Build 0)  -->
<svg version="1.1" id="Layer_1" xmlns="http://www.w3.org/2000/svg" xmlns:xlink="http://www.w3.org/1999/xlink" x="0px" y="0px"
	 viewBox="0 0 100 100" style="enable-background:new 0 0 100 100;" xml:space="preserve">
<g>
	<path d="M35.6,59.8l8.2,8.2l28.5-28.5c13.8-13.8,12-23.5,10.6-27L35.6,59.8z"/>
	<path d="M26.9,76.7c-0.2-0.2-0.3-0.3-0.3-0.5L25,70.4l-7.2,7.2c-2.3,2.3-2.3,6,0,8.2c2.3,2.3,6,2.3,8.2,0l7.2-7.2L27.5,77
		C27.3,77,27.1,76.9,26.9,76.7z"/>
	<path d="M29.9,65.5L27,68.4l1.8,6.4l6.4,1.8l2.9-2.9c-1.6-1.4-3.1-2.8-4.3-4C32.7,68.5,31.3,67.1,29.9,65.5z"/>
	<path d="M35.7,67.9c7.6,7.6,13.7,11.2,16.6,12.2L23.5,51.3C24.5,54.3,28.1,60.4,35.7,67.9z"/>
</g>
</svg>
