<?xml version="1.0" encoding="utf-8"?>
<!-- Generator: Adobe Illustrator 27.9.0, SVG Export Plug-In . SVG Version: 6.00 Build 0)  -->
<svg version="1.1" id="Layer_1" xmlns="http://www.w3.org/2000/svg" xmlns:xlink="http://www.w3.org/1999/xlink" x="0px" y="0px"
	 viewBox="0 0 100 100" style="enable-background:new 0 0 100 100;" xml:space="preserve">
<path d="M42.7,86.3l-21.7-34l1,0l1.7-1.9l41.6,0c-0.2-0.3-0.3-0.6-0.4-1l-41.2,0l-1.7-1.8l-1.1,0l21.7-34.1c0,0,0-0.1-0.1-0.1
	c-0.2-0.3-0.3-0.6-0.5-0.9L19.9,47.7h-5.2l1.7,1.9l2.3,0l-0.1,0.2c0,0-0.1,0.1-0.1,0.2c0,0,0,0,0,0c0,0.1,0,0.1,0,0.2c0,0,0,0,0,0.1
	c0,0,0,0.1,0,0.1c0,0,0,0,0,0l0.1,0.2h-2.4l-1.7,1.9l5.2,0l22.3,35C42.3,87,42.5,86.7,42.7,86.3C42.7,86.4,42.7,86.4,42.7,86.3z
	 M78.1,50.5l3.1,1.4l4.1-1.9l-4.1-1.9l-3.1,1.4l-7.6,0c0.2,0.3,0.3,0.6,0.4,1L78.1,50.5z M48.1,18.6c0.1,0.1,0.1,0.1,0.2,0.2
	c1.6,1.6,3.2,3.1,4.8,4.6c0.8,0.7,1.5,1.5,2.3,2.2c2.5,2.5,4.8,5,6.7,7.8c2.1,2.9,3.7,6.2,4.2,9.5l0.3,0.2l0,0l0.4,0.3l2.5,1.7
	c-0.1-2.5-0.7-4.9-1.6-7.1c-0.9-2.3-2.2-4.3-3.6-6.2c-1.7-2.2-3.5-4.3-5.4-6.2c-1.4-1.4-2.8-2.7-4.2-4c-1.7-1.6-3.4-3.1-5.1-4.6
	c-0.3-0.3-0.6-0.5-0.8-0.8c-1.3-1.3-2.6-2.7-3.5-4.2c-0.5-0.9-1-1.8-1.1-2.8c0-0.2-0.1-0.5-0.1-0.7l0-0.8c0.1-0.5,0.1-1,0.3-1.5
	c0.3-1,0.7-1.9,1.4-2.7c0.6-0.8,1.5-1.5,2.4-1.9l0.1,0c0.4-0.2,0.6-0.7,0.4-1.1c0-0.1-0.1-0.2-0.2-0.2c-0.2-0.2-0.6-0.3-0.9-0.2
	c-1.3,0.6-2.2,1.3-3.1,2.3c-0.9,0.9-1.5,2.1-1.8,3.3c-0.2,0.6-0.3,1.2-0.4,1.9l-0.1,0.9c0,0.3,0,0.7,0,1c0.2,1.3,0.7,2.5,1.3,3.6
	C44.8,15.2,46.4,16.9,48.1,18.6z M48.7,99.5c0.2-0.3,0.1-0.7-0.2-1c-0.1-0.1-0.1-0.1-0.2-0.2l-0.1,0c-0.7-0.3-1.3-0.8-1.9-1.4
	c-0.2-0.2-0.3-0.3-0.5-0.5c-0.7-0.8-1.1-1.7-1.4-2.7c-0.1-0.5-0.2-1-0.3-1.5l0-0.8c0-0.3,0-0.5,0.1-0.7c0.1-1,0.5-1.9,1.1-2.8
	c1.1-1.8,2.7-3.4,4.3-5c1.6-1.6,3.4-3.1,5.1-4.6c3.4-3.1,6.8-6.4,9.6-10.2c1.4-1.9,2.7-4,3.6-6.2c0.7-1.6,1.2-3.3,1.4-5l-0.1,0l0,0
	l-0.4-0.3l-2.4-1.6c0,4.1-1.9,8.1-4.4,11.6c-2.6,3.6-5.7,6.9-9,10c-1.7,1.6-3.3,3.1-5,4.8c-1.6,1.7-3.3,3.4-4.5,5.5
	c-0.6,1.1-1.1,2.3-1.3,3.6c0,0.3-0.1,0.7,0,1l0.1,0.9c0.1,0.6,0.2,1.3,0.4,1.9c0.4,1.2,1,2.4,1.8,3.3c0.1,0.2,0.3,0.3,0.4,0.5
	c0.7,0.7,1.6,1.4,2.6,1.8C48,100.1,48.5,99.9,48.7,99.5z M69.4,53.4l-3.1-2.1c-0.6,0.2-0.6,1.7-0.1,2.2c0,0,0.1,0.1,0.1,0.1l0.6,0.4
	l2.5,1.7C70,55.5,70,54,69.4,53.4C69.5,53.5,69.5,53.5,69.4,53.4z M66.3,50C66.3,50.1,66.3,50.1,66.3,50l0.7,0.5l2.5,1.7
	c0.6-0.2,0.6-1.7,0.1-2.2c0,0-0.1-0.1-0.1-0.1l-3.1-2.1C65.8,48,65.8,49.5,66.3,50z M66.3,46.5C66.4,46.5,66.4,46.5,66.3,46.5L67,47
	l2.5,1.7c0.6-0.2,0.6-1.7,0.1-2.2c0,0-0.1-0.1-0.1-0.1l-3.1-2.1C65.9,44.5,65.8,46,66.3,46.5z"/>
</svg>
