<?xml version="1.0" encoding="utf-8"?>
<!-- Generator: Adobe Illustrator 27.9.0, SVG Export Plug-In . SVG Version: 6.00 Build 0)  -->
<svg version="1.1" id="Layer_1" xmlns="http://www.w3.org/2000/svg" xmlns:xlink="http://www.w3.org/1999/xlink" x="0px" y="0px"
	 viewBox="0 0 100 100" style="enable-background:new 0 0 100 100;" xml:space="preserve">
<g>
	<path d="M61.4,33.1c-0.2,0.2-0.5,0.3-0.7,0.5c-1.5,1.5-1.5,4.1,0,5.6c1.5,1.5,4.1,1.5,5.6,0c0.2-0.2,0.4-0.4,0.5-0.7
		c0.1-1.8,0.2-4.7-0.2-5.4C66.1,32.9,63.2,33.1,61.4,33.1z"/>
	<path d="M91.3,20.7c1.1-0.6,2.7-1.5,3.7-2.2c-1.1-0.1-2.8,0-3.9,0.1c-3.6,0.2-6.7,0.3-8.3-1.3c-1.6-1.6-1.5-4.7-1.3-8.3
		c0.1-1.1,0.1-2.8,0.1-3.9c-0.7,1-1.6,2.6-2.2,3.7c-1.7,3.1-3.2,5.8-5.3,6.4c-2.1,0.6-4.6-0.9-7.5-2.7c-1.2-0.7-3-1.8-4.1-2.2
		c0.4,1.1,1.5,2.9,2.2,4.1c1.8,2.9,3.3,5.4,2.7,7.5c-0.6,2.1-3.3,3.6-6.4,5.3c-1.1,0.6-2.7,1.5-3.7,2.2c1.1,0.1,2.8,0,3.9-0.1
		c3.6-0.2,6.7-0.3,8.3,1.3c1.6,1.6,1.5,4.7,1.3,8.3c-0.1,1.1-0.1,2.8-0.1,3.9c0.7-1,1.6-2.6,2.2-3.7c1.7-3.1,3.2-5.8,5.3-6.4
		c2.1-0.6,4.6,0.9,7.5,2.7c1.2,0.7,3,1.8,4.1,2.2c-0.4-1.1-1.5-2.9-2.2-4.1c-1.8-2.9-3.3-5.4-2.7-7.5C85.5,23.9,88.2,22.4,91.3,20.7
		z"/>
	<path d="M56.5,37.9c-1.5-1.5-4.1-1.5-5.6,0c-1.5,1.5-1.5,4.1,0,5.6L6.2,88.2c-1.5,1.5-1.5,4.1,0,5.6c1.5,1.5,4.1,1.5,5.6,0
		l44.8-44.8c1.5,1.5,4.1,1.5,5.6,0c1.5-1.5,1.5-4.1,0-5.6L56.5,37.9z"/>
</g>
</svg>
