<?xml version="1.0" encoding="utf-8"?>
<!-- Generator: Adobe Illustrator 27.9.0, SVG Export Plug-In . SVG Version: 6.00 Build 0)  -->
<svg version="1.1" id="Layer_1" xmlns="http://www.w3.org/2000/svg" xmlns:xlink="http://www.w3.org/1999/xlink" x="0px" y="0px"
	 viewBox="0 0 100 100" style="enable-background:new 0 0 100 100;" xml:space="preserve">
<g>
	<path d="M62.3,35l-38.2,38L27,76l37.5-37.4l0.3-2.8c-0.3-0.3-0.6-0.6-0.9-1L62.3,35z"/>
	<path d="M71.2,8.7l-4-5.1l0.6,6.7C68.9,9.6,70,9.1,71.2,8.7z"/>
	<path d="M60.6,28.7l-6.1,4.9l7.9-0.9c-0.5-0.8-0.9-1.6-1.2-2.4C60.9,29.8,60.7,29.2,60.6,28.7z"/>
	<path d="M79.1,39.7L84,46l-0.7-7.8C82,38.9,80.6,39.4,79.1,39.7z"/>
	<path d="M91.4,20.2l5.3-4.3l-6.5,0.7c0.2,0.4,0.3,0.7,0.5,1.1C91,18.5,91.3,19.3,91.4,20.2z"/>
	<path d="M89.5,24.6c0.1-2-0.2-4.1-1-6c-0.6-1.5-1.5-2.9-2.6-4.1c-0.7,0.9-2,1.5-3.5,1.5c-0.9,0-1.9-0.2-2.9-0.6
		c-1.7-0.7-3.1-2-3.6-3.4c-0.2-0.6-0.3-1.2-0.2-1.8C72,10.4,68.5,12,66,14.7c0.3,0.3,0.5,0.7,0.7,1.1c0.6,1.4,0.5,3.3-0.3,5
		c-0.9,2.1-2.5,3.6-4.1,3.9c0.1,1.6,0.4,3.1,1,4.6c0.6,1.6,1.6,3,2.7,4.2c1.3-1.3,3.7-1.6,6.1-0.6c1.7,0.7,3.1,2,3.6,3.4
		c0.2,0.5,0.3,0.9,0.3,1.4c3.3-0.1,6.4-1.3,8.8-3.5c-0.1-0.2-0.2-0.4-0.3-0.6c-0.6-1.4-0.4-3.3,0.3-5C85.8,26.2,87.7,24.6,89.5,24.6
		z M81.7,26.4c-1,2.4-3.4,3.9-5.9,3.9c-0.8,0-1.6-0.1-2.4-0.5c-1.5-0.7-2.7-1.8-3.4-3.4c-0.6-1.6-0.6-3.3,0-4.9
		c1.4-3.2,5.1-4.8,8.2-3.4c1.5,0.6,2.7,1.8,3.4,3.4C82.4,23.1,82.3,24.9,81.7,26.4z"/>
	<path d="M71.2,35.2c-1.8-0.8-3.5-0.5-3.8,0.3c0,0.1,0,0.2-0.1,0.2c0,0.1-0.1,0.1-0.1,0.2l-1.4,12l7.7-9.4c0-0.1,0-0.1,0.1-0.2
		c0-0.1,0.1-0.1,0.1-0.2c0.1-0.2,0.1-0.5-0.1-0.8C73.2,36.5,72.3,35.7,71.2,35.2z"/>
	<path d="M61.1,22.4c0.1,0,0.1,0.1,0.2,0.1c0.7,0.2,2.1-0.6,2.9-2.5c0.5-1.2,0.6-2.5,0.3-3.3c-0.1-0.3-0.3-0.5-0.5-0.6
		c-0.1,0-0.2,0-0.2-0.1c-0.1,0-0.1,0-0.2-0.1l-12-1.3l9.3,7.6C61,22.4,61.1,22.4,61.1,22.4z"/>
	<path d="M80.5,13.2c1.8,0.8,3.5,0.5,3.8-0.3c0-0.1,0-0.1,0.1-0.2c0-0.1,0.1-0.1,0.1-0.2l1.4-12l-7.7,9.4c0,0.1,0,0.1-0.1,0.2
		c0,0.1-0.1,0.1-0.1,0.2c-0.1,0.2-0.1,0.5,0.1,0.8C78.4,12,79.3,12.8,80.5,13.2z"/>
	<path d="M90.2,27.1L90,27.1C90,27,89.9,27,89.8,27c-0.7-0.2-2.1,0.6-2.9,2.5c-0.5,1.2-0.6,2.5-0.3,3.3c0.1,0.3,0.3,0.5,0.5,0.6
		c0.1,0,0.2,0,0.2,0.1c0.1,0,0.1,0,0.2,0.1l12,1.3L90.2,27.1z"/>
	<path d="M77.5,20.3c-2-0.8-4.4,0.1-5.2,2.2c-0.4,1-0.4,2.1,0,3.1c0.4,1,1.1,1.7,2.1,2.1c2,0.8,4.4-0.1,5.2-2.2c0.4-1,0.4-2.1,0-3.1
		C79.2,21.5,78.4,20.7,77.5,20.3z"/>
	<path d="M20.9,73.2c-0.2-0.2-0.6-0.4-0.9-0.4c-0.3,0-0.7,0.1-1,0.4l-0.3,0.3c-0.3,0.3-0.4,0.6-0.4,1c0,0.3,0.1,0.7,0.4,0.9l6,6
		c0.2,0.2,0.6,0.4,0.9,0.4c0.4,0,0.7-0.1,1-0.4l0.3-0.3c0.3-0.3,0.4-0.6,0.4-1c0-0.3-0.1-0.7-0.4-0.9L20.9,73.2z"/>
	<polygon points="8.1,88 10,89.9 12.1,92 22.1,82.1 18,78 	"/>
	<path d="M5.4,88.5c-0.5-0.5-1.1-0.7-1.8-0.7c-0.7,0-1.4,0.3-1.9,0.8l-0.5,0.5c-0.5,0.5-0.8,1.2-0.8,1.9c0,0.7,0.3,1.3,0.7,1.7
		l6.1,6.1c1,1,2.6,0.9,3.6-0.1l0.5-0.5c0.5-0.5,0.8-1.2,0.8-1.9c0-0.7-0.3-1.3-0.7-1.7L5.4,88.5z"/>
</g>
</svg>
