<?xml version="1.0" encoding="utf-8"?>
<!-- Generator: Adobe Illustrator 27.9.0, SVG Export Plug-In . SVG Version: 6.00 Build 0)  -->
<svg version="1.1" id="Layer_1" xmlns="http://www.w3.org/2000/svg" xmlns:xlink="http://www.w3.org/1999/xlink" x="0px" y="0px"
	 viewBox="0 0 100 100" style="enable-background:new 0 0 100 100;" xml:space="preserve">
<path d="M86.9,13.6c-5.1-9-20.7-10.9-30.9-3.9c-4.2,2.9-5.9,4.3-5.6,6.1s6.8-1.1,10.1-1.5c3.3-0.4,10.5-0.7,12.7,0.9
	c5.9,4.1,5.9,7.8,7.2,10c1.3,2.2,0.6,7.9-1,11.5c-1.6,3.6-9.8,4.6-15.8,2.4c-3.9-1.4-6.7-4.9-7.1-9c-0.1-0.7-0.6-1.2-1.3-1.2
	c-0.4,0-0.8-0.1-1.2-0.2c-0.6-0.2-1.2,0.1-1.5,0.6c-0.8,1.7-1.4,3.5-1.6,5.4c0,0.2,0,0.5,0.1,0.7c0.8,1.8,1.2,5,0.2,6.1
	c-2.7,2.8-4.8,5.1-6.5,7.1l-3,0.5c-1.4,0.3-2.4,1.6-2.1,3.1c0.1,0.5,0.3,0.9,0.7,1.3l-2.9,0.5c-1.4,0.3-2.4,1.6-2.1,3.1
	c0.1,0.5,0.3,0.9,0.7,1.3L33.2,59c-1.4,0.3-2.4,1.6-2.1,3.1c0.1,0.5,0.3,0.9,0.6,1.3l0,0l-1.3,0.2c-1.4,0.3-2.4,1.6-2.1,3.1l0,0
	c0.1,0.3,0.2,0.5,0.3,0.8c-0.9,1.1-1.9,2.4-3.3,4.1c-7.5,9-17.4,19.2-17.4,19.2c0,1.1,2.9,3.9,4,3.7c1.1-0.2,11.8-12.3,16.1-16.6
	c3.9-3.9,8.2-7.6,12.7-10.9l3.5-0.7c1.4-0.3,2.4-1.6,2.1-3.1l0,0c0-0.2-0.1-0.4-0.2-0.6l1.1-1l3.6-0.7c1.4-0.3,2.4-1.6,2.1-3.1
	c-0.1-0.4-0.3-0.8-0.5-1.2l0.2-0.2l2.3-0.4c1.4-0.3,2.4-1.6,2.1-3.1c-0.1-0.2-0.1-0.5-0.2-0.7c0.3-0.3,0.6-0.6,0.9-0.9l1.9-0.3
	c1-0.2,1.8-0.9,2-1.8c3.6-0.1,9.8,3.7,19.8-1.1c9.6-4.6,11.4-8.3,10.9-14.4C91.5,27.9,92,22.7,86.9,13.6z M72.9,9.1L72.9,9.1
	c-0.6,0-1.1,0-1.7,0c-0.9-0.1-1.8-0.3-2.6-0.7c-1.3-0.5-3.4-0.1-6.2,1.3c-0.2,0.1-0.4,0-0.5-0.2c-0.1-0.2,0-0.4,0.2-0.5l0,0
	c3-1.5,5.2-1.9,6.7-1.3l0.1,0c0.8,0.3,1.6,0.5,2.4,0.6c0.5,0.1,1,0.1,1.6,0c0.2,0,0.4,0.2,0.4,0.4C73.2,8.9,73.1,9,72.9,9.1
	L72.9,9.1z M23,81.5c-0.8,0.7-1.6,1.5-2.4,2.3c-0.6,0.6-1.2,1.3-1.8,1.9c-0.1,0.1-0.1,0.1-0.2,0.1c-0.1,0-0.2,0-0.3-0.1
	c-0.2-0.1-0.2-0.4,0-0.6c0.6-0.7,1.2-1.3,1.8-2c0.8-0.8,1.6-1.6,2.5-2.4c0.2-0.1,0.4-0.1,0.5,0c0,0,0,0,0,0
	C23.1,81.1,23.1,81.4,23,81.5z M43.7,64.4L31,66.7c-0.3,0-0.6-0.1-0.6-0.4c-0.1-0.3,0.1-0.6,0.4-0.6l12.7-2.4
	c0.3-0.1,0.6,0.1,0.6,0.4C44.2,64,44,64.3,43.7,64.4z M50.3,59l-16.5,3.1c-0.3,0.1-0.6-0.1-0.6-0.4c-0.1-0.3,0.1-0.6,0.4-0.6
	L50.1,58c0.3,0,0.5,0.1,0.6,0.4l0,0l0,0C50.7,58.7,50.5,59,50.3,59z M54.4,54.2l-16.2,3c-0.2,0-0.4,0-0.5-0.2l0,0c0-0.1,0-0.1,0-0.2
	c0-0.3,0.1-0.6,0.4-0.6l16.2-3c0.3-0.1,0.6,0.1,0.6,0.4C54.8,53.8,54.6,54.1,54.4,54.2z M59,49.2l-16.6,3.1
	c-0.3,0.1-0.6-0.1-0.6-0.4c0-0.3,0.1-0.6,0.4-0.6l16.6-3.1c0.3-0.1,0.6,0.1,0.6,0.4C59.5,48.9,59.3,49.1,59,49.2z M62.7,40.9
	c0,0.2-0.1,0.3-0.3,0.4l-0.1,0c-6.2-0.5-7.7-9.9-7.8-10.3c0-0.2,0.1-0.4,0.3-0.5c0,0,0,0,0,0c0.2,0,0.4,0.1,0.4,0.3
	c0,0.1,1.5,9.2,7.1,9.6C62.6,40.5,62.7,40.7,62.7,40.9z"/>
</svg>
