<?xml version="1.0" encoding="utf-8"?>
<!-- Generator: Adobe Illustrator 27.9.0, SVG Export Plug-In . SVG Version: 6.00 Build 0)  -->
<svg version="1.1" id="Layer_1" xmlns="http://www.w3.org/2000/svg" xmlns:xlink="http://www.w3.org/1999/xlink" x="0px" y="0px"
	 viewBox="0 0 100 100" style="enable-background:new 0 0 100 100;" xml:space="preserve">
<path d="M60.1,0.5c3,4.5,6.2,8.6,11.2,10.6c0,0.2,0.1,0.5,0.1,0.7c-0.1,4.7,1.6,7.4,5.8,9.3c0.5,0.2,1.1,0.7,1.4,1.2
	c2.2,3.9,4.6,7.6,10.1,6c2,5.4,6.3,8.4,10.9,11.5c-0.8,1-1.4,2.1-2.2,2.9c-4.9,5-9.9,10-14.9,15c-1.2,1.2-1.9,1.9-3.5-0.1
	c-2-2.7-5-4.5-7.2-7.1c-1.2-1.4-3.8-2.5-2.3-5.4c0.4-0.8-0.3-2.5-0.9-3.5c-1.1-1.8-2.7-1.8-4.1-0.1c-0.6,0.7-1.1,1.7-1.8,1.9
	c-4.4,1.2-6.4,5.3-9.6,8c-1.5,1.3-2.3,3.4-3.6,4.9c-1.3,1.4-2.8,2.7-4.3,3.9c-1.1,0.9-2.4,1.6-3.4,2.6C34.4,70.2,27,77.7,19.6,85.1
	c-0.9,0.9-1.5,1.8-1.3,3.3c0.1,1.1-1.1,2.3-1.9,3.4c-0.8,1-2.1,1.8-2.8,2.9c-1.2,1.7-2.4,2.7-4.3,0.6c-0.9,2.6-2.1,4.9-4.9,4
	c-1.5-0.4-3.2-2.1-3.6-3.6c-0.9-2.8,1.4-4.1,4-5c-2.3-2.1-0.8-3.2,0.8-4.4c1-0.8,1.8-1.8,2.6-2.7c1.1-1.2,2.1-2.4,4.1-1.9
	c0.6,0.1,1.6-0.3,2.1-0.8c8.1-7.9,16.1-15.9,24.1-23.9c1.7-1.7,2.8-3.9,4.4-5.6c1-1.1,2.7-1.6,3.8-2.6c1.7-1.6,3-4,4.9-4.9
	c4-2,3.9-6.9,7.5-9.1c0.4-0.3,0.5-2.3,0-2.7c-1-0.9-2.7-2.1-3.7-1.7c-3.7,1.3-4.8-1.2-6.6-3.4c-1.4-1.7-3.5-2.9-5.2-4.4
	c-0.9-0.8-1.7-1.7-2.4-2.6c-0.2-0.3-0.1-1.2,0.2-1.5c5.9-5.9,11.9-11.7,17.8-17.5C59.4,0.7,59.7,0.7,60.1,0.5z M3.7,93.7
	c-2.2,1.8,0.6,2.1,0.7,3.2c0.6-0.1,1.2-0.2,2.1-0.4C5.3,95.3,4.5,94.6,3.7,93.7z"/>
</svg>
