<?xml version="1.0" encoding="utf-8"?>
<!-- Generator: Adobe Illustrator 27.9.0, SVG Export Plug-In . SVG Version: 6.00 Build 0)  -->
<svg version="1.1" id="Layer_1" xmlns="http://www.w3.org/2000/svg" xmlns:xlink="http://www.w3.org/1999/xlink" x="0px" y="0px"
	 viewBox="0 0 100 100" style="enable-background:new 0 0 100 100;" xml:space="preserve">
<g>
	<path d="M97.1,1c0,0-40.8,44.7-65,65.1l5.7,5.7C37.7,71.8,106.1,10,97.1,1z"/>
	<path d="M29.6,66c-0.5-0.5-1.4-0.5-2,0.1c-0.1,0.2-0.2,0.5-0.2,0.8c0,0.3,0.1,0.8,0.3,1l1.2,1.3L2.7,92.8c-0.3,0.3-0.5,0.9-0.5,1.3
		c0,0.4,0.2,0.9,0.4,1.3l2.8,3c0.7,0.7,1.9,0.8,2.5,0.2l26.2-23.7l1.6,1.7c0.5,0.5,1.4,0.5,2-0.1c0.1-0.2,0.2-0.5,0.2-0.8
		c0-0.3-0.1-0.8-0.3-1L29.6,66z M5.5,95.7l-1-3.6L8,93.3l0.9,3.6L5.5,95.7z M8.9,92.1l-0.8-3.4l3.5,1.1l0.9,3.7L8.9,92.1z
		 M12.9,89.1l-1-3.6l3.5,1.2l0.9,3.6L12.9,89.1z M16.6,85.7l-1-3.6l3.5,1.2l0.9,3.6L16.6,85.7z M20.1,82.1l-0.8-3.4l3.5,1.1l0.9,3.7
		L20.1,82.1z M23.9,78.9l-1-3.6l3.5,1.2l0.9,3.6L23.9,78.9z M27.7,75.7l-1-3.6l3.5,1.2l0.9,3.6L27.7,75.7z"/>
</g>
</svg>
