<?xml version="1.0" encoding="utf-8"?>
<!-- Generator: Adobe Illustrator 27.9.0, SVG Export Plug-In . SVG Version: 6.00 Build 0)  -->
<svg version="1.1" id="Layer_1" xmlns="http://www.w3.org/2000/svg" xmlns:xlink="http://www.w3.org/1999/xlink" x="0px" y="0px"
	 viewBox="0 0 100 100" style="enable-background:new 0 0 100 100;" xml:space="preserve">
<path d="M44.6,79.1l-2.7-3.4c23.2-19.8,50.2-50.5,52.8-56C97.5,14.1,94.3,0,94.3,0C73.2,31,42.5,58,33.6,65.5l-1.7-2.1
	c-0.9-1.1-2.6-1.3-3.7-0.4c-1.1,0.9-1.3,2.6-0.4,3.7l1.8,2.2l-23,19.2c-3.5,3-2.7,6.2-0.9,9.1c2.1,3.2,6.1,4.1,10,0.8l22.1-18.8
	l2.6,3.3c0.9,1.1,2.6,1.3,3.7,0.4C45.3,81.9,45.5,80.2,44.6,79.1z M13.7,90.7l-0.5-6.4l6.2,1.6l0.5,6.3L13.7,90.7z M20.4,85L20,78.7
	l6.2,1.6l0.5,6.4L20.4,85z M27.2,79.4L26.7,73l6.2,1.6l0.5,6.4L27.2,79.4z M38,70.5c0,0,4.9-2.2,9.8-6.7c2-1.8,3-5.2,5.4-7.5
	c2.4-2.2,5.1-2.8,7.6-5.2c2.5-2.3,3.5-6.2,6.9-10.2c3.2-3.9,7.8-4.7,10.4-7.5c3.4-3.6,3.3-7,5.2-9.6c2.8-3.8,4.5-2.5,6.9-5.5
	c1.8-2.2,3.5-9.8,3.7-10.5c0.2-0.8,0.7,7.6-0.1,10.1c-0.7,2.5-10.4,15.4-23.7,29C57.4,59.8,41.4,74.4,41.4,74.4L38,70.5z"/>
</svg>
