<?xml version="1.0" encoding="utf-8"?>
<!-- Generator: Adobe Illustrator 27.9.0, SVG Export Plug-In . SVG Version: 6.00 Build 0)  -->
<svg version="1.1" id="Layer_1" xmlns="http://www.w3.org/2000/svg" xmlns:xlink="http://www.w3.org/1999/xlink" x="0px" y="0px"
	 viewBox="0 0 100 100" style="enable-background:new 0 0 100 100;" xml:space="preserve">
<path d="M16.8,90c1.4,0,2.7-0.4,3.9-1.3l0.1,0l0-0.1c0.2-0.2,0.5-0.4,0.7-0.6c1.6-1.6,2.2-3.8,1.9-5.8L34,72.8c-1.4-1-2.7-2.1-3.7-3
	c-1-1-2-2.2-3-3.7l-9.4,10.6c-2.1-0.3-4.3,0.3-5.9,1.9c-0.2,0.2-0.4,0.4-0.6,0.7l-0.1,0l0,0.1C9.4,82,9.6,85.7,12,88
	C13.3,89.4,15.1,90,16.8,90z M14,85.4c-0.7,0-1.3-0.2-1.8-0.7c-1-1-1-2.6,0-3.6c1-1,2.6-1,3.6,0c1,1,1,2.6,0,3.6
	C15.3,85.1,14.6,85.4,14,85.4z M47.8,80L47.8,80l4.3-4.3l1.2-1.2C41,69.7,30.3,58.6,25.5,46.7L20,52.3c0,0,6.2,11.8,10.9,16.6
	c0,0,0.1,0.1,0.1,0.1C35.8,73.7,47.8,80,47.8,80z M43.6,67.8l29.2-27.5L90,10L59.6,27.2l-27.5,29c1.7,2.3,3.5,4.4,5.5,6.5
	C39.5,64.5,41.5,66.2,43.6,67.8z M40.3,59.9c-0.1,0-0.2,0-0.2-0.1c-0.2-0.2-0.1-0.8,0.4-1.2l28.5-28.4c0.4-0.4,1-0.6,1.2-0.4
	c0.2,0.2,0.1,0.8-0.4,1.2L41.3,59.5C40.9,59.8,40.5,60,40.3,59.9z"/>
</svg>
