<?xml version="1.0" encoding="utf-8"?>
<!-- Generator: Adobe Illustrator 27.9.0, SVG Export Plug-In . SVG Version: 6.00 Build 0)  -->
<svg version="1.1" id="Layer_1" xmlns="http://www.w3.org/2000/svg" xmlns:xlink="http://www.w3.org/1999/xlink" x="0px" y="0px"
	 viewBox="0 0 100 100" style="enable-background:new 0 0 100 100;" xml:space="preserve">
<g>
	<path d="M4.7,50.5l2.8,2.8L3.7,57c-1,1-1,2.5,0,3.5c0.5,0.5,1.1,0.7,1.7,0.7c7.8-0.1,8.2,0.2,9.7-0.3l29.6,29.5
		c-0.2,2,0.2,3.9,1.2,5.6c2.2,4,8.4,1.1,6.6-3.2c-3.8-8.9,7.3-13.4,12.2-28.5c1.2-3.8,1.9-7.8,2.1-11.9l14.3,0
		c-0.8,4,2.8,8.2,8.3,5.4c2.4-1.3,5-3.8,7.5-7.4c0.2-0.2,0.2-0.6,0-0.8c-2.6-3.7-5.1-6.2-7.5-7.4c-2.1-1.1-4.2-1.2-5.8-0.4
		c-2,1.1-3,3.4-2.5,5.7l-14.3,0c-0.1-4.1-0.8-8.1-2.1-12c-4.9-15-16-19.6-12.2-28.5c1.9-4.3-4.4-7.3-6.6-3.2
		c-0.9,1.7-1.4,3.7-1.2,5.6L15.1,39.2c-1.4-0.5-1.9-0.2-9.6-0.3C4.1,38.9,3,40,3,41.3c0,0.7,0.3,1.3,0.7,1.7l3.7,3.7l-2.7,2.7
		C4.4,49.8,4.4,50.2,4.7,50.5C4.7,50.5,4.7,50.5,4.7,50.5L4.7,50.5z M16.4,39.9L45,11.3c1.4,6.5,7.1,13.8,10.4,24.7
		c1.1,3.8,1.9,7.6,2.2,11.5l-33.4,0C16.5,40,16.9,40.3,16.4,39.9L16.4,39.9z M86.6,49c1.3,0,1.4,2-0.1,2l-19.7,0c0-0.7,0-1.2,0-2
		L86.6,49z M48.3,6l-2.1,2.1c0.1-1.2,0.4-2.4,1-3.5c1.3-2.5,5.1-0.7,4,2C47,16.3,58,21,63,35.1l-6.3,0c-3.5-11.3-9.5-18.9-10.4-25
		l3-3C50,6.4,48.9,5.4,48.3,6L48.3,6z M7.7,51.1c-1.3,0-1.4-2,0-2l49.9,0c0,0.7,0,1.4,0,2L7.7,51.1z M16.5,60.2c0.5-0.4,0,0,7.7-7.7
		l33.4,0c-0.3,3.9-1,7.7-2.1,11.4c-3.3,10.9-9,18.3-10.4,24.7L16.5,60.2z M47.2,95.4c-0.6-1.1-1-2.3-1-3.5l2.1,2.1
		c0.7,0.7,1.7-0.3,1-1l0,0l-3-3c0.9-6.2,6.9-13.7,10.4-25l6.3,0C58,79,47,83.7,51.2,93.4C52.3,96.1,48.5,97.9,47.2,95.4L47.2,95.4z"
		/>
</g>
</svg>
