<?xml version="1.0" encoding="utf-8"?>
<!-- Generator: Adobe Illustrator 27.9.0, SVG Export Plug-In . SVG Version: 6.00 Build 0)  -->
<svg version="1.1" id="Layer_1" xmlns="http://www.w3.org/2000/svg" xmlns:xlink="http://www.w3.org/1999/xlink" x="0px" y="0px"
	 viewBox="0 0 100 100" style="enable-background:new 0 0 100 100;" xml:space="preserve">
<g>
	<path d="M77.9,21.7c-1.2,1.1-1.9,2.7-1.9,4.5c0,3.4,2.8,6.2,6.2,6.2c0.3,0,0.5,0,0.8-0.1c3-0.4,5.4-3,5.4-6.1
		c0-3.4-2.8-6.2-6.2-6.2C80.4,20,79,20.7,77.9,21.7z"/>
	<path d="M85.2,1.5L74.9,7.1l-5.2,12.4l-0.9,12.8c-1.4,1.5-4.3,4.2-9.7,9l-1,0.9l1.3,0c1.4,0,2.7,0.4,3.8,0.7l0.7,0.2l0.2-0.2
		c3.1-2.5,5.7-4.4,7.7-5.7l8.6,2.1l7.8-5.2l-4.9-1.2l-0.1,0c-0.3,0-0.6,0.1-0.9,0.1c-3.8,0-6.8-3.1-6.8-6.8c0-1.9,0.8-3.7,2.2-5
		l0.1-0.1l2-6.4l11.6-2.9l6.5,10.1L98,4.3L85.2,1.5z"/>
	<path d="M42.6,56.6l-0.3-0.7l-0.6,0.6c-8.5,8.6-9.5,9.4-25.6,22.9c-3.3,2.7-7.1,6-11.8,10c-1.8,1.8-2.5,8-2.2,8.8l0.2,0.4l0.3,0
		c0,0,0,0,0,0c0.1,0,0.3,0,0.5-0.3C29,72.6,29,72.6,45,59.5l0.6-0.5l-0.7-0.3C44,58.2,42.9,57.3,42.6,56.6z"/>
	<path d="M62.5,43.3c-1.1-0.3-3.1-0.7-5-0.4c-0.5,0.1-1,0.2-1.4,0.3L56,43.3c-0.1,0.1-10.2,9.3-12.7,10.8l-0.1,0.1
		c-0.5,0.5-0.6,1.1-0.3,1.8c0.4,1,1.7,2.1,2.8,2.6c0.5,0.2,0.9,0.3,1.1,0.3c0.5,0,0.7-0.2,0.8-0.4c1.7-3.1,10.3-10.4,15.9-14
		l0.9-0.6l-1-0.3C63.3,43.5,63,43.4,62.5,43.3z"/>
</g>
</svg>
