<?xml version="1.0" encoding="utf-8"?>
<!-- Generator: Adobe Illustrator 27.9.0, SVG Export Plug-In . SVG Version: 6.00 Build 0)  -->
<svg version="1.1" id="Layer_1" xmlns="http://www.w3.org/2000/svg" xmlns:xlink="http://www.w3.org/1999/xlink" x="0px" y="0px"
	 viewBox="0 0 100 100" style="enable-background:new 0 0 100 100;" xml:space="preserve">
<g>
	<path d="M54.6,73.5c0.1-0.5,0-1-0.4-1.4L32.8,50.7c-0.4-0.4-0.9-0.5-1.4-0.4c-0.5,0.1-0.9,0.5-1.1,1c-0.4,1.2-2.3,7.4,0.4,10.1
		l12.8,12.8c2.7,2.7,8.9,0.8,10.1,0.4C54.1,74.4,54.5,74,54.6,73.5z"/>
	<path d="M54.2,46.4c0.3-0.3,0.8-0.3,1.1,0s0.3,0.8,0,1.1L43.5,59.3l6.4,6.4l27.8-27.8c8.1-8.1,3.8-21.3,3.6-21.9
		c-0.2-0.5-0.6-0.9-1.1-1c-0.5-0.1-1,0-1.4,0.4L39.2,55l3.2,3.2L54.2,46.4z"/>
	<polygon points="25.6,70.7 20.7,75.6 37.8,75.6 40.3,73.2 37.8,70.7 	"/>
	<polygon points="27.2,69.2 36.3,69.2 31.7,64.6 	"/>
	<path d="M17.8,78.5c-0.6,0.6-0.6,1.5,0,2.1l2.1,2.1c2.9,2.9,7.7,2.9,10.7,0l5.7-5.7H19.2L17.8,78.5z"/>
</g>
</svg>
