<?xml version="1.0" encoding="utf-8"?>
<!-- Generator: Adobe Illustrator 27.9.0, SVG Export Plug-In . SVG Version: 6.00 Build 0)  -->
<svg version="1.1" id="Layer_1" xmlns="http://www.w3.org/2000/svg" xmlns:xlink="http://www.w3.org/1999/xlink" x="0px" y="0px"
	 viewBox="0 0 100 100" style="enable-background:new 0 0 100 100;" xml:space="preserve">
<g>
	<rect x="12.2" y="78.9" transform="matrix(0.7071 -0.7071 0.7071 0.7071 -55.8991 35.4237)" width="5.3" height="12.5"/>
	<path d="M4.8,86.3c-2.4,2.4-2.4,6.4,0,8.9l0,0c2.4,2.4,6.4,2.4,8.9,0l1.8-1.8l-8.9-8.9L4.8,86.3z"/>
	<path d="M25,62.4l5.3,5.3l51.3-51.3c0.5-0.5,1.4-0.5,1.9,0c0.5,0.5,0.5,1.4,0,1.9c0,0,0,0,0,0L32.3,69.6l5.3,5.3l54.2-54.2L97,3
		L79.2,8.2L25,62.4z"/>
	<polygon points="19.6,71.5 14.2,77 23,85.8 28.5,80.4 24.1,75.9 	"/>
	<path d="M17,58.2c-1-1-2.5-1-3.5,0l0,0c-1,1-1,2.5,0,3.5l7,7l0,0L26,74l12.4,12.4c1,1,2.5,1,3.5,0l0,0c1-1,0.9-2.5,0-3.5L17,58.2z"
		/>
</g>
</svg>
