<?xml version="1.0" encoding="utf-8"?>
<!-- Generator: Adobe Illustrator 27.9.0, SVG Export Plug-In . SVG Version: 6.00 Build 0)  -->
<svg version="1.1" id="Layer_1" xmlns="http://www.w3.org/2000/svg" xmlns:xlink="http://www.w3.org/1999/xlink" x="0px" y="0px"
	 viewBox="0 0 100 100" style="enable-background:new 0 0 100 100;" xml:space="preserve">
<style type="text/css">
	.{fill-rule:evenodd;clip-rule:evenodd;}
</style>
<g>
	<g>
		<polygon class="" points="31.6,75.5 14.8,90.4 11.5,97.1 4,96.1 2.8,88.6 9.5,85.2 24.5,68.5 14,57.9 17.6,54.2 31.7,64 
			35.9,68.3 45.8,82.3 42,86.1 		"/>
		<polygon class="" points="97.2,2.9 88.1,24.5 38.4,69.3 37,67.2 32.7,63 30.8,61.6 75.5,12 		"/>
		<polygon class="" points="31.6,75.5 14.8,90.4 11.5,97.1 4,96.1 2.8,88.6 9.5,85.2 24.5,68.5 14,57.9 17.6,54.2 31.7,64 
			35.9,68.3 45.8,82.3 42,86.1 		"/>
		<polygon class="" points="97.2,2.9 88.1,24.5 38.4,69.3 37,67.2 32.7,63 30.8,61.6 75.5,12 		"/>
	</g>
</g>
</svg>
