<?xml version="1.0" encoding="utf-8"?>
<!-- Generator: Adobe Illustrator 27.9.0, SVG Export Plug-In . SVG Version: 6.00 Build 0)  -->
<svg version="1.1" id="Layer_1" xmlns="http://www.w3.org/2000/svg" xmlns:xlink="http://www.w3.org/1999/xlink" x="0px" y="0px"
	 viewBox="0 0 100 100" style="enable-background:new 0 0 100 100;" xml:space="preserve">
<g>
	<path d="M68.8,37.9L67,38.6l3.5,3.5l1.9,1.9c0.3,0.3,0.9,0.3,1.3,0c0.3-0.3,0.3-0.9,0-1.3L68.8,37.9z"/>
	<path d="M62.7,34.3l2.9,2.9l7.8-3.3l1.6-9l-9,1.6L62.7,34.3z M68.6,28.9c0.7-0.7,1.8-0.7,2.5,0c0.7,0.7,0.7,1.8,0,2.5
		c-0.7,0.7-1.8,0.7-2.5,0C67.9,30.7,67.9,29.6,68.6,28.9z"/>
	<rect x="-11.5" y="66.1" transform="matrix(0.7071 -0.7071 0.7071 0.7071 -38.6152 42.5861)" width="87.2" height="3.6"/>
	<path d="M57.9,29.5l3.5,3.5l0.8-1.8l-4.9-4.9c-0.3-0.3-0.9-0.3-1.3,0c-0.3,0.3-0.3,0.9,0,1.3L57.9,29.5z"/>
	<path d="M100,12.3c-0.9,0.2-1.7,0.7-2.3,1.3c-0.4,0.4-0.8,0.9-1,1.5L91.3,27c-0.3,0.8-0.8,1.4-1.4,2c-2.7,2.7-7.1,2.7-9.8,0
		c-2.2-2.2-2.2-5.7,0-7.8l6.5-6.5c0.8-0.8,2.1-1,3.1-0.5l0.5,0.2l2.7-7.3l-7.3,2.7l0.2,0.5c0.5,1,0.3,2.3-0.5,3.1l-6.5,6.5
		c-2.2,2.2-5.7,2.2-7.8,0c-2.7-2.7-2.7-7.1,0-9.8c0.6-0.6,1.3-1.1,2-1.4l11.9-5.4c0.6-0.3,1.1-0.6,1.5-1C87,1.7,87.5,0.9,87.7,0
		c-3.3,1-7.2,1-9.2,0.9l0.5,2.7L69,8.1c-1.2,0.5-2.2,1.2-3.1,2.1c-4,4-4,10.5-0.1,14.6l11.5-2l-2,11.5c4.1,3.9,10.5,3.9,14.6-0.1
		c0.9-0.9,1.6-2,2.1-3.1L96.4,21l2.7,0.5C99,19.6,99,15.6,100,12.3z M66.7,16.9c-0.3,0.3-0.9,0.3-1.3,0c-0.3-0.3-0.3-0.9,0-1.3
		c0.3-0.3,0.9-0.3,1.3,0C67.1,16,67.1,16.6,66.7,16.9z M68.6,21.3c-0.3,0.3-0.9,0.3-1.3,0c-0.3-0.3-0.3-0.9,0-1.3
		c0.3-0.3,0.9-0.3,1.3,0C68.9,20.4,68.9,21,68.6,21.3z M79.9,32.7c-0.3,0.3-0.9,0.3-1.3,0c-0.3-0.3-0.3-0.9,0-1.3
		c0.3-0.3,0.9-0.3,1.3,0C80.3,31.8,80.3,32.3,79.9,32.7z M84.3,34.5c-0.3,0.3-0.9,0.3-1.3,0c-0.3-0.3-0.3-0.9,0-1.3
		c0.3-0.3,0.9-0.3,1.3,0C84.7,33.6,84.7,34.2,84.3,34.5z"/>
</g>
</svg>
