<?xml version="1.0" encoding="utf-8"?>
<!-- Generator: Adobe Illustrator 27.9.0, SVG Export Plug-In . SVG Version: 6.00 Build 0)  -->
<svg version="1.1" id="Layer_1" xmlns="http://www.w3.org/2000/svg" xmlns:xlink="http://www.w3.org/1999/xlink" x="0px" y="0px"
	 viewBox="0 0 100 100" style="enable-background:new 0 0 100 100;" xml:space="preserve">
<g>
	<path d="M76.5,19.5c1.7,0,3,1.3,3,3c0,1.7-1.3,3-3,3c-1.7,0-3-1.3-3-3C73.5,20.8,74.9,19.5,76.5,19.5z"/>
	<path d="M63.6,75.6c0.2-1.5,1.6-2.5,3.1-2.2c1.5,0.2,2.5,1.6,2.2,3.1s-1.6,2.5-3.1,2.2c-0.3-0.1-0.7-0.2-1-0.4l-3.7,2.2
		c0.7-0.7,0-3.5,0-3.5L63.6,75.6z"/>
	<path d="M85.7,54.1c0.7,1,0.5,2.4-0.5,3.1c-1,0.7-2.4,0.5-3.1-0.5c-0.2-0.3-0.4-0.8-0.4-1.2L77,54.3l3,3.8h0.2c1.2,0,2.2,1,2.2,2.2
		s-1,2.2-2.2,2.2s-2.2-1-2.2-2.2c0-0.2,0-0.4,0.1-0.6l-2.8-2.2c0,0-0.2-0.9-0.7-3.5c-0.3-1.5-0.3-3,0-4.4c0.1-0.9,0.9-1.5,1.8-1.4
		c0.1,0,0.2,0,0.3,0.1c1.2,0.3,3.5,0.7,5.1,1c0.6-1.1,1.9-1.5,3-1s1.5,1.9,1,3c-0.6,1.1-1.9,1.5-3,1c-0.5-0.3-0.9-0.7-1.1-1.3h-4.1
		l4.9,2.9C83.7,52.8,85,53.1,85.7,54.1z"/>
	<path d="M5.2,57.6C6.6,53.1,18.5,40.5,24.7,37c0,0-14.4,20-15.7,23.9C9,60.9,3.9,62,5.2,57.6z"/>
	<path d="M54.1,51.9c-2.9,0-5.2-2.9-4.9-4.6c0.3-1.7,2.9-3.2,2.9-3.2s2.6-1.2,4.3,0.6c1.7,1.7,1.4,5.2,1.4,5.2
		C57.2,51.2,55.7,52,54.1,51.9z"/>
	<path d="M49.5,41.2c-0.7,1.3-2.2,2.1-3.7,2c-2.9,0-5.2-2.9-4.9-4.6c0.3-1.7,2.9-3.2,2.9-3.2s2.6-1.2,4.3,0.6
		C49.8,37.7,49.5,41.2,49.5,41.2z"/>
	<path d="M38.3,31.4c-2.9-1.4,0.3-5.8,0.3-5.8c0-0.9,4.9-3.7,4.9-3.7l-0.3,4.6C43.2,26.5,41.2,32.9,38.3,31.4z"/>
	<path d="M26.2,53.9c1.7,1.7,1.4,5.1,1.4,5.1c-0.7,1.3-2.2,2.1-3.7,2c-2.9,0-5.2-2.9-4.9-4.6c0.3-1.7,2.9-3.2,2.9-3.2
		S24.5,52.1,26.2,53.9z"/>
	<path d="M17.3,51l4-5.8C21,51.9,17.3,51,17.3,51z"/>
	<path d="M46.7,66.2c0.3,1.1-2.6,3.2-4.9,2.3s-2.6-4.3-1.2-4.3S46.7,66.2,46.7,66.2z"/>
	<path d="M27.9,77.5c-3.5,0-2.9-4-2.9-4l6,0.3C31.1,73.8,31.4,77.5,27.9,77.5z"/>
	<path d="M66.9,51.6c0.7,1.7,0.3,2.3-0.6,3.6s-2-0.3-2-0.3l0.1-3.6C64.5,51.3,66.2,49.8,66.9,51.6z"/>
	<path d="M69.7,61.5c1.9,1.3,1.6,3.9,0.6,4.2c-1,0.3-3.3-1.6-2.6-3.7C67.7,61.9,67.8,60.2,69.7,61.5z"/>
	<path d="M70.4,11.7c0,0,2.4-3.8,5.8-4.4c2.8-0.6,4.8,2.3,5.4,3.1l0.9,0.3l-0.7-0.1L70.4,11.7z"/>
	<path d="M33.4,33.4c0.9,1.1,2.3,6.9,8.6,13.6c6.3,6.7,7.3,9,17,7.5c-3.3,4-15.6,8.6-15.6,8.6c-3.3-1-6.8-1.5-10.3-1.5
		c-1.8-4.2-5.6-11.8-7.2-12.4c-1.4-0.5-2-5.3-2.2-7.1c2.8-3.6,5.4-6.9,7.2-9.3c1-1.3,2.1-2.6,3.3-3.7C33.5,30.9,33,32.8,33.4,33.4z"
		/>
	<path d="M14.5,74.8c2.4-0.7,4.9-1.1,7.4-1.3V74c0,1.8,0.5,3.6,1.4,5.2c1.4,2.3,8.1,2.3,8.9,0c0.8-2,2-4.5,2.2-5.1
		c1.6,0.2,3.2,0.6,5,1c0,0-11-5.3-21-3.7c0,0-3.3-3.3-4-5.3c0,0-4-1-3.7-5c0.1-1.3,1.7-4,4.1-7.4c0,4,4.3,10.2,4.3,10.2l5.2-0.8
		c4.2-0.2,8.4,0.1,12.5,0.8c-2.3,1.7-4.8,4.8-0.7,6.1c5.5,1.7,5.8,4.6,9.5,4.6c1.3,0,2.7-0.2,4-0.5c-0.9-0.3-1.6-1.1-1.7-2.1
		c0-1.2-0.9-4.3,1.7-4.3c0,0,4.6,3.5,6,4.7c3.3,2.7,5.7,7.7-0.3,10c-6,2.3-16,4.7-24.9,2.3c-8.9-2.3-13.3-1.7-13.3-1.7l13,3.7
		c0,0,7.7,3.2,24.4-1.4c1.4-0.4,2.7-1.1,3.9-2l1.6-1.3c3.3,0.3,6.7,0.3,10-0.1c0.6-1.4,2.1-2,3.5-1.4c1.4,0.6,2,2.1,1.4,3.5
		s-2.1,2-3.5,1.4c-0.4-0.1-0.7-0.4-0.9-0.7l-11.6,0.9l5.8,2.4c1.1-0.9,2.8-0.8,3.7,0.4c0.9,1.1,0.8,2.8-0.4,3.7
		c-1.1,0.9-2.8,0.8-3.7-0.4c-0.3-0.3-0.4-0.7-0.5-1.1c-2.2-0.6-7.5-2-9.3-2c-2.3,0-9,1.7-17,1.7s-23.3,1-27.6-6S11.9,75.4,14.5,74.8
		z"/>
	<path d="M64.5,61.7c-0.3-1-0.4-2.1-0.3-3.1c0.8,3.3,7,14.6,9,13.7c1.1-0.4,2-1.4,2.3-2.6l-6.3-15v-2.6c0.1-1.4,0.3-2.8,0.8-4.2
		c0.2-0.7-0.2-1.5-0.9-1.8c-0.1,0-0.3-0.1-0.4-0.1c-1.8,0-3.4,2.1-3.7,2.5c0.2-2.2,0.4-4.2,0.6-5.5c0,0-2.7,4-2.7,7
		c0,0-5.2-6.9-6.3-10.4c-1.2-3.5-10.7-10.1-9.5-14.1c0.8-2.5,1.8-4.9,3-7.3c2.1-1.2,3.9-2.1,5.2-2.8c2-1.1,8-2.9,13.6-4.3
		c0,0.1,1.9,2.3,1.2,6.5c-0.5,2.8,1.1,3.5,2.2,3.6c-0.1,0.3-0.1,0.7-0.1,1c0.1,2.5,2.2,4.4,4.8,4.3c2.3-0.1,4.2-2,4.3-4.3
		c0-0.9-0.3-1.8-0.9-2.5c2.2,0,7.8-0.1,8.7-0.6c1.2-0.8,2.4-1.6,3.5-2.5c0.3,0.8,0.5,1.6,0.3,2.5c-0.8,4.4-4,7.3-5.7,9
		C85.4,29.9,82.6,37,74,41.6c0,0-3.5,8.9-1.2,14.2c2.3,5.3,4,7.6,6.3,13.3c0,0,6.7-1,8.7-2.3c0.8-0.5,1.5-1,2-1.4
		c-0.2-1.4,0.7-2.8,2.2-3.1s2.8,0.7,3.1,2.2c0.2,1.4-0.7,2.8-2.2,3.1c-0.5,0.1-1,0-1.5-0.2c-1.7,1.4-4.6,3.8-6.6,4.4l5.7,3.9
		c1.3-0.7,2.9-0.3,3.6,1c0.7,1.3,0.3,2.9-1,3.6c-1.3,0.7-2.9,0.3-3.6-1C89.2,79,89,78.6,89,78.2c-2.5-1.2-7-3.5-8-3.5
		c-1.3,0-7.7,1-11-1.3C67.5,71.7,65.4,64.9,64.5,61.7z"/>
	<path d="M87.3,15.9c-1,0.4-6.3-0.2-5-2.7c1-1,2.5-1.1,3.7-0.4C88.3,14,88.3,15.5,87.3,15.9z"/>
	<path d="M74.9,12.1c0.9-0.4,1.9-0.3,2.6,0.4c0.7,0.9,1,2,0.9,3.1c-0.4,0.8-1.3,1.3-2.2,1.2c-1.7,0-3.1-1.8-3-2.8
		C73.3,13,74.9,12.1,74.9,12.1z"/>
</g>
</svg>
