<?xml version="1.0" encoding="utf-8"?>
<!-- Generator: Adobe Illustrator 27.9.0, SVG Export Plug-In . SVG Version: 6.00 Build 0)  -->
<svg version="1.1" id="Layer_1" xmlns="http://www.w3.org/2000/svg" xmlns:xlink="http://www.w3.org/1999/xlink" x="0px" y="0px"
	 viewBox="0 0 100 100" style="enable-background:new 0 0 100 100;" xml:space="preserve">
<g>
	<g>
		<path d="M43.4,37.2C43.4,37.2,43.4,37.2,43.4,37.2c-0.1,0.1-0.1,0.1-0.1,0.2c0,0,0,0,0,0C43.4,37.4,43.4,37.3,43.4,37.2
			 M42.9,39.2c0.1,0.4,0.2,0.2,0.4-0.3c0.1-0.2,0.2-0.5,0.4-0.8c0,0,0-0.1-0.1-0.1c0-0.1-0.1-0.2-0.1-0.3c0,0,0,0,0,0
			C43.1,38.3,42.9,38.8,42.9,39.2 M50.4,68.1c0,0.3,0.1,0.6,0.1,0.6c0,0,0.1,0.2,0.1,0.3c0,0.2,0,0.2,1,0.5c0.6,0.2,1.5,0.4,2.1,0.6
			c0.7,0.2,1.1,0.3,1.2,0.3c0.1,0,0.3,0,0.6,0.2c0.4,0.2,0.5,0.2,0.7,0.2c0.3-0.2,0.8-0.1,1,0.1c0.1,0.1,0.3,0.2,0.6,0.3
			c1.1,0.2,3.4,1.2,4,1.7c0.4,0.4,0.3,0.4-0.2,0c-0.5-0.4-1.1-0.7-2.5-1.1c-1.2-0.4-1.6-0.5-0.5-0.1c1.7,0.6,2.6,1,3.2,1.5
			c0.2,0.2,0.4,0.3,0.3,0.4c0,0.2,0.1,0.4,0.5,0.6c0.2,0.1,0.4,0.2,0.5,0.2c0.2,0,0-0.5-0.4-1c-1.1-1.4-1.2-1.4-1.2-1.8
			c0-0.5,0-0.6-0.3-0.5c-0.2,0-0.3,0-0.7-0.6c-0.3-0.3-0.6-0.6-0.6-0.7c-0.1,0-0.4-0.4-0.6-0.7c-0.6-0.9-0.6-0.8-0.5-1
			c0.1-0.1,0.1-0.1,0-0.2c-0.1,0-0.2-0.1-0.6-0.7c-0.2-0.3-0.4-0.5-0.5-0.5c-0.1,0-0.4-0.3-0.7-0.7c-0.6-0.8-0.7-1-0.5-1.1
			c0.1-0.1,0.1-0.1-0.1-0.2c-0.1-0.1-0.4-0.4-0.6-0.8c-0.4-0.6-0.4-0.8-0.4-0.9c0.1-0.1,0.1-0.2-0.1-0.4C55.1,62.4,55,62.2,55,62
			c0-0.2-0.1-0.6-0.3-0.9l-0.3-0.6l-0.4,0.4c-0.2,0.2-0.4,0.4-0.5,0.4c0,0-0.1,0-0.2,0.1c-0.3,0.5-0.8,1.2-0.8,1.3
			c0,0.1-0.1,0.3-0.3,0.5c-0.3,0.5-0.6,1.4-0.5,1.6c0,0.1-0.1,0.3-0.2,0.5c-0.1,0.2-0.2,0.6-0.3,0.8c-0.1,0.5-0.2,0.6-0.2,0.1
			c0.1-0.4,0-0.4-0.1-0.3C51,66,51,66.2,51,66.2c0,0.1-0.1,0.2-0.2,0.3C50.5,66.8,50.4,67.5,50.4,68.1 M57.7,71.7c0.1,0,0.1,0,0.1,0
			c0-0.1-0.1-0.1-0.1-0.1c-0.1,0-0.1,0-0.1,0C57.6,71.6,57.7,71.6,57.7,71.7 M59.2,72.1c0.1,0,0.2,0.1,0.2,0.1c0,0,0,0,0-0.1
			C59.3,72.1,59.2,72,59.2,72.1C59.1,72,59.1,72.1,59.2,72.1 M59.9,72.4c0.7,0.4,1.9,1,1.7,0.8c-0.2-0.2-1.8-1-2-1
			C59.5,72.2,59.7,72.3,59.9,72.4 M54.1,59.2c-0.1-0.1-0.2,0-0.3,0.2c-0.1,0.2-0.1,0.2,0.1,0C54.1,59.4,54.1,59.3,54.1,59.2
			 M51.5,64.4c0.1,0.2,0.1,0.2,0.1-0.1c0-0.2,0-0.3-0.1-0.2C51.4,64.2,51.4,64.3,51.5,64.4 M51.1,64.7c0.1,0.1,0.1,0.1,0.1-0.1
			s0-0.2-0.1-0.1C51,64.5,51,64.6,51.1,64.7 M50.6,65.7C50.6,65.7,50.7,65.7,50.6,65.7c0.1,0.1,0.2,0,0.2-0.2c0-0.2,0-0.2-0.1-0.1
			C50.7,65.5,50.6,65.6,50.6,65.7 M39.6,57.3c-0.1,0.2-0.2,0.3-0.1,0.3c0.1,0,0.4-0.4,0.4-0.6C39.9,56.9,39.9,56.9,39.6,57.3
			 M35.6,80.9c0,0-0.5-0.2-1-0.5c-1.1-0.5-2.1-1.3-2.7-2.1c-0.5-0.6-0.5-0.6-0.6,0.4c0,0.3-0.1,0.7-0.1,0.8c-0.1,0.3-0.3,0.3-0.3,0
			c0-0.4-0.1-0.1-0.3,0.6c-0.2,0.6-0.2,0.9-0.2,1.9c0,0.7,0,1.3-0.1,1.4c-0.1,0.3,0,0.1,0.5-0.7c0.6-1,1.3-1.7,1.8-2l0.4-0.2
			l0.2,0.2c0.5,0.4,0.5,0.4,0.7,0.2l0.2-0.2l0.4,0.3c0.5,0.4,0.8,0.5,0.9,0.5C35.4,81.4,35.6,81,35.6,80.9 M29.3,85.2
			c-0.1,0.1-0.1,0.3-0.1,0.3c0,0.1,0.3-0.3,0.3-0.4C29.5,84.9,29.5,85,29.3,85.2 M8.5,79.5c0-1.7,0.2-3.4,0.3-5.1
			c0.3-3.2,0.7-6.3,1.2-9.3c0.1-0.9,0.3-1.7,0.5-2.6c0.1-0.7,0.2-1.5,0.3-2.2c0.2-1.4,0.4-2.9,0.6-4.3c0.1-0.4,0.1-0.7,0.2-1.1
			c0-0.3,0.1-0.7,0.2-1c0.1-0.7,0.3-1.4,0.4-2.1c0.2-1.4,0.5-2.7,0.7-4.1c0.5-2.6,1-5.1,1.6-7.6c0.5-2.5,1-5,1.6-7.3
			c0.6-2.3,1.1-4.7,1.7-6.8c0.6-2.2,1.3-4.3,1.8-6.4c0.6-2,1.1-4,1.8-5.7c0.7-1.7,1.5-3.3,2.5-4.4c0.2-0.3,0.5-0.6,0.7-0.8
			c0.3-0.3,0.6-0.5,0.9-0.7c0.6-0.5,1.2-0.8,1.9-1.1c0.1-0.1,0.3-0.1,0.5-0.2c0.2-0.1,0.3-0.2,0.5-0.2c0.4-0.1,0.7-0.2,1.1-0.3
			c0.7-0.1,1.5-0.3,2.3-0.3c0.9,0.1,1.8,0.3,2.9,0.9c0.5,0.3,1,0.5,1.6,0.9c0.6,0.4,1.2,0.8,1.8,1.4c0.6,0.6,1.2,1.1,1.8,1.8
			c0.5,0.6,1.2,1.3,1.6,1.9c0.2,0.3,0.2,0.3,0.4,0.4c0.1,0.1,0.3,0.2,0.4,0.3c0.3,0.2,0.6,0.5,0.9,0.7c0.6,0.5,1.3,1.2,1.9,1.7
			c0.6,0.5,1.1,1.1,1.6,1.7c0.6,0.6,1,1.2,1.5,1.8c0.8,1.1,1.2,2.1,1.1,2.7c-0.1,1.2-1.6,1.3-1.8,2.5c-0.1,0.6-0.1,1.3,0.7,2.3
			c0.4,0.5,0.9,1,1.4,1.4c0.2,0.2,0.5,0.4,0.8,0.6c0.2,0.2,0.5,0.4,0.7,0.5c0.4,0.2,0.7,0.5,1.1,0.7c0.1,0,0.2,0,0.4,0l1.1,0
			l0.7-0.4c1.7-1.1,3-2,2.9-2.1c0,0-0.1-0.1-0.1-0.2c0-0.1,0.1-0.3,0.6-0.7c0.3-0.3,0.7-0.6,0.8-0.7c0.3-0.2,1.2-1.3,1-1.2
			c-0.3,0.2,0.6-0.9,1-1.2c0.6-0.4,1.9-1.9,1.8-2c-0.1-0.2,0.6-0.6,2.1-1.1c0.6-0.2,1.2-0.5,1.3-0.5c0.8-0.5,1.9-0.8,3.3-0.7
			c0.5,0,1,0.1,1.2,0.1c0.3,0,0.3,0-0.2-0.2c-0.6-0.3-0.4-0.3,0.3-0.1c0.3,0.1,0.6,0.2,0.7,0.2c0.1,0,0.4,0.1,0.7,0.2
			c0.6,0.3,0.7,0.2,0.2-0.1c-0.2-0.1-0.3-0.2-0.2-0.2c0.1,0,1.4,1,1.8,1.3c0.4,0.4,0.7,0.9,0.9,1.4c0.1,0.3,0.3,0.6,0.4,0.7
			c0.4,0.4,0.4,0.5,0.8,1.7c0.5,1.6,0.8,3.1,0.6,3.5c-0.1,0.1-0.1,0-0.1-0.3c0-0.3,0-0.4-0.1-0.1c0,0.1,0,0.5,0,0.8
			c0,0.3,0,0.6-0.1,0.7c-0.1,0.1-0.1,0.1-0.1-0.1c0-0.1,0,0-0.1,0.4c-0.1,0.5,0,0.7,0.1,0.9c0.3,0.7,0.1,1.6-0.5,2.5
			c-0.2,0.3-0.5,0.7-0.6,0.9c-0.1,0.2-0.3,0.5-0.4,0.6l-0.2,0.2v-0.2c0-0.1,0.1-0.4,0.2-0.6c0.3-0.6,0.1-0.5-0.3,0.3
			c-0.4,0.8-0.8,1.3-1.1,1.4c-0.2,0.1-0.2,0.1,0-0.1c0.1-0.1,0.1-0.2,0-0.1c-0.1,0-0.3,0.1-0.6,0.2c-0.3,0.1-0.5,0.2-0.6,0.3
			c-0.3,0.2-1,0.5-1.1,0.5c0,0,0-0.1,0.1-0.1c0.1,0,0.2-0.1,0.1-0.2c0-0.1-0.1-0.2-0.1-0.2c0,0-0.2,0.1-0.4,0.1
			c-0.2,0.1-0.7,0.2-1.1,0.3c-1.1,0.1-1.6,0.4-3.1,2.2c-0.3,0.4-0.4,0.4-0.6,0.4c-0.1,0-0.4-0.2-0.6-0.3L65,38l-0.3,0.2
			c-0.3,0.2-0.5,0.2-0.8,0.1c-0.1-0.1-0.1,0-0.2,0.3c0,0.2-0.2,0.6-0.4,1c-0.3,0.6-0.3,0.6-0.2,0.8c0.2,0.3,0.6,0.7,0.9,0.8
			c0.7,0.2,1.5,0.9,2,1.6c0.1,0.2,0.4,0.4,0.6,0.5c0.2,0.1,0.4,0.3,0.4,0.5c0.1,0.3,0.3,0.4,1.1,0.9c0.6,0.3,1.4,0.8,1.9,1.1
			c0.5,0.3,0.9,0.5,1.1,0.5c0.2,0,0.5-0.2,0.5-0.4c0-0.1,0.1-0.2,0.1-0.2c0.1-0.1,0.1-0.1,0-0.3c-0.1-0.2-0.1-0.2,0.4-0.7
			c0.4-0.3,0.6-0.4,0.7-0.4c0.2,0.1,0.6-0.2,0.7-0.5c0-0.1,0.2-0.5,0.5-0.7c0.2-0.2,0.4-0.5,0.4-0.5c0-0.1,0.3-0.3,0.6-0.6
			c0.4-0.4,0.6-0.5,0.8-0.5c0.3,0,0.6-0.3,0.4-0.4c-0.1-0.1,0-0.2,0.5-0.7l0.6-0.6l-0.2-1c-0.1-0.5-0.2-1.3-0.3-1.8
			c-0.1-1.1,0-1.1,1.1-1.4c0.7-0.2,0.8-0.2,0.8-0.4c0-0.1-0.1-0.2-0.1-0.3c0-0.1-0.2-0.3-0.4-0.5c-0.2-0.2-0.4-0.5-0.4-0.6
			c0-0.1-0.1-0.3-0.1-0.5c-0.1-0.3-0.1-0.3-0.4-0.3c-0.4,0-0.8-0.2-0.9-0.4c-0.1-0.3,0-0.4,0.4-0.5c0.2-0.1,0.5-0.2,0.8-0.4
			c0.4-0.3,0.5-0.3,1.1-0.3c0.5,0,0.7,0,0.7-0.1c0-0.1-0.3-1.8-0.4-2.1c0-0.1-0.1-0.2-0.2-0.2c-0.2,0-0.3-0.2-0.4-0.7
			c0-0.3,0-0.5,0.1-0.7c0.1-0.2,0.1-0.4,0.1-0.6c0-0.4,0.2-0.5,0.4-0.1c0.1,0.2,0.2,0.3,0.3,0.3c0.3,0,0.6,0.5,0.7,1
			c0.1,0.4,0,0.5-0.1,0.6c-0.1,0.1-0.1,0.2,0,1.2c0.3,1.6,0.2,1.4,0.9,1.4c0.4,0,0.7,0,0.8,0c0.2,0.1,2.2,2.2,2.4,2.7
			c0.1,0.2,0.2,0.7,0.3,1.1c0.1,0.6,0.1,0.8-0.1,1.5l-0.2,0.8l0.2,1.4c0.3,1.6,0.3,2.6,0.1,2.7c-0.1,0.1-0.1,0.4,0.2,1.8
			c0.2,0.9,0.3,1.7,0.3,1.7c0,0-0.4,0.1-0.7,0.2l-0.7,0.1v1.6v1.6l0.9,5.1c1.3,7.5,3,17.5,4.2,24.3c0.6,3.3,1.3,7.4,1.6,9.2
			c0.3,1.7,0.7,4.3,0.9,5.7c0.5,3.1,0.5,3.8,0.2,3.1c-0.2-0.3-1.1-4.4-1.7-7.8c-0.3-1.3-1.2-6.2-2.1-10.8
			c-1.8-9.2-4.1-21.8-5.2-27.7c-0.4-2.1-0.7-3.8-0.7-3.8c0,0-0.3,0-0.7,0.1l-0.6,0.1l-0.5-0.3c-0.3-0.2-0.5-0.4-0.5-0.5
			c-0.1-0.2-0.1-0.2-0.2-0.1C79,45.1,79,45.2,79,45.4c0,0.3,0,0.4-0.4,0.9c-0.3,0.4-0.5,0.6-0.6,0.6c-0.3,0.1-0.7,0.5-0.7,0.6
			c0,0.6-1.3,2.5-1.9,2.8c-0.2,0.1-0.5,0.3-0.7,0.5c-0.2,0.2-0.5,0.3-0.5,0.3c-0.1,0-0.3,0.1-0.5,0.3c-0.9,0.8-1.3,0.8-3.8-0.3
			c-1-0.4-2.9-1.3-4.2-2c-1.3-0.6-2.4-1.2-2.5-1.1c-0.2,0-0.6-0.1-1-0.4c-0.5-0.4-0.5-0.3-0.1,0.2c0.5,0.5,0.5,0.7,0.1,0.2
			C62.1,48,62,47.9,62.1,48c0.1,0.1,0.1,0.2,0.1,0.3c0,0.1,0.1,0.3,0.1,0.4c0.1,0.3,0.2,0.5,0.2,1c0,0.2,0.1,0.4,0.1,0.5
			c0.1,0.3,0,0.2-0.1-0.2c-0.1-0.3-0.1-0.2-0.1,0.8c0,0.8,0,1.2-0.1,1.3c-0.1,0.2-0.1,0.1-0.1-0.2c0.1-0.3,0.1-0.3-0.1-0.2
			c-0.1,0.2-0.1,0.2-0.1,0c0-0.1,0-0.2,0-0.1c-0.1,0-0.1,0.2,0,0.4c0.1,0.5-0.1,0.8-0.6,1.5c-0.2,0.3-0.5,0.6-0.6,0.8
			c-0.2,0.2,0.1-0.3,0.4-0.7c0.3-0.4-0.1-0.1-0.4,0.4c-0.2,0.3-0.6,0.7-0.8,1l-0.5,0.5l0.3,0.6c0.1,0.3,0.6,1.1,0.9,1.7
			c0.5,0.8,0.7,1.1,0.9,1.1c0.1,0,0.3,0,0.4,0c0.1,0,0.2,0.2,0.4,0.8c0.2,0.4,0.3,0.8,0.3,0.9c0,0.1,0.1,0.2,0.2,0.3
			c0.1,0.1,0.3,0.5,0.5,1c0.3,0.8,0.4,1.1,0.2,1.2c0,0.1,0,0.2,0,0.4c0.1,0.2,0.2,0.3,0.4,0.3c0.3,0,0.4,0.1,0.8,1l0.3,0.8l-0.2,0.2
			c-0.2,0.2-0.2,0.2-0.1,0.4c0.1,0.1,0.2,0.3,0.2,0.3c0.1,0,0.3,0.4,0.4,0.8c0.2,0.4,0.4,0.8,0.5,1c0.1,0.1,0.4,0.6,0.6,1.1
			c0.3,0.6,0.4,0.8,0.3,0.9c-0.1,0.1,0.1,0.5,0.5,1.1c0.1,0.2,0.3,0.5,0.5,0.8c0.1,0.3,0.3,0.5,0.4,0.6c0.2,0.1,0.8,1.3,0.7,1.5
			c0,0.1,0,0.2,0.1,0.3c0.1,0.1,0.1,0.2,0.1,0.3c0,0.1,0.2,0.4,0.4,0.7c0.2,0.3,0.5,0.9,0.8,1.4c0.8,1.5,1.6,2.6,2.3,3.2
			c0.4,0.3,0.6,0.6,0.6,0.7s0.3,0.4,0.7,0.9c0.8,0.9,0.9,1,1.5,2.7c0.2,0.6,0.2,0.6,0.1,1.1c-0.2,0.8-0.1,1.5,0.5,3
			c0.1,0.3,0,0.5-0.4,0.5c-0.2,0-0.3-0.1-0.5-0.3l-0.3-0.3l-0.2,0.3c-0.1,0.2-0.2,0.4-0.2,0.5c0,0.2-0.5,1.5-0.6,1.7
			c-0.1,0.1-0.1,0.3-0.2,0.5c-0.1,0.6-1.3,2.2-1.7,2.2c-0.1,0-0.3,0.1-0.6,0.3c-0.2,0.2-0.4,0.3-0.5,0.3l-9.3-0.5
			c-0.3-0.1-0.5-0.1-0.6-0.2c-0.1-0.1-0.4-0.1-0.7-0.2c-0.3-0.1-0.6-0.1-0.6-0.2c-0.1-0.1-0.1-0.1-0.4,0.1c-0.2,0.1-0.5,0.2-1.3,0.2
			c-0.6,0-1.2,0.1-1.3,0.2L54,93.8c-0.7-0.1-1.2-0.2-1.4-0.4c-0.2-0.2-0.2-0.2-1-0.2c-0.4,0-1.1,0.1-1.5,0.2c-0.7,0.2-1,0.1-1-0.1
			c0-0.1,0.4-0.5,0.6-0.6c0.1-0.1,0-0.1-0.5-0.1c-0.4,0-0.6,0-0.6-0.1c0-0.1,0.5-0.3,1-0.5c0.1,0,0.1-0.1,0-0.1
			c-0.3,0-2.2-0.3-2.7-0.5c-0.3-0.1-0.8-0.1-1.2-0.1h-0.6l-0.1,0.5c-0.2,0.6-0.3,0.9-0.5,0.9c-0.1,0-0.1-0.2-0.2-0.8
			c0-0.7-0.1-0.7-0.1-0.4c0,0.2-0.1,0.4-0.1,0.6c-0.1,0.3-0.3,0.5-0.5,0.3c-0.1-0.1,0-0.6,0.1-1.1c0.1-0.2,0.1-0.2-0.1-0.1
			c-0.3,0.2-1.1,0.2-1.4,0c-0.2-0.1-0.4-0.1-1.6-0.1c-0.8,0-1.8,0.1-2.4,0.2c-0.5,0.1-1.5,0.2-2.1,0.3c-1.4,0.2-2.9,0.4-3.8,0.7
			c-0.1,0-0.8,0.1-1.4,0.2c-0.8,0.1-1.3,0.1-1.6,0.3c-0.3,0.1-0.7,0.2-0.9,0.2c-0.4,0-0.8,0.1-1.5,0.3c-0.1,0-0.2,0-0.1,0
			c0-0.1,0-0.1-0.1-0.1c-0.1,0-0.1,0.1-0.1,0.1c0,0.3-3.8,0.1-4.6-0.2c-0.4-0.2-0.7-0.5-0.8-0.9c0-0.2-0.1-0.3-0.2-0.3
			c-0.1,0-0.2-0.2-0.3-0.5c-0.1-0.5-0.1-0.5,0.1-0.7c0.2-0.2,0.5-0.4,1.9-1c0.3-0.1,0.8-0.5,1.2-0.8c1.8-1.5,2.5-1.9,3.3-2.1
			c0.2-0.1,0.5-0.1,0.5-0.2c0.2-0.2,0.6-1.6,1.1-3.5c0.2-1,0.3-1.5,0.3-2.7c0.1-1.3,0.1-1.5,0.3-2.2c0.1-0.4,0.3-1.1,0.3-1.5
			c0-0.4,0.1-0.8,0.1-0.9c0-0.1,0-0.2,0-0.2c0-0.1-0.1-0.3,0-0.6c0-0.7,0-0.9-0.3-0.9c-0.2,0-0.7,0.5-0.8,0.8
			c-0.3,0.9-0.4-1.4-0.2-2.7c0.2-0.9,0.7-2.4,1.1-3.4c0.2-0.5,0.5-1.1,0.6-1.3c0.1-0.3,0.3-0.5,0.8-0.9c0.3-0.3,0.8-0.7,1-1
			c0.2-0.3,0.6-0.7,0.8-0.8c0.2-0.2,0.7-0.6,1-0.8c0.3-0.3,0.7-0.6,0.8-0.6c0.3-0.1,0.4-0.3,0.5-0.7c0.1-0.5,0.4-1.1,1.1-1.7
			c0.4-0.4,0.6-0.6,0.9-0.7c0.3-0.1,0.5-0.3,0.8-0.6c0.3-0.4,0.3-0.5,0.2-0.5c-0.2,0-0.2-0.2-0.1-0.2c0,0,0.1-0.2,0.2-0.4
			c0.1-0.2,0.3-0.6,0.5-0.9c0.2-0.3,0.6-0.8,0.8-1.2c0.2-0.3,0.4-0.7,0.5-0.9c0.4-0.5,0.6-1.5,1.1-4.6c0.4-2.7,0.4-3.4,0.3-3.7
			c-0.1-0.2-0.1-0.4-0.1-1.3c0.1-1.4,0.2-2.3,0.4-3.1c0.3-1.1,0.4-1.8,0.3-1.9c-0.1-0.1-0.1-0.3-0.1-0.5c0.2-1.1,0.2-1.5,0.4-1.9
			c-0.2,0.1-0.6,0.2-0.9-0.1c-0.3-0.3-0.5-0.6-0.6-1c-0.2,0.3-0.3,0.5-0.4,0.8c-0.3,0.7-0.7,1.4-1.1,2.1c-0.3,0.6-0.7,1.2-1.1,1.9
			c-0.4,0.7-0.9,1.4-1.4,2.2c-0.2,0.3-0.5,0.7-0.7,1.1c-0.3,0.4-0.6,0.7-0.9,1.1c0-0.1,0-0.1,0-0.2c0-0.4,0.1-0.8,0.1-1.2
			c0-0.1,0-0.6-0.1-0.4c-0.2,0.2-0.2,0.4-0.3,0.6c-0.4,0.8-0.8,1.6-1.2,2.4c-0.1,0.2-0.5,0.9-0.9,0.8c-0.2-0.1-0.3-0.3-0.4-0.4
			c-0.1-0.2-0.2-0.4-0.2-0.6c0-0.2,0-0.5,0-0.7c0-0.2,0-0.5,0-0.7c0-0.5,0-0.9,0-1.4c-0.2,0.6-0.4,1.3-0.6,1.9
			c-0.3,0.9-0.6,1.8-0.9,2.7c-0.2,0.5-0.3,1-0.5,1.5c-0.1,0.4-0.3,0.9-0.5,1.3c-0.3,1-0.8,2-1.3,3c-0.1,0.2-0.3,0.4-0.4,0.6
			C28.3,56,28.1,56,27.9,56c-0.2,0-0.3-0.3-0.3-0.5c0-0.2-0.1-0.4-0.1-0.6c0,0.2-0.1,0.3-0.1,0.5c-0.2,1.1-0.4,2.3-0.7,3.4
			c-0.1,0.5-0.3,1.1-0.4,1.6c-0.1,0.6-0.3,1.2-0.5,1.8c-0.2,0.5-0.4,1.2-0.6,1.6c-0.3,0.4-0.7,1.1-1,0.6c-0.4-0.6-0.4-1.6-0.3-2.5
			c0-0.3,0.1-0.5,0.1-0.8c0,0.3-0.1,0.5-0.1,0.8c0,0,0,0,0,0.1c-0.1,1.2-0.3,2.4-0.5,3.7c-0.2,1.3-0.5,2.6-0.9,3.9
			c-0.1,0.3-0.2,0.6-0.3,0.8c-0.1,0.2-0.3,0.5-0.5,0.4c-0.3-0.1-0.5-0.7-0.6-1.2c-0.1-0.5-0.2-1.2-0.1-1.9c0-0.3,0-0.7,0-1
			c0-0.3,0.1-0.6,0.1-0.9c-0.3,1.8-0.6,3.6-1,5.5c-0.2,1.4-0.5,2.8-0.8,4.2c-0.1,0.3-0.2,0.7-0.3,1c-0.1,0.3-0.1,0.6-0.2,1
			c-0.2,0.5-0.5,1.8-0.8,1.7c-0.4,0-0.5-1-0.5-1.6c-0.1-0.6-0.1-1.4-0.2-2.1c-0.1-1.4,0-2.9,0-4.4c0-0.7,0.1-1.5,0.1-2.2
			c0.1-0.7,0.1-1.4,0.2-2.1c0.2-1.4,0.3-2.8,0.5-4.2c-0.3,1.5-0.5,3.1-0.9,4.6c-0.2,0.7-0.3,1.4-0.5,2.1c-0.1,0.3-0.2,0.6-0.4,1
			c-0.2,0.3-0.3,0.2-0.4,0c-0.1-0.3-0.1-0.6-0.2-1c-0.1-0.3,0-0.7,0-1.1c0-0.7,0-1.4,0.1-2.1c0,0.3-0.1,0.7-0.1,1
			c-0.2,1.5-0.4,3-0.6,4.5c-0.2,1.5-0.5,2.9-0.8,4.4c-0.2,0.6-0.4,1.5-0.8,1.6c-0.4,0.1-0.6-0.9-0.7-1.5c-0.1-0.4-0.1-0.8-0.1-1.1
			c0-0.2,0-0.4-0.1-0.6c0-0.1,0-0.3,0-0.5c0-0.4,0-0.7,0-1.1c0,0.4-0.1,0.9-0.2,1.3c-0.2,0.9-0.3,1.8-0.5,2.7
			c-0.3,1.5-0.8,3-1.2,4.4c-0.2,0.7-0.5,1.4-0.7,2c-0.2,0.5-0.6,1.4-0.9,1.1c-0.4-0.3-0.5-1.2-0.5-2.1C8.5,81.3,8.5,80.4,8.5,79.5"
			/>
	</g>
</g>
</svg>
