<?xml version="1.0" encoding="utf-8"?>
<!-- Generator: Adobe Illustrator 27.9.0, SVG Export Plug-In . SVG Version: 6.00 Build 0)  -->
<svg version="1.1" id="Layer_1" xmlns="http://www.w3.org/2000/svg" xmlns:xlink="http://www.w3.org/1999/xlink" x="0px" y="0px"
	 viewBox="0 0 100 100" style="enable-background:new 0 0 100 100;" xml:space="preserve">
<path d="M98.9,89.8c-1-0.8-2-1.6-3-2.3c-3.5-2.2-7-4.4-10.5-6.6c-2.9-1.8-6-3.4-9.3-4.3c-0.1,0-0.1,0-0.2-0.1
	C75.6,76,75.1,76,74.6,76c-0.2,0-0.4,0-0.5-0.1c-0.2-0.4-0.6-0.6-1-0.5c-0.6,0.2-1,0-1.4-0.3c-0.1-0.1-0.2-0.2-0.3-0.3
	c-0.1-0.1-0.3-0.3-0.4-0.3c-0.3-0.1-0.6,0-0.9-0.1c-0.4-0.1-0.8-0.1-1.1-0.2c-0.9-0.5-1.9-1-2.8-1.5c-0.1,0-0.2-0.1-0.2-0.1
	c0.1-0.5,0.3-1,0.3-1.4c0.1-0.8-0.1-1.5-0.7-2c-0.3-0.3-0.6-0.7-0.9-1c-0.3-0.4-0.5-0.8-0.7-1.3c-0.7-1.4-1.6-2.7-2.8-3.7
	c-0.1-0.1-0.1-0.2-0.2-0.3c-0.5-2.3-1.7-4.3-3.2-6.1c-0.1-0.1-0.1-0.3-0.2-0.4c-0.1-0.8-0.1-1.6-0.3-2.4c-0.1-0.6-0.1-1.2,0.1-1.8
	c0.2-0.6,0.4-1.3,0.1-1.9c0.3-0.2,0.6-0.3,0.9-0.5c0.3-0.2,0.5-0.4,0.7-0.6c0.1-0.1,0.2-0.1,0.4-0.2c0.4-0.1,0.7-0.2,1.1-0.3
	c0.9-0.4,1.3-1.5,0.9-2.2c0-0.1,0-0.1,0-0.2c0.1-0.3,0.1-0.6,0.2-0.8c0,0,0.1,0,0.1-0.1c0.1,0,0.1,0,0.2-0.1c0.5,0.1,1,0.3,1.4,0.7
	c0.7,0.5,1.2,1.2,1.7,1.9c0.1,0.2,0.3,0.3,0.5,0.5c0.1-0.2,0.3-0.4,0.4-0.6c0,0,0-0.1,0-0.2c0.2-1.7-0.4-3.1-1.6-4.3c0,0,0,0,0,0
	c0.1-0.1,0.2-0.1,0.2-0.2c0.1-0.1,0.2-0.4,0.2-0.7l1.5-0.7c0.1-0.1,0.2-0.3,0.2-0.7V41c0.2-0.1,0.5-0.2,0.8-0.3
	c0.3-0.1,0.5-0.3,0.7-0.5v0c0.4-0.1,0.9-0.2,1.3-0.3c0.8-0.2,1.7-0.4,2.5-0.6c0.1,0,0.1-0.1,0.2-0.2c-0.1-0.1-0.1-0.1-0.2-0.2
	c-0.1-0.1-0.1-0.1-0.2-0.2c-0.5-0.7-1.2-1-2-1.1c0.1-0.1,0.2-0.2,0.4-0.4c0.4-0.4,0.6-0.6,0.7-0.7c0.3-0.3,0.5-0.5,0.5-0.7
	c-0.1,0-0.2,0-0.4,0c-0.1,0-0.3,0-0.4,0c-0.1,0-0.2,0-0.2-0.1c0.3-0.5,0.7-0.9,1.2-1.3c0.4-0.4,0.8-0.9,1.1-1.4h-0.7
	c0-0.3,0.1-0.6,0.3-0.8c0.2-0.2,0.5-0.5,0.8-0.7c0.3-0.2,0.6-0.5,0.8-0.7c0.2-0.3,0.3-0.6,0.3-0.9c-0.4,0-0.7,0.1-1,0.1
	C72.7,30,72.4,30,72.1,30c0-0.3,0.1-0.7,0.4-1c0.3-0.4,0.6-0.7,0.9-1.1c0.3-0.4,0.6-0.8,0.9-1.2c0.3-0.4,0.4-0.9,0.4-1.3h-0.2
	l-1.7,1h-0.3l3-4.2c0.3-0.2,0.5-0.5,0.6-0.9c0.1-0.4,0.2-0.8,0.2-1.1H76l-1.7,1.5c-0.1,0-0.2,0-0.3,0.1v-0.1
	c0.3-0.4,0.7-0.9,1.1-1.5c0.4-0.5,0.8-1.2,1.2-1.8c0.4-0.6,0.7-1.3,0.9-1.9c0.2-0.7,0.3-1.3,0.3-1.8c-0.1-0.6-0.2-0.9-0.4-0.9h-0.2
	c-0.1,0.2-0.2,0.6-0.4,1c-0.2,0.4-0.4,0.9-0.6,1.4c-0.3,0.5-0.5,0.9-0.8,1.3c-0.3,0.4-0.6,0.6-0.8,0.7c0-0.1,0-0.2,0-0.2s0,0,0-0.1
	c0-0.5,0.1-0.9,0.3-1.4c0.1-0.4,0.2-0.9,0.3-1.4c0-0.2,0-0.6,0.1-1.1s0.1-0.8,0.1-0.9v-0.3V12v-0.4c0-0.5,0-1.2-0.1-1.9
	C74.9,9,74.6,8.3,74,8C73.9,8,73.9,8,73.8,8c-0.2,0.5-0.3,1-0.3,1.5V10c0,0.2,0,0.3-0.1,0.4c0,0.2-0.1,0.4-0.1,0.5
	c0,0.2,0,0.4-0.1,0.8c-0.1,0.4-0.2,0.9-0.3,1.5c-0.1,0.6-0.3,1.1-0.4,1.7c-0.2,0.6-0.3,1.1-0.4,1.6c-0.2,0.5-0.2,0.8-0.3,1l-0.3,1
	L71.2,19c-0.1,0.3-0.3,0.7-0.5,1.2c-0.2,0.5-0.4,0.9-0.6,1.4c-0.2,0.5-0.4,0.9-0.5,1.3c-0.1,0.4-0.2,0.6-0.3,0.6l-5,8.9l-2.2,2.2
	c-0.6-0.8-1.4-1.4-2.4-1.8c-0.8-0.4-1.6-0.6-2.5-0.5c-0.6,0.1-1.1,0.2-1.7,0.4c-0.9,0.4-1.8,0.8-2.7,1.2c-0.3,0.2-0.6,0.1-0.9-0.1
	c-2.7-1.7-5.5-3.1-8.6-3.9c-0.4-0.1-0.8-0.2-1.1-0.4C41.1,29,40,28.2,38.7,28h-0.5c-0.1,0-0.2,0.1-0.3,0.1c-0.6,0.2-0.9,0.7-0.5,1.3
	c0.1,0.1,0.2,0.3,0.3,0.3c0.6,0.3,1.2,0.7,1.6,1.3c0.1,0.1,0.1,0.2,0.2,0.3c0.2,0.3,0.3,0.6,0.5,0.8c0.3,0.3,0.6,0.5,0.8,0.9
	c0.1,0.2,0.3,0.5,0.6,0.6c0.6,0.3,0.9,0.7,1.1,1.3c0.2,0.6,0.7,1.1,1.4,1.2c0.2,0,0.4,0.2,0.6,0.4c0.2,0.3,0.4,0.6,0.6,0.9
	c0.4,0.6,0.8,1.1,1.2,1.7c0.2,0.3,0.4,0.4,0.8,0.4c0.2,0,0.4-0.1,0.6-0.1c-0.5,0.7-1.2,0.9-1.9,1.1c-1.4,0.4-2.7,0.7-4,1.1
	c-0.6-1.2-1.2-2.3-1.6-3.4c-0.4-1.1-0.8-2.2-1.4-3.1c-0.6-0.9-1.3-1.8-2.2-2.6c-0.9-0.8-2.2-1.5-4-2.1c-1.9-1.1-3.7-2.3-5.4-3.5
	c-1.7-1.2-3.3-2.6-4.8-4.2c-0.2-0.2-0.5-0.4-0.8-0.8c-0.4-0.4-0.7-0.8-1.1-1.2c-0.4-0.4-0.8-0.8-1.1-1.2c-0.4-0.4-0.6-0.7-0.7-0.8
	c-0.9-1.3-1.7-2.9-2.4-4.6c-0.7-1.8-1.1-3.4-1.2-5L14.9,9c-0.4,0.2-0.6,0.6-0.8,1.2c-0.1,0.6-0.2,1-0.2,1.3c0,0.5,0,0.8,0.1,1.2
	c0.1,0.4,0.1,0.8,0.1,1.2v0.6l-0.2-0.3c-0.5-1.2-1-2.3-1.4-3.3s-0.8-2.1-1.2-3.3c0-0.1,0-0.2-0.1-0.4C11.1,7,11.1,6.8,11,6.5
	c-0.1-0.3-0.1-0.5-0.2-0.7c-0.1-0.2-0.1-0.3-0.1-0.4c-0.1-0.1-0.1-0.1-0.2-0.2C10.4,5,10.4,5,10.4,5h-0.1L10.1,5
	C9.8,5.5,9.7,6,9.7,6.5c0,0.4,0,0.9,0,1.4v0.3V9l1,6.6h-0.2L5,7.5H4.8C4.7,7.5,4.6,7.6,4.6,7.8c0,0.1,0,0.2,0,0.4c0,0.2,0,0.4,0,0.6
	V9c0,1.8,0.4,3.5,1.2,5.2c0.8,1.6,1.7,3.2,2.6,4.7v0.4c-1.5-0.9-3-2.1-4.3-3.6c-1.3-1.5-2.5-2.9-3.6-4.1l-0.2-0.2
	c-0.1,0.2-0.2,0.4-0.2,0.6v0.2c0.1,1.1,0.5,2.2,1,3.3c0.5,1.1,1,2.1,1.5,3.1c0.1,0.1,0.2,0.3,0.4,0.7c0.2,0.3,0.3,0.6,0.4,0.7
	c0.2,0.4,0.5,0.7,0.9,1.1c0.4,0.4,0.6,0.8,0.6,1.1c-0.7-0.2-1.3-0.5-2-1c-0.6-0.5-1.4-0.7-2.1-0.7c0,0.9,0.2,1.7,0.8,2.4
	c0.6,0.7,1.2,1.4,1.8,2l1.3,1.3v0.1c-0.1-0.1-0.4-0.3-0.9-0.5s-0.9-0.3-1.2-0.3c-0.1,0-0.2,0-0.2,0.1s0,0.2,0,0.3
	c0,0.5,0.3,1,0.8,1.6c0.6,0.6,1,1.1,1.4,1.4l2.7,2.4H4.7c0,0-0.1,0-0.1,0.1c-0.1,0.1-0.1,0.2,0,0.2c0,0.1,0,0.2,0.1,0.3
	c0,0.2,0.1,0.3,0.2,0.3C5,32.2,5.2,32.5,5.7,33c0.4,0.4,0.7,0.6,0.8,0.7c0.1,0,0.2,0.1,0.4,0.2C7,34,7.3,34,7.5,34.1
	c0.3,0.2,0.5,0.3,0.7,0.4s0.3,0.2,0.4,0.2c0.1,0,0.2,0,0.2,0.1C8.6,35,8.3,35,8,35c-0.3,0.1-0.4,0.2-0.4,0.5s0.2,0.7,0.7,0.9
	c0.5,0.3,1,0.5,1.6,0.7c0.6,0.2,1.2,0.4,1.8,0.6c0.6,0.2,1,0.4,1.2,0.6h-1.8c-0.3,0.4-0.5,0.6-0.5,0.7l-0.1,0.1
	c0,0.1,0.2,0.3,0.5,0.5c0.3,0.2,0.7,0.3,1.2,0.5c0.5,0.2,0.9,0.3,1.4,0.5c0.5,0.1,0.8,0.3,1.1,0.4c-0.5,0.2-0.7,0.5-0.7,0.8
	s0.1,0.5,0.1,1.2c0.3,0.1,0.6,0.3,0.9,0.4c0.3,0.1,0.7,0.2,1,0.3c0.3,0.1,0.6,0.2,0.9,0.2c-0.1,0-0.2,0.2-0.2,0.5
	c0,0.3,0.3,0.5,0.8,0.7c0.5,0.2,0.9,0.3,1.2,0.4c0.1,0,0.3,0,0.7,0.1c0.4,0.1,0.7,0.2,0.8,0.2c-0.1,0.4,0,0.7,0.2,0.9
	c0.2,0.2,0.5,0.4,0.9,0.5c0.4,0.1,0.8,0.2,1.2,0.2s0.7,0,1,0c-0.1,0.2,0,0.4,0.2,0.6s0.4,0.4,0.7,0.4c0.1,0,0.5,0,1,0.1
	s0.9,0.1,1.1,0.1c-0.1,0.2-0.1,0.4,0.1,0.5c0.2,0.2,0.4,0.3,0.7,0.3c0.1,0,0.4,0.1,0.9,0.1c-0.9,0.6-1.8,1.1-2.7,1.7
	c-0.1,0.1-0.3,0-0.4,0c-2-1-3.8-2.1-5.5-3.5c-0.9-0.7-1.8-1.6-3-1.9c-0.1,0-0.2,0-0.3,0c-0.1,0.1-0.1,0.2,0,0.3
	c0.1,0.2,0.1,0.3,0.2,0.5c0,0-0.1,0-0.1,0.1c-0.2-0.3-0.5-0.6-0.7-1c-0.3-0.5-0.6-0.6-1.1-0.5c-0.4,0.1-0.6,0.3-0.5,0.7
	c0,0.2,0.1,0.5,0.2,0.8c-0.1-0.1-0.2-0.2-0.3-0.3c-0.2-0.2-0.4-0.4-0.6-0.6c-0.1-0.1-0.3-0.1-0.4-0.1c-0.1,0-0.1,0.2-0.1,0.3
	c0,0.2,0,0.3,0,0.5c-0.1,0-0.3,0-0.4,0c-0.1,0-0.3,0.1-0.3,0.1c0,0.1,0,0.3,0.1,0.3c0.3,0.4,0.7,0.8,1,1.2c0.8,1.2,2,2,3.4,2.3
	c0.8,0.2,1.5,0.3,2.2,0.7c1.6,0.7,3.1,1.6,4.7,2.4c0.1,0,0.1,0.2,0.1,0.3c0,0.5-0.2,0.9-0.2,1.4c0,0.7-0.1,1.3-0.5,1.9
	c-0.1,0.1-0.2,0.3-0.2,0.4c0,0.4-0.3,0.6-0.6,0.9c-0.5,0.4-1.1,0.8-1.6,1.3c-0.5,0.4-0.9,0.9-1.3,1.3c-0.2,0.2-0.3,0.4-0.4,0.6
	c-0.3,0.5-0.5,1.1-0.9,1.6c-0.5,0.7-0.7,1.5-0.9,2.3C17,66,17,66.5,17.2,67c0.2,0.7,0.4,1.3,0.6,2c0.1,0.2,0.2,0.5,0.3,0.7
	c0.1,0.2,0.2,0.4,0.3,0.6c0-0.2,0-0.3,0-0.4c-0.1-0.5-0.3-1.1-0.4-1.6c0-0.1,0-0.3,0.1-0.4c0.1-0.1,0.2-0.2,0.4-0.4
	c0.1,0.2,0.2,0.3,0.2,0.5c0.1,0.4,0.1,0.9,0.3,1.3c0.1,0.4,0.4,0.7,0.6,1c0,0,0.1,0,0.1-0.1c-0.1-0.3-0.3-0.6-0.4-0.9
	c-0.1-0.4-0.1-0.7-0.1-1.1c0-0.1,0.1-0.2,0.2-0.2c0.6-0.2,0.8-0.4,0.8-1.1c0-0.4-0.1-0.8-0.1-1.2c0.1,0,0.3,0,0.4,0
	c0.1,0.9,0.1,1.8,0.6,2.7c0-0.2-0.1-0.3-0.1-0.5c-0.1-0.6-0.1-1.2-0.2-1.8c0-0.2,0-0.5,0.2-0.6c0.4-0.3,0.6-0.7,0.6-1.2
	c0.1-0.6,0.4-1,0.9-1.3c0.3,0.3,0.5,0.7,0.5,1.1c0.1,0.4,0.1,0.8,0.3,1.3c0.2,0.6,0.4,1.2,0.6,1.8H24c-0.7-3.1,0.9-4.8,2-5.6
	c0.1,0.3,0.2,0.5,0.3,0.8c0.1,0.6,0.4,1,1,1.2c0.8,0.3,1.1,0.7,1.1,1.6c0,0.4,0,0.9,0,1.3c0,0.1,0,0.2,0,0.4h0.1
	c0.1-0.1,0.2-0.3,0.3-0.4c0.4-0.7,0.5-1.5,0.6-2.2c0.1-0.9,0-1.6-0.5-2.4c-0.1-0.2-0.2-0.5-0.2-0.7c-0.1-0.7-0.1-1.3-0.2-2
	c0-0.6-0.2-1.2-0.8-1.6l-0.1-0.1c0.4-0.4,0.8-0.9,1.2-1.3c0,0,0,0,0.1,0c1.7,0.9,3.4,1.8,5.2,2.7c0.2,0.1,0.1,0.2,0.1,0.4
	c-0.2,0.6-0.4,1.2-0.5,1.8c-0.1,0.6-0.3,1-0.7,1.4c-0.5,0.6-1.1,1.1-1.7,1.6c-2.4,2.1-4.1,4.7-4.6,7.9c-0.1,0.6-0.1,1.2-0.5,1.7
	c-0.5,0.6-0.9,1.2-1.4,1.8c-1.5,2.2-2.7,4.6-3.6,7.2c-0.5,1.5-1.3,2.7-2.2,4c-0.5,0.7-1.1,1.4-1.8,1.9c-0.3,0.2-0.6,0.5-0.9,0.8
	c-0.2,0.1-0.3,0.3-0.5,0.4c-0.5,0.3-1,0.5-1.4,0.8c-0.5,0.3-0.8,0.8-0.8,1.4c0,0.5-0.1,1,0.1,1.5c0.3-0.1,0.5-0.2,0.7-0.2
	c0.4,0.1,0,0.4,0.1,0.7c0.2-0.1,0.3-0.2,0.5-0.3c0.1,0.1,0.3,0.2,0.4,0.3c0,0.2-0.1,0.4-0.1,0.6c0.3-0.1,0.6-0.3,0.8-0.3
	c0.3-0.1,0.5,0,0.8,0c-0.1,0.3-0.1,0.5-0.2,0.7c0.8-0.6,1.7-0.8,2.5-1c0,0.1-0.1,0.3-0.1,0.4l0.4,0.3c0.5-0.5,1-0.6,1.6-0.5
	c1.1,0.2,1.9-0.1,2.4-1.2c0.1-0.3,0.3-0.5,0.4-0.8c0.5-0.8,0.7-1.6,0.8-2.5c0-0.1,0-0.2,0.1-0.3c0.7-1.3,0.8-2.6,0.7-4.1
	c0-0.3,0-0.5,0.2-0.7c0.6-1,1.3-1.9,1.9-2.9c0.8-1.3,1.6-2.5,1.9-4c0.2-0.9,0.6-1.4,1.2-2c0.7-0.8,1.5-1.6,1.9-2.5
	c0.2-0.4,0.5-0.7,0.8-1.1c1-0.9,1.9-1.9,2.9-2.8c0.5-0.5,1.1-1,1.7-1.5c0,0,0,0.1,0,0.2c0.3,1.2,0.6,2.3,1,3.5
	c0.6,1.8,0.9,3.7,1.3,5.5c0.2,1.1,0.4,2.2,0.1,3.4c-0.1,0.4,0,0.9,0,1.3c0.8-0.2,1.1,0,1.3,0.6c0.1,0.3,0.2,0.6,0.2,0.8
	c0,0.1,0.1,0.3,0.1,0.4c0.2-0.3,1.2-5.7,1.1-6.1c-0.1,0.1-0.2,0.1-0.3,0.2l-0.1-0.1c0.1-0.1,0.2-0.3,0.3-0.4
	c0.1-0.2,0.3-0.4,0.3-0.6c0.2-0.9,0.4-1.8,0.6-2.7c0.3-1.3,0.5-2.6,0.8-3.9c0-0.2,0.2-0.5,0.2-0.7c1.1,0.6,2.2,1.2,3.3,1.7
	c0.8,0.4,1.7,0.7,2.6,1c0.8,0.3,1.5,0.7,2,1.4c0.2,0.3,0.3,0.6,0.1,1c-0.2,0.5-0.5,1-0.6,1.5c-0.2,0.6-0.4,1.3-0.4,1.9
	c-0.2,1.9-0.1,3.8,0.2,5.8c0.1,1,0,2-0.5,2.9c-0.2,0.5-0.4,0.9-0.6,1.4c-0.4,1-0.2,1.9,0.4,2.8c0.5,0.7,1.2,1,1.9,1.1
	s1.4,0.2,2.2,0.3c0.9,0.1,1.8,0.3,2.7,0.5c1.2,0.2,2.4,0.5,3.6,0.7c0.8,0.1,1.7,0.2,2.5,0c0.6-0.2,1.1-0.1,1.5,0.2
	c0.1,0,0.1,0.1,0.3,0.1c-0.1-0.2-0.2-0.4-0.3-0.7C66,93,66.2,93,66.3,93c0.2,0.1,0.3,0.2,0.5,0.3c-0.1-0.3-0.2-0.6-0.3-0.9
	c0.4,0.3,0.6,0.5,1,0.7c0-0.2,0-0.2,0-0.3c-0.2-0.6-0.4-1.2-0.8-1.7c-1-1.5-2.4-2.4-4.3-2.3c-1.2,0-2.3-0.2-3.3-0.7
	c-1.3-0.6-2.2-1.6-2.5-3c-0.5-1.8-0.6-3.6-0.3-5.4c0.2-1.3,0.5-2.6,0.9-3.9c0.6-1.7,1-3.5,0.2-5.3c0.1,0,0.1,0,0.1,0.1
	c0.2,0.2,0.3,0.4,0.5,0.6c0.6,0.7,1.3,1,2.1,1.3c0.2,0.1,0.5,0.2,0.7,0.3c0.5,0.3,1,0.5,1.6,0.5c0.1,0,0.3,0,0.4,0.1
	c1.2,0.6,2.4,1.3,3.6,1.9c1.1,0.5,2.2,1.2,2.9,2.2l0.1,0.1c0.3,0.1,0.5,0.3,0.8,0.4c0.2,0.1,0.3,0.1,0.4,0.4
	c0.2,0.4,0.4,0.8,0.9,0.8c0.3,0,0.5,0.1,0.6,0.3c0.1,0.1,0.2,0.2,0.3,0.3c0.2,0.1,0.2,0.3,0.1,0.5c-0.2,0.6-0.2,1.2,0.1,1.7
	c0.6,0.9,1.5,1.4,2.5,1.8c0-0.1,0-0.2,0-0.2c0.2-1.4,1.3-2.3,2.7-2.3c0.9,0,1.5,0.4,2.1,0.9c3,2.4,6.2,4.7,9.6,6.5
	c2,1.1,4.1,2,6.4,2.4c1.3,0.2,2.7,0.3,4-0.3C99.6,90.5,99.3,90,98.9,89.8z M36.8,55c-0.1,0.7-0.6,1.1-1,1.6
	c-2.1-1.1-4.1-2.2-6.2-3.2v-0.1c0.1,0,0.2-0.1,0.2-0.1c1.3-0.3,2.5-0.6,3.8-0.9c0.1,0,0.4-0.1,0.4-0.1h0.5c0.4-0.1,0.8-0.2,1.1-0.4
	c0.1,0,0.2,0,0.3,0.1c0.1,0,0.1,0.2,0.2,0.4c0,0.1,0.1,0.2,0.3,0.2c0.1,0,0.3,0,0.4,0c0.1,0,0.2,0,0.4,0c0,0.4,0,0.9,0,1.4
	C37.2,54.5,36.8,55,36.8,55z M58.7,68.5c-0.1,0-0.1-0.1-0.2-0.1c-3.6-1.9-7.2-3.8-10.8-5.7c-0.3-0.2-0.6-0.4-0.5-0.8
	c0-0.2,0-0.3-0.1-0.5c-0.2-0.9-0.5-1.7-0.9-2.4c0.5-0.3,1.1-0.5,1.6-0.8c0.8-0.5,1.5-0.9,2-1.7c0-0.1,0.2-0.1,0.3-0.1
	c0.7-0.1,1.4-0.2,2.1-0.4c0.6-0.1,0.6-0.1,0.8,0.4c0.3,0.6,0.6,1.2,1,1.7c0.3,0.4,0.7,1.2,0.9,1.7c0.4,1.3,1.1,2.5,1.9,3.6
	c0.5,0.8,1.1,1.5,1.6,2.3c0.2,0.3,0.3,0.7,0.3,1C58.6,67.3,58.5,68,58.7,68.5z"/>
</svg>
