<?xml version="1.0" encoding="utf-8"?>
<!-- Generator: Adobe Illustrator 27.9.0, SVG Export Plug-In . SVG Version: 6.00 Build 0)  -->
<svg version="1.1" id="Layer_1" xmlns="http://www.w3.org/2000/svg" xmlns:xlink="http://www.w3.org/1999/xlink" x="0px" y="0px"
	 viewBox="0 0 100 100" style="enable-background:new 0 0 100 100;" xml:space="preserve">
<g>
	<g>
		<path d="M98.5,28.4c0,0-4.6-2.5-6.5-4c-1.9-1.5-7.9-5.4-13.6-5.7c-5.8-0.3-7.2-2.9-7.2-2.9s-1.5-2.3-4.1-0.3c0,0-2.4,1.8,0.5,4
			c0,0-4.7,1.7-11-0.2c-6.3-2-19.5-7.9-33.5,0.4c0,0-7.3,4.2-10.7,13.2l1.6-0.8c0,0-3.7,3.3-4.3,7.2l1.2-0.7c0,0-3.8,8.1-6.4,10.6
			l0.9,0.2c0,0-16.9,26.6,18.5,34.6c11.8,2.7,12.2-0.6,19.4,0.3c3.9,0.5,6.1,1.8,6.1,1.8s2.6,1.8,3.4,0.4c0.6-1.3-2.2-3.2-2.2-3.2
			s-4-3.4-17.1-2.2C21.9,82.1-1.9,69.2,12.9,56.6c0,0,7.3,1.9,10.2,1.6l-0.6,2.1c0,0-1.2,2.3,1.8,2.8c3,0.5,9.5-0.4,12.1,3.3l1.4,2
			c0,0,0.3,0.7,0.9,0.6c0.6-0.2,0.2-0.9,0.2-0.9l-0.9-1.7c0,0,5.7,1.6,8.1,4c0,0,1.1-0.2,0-1.5c0,0-1.3-1.3-2.5-1.9
			c0,0,2.4,0.5,3.8,2.1c0,0,0.4,0.6,0.7,0.3c0,0,0.6-0.3,0-1.1c0,0-1.2-1.4-3.5-2.6c0,0,1.3,0.2,2.8,0.8c0,0,1.3-1.6-5.8-2.5
			c-1.1-0.1-3-0.6-4.9-1.1l-5.8-1.9c0,0-2.2-0.3-1.3-2.7s4.6-1.9,4.6-1.9l5.6-0.1l0.5,0.6l4.1-2.2c0,0,0,1.3,0.1,1.3
			s3.8-2.2,5.1-2.5c0,0-0.2,1.4-0.2,1.4c0,0,3.6-2.3,5.7-5.2c0,0-1,2.8-2.8,4l1.2,0c0,0,0.4,4.5,4,4.6l2.1,2.5l0.9-0.9
			c0,0,0.5,1.7,2.6,3.2c2.1,1.5,3,3.7,3,3.7s1.2,4.6,3.9,3.6c0,0-1.7-1-1.7-2.9c0,0,1.5,0.7,2.9,0.8c1.4,0.2,2.3,1.2,2.3,1.1
			c0,0,0.9-0.9-0.4-1.8c-1.3-0.9-2.1-1.4-2.1-1.4s1.8,0.1,2.2,0.6c0,0,0.3-1.1-1-1.6c-1.3-0.5-2.7,0-3.8-1.2c-1.2-1.2-2.1-3-2.1-3
			c0-0.1-0.4-2.3-0.8-3c-0.4-0.7-0.8-3.2,0-5c0.7-1.9,5.5-11.3,10-13.7c0,0,3.8-2,8.1-1.7c0,0,2,0.4,3.3,1.1
			c1.3,0.8,3.4-0.4,3.4-0.4s-0.9-2.9-4.2-4.1c0,0,2.8-0.2,5.3,1l-0.3,1.1l0.2,0.8c0,0,1.2-1.2,1.3-1.4c0,0-0.1,0-0.1,0
			c0.1,0,0.1,0,0.1,0c0.3,0.1,1.2,0.3,1.8-0.1C94.7,35,98.8,32.5,98.5,28.4z M69.5,19.4c0,0-2-1.4-0.9-2.3s1.7,0.2,1.7,0.2
			c1,1.6,3,3.4,3,3.4C71.1,20.6,69.5,19.4,69.5,19.4z M88.3,27.2c0,0-0.4,0.3-2.1,0c-1.6-0.3-1.2-1.5-1.2-1.5
			c0.8-1.6,3.4,1.2,3.4,1.2L88.3,27.2z M71.9,13.1c2.7-1.3,4,3.8,4,3.8c-2.5,0.3-4.3-2.3-4.3-2.3C71.1,13.8,71.9,13.1,71.9,13.1z
			 M78.7,44.4c1.6,0.2,3.1,0.9,4.1,1.5c0.8,0.4,1.4,1,2,1.7c0.5,0.7,1.1,1.5,1.1,2.2c0,1.2-0.8,0.8-0.8,0.8c0.2-1.2-1.2-1.7-1.2-1.7
			c0.7,2.6-2.1,3.3-2.1,3.3c-0.6-0.4-0.1-0.8-0.1-0.8c2.1-2.2,0.4-2.5,0.4-2.5c-2.4,2.1-2.9,0.3-2.9,0.3c1.8-0.5,0.8-1.7,0.8-1.7
			c-2.4-2.4-7.9,0.5-7.9,0.5c0,0-0.2-0.9-0.2-0.9s-1.8,0.5-1.8,0.5c1.3-3.2,3.4-5,3.4-5S75.9,44.1,78.7,44.4z M92.3,35.6
			C92.3,35.6,92.3,35.6,92.3,35.6C92.3,35.6,92.3,35.6,92.3,35.6z"/>
	</g>
</g>
</svg>
