<?xml version="1.0" encoding="utf-8"?>
<!-- Generator: Adobe Illustrator 27.9.0, SVG Export Plug-In . SVG Version: 6.00 Build 0)  -->
<svg version="1.1" id="Layer_1" xmlns="http://www.w3.org/2000/svg" xmlns:xlink="http://www.w3.org/1999/xlink" x="0px" y="0px"
	 viewBox="0 0 100 100" style="enable-background:new 0 0 100 100;" xml:space="preserve">
<path d="M95.4,53.2C93.7,50.6,84.3,40.5,80,36.8l-1.2-3.7l-1.1,2.3c-2.2,0.2-8.1,3-10.1,2.3c-0.3-0.1-0.8-0.2-1.4-0.4
	c-1.3,1-1.8,1.9-1.8,1.9c-0.1,3-1.6,4-1.6,4c-0.5,8.6-7.9,10.6-7.9,10.6c6.4-3.3,6.7-10.9,6.7-10.9c1.3-1.1,1.4-3,1.5-3.9
	c0.1-0.7,0.8-2,1.1-2.4l0,0c0,0,0-0.1,0.1-0.1l0,0l0,0c0.5-0.8,1-1.5,1-1.5c3.5-2.9,3-8.6,1.6-7.2c-1.1,1-5.7,3.8-6.7,4.9
	c-1.9-1-3.1-1-4.3-1.1c-0.5-1.5-3.5-5.8-4-7.1c-0.7-1.7-3.6,3.2-1.6,7.2c0,0,0.1,0.4,0.2,1c-2.8-0.7-5.8-1.5-7-1.8
	c-2-0.6-4.8-5.9-6.5-7.2l0.1-2.6l-2.9,2.6c-5.5,0.8-16.6,4.2-19.4,5.6C11.4,30.9,0,49.5,0,49.5c11.4-7.1,14.3-1.2,14.3-1.2
	s2.6-4.1,6.7-5.2c7.8-2.1,8.8,2.9,8.8,2.9c10.5-3.4,18.7,15.8,18.7,15.8s17-11.8,24.5-3.3c0,0,5.3-2.9,10.9,3.2
	c3.1,3.3,2.8,8.4,2.8,8.4s6.8-3.4,13.4,8.9C100,78.9,97.4,56.5,95.4,53.2z M59.3,37.6c0.4,0,0.7,0.3,0.7,0.7S59.7,39,59.3,39
	s-0.7-0.3-0.7-0.7C58.6,37.9,58.9,37.6,59.3,37.6z M54.1,37.7c-0.4,0-0.7-0.3-0.7-0.7s0.3-0.7,0.7-0.7s0.7,0.3,0.7,0.7
	C54.7,37.4,54.4,37.7,54.1,37.7z"/>
</svg>
