<?xml version="1.0" encoding="utf-8"?>
<!-- Generator: Adobe Illustrator 27.9.0, SVG Export Plug-In . SVG Version: 6.00 Build 0)  -->
<svg version="1.1" id="Layer_1" xmlns="http://www.w3.org/2000/svg" xmlns:xlink="http://www.w3.org/1999/xlink" x="0px" y="0px"
	 viewBox="0 0 100 100" style="enable-background:new 0 0 100 100;" xml:space="preserve">
<path d="M99.3,52.5c2.7-20.1-15.9-27.1-16.6-27.1s-1.4,0.7-1.4-2.2s-6.6-2.7-11-0.7c-4.3,1.9-4,5.5-2.2,6.3c1.8,0.8,6.2,5.3,6.9,7.2
	c-2.3-0.5-18.3,1.4-18.3,1.4s0,0-0.4-4c0-5.8-2.5-5.6-2.5-5.6L49,39c-4.7,0.5-14.7,4.8-15.6,5.7c4.3-0.2,13.9,2.8,13.9,2.8
	s-19.6-2.9-21.1-2.9c-1.6,0-1.3,1.9,4.2,3.6c5.5,1.7,11.1,5.7,10.6,6.1c-2.6-3.3-12.7-6.1-12.7-6.1L15.4,61c0,0-11-3.8-13.2-4.3
	S0,56.9,0,56.9s3.5,4.5,5.6,6.6c2.1,2.1,1.6,5.7,1.6,5.7S2.5,76,0.8,78.9c5.5-0.9,12.8-11.4,12.8-11.4l2.6-0.8c0,0-2.2,1.4-1.4,1.4
	c0.8,0,4.7-2.2,4.7-2.2l5-0.8c0,0,2.1,1.9,2.9,2.7c0.8,0.8,1,2.2,1.9,2.2c0.9,0,1.9-3.2,1.9-4c0-0.7,1.1-1.9,1.1-1.9
	s13.2-2.6,15.9-2.6c2.2,0.4,4.8,4.4,5.2,6.7c0.4,2.3,4.2,9.8,5,10.6c5.3-1.7,3.3-17,3.3-19.9c6.9-0.7,20.6-7.9,20.6-7.9
	s0.4-0.7,2.4-0.7c1.9,0,3.1,4.2,3.1,4.2s-1.2,1.4,1.1,2.3c7.5,1.7,11.3-2,11.3-2.5C100,53.9,99.3,53.8,99.3,52.5z M74.7,23.2
	c-0.6,0.2-1.2,0-1.3-0.4c-0.1-0.4,0.2-0.9,0.9-1.1c0.6-0.2,1.2,0,1.3,0.4C75.7,22.5,75.3,23,74.7,23.2z M84.8,49.1
	c5.1-5.1-7.9-7.9-7.9-7.9C90.6,39.4,87.2,47.6,84.8,49.1z"/>
</svg>
