<?xml version="1.0" encoding="utf-8"?>
<!-- Generator: Adobe Illustrator 27.9.0, SVG Export Plug-In . SVG Version: 6.00 Build 0)  -->
<svg version="1.1" id="Layer_1" xmlns="http://www.w3.org/2000/svg" xmlns:xlink="http://www.w3.org/1999/xlink" x="0px" y="0px"
	 viewBox="0 0 100 100" style="enable-background:new 0 0 100 100;" xml:space="preserve">
<g>
	<path d="M90.7,38.2l1.7-3l-2.8-4l0.4-3.8l-6.5-5.1l0.4-3.8L70.6,12l-4.4,6.7L63,13.4H37l-3.2,5.3L29.4,12l-13.4,6.5l0.4,3.8
		l-6.5,5.1l0.4,3.8l-2.7,4.1l1.7,3l-8.8,1.9V63l7.1,11.3l13.6,1.9l11.5-10.7l-2.1-8.4l-6-5.2l1.1-3.2l-5.1-5.3l3.8-4.4
		c8.7,3.2,14.6,11.3,14.9,20.5c-5.6,6.3-8.2,14.8-7.4,23.2l-2.9,1.8v2.3l1.7,1.1h6.9l2.5-1.9v-3l-1-0.8c0.5-5.5,5.2-9.9,10.8-9.8
		c5.6-0.1,10.3,4.3,10.8,9.8l-1,0.8v3l2.5,1.9h6.9l1.7-1.1v-2.3l-2.9-1.8c1-8.4-1.8-16.8-7.4-23.2c0.2-9.2,6.1-17.3,14.9-20.4
		l3.8,4.4l-5.1,5.3l1.1,3.2l-6,5.1l-2.1,8.4l11.5,10.7l13.6-1.9L99.5,63v-23L90.7,38.2z M60,33.2l-1.3,7.7L57.9,41
		c-2.6,0.4-5.3,0.6-7.9,0.6c-2.6,0-5.3-0.2-7.9-0.6l-0.8-0.1L40,33.2l-2-3.6l1.4-2.9v-3.2l4.1-6.1h0.2c4.2-0.6,8.5-0.6,12.7,0h0.2
		l4.1,6.1v3.2l1.4,2.9L60,33.2z"/>
	<path d="M60,23.9h-0.2L56,18.2c-4-0.5-8-0.5-12.1,0l-3.7,5.7v3.1L39,29.6l1.9,3.3l1.2,7.3h0.3c5.2,0.8,10.4,0.8,15.5,0h0.3l1.2-7.3
		l1.9-3.3L60,26.9V23.9z M48,28.7l-3-0.1c-0.7,0-1.5-0.4-1.9-1.1l-0.7-0.7c-0.4-0.6,0.2-1.5,1-1.3l4.9,1.7
		C49,27.6,48.8,28.7,48,28.7z M57.6,26.8L57,27.7c-0.4,0.6-1.2,1-1.9,1.1l-3,0.1c-0.8,0-1.1-1.2-0.2-1.5l4.9-1.7
		C57.4,25.4,58,26.2,57.6,26.8z"/>
</g>
</svg>
