<?xml version="1.0" encoding="utf-8"?>
<!-- Generator: Adobe Illustrator 27.9.0, SVG Export Plug-In . SVG Version: 6.00 Build 0)  -->
<svg version="1.1" id="Layer_1" xmlns="http://www.w3.org/2000/svg" xmlns:xlink="http://www.w3.org/1999/xlink" x="0px" y="0px"
	 viewBox="0 0 100 100" style="enable-background:new 0 0 100 100;" xml:space="preserve">
<path d="M2.7,77.3l8.4-10.6c1.4-2.7,3.5-5,6.1-6.4l0.4-1.8c0-7.2,5.3-13.2,12.2-14.3c3.2-2.9,6.8-5.2,11-6.6
	c1.7-2.9,4.7-4.8,8.3-4.8c0.1,0,0.2,0.1,0.2,0.2V36h0.1c1.8-1.9,4.2-3.2,7.1-3.2c0.1,0,0.2,0.1,0.2,0.2V36h0.2
	c1.8-1.9,4.2-3.1,7-3.1c0.1,0,0.2,0.1,0.2,0.2v2.9h0.2c1.4-1.5,3.2-2.6,5.3-2.9c-1.9-2.6-4.8-4.4-8.4-4.4l-10.7-0.7l-9.2-0.6
	c-0.6,0.1-1.2,0.1-1.9,0.1c-7.8,0-14-5.7-14-13.5C25.4,7.6,30,2,36.1,0.5c-3.3,1.5-5.7,4.8-5.7,8.7v1.4c0,5.3,4.2,9.6,9.6,9.6h0.8
	v-4.1c0-0.1,0.1-0.2,0.2-0.2c2.8,0,5.4,1.3,7.2,3.3v-3.1c0-0.1,0.1-0.2,0.2-0.2c2.8,0,5.4,1.3,7.2,3.3v-3.1c0-0.1,0.1-0.2,0.2-0.2
	c2.8,0,5.4,1.3,7.2,3.3v-3.1c0-0.1,0.1-0.2,0.2-0.2c2.8,0,5.4,1.3,7.2,3.3l0,0v-3.1c0-0.1,0.1-0.2,0.2-0.2c2.4,0,4.5,0.8,6.1,2.4
	C84.7,18.9,90.8,26,90.8,34v2.4c0,0.4-0.1,0.8-0.2,1.2l2.1,2.7c2.2,2.8,2.5,6.6,0.8,9.7c3.1,1.3,5.2,4.4,5.2,7.9
	c0,0.8-0.1,1.5-0.4,2.2c-0.6-1.7-1.8-3.3-3.5-4.7c1.3,1.8,1.8,4,1.4,6.4c-0.1,0.8-0.4,1.5-0.7,2.2c-0.4-2.7-2.5-5.4-5.7-7.7
	c0.9,1.7,1.4,3.5,1.2,5.5c-0.1,0.8-0.4,1.5-0.6,2.2c-0.5-2.5-2.2-4.8-5-6.8l-10.4,8.1H64.1c-3.3,0-6.3-1.5-8.4-4
	c-3.4-4.2-8.8-6.5-16.3-6.5H35v1.7h4.5c7,0,11.8,1.9,15,5.8c2.4,2.9,5.9,4.7,9.7,4.7h11.7l6.7,0.2c4.6,0,8.5,3.4,8.5,8
	c0,0.1,0,0.2,0,0.4l-2.5,2.1c-0.7-1.2-1.9-2.2-3.9-2.8c0.2,1.1,0.1,2.4-0.5,3.5c-0.5,0.9-1.3,1.7-2.1,1.9l0.5-1.3
	c0.6-1.7,0.1-3.3-0.8-4.6c-0.4,0-0.8,0-1.3,0c-3.1,0.1-6.5,3.2-12.7,2.6c-5.1-0.6-3.4-5.1-8.5-5.1c-4,0.6-4.8,3.1-7.1,2.6
	c-9.6-2.2-14.5-3.1-18.6-3.4c-3.1-0.2-3.1-4.8-3.1-4.8s-2.8,1.2-0.8,4.2c2,3.1,5.3,2.6,5.3,2.6c5.7-1.2,14.2,4.5,14.2,4.5
	s10.1,0,12.4,4.5c2.2,4.5,9.1,1.4,9.1,1.4c5.7,3.2,11.7,1.9,14.7,0.8c-1.2,2.4-7.1,4.2-14.2,4.2c-6.7,0-12.3-1.7-13.9-3.8h-0.5
	l-7.4,1.1c-4.2,0.8-8.6,1.2-13,0.8L30,86.3c2.2,1.5,3.7,4,3.7,7c0,0.8-0.1,1.5-0.4,2.2c-0.8-2.5-3.1-4.7-6.3-6.4
	c0,0.1-0.1,0.2-0.2,0.2c2.4,2,3.9,5,3.9,8.4v1.8l-7.2-7.3c-0.2,0.1-0.6,0.2-0.9,0.2c0.5,1.1,0.8,2.4,0.8,3.7c0,0.8-0.1,1.5-0.4,2.2
	c-1.1-3.5-5.1-6.5-10.6-8.1l-5.9-0.9c-2.8,0-5.1-2.8-5.1-6.4C0.9,80.6,1.5,78.7,2.7,77.3z M38.9,65c1.4,1.1,2.8,1.7,4.4-0.5
	l-5.2-3.8C36.6,62.8,37.5,64,38.9,65z"/>
</svg>
