<?xml version="1.0" encoding="utf-8"?>
<!-- Generator: Adobe Illustrator 27.9.0, SVG Export Plug-In . SVG Version: 6.00 Build 0)  -->
<svg version="1.1" id="Layer_1" xmlns="http://www.w3.org/2000/svg" xmlns:xlink="http://www.w3.org/1999/xlink" x="0px" y="0px"
	 viewBox="0 0 100 100" style="enable-background:new 0 0 100 100;" xml:space="preserve">
<g>
	<path d="M60.9,19.3L60.9,19.3C60.9,19.3,60.9,19.3,60.9,19.3z"/>
	<path d="M36.6,29.2L36.6,29.2L36.6,29.2L36.6,29.2C36.6,29.2,36.6,29.2,36.6,29.2C36.6,29.2,36.6,29.2,36.6,29.2L36.6,29.2
		L36.6,29.2L36.6,29.2L36.6,29.2C36.6,29.2,36.6,29.2,36.6,29.2C36.6,29.2,36.6,29.2,36.6,29.2L36.6,29.2z M36.6,29.2L36.6,29.2
		C36.6,29.2,36.6,29.2,36.6,29.2z"/>
	<path d="M59.1,60.8c0.2-0.4,0.5-0.8,0.7-1.2c0.1,0.1,0.1,0.1,0.2,0.2c1.4,2,2.8,4,4.2,6c1.2,1.8,2.5,3.5,3.7,5.2
		c0.1,0.1,0.4,0.2,0.5,0.2c1.1,0,1.9,0.6,2.1,1.6c0,0.3,0,0.5,0.1,0.8c0,0,0.1,0,0.1,0c0-0.2,0.1-0.4,0-0.6
		c-0.1-0.5,0.2-0.8,0.7-0.6c0.2,0.1,0.4,0.2,0.6,0.3c-0.3,0.6-0.5,0.3-0.9,0c0,0.4,0,0.7,0,0.9c0.9-0.3,1.6,0,2,0.6
		c1.4,1.7,3,3.4,3.5,5.7c0.1,0.4,0.2,0.7,0.7,0.9c0.2,0.1,0.4,0.3,0.5,0.5c0.1,0.1,0.1,0.3,0,0.4c0,0.1-0.3,0.1-0.4,0.1
		c-0.3-0.1-0.6-0.3-0.9-0.5c-0.8-0.8-1-1.9-1.3-2.9c-0.3-1.4-1.2-2.3-2.4-3c0,0.5,0,1-0.1,1.4c-0.2,0.5-0.1,0.9,0.3,1.3
		c0.2,0.2,0.4,0.5,0.5,0.7c0.1,0.1,0.2,0.2,0.2,0.3c-0.1,0.8,0.5,1.3,0.9,2c0.2-0.9-0.5-1.6,0.3-2.4c0.2,0.6,0.3,1.1,0.5,1.6
		c0.3,1,0.6,2,1.6,2.5c0.3,0.2,0.4,0.7,0.6,1c0.1,0.2,0.1,0.6,0.2,0.8c1,1.5,2,3,2.9,4.6c0.8,1.3,1.5,2.7,2.3,4
		c0.1,0.1,0.1,0.3,0.2,0.4c-2.7-2.4-5.3-4.9-7.3-7.9c-0.1-0.2-0.3-0.3-0.4-0.4c-0.5-0.1-0.8-0.6-0.8-1c-0.1-0.6-0.4-1.1-0.9-1.5
		c-0.4-0.4-0.9-0.7-1.4-1c-0.3-0.2-0.6-0.5-0.9-0.7c1-0.4,1.4,0.5,2.3,0.6c-0.5-0.6-0.7-1.3-1.5-1.5c-0.4-0.1-0.7-0.3-0.9-0.6
		c-0.2-0.3-0.4-0.6-0.6-0.9c-0.1-0.1-0.2-0.2-0.3-0.2c-0.5-0.1-0.9-0.2-1.4-0.3c0.2,1.3,0.8,2.4,1.9,3.2c0.5,0.3,1,0.6,1.4,1
		c0.5,0.5,0.8,1.1,1.1,1.7c0.1,0.2,0,0.8-0.1,0.8c-0.5,0.2-0.6-0.3-0.7-0.6c0-0.6-0.5-0.9-0.9-1.2c-0.6-0.5-1.2-1.1-1.7-1.7
		c-0.4-0.4-0.7-1-1-1.5c-0.5-0.8-1-1.6-1.4-2.4c-0.2-0.5-0.3-1.2,0.3-1.7c-0.3-0.1-0.5-0.2-0.9-0.3c0.1,0.3,0.2,0.4,0.2,0.5
		c0,0.1-0.1,0.2-0.2,0.3c-0.1,0-0.2-0.1-0.3-0.1c0-0.3-0.1-0.6,0.1-0.9c0-0.1,0.5-0.1,0.7-0.1c0.2,0,0.3,0.1,0.5,0.1
		c0-0.1,0-0.1-0.1-0.1c-1.5-0.6-1.9-1.5-1.3-3c0.1-0.1,0-0.4-0.1-0.5c-0.7-1-1.4-2.1-2.2-3.1c-0.6-0.8-1-1.8-2-2.4
		c-0.1-0.1-0.1-0.2-0.2-0.3c-0.2-0.3-0.3-0.7-0.5-1c-0.9-1.2-1.7-2.5-2.6-3.7C59.1,61.1,59.1,60.9,59.1,60.8z M72,76
		c0.1,0,0.1,0,0.2,0c0-0.2,0.1-0.5,0-0.6c-0.1-0.2-0.4-0.2-0.6-0.3c0,0-0.1,0.1-0.1,0.1C71.7,75.5,71.9,75.7,72,76z M69.4,77.4
		c0.1,0.1,0.3,0.1,0.5,0.2c0,0,0-0.1,0.1-0.1c-0.1-0.2-0.3-0.4-0.4-0.6c0,0-0.1,0-0.1,0C69.3,77,69.3,77.2,69.4,77.4z M68.7,74.6
		c0.8,0,1.5-0.6,1.5-1.4c0-0.8-0.6-1.4-1.4-1.5c-0.8,0-1.5,0.6-1.5,1.4C67.2,73.9,67.9,74.6,68.7,74.6z"/>
	<path d="M18.9,2.3c0.3,0.6,0.7,1.1,1,1.6c0.4,0.5,0.8,0.9,1.1,1.4c0.6,0.8,0.9,1.7,1.8,2.1c0.6,0.3,0.9,0.7,1,1.4
		c0,0.2,0.2,0.4,0.3,0.7c0.4,0.6,1.6,0.5,1.6,1.5c0,0,0,0,0,0c0.9,0.4,1.2,1,0.9,2c0.7-0.1,1.1,0.1,1.4,0.7c0.1,0.2,0.2,0.4,0.4,0.4
		c0.7,0.2,1.2,0.7,1.5,1.3c0.3,0.6,0.7,1.2,0.7,1.9c0.1,0.7,0.2,1.3,0.8,1.7c0.2,0.1,0.3,0.3,0.4,0.5c0.1,0.2,0.1,0.5,0.2,0.6
		c1.6,2.3,3.2,4.5,4.8,6.8c0.1,0.2,0.3,0.3,0.4,0.4c-0.3-1-0.8-2.1-0.2-3.2c0.3,2,0.7,3.1,2.6,3.6c0.1-0.4,0.1-0.8,0.3-1.1
		c0.2-0.3,0.1-0.5-0.1-0.7c-0.1-0.3-0.3-0.6-0.2-0.9c0.1-1,0.1-1-0.8-0.7c0,0-0.1,0-0.1,0c0-0.1,0-0.1,0-0.2
		c-0.2-0.1-0.4-0.2-0.7-0.2c-0.2,0-0.3,0-0.5,0.1c-0.1,0-0.3,0-0.5,0c0.8-0.3,1.5-0.5,2.2-0.8c0-0.1,0-0.1,0-0.2
		c-1.5,0.3-3,0.1-4.4-0.5c1.3,0,2.6,0,4,0c-0.1-0.2-0.2-0.3-0.2-0.4c-0.4-0.6-0.8-1.1-1.1-1.7c-0.4-0.6-0.8-1-1.5-1
		c-0.4,0-0.8,0.2-1.2,0.3c0,0,0-0.1,0-0.1c0.6-0.7,1.7-1,2.5-0.6c0.7,0.3,1.2,0.8,1.5,1.5c0.2,0.4,0.5,0.7,0.7,1.1
		c0.4-1,0.4-1.1-0.3-1.6c-0.3-0.2-0.6-0.5-0.8-0.7c0,0,0-0.1,0.1-0.1c0.5,0.3,1,0.6,1.5,0.9c0.3-0.5,0.6-0.9,0.9-1.3
		c0.2-0.2,0.3-0.4,0.2-0.6c-0.3-0.8-0.5-1.6-0.8-2.4c-0.1-0.5-0.2-1-0.3-1.5c0,0,0.1,0,0.1,0c0.5,1.3,1,2.6,1.5,3.9
		c0.5-0.2,0.5-0.4,0.4-0.8c-0.2-0.6-0.4-1.3-0.6-1.9c0,0,0.1,0,0.1,0c0.2,0.5,0.4,1.1,0.7,1.6c0.4,0.8,0.6,0.9,1.4,0.9
		c-1.2-1.7-1.3-3-0.2-3.8c-0.1,0.5-0.2,1-0.2,1.5c0,0.4,0,0.9,0.5,0.9c0.5,0.1,0.7,0.3,0.9,0.7c0.2,0.3,0.4,0.7,0.5,1.1
		c0.2-0.3,0.4-0.6,0.6-0.8c-0.2,0.9-0.1,1,0.8,1c0.2,0,0.5,0,0.8,0c0.1-0.5,0.3-1.1-0.2-1.5c-0.4-0.3-0.2-1.1-0.8-1.1
		c0.1-0.2,0.2-0.4,0.2-0.7c0.2-0.7,0.2-1.3,0.5-2c0.2-0.4,0.2-0.7,0.2-1.1c0-0.8-0.1-1.7,0-2.5c0.2-1.5,2-2.9,3.6-3
		c0.2,0,0.5,0,0.7-0.1c1.3-0.5,2.7-1,4-1.6c0.7-0.3,1.5-0.6,2.1-1c1.3-0.8,1.3-2.4-0.1-3.1c0,0,0-0.1,0-0.1C58.6,1,59,1.4,58.9,2.6
		c-0.1,1.6-1.1,2.7-2.4,3.4c-0.6,0.4-1.2,0.7-1.9,1c1.8,0.2,2.8,1.2,3.4,2.7c0.5-0.3,0.9-0.5,1.3-0.7c1.2-0.5,2.2-1.2,3.1-2.1
		c0.1-0.1,0.3-0.3,0.3-0.5c0.4-1,0.2-2-0.7-2.7c0.8,0.2,1.4,0.8,1.5,1.6c0.1,1.2-0.3,2.3-1.1,3.2c-0.7,0.7-1.6,1.2-2.4,1.8
		c-0.4,0.3-0.8,0.6-0.8,1.2c0.1,0.1,0.3,0.2,0.4,0.3c1,0.6,1.6,1.4,1.5,2.7c-0.1,0.8,0,1.7,1,2.1c0.4,0.2,0.9,0.3,1.3,0.3
		c0.8,0.1,1.3,0.6,1.3,1.4c0,0.2,0,0.3,0.1,0.5c-0.2-0.4-0.2-1-0.5-1.3c-0.3-0.3-0.8-0.3-1.3-0.5c0.6,0.5,0.7,0.7,0.6,1.5
		c0,0.2,0.1,0.5,0.2,0.6c0.2,0.3,0.5,0.6,0.7,0.9c0.2,0.3,0.1,0.6-0.2,0.8c0.5-0.4-0.1-0.7-0.2-1c-0.1,0.2-0.3,0.4-0.4,0.6
		c0.1-0.4,0.3-0.8-0.1-1.2c0,0.5-0.1,0.9-0.1,1.4c-0.1,0.1-0.3,0.2-0.4,0.3c-0.4,0.5-1,0.6-1.7,0.4c0.2-0.1,0.4-0.1,0.5-0.1
		c1.2-0.2,1.8-1.2,1.2-2.4c-0.1-0.2-0.2-0.4-0.2-0.5c-0.1-0.7-0.5-0.9-1.1-1c-0.6-0.1-1.1-0.4-1.4-1c-0.1-0.2-0.2-0.4-0.4-0.7
		c-0.3,1.7,0.7,2.7,1.7,2.6c-0.2,0.1-0.3,0.2-0.5,0.2c0.4,0.9,0.3,1.1-0.3,1.4c0.1-0.2,0.3-0.4,0.4-0.7c0,0-0.1,0-0.1-0.1
		c0,0-0.1,0.1-0.1,0.1c-0.1-0.3-0.1-0.6-0.3-0.7c-1.2-1.1-1.9-2.5-2.1-4.1c0-0.2-0.1-0.4-0.1-0.6c-0.6,0.3-1,0.8-1.1,1.4
		c-0.2,1-0.2,1.9,0.1,2.8c0.1,0.4,0.3,0.9,0.3,1.3c0.2,1-0.1,1.7-1,2.2c-0.3,0.1-0.7,0.2-0.9,0.1c-0.3-0.2-0.4-1-0.2-1.3
		c0.1-0.1,0.2-0.2,0.3-0.2c0,0.3,0.1,0.6,0.1,0.8c0,0.1,0.3,0.1,0.3,0.1c0.1-0.2,0.3-0.5,0.3-0.7c0-0.8-0.3-1.5-0.7-2.2
		c-0.5,0.6-1,1.1-1.4,1.7c-0.3,0.5-0.8,0.6-1.3,0.4c-0.2,0-0.3-0.1-0.5-0.1c-0.1,0-0.3,0.3-0.3,0.3c0.3,0.6,0.6,1.3,1,2
		c0.3-0.2,0.5-0.3,0.8-0.4c0.9-0.5,1.3-0.4,2,0.3c0.3,0.3,0.6,0.6,0.9,0.9c0.7,0.5,1,1.1,1.1,1.9c-0.3,0-0.5,0-1-0.1
		c0.3,0.4,0.5,0.8,0.8,0.9c0.9,0.4,1.8,0.9,2.2,1.8c0.1-0.1,0.2-0.1,0.3-0.2c0.2,0.6,0.4,1.1,0.5,1.7c0.3,1,0.1,2-0.6,2.8
		c-0.4,0.4-0.8,0.7-1.2,1c-0.1,0.1-0.3,0.3-0.3,0.5c0,1.5,0,2.9,0,4.4c0,0.7-0.1,1.5,0.2,2.2c0.2,0.4,0.4,0.9,0.4,1.4
		c0.2,1.2,0.4,2.4,0.6,3.6c0.2-0.1,0.4-0.2,0.5-0.3c0.3,0.4,0.3,0.6,0.2,1.1c-0.1,0.8-0.3,1.7-0.3,2.5c-0.1,1.5,0,3-0.1,4.5
		c-0.1,1.1-0.3,2.2-0.4,3.3c0,0.2,0,0.4,0.1,0.5c0.4,0.2,0.3,0.6,0.2,0.9c-0.2,0.5-0.4,1-0.6,1.4c-0.3,0.6-0.7,1.2-1.1,1.9
		c-1.2,2.4-2.4,4.8-3.7,7.3c-0.3,0.6-0.8,1.2-0.6,2c0,0.2-0.1,0.5-0.1,0.7c0,0.3-0.1,0.6,0,0.9c0.3,1.5,0.6,3,0.8,4.5
		c0.2,2.8,0.7,5.5,1.5,8.2c0,0.1,0.1,0.4,0.2,0.4c0.5,0.2,0.5,0.6,0.5,0.9c0,1.5,0.3,3,0.9,4.3c0.1,0.1,0,0.3,0,0.4
		c0,0.3-0.1,0.6,0,0.8c0.3,1.4,0.8,2.7,1,4.1c0.2,1.1,0.5,2.1,1.1,3.1c0.4,0.6,0.1,1.3-0.6,1.3c-1.1-0.1-2.2-0.3-3.3-0.5
		c-0.2,0-0.5-0.4-0.6-0.7c-0.1-0.4-0.1-0.9-0.2-1.3c-0.1-0.6-0.2-1.2-0.3-1.8c-0.1,0-0.1,0-0.2,0c0,0.5,0.1,0.9,0.1,1.4
		c0,0.1-0.1,0.2-0.1,0.3c-0.1-0.1-0.2-0.1-0.3-0.2c-0.1-0.1-0.1-0.2-0.1-0.3c-0.4-1.4-0.9-2.9-1.4-4.3c-0.2-0.5-0.3-1,0-1.5
		c0.5-0.8,0.6-1.7,0.4-2.5c-0.3-1.2-0.7-2.3-1.1-3.5c-0.4-1.3-1-2.5-1.5-3.9c-0.4,1.1-0.7,2-1,2.9c0,0.1,0,0.2,0,0.3
		c0,0.3,0.1,0.6,0.1,0.9c0,0.4-0.2,0.8-0.2,1.3c-0.3,1.6,0,3.3-0.4,4.9c0,0,0,0.1,0,0.2c0,0.7,0,1.5-0.1,2.2c-0.2,1,0.2,1.6,0.8,2.2
		c0.3,0.2,0.6,0.5,0.9,0.6c0.3,0.1,0.4,0.3,0.3,0.6c-0.1,0.3-0.1,0.7-0.6,0.6c-0.9,0-1.8,0-2.7,0c-0.4,0-0.7-0.2-0.9-0.6
		c-0.1-0.3-0.2-0.6-0.3-0.9c-0.3-0.9-0.6-1.8-1-2.7c-0.1-0.1-0.2-0.2-0.3-0.4c-0.1,0-0.1,0-0.2,0c-0.1,1.1-0.1,2.2-0.2,3.3
		c0,0.2-0.2,0.3-0.3,0.5c-0.1-0.1-0.3-0.3-0.3-0.4c-0.1-1.8-0.3-3.6-0.9-5.4c-0.3-0.8-0.3-1.7,0.3-2.6c0.5-0.8,1-1.5,1.4-2.4
		c0.3-0.6,0.4-1.2,0.5-1.9c0.1-2.2,0.3-4.3,0.4-6.5c0-1.9,0.3-3.8,0.9-5.7c0.3-0.9,0.7-1.8,1.1-2.6c0.4-0.9,0.5-1.9,0.1-2.9
		c-0.6-1.5-1.1-3-1.7-4.6c-0.4-0.9-0.7-1.9-1.3-2.7c-0.4-0.6-0.4-1-0.2-1.5c0.1-0.2,0.1-0.5,0-0.7c-0.2-0.7-0.5-1.4-0.6-2.2
		c-0.5-2.1-0.9-4.2-1.3-6.3c-0.2-1.1-0.5-2.1-0.7-3.2c0-0.3,0.1-0.7,0.3-0.8c0.3-0.2,0.4,0.2,0.6,0.5c0.3,0.5,0.6,1,0.9,1.5
		c0-0.1,0-0.1,0-0.2c0.3-1.2,0.6-2.5,1.5-3.3c0.7-0.6,1-1.4,1.1-2.3c0.1-0.7,0.2-0.7,0.8-0.6c0.3-0.4,0.6-0.8,0.8-1.2
		c0.6-1,0.6-1.2-0.3-1.9c0.5-0.7,0.9-1.4,0.2-2.2c0,0-0.1-0.1,0-0.1c0.3-0.4-0.1-0.6-0.3-0.8c-0.4-0.4-0.8-0.8-1.1-1.2
		c-1-1.2-2-2.4-2.4-4c-0.1-0.2-0.2-0.5-0.4-0.8c-0.6,0.7-1.1,1.2-1.5,1.9c-0.7,1.1-1.2,2.3-1.8,3.5c-0.2,0.4-0.4,0.9-0.6,1.3
		c-0.1,0.3-0.4,0.6-0.4,0.9c-0.1,0.7-0.1,1.4-0.1,2.1c-0.3-0.7-0.6-1.4-0.9-2.1c-0.1,0.7-0.2,1.4-0.3,2.1c-0.5-1.1-0.9-2.2-1.3-3.2
		c-0.1,0-0.1,0-0.2,0.1c-0.1,0.4-0.2,0.8-0.3,1.3c-0.1-0.1-0.1-0.2-0.2-0.3c-0.3-0.6-0.6-1.3-1-1.8c-0.3-0.6-0.9-0.9-1.4-1.3
		c-0.7-0.4-1.3-1-1.9-1.5c-0.4-0.4-0.9-0.5-1.4-0.1c-0.1-0.3-0.2-0.5-0.3-0.7c-0.1-0.1-0.2-0.3-0.4-0.3c-1.1-0.1-2.1-0.2-3.2-0.3
		c-0.1,0-0.3-0.1-0.4-0.1c-0.4-0.4-0.7-0.7-1.1-1.1c-0.7-0.6-1.2-1.2-1.5-2.1c0-0.2-0.1-0.4,0-0.5c0.3-0.4,0.7-0.8,1.1-1.4
		c0,0.5,0,0.9,0.1,1.3c0,0.2,0,0.4,0,0.6c0,0.2,0.2,0.4,0.2,0.6c0,0.4,0.3,0.4,0.6,0.4c-0.1-0.5-0.3-0.9-0.3-1.4
		c0-0.6,0.1-1.3,0.2-1.9c0-0.2,0-0.3,0-0.5c0.1,0,0.1,0,0.2,0c0.2,0.7,0.5,1.3,0.7,2.1c0.4-0.3,0.8-0.6,1.1-0.8
		c0.2,0.4,0.2,0.4-0.1,0.9c-0.1,0.3-0.1,0.7,0,1.1c0,0.1,0.2,0.2,0.4,0.3c0.1-0.1,0.2-0.2,0.3-0.4c0.1-0.8,0.2-1.6,0.4-2.4
		c0.3,0.7,0.5,1.4,0.7,2.1c0.1,0.5,0.6,1,0.9,0.8c0.4-0.2,0.6-0.1,1,0c0.3,0,0.5,0.2,0.8,0.1c0.4-0.1,0.6,0.1,0.8,0.5
		c0.5,0.9,1.4,1.3,2.3,1.7c0.2,0.1,0.6-0.1,0.9-0.1c0,0,0.1,0,0.1,0c0,0.3,0.1,0.5,0.2,0.7c0.1,0.1,0.3,0.2,0.5,0.2
		c0.3,0.1,0.6,0.1,1,0.2c0.4-0.5,0.7-0.9,1-1.4c-0.7-0.5-1.2-1-1.8-1.5c0.4,0.6,0.8,1.3,1.2,2c-0.1,0.1-0.2,0.1-0.3,0.2
		c-0.5,0.6-1,0.5-1.5-0.1c-0.1-0.1-0.2-0.3-0.4-0.4c-0.1-0.2-0.1-0.3-0.2-0.5c-1.3-1.9-2.6-3.7-3.9-5.6c-0.6-0.9-1.2-1.8-1.9-2.7
		c-0.4,0.5-0.6,0.2-0.7-0.2c-0.1-0.3-0.2-0.8-0.5-0.9c-0.7-0.3-1.3-0.7-1.8-1.2c-0.7-0.6-1.6-1.2-1.4-2.4c0-0.1-0.1-0.2-0.1-0.3
		c-0.7-0.5-0.7-1.1-0.4-1.8c-1-0.1-1.3-0.4-1.5-1.3c0-0.1-0.1-0.3-0.2-0.3c-0.4-0.1-0.4-0.4-0.4-0.8c-0.1-0.7-0.2-1.5-1-1.8
		C22,9.4,21.8,9,21.7,8.5c-0.1-0.8-0.4-1.4-1-2c-0.3-0.3-0.6-0.7-0.8-1.1c-0.6-0.9-1.1-2-1.9-2.7C17.2,2,17,0.9,16.7,0
		C17.5,0.7,18.4,1.3,18.9,2.3z M60.8,17c0.1,0,0.1-0.1,0.2-0.1c-0.2-0.2-0.3-0.4-0.5-0.6c-0.1-0.2-0.3-0.4-0.4-0.7
		c0,0-0.1,0.1-0.1,0.1C60.2,16.2,60.5,16.6,60.8,17z M60.2,13.7c0.2,0.3,0.3,0.6,0.5,0.9c0,0,0.1,0,0.1-0.1
		c-0.2-0.5-0.4-0.9-0.7-1.4c-0.1-0.1-0.3-0.2-0.5-0.4C59.9,13.1,60.1,13.4,60.2,13.7z M60.2,13.1C60.2,13.1,60.2,13.1,60.2,13.1
		c0.1,0.2,0.3,0.4,0.4,0.5c0-0.7-0.7-1.4-1.3-1.6C59.6,12.4,59.9,12.8,60.2,13.1z M58.9,15.5c0,0,0.1,0,0.1,0c0-0.6,0.1-1.2,0.1-1.8
		c-0.1,0-0.1,0-0.2,0C58.9,14.3,58.9,14.9,58.9,15.5z M55.9,8.2c-0.8-0.5-1.5-0.7-2.4-0.6C54.3,7.8,55,8,55.9,8.2z M29.9,15.9
		c-0.3-0.9-0.7-1.2-1.3-1.4C28.4,15.6,29.3,15.5,29.9,15.9z M29.4,17.9c0.1-0.6-0.1-0.9-0.8-1.2C28.6,17.4,28.8,17.7,29.4,17.9z
		 M27.9,15.7c-0.1-0.5,0.4-1.1-0.3-1.3c-0.5-0.2-0.8,0.2-0.8,0.6C26.7,15.7,27.5,15.4,27.9,15.7z M27.4,17.8
		c-0.1-0.7,0.2-1.6-0.9-1.7C26.4,16.8,26.8,17.2,27.4,17.8z M26.3,12.8c0.3-0.9-0.1-1.4-1.1-1.3C25.6,12,25.9,12.4,26.3,12.8z
		 M25.7,13.3c-0.3-0.5-0.6-1-0.9-1.4C24.4,12.6,24.7,13.2,25.7,13.3z"/>
	<path d="M41.4,33.4c0.2,0.3,0.3,0.5,0.5,0.6c1.6,2.2,3.2,4.5,4.8,6.7c0.5,0.7,0.4,1.5-0.3,2.1c0,0-0.1,0-0.1,0
		c-1.8-2.5-3.5-5-5.3-7.5c-0.1-0.1-0.1-0.3-0.1-0.4C41,34.4,41.2,34,41.4,33.4z"/>
	<path d="M28.1,21.5c0.5,0,0.8,0.3,0.8,0.8c0,0.5-0.3,0.8-0.8,0.8c-0.5,0-0.8-0.4-0.8-0.8C27.3,21.9,27.6,21.5,28.1,21.5z"/>
</g>
</svg>
