<?xml version="1.0" encoding="utf-8"?>
<!-- Generator: Adobe Illustrator 27.9.0, SVG Export Plug-In . SVG Version: 6.00 Build 0)  -->
<svg version="1.1" id="Layer_1" xmlns="http://www.w3.org/2000/svg" xmlns:xlink="http://www.w3.org/1999/xlink" x="0px" y="0px"
	 viewBox="0 0 100 100" style="enable-background:new 0 0 100 100;" xml:space="preserve">
<g transform="translate(0.000000,500.000000) scale(0.100000,-0.100000)">
	<path d="M456.4,4830c-31.3-7.4-70-28.7-94.2-51.3c-24.2-22.3-39.7-45.5-52-78.4c-7.4-19.4-8.4-26.5-8.4-66.8
		c-0.3-58.1,2.6-64.6,48.7-110.4c20-19.7,33.2-35.5,33.2-39.4c0-3.6-3.6-10.3-7.7-15.5c-9.4-11.3-16.8-26.1-32.6-65.5
		c-6.8-16.8-17.8-38.7-24.2-48.4c-15.2-22.3-38.7-44.2-50.7-46.8c-4.8-1.3-11-2.6-12.9-3.2c-2.3-1-15.8,0.3-30,2.3
		c-30.3,4.5-49.7,1-67.1-12.6c-17.4-13.2-23.6-25.5-22.9-47.1c1-21.9-2.9-27.4-15.5-22.9c-6.5,2.3-9.7,6.1-11.6,15.2
		c-3.9,15.5-16.5,20-25.5,8.7c-7.7-9.4-7.4-14.2,2.3-34.9c13.2-28.4,40.7-36.1,72.6-20c14.2,7.4,21.3,19.4,23.6,41.6
		c1.3,11.3,4.5,20,8.7,24.2c5.8,6.1,7.7,6.1,25.2,2.6c40-8.4,77.5-1.3,109.1,20c22.3,15.2,33.9,30,66.8,85.9
		c15.2,25.8,30.3,49.4,33.6,52.3c23.6,21.3,78.8,31.3,115.5,20.3c33.2-9.7,45.2-20.7,64.9-60c33.9-67.8,64.9-99.1,114.9-116.2
		c16.8-5.8,24.9-6.5,46.2-4.8c14.2,1,28.7,2.6,32.6,3.6c11.6,3.6,20.7-7.4,23.9-29.4c3.2-24.9,9.4-34.2,26.5-42
		c36.1-16.1,74.6,4.2,74.9,39.7c0.3,12.9-1,15.8-7.1,19c-10.3,5.2-20,2.3-20-6.5c0-10.3-9-21.3-17.8-21.3
		c-10.7,0-12.9,4.8-12.9,27.8c0,25.2-10.7,42.3-32.3,52.9c-13.6,6.5-17.8,7.1-38.1,4.8c-49.7-5.5-62.3-2.9-83.6,17.1
		c-21.3,19.7-41.3,50.7-57.1,87.1c-13.9,31.3-19.4,41.6-31.6,56.5c-4.2,5.2-7.4,11.6-7.4,14.5c0,2.6,15.8,20,34.9,38.1
		c40,37.8,49.7,54.5,55.5,95.2c11.3,79.4-31.3,155.9-109.4,196.2c-13.6,6.8-34.2,14.8-45.8,17.8
		C525.8,4836.1,482.5,4836.5,456.4,4830z M377.3,4597c14.2-12.3,32.3-25.8,40.3-30c15.8-8.4,20-15.5,14.8-25.2
		c-9-16.5-32.6-12.3-57.1,10.3c-17.4,15.8-33.6,42-33.6,54.2c0,4.2,5.8,12.6,9,12.6C351.5,4618.9,363.4,4608.9,377.3,4597z
		 M664.5,4606.3c0-9.7-18.4-43.9-29.4-54.2c-27.1-25.8-64.2-25.5-64.2,0.3c0,2.9,7.1,8.7,15.5,12.9c8.7,4.5,27.8,18.4,42.3,31
		c21.6,18.4,27.4,22.3,31.3,19C662.6,4613.4,664.5,4609.2,664.5,4606.3z"/>
	<path d="M834,4674.7c-37.8-8.1-52.6-25.5-61.3-71.3c-11.6-59.4-21.3-78.1-47.8-90.7c-13.2-6.5-15.2-6.5-29.7-1.9l-15.8,4.5
		l-12.9-11.6c-22.6-20.3-22.3-20-18.1-25.2c6.5-7.7,45.5-19,66.2-18.7c23.9,0,37.4,5.5,58.1,24.5c27.1,24.2,39.4,53.9,46.5,110.4
		c2.6,20,4.5,27.1,10,31.3c14.8,11.9,35.8,4.5,51.6-18.4c5.5-8.1,13.6-15.5,17.8-16.5c12.6-3.2,23.9,1,26.1,9.7
		c2.6,11-10.3,39.1-23.9,51C882.1,4668,851.4,4678.6,834,4674.7z"/>
	<path d="M130.4,4668c-25.8-12.3-46.8-39.7-46.8-61.3c0-11.9,5.5-16.8,18.4-16.8c9,0,12.3,2.6,23.6,17.8
		c14.5,19.7,21,24.2,35.2,24.2c13.9,0,21.6-9.4,25.8-31.3c2.3-10.3,6.1-29,8.7-42c16.1-76.5,67.5-111.7,133.6-91.7
		c13.2,4.2,23.9,9.4,24.9,12.3c1.3,3.6-3.2,10.3-14.5,21c-14.2,13.2-17.8,15.2-22.9,12.3c-14.5-7.7-36.8-1.9-50.7,13.6
		c-11.9,12.9-18.4,28.7-27.8,70.4c-10,44.5-17.4,57.5-40,69.1C180.1,4674.7,147.5,4676,130.4,4668z"/>
	<path d="M84.5,4540.2c-17.4-5.5-42.9-24.5-56.2-41.3c-7.4-9-11.3-18.4-13.2-31.3c-1.6-10-5.8-27.4-9-38.7
		c-7.7-24.5-8.1-39.7-1.3-59.1c9.4-27.8,41-51,68.4-51c16.1,0.3,36.1,9.7,46.8,22.3c8.7,10.7,20,42.3,17.4,49.7
		c-0.6,1.9,2.9,5.5,8.1,7.7c11.6,4.8,11.9,14.5,0.6,25.8c-9.4,9.4-21.6,9-42.6-1.3c-13.2-6.5-16.8-16.5-10.3-28.7
		c6.1-11.3,1.3-29.7-8.4-34.2c-18.1-8.4-36.8,14.5-36.8,44.5c0,42.6,25.2,72.3,61.3,72.3c18.7,0,32.9-7.1,45.5-22.6
		c25.2-31.3,32.9-38.4,54.2-49.7c27.8-14.5,58.4-22.6,76.5-20c23.2,2.9,28.7,7.4,37.4,29l7.7,19.7h-33.9c-32,0-35.5,0.6-52,9.7
		c-23.2,12.6-41.3,31-53.9,54.9c-11.9,22.9-20.7,31.6-37.8,38.7C135.9,4544,101.3,4545.6,84.5,4540.2z"/>
	<path d="M864.7,4540.2c-27.4-7.7-34.5-13.6-47.1-37.4c-14.2-27.4-36.5-51.6-56.2-61.3c-17.1-8.7-48.7-11.9-73.3-7.1
		c-20.3,3.6-20.7,3.2-7.7-24.2c8.7-18.4,10.7-20.3,23.6-23.9c17.1-4.5,52-1.9,69.1,5.2c31,12.6,46.2,25.2,62.6,50.4
		c18.1,28.1,30.3,35.8,54.9,35.8c21.9,0,39.7-10,48.1-27.8c10.7-21.9,15.2-50.7,10.3-66.5c-9.7-32.6-38.4-35.5-44.2-4.5
		c-1.6,8.7-0.6,12.3,3.6,15.5c9,6.5,5.2,21.3-7.7,30c-17.4,11.9-41,9-48.7-5.8c-4.2-7.4-1.3-19,4.5-19c2.9,0,5.2-6.5,6.5-18.1
		c4.2-36.1,24.9-58.7,56.8-62c32.3-2.9,63.9,19.4,75.5,53.3c7.1,20.7,6.5,57.1-1.3,82.3C974.7,4516.6,916.3,4555.3,864.7,4540.2z"/>
	<path d="M501.9,4407.2c2.6-18.4,4.2-21.6,9-19.7c3.9,1.6,4.8-9.4,5.8-63.3c1.6-77.1,5.2-90.7,32.3-120.1
		c30-32.9,62.3-45.2,93.9-35.8c25.5,7.4,37.4,23.6,42.6,57.5c1.9,12.6,1.3,15.8-4.8,21.9c-9,9-16.8,7.1-20.7-5.8
		c-1.6-5.8-8.1-14.8-14.2-20.3c-10-8.7-13.2-10-25.5-8.4c-16.5,1.6-27.1,10.3-37.4,29.7c-6.5,11.9-7.1,17.4-7.1,75.8
		c0,57.1-0.6,63.9-6.5,72.3c-7.1,10.7-34.2,23.9-55.2,26.8l-13.9,1.9L501.9,4407.2z"/>
	<path d="M466,4411.4c-5.2-1.6-14.5-6.5-20.3-11c-18.1-13.6-20-21-20-74.6c0-36.8-1.3-52.3-5.5-65.5c-6.5-19.7-26.8-43.3-40.7-46.5
		c-19.7-5.2-36.8,6.1-42.3,28.1l-3.6,14.8l-11-4.5l-11-4.5l1.6-20.7c2.6-28.7,10.3-43.9,28.4-52.9c29.7-15.2,69.7-4.8,100.1,25.5
		c16.5,17.1,36.5,53.6,41.6,77.1c5.5,23.2,4.2,88.8-2.3,114.9l-5.5,22.9L466,4411.4z"/>
	<path d="M178.5,4372.3c-4.8-19.4,9.7-30,50.7-37.8c26.8-4.8,41.3-2.3,52.9,10c10.7,11,9.7,11.6-21,14.2c-12.6,1-30.3,5.5-44.9,11.3
		C187.2,4382.3,181,4382.6,178.5,4372.3z"/>
	<path d="M790.4,4369.4c-18.1-8.4-24.2-9.7-43.9-9.4c-16.8,0.6-24.2-0.6-27.1-4.2c-5.2-6.1-2.3-10,12.9-17.8
		c16.1-8.1,33.9-8.1,64.6,1c20,5.8,24.9,8.7,28.4,16.5c5.5,11,1,24.5-8.1,24.2C814,4379.7,802,4374.9,790.4,4369.4z"/>
	<path d="M381.5,4306.8c-15.8-25.5-16.1-26.8-9-26.8c4.2,0,10-1,12.6-1.9c7.7-2.9,15.5,18.1,14.2,38.7l-1,16.8L381.5,4306.8z"/>
	<path d="M601.3,4323.9c-1.9-8.1,2.9-35.2,7.7-42.9c1.9-2.9,6.5-3.2,15.2-1.6l12.9,2.3l-16.8,25.2
		C604.8,4330,603.2,4331.3,601.3,4323.9z"/>
</g>
</svg>
