<?xml version="1.0" encoding="utf-8"?>
<!-- Generator: Adobe Illustrator 27.9.0, SVG Export Plug-In . SVG Version: 6.00 Build 0)  -->
<svg version="1.1" id="Layer_1" xmlns="http://www.w3.org/2000/svg" xmlns:xlink="http://www.w3.org/1999/xlink" x="0px" y="0px"
	 viewBox="0 0 100 100" style="enable-background:new 0 0 100 100;" xml:space="preserve">
<path d="M41.9,18.8c-0.5,0.1-1,0-1.5,0.3c-1.6,0.9-3.4,0.8-5.1,1.5c-1.7,0.7-3.4,1.4-5.1,2.1c-0.5,0.2-1,0.3-1.5,0.4
	c3.9-3.2,8.9-3.9,13.6-5.8c-1.7-0.7-3.1-0.7-4.6-0.6s-2.9,0.2-4.4,0.3c1-0.8,2.5-1.2,4.9-1.1c1.7,0.1,3.4,0.3,5.3,0.5
	c-1.3-1.1-2.6-2-4.2-2c-2.1-0.1-4,0.4-6,1c-1.5,0.4-3,0.9-4.6,1.4c1.7-1.4,5.2-2.6,8.9-3.2c-0.7-0.2-1.4-0.3-2.5-0.6
	c1.3,0,2.3-0.1,3.3,0c0.9,0.1,1.8,0.4,2.9,0.5c-1.2-1-2.4-1.9-3.8-3c3.3,0.2,5.2,2.6,7.7,4.1c-0.8-1.9-2-3.7-2.9-5.7
	c1.1,0.2,1.8,0.9,2.5,1.7s1.3,1.6,2.2,2.3c-0.8-2.5-1.6-5-2.4-7.9c1.8,1,2.1,2.6,3.2,4c-0.2-1.4-0.3-2.4-0.5-3.7
	c0.4,0.1,0.7,0.2,1,0.3c0.6-1.1,1.1-2.2,1.8-3.3c0.5-0.8,1.2-1.3,2.1-1.6c0.3-0.1,0.7,0,0.9-0.6C53.3-0.4,54,0,54.2,0.3
	c0.5,1,1,2,1.4,3c0.2,0.5,0.2,1,0.3,1.6c1.2-0.9,1.7-2.5,3.3-3.2c-0.5,2.5-1.8,4.5-2.6,6.7c0.6-0.3,1.1-0.9,1.6-1.4s1-1.1,1.5-1.5
	c0.5-0.5,1.1-1,1.7-1.5c0.2,0.5,0.4,0.8,0.5,1.3c-0.9,1-1.9,2.1-2.8,3.2c0.1,0.1,0.2,0.2,0.2,0.3C60.9,8,62.1,6.6,64,6.3
	c0.4,1.1-0.6,1.6-0.8,2.5c0.8-0.2,1.4-0.4,2.5-0.7c-1.5,2-3.9,2.3-4.9,4.5c0.3-0.2,0.6-0.3,0.9-0.5c1-0.8,1.9-1.6,3-2.3
	c1-0.6,2-1.1,3.5-0.8c-0.7,0.6-1.3,1-2.1,1.6c0.8-0.1,1.4-0.1,2.4-0.2c-0.5,0.4-0.8,0.6-1.1,0.7c-1.1,0.5-2.3,1-3.5,1.6
	c-0.5,0.2-0.9,0.5-1.6,0.9c0.9,0.4,1.4-0.2,1.9-0.3c0.7-0.1,1.4-0.3,2.1-0.4c0.6,1,1.7,0.3,2.8,0.9c-2,0.4-3.7,0.8-5.6,1.1
	c0.6,1,1.3,1.4,2.4,1.2c1.2-0.2,2.4-0.1,3.6-0.1c0.5,0,0.9,0.2,1.4,0.2c0,0.1,0,0.2,0,0.3c-0.9,0-1.7,0-2.6,0c0,0.1,0,0.2,0,0.2
	c1,0.3,2,0.6,3,0.9c0,0.1-0.1,0.3-0.1,0.4c-1.5-0.2-3-0.3-4.9-0.5c1.1,1,2.2,1.7,2.9,2.6c0.7,0.9,1.1,2.1,1.4,3.4
	c-0.3-0.2-0.6-0.3-0.8-0.5c-1.1-1.1-2.2-2.2-3.3-3.4c-1.1-1.2-2.6-1.5-4.1-1.9c-0.1,0.1-0.1,0.2-0.2,0.3c0.5,0.3,1,0.6,1.5,0.9
	c0.5,0.3,1,0.5,1.4,1c-0.5-0.1-0.9-0.2-1.6-0.3c2,2.7,4,5.2,4.6,8.7c-1.3-0.7-1.7-1.8-2.4-2.7c-0.7-0.9-1.3-1.9-2.1-2.8
	c0.4,2.5,1.7,4.8,1.8,7.7c-0.6-0.5-0.9-0.8-1.5-1.3c0.2,2.4,1.1,4.5,1.4,7c0.6-0.7,1-1.2,1.4-1.7c0.1,0,0.1,0.1,0.2,0.1
	c-0.2,0.4-0.4,0.8-0.6,1.2s-0.4,0.8-0.6,1.2c0.1,0.1,0.2,0.1,0.2,0.2c0.2-0.4,0.5-0.8,0.7-1.1c0.1,0.1,0.2,0.1,0.2,0.2
	c0,0.3,0.1,0.6,0.1,0.9c1.1,0.6,1.3-1.1,2.4-0.9c-0.1,0.3-0.2,0.7-0.4,0.9c-1.8,3.1-2.3,6.4-1.9,10c0.2,1.7,0,3.5,0,5.3
	c0,1.4-0.1,2.6,0.4,4c0.7,1.9,0.8,3.8,0.4,5.8c-0.3,1.6-1.2,2.9-2.6,3.9c-0.7-0.5-1-1.3-1.3-2.1c-0.3-0.9-0.5-1.8-0.8-2.6
	c-0.2-0.8-0.5-1.5,0.4-2.2c0.2-0.2,0.2-0.6,0.3-1c0.1-0.6,0.2-1.2,0.4-1.8c0.6-1.5,0.1-2.7-1-3.9c0,1.5,0,2.9,0,4.4
	c-0.1,0-0.2,0.1-0.3,0.1c-0.4-0.6-0.9-1.2-1.4-2c-0.1,0.9-0.1,1.6-0.2,2.3c-0.1,0-0.2,0.1-0.3,0.1c-0.4-0.8-0.9-1.6-1.3-2.4
	c-0.1,0-0.1,0-0.2,0c0.4,3.8,0.8,7.6,1.2,11.6c0.7-0.8,0.6-2,1.6-2.8c0.3,1,0.2,1.7-0.1,2.5c-0.1-0.1-0.2-0.2-0.3-0.3
	c-0.9,1.5-1.1,2.5-1,4.1c0.3-1,0.6-1.8,0.8-2.5c0.5,1,1,2,1.6,3.3c-0.1,0.3-0.3,0.9-0.5,1.6c0.3-0.3,0.5-0.4,0.7-0.6
	c0.2,0.3,0.4,0.5,0.6,0.8c0.3-0.2,0.6-0.4,1.2-0.9c-1,1.7-2.4,2.7-2.9,4.4c1.1-1.4,2.3-2.7,3.7-4.3c0.1,0.5,0.1,0.8,0.2,0.9
	s0.3,0.2,0.5,0.3c-0.1,0.1-0.1,0.3-0.2,0.4c-1.1,1.1-2.1,2.3-3.2,3.4c-0.6,0.6-0.9,1.3-0.9,2.1c0,0.5,0,1,0.1,1.5
	c0.7,4.4,0.5,8.8,0.6,13.2c0,2.3,1.3,3.8,3.5,4.1c1.1,0.2,2.3,0.5,3.4,0.7c0.2,0,0.3,0.2,0.5,0.3c-1.3,1.1-5.6,1.5-10.3,1
	c-0.7-1-0.5-2.2-0.9-3.3c-0.3-0.9-0.6-1.7-0.9-2.5c-0.3-0.7-0.5-1.4-0.8-2.1c-1.4-4.1-2.9-8.2-4.4-12.3c-0.3-0.8-0.9-1.4-1.4-2.2
	c0.4,0.2,0.8,0.4,1.2,0.6c0.1-0.1,0.1-0.2,0.2-0.2c-0.4-0.5-0.8-1.1-1.3-1.7c-0.3,0.4-0.5,0.6-0.6,0.8c-1.2,0.1-1.9,1.1-2.8,1.7
	c-0.8,0.5-1.2,1.2-1.3,2.2c-0.6,3.5-1.5,7-2.8,10.3c-0.9,2.4-1.2,5.1-0.1,7.6c0.2,0.4,0.3,0.7,0.4,1.3c-1.4,0-2.6,0-3.9,0
	c-1.3,0-2.6,0.1-4-0.5c0.4-0.3,0.6-0.5,0.8-0.7c0.6-0.7,1.2-1.3,1.8-2c0.1-0.1,0.1-0.3,0.2-0.4c1.4-0.9,1.2-2.3,1-3.7
	c-0.2-2.3-0.5-4.6-0.7-6.9c-0.1-1.1-0.4-2.1-0.4-3.2c0.1-2-0.6-3.7-1.5-5.5c-0.9-1.5-1.6-3.2-2.3-4.8c-0.1-0.2-0.1-0.5,0.1-0.8
	c0.7,1.1,1.4,2.2,2.1,3.3c0.1,0,0.1-0.1,0.2-0.1c-0.1-0.3-0.3-0.7-0.4-1c-0.3-1-1.1-1.9-0.7-3.1c0.1-0.3-0.1-0.7-0.3-1
	c-0.4-1.2-0.8-2.4-1.1-3.6c-0.3-0.9-0.6-1.7-1.4-2.4c-1.9-1.7-2.2-4-1.7-6.4c0.9-4.5,1.2-9,1.6-13.5c0.1-0.8,0.2-1.5,0.3-2.2
	c0.2-0.7,0-1.1-0.5-1.7c-0.8-1.1-1.6-2.2-2.4-3.2c0.1-0.1,0.2-0.2,0.3-0.2c0.6,0.7,1.2,1.5,1.7,2.2c0.1,0,0.1-0.1,0.2-0.1
	c-0.4-0.9-0.7-1.7-1.1-2.6c0.1-0.1,0.2-0.1,0.3-0.2c0.9,0.8,0.9,2.2,1.7,3.1c0.7-0.3,0.4-0.8,0.2-1.1c-0.4-0.5-0.2-0.9,0-1.4l0,0
	c0.3,0.4,0.7,0.7,1.1,1.2c0.2-1.1,0.3-2,0.5-3c0.2-0.9,0.4-1.9,0.4-2.9c-0.5,0.9-0.9,1.7-1.5,2.8c-0.5-1.7-0.2-2.5,2.8-7.7
	c-0.2-0.2-0.7-0.5-0.7-0.7c0.1-0.6,0.4-1.2,0.6-1.9c-0.1,0-0.3-0.2-0.5-0.3c0.1-0.2,0.2-0.4,0.4-0.8c-1.2,0.5-2.1,1-3.3,1.5
	c0.5-0.5,0.7-0.9,1-1.2c1.8-1.4,3.6-2.8,5.4-4.1C41.7,19.1,41.8,18.9,41.9,18.8c0.4-0.1,0.9-0.1,1.3-0.1c0-0.1,0-0.1,0-0.2
	C42.8,18.6,42.3,18.7,41.9,18.8z M51.1,70.8c0.4-0.5,0.7-0.9,1-1.4c0.4-0.7,0.3-0.9-0.5-1.4c0.3-0.7,0.5-1.5-0.1-2.3
	c-1.3,1.8-2.1,3.8-2.8,5.8c-0.1,0.3,0.1,0.7,0.1,1c1-1.6,1.9-3.1,2.8-4.5c-0.2,0.5-0.4,1.1-0.6,1.6C50.8,70.1,50.7,70.5,51.1,70.8
	c-0.1,0-0.3,0-0.4,0c-0.6,0.9-1.2,1.9-1.8,2.8c0.1,0.1,0.2,0.1,0.3,0.2C49.9,72.8,50.5,71.8,51.1,70.8z M39.4,68.3
	c0.1-1.1,0.1-2,0.2-3c0.2,0.2,0.3,0.4,0.3,0.6V66H40c0.1-1.4,0.1-2.7,0.2-4.1c0.3,0.7,0.4,1.4,0.5,2c0,0.7,0,1.4,0.1,2.1
	c0,0.8,0,1.5,0,2.3c0,0.6-0.1,1.3,0.3,1.9c0.2-0.7,0.2-1.3,0.2-2c0-1.8-0.2-3.6,0.2-5.4c0.1-0.5,0.2-1.3,0-1.5
	c-1-0.8-0.7-1.7-0.5-2.6c0.4-2,1-3.9,1.5-5.9c0.1-0.3,0.2-0.6,0.2-0.9c0-0.2,0-0.5,0-1c-1.2,2-1.7,4-3.1,5.8
	c-0.1-0.6-0.2-0.9-0.3-1.2c-0.9,1.9-1.6,3.9-2.3,5.9c0,0.1,0,0.3,0,0.4C37.7,64,38,66.3,39.4,68.3z M42.3,31.8
	c-0.8,1.6-1.4,3.1-1.5,4.9c0,0.3,0,0.6-0.1,0.8c-0.5,1-0.6,2.1-0.5,3.3c0.1,1,0,1.9-0.4,2.8c-0.3,0.8-0.4,1.8-0.6,2.7
	c-0.2,0.9-0.3,1.8-0.5,2.7c1.5-2.1,3-4,4.4-6c0.2-0.3,0.3-0.6,0.4-1c0.5-1.5,0.4-3.1,0-4.6c-0.1-0.2-0.2-0.6-0.3-0.6
	c-0.9-0.2-0.8-0.9-0.9-1.5C42.2,34,42.3,32.9,42.3,31.8z M62.6,46.2c0.1,0,0.2-0.1,0.4-0.1c-0.2-0.8,0.3-1.7-0.5-2.4
	c-0.1-0.1-0.1-0.5-0.1-0.7c0-0.8-0.1-1.5-0.1-2.3c0-0.6,0-1.2,0.6-1.6c0.2-0.2,0.2-0.7,0.1-1.1c-0.6-2.6-1.2-5.2-1.9-7.8
	c-0.1,0-0.2,0-0.3-0.1c-0.2,0.3-0.5,0.6-0.6,1c-0.3,1.3-0.6,2.6-0.8,3.9c-0.1,0.8-0.1,1.7,0,2.6c0.2,1.4,0.6,2.9,1,4.3
	c0.1,0.3,0.1,0.7,0.3,0.8c0.9,0.4,0.9,1.2,1.2,1.8C62.1,45.1,62.3,45.7,62.6,46.2z M52.6,66.9c1.1-3.3,0.5-6.2-0.4-9
	c-0.7,2.7-2.2,5.3-1.7,8.4c0.5-0.6,1-1.2,1.4-1.7C52,65.3,52.3,65.9,52.6,66.9z M52,75.3c-0.2-0.3-0.3-0.5-0.5-0.7
	c0-0.1-0.2-0.1-0.3-0.1c-1.8,1.2-3.3,2.8-3.5,4C49.2,77.4,50.6,76.4,52,75.3z M37.6,54.4c0.1,0.1,0.2,0.2,0.3,0.2s0.4,0,0.4-0.1
	c1-2.1,2-4.1,2.9-6.2C39.8,50.2,38.6,52.2,37.6,54.4z M53,72.5c0.6-1.1-0.5-1.8-0.6-2.8c-0.3,0.4-0.5,0.8-0.8,1.1
	C52,71.5,52.2,72.3,53,72.5z M39.8,75.6c0.1,0,0.2-0.1,0.3-0.1c-0.3-1-0.6-2-1-3C39,72.1,38.6,71.8,38,72
	C38.6,73.3,39.2,74.4,39.8,75.6z M61.2,73.9c0.1,0,0.2,0,0.4,0c0.1-1.1,0.2-2.2,0.3-3.3c-0.1,0-0.2,0-0.3,0
	C61.5,71.7,61.4,72.8,61.2,73.9z M52.4,73.2c-0.3-0.7-0.5-1-0.8-1.5C50.9,72.8,50.9,72.8,52.4,73.2z M54.9,78
	c0.1-0.1,0.2-0.2,0.3-0.3c-0.5-0.6-1-1.1-1.6-1.7c-0.1,0.1-0.2,0.1-0.2,0.2C53.9,76.8,54.4,77.4,54.9,78z M61.4,16
	c0.5,0,0.8,0,1.3,0C62.2,15.2,61.8,15.4,61.4,16z M42.9,17.3c0,0.1-0.1,0.2-0.1,0.4c0.4,0.1,0.8,0.1,1.1,0.2c0-0.1,0-0.2,0.1-0.3
	C43.6,17.5,43.3,17.4,42.9,17.3z M52.5,73.6c0.1,1,0.3,1.2,0.6,0.9C53,74.1,52.7,73.9,52.5,73.6z M47.4,75.6c0.1,0,0.2,0,0.3,0.1
	c0.1-0.3,0.1-0.6,0.2-0.8c-0.1,0-0.2,0-0.3-0.1C47.5,75.1,47.4,75.3,47.4,75.6z"/>
</svg>
