<?xml version="1.0" encoding="utf-8"?>
<!-- Generator: Adobe Illustrator 27.9.0, SVG Export Plug-In . SVG Version: 6.00 Build 0)  -->
<svg version="1.1" id="Layer_1" xmlns="http://www.w3.org/2000/svg" xmlns:xlink="http://www.w3.org/1999/xlink" x="0px" y="0px"
	 viewBox="0 0 100 100" style="enable-background:new 0 0 100 100;" xml:space="preserve">
<path d="M100,45.2c-1.2-2.1-2.6-4-4.3-5.8c-0.1-0.1-0.2-0.2-0.4-0.4c-2.4-2.3-5.3-4.1-8.7-5.3c-3.5-1.2-6.9-2.6-10.3-3.8
	c-1.8-0.7-3.7-1.5-5.5-2.2c-6.4-2.7-13.8-0.9-18.2,4.4c-2.8,3.4-6.1,6.2-9.8,8.4c-7.2,4.5-14.5,5.5-19.2,5.6c-0.1,0-0.2,0-0.2,0.1
	c-1.4,1.8-4.5,4.7-9.1,5.6c-1.1,0.2-2,0.3-3,0.3c-5.1,0-9-2.7-10.7-3.9c-0.2-0.2-0.6,0-0.5,0.3C1.1,54,5.1,58.7,10.5,60.1
	c6.8,1.8,14.2-1.9,17.2-8.7l0.2-0.4v0.4c0.1,2.8-0.1,5.6-0.7,8.3c-0.9,3.6-2.6,7.1-4.9,10.5c-0.1,0.2,0,0.5,0.3,0.5h2.7
	c0.1,0,0.3-0.1,0.3-0.2c0.2-0.9,0.6-2.3,1.8-4.3c2.3-3.9,5.7-4.8,8.4-5L35.7,61c0-0.1-0.1-0.2-0.1-0.3l-0.2-0.6
	c-0.4-0.9-0.9-1.7-1.3-2.6c-1.1-1.6-2.2-3.2-3.7-4.5c1.6,1.2,3,2.6,4,4.3c0.5,0.9,1.1,1.7,1.5,2.6l0.3,0.6c0,0.1,0.1,0.2,0.1,0.3
	l0.1,0.3l0.2,0.7l0,0l0.2,0.7c0.5,1.9,0.6,3.9,0.4,6c-0.2,1.6-0.5,3.2-1.2,4.7c-0.1,0.2,0.1,0.4,0.3,0.4h1.5c0.1,0,0.2,0,0.2-0.1
	c1.6-1.5,2.9-3.2,3.9-5.1c0.5-1,1.1-2,1.4-3.1l0.3-0.9c0.1-0.2,0.1-0.5,0.2-0.9c0.2-0.5,0.3-1.1,0.4-1.7c0.4-2.2,0.5-4.5,0.2-6.8
	c-0.4-1.9-1.1-4-2.1-6.2c1.2,2,1.9,4.3,2.3,6.5c0.1,0.9,0.2,1.8,0.3,2.7c0,0.1,0.1,0.3,0.2,0.3c3.7,1,7.7,1,11.5,0
	c0.2,0,0.3-0.2,0.2-0.4c-0.5-2.8-0.7-5.5-0.6-8.3c0.1-1.5,0.2-3,0.4-4.5s0.5-3,1-4.4c-0.6,2.9-1.1,5.8-1.1,8.8c0,0.7,0,1.5,0,2.2
	c0,0.3,0.1,0.7,0.1,1.1c0,0.3,0,0.7,0.1,1.1c0.1,0.7,0.2,1.5,0.3,2.2l0.2,1.1c0.1,0.3,0.2,0.7,0.2,1.1c0.1,0.3,0.2,0.7,0.3,1.1
	l0.3,1.1c0.2,0.7,0.5,1.4,0.7,2.1c0.2,0.7,0.6,1.4,0.9,2c0.1,0.3,0.3,0.6,0.5,1c0.2,0.3,0.3,0.6,0.5,1c0.7,1.3,1.5,2.6,2.3,3.7
	c0.9,1.1,1.7,2.1,2.8,3c0.1,0.1,0.1,0.1,0.2,0.1h3.2H71c0.3,0,0.4-0.3,0.2-0.5c-1.7-1.6-3.1-3.5-4.1-5.5c-0.6-1.4-1.2-2.8-1.5-4.3
	c-0.3-1.5-0.4-3-0.3-4.5c0.1-1.5,0.3-3,0.7-4.4c0.4-1.4,1.1-2.8,1.8-4c0.7-1.3,1.6-2.4,2.7-3.5c1-1.1,2.1-2,3.3-2.9
	c-2.3,1.8-4.3,4-5.6,6.6c-0.6,1.3-1.2,2.7-1.6,4s-0.6,2.9-0.6,4.3c0,0.4,0,0.9,0,1.3c0,0.1,0,0.1,0.1,0.2c1.4,2.1,4.7,6.8,7.9,9
	c1,0.7,1.6,1.1,2.6,1.6h0.1H83c0.3,0,0.4-0.4,0.2-0.6c-1.7-1.1-3.8-2.7-5.5-4c-3.9-3.4-6.4-7.4-8.1-10.6l0,0l0,0
	c0.7-4.1,7-6.4,11.4-6.6c1.8-0.1,4.5-0.2,6.9,1.6c1.9,1.4,2.8,3.3,3.2,4.7c0.1,0.2,0.4,0.3,0.5,0.1c0.4-0.6,1-1.2,1.5-1.7
	c1-0.9,1.9-1.7,3-2.4c0.2-0.1,0.2-0.5-0.1-0.6c-0.2,0-0.4-0.1-0.6-0.1c-1,0-1.6,0.5-1.8,0.7l-0.1,0.1h-0.1c-0.9-0.6-1.7-1.4-2.4-2.2
	c-0.9-1-1.6-2.1-2.2-3.3l-0.1-0.1h0.1c0.9-0.2,2.1-0.4,3.6-0.1c1.7,0.4,2.9,1.5,3.3,2l0,0v0.1c0,0.1-0.1,0.3-0.1,0.4
	c-0.1,0.2-0.2,0.3-0.3,0.5c-0.2,0.2-0.1,0.5,0.2,0.5c0.2,0,0.4,0,0.6-0.1c2.3-0.4,3.5-2.8,3.8-3.5C100,45.4,100,45.3,100,45.2z
	 M83.6,36.2c-0.2-0.3-0.5-0.6-0.9-0.9c-0.3-0.2-0.6-0.3-1.1-0.4c-0.4-0.1-0.9-0.1-1.3-0.2c-0.4-0.1-0.9-0.3-1.3-0.5
	c-0.3-0.2-0.6-0.4-1-0.6c-0.2-0.2-0.5,0-0.5,0.3s0.1,0.6,0.1,1c0.2,0.9,0.5,1.6,1.1,2.2c0.5,0.6,1.2,1.2,1.9,1.6
	c0.7,0.4,1.6,0.6,2.4,0.9c-0.9,0-1.7-0.2-2.6-0.5c-0.4-0.2-0.7-0.4-1.2-0.6l0,0c-0.2-0.1-0.3-0.2-0.5-0.4l-0.2-0.2l0,0
	c-0.1-0.1-0.1-0.2-0.2-0.2c-0.6-0.6-1.1-1.5-1.3-2.3c-0.2-0.9-0.3-1.8-0.1-2.7l0,0c0-0.3,0.4-0.4,0.5-0.1c0.5,0.6,1.2,1.2,1.8,1.6
	c0.3,0.2,0.7,0.3,1.1,0.4c0.4,0.1,0.7,0.2,1.2,0.3s0.9,0.3,1.3,0.5c0.3,0.3,0.6,0.6,0.9,1.1c0.4,0.7,0.5,1.6,0.6,2.4
	C84.4,37.6,84.1,36.8,83.6,36.2z M90.6,43.8c-0.4,0.1-1,0.1-1.5-0.1c-0.4-0.2-0.9-0.6-1-1.1c-0.2-0.4-0.2-1,0-1.4
	c0,0.4,0.1,0.9,0.3,1.3c0.2,0.3,0.5,0.6,0.9,0.9c0.3,0.2,0.7,0.2,1.2,0.2s0.9-0.2,1.2-0.5C91.5,43.4,91.1,43.7,90.6,43.8z
	 M89.9,40.9H90c0.2,0,0.4,0.1,0.5,0.2c0.2,0.1,0.3,0.2,0.4,0.3l0.1,0.1c0.2,0.2,0,0.5-0.3,0.5h-0.1c-0.2,0-0.4-0.1-0.5-0.2
	c-0.1-0.1-0.3-0.2-0.4-0.3l-0.1-0.1C89.4,41.3,89.6,40.9,89.9,40.9z M91.5,41c-0.2-0.2-0.5-0.5-0.9-0.6c-0.3-0.2-0.6-0.3-1-0.3
	c-0.3-0.1-0.7-0.1-1.2,0c0.3-0.2,0.7-0.3,1.2-0.3s0.9,0.1,1.2,0.3c0.3,0.2,0.6,0.5,1,0.9c0.2,0.3,0.4,0.7,0.4,1.2
	C92,41.6,91.8,41.3,91.5,41z"/>
</svg>
