<?xml version="1.0" encoding="UTF-8"?>
<svg xmlns="http://www.w3.org/2000/svg" version="1.1" viewBox="0 0 100 100">
  <!-- Generator: Adobe Illustrator 28.7.1, SVG Export Plug-In . SVG Version: 1.2.0 Build 142)  -->
  <g>
    <g id="Layer_1">
      <path d="M66.2,67.8c.4.2.6.4.7.8.2.6.3,1.3.5,1.9,0-.8,0-1.6-.3-2.4-.2-.6-.5-1.2-.7-1.8-.1-.3-.2-.6-.3-1,.4,0,.7.2.8.5.2.6.4,1.2.6,1.8,0,.1,0,.2,0,.3,0-1-.1-2-.7-2.9-.4-.5-.6-1-.9-1.5,0-.1-.1-.2-.1-.4.6.5.9,1.2,1.2,1.9h0c-.2-.6-.4-1.1-.6-1.6.5,0,.8.4.8.9,0,0,0-.2.1-.3.5.9.4,1.9.8,2.8,0-.5,0-.9-.1-1.4,0,0,0,0,0,0,.1.4.2.8.3,1.1,0,0,0,0,0,0,0-.3,0-.5-.1-.8,0,0,0,0,0,0,.4,1.1.7,2.3,1.1,3.4,0,0,0,0,0,0-.1-.5-.2-1.1-.4-1.7.8,1.3,1.1,2.7,1,4.1-.1,1.5-.7,2.8-1.4,4,1.1-1.2,2-2.4,2.5-4,.3,1.9-.1,3.8-.6,5.6,0,0,0,0,0,0,.5-1.2.9-2.5,1.4-3.7.1,1.4.2,2.8-.4,4.1.7-.8,1-1.8,1.1-2.9,0,.3.2.5.2.7,0,.2.1.5.2.7,0,.3.1.5.2.8,0,.8,0,1.5,0,2.3,0,.3,0,.6,0,1,0,0,0,0,0,0,0,0,0,0,0-.2.4,1.7.9,3.3,2.6,4.1-.5-.4-.8-.9-1-1.7,1.3,1.5,2.9,2.3,4.8,2.5-1-.2-1.6-.9-2.2-1.7,1.1.8,2.4,1.1,3.7.9-.7,0-1.2-.2-1.6-.9.2,0,.5,0,.7,0,.8,0,1.5-.1,2.2-.5.6-.3,1-.7,1.3-1.2-.1.3-.3.6-.4.9h0c.2-.2.4-.4.6-.7,0,.2,0,.3,0,.4,0,0,0,0,0,0,.3-.5.6-1,.9-1.5,0,0,0,0,0,0,.2-.3.3-.6.2-1-.1-.7-.3-1.4-.4-2.1,0,0,0,0,.2.2-.2-.8-.9-1.5-.4-2.4,0,0-.1.1-.2.1,0,0,0,0,0,0,0-.5,0-1,.2-1.4.2-.5.4-.9.8-1.3.3-.4.8-.6,1.2-.9.1,0,.3,0,.6-.2-.2.4-.4.8-.6,1.1,0,0,0,0,0,0,.3-.4.6-.7.8-1.1.2-.3,0-.5-.4-.5-.3,0-.5,0-.8.2-.7.4-1.3.9-2,1.4,0,0,0,0,0,0-.3.7-.8,1.3-1,2.1,0,.3,0,.6,0,.9.1.9.2,1.8.3,2.7,0,0,0,0,0,0-.1-.1-.2-.3-.3-.4,0,.3,0,.7,0,1,0,.5-.2.9-.5,1.2-1,.9-2.2,1.4-3.6,1-.9-.3-1.8-.6-2.7-1-.8-.3-1.2-1-1.4-1.8-.2-.9,0-1.8,0-2.7.4-2.3.7-4.6,1.1-6.9.1-.8.2-1.5.4-2.3,1.1,1.9,2.1,3.9,1.2,6.3.3-.4.5-1.5.6-2.5,0-.8,0-1.7,0-2.5,0-.8-.3-1.6-.5-2.4.7.8,1.4,1.6,2.2,2.4,0,0,0,0,0,0-.5-1-1.1-2-1.6-2.9-.5-1-1-2-1.5-3.1.9.6,1.8,1.1,2.6,1.6h0c-.8-.8-1.5-1.5-2.3-2.3-1.4-1.4-2.2-3.1-2.6-5,.9,1.2,1.8,2.4,3,3.3-1.6-1.6-2.4-3.7-3.2-5.8,1.2,1,2.6,1.8,4.2,2.1-1.9-.7-3.4-2-4.6-3.5.7.4,1.4.9,2.1,1.2.8.4,1.6.6,2.4.8-1.9-.6-3.4-1.7-4.8-3,1.4.7,2.9.9,4.5.7-2.3,0-4.1-1.1-5.7-2.7.6.3,1.3.6,1.9.9.7.2,1.4.4,2.1.5-2.1-.7-3.9-1.8-5.3-3.6-.5-.6-1.2-2-1.3-2.6.6.7,1.1,1.4,1.7,2.1,0,0,0,0,0,0-.4-.6-.8-1.2-1.1-1.8-.4-.6-.7-1.2-1.1-1.9-.3-.6-.6-1.3-.9-2h0c.7,1,1.4,2,2.1,3,0,0,0-.1,0-.2-.7-1.6-1.5-3.1-2.5-4.5-.3-.3-.4-.7-.6-1.1-.4-.8-.9-1.7-1.3-2.5,0,0,0,0,0,0,.7.8,1.5,1.6,2.2,2.5.7.9,1.2,1.8,1.8,2.7,0,0,0,0,0,0-.9-2.1-1.9-4-3.5-5.7-1.2-1.4-2.5-2.7-3.8-4-.2-.2-.5-.5-.7-.7.9.6,1.8,1.1,2.8,1.7-.8-.9-1.6-1.6-2.6-2.2-1-.6-2-1.1-3-1.6,2.8.3,4.8-1.1,6.5-3,0,0-.1.1-.2.2-.9.8-1.9,1.4-3,1.8-1.1.4-2.2.6-3.3.4-1.6-.3-3.3-.6-5-.9,2-.4,3.5-1.6,4.7-3.2-1.6,1.5-3.5,2.5-5.8,2.5.4,0,.9-.1,1.3-.2,0,0,0,0,0-.1-1.3.1-2.7.3-4.1.4.3-1.6,0-3.3.3-5,.4-1.5.3-3,0-4.5-.4-1.9-.5-3.7-.6-5.6,0-.5-.1-1.1-.2-1.6-.3-1.5-.3-3,0-4.4,0,0,0,0,0-.1-.4.8-.9,1.5-.9,2.4,0,.8-.1,1.5-.1,2.3,0,.6,0,1.1.1,1.7,0,.7,0,1.4,0,2.1,0,.6-.2,1.3-.5,1.8-.3.6-.5,1.1-.7,1.7-.3.7-.7,1.3-1.1,1.9-.6.8-1.1,1.6-1.6,2.4-.5.8-1.1,1.7-1.6,2.5-.3.5-.7,1-1.1,1.5,0,0,0-.2.1-.3.9-1.5,1.8-2.9,2.7-4.4.1-.2.1-.3,0-.4-.5-.4-.9-.8-1.4-1.2.8,0,1.5-.1,2.2-.2-.5,0-1,0-1.4,0-.7,0-1.4,0-2-.4.4-.6,1-.6,1.5-.9-.3,0-.7.1-1,.2.2-.7.3-1.3,1.1-1.5.8-.2,1.5-.5,2.3-.7,0,0,.1,0,.2,0,0,0,0,0,0-.1-1,.2-2,.5-3,.7.1-.4.4-.7.8-.9-.5,0-.8.4-1.1.8-.1.2-.3.4-.5.5-.7.4-1.3.9-2,1.3-.1,0-.2.1-.4.2,0-.2.1-.3.2-.5.3-.7.4-1.4.2-2.1-.2-.7-.3-1.5-.5-2.3,0,.7.1,1.2.2,1.8,0,.4,0,.8,0,1.2,0,.7-.4,1.2-.8,1.6-.1.1-.3.1-.5.2.1-.9.3-1.8.4-2.6,0,0,0,0,0,0-.2.6-.4,1.3-.6,1.9,0,0,0,.1,0,.2,0,.1-.2.2-.2.3,0-.1-.2-.2-.2-.4-.1-.4-.1-.8-.3-1.2-.2-.5-.4-.9-.6-1.3.3.9.6,1.8.4,2.8-.5.1-.8,0-1.1-.4-.9-1.2-1.6-2.6-2-4.1,0,0,0-.2-.1-.3.3,1.5.7,3,1.5,4.5-.9-.5-1.7-.9-2.4-1.6-.7-.7-1.1-1.5-1.5-2.4.4,1.8,1.3,3.2,2.7,4.2-1.8-.5-3.5-1.3-4.6-3,.6,1.2,1.5,2.2,2.6,2.9-.9-.2-2-.3-3-.5-1.1-.1-2.2-.4-3.2-.8-.2,0-.4-.2-.7-.3,2,1.2,4.3,1.7,6.4,2.7-1.7-.2-3.5-.5-5.3-.7.6.2,1.2.4,1.8.6-1.3,0-2.5.1-3.6.2,1.6.5,3.2.2,4.9.5,0,0,0,0-.1,0-1.2,0-2.4.5-3.5.9-1,.3-2,.5-3.1.4-.1,0-.2,0-.3,0,1.8.3,3.5-.2,5.4-.3-.8.8-1.2,1.8-2.1,2.4-.8.5-1.8.6-2.7.4,0,0-.1,0-.2,0,.2,0,.4.1.5.2.2,0,.4,0,.6.1.2,0,.4,0,.7.1-.7.4-1.3.5-2,.5,1.1.3,2.1,0,3.1-.5,0,0,0,0,0,0-.3.6-.6,1.1-1,1.7.1,0,.3-.1.4-.2,0,.5-.3.9-.7,1.1-.2,0-.3,0-.4,0-.2-.2-.4-.4-.7-.6-.6-.5-1.1-1-1.7-1.4-1.8-1.1-2.9-2.8-3.6-4.7-.3-.8-.4-1.7-.2-2.5.2-.7,0-1.3-.6-1.7-.2-.1-.3-.3-.5-.4,0,0,.2.2.2.3.4.4.6.9.4,1.5-.2,1-.4,1.9-.2,2.9,0,.2.1.5.2.7.7,1.8,1.5,3.6,2.3,5.4.4.7.7,1.4,1,2.1.7,1.5,1.6,2.8,2.9,3.8.6.5,1.2,1,1.8,1.6.3.2.5.5.7.8,0,0,0,0,0,0-.3-.3-.6-.5-.9-.8,0,0,0,0,0,0,.2.3.4.6.6,1,.2.4.4.8.4,1.2.1.7.5,1.2,1.1,1.5.4.2.8.4,1.1.6.2.1.5.3.4.6,0,.2-.4.4-.8.3-.4,0-.7-.3-1.1-.3.3.2.7.5,1,.7.6.3,1.1.6,1.7,1,.6.4,1.2.9,1.6,1.5.1.2.2.4.3.6-.4,0-.7-.1-1.1-.1-.3,0-.7,0-1,0,0,0,0,0,0,.1.1,0,.3,0,.4,0,.8,0,1.4.3,1.9,1,.6.9,1.5,1,2.5.5.3-.2.7-.4,1-.6.5-.3,1-.5,1.6-.5.5,0,.6.1.7.6.2,1.4,0,2.7-.5,4-.3.9-.7,1.7-1,2.6,0,0-.2.2-.3.2-1.2,0-2.4,0-3.6.3-.6.1-1.2.4-1.8.6-.7.4-1.2,1-1.3,1.8,0,.8-.6,1.4-1.1,1.9,0,0,0,0,0,.1.1,0,.3-.1.4-.2.1,0,.3-.2.5-.2-.1.3-.2.6-.3.8-.5.6-1.1,1.3-1.7,1.8-1,.8-2.1,1.5-3.1,2.2-.1,0-.2.2-.3.3,2.3-.7,4.3-1.9,6.1-3.6,0,0,0,0,0,0,0,.2,0,.5,0,.7-.2,1.1-.3,2.2,0,3.2.1.7.3,1.3.7,1.9-.6-1.8-.2-3.5.5-5.3.4.4.8.8.8,1.4,0,.9.3,1.7.8,2.5,0,.1.2.2.3.3-.4-.9-.6-1.7-.4-2.7.5.3.8.6,1.1,1.5.4-.7.7-1.4,1.1-2.1,0,0,0,0,0,0-1.2,2.1-1.6,4.4-1.6,6.7.2-.7.3-1.3.5-2,.3,3.3.2,6.5.1,9.8.2-1.6.5-3.1.7-4.7,0,0,0,0,0,0,.1,1.2.2,2.3.3,3.5,0,1.2.1,2.4.1,3.6,0,1.2,0,2.3,0,3.5,0,1.2-.5,2.3-.4,3.5.2-.2.3-.4.5-.6,0,0,0,0,0,0-.1.2-.2.4-.3.5-.4.4-.8.8-1.2,1.2-.2.2-.4.4-.3.7.4,0,.7.2,1,.3,0,0,0,0,0,0-.1,0-.3-.1-.4-.1-.2,0-.4,0-.4.2,0,.1,0,.4.2.5.3.3.6.5.9.7,0,0,0,0,0,0-.2-.2-.4-.3-.6-.5,0,0-.2-.1-.3-.2-.1,0-.2,0-.3,0,0,0,0,.2,0,.3-1,.2-1.9.7-2.6,1.4-.2.2-.5.5-.8.7-.3.2-.6.4-1,.4-.5,0-.9.2-1.4.4-.6.4-1.3.5-2.1.5-.5,0-1,.1-1.4.5-.2.2-.4.5-.5.8-.1.4-.2.9-.3,1.3,0,.2-.1.2-.3.3-2.1.2-4.3.3-6.4.5-2,.1-4,.3-6,.4,0,0-.1,0-.2,0,0,0,0,0,0,0,.2.1.3.3.5.3.9.2,1.8.4,2.7.5,2.1,0,4.2,0,6.3.1,1.1,0,2.2.1,3.3.2.2,0,.4.2.6.2,0,0,0,0,0-.2.7.1,1.4.2,2,.4,0,0,.1.1.2.2,0,.1.1.2.2.4v-.6c3.3.5,6.6.8,9.8.9,3.3.1,6.6,0,9.9-.5,0,.3.2.6.2.8,0,0,0,0,0,0,.2-1,0-.8,1-.9.2,0,.4,0,.6,0,0,0,.2,0,.2,0,.2,0,.3-.1.5-.1,1.4,0,2.7,0,4.1,0,2.6,0,5.2-.1,7.8-.3.8,0,1.5,0,2.3,0,1.1,0,2.1-.1,3.2-.2.4,0,.4,0,.4.4,0,.4,0,.8-.1,1.3.4-.4.6-.9.8-1.5,0-.2.2-.3.4-.3,1.3,0,2.7-.1,4-.2.2,0,.3,0,.3.2,0,.7.2,1.3.3,2,.1-.5.3-.9.4-1.4,0-.2,0-.4,0-.6,0-.3.1-.4.4-.4.3,0,.5,0,.8,0,0,.2-.1.3-.2.4,0,0,0,0,0,0,.3-.5.7-.6,1.2-.5.8,0,1.7,0,2.5,0-1-.2-2-.3-2.9-.5,0-.6.2-1.2.3-1.7.1-.7,0-1.5-.6-1.9-.3-.2-.6-.3-.9-.4-.7-.1-1.3-.4-1.5-1.1,0-.1-.2-.3-.4-.3-.4-.1-.7-.3-.9-.6-.3-.4-.6-.8-.9-1.1-.4-.4-.9-.8-1.4-1.2-.1-.1-.2-.2-.2-.4,0-.4-.2-.7-.6-.8,0,0-.2,0-.2-.1-.4-.2-.4-.4-.2-.8.3-.5.2-1-.2-1.3-.6-.5-.8-1.2-.8-1.9-.2-2.4-.4-4.8-.6-7.2,0,0,0,0,.1,0,.3.6.5,1.2.8,1.8-.3-1.3-.9-2.3-1-3.5.3.9.7,1.7,1,2.6-.2-1.4-1.1-2.7-1.1-4.2ZM48.3,61.9s0,0,.1,0c0,1.4,0,2.7-.1,4.1,0,0,0,0,0,0,.2-.9.4-1.8.5-2.6.3,1.8.2,3.5-.4,5.2.2-.4.4-.8.5-1.2.1-.4.3-.9.4-1.3,0-.4.2-.8.2-1.3,0,.2.1.4.2.6.3,1.5.6,3,1.3,4.4.7,1.5,1.5,2.9,2.2,4.4,0,0,.1.2.2.3,0,0,0,0,0,0-1.1-1.8-1.4-3.9-1.7-6,0,0,.1.2.2.3,1.2,1.7,2.1,3.5,2.8,5.4.6,1.4,1.1,2.8,1.4,4.2.2,1.1,0,2.1-.7,3.1-.4.6-.8,1.2-1.2,1.8-.7,1.5-1.8,2.7-3.1,3.8-.7.6-1.4.9-2.3.4-.8-.4-1.5,0-2.1.7-.8,1-1.6,1.7-3,1.6,0,0,0,0,0,0-.2,0-.3,0-.4-.3-.1-.4-.4-.6-.8-.6-.2,0-.5,0-.7,0-.2,0-.4,0-.5,0-.4-.2-.8-.5-1.1-.7,0,0,0,0,0,0,.3.2.6.3.8.5.3.2.6.3,1,.1.2-.1.4-.2.7-.3.2-.1.4-.1.7,0,1.7.6,3.2-.4,3.2-2.2,0-.1,0-.3.1-.4.3-.4.4-.8.4-1.3,0-.2,0-.5.1-.7.4-1.3,1.3-2.3,2.4-3,.5-.3.9-.6,1.3-1,.8-.7.8-1.5.2-2.3-.5-.6-1-1.1-1.5-1.6-1.1-1-2.2-2.1-3-3.4-1-1.7-1.7-3.4-2.5-5.2-.6-1.3-.9-2.7-.9-4.1,0-1.6-.5-3.1-1.3-4.6-.1-.3-.3-.5-.4-.8,0,0,0,0,0,0l.9,1.1c-.5-1.2-1.1-2.2-2.1-3,.1,0,.2,0,.3.1,1.3.7,2.4,1.6,3.3,2.8.6.8,1.4,1.6,2,2.3-.7-1.8-1.8-3.3-3.3-4.5,0,0,0,0,0,0,1.2.7,2.5,1.4,3.7,2.2,0,0,0,0,0,0l-2.9-2.3s0,0,0,0c1.5.5,3,1.1,4.5,1.6-.4,1.2-.4,1.4-.1,2.6,0,.2,0,.3,0,.5,0,.6,0,1.3-.1,1.9,0,0,0,0,0,0,0-.3.2-.7.3-1ZM61.3,90.8c-1.9,0-3.8,0-5.6-.4.1-.4.2-.7.3-1.1,0-.2,0-.4.3-.6.1,0,.2-.3.2-.4,0,0,0-.2,0-.3.2-.4.3-.7.5-1.1.5-1.2,1.3-2.1,2.5-2.6.5-.2,1-.5,1.5-.8.8-.5.9-1.2.3-2-.3-.4-.6-.7-.9-1.1-2.2-2.8-3.4-5.9-3.7-9.4-.1-1.6-.1-3.2-.2-4.8,0,0,0,0,.1,0,.1.6.3,1.2.4,1.9,0-.5.2-.9.3-1.4.1-.6,0-1.1-.4-1.6-.2-.3-.5-.6-.8-.9-.6-.6-1.3-1.3-2-1.9-.6-.5-.6-1.1-.4-1.8,0,0,0,0,.1,0,2.5.9,5,1.7,7.5,2.6,0,0,.2.2.2.2.1.4.1.9.3,1.3.5,1.3,1,2.7,1.6,4,.5,1.1.9,2.2.9,3.4,0,.3,0,.6,0,1,.2,2.4.3,4.9.2,7.3,0,.8-.1,1.5-.1,2.3,0,.4,0,.7-.3.9-.8.8-1.3,1.8-1.7,2.9,0,.2-.2.4-.3.6-.2.3-.4.6-.8.8-.7.3-1.1,1-.9,1.8,0,.6.4,1,.8,1.4ZM42.5,69.3h0c.9,1.7,1.9,3.3,2.6,5.2.4,1.2.6,2.3.1,3.5-.3.7-.7,1.3-1,2-.3.5-.5,1.1-.6,1.7,0,.8-.3,1.6-.8,2.2-.9,1.4-1.9,1.5-3.3,1.2.4-.6.2-1.2,0-1.8-.1-.4-.3-.8-.3-1.3-.2-1.3-.2-2.5,0-3.8.1-1.6.2-3.2.1-4.7,0-.7,0-1.3,0-2,.2-1.8.7-3.6,1.3-5.4.9-2.8.7-5.6-.7-8.3-.2-.4-.4-.7-.6-1.1,0,0,0,0,0,0,.1.2.3.3.4.5,0,0,0,0,0,0,0-.7-.2-1.4-.2-2.2,0,0,0,0,.1,0,0,.7.2,1.4.2,2.1,0,.2,0,.4.1.6.5.9,1,1.8,1.3,2.8.4,2,.2,3.9-.6,5.8,0,.2-.1.4,0,.5.7,1.8,1.5,3.6,2.2,5.4,0,0,0,0,.1.2-.2-1-.4-2.1-.6-3.1ZM53.7,48.3s0,0,0,0c0,0,.2,0,.2,0,.8.2,1.5.5,2.3.7.7.2,1,.7.7,1.4,0,.1,0,.2-.2.4-.5,1-.5,2,0,3,0,.1.1.2.2.4-.2-.5-.7-.6-1.1-.7-.6-.2-1.3-.4-1.9-.6-2.9-.9-5.8-1.7-8.8-2-.5,0-1.1-.1-1.7-.2.7-1.6.9-3.2.9-4.9,0-.9.5-1.6,1.1-2.4,2.6,1.6,4.9,3.7,7.5,5.2-.3-.3-.7-.6-1-.9,0,0,0,0,0,0l2.7,1.7s0,0,0,0c-.3-.3-.7-.5-1-.8ZM66.7,90.7c0,0,0,0,0,0-1.6,0-3.3,0-4.9,0,0,0-.2-.1-.3-.2-.3-.6,0-1.1.2-1.7.1,0,.2,0,.3,0,.9.3,1.7-.1,2-1,0,0,0-.2,0-.3,0-.2.2-.2.3,0,.2.2.4.5.6.7.2.2.2.5.4.6.5.3.7.8,1.1,1.3.1.1.2.3.3.5ZM35.7,32c.7-.7,1.4-1.3,2.1-2,0,0,.1,0,.2,0,.6.1,1.3.2,1.9.4-.9,1.8-2.6,2.5-4.2,1.7ZM47.7,24.3c-.4.5-.8,1.1-1.3,1.5-.7.7-1,1.5-.7,2.5.3,1.2,0,2.1-1,2.9.5.8,1.5,1,2.1.2.3-.4.5-.8.7-1.3.1-.2.2-.4.3-.7,0,0,0,0,0,0-.2.5-.4,1.1-.6,1.6,0,.2-.3.4-.4.6-.6.6-1.6.6-2.1,0-.2-.3-.3-.6,0-.9.6-.8.8-1.7.6-2.6-.2-.9,0-1.7.7-2.3.1-.1.2-.2.3-.4,1.1-1.1,1.7-2.4,1.8-3.9,0-.8.3-1.4.9-2,.5-.5.8-1.1.9-1.8,0-.4.1-.7.2-1.1,0,.2,0,.4,0,.6-.1.9-.3,1.7-.9,2.4-.5.5-.7,1.1-.8,1.8-.1.8-.3,1.5-.5,2.3,0,.2,0,.4,0,.5.4.4.6.9.7,1.4.1.6,0,1.3-.3,1.7.5-1.3,0-2.3-.7-3.2ZM43.7,32.7c.3.2.6.4.8.5,1,.5,2,.3,2.6-.5.3-.3.5-.7.7-1.1.3-.4.6-.8.9-1.2.4-.4.7-.9,1-1.5.6-1.5.9-3,.9-4.6,0-.7,0-1.5.1-2.2.2-1.2.2-2.4.1-3.6,0-.4,0-.8,0-1.2,0,0,0,0,.1,0,0,1.1.2,2.1.2,3.2,0,1.2-.2,2.4-.2,3.5,0,1.7-.3,3.3-.8,4.9-.2.6-.5,1.2-1,1.6-.6.5-1,1.1-1.4,1.8-.3.5-.6.9-1.2,1.2-1,.6-2.3.2-2.8-.8ZM67.1,54.8c-2.7-2.1-5.3-4.2-6.4-7.1.4.4,1.1,1,1.8,1.6,0,0,0,0,0,0-.3-.2-.6-.4-.8-.6.1.3.3.6.5.8.8.8,1.5,1.6,2.3,2.4.9.9,1.8,1.7,2.6,2.8ZM43,51.6c.3-.5.3-.5.8-.5,2.7.2,5.4.8,8,1.6,0,0,.1,0,.1,0-1.4-.2-2.9-.5-4.4-.7-1.5-.2-3-.3-4.5-.5ZM31.7,52.7c.3-.5.7-.8,1.1-1,1.1-.6,2.3-.9,3.6-1,.5,0,1.1,0,1.6-.1,0,.7,0,.7-.6.7-.7,0-1.3,0-2,.1-1.3.2-2.6.3-3.7,1.3ZM62.5,51.3c.7.6,1.4,1.2,1.5,2.2,0,.6.3,1,.8,1.3,1,.7,1.8,1.6,2.3,2.7.2.4.3.9.5,1.3,0,0,0,0,0,0,0-.1,0-.2-.1-.3-.4-1.2-1.1-2.1-2.1-2.9-.3-.2-.6-.5-1-.7-.4-.3-.8-.7-1-1.2.1,0,.2.2.4.3-.2-1.1-.8-1.8-1.2-2.7ZM39.1,90.4c-1,0-2,.1-3-.5.3-.3.5-.7.8-.9.3-.3.7-.4,1-.1.4.5.8,1,1.2,1.5ZM44.8,34.6c-.2,1.4-.9,2.5-2.2,3.2-.2,0-.4.2-.6.3-.5.2-.7.6-.7,1.1,0,.4,0,.8,0,1.2,0,1.4-1.5,2.4-2.8,1.8.4,0,.7,0,1,0,.9-.1,1.5-.9,1.5-1.8,0-.4,0-.7,0-1.1,0-.7.3-1.2.9-1.5.3-.1.6-.3.8-.4.9-.4,1.5-1,1.8-1.8.1-.3.2-.6.4-.9ZM61.2,56.2h0c-2.5,0-4.9.4-7.4.8-.8.1-1.6.2-2.4,0,2.5-.3,4.8-1,7.3-1,.8,0,1.7.1,2.5.2ZM72.5,91.5c-.4,0-.8-.1-1.2-.2-.2,0-.3,0-.3-.3-.1-.4-.3-.9-.5-1.3-.2-.4-.4-.8-.6-1.2.3,0,.5,0,.6.2.5.6,1,1.1,1.5,1.7,0,0,.1.2.1.3,0,.3.1.5.2.9ZM72.7,88.7c1.4,0,2.8,1.7,2.5,3.2-.4,0-.8,0-1.1-.1,0-.6.1-1.1,0-1.5-.1-.5-.6-.8-1.3-.8.2,0,.3-.1.3-.1-.2-.2-.3-.4-.5-.6ZM32.2,33.2c-.5.4-1.1.5-1.8.4-.7-.1-1-.6-.7-1.3,0-.2.2-.3.2-.5.8.5,1.5.9,2.3,1.4ZM41.8,27.6s0,0,0,0c-.2,0-.3-.1-.5-.2-.7-.2-1.4-.4-2.1,0-.5.2-.9.4-1.3.7-.5.3-.9.7-1.3,1.1,0,0,.1-.2.2-.3.5-.8,1.2-1.4,1.9-2,.8-.6,1.5-.6,2.3,0,.3.2.6.5.9.7ZM66.1,81.9c.5.2.9.1,1-.1.3-.4,0-.7-.1-1-.4-.8-.5-1.6-.6-2.4-.2-2.8-.4-5.5-.7-8.3,0,0,0-.2,0-.3,0,0,0,0,.1,0,0,.3,0,.7,0,1,.2,2.7.4,5.4.7,8.1,0,.4.2.8.4,1.2.3.4.4.9.4,1.4,0,.3,0,.6-.4.7-.4.1-.7,0-.9-.2ZM31.4,36.8s0,0,.1,0c.8.7,1.4.6,1.9-.3.3-.4.5-.8.7-1.2.2-.2.4-.4.7-.5.3-.1.6-.1.5-.6.1.2.2.3.3.4.2.4,0,.8-.5.8.2-.2.3-.4.5-.5-.2,0-.3.1-.4.2-.5,0-.7.5-.9.8-.2.3-.3.7-.6,1-.7.9-1.7.8-2.3-.1ZM59.7,42.4c.3,2.8,1.7,4.9,3.9,6.6-2.7-1.5-3.9-3.7-3.9-6.6ZM40.5,31.3c-.7,1.7-3.1,2.5-3.8,1.9.4,0,.8-.1,1.3-.2,0,0,0,0,0,0-.8.1-1.3,0-1.6-.2,1.2.2,2.3,0,3.2-.9,0,0,0,0,0,.1-.2.2-.4.4-.7.6.7-.2,1.2-.6,1.6-1.2ZM69,89.8c.8,0,1.4.5,1.7,1.4-.6,0-1.1-.1-1.7-.2v-1.2ZM39.3,38.4c-1.7-.2-1.6-.2-3.2.6-1.4.7-2.8.5-4.2.2.7,0,1.5,0,2.2,0,.8,0,1.5-.2,2.2-.7.8-.6,1.9-.7,2.9-.1ZM30.2,30.6c-.4-.3-.8-.6-1.3-.8-.6-.3-1.2-.5-1.8.1,0-.1,0-.2.1-.3.4-.6,1-.7,1.6-.4.6.3,1,.8,1.4,1.4ZM61.1,55c-.6-1.1-1.4-2.1-2.2-3.1-.3-.3-.5-.7-.8-1.1,0-.1-.1-.3-.2-.4.6.6,1.1,1.3,1.7,1.9.7.8,1.2,1.7,1.5,2.7ZM35.9,56.9c1.6-2,3-4.2,3.2-6.8,0,2.8-1.3,5-3.2,6.8ZM34.9,27.9s0,0,0,0c-.2.2-.4.5-.6.7-.7.6-.9,1.5-.8,2.4,0,.6.4,1.1,1.1,1.1.3,0,.6-.2.8-.2-.2.3-.4.5-.8.5-.6,0-1.2-.5-1.2-.9-.1-.9,0-1.7.5-2.4.3-.4.7-.7,1-1.1ZM43.2,31.4c.3.6.6,1.2.6,1.9,0,1.1-.8,2-1.9,2,0,0,.1,0,.2-.1,1.2-.6,1.6-1.3,1.4-2.6,0-.4-.2-.8-.3-1.2ZM28.4,89.7c-.3,0-.5,0-.8.2-.4,0-.7.2-.8.6-.2.4-.3.4-.8.3.4-1.1,1.1-1.4,2.4-1.1ZM26.4,27.9s0,0,0,0c-.5-.4-1-.8-1.4-1.3-.5-.6-1.1-1.1-1.7-1.5-.3-.2-.5-.4-.8-.6,1.7.6,2.7,2.1,4,3.2ZM28.2,25.5s0,0,0,0c0,.3-.2.7-.2,1,0,.9-.4,1.7-.9,2.5-.3.5-.3,1,0,1.5,0,0,0,.2.1.3,0,0,0,0,0,0-.1-.2-.2-.5-.3-.7-.2-.5,0-1,.3-1.4.4-.6.6-1.3.8-2.1,0-.4.2-.7.3-1.1ZM22.4,25.1c1,1.8,1.9,3.8,3.3,5.3-1.6-1.5-2.4-3.4-3.3-5.3ZM50.3,66.1s0,0,.1,0c.6,1.2.9,2.6,1.3,3.9,0,0,0,0-.1,0-.4-1.3-.9-2.6-1.3-3.9ZM31.3,35.9h-.1c.1-.5.3-1,.4-1.5.1-.4.4-.5.7-.6.2,0,.4-.2.5-.3.3-.3.5-.4.9-.3-.2,0-.4.1-.5.3-.2.3-.5.4-.9.5-.2,0-.4.2-.5.4-.2.4-.3.9-.5,1.3,0,0,0,.2-.1.3ZM41.3,31.5s0,0,.1.1c-.8.7-1.3,1.7-2.2,2.2.7-.8,1.4-1.5,2.1-2.3ZM64,54.9c1,.6,1.8,1.5,2.2,2.6-.5-1-1.4-1.8-2.2-2.6ZM32.3,32.4c-1.3-.5-1.5-1.7-1-2.9,0,.4,0,1,0,1.6,0,.6.6,1,1,1.4ZM39.6,25.3c.3.6.9.9,1.4,1.2.6.3,1,.8,1.1,1.3-.3-.3-.6-.7-1-1-.2-.2-.5-.3-.7-.5-.4-.2-.6-.6-.8-1ZM64.9,58.7s0,0,0,0c.7,1,1.4,2,2.2,3,0,0,0,0,0,0-.7-1-1.4-2-2.2-3ZM49,56.9c.6-.5,2.5-.8,3.2-.4-1.1,0-2.2,0-3.2.4ZM42.7,18.3c.3-.3.6-.8,1-1.2-.1.7-.7,1.2-1,1.2ZM38.8,36.6s0,0,.1,0c0,.1,0,.3,0,.4,0,.2,0,.4,0,.6,0,.3,0,.3-.4.2.2-.4.1-.9.4-1.2ZM32,28.9c.1.5.2,1.1.4,1.6.2.5.4,1,.6,1.5-.6-.6-1.1-2.1-1-3ZM66.5,59.5s0,0,0,0c-.8-1.2-1.5-2.3-2.3-3.5,0,0,0,0,0,0,.8,1.2,1.5,2.3,2.3,3.5ZM66.5,87.9s.1,0,.2,0c0-.5-.4-.3-.7-.4.2,0,.4,0,.6,0-.2-.1-.3-.4-.5-.2,0-.1-.2-.2-.3-.4.5.1.8.3.9.8,0,.4.2.7.4,1.1-.1,0-.2-.2-.3-.2,0,0,0,0,0,0-.1,0-.2,0-.4,0,.1,0,.2,0,.4-.2-.2-.1-.3-.2-.4-.3ZM38.2,37c-.2,1,0,.8-.9.8.3-.3.6-.5.9-.8ZM36.3,40.9c1.1,0,2.1,0,3.1-.6-.9.7-2,.7-3.1.6ZM65.7,65.5c0,0,.1,0,.2,0,.3.6.5,1.3.8,1.9,0,0,0,0-.1,0-.3-.6-.6-1.3-.8-1.9ZM66,59.5c-.5-.7-1-1.3-1.4-2,.7.5,1,1.3,1.4,2ZM37.1,55.8s0,0,.1,0c-.4.7-.8,1.4-1.2,2.1,0,0,0,0,0,0,.4-.7.8-1.4,1.2-2.1ZM67.5,89c.4.4.9.7,1,1.3-.2-.3-.3-.6-.8-.6,0,0,.2,0,.3,0,0,0,0,0,0-.1-.2,0-.4-.1-.6-.2,0,0,.2,0,.3-.1-.1,0-.2,0-.3,0,0,0,0,0,.1-.2ZM39.5,38.1s0,0-.1,0c.1-.6.3-1.2.4-1.8,0,0,0,0,.1,0l-.4,1.8ZM50.8,89.5c-.3-.5-.8-.3-1.2-.3.4-.4.9-.4,1.3-.2-.3,0-.6,0-.9,0,0,0,0,0,0,.1.4,0,.7,0,.8.4ZM40.4,37.5v1.8c-.2-.6-.3-1.2,0-1.8ZM48.2,75.7c.6.2.9,1,.6,1.6,0-.9-.1-1.1-.6-1.6ZM41.9,87c-.2,0-.4-.2-.6-.2-.2,0-.4.2-.6.3.2-.3.4-.5.8-.4.3,0,.4.2.4.3ZM31.3,54.8s0,0,.1,0c-.2.4-.5.9-.7,1.3,0,0,0,0,0,0,.2-.4.5-.9.7-1.3ZM25.3,27.4c.2.5.3,1.1.5,1.6-.3-.5-.5-1-.5-1.6ZM65.8,69.1s0,0-.1,0c0-.5,0-1,0-1.5,0,0,0,0,0,0,0,.5,0,1,.1,1.5ZM37.7,34.7s0,0,0-.1c.5.2,1,.4,1.4.7,0,0,0,0,0,0l-1.5-.6ZM29.5,34.5c.3.5.9.5,1.4.7-.7,0-1.2-.2-1.4-.7ZM31.4,34.1c-.5.2-1,.1-1.5,0,.5,0,1,0,1.5,0ZM33.9,34.3c.3-.3.4-.8,1-.7-.3.3-.7.5-1,.7ZM30.4,35.9c-.5,0-1,0-1.3-.4.4.1.9.3,1.3.4ZM51.3,89.9c.6-.4,1.1-.3,1.4.2-.4-.5-.9-.2-1.4-.2ZM29.7,88.7c.5-.5,1.2-.5,1.5,0-.7-.3-.9-.3-1.5,0ZM46.5,84.5c.3.5.2,1-.4,1.3.4-.4.6-.8.4-1.3ZM35.7,29.3s0,0,0,0c-.3.3-.6.6-.9.9h0c.3-.4.6-.7.9-1ZM38.9,84.6c0-.4,0-.7-.5-.9.1,0,.2,0,.3,0,.1.3.3.6.2,1ZM71.9,72.7s0,0,.1,0c0,.3-.1.6-.2.9,0,0,0,0-.1,0l.2-.9ZM68.1,91.1s0,0,0,0c0,.4.1.8.2,1.2,0,0,0,0,0,0,0-.4-.1-.8-.2-1.2ZM60.6,81.3c.2.1.4.7.3,1,0-.3-.2-.7-.3-1ZM73.6,90.8c.2.5.3.8.1,1.2,0-.4,0-.8-.1-1.2ZM59.3,81.8s0,0,0,0c0-.5,0-.9-.1-1.4,0,0,0,0,0,0,0,.4,0,.9.1,1.3ZM68.6,83c-.4-.4-.7,0-1.1.2.4-.5.8-.6,1.1-.2ZM30.9,37.3s0,0,0,0c-.3-.2-.6-.4-1-.6,0,0,0,0,0,0,.3.2.6.4,1,.6ZM67.7,83.7c.4-.4.6-.4,1,0-.4-.2-.7-.1-1,0Z"/>
    </g>
  </g>
</svg>