<?xml version="1.0" encoding="utf-8"?>
<!-- Generator: Adobe Illustrator 27.9.0, SVG Export Plug-In . SVG Version: 6.00 Build 0)  -->
<svg version="1.1" id="Layer_1" xmlns="http://www.w3.org/2000/svg" xmlns:xlink="http://www.w3.org/1999/xlink" x="0px" y="0px"
	 viewBox="0 0 100 100" style="enable-background:new 0 0 100 100;" xml:space="preserve">
<g>
	<path d="M7.3,52.5c0.4-0.8,1.2-1.2,2.1-1.2c0.5,0,0.9,0.2,1.3,0.4h0.1c0.8,0.6,1.1,1.8,0.8,2.8c-0.9,2.4-2.1,5.4-2.4,6
		c-0.2,0.6-1.3,1.2-1.9,1.4c-0.2,0.1-0.3,0.2-0.3,0.3c-0.5,1.5-0.1,3.9,0.2,5.7l0.1,0.4c0,0.1,0,0.2-0.1,0.2c-0.1,0.1-0.4,0.2-0.5,0
		c-2.2-2.9-2.7-6.9-2.7-6.9c0-0.1,0-0.1-0.1-0.2C3.6,60.6,4.8,57.1,7.3,52.5z"/>
	<path d="M18.6,70.2c0.3-0.1,0.6-0.1,0.9-0.1c0.8,0,1.4,0.3,1.7,0.5c0.3,0.2,0.5,0.5,0.5,0.8c0.2,1,0.7,3.5,0.8,4.6c0.1,1.4,0,2,0,2
		c0,0.1,0,0.2,0,0.3l1.1,2.2l-0.4-0.2c-4.7-2-5.7-6.5-5.8-8.9C17.5,70.9,17.9,70.3,18.6,70.2z"/>
	<path d="M76.3,77.9c0,0-0.1-0.6,0-2c0.1-1.1,0.6-3.6,0.8-4.6c0.1-0.3,0.3-0.6,0.5-0.8c0.4-0.2,0.9-0.5,1.7-0.5c0.3,0,0.6,0,0.9,0.1
		c0.6,0.1,1.1,0.7,1,1.3c-0.2,2.5-1.1,6.8-5.8,8.9l-0.4,0.2l1.1-2.2C76.3,78.2,76.3,78,76.3,77.9z"/>
	<polygon points="47.4,26.6 47.4,26.6 47.4,27.2 	"/>
	<path d="M77.1,58.2c-1.7,0-4.8-0.5-5.8-3.1c-0.9-2.4-0.9-5.5,1.3-6.9c0.1,0,0.1-0.1,0.1-0.1c0.8,0.5,1.6,0.6,2.5,0.6
		c0.3,0,0.6,0,0.9-0.1l0,0c0.1,0.7,0.9,3,5.4,3.4h0.1l0,0c0.1,0,0.4,0,0.8-0.1C82.1,53.8,79.6,56.6,77.1,58.2z"/>
	<path d="M75.4,59.1c-0.6,0.2-1.2,0.4-1.7,0.4l0,0c-3.6,0-8.7-4.7-8.7-4.7s-3.5-4.2-1.3-7.1c0.9-1.3,2.7-1.6,4.2-1.6
		c0.3,0,0.7,0,1,0c1.1,0.1,2.1,0.6,3.1,1.2c-2.6,1.7-2.7,5.4-1.5,8.2C71.3,57.9,73.6,58.8,75.4,59.1z"/>
	<path d="M15.8,51.4C15.8,51.4,15.9,51.4,15.8,51.4c4.5-0.1,5.5-2.2,5.7-3l0,0c0.4,0.1,0.9,0.2,1.4,0.2c0.4,0,0.8-0.1,1.3-0.2
		c1.7,1.8,2.5,5,1.5,6.9c-1.2,2.5-4.3,2.7-6,2.6c-2.4-1.8-4.5-4.8-4.8-6.6c0.4,0.1,0.7,0.2,0.8,0.2C15.8,51.4,15.8,51.4,15.8,51.4z"
		/>
	<path d="M25.4,47.9c1-0.8,2.4-1.2,3.6-1.3l0,0c1.7,0,4,0.4,5,2c1.8,3.1-1.9,6.9-1.9,6.9s-5.1,4-8.7,4c-0.1,0-0.3,0-0.4,0
		c-0.5-0.1-1.1-0.2-1.6-0.5c1.9-0.1,4.2-0.8,5.3-3.2c1.2-2.5,0.3-5.7-1.4-7.9C25.3,48,25.4,47.9,25.4,47.9z"/>
	<path d="M89,53.7L89,53.7c0.4-0.3,0.9-0.5,1.4-0.5c0.9,0,1.7,0.5,2.1,1.2c2.6,4.6,3.8,8.1,3.3,9.1c0,0.1-0.1,0.1-0.1,0.2
		c0,0-0.3,4.2-2.7,6.9c-0.1,0.2-0.4,0.1-0.5,0s-0.1-0.1-0.1-0.2l0.1-0.4c0.3-1.8,0.6-4.2,0.2-5.7c0-0.2-0.2-0.3-0.3-0.3
		c-0.6-0.2-1.7-0.8-1.9-1.4c-0.2-0.7-1.5-4.1-2.4-6C87.9,55.5,88.2,54.4,89,53.7z"/>
	<path d="M43.3,35.5c1.3-0.6,4.2-0.2,5.2,0v9.7l-5,0.7C42.7,40.6,42.6,35.8,43.3,35.5z"/>
	<path d="M54.4,35.5c0.7,0.4,0.6,5.2-0.2,10.5l-4.6-0.7v-9.8C50.8,35.2,53.2,34.9,54.4,35.5z"/>
	<path d="M70.2,37.7c-3.7-0.3-11.8-1.2-15.4-3.2c-1.9-0.9-5.7-0.1-5.9,0h-0.1c0,0,0,0-0.1,0c-0.2,0-3.9-0.9-5.8,0l0,0
		c-0.1,0-8.1,3.1-15,4.1c-0.2-1.9-0.2-3.5-0.1-4.2c0.5-3.1,4.8-4.8,4.8-4.8c2.8-1.1,5.9-1.8,9.3-2.1c-0.4-0.7-0.8-1.4-1.2-2
		c-1-0.4-1.7-1.8-1.7-3.6c0-2,1.1-3.7,2.5-3.7s2.5,1.6,2.5,3.7c0,0.6-0.1,1.2-0.3,1.6l0,0c0,0,0.5,2,0.6,3.7c1-0.1,2-0.1,3.1-0.1
		c2.7,0,5.2,0.2,7.7,0.4c0.2-1.6,0.6-3.5,0.6-3.5l0,0c-0.2-0.5-0.3-1.1-0.3-1.6c0-2,1.1-3.7,2.5-3.7c1.3,0,2.5,1.6,2.5,3.7
		c0,1.6-0.7,3.1-1.7,3.6c-0.3,0.6-0.7,1.2-1.1,1.9c3.6,0.5,6.3,1.1,7.6,1.7c1.4,0.6,2.7,1.6,3.6,2.5c1.3,1.2,1.9,3.1,1.8,4.9
		C70.3,37.2,70.3,37.5,70.2,37.7z M41.4,19.5c-0.5,0-0.9,0.4-0.9,0.9c0,0.5,0.4,0.9,0.9,0.9s0.9-0.4,0.9-0.9
		C42.3,19.9,41.9,19.5,41.4,19.5z M57.9,20c-0.5,0-0.9,0.4-0.9,0.9c0,0.5,0.4,0.9,0.9,0.9s0.9-0.4,0.9-0.9
		C58.9,20.4,58.4,20,57.9,20z"/>
	<path d="M88.6,46.2c1.3,1.9,4,5.9,3.8,6.5c-0.5-0.3-1.2-0.5-1.8-0.5c-0.7,0-1.4,0.2-2,0.6L88.4,53c-0.6,0.5-1.1,1.2-1.2,1.9
		c0,0,0,0-0.1,0.1c0,0-1.1-2-2.1-4c0.2-0.1,0.4-0.3,0.6-0.4C86.6,49.8,87.7,48.4,88.6,46.2z"/>
	<path d="M67.6,65.2c0,0-0.9-1-0.8-1.7c0-0.3,0.1-1,0.2-1.9c1.2,0.9,2.6,1.9,4,2.8c-0.2,0.8-0.4,1.5-0.8,1.8c0,0-1.5,3-3.9,4
		c-0.1,0-0.2,0-0.2,0c-0.4,0-0.7-0.5-0.4-0.9C66.4,68.1,67.4,66.2,67.6,65.2z"/>
	<path d="M79.5,68.9c-1,0-1.8,0.3-2.4,0.6c-0.1,0-0.1,0.1-0.2,0.1c-0.5-1.1-1.2-3.7,0.3-6.9c0.2-0.2,1.2-1.1,2.2-1.1
		c0.4,0,0.7,0.1,1.1,0.4c0.5,0.4,0.9,1.3,1.1,2.8c0.3,2.1,0.1,4.2-0.1,4.7c-0.3-0.2-0.6-0.4-1-0.5C80.3,68.9,79.9,68.9,79.5,68.9z"
		/>
	<path d="M18.4,62.1c0.3-0.2,0.7-0.4,1.1-0.4c1,0,2,0.9,2.2,1.1c1.5,3.3,0.7,5.8,0.3,6.9c-0.1,0-0.1-0.1-0.2-0.1
		c-0.5-0.3-1.3-0.6-2.4-0.6c-0.4,0-0.7,0-1.1,0.1s-0.7,0.3-1,0.5C17.2,69,17,67,17.3,64.9C17.5,63.4,17.9,62.5,18.4,62.1z"/>
	<path d="M32.7,64.8c0.1,0.7-0.8,1.7-0.8,1.7c0.2,1,1.2,3,1.9,4c0.3,0.4,0,0.9-0.4,0.9c-0.1,0-0.1,0-0.2,0c-2.4-1-3.9-4-3.9-4
		c-0.6-0.4-0.9-1.9-1-3.5c1.4-0.9,2.8-1.8,4-2.9C32.4,62.6,32.6,64.4,32.7,64.8z"/>
	<path d="M75.2,47.7c-0.9,0-1.6-0.2-2.1-0.7c-0.9-0.8-1.8-1.3-2.9-1.6c0.1-0.5,0.2-0.9,0.3-1.4c1.5-0.6,2.9-1.1,4-1.5
		c0.2,1.6,0.6,3.4,1.3,5.3C75.6,47.6,75.4,47.7,75.2,47.7z"/>
	<path d="M81.7,51.1c-4.3-0.5-4.5-2.7-4.5-2.7c-4.7-11.7,1.3-17.6,1.3-17.6s-0.2,8.6,2.8,9.1c0.1,0,0.1,0,0.2,0
		c2.9,0,4.3-10.6,4.3-10.6s3.5,1.7,2.8,11.7C87.9,50.9,81.7,51.1,81.7,51.1z"/>
	<path d="M73.7,60.6L73.7,60.6c1.1,0,2.4-0.4,3.5-1.1c0.5,0.4,0.9,0.7,1.2,0.9c-2,0.7-2.8,3.5-3,4.8l-1-0.4c-3.7-1.6-7.8-5-10-6.9
		c0.5-0.3,0.9-0.6,1.3-0.9C67.5,58.3,70.9,60.6,73.7,60.6z"/>
	<path d="M55.2,46.5c0.4-2.7,1.1-7.8,0.5-10.4c4.2,1.5,11.1,2.4,14.4,2.7c-0.2,2.2-0.6,4.4-1,6.4c-0.1,0-0.1,0-0.2,0
		c-0.4,0-0.7-0.1-1.1-0.1c-2.2,0-4,0.7-5,2c-0.9,1.2-1,2.7-0.8,4C59.7,49.8,56,47.8,55.2,46.5z"/>
	<path d="M32.9,56.4c0.1-0.1,1.8-1.8,2.5-4.1c2.7-0.9,6.7-4.4,7.7-5.1l0,0h0.1c0,0,0.1,0,0.1-0.1l5.7-0.8l5.2,0.8
		c1.3,1.9,6.7,4.7,8.2,5.4c0.6,1.6,1.6,2.9,1.7,3l0.1,0.1c0.1,0.1,0.3,0.3,0.6,0.5c-1.3,1.1-3,1.8-4.8,1.8H37.4
		C35.8,57.9,34.2,57.4,32.9,56.4L32.9,56.4z"/>
	<path d="M29.1,45.5L29.1,45.5c-0.1,0-0.2,0-0.3,0c-0.3-2-0.6-4.1-0.8-5.8c5.4-0.8,11.4-2.8,14-3.7c-0.6,2.6,0,7.5,0.5,10.2
		c-0.2,0.2-4.1,3.6-6.7,4.8c0.1-0.9-0.1-1.9-0.6-2.9C34,46.5,32,45.5,29.1,45.5z"/>
	<path d="M20.6,60.5c0.1-0.1,0.3-0.3,0.5-0.4c0.6,0.3,1.2,0.5,1.8,0.5c0.2,0,0.4,0,0.5,0c3.1,0,6.8-2.5,8.5-3.6
		c0.6,0.5,1.2,0.9,2,1.2c-2.4,2-6,5-9.4,6.4l-1,0.4C23.4,63.8,22.8,61.2,20.6,60.5z"/>
	<path d="M15.8,50.3c0,0-6.1-0.6-5.9-10.6s3.8-11.4,3.8-11.4s0.5,11,3.4,11h0.1c3.1-0.3,3.6-8.9,3.6-8.9s5.5,6.4-0.2,17.7
		C20.6,48.1,20.2,50.2,15.8,50.3z"/>
	<path d="M22.7,46c0.9-2.2,1.3-4.3,1.4-6c0.8,0.3,1.8,0.6,2.9,1c0.2,1.5,0.4,3.2,0.7,4.8c-0.9,0.2-1.7,0.6-2.6,1.1
		C24.3,46.6,23.5,46.2,22.7,46z"/>
	<path d="M11.5,50.8c-0.6-0.4-1.2-0.6-2-0.6c-0.7,0-1.3,0.2-1.8,0.5c-0.1-0.4,1.1-2.5,2.4-4.3c0.6,1.4,1.4,2.5,2.1,3.2
		c0.7,0.6,1.3,1,1.9,1.3c-0.6,1.2-1.1,2.1-1.1,2.1s0,0-0.1-0.1C12.7,52.1,12.3,51.5,11.5,50.8L11.5,50.8z"/>
</g>
</svg>
