<?xml version="1.0" encoding="utf-8"?>
<!-- Generator: Adobe Illustrator 27.9.0, SVG Export Plug-In . SVG Version: 6.00 Build 0)  -->
<svg version="1.1" id="Layer_1" xmlns="http://www.w3.org/2000/svg" xmlns:xlink="http://www.w3.org/1999/xlink" x="0px" y="0px"
	 viewBox="0 0 100 100" style="enable-background:new 0 0 100 100;" xml:space="preserve">
<style type="text/css">
	.{fill-rule:evenodd;clip-rule:evenodd;}
</style>
<g>
	<path class="" d="M17.6,74.2c-0.1-1.2-0.8-2.3,0.4-2.9c0.1-1.3-1-1.2-1.6-1.8c-1-3.2,0.8-5.2,2.8-5.9c0.4,1.2,0.8,3.2,1.1,4.1
		c2.7,10,13.8,14.7,14.1,15c0.4,0.3,8.9,2.6,9.4,2.7c4.4,0.7,13.2-0.3,14.1,0c-2.9,2.1-1.9,6-0.2,8.7c1.6,3.3,4.3,3.7,6.2,3.9
		c0.4-0.4-0.3-0.3-0.2-0.9c0.5-0.8,2.3-0.3,3.2-0.7c0.4-1-2-0.7-2.7-1.2c0-1,1.6-0.5,1.2-2c-1.7-0.9-2.4,0.9-4.1,0.9
		c-0.9-1.4-1.5-3.1-2.3-4.6c1.2-3.4,4.9-4.3,8.9-4.5c1.4,0.4,16.9-2.7,19.4-3.9c2.4-1.2,5-2.9,4.3-6.8c-1.1-0.8-2.6-1.2-3.7-2
		c0.7-3.8-3.9-4.6-5.2-2.3c-1.5,0-2.9-0.4-4.3,0c-0.5-0.5-1.2-0.7-1.8-1.1c0.2-1.3,3.1-0.7,2.5-2.3c-1.2-0.1-2.1,0.3-3,0.5
		c-0.5-0.6,0.9-0.6,0.5-1.6c-1.5-0.5-2.1,1.4-3.9,1.6c-2.7,0.4-6.6-0.8-8.4,0.7c-1.3,1.1-0.7,2.5-1.8,4.3c-4,0.5-7.6,1-10.9,0
		c-4.4-1.4-9.1-3.5-12.3-5.9c-3.3-2.5-4.2-6.9-7.1-9.3c1.9-2,7.1-4.5,9.3-1.1c-0.1,0.8-0.7,1.7-0.4,2.3c0.5,0.4,0.9-0.2,1.2-0.4
		c0.7,0.3-0.1,2.1,0.9,2.1c1.1-0.1,0.8-1.5,1.4-2.1c1.9-0.1,2.3,1.3,3.7,0.9c-0.1-1.2-1.4-1.1-1.4-2.3c0.6-1.7,3.4,0.8,3.6-1.2
		c-1-0.4-2.4-0.3-2.7-1.4c0-0.6,1.2-0.1,1.2-0.7c0.2-0.6-0.6-0.1-0.4-0.7c-5.4,0.6-6.5-2.7-12.1-2.3c-2.8,0.2-4.1,1.3-6.6,2.7
		c-1.2-1.4-1.9-4-1.2-6.6c2.3-9.3,8.6-17,10.5-26.2c1.1-5.2,1.7-10.8-0.9-14.2c-1.8-2.4-5.4-4.1-9.3-3.7
		c-9.7,0.9-18.9,9.7-14.6,21.9c1.2-1.1,0.2-3,0.4-4.3c0.2-1.9,1.2-4.5,2.3-6.1C20.8,8.8,28.6,5.1,34.2,9c0.9,4.2-1.1,7.8-2.7,11.2
		c-1.5,3.3-4,6.7-6.1,10.3c-2.1,3.9-3.8,8.2-5.5,11.6c-3.2,6.2-0.9,14-0.9,14.1c0.2,1.2,0.3,2.5,0.4,2.3c0.4,0.3-0.1,0.7-0.5,0.5
		c-3.7,1.1-6.3,3.5-6.8,7.8c0.7,3.7-1.9,4.2-3.2,5.9c0.6,0.3,0.8-0.1,1.4-0.2c0,1.7-1.9,1.5-2.1,3c0.3-0.1,0.3,0.1,0.4,0.4
		c1.2-0.6,2.2-1.3,3.2-2.1c1.2,0.7,0.4,1.6,0.4,3c1.7,0.1,1.6-3.4,3.4-3.4C16,73.4,16.9,74.4,17.6,74.2z M77.1,70.4
		c-0.3-0.3-1.2,0-1.4-0.4C76.2,69.8,76.9,69.9,77.1,70.4z M67.1,70.8c0.9-0.7,3.6-0.4,4.8-0.2C70.3,70.8,68.7,71,67.1,70.8z"/>
</g>
</svg>
