<?xml version="1.0" encoding="utf-8"?>
<!-- Generator: Adobe Illustrator 27.9.0, SVG Export Plug-In . SVG Version: 6.00 Build 0)  -->
<svg version="1.1" id="Layer_1" xmlns="http://www.w3.org/2000/svg" xmlns:xlink="http://www.w3.org/1999/xlink" x="0px" y="0px"
	 viewBox="0 0 100 100" style="enable-background:new 0 0 100 100;" xml:space="preserve">
<path d="M93.4,67.2l-1.3-2.4l-7.3-4.3l-10.1,2c0.4-0.8,0.7-1.7,0.8-2.6l8.8-2.2l4-6c0.3-0.4,0.2-1-0.3-1.3c-0.4-0.3-1-0.2-1.3,0.3
	l-3.6,5.4l-7.5,1.8c0-0.9-0.2-1.8-0.5-2.7c5.6-2,11.4-7.8,11.1-11.7c0-0.6-0.6-1.2-1-1.5c1.3-2,2.6-6.1-0.9-13
	c-0.2-0.4-2-4.5-6.1-7.2c-3.6-2.3-9.2-2.5-11.5-2.5c0,0,0,0,0,0c-0.5,0-1,0.2-1.1,0.7c-0.1,0.5,0.1,0.9,0.6,1.2
	c1.2,0.6,4.2,2,6.4,3.3c4.1,2.4,5.4,6,5.7,6.9c-0.6,0-1.2-0.3-2-0.9c-1-0.8-1.8-1.7-2.6-2.5c-2.1-2.2-4.1-4.2-8.5-4.7
	c-0.6-0.1-1.1,0.3-1.3,0.8c-0.2,0.5,0,1.1,0.5,1.4c0.5,0.3,4.9,3.4,7.4,9.7c1.1,2.9,2.4,5.2,3.7,6.9l0,0.2c-0.4,1.8-3.4,5.4-4.8,7
	c-3-2.5-7.3-4.4-12.2-5.4l0.3-0.6c1.1-0.2,2-1.1,2-2.3c0-1.3-1-2.3-2.3-2.3c-1.3,0-2.3,1-2.3,2.3c0,0.7,0.3,1.3,0.7,1.7l-0.4,0.9
	c-2.1-0.3-4.3-0.5-6.5-0.5c-1.9,0-3.7,0.1-5.4,0.3l-0.3-0.7c0.5-0.4,0.7-1,0.7-1.7c0-1.3-1-2.3-2.3-2.3c-1.3,0-2.3,1-2.3,2.3
	c0,1.1,0.9,2.1,2,2.3l0.2,0.4c-5.3,1-9.9,2.9-13.2,5.5c-1.4-1.6-4.3-5.1-4.7-6.9l0-0.2c1.3-1.7,2.6-4,3.7-6.9
	c2.4-6.3,6.9-9.4,7.4-9.7c0.5-0.3,0.7-0.9,0.5-1.4c-0.2-0.5-0.7-0.9-1.3-0.8c-4.4,0.5-6.4,2.6-8.5,4.7c-0.8,0.8-1.6,1.7-2.6,2.5
	c-0.8,0.6-1.4,0.9-2,0.9c0.3-0.9,1.6-4.6,5.7-7c2.1-1.3,5.2-2.7,6.4-3.3c0.5-0.2,0.7-0.7,0.6-1.3C34.4,19.3,34,19,33.4,19
	c-2.3,0-8,0.4-11.5,2.7c-4.2,2.7-6,7-6.1,7.4c-3.5,6.8-2.2,10.9-0.9,12.9c-0.4,0.3-1.2,0.8-1.2,1.6c-0.2,4.2,5.9,9.6,11.1,11.6
	c-0.3,0.9-0.5,1.8-0.6,2.8l-7.3-1.8l-3.6-5.4c-0.3-0.4-0.9-0.6-1.3-0.3c-0.4,0.3-0.6,0.9-0.3,1.3l4,6l8.6,2.1
	c0.1,0.9,0.4,1.7,0.8,2.5l-9.8-1.9l-7.3,4.3l-1.3,2.4c-0.3,0.5-0.1,1.1,0.4,1.3c0.1,0.1,0.3,0.1,0.5,0.1c0.3,0,0.7-0.2,0.9-0.5
	l1-1.9l6.2-3.6l11.2,2.2c0,0,0,0,0,0c0,0,0,0,0,0c0,0,0,0,0,0c3.2,0.5,6,1.4,8.5,2.5l-14.8-1.5l-0.4,0L12,71.4l0.4,3.1
	c0.1,0.5,0.5,0.8,1,0.8c0,0,0.1,0,0.1,0c0.5-0.1,0.9-0.6,0.8-1.1L14,72.3l6.6-4.7l18.7,1.9c0.7,0.5,1.4,1.1,2,1.7l-10.7-0.4
	l-5.7,6.5l0.3,2.8c0.1,0.5,0.5,0.9,1,0.9c0,0,0.1,0,0.1,0c0.5-0.1,0.9-0.5,0.9-1.1l-0.2-2l4.5-5.1l11.4,0.4c0.1,0,0.5,0,0.6,0
	c0.9,0,1.9,0.1,3,0.3c1.1,0.1,2.3,0.3,3.5,0.3c1.3,0,2.7-0.2,3.9-0.3c1.2-0.1,2.3-0.3,3.3-0.3c0,0,0,0,0.1,0c0,0,0.1,0,0.1,0
	l11.4-0.4l4.5,5.1L73,80c-0.1,0.5,0.3,1,0.9,1.1c0,0,0.1,0,0.1,0c0.5,0,0.9-0.4,1-0.9l0.3-2.8l-5.7-6.5l-10.3,0.4
	c0.6-0.6,1-1,1.7-1.5c0.2-0.1,0.4-0.1,0.6-0.1l17.9-2l6.6,4.7l-0.3,1.9c-0.1,0.5,0.3,1,0.8,1.1c0,0,0.1,0,0.1,0c0.5,0,0.9-0.3,1-0.8
	l0.4-3.1l-8.1-5.8L65,67.3c2.3-1.1,5-2,8-2.5c0,0,0,0,0,0s0,0,0,0l11.5-2.3l6.2,3.6l1,1.9c0.2,0.3,0.5,0.5,0.9,0.5
	c0.2,0,0.3,0,0.5-0.1C93.5,68.2,93.6,67.6,93.4,67.2z"/>
</svg>
