<?xml version="1.0" encoding="utf-8"?>
<!-- Generator: Adobe Illustrator 27.9.0, SVG Export Plug-In . SVG Version: 6.00 Build 0)  -->
<svg version="1.1" id="Layer_1" xmlns="http://www.w3.org/2000/svg" xmlns:xlink="http://www.w3.org/1999/xlink" x="0px" y="0px"
	 viewBox="0 0 100 100" style="enable-background:new 0 0 100 100;" xml:space="preserve">
<path d="M35.7,52c0.4,0.5,0.8,0.9,1.1,1.3c-0.1,0-0.3,0-0.5,0c0.1,0.5,0.2,1,0.3,1.5c0.7-0.4,1.4-0.9,2.4-1.5
	c-0.3,0.5-0.5,0.8-0.7,1.1c0,0.1,0.1,0.1,0.1,0.2c1.3-0.8,2.6-1.7,3.9-2.5c0.1,0.1,0.2,0.3,0.3,0.4c-0.3,0.1-0.5,0.2-0.8,0.3
	c0.1,0,0.1,0.1,0.2,0.1c0.5,0,1,0,1.8,0c-0.6,0.3-0.9,0.5-1.2,0.6c1.7,0,3.3-0.2,4.7,1.1c-0.3,0-0.5-0.1-0.4-0.1
	c0.7,1,1.5,2.1,2.3,3.2C49.1,57.9,49.1,58,49,58c-0.1-0.1-0.3-0.2-0.7-0.4c0.3,1.6,0.6,2.9,0.9,4.3c-0.1,0-0.1,0-0.2,0.1
	c-0.1-0.4-0.3-0.8-0.4-1.2c0,0-0.1,0-0.1,0c0.1,0.9,0.1,1.7,0.2,2.6c-0.1,0-0.1,0-0.2,0c-0.1-0.5-0.2-0.9-0.4-1.4
	c-0.1,0-0.1,0-0.2,0c-0.1,1-0.1,2.1-0.2,3.2c-0.1-0.3-0.2-0.5-0.4-0.9c-0.3,1-0.6,1.8-0.9,2.6c0,0-0.1,0-0.1,0
	c0-0.5,0.1-1.1,0.1-1.6c-0.1,0-0.2,0-0.3,0c-0.1,0.9-0.3,1.7-0.5,2.8c-0.2-0.4-0.2-0.6-0.4-1c-0.3,0.9-0.5,1.7-0.6,2.3
	c1.7-0.8,3.5-1.6,5.3-2.4c0.6-0.3,2.8-0.4,3.8-0.1c0.9,0.2,1.8,0.1,2.6,0.8c0.2,0.2,0.7,0.1,1.1,0.1c0.1,0.2,0.2,0.6,0.5,0.7
	c0.7,0.2,1.1,0.6,1.6,1.1c0.6,0.5,1.2,1,1.8,1.5c0.3,0.2,0.6,0.3,1,0.5c0.1,0,0.2,0.1,0.2,0.2c0,0.9,0.6,0.8,1,0.7
	c0.3,0.4,0.4,0.7,0.7,0.9c1.7,1.1,2.6,1.7,4.6,1.9c3.2,0.4,1.8,0.6,5-0.3c1.1-0.3,2.1-1.2,3.2-1.3c0.8,0,1.2-0.8,2-0.7
	c0.8,0,0.5-0.5,1.2-0.8c3.6-1.5,3.7-1.1,7,0.8c1.1,0.6,1.1,1.3,2.1,2c3.7,2.7,5.4,2.6,9.5,1.1c0.4-0.1,0.8-0.3,1.2-0.4
	c-0.9,1.1-2.1,1.8-3.5,2.2c-2.7,0.8-3.2,0.8-5.8-0.5c-1.8-0.9-2.3-1.9-4.1-2.7c-1.3-0.5-1.5-0.9-2.9-1c-1.1-0.1-1.1,0.3-2.1,0.6
	c-2,0.7-1.7,1.4-3.6,2.4c-0.6,0.3-1.2,0.4-1.8,0.7c-0.3,0.2-0.5,0.3-0.9,0.6c-0.7-0.2-2.7,0.6-2.8,0.8c-0.7,0.1-1.3,0.1-1.8,0.1
	c-0.4,0-0.8-0.2-1.2-0.3c-2.4-0.4-1.4-0.8-3.8-1.2c-0.5-0.1-1-0.2-1.5-0.5c-2.1-1-4.3-1.9-6.1-3.5c-0.4-0.4-1-0.5-1.8-0.9
	c-0.3-1-1.5-0.9-2.5-1.1c-1.9-0.3-3.7-0.3-5.3,1.5c1.6-0.1,3.1-0.3,4.4,0.8c1.1,0.9,2.4,1.6,3.8,2.6c-1.3,0.4-1.9-0.4-2.8-0.6
	c-0.8-0.2-1.7-0.2-2.5-0.3c0,0.1-0.1,0.3-0.1,0.4c0.8,0.4,1.8,0.7,2.4,1.4c0.6,0.7,0.7,1.7,1,2.6c-0.1,0.1-0.2,0.1-0.4,0.2
	c-0.2-0.3-0.5-0.6-0.6-1c-0.3-0.9-0.9-1.3-1.9-1.2c-0.7,0-1.3-0.1-2.1-0.2c1.5,1,2.4,2.2,2,4.1c-0.4-1.2-1-2.2-2.3-2.5
	c-2.2-0.4-4.4-0.7-6.6-1.2c-1.1-0.2-2.1-0.8-3.1-1.1c-0.6-0.2-1.3-0.5-1.8-0.4c-3.5,0.6-7.1,1-10.6,0.3c-1.4-0.3-2.6-0.9-3.5-2.2
	c-0.4-0.6-1.8-0.4-2.1,0.3c-0.6,1.5-1.8,1.8-3.2,2.2c-1.6,0.4-3.1,1.1-4.5,2c-1.5,0.9-3,1.8-4.8,2c-1.9,0.3-2.4,1.2-1.7,3
	c0,0.1,0,0.3,0,0.5c-0.9,0-1.2-0.6-1.4-1.2c-0.5-1.6,0.8-2.2,1.7-3.2c-1.3,0.5-2.5,1-3.7,1.7c-0.3,0.2-0.2,1-0.3,1.5
	c-1.5-1-1.1-1.9,1.8-4.1c-1.8,0.1-3.6,0.2-5.3,0.4c0.9-0.7,1.9-1.4,2.7-2.1c1-0.9,2.1-1.1,3.4-1c1.6,0,3.2-0.1,4.7-0.5
	c1.4-0.4,2-2.2,1.2-3.2c-0.2,0.1-0.4,0.3-0.7,0.5c0.1-0.3,0.1-0.5,0.2-0.7c-0.3,0.1-0.6,0.3-1,0.5c0.3-0.5,0.5-0.8,0.6-0.9
	c-0.2-0.5-0.4-0.8-0.6-1.4c-0.1,0.5-0.1,0.7-0.2,1.3c-0.2-0.8-0.4-1.4-0.6-2.2c-0.1,0.3-0.1,0.4-0.3,0.8c-0.8-0.9-1.5-1.7-2.2-2.4
	c0,0.1-0.2,0.5-0.3,0.9c-0.6-1-1.1-1.8-1.6-2.6c0,0.1,0,0.3-0.1,0.5c-0.1,0-0.2,0-0.3,0c-0.1-1.4-0.3-2.8-0.4-4.3
	c-0.3,0.2-0.5,0.5-0.9,0.8c0.4-1,0.7-2,1-2.9c-0.1-0.1-0.1-0.1-0.2-0.2c-0.1,0.3-0.3,0.6-0.4,0.8c-0.1-0.1-0.2-0.2-0.4-0.3
	c0.7-0.8,1.3-1.7,2.1-2.6c-0.2-0.1-0.6-0.3-1-0.5c0-0.1,0-0.1,0-0.2c0.5,0.1,1,0.2,1.7,0.4c-0.1-0.2-0.1-0.3-0.2-0.6
	c0.5,0.1,1,0.1,1.9,0.2c-1-1.3-1.8-2.4-2.7-3.6c-0.8,1.2-0.3,2.2,0.1,3.2c-0.7-0.2-1.3-1-1.4-1.9c0-1.5-0.1-3,0-4.5
	c0.1-0.8,0.6-1.6,0.9-2.4c0.2-0.4,0.5-0.9,0.5-1.3c0.1-1.6,0-3.2,0.1-4.9c0-1.2,0.4-1.7,1.6-1.9c1-0.2,2.1-0.4,3.1-0.7
	c0-0.1,0-0.2,0-0.3c-0.2-0.1-0.5-0.2-0.8-0.3c0.7-0.1,1.3-0.2,2.1-0.3c-0.4-0.2-0.6-0.2-0.6-0.2c0.5-0.5,1.1-1,1.7-1.5
	c-0.1-0.1-0.2-0.2-0.3-0.3c-0.2,0.3-0.4,0.6-0.5,0.9c-0.1-0.1-0.2-0.2-0.4-0.3c1-1.6,2.1-3.2,3.1-4.8c0,0-0.1-0.1-0.1-0.1
	c-0.3,0.3-0.7,0.5-1,0.8c0,0-0.1-0.1-0.1-0.1c0.5-0.5,1.1-1,1.8-1.7c-0.6-0.1-1-0.2-1.4-0.3c0.5-0.5,1.1-1.1,1.7-1.8
	c-0.3,0-0.6-0.1-0.9-0.1c0.8-1.1,2.4-1.2,3.4-2.6c1-0.6,2.3-1.3,3.7-2.1c-0.3-0.7-0.5-1.2-0.8-1.9c0.6,0,1.2,0,1.8,0
	c0-0.1,0-0.2,0.1-0.3c-0.4-0.1-0.9-0.3-1.5-0.5c0.5-1,0.9-2.1,1.5-3c0.6-1,0.5-1.4-0.6-1.6c-0.3,0-0.5-0.1-0.8-0.3
	c0.3-0.1,0.7-0.3,1-0.3c1.3-0.1,2.9,0.8,3.4,2c0.7,1.6,0.9,1.8,1.7,2.2c-0.4-1.3-0.7-2.6-1.1-3.9c-0.1-0.3-0.4-0.5-0.7-0.6
	c-0.5-0.3-1.1-0.5-1.5-0.9c1,0.1,1.9,0.1,2.9,0.3c0.2,0,0.4,0.4,0.7,0.6c0.4,0.4,0.9,1,1.3,1c1.4,0.2,2.3,1,2.8,2.1
	c0.5,1.1,1.1,1.7,2.3,1.7c0.9,0,1.9,0.2,2.8,0.3c0.3,0,0.6-0.1,0.8-0.2c1.8-0.6,3-1.9,3.8-3.6c0.5-1.1,1.8-1,3-0.8
	c-1.9-0.1-2.9,0.9-3.5,2.6c-0.3,0.9-1,1.4-1.9,1.7c-0.4,0.1-0.8,0.3-1.3,0.6c0.9,0.4,1.6,0.4,2.2-0.2c0.9-0.9,1.9-1.6,3.3-1.7
	c1,0,1.6-0.7,2.1-1.4c0.6-0.8,1.2-1.7,1.9-2.5c0.1,0.1,0.2,0.1,0.3,0.2c-0.9,1.2-1.7,2.4-2.6,3.4c-0.4,0.4-1.2,0.5-1.8,0.8
	c-0.9,0.4-1.8,0.7-2.6,1.1c0.1,0.2,0.1,0.3,0.2,0.5c0.4-0.2,0.8-0.2,1.1-0.5c0.7-0.5,1.4-0.8,2.1-0.4c1.2,0.7,2.1,0.2,3-0.4
	c0.4-0.3,0.8-0.6,1.2-0.9c0.1,0.1,0.1,0.1,0.2,0.2c-0.6,0.4-1.2,1-1.9,1.3c-1.1,0.4-1.6,1.3-2.1,2.3c-0.6,1.2-1.3,2.3-1.9,3.4
	c0.5,0.6,1.1,1.2,1.5,1.9c1,1.4,2.3,1.7,3.9,1.4c-1.8,0.7-3,0.4-4.2-1c-0.2-0.2-0.3-0.4-0.5-0.6c-0.9-1.2-1.4-1.2-2.5-0.2
	c1,0.7,1.9,3.4,1.5,4.6c-0.5,1.5-0.9,2.9-1.3,4.4c-0.1,0.2,0,0.4,0.1,0.6c0.5,0.9,1.1,1.9,1.5,2.9c-0.3-0.4-0.5-0.8-0.8-1.1
	c-1.2-1.2-1.4-2.3-0.6-4c0.8-1.7,1.3-3.7,0.3-5.6c-0.2-0.5-0.6-0.9-1.1-1.1c-0.3-0.1-0.7,0.2-1,0.3c0.6,1.1,1.3,2,1.5,3
	c0.2,0.8-0.2,1.7-0.6,2.6c0.9-2.2,0.5-3.8-1.7-4.9c-0.9,0.5-1.9,1-2.8,1.5c-0.7,0.4-0.9,1.1-0.7,1.8c0.1,0.4,0.3,0.8,0.6,1.4
	c-0.5-0.5-0.7-0.8-0.9-1c0.2,1.8,0.4,3.6,0.5,5.4c0,0.8-0.2,1.6-0.4,2.4c-0.1,0.8-0.1,0.9,0.5,0.8c1.1-0.1,2.2-0.6,3.3-0.5
	c1,0.1,1.5-0.5,2.2-1c0.3-0.2,0.8-0.1,1.1,0.1c0.8,0.4,1.5,0.6,2.4,0.3c0.9-0.3,2.5,0.6,2.9,1.6c0.6,1.6,0.9,3.2,1.3,4.9
	c0.1,0.2-0.1,0.5-0.1,1c-0.8-1.9-1.4-3.6-2.1-5.2c-0.1,0-0.3,0.1-0.4,0.1c0.2,2.3,0.5,4.7,0.7,7c0,0-0.1,0-0.1,0
	c-0.6-1.6-1.1-3.2-1.7-4.8c-0.4-1.1-0.9-1.4-2.2-1.6c1.1,1.7,2.8,3.1,2.4,5.5c-1-2.9-3.1-4.9-6.4-4.7c-0.7,0.1-1.4,0.7-2.1,1.1
	c-0.5,0.2-1,0.5-1.5,0.7c-0.2,0.1-0.6,0.3-0.6,0.3c0.2,1.3-0.9,2.7,0.6,3.8C36,51.1,36.1,51.6,35.7,52z M11.4,55.5
	c0.9-0.1,1.7-0.2,2.4-0.3c-0.2-1.1-0.4-2.3-0.7-3.6c-0.1,0.3-0.2,0.5-0.4,0.8c-0.2-1.2-0.4-2.2-0.4-3.2c0-1,0.4-1.9,0.6-2.9
	c0,0-0.1,0-0.1,0c-0.1,0.2-0.3,0.4-0.5,0.7c0.1-0.9,0.1-1.6,0.2-2.6c-0.7-0.1-1.5-0.3-2.2-0.2c-1,0.1-1.3,0.6-1.1,1.6
	c0.2,1.2,0.7,2.2,1.7,2.9c0.3,0.3,0.8,0.7,0.8,1C11.6,51.7,12.5,53.6,11.4,55.5z M9.1,50.3c0,1-0.1,2,0,3c0.1,0.9,0.2,1.9,1.5,1.9
	C11.8,53.6,10.9,50.5,9.1,50.3z M7.8,51.8c-0.1,0-0.2,0-0.3,0c-0.5,1.4-0.4,2.8,0.4,4c0.6,1,1.7,0.7,2.7,0.6
	c-0.4-0.4-0.8-0.7-1.3-0.7c-0.8,0-0.8-0.4-0.9-1C8.2,53.7,8,52.8,7.8,51.8z"/>
</svg>
