<?xml version="1.0" encoding="UTF-8"?>
<svg xmlns="http://www.w3.org/2000/svg" version="1.1" viewBox="0 0 100 100">
  <!-- Generator: Adobe Illustrator 28.7.1, SVG Export Plug-In . SVG Version: 1.2.0 Build 142)  -->
  <g>
    <g id="Layer_1">
      <g>
        <path d="M79,85.3c0,.1,0,.2,0,.3,0-.1,0-.2,0-.3Z"/>
        <path d="M94.9,87.3c0-.1-.1-.3-.2-.4-.7-.6-1.5-1.2-2.2-1.8-.1-.1-.3-.3-.4-.4,0,0,0-.1.1-.2.7.4,1.5.8,2.1,1.3.7.5,1.3,1,2,1.6-.1-.4-.8-.6-.4-1.2-.3-.2-.6-.4-.9-.5-3-1.5-6.1-2.8-9.3-3.7-2.8-.8-5.4-2-7.7-3.7-.3-.2-.6-.5-.4-.8.1-.2.6-.4.8-.4.4,0,.9.2,1.3.4,2.4,1.1,5,1.9,7.5,2.6.2,0,.3,0,.5,0,0,0,0,0,0-.1-1.1,0-1.7-.7-2.5-1.3-.3-.3-.8-.5-1.2-.7-.3-.2-.5-.2-.8,0-.2.1-.5.1-.7,0-.3,0-.5-.3-.8-.4-1.4-.8-2.7-1.6-4.1-2.4-.8-.4-1.6-.8-2.4-1.2-.2,0-.3-.3-.6-.5.2,0,.3,0,.3,0,1,.5,2.1,1,3.1,1.6.4.2.8.4,1.4.4-.4-.2-.7-.3-1-.4-.7-.4-1.4-.8-2.1-1.2-.4-.2-.8-.4-1.4-.7.6-.4.6-.8.3-1.4-.3-.5-.7-.7-1.2-.7.3.2.6.4.9.6-.5.1-.9,0-1.2-.3,0,0,0-.3,0-.3-.3-.4-.7-.7-1-1,0,0,0,0,.1-.1,1,.3,2,.6,3,.9,0,0,0,0,0-.1-.3-.1-.7-.2-1-.3.8,0,1.6,0,2.5.1.8,0,1.6.1,2.4.2,0-.1-.1-.2-.2-.2-3.1-.6-6-1.9-8.9-3.4-.7-.3-1.1-.8-1.4-1.5-.2-.4-.4-.9-.7-1.2-.5-.5-.8-1.1-.8-1.9,0-1.6-.7-2.9-2.1-3.8-.9-.6-1.5-1.4-1.9-2.4-.4-.9-.7-1.8-1.1-2.6-.6-1.2-.9-2.4-.8-3.8,0-.3,0-.7-.2-1-.7-1.2-1.2-2.4-1.5-3.7-.2-1.1-.2-2.3-.3-3.4-.1-1.8-.4-3.6-.4-5.4,0-2.6-.3-5.3.6-7.9.5.9,1.1,1.8,1.5,2.7.1.2,0,.6,0,.9,0,.3,0,.6-.1.8,0,.2,0,.4-.2.5-.2.3-.4.6-.5.9,0,0,0,0,.1,0,.1-.2.2-.4.4-.5.2-.1.4,0,.7-.1,0,.2,0,.4,0,.5,0,.2-.2.3-.4.5-.3.5-.3.6.2,1,.1,0,.2.3.2.4,0,0-.2.2-.3.2-.2,0-.4,0-.6,0,.2.1.4.1.5.2.3.1.6.3.8.5.3.3.2.5-.2.6-.4,0-.7.2-1.1.2,0,0,0,0,0,0,.2,0,.5.1.8.2-.6.7-1.5,1.2-1.3,2.4.2-1.1,1.1-1.6,1.9-2.2,0,1.9,0,1.9.7,2.1-.4-.4-.7-.8-.6-1.4,0-.3.4-.5.1-.8,0,0,.2-.1.3-.3,0,.3.1.5.2.7.2,0,.4,0,.4.2,0,.1,0,.3,0,.3.2.2.4.4.6.6-.6.3-.7.7-.3,1.1.2.3.5.5.8.7.3.2.3.4,0,.6,0,0,0,.1-.1.2.2,0,.3,0,.5-.1.2.5.3,1.1.4,1.6-.2,0-.4,0-.5,0,0,.2.1.3.2.5,0,0,.2,0,.4-.1,0,.3.2.6.2.8,0,.2-.2.4-.3.6.1,0,.3,0,.5-.1,0,.3.2.6.2.9,0,.4-.3.8-.4,1.2,0,.2,0,.4,0,.5-.2.2-.4.3-.5.5-.2.3-.4.5-.5.8,0,.2-.1.4-.1.7,0,.4,0,.9-.1,1.3-.5.9,0,1.6.2,2.4.2,0,.4-.2.6-.2,0-.3,0-.6-.1-.9.5,0,.9-.2,1.2-.2.2-.5.4-.8.7-1.3.2.5.3.8.4,1.2,0,0-.2.2-.3.2.2,0,.4,0,.5.2.2.2-.1.9-.5,1.3.2,0,.4.2.4.1.2-.2.4-.5.7-.8.2.5.4,1,.6,1.7-.3,0-.5,0-.8,0,0,.1.1.3.2.4.5.3.9.5,1.4.8-.1-.6-.2-1.1-.4-1.7-.2-.7,0-1.2.3-1.7.6.7,1.3,1.3.4,2.2.6.2.8,0,1.2-1-.3-.5-.7-1-.9-1.5-.2-.4-.4-.7-.8-.8-.3,0-.4-.2-.5-.5-.2-1.2-.4-2.5-.6-3.7,0,0,.2,0,.3,0,0-.1-.2-.2-.2-.3,0-.5-.5-1.1,0-1.6,0,0,0-.4-.2-.5-.2-.4-.4-.8-.6-1.2,0,0,0,0,0,0,.2.1.4.2.6.3,0,0,0,0,0,0l-.7-.5s0,0,0-.1h.8s0,0,0,0c-.1,0-.2-.2-.4-.3.3-.4.2-.8-.2-1.1.2-.2.4-.5.6-.7-.6-.7-.9-1.6-2.1-1.1,0-.7-.1-1.4-.2-2.1.1,0,.3,0,.4,0-.2-.1-.4-.2-.4-.3,0-.5,0-1,0-1.4.1-.4.3-.7,0-1.1-.2-.4,0-.5.4-.5.1,0,.3,0,.6,0-.5-.1-.8-.2-1.2-.3.3-.1.4-.2.5-.2-.4-.3-.7-.6-1.1-.9.3-.2.5-.3.7-.4,0,0,0,0,0-.1-.3.1-.5.3-.8.4-.1,0-.3,0-.4,0-.5-.2-.7-.8-.4-1.3,0-.1.3-.2.5-.3-.2-.2-.8,0-.6-.6.3,0,.6-.2.9-.3-.2,0-.4,0-.6,0-.2,0-.4,0-.6,0,0,0,0-.1,0-.2.3,0,.5-.5.9-.3.1-.1.3-.2.5-.4,0-.1-.1-.2-.2-.3.1-.1.3-.3.5-.5h-1.4c0-.1,0-.3,0-.4.8.2.8-.4.9-.9-.2.2-.4.5-.6.7-.2-.2-.3-.4-.5-.6,0,.3,0,.6-.1.8,0,.2-.2.5-.3.7,0,0,0,0,.1.1-.2,0-.5,0-.7.1v.9c-.2,0-.4-.2-.4-.2,0-.6-.5-.9-.8-1.4,0,0,0,0,0,0,.1,0,.2,0,.4,0,0-.2-.2-.4-.2-.6,0,0,0,0,.1,0,.2.2.3.4.5.7,0,0,0,0,0,0-.2-.4-.3-.9-.5-1.4.2,0,.4,0,.6,0-.4-.3-.7-.5-1-.8,0,0,0,0,0,0,.8,0,1.7.2,2.5.3,0,0-.1-.2-.2-.3.2,0,.4,0,.6.1-.3-.3-.4-.7-1-.7-.4,0-.7-.6-1.1-.9,0,0,0-.1.1-.2.4.1.8.3,1.3.4,0,0,0,0,0,0-.4-.3-.8-.5-1.3-.9.9.3,1.5.8,2.4.7-.7-.3-1.3-.4-1.8-.7-.7-.3-1.1-.8-1.2-1.3.4.2.8.4,1.2.6.1-.6-.4-.4-.6-.7.2,0,.4,0,.6,0,0,0,0,0,0,0-.3-.3-.6-.5-1-.8.3.1.6.2.9.3-.2-.3-.4-.5-.7-.7-.2-.1-.4-.2-.6-.4-.4-.4-.7-.9-1-1.4.3.1.7.3,1.1.4,0,0,0,0,0-.1-.4-.2-.8-.3-1.2-.5-.2,0-.5-.2-.5-.3,0-.2,0-.5.1-.8-.5.1-1,.2-1.7.4.2-.7.8-.7,1.1-.9-.6-.3-1.2-.5-1.8-.8.9-.7,1.9-.9,2.9-.7-.6-.2-1.1-.4-1.6-.3-.8.1-1.7.3-2,1.2,0,.2-.3.3-.6.5,0-.7,0-.8-.5-.6-.1,0-.2,0-.4,0,0-.1,0-.3-.1-.4.2-.3.4-.7.7-1.1-.2,0-.5-.1-.7-.2,0,0,0,.1,0,.2.1.1.2.3.4.4-.2.1-.3.2-.5.4,0-.1-.2-.2-.3-.3,0-.2,0-.3-.3-.5,0,0-.1-.1-.2-.2h1.6c-.7-.5-1.5-.4-2.2-.7.3,0,.6,0,1-.1-.3,0-.4-.2-.5-.2-.5-.1-.9-.2-1.4-.3-.8-.1-.9-.4-.5-1.1.1-.2.3-.3.4-.4.4-.3.6-.8.7-1.3-.2,0-.3,0-.6.1.1-1.1.2-2.2.3-3.2-.4-.2-.3-.6-.2-1,0-.3.2-.7.3-1-.6.3-.4,1-.9,1.6-.2-.8-.2-1.5,0-2.1,0-.2.2-.5.3-.5.5-.2.3-.4,0-.6,0-.1.2-.3.3-.4.1.1.2.2.4.3.2-.4.1-.7-.3-1.2-.2-.3-.5-.6-.1-.9,0,0,0-.2,0-.3,0-.7-.3-1.5.1-2.1,0,0,0-.1,0-.2-.2.1-.3.3-.3.4-.2.7-.4,1.3-.6,2,0,.2-.2.4-.3.6,0,0,.1.2.2.4,0,0,0,0-.1,0,0-.1-.2-.2-.3-.3,0,0-.1,0-.2,0,0,.2,0,.4.2.6.3.3.2.5,0,.8-.5.4-.6.8-.3,1.3-.3.4-.7.7-1,1.1h-.1c0-.4-.1-.8-.2-1.2.3,0,.5,0,.4-.4,0-.2-.2-.4-.3-.7.3,0,.4,0,.4,0,0-.3,0-.6.1-.9,0,0-.1,0-.2-.2,0,0,.2-.1.3-.2-.2-.2-.3-.5-.5-.7,0,0-.2.1-.3.2,0-.8-.1-1.6-.2-2.4-.2.9-.3,1.9-.5,2.8-.3,0-.4,0-.6.1,0,.4,0,1,.3,1.2.4.3.3.4,0,.7,0,0,0,.2,0,.3,0,0,.2,0,.3,0,0,.4,0,.8,0,1.3-.2-.1-.4-.2-.6-.4-.5-.5-.4-1.1-.4-1.7-.2,0-.2.1-.3.2,0-.5-1-.8,0-1.3-.3-.6-.4-.7-.5-.6-.3-1-.4-2.1-.9-2.9,0,.5,0,1.1.1,1.7,0,.4,0,.8,0,1.2,0,0,0,0,.1,0-.3.5-.7.9-.8,1.6.2,0,.4-.1.5-.2,0,.2,0,.4,0,.5,0,.1,0,.3.1.4.6.5.9,1.9.5,2.7-.3-.5-.2-1.2-.9-1.5.3.5.6,1.5.3,1.8-.5.4-.1.8,0,1.2.2.7.2,1.4-.2,2,.3.4.6.8.9,1.1h-.2c-.3-.2-.5-.5-.8-.9,0,1.1,1.3,1.5,1.4,2.6-1.2.3-2.3.6-3.3,1.5.1.1.2.2.3.3.4.2.3.6.2.9,0,.1-.4.2-.7.2-.1,0-.2,0-.3,0-.7-.4-1.4-.8-2.1-1.3.3-.2.5-.3.8-.5-.6-.4-1.1-.5-1.8-.4-.4,0-.8-.1-1.1-.2-.8-.3-1.6-.7-2.4-1,0,0,0,.1,0,.2.4.2.9.3,1.3.5.3.1.5.3.7.6,0,0,0,.3,0,.4-.1,0-.3,0-.4,0-.9-.4-1.8-.9-2.7-1.3-.1,0-.3-.3-.2-.5,0-.3,0-.5-.4-.6-.8-.3-1.6-.5-2.4-.8.2.2.5.4.8.4,1.1.3,1.7,1.1,2,2.2-.2,0-.5,0-.7,0,.6.3,1.2.5,1.8.7.7.2,1.3.3,2,.4.3,0,.5,0,.8.2.1,0,.2.3.2.4-.1,0-.3.2-.4.1-.4,0-.8-.1-1.2-.2-.3,0-.7-.2-1-.2.8.4,1.7.7,2.4,1.4-.2.1-.3.2-.3.3.2.2.3.4.5.7,0,0,0,0-.1,0-.4-.4-1.3-.1-1.6-.9.2-.2.3-.3.5-.6-1.7-.8-3.4-.4-5-.6,0,0,0,0,0,.1.5,0,1,0,1.5.1-.3.6-.7.8-1.2.6-.3-.1-.6-.3-.9-.6-.6-.6-1.2-1.2-1.8-1.8-1.2-1.1-2.6-1.8-4.1-2.4.1.1.3.2.5.3,1.4.7,2.7,1.6,3.7,2.8.2.3.4.6.3,1-.6-.1-1.1-.2-1.6-.3.2.1.4.2.6.3.7.3,1.5.5,2.1.9.9.6,1.7,1,2.7.5,0,0,.1,0,.1,0,.2,0,.4.2.6.2,0,0,0,.1,0,.2h-.6c.3.3.6.6,1,.6.6,0,.7.4,1,.7-.2,0-.4,0-.6-.1,0,.1,0,.2.1.3-.9.2-1.1.1-1.5-.6-.2-.4-.7-.6-1-.3-.3.3-.6.1-.8,0-.2-.1-.5-.2-.7-.3,0,.1-.2.2-.3.3.6,0,1.3.2,1.7.7.4.5.9.7,1.5.6.2,0,.4,0,.5,0,.5.2,1,.4,1.5.6,0,0,0,.1,0,.2-.3-.4-1,.3-1.1-.4-.6,0-1.2,0-1.7,0-.2,0-.4-.1-.6-.2-.5-.3-1-.6-1.4-.9,0,0,0,0,0,.1.4.3.9.5,1.3.8.4.2.8.5,1.2.7.5.2,1.1.4,1.6.6-.7.3-1.2.3-1.7-.2,0,0-.2-.1-.3-.1-.4,0-.8.2-1.3.3.2,0,.3,0,.4,0,.3,0,.6.2.9,0,0,0,.5.4.8.6-.4.3-.6.5-.9.7-.3.2-.3.5-.1.8,0-.2,0-.5.2-.6.4-.3.9-.7,1.4-1,.3-.2.5,0,.7.2.2.3.5.6.8.7.6.2.5.5.4,1-.3-.1-.7-.2-1-.4-.5-.3-.7-.3-1.2,0,.2,0,.5,0,.7,0,.3.2.6.5,1,.8-.8.8-1.8.3-2.7.6.2,0,.4,0,.5,0,.6,0,1.2,0,1.8,0,.3,0,.6.2.9.3-.1.3-.3.5-.4.8,0,0,0,0,0,0,.2,0,.3,0,.6,0-.2.5-.2,1-.4,1.3-.4.6-1,.3-1.6,0,.2.2.3.4.5.7h-.8c0,.2.1.4.2.6-.2,0-.3.1-.5.2.4.5-.1.6-.3.7.1.8-.5,1.1-.7,1.7.2,0,.3-.1.5-.2-.2.7-.4,1.3-.5,1.9,0,0,0,0,.1,0,.1-.3.2-.7.3-1.1.2.4.3.7.5,1,0,0,0,0,.1,0,0-.7,0-1.5,0-2.2,0-.8.7-1.6,1.2-1.6,0,.2,0,.4-.1.6.3-.4.6-.8,1-1.1-.6.8-1.1,1.9-1.6,3.1-.3.7-.4,1.4-.6,2-.1.1-.2.2-.4.3-.3.1-.6,0-1,0,.1.6.3,1.2.5,1.9-.6,0-1.2.1-1.9.2.7.2,1.2.4,1.8.7,0,0,0,.2,0,.3-.4.2-.8.4-1.2.6.2.1.5.3.7.4,0,0,0,0,0,0-.2,0-.3,0-.5,0,0,0,0,0,0,.1.2,0,.5,0,.8.1-.1.5-.3,1.1-.4,1.6,0,0,0,0,0,0,.2-.4.4-.9.6-1.3,0,0,.1,0,.2,0,0,.2,0,.4,0,.6-.1.3-.3.7-.4,1-.3.8-.6,1.7-1,2.5,0,.2-.3.3-.4.4.2.3-.2,1.3-.7,1.5.4.9-.6.6-.7,1-.2-.1-.4-.3-.5-.4-.3-.2-.5,0-.7.2-.3.4-.2,1,.2,1.3.2.2.5.3.8.5,0,0,0,0,0,0,0,.1-.2.2-.3.4.3,0,.5-.1.7-.2.3.7.3,1.3-.3,1.7.2,0,.3-.2.5-.3.2.6-.1,1.8-.6,2.5-.3.4-.4.9-.2,1.3.1.4,0,.6-.3.8-.1,0-.4,0-.6,0-.3,0-.6-.2-.9-.3-1.3-.6-1.9-1.6-1.8-2.9,0-.2-.2-.4-.3-.4-.1,0-.4,0-.5.2-.3.5-.4,1.2,0,1.7.4.7.9,1.3,1.5,1.9.6.7.6.7,0,1.4-.2.2-.5.4-.7.6-.4.3-.7.6-1.1,1-.7.7-1.4,1.4-2.1,2-5.8,4.7-11.6,9.3-17.5,14-1.8,1.5-3.5,3.1-4.9,5,.7-.4,1.3-.7,2-1.2,3.5-2.3,6.8-4.9,10.1-7.5,4.1-3.2,8.2-6.4,12.4-9.5.7-.6,1.7-.9,2.5-1.4.6-.4,1.1-.8,1.7-1.2.9.7,1.7,1.4,2.6,2.1-.9,1-1.8,2-2.7,3-2.5,2.6-5.5,4.4-8.9,5.6-.4.1-.7.4-1,.6-.3.1-.6.2-.8.4-1.3.5-2.6,1-3.9,1.5,0,0,0,.1,0,.2.1,0,.2,0,.4-.1,1.2-.4,2.4-.9,3.6-1.3.4-.2.8-.4,1.3-.5.3-.1.6-.2.7.3-.9.7-1.7,1.5-2.7,2.3.2,0,.3-.2.4-.2.9-.5,1.8-1,2.7-1.5.4-.2,1-.3,1.5-.4.1,0,.3.1.5.2,0,.1-.1.3-.2.4-.3.2-.6.3-.9.5,0,0,.2,0,.3.1-2.9,2-5.8,3.7-9,5.1,0,0,0,0,0,.1.3,0,.5-.1.8-.2,0,0,0,0,0,0-.2,0-.5.2-.7.3,0,0,0,0,0,0,.2,0,.5-.1.8-.2-.2.5-.5.7-.9.8-.3,0-.5.2-.7.3-1.4,1-2.9,2-4.3,3-.1,0-.2.2-.4.3.4,0,.7-.1,1.1-.2,0,0,0,.1,0,.2,0,.2-.2.3-.3.6.1,0,.2.1.5.2-.2.2-.4.4-.5.4-.7.4-1.4.7-2.2,1-.2,0-.5,0-.4.5,0,0-.4.2-.6.3-.9.3-.8.5-.5,1.1.1.3,0,.4-.3.5-.3.1-.7.3-1,.5,0,0-.1.2-.1.2.2.6-.4.7-.5,1.1,0,0-.3.1-.3.2-.1.2-.2.5-.4.9,1.5-1.6,3.2-2.8,5.1-4,0,.6-.1,1-.2,1.4.7-.1,1.3-.3,2.1-.4,0,.5-.2.7-.5.7-.5,0-.9.4-1.2.8-.4.5-.9,1-1.3,1.5.5-.4.9-.8,1.4-1.2,0,0,0,0,.1,0-.5.9-.2,1.8,0,2.7.5,2.6.7,5.1.7,7.7,0,.2,0,.3,0,.5h.1c0-.2,0-.3,0-.5,0-1.7,0-3.5,0-5.2,0-1.1.2-2,1-2.8.4-.3.6-.8.9-1.2.2-.3.4-.5.6-.7.2.1.4.3.7.4,0-.2,0-.4,0-.5-.4-.6-.2-1.1.2-1.6.6-.7,1.1-1.4,1.8-2,1-.9,2.1-1.8,3.2-2.7.2-.2.4-.3.6-.4.2.3.4.6.6,1,0,0,0,.1-.2.2.1,0,.2,0,.5,0-1.7,1.4-3.6,2.3-4.9,4,1.8-1.8,3.9-3,6-4.3-1.4,1.9-3.1,3.6-5.1,5,.4-.3.9-.6,1.3-.8,1.1-.7,2.1-1.5,3.3-1.9.1,0,.3-.2.4-.1.7.1,1.2-.2,1.5-.8.1-.2.4-.2.6-.3.2,0,.5,0,.8,0-.6.6-1.3,1.2-1.9,1.8,1.8-1.1,3.4-2.6,4.9-4.1h.2v20.2h.4c0-.2,0-.3,0-.5,0-5.7,0-11.3,0-17,0-.6,0-1.1,0-1.7,0-.7.2-1,.9-1.3-.2.5-.3.9-.5,1.3,0,0,0,0,.1,0,.6-1.5,1.8-2.5,3.1-3.4.1,0,.2-.1.4,0l-2.1,1.9h0c.2,0,.4-.2.8-.4.3,5,.3,9.9.4,14.8,0-.4,0-.7,0-1.1,0-4.3,0-8.6,0-12.9,0-.7.2-1.3.8-1.7.4-.3.8-.6,1.3-.9,0,0,0,0,.1.1-.2.1-.4.3-.6.4-.1.1-.2.3-.3.4,0,0,0,.2,0,.3-.5.6-.2,1.2-.2,1.8,0,.3,0,.5,0,.8,0,.2-.2.5-.4.7-.3.2-.4.4-.3.9.2-.1.3-.2.5-.4,0,.4-.1.7-.2,1,0,0,0,0,0,0,.3-.7.6-1.4.9-2,0,0,0,0,.1,0,0,.4.2.7.3,1.1,0,.1.2.3.4.3,0,0,.2-.2.3-.3-.5-.4-.8-.8-.5-1.5.1-.2-.1-.6-.2-.9-.2-.6-.2-1,.4-1.4.1,0,.3-.2.5-.3v8.6s0,0,.1,0c0-.2,0-.3,0-.5,0-2.6,0-5.3,0-7.9,0-.3.2-.6.3-.9,0-.2.1-.5.1-.7,0-.4,0-.6.5-.9.3-.2.5-.6.7-.9,0-.1.2-.3.3-.4,0,0,0,0,.1,0,0,.4,0,.9,0,1.3-.3,1.3-.3,2.6-.2,3.9.2,2.6-.2,5.2-.5,7.7-.2,1.4,0,2.8.4,4.2.5,1.4.4,2.9.5,4.3,0,1.3,0,2.7,0,4h.1c0-3.6,0-7.3,0-10.9,0-.6,0-1.2,0-1.8,0-.5.3-1,.5-1.6,0,0,.1,0,.2,0v14.3h.3c0-2.5,0-5,0-7.5,0-.9,0-1.9,0-2.8,0-.1,0-.2,0-.3,0,0,0,0,.1,0,.1,2.5.3,5,.4,7.4,0,0,0,0,0,0,0-.2,0-.3,0-.5.1-2.1.3-4.3.3-6.4,0-1.2,0-2.3,0-3.5-.2-3.4.1-6.8.6-10.2.2-1.1.2-2.2.1-3.4,0-3,.4-5.9,1.1-8.8,0,0,0-.1.2-.2,0,.5,0,.9,0,1.4,0,4.5-.1,9-.2,13.5,0,2.3,0,4.5,0,6.8,0,0,0,.1.1.2,0-.2,0-.4,0-.6,0-1.8,0-3.6,0-5.4,0,0,0-.2,0-.3.6-3.4.2-6.9.5-10.3.2-1.6,0-3.3,0-5,0-.7.2-1.4.3-2.1,0,0,.1,0,.2,0,0,.6,0,1.3,0,1.9,0,.2,0,.4,0,.5.6.9.4,1.9.4,2.9-.2,3.1-.4,6.3-.6,9.4,0,.9-.2,1.8-.2,2.7,0,.1,0,.3,0,.4,0,0,.1,0,.2,0,0-.5.1-1.1.2-1.6,0,0,0,0,0,0,.1.6.3,1.2.3,1.7.1,1.5.2,3,.2,4.5,0,2.9,0,5.9,0,8.8,0,0,0,.2.1.3,0-.3,0-.5,0-.8,0-2.7.1-5.3.2-8,0-.4,0-.9,0-1.3-.3-1.3-.2-2.7,0-4,0,0,0-.2.2-.3,0,.2.2.4.2.6,0,1.1,0,2.1,0,3.2,0,2.4,0,4.9,0,7.3,0,.3,0,.6,0,.9,0,0,.2,0,.2,0v-6.9c0,0,.2,0,.2,0,.4,1.9.8,3.9,1.1,5.8,0,0,0,0,.1,0,0-.2,0-.3,0-.5,0-1.9,0-3.8,0-5.7,0-.4,0-.8.4-1.1,0,.4-.1.7-.1,1.1,0,.2,0,.4.1.5.1.3.3.5.3.7,0,.7,0,1.4,0,2.1,0,.7,0,1.3.2,2,.3,1.1.6,2.2.6,3.4,0,0,0,.2,0,.2,0,0,0,0,.1,0,0-.5,0-1.1-.1-1.6-.1-.7-.4-1.5-.5-2.2,0-1,0-2,0-3,0,0,.1,0,.2,0,.1.6.3,1.2.4,1.8.2,2.3.3,4.7.4,7,0,.2,0,.3.1.5v-7.9c1,1.9.8,3.9,1,6v-4.9s0,0,.1,0c0,.2.1.4.1.5,0,.6.1,1.1.5,1.6.5.7.5,1.5,0,2.2-.5.7-.3,1.5-.3,2.2,0,.1.2.3.3.3,1.1.3,2.2.7,3.4.4.4,0,.9-.3,1.2-.5.8-.5.8-1.1.4-1.9-.5-1-.9-2-.8-3.2,0-.3.2-.5.3-.8,0,0,.1,0,.2,0v3.1s0,0,.1,0c.1-1.2.2-2.5.3-3.7,0,0,0,0,.1,0,0,.7,0,1.3.1,2h.1v-4.5c0,0,.1,0,.2,0,.3,1.4.6,2.8.8,4.3.2,1.4.2,2.9.2,3.9.1-1.3.3-3,.5-4.6,0-.1,0-.2.1-.3.7.9.4,2,.5,3,0,0,0,0,.1,0,0-.6,0-1.1,0-1.7,0-.3,0-.6.4-.7.2-.1.4-.5.5-.7,0-.7,0-1.3.1-2,0-.2,0-.3.1-.5,0,0,.2,0,.2,0v4.4c0,0,.1,0,.2,0,0-.2,0-.3,0-.5,0-1.2,0-2.5,0-3.7,0-.2,0-.4.1-.5,0,0,.1,0,.2,0v3.6c0,0,.1,0,.2,0v-10.1s0,0,0,0c.1.5.4,1,.4,1.6.2,2.6.3,5.1.4,7.7,0,.9,0,1.8,0,2.7,0-1,.2-2,.2-3,0-1.8,0-3.7.1-5.5.1-1.5.4-2.9.6-4.4,0-.1,0-.3.1-.4,0,0,.1,0,.2,0v6.4c0,0,.2,0,.2,0v-7.3c0,0,.1,0,.2,0,.6,6.2.4,12.4.5,18.7,0,0,0,0,.1,0v-14.3s0,0,.1,0c0,.5.1,1.1.2,1.6.1,1.4.2,2.9.3,4.3.1,3,.3,6,.4,9,0,.9,0,1.7,0,2.6h.3c0-1.1,0-2.2,0-3.4,0-2.7,0-5.4,0-8,0-1.2,0-2.3.5-3.4.3-.8.4-1.6.2-2.4-.3-1.1-.5-2.2-.4-3.3,0-.7,0-1.4,0-2.1,0-1.4,0-2.8,0-4.2.3,0,.4,0,.5.4,0,1.2,0,2.3,0,3.5,0,.2,0,.5,0,.7,0,0,.1,0,.2,0v-3.4c.7.5,1,.9,1.1,1.6.1.6.2,1.1.3,1.7,0,.3,0,.6,0,.9,0,.2,0,.5,0,.7.2.4.4.8.5,1.1.2.4,0,.7,0,1.1,0,.2-.2.6-.3.8,0,0,0,0,0,.1.2-.1.4-.3.7-.4.3.4,0,1.1.6,1.4,0,0,0,0,0,0,.1.9.3,1.8.4,2.6,0-.3,0-.7.2-1,.2-.6,0-1.1,0-1.7-.3-1.1-.6-2.3-.8-3.5,0-.3-.1-.7,0-.9.3-.5.2-.8-.1-1.3-.2-.3-.3-.8.2-.9.4.2.8.5,1.2.7-.1,1,.3,2,.6,3,.3,1.1.5,2.2.7,3.4,0-.6,0-1.1.1-1.5,0-.2.2-.4.3-.6.2.1.3.2.6.4-.2-.5-.5-1-.7-1.5-.1-.4.2-1.3.4-1.5.4.6.5,1.2.5,1.9,0,3.2,0,6.5,0,9.7,0,0,0,.1,0,.2,0-.2,0-.3,0-.5,0-2,0-4,0-6,0-.7,0-.8.7-.8.2,0,.5.1.6.3.3.5.5,1,.6,1.5.1.8.2,1.6.2,2.4,0,1.5-.3,3.1-.4,4.6,0,.9.4,2.5,1,3.1,0-.2-.1-.3-.2-.4-.8-1.7-.9-3.3-.1-5.1,0,0,0-.1,0-.2,0-.9,0-1.9.2-2.8.2-1.5-.2-3-.6-4.4,0-.2-.1-.3-.3-.4-.2-.2-.5-.4-.6-.7-.3-.4-.3-1-.7-1.4,0-.1-.1-.3-.2-.5.7.7,1.3,1.3,2,1.9.6.5.8,1.1.8,1.8,0,4,0,8,.1,12,0,.2,0,.4,0,.7,0,0,0,0,.1,0,0-.2,0-.3,0-.5,0-4,0-8.1,0-12.1,0-.2,0-.3,0-.5,0-.4.3-.6.7-.4.3.1.6.4.9.5.5.3.7.6.7,1.2,0,1.2,0,2.5,0,3.7,0,.3,0,.5,0,.8,0,0,0,0,.1,0,0-.8,0-1.7,0-2.5,0-.7,0-1.5,0-2.2,0-.1.1-.3.2-.4,0,0,.2,0,.2.1.2.6.8.9.8,1.6,0-.2.2-.4.5-.4.2,0,.4,0,.6.2.6.4,1.2.8,1.7,1.3,0,0,0,0,0,0-.2-.3-.5-.5-.7-.8.2-.2.4-.2.5-.4,0,0,.1-.2.2-.3-.1,0-.3-.2-.3-.1-.9.2-1.5-.3-2.2-.7.2-.2.4-.4.7-.6-.3,0-.6-.3-.7-.2-.5.2-1,0-1.2-.4-.3-.5-.8-.7-1.3-1-.1,0-.3-.2-.4-.3,0,0,0,0,0,0,.6.2,1.2.3,1.8.5,0,0,0-.1,0-.2-.6-.4-1.1-.7-1.7-1.1-1.1-.6-2.1-1.2-3.2-1.8-.2-.1-.3-.4-.6-.7,1.2,0,2.2,0,3.2.2.2,0,.4.1.5.3.9.7,1.8,1.4,2.3,2.5,0,0,.1.2.3.3v-.6c.5.1,1,.2,1.6.3.4,0,.6.3.6.7,0,.7.1,1.4.2,2.1,0-.6,0-1.1,0-1.7,0-.6.3-.9.9-.7.3,0,.6.2.9.4,1,.5,2,1.1,3.1,1.5.9.4,1.9.8,3,1.2-.1-.2-.2-.4-.3-.5.3,0,.6,0,.8.2,2.5,1.7,4.3,3.8,4.2,7.1,0,1,0,2.1,0,3.1h.2v-4.8c0,0,.1,0,.2,0,.5.5.9,1,1.4,1.5-.7-1.2-1-2.3-.9-3.8ZM68.2,41.3c0,.4,0,.6-.5.8-.3-.5-.6-1-.9-1.4.9,0,1.3.1,1.4.6ZM65.4,52.7c0-.5-.1-1,.3-1.4.2-.2.5-.2.8-.2,0,0,0,.1,0,.2-.3.5-.4,1.2-1.2,1.4ZM65.7,33.8c0,.1-.1.3-.2.4,0,0,0,0-.1-.1.1-.7-.7-.4-.9-.7.6-.1,1.2,0,1.2.4ZM66.6,42.2c-.9-.3-1.7-.6-2.3-1.3.8.5,1.5.9,2.3,1.3ZM62.7,25.6c.5.3,1,.6,1.5.9,0,0,0,.1-.1.2-.5-.3-1-.6-1.5-.9,0,0,0-.2.1-.2ZM36.8,17.2c.7-.7,1.4-.3,1.9,1.1-.7-.5-1-1.2-1.9-1.1ZM38.9,22.3c.4,0,.7.1,1,.2-.3.4-.6.4-1-.2ZM33.5,47.4c-.8-.3-1.1-.6-1.1-1.2.6,0,1.2.5,1.1,1.2ZM12,83.4c-.5.3-.8,1-1.5.8-.1-1.1.8-1,1.5-1.2,0,.1.1.3,0,.4ZM33.6,74.6c0-.6.8-1.4,1.6-1.3,0,.2,0,.5-.1.7,0,0-.2,0-.3,0-.5.6-1.4.8-1.6,1.7,0,.2-.3.4-.5.6-.5.5-1.1.9-1.8,1.1-.2-1.1.1-2.2.5-3.2,0-.1.2-.3.3-.4,1.6-.6,3.2-1.3,4.8-1.9,0,.7-.6,1.2-1.1,1.6-.7-.5-2,.2-2.4,1.3.2,0,.4,0,.5-.1ZM36.3,75.1c-.2.3-.5.6-.7.8,0,0-.1,0-.2-.1.2-.4.4-.7.5-1.1,0,0,.1,0,.2,0,0,.1.2.3.2.4ZM36.6,74.7c0,0-.2,0-.4,0,0-.1,0-.3,0-.3.2-.3.4-.5.6-.8,0,0,.1,0,.2.1-.1.3-.3.6-.4.9ZM39.5,53.2c-1.1,1.6-2.2,3.2-3.3,4.8-.4.5-.9.5-1.4.3-.6-.3-1.2-.7-1.7-1.2-.5-.5-.3-1.3.3-1.7.5.7.6.7,1.4.5.5-.1,1-.4,1.5,0,0,0,.2,0,.3,0,.4-.2.7-.4,1.1-.6,0-.2,0-.5,0-.8,0,0,0-.2-.1-.3,0,0-.2,0-.2.1,0,.7-.5.7-.9,1,0-.4,0-.7,0-1,.6-.3,1.2-.6,1.8-.8,0-.5,0-.9-.1-1.3h-.5c1-.9,2.1-1.7,3.1-2.5-.2,1.3-.6,2.4-1.2,3.4ZM43.8,30.4c-.3,2.7-.4,5.4-1,8.1-.6,2.7-1.3,5.5-1.4,8.3,0,.2,0,.5-.2.6-1.3,1.1-2.6,2.1-3.9,3.2-.5-.5-.5-.6-.2-1.1.1-.2,0-.5.1-.8,0,0-.1,0-.2,0,.2,0,.4-.2.6-.3q0-1-.8-1.1c0,.1,0,.2,0,.4-.4,0-.7-.1-1.1-.2.3-.3,0-.8.5-.7-.3-.4-.2-.9,0-1,0-.5.2-1,.2-1.4.2,0,.4,0,.5,0q-.4-.4.2-1.7h.3c0-.3,0-.5,0-.7.2-.5.5-.9.8-1.4,0,0,.1,0,.2,0,0,.2,0,.4-.2.6-.3.5-.1.9.3,1.3.3.2.4.5.2.8-.1.3-.2.5-.6.6-.2,0-.3.2-.5.3.3,0,.7-.1,1-.3,0,0,.2-.2.2-.3,0-.3.2-.5.3-.9-1-.6-.8-1.4-.3-2.3.2-.3.4-.6.9-.4v6.1s0,0,.1,0c0-2.4,0-4.7.1-7.1,0-.5.2-.7.7-.7.1,0,.2,0,.4,0-.3,0-.6-.2-1-.3.1-.2.2-.4.3-.6.4-.5.4-1,.2-1.6-.1-.4-.3-.8-.4-1.2.2-.5.4-1,.6-1.5.2-.6.4-1.2.5-1.7,0,0,0,0,.1,0,.1.4.2.8.3,1.2,0,0,.1,0,.2,0v-1.5s0,0,.1,0v5.6c.4-2.7-.2-5.5.7-8.1,0,0,.2,0,.2,0v1.8c0,0,.1,0,.2,0v-1.4c0,0,.1,0,.2,0,0,.4.2.8.2,1.3ZM48.2,88.3h-.2c0-.7-.1-1.4-.2-2.1,0,0,.1,0,.2,0,.6.6.1,1.4.2,2.1ZM50.5,83.5c0,.3-.1.7-.2,1.1,0,0,.2,0,.2,0,0,.3-.2.7-.2,1.1,0-.3-.1-.7-.2-1,0-.6,0-.7.4-1.1ZM50.6,88c-.1-.8-.2-1.5-.3-2.3.4.2.4.5.4.9,0,.3,0,.6,0,.9,0,0,0,0,.1,0-.1.2-.2.3-.3.5ZM51.1,9c-.4,0-.8,0-1.2,0,0,0,0,0,0,0h.7v-.6s0,0,.1,0c0,.2,0,.4,0,.6.1,0,.2,0,.3,0,0,0,0,0,0,0ZM52.8,6.9c.2-.2.1-.6.2-.9.2.7-.1,1.2-.6,1.6-.1-.4.2-.5.4-.7ZM57.1,89.6c0,0,0-.2,0-.3,0-.8-.2-1.6-.5-2.4-.1-.3-.4-.7,0-1,0,0,0-.3,0-.4,0,0,0,0,.1,0l.5,4.1c0,0-.1,0-.2,0ZM59.2,18.6c0-.3,0-.5.1-.8.3,0,.6.2,1.1.3-.5.2-.9.3-1.2.4ZM60.9,78.6c-.2.3-.1.7-.2,1.1-.1.8-.2,1.6-.3,2.4-.1,1-.2,2-.3,3,0,0,0-.2,0-.4,0-2.1,0-4.1-.1-6.2,0-.7-.2-1.4-.2-2,0-1.5.1-3,.2-4.6,0,0,.1,0,.2,0v6.8c.3-3.2,0-6.5.6-9.7,0,0,.1,0,.2,0,0,.2,0,.4,0,.6,0,.6-.2,1.1-.3,1.7,0,.5.1,1,.2,1.4.1,1.5.2,3,.3,4.5,0,.5,0,.9-.3,1.3ZM64.1,71.6c.2.5.3.9.4,1.4-.6,0-.7-.4-.4-1.4ZM68.9,76.2c-.2,0-.5-.1-.5-.2-.1-.8-.7-1-1.3-1.2-.5-.2-.5-.6-.4-1.1.9.5,1.7,1,2.6,1.5,0,.1,0,.3,0,.5,0,.2-.2.4-.3.4ZM70.1,79.7s-.2,0-.2,0c-.3-.6-1-1.2-.7-2,0,0,.1,0,.2-.1.2.3.4.7.6,1,.1.3.2.5.3.8,0,0,0,.2,0,.3ZM72.8,83.4c-.3,0-.6,0-1,.1v-1.2c.3.4.6.7,1,1.1Z"/>
      </g>
    </g>
  </g>
</svg>