<?xml version="1.0" encoding="utf-8"?>
<!-- Generator: Adobe Illustrator 27.9.0, SVG Export Plug-In . SVG Version: 6.00 Build 0)  -->
<svg version="1.1" id="Layer_1" xmlns="http://www.w3.org/2000/svg" xmlns:xlink="http://www.w3.org/1999/xlink" x="0px" y="0px"
	 viewBox="0 0 100 100" style="enable-background:new 0 0 100 100;" xml:space="preserve">
<path d="M43,49.8C43,49.8,43,49.8,43,49.8C43,49.8,43,49.8,43,49.8L43,49.8z M80.3,33.8c0,0.1-0.1,0.1-0.2,0.2
	c-0.7,0.3-1.5,0.5-2.1,0.9c-0.8,0.4-1.2,1.2-1.6,1.9c-0.6,1-1.1,2-1.4,3.1c-0.3,1-0.5,2.1-0.8,3.1c-0.3,1-0.5,2.1-1,3
	c-0.5,1.1-1,2.3-1.9,3.2c-0.6,0.6-1.3,1-2.1,1.4c-1.3,0.5-2.3,1.3-3.2,2.3c-0.1,0.1-0.3,0.3-0.5,0.4c0-0.3,0-0.5,0-0.7
	c0-0.2,0-0.5,0-0.7c-0.1-0.3,0-0.4,0.2-0.7c0.9-0.9,2.1-1.4,3.1-2.1c1.7-1.2,3-2.7,3.9-4.6c0.6-1.4,1.1-2.9,1.5-4.4
	c0.3-1,0.8-1.9,1.2-2.9c-0.1,0.1-0.3,0.2-0.5,0.3c-1.9,1.5-3.9,2.9-5.8,4.4c-1.7,1.3-3.5,2.6-5.2,3.9c-0.3,0.2-0.4,0.7-0.1,1.2
	c0.2,0.3,0.3,0.5,0.2,0.9c0,0.1,0.1,0.3,0.2,0.4c0.4,0.3,0.6,0.6,0.6,1.1c0,0.1,0.1,0.2,0.1,0.3c0.5,0.6,0.4,1-0.1,1.6
	c0,0,0,0.1,0,0.1c0,0-0.1,0-0.1,0c-0.2,0.5-0.5,1-1.2,1c-0.1,0-0.2,0.1-0.2,0.2c1-0.1,1.4-0.5,1.5-1.3c0.3-0.1,0.5,0.1,0.6,0.4
	c0,0.4,0,0.8,0,1.3c0,0.2,0,0.3,0.1,0.5c0,0.2,0.1,0.4,0,0.6c-0.2,0.4-0.4,0.9-1,0.9c-0.1,0-0.1,0.1-0.2,0.2
	c-0.2,0.3-0.4,0.7-0.9,0.6c-0.1,0-0.2,0-0.2,0.1c-0.2,0.5-0.7,0.5-1.1,0.6c-0.1,0-0.2,0.1-0.3,0.1c-0.1,0.1-0.2,0.2-0.3,0.2
	c-0.5,0-1,0-1.4,0c0,0,0-0.1,0-0.1c0.2-0.1,0.4-0.3,0.6-0.4c0.5-0.3,1-0.5,1.2-1.1c0.2-0.5,0.2-0.9,0-1.3c-0.1-0.2-0.1-0.4-0.2-0.6
	c0.5,0.1,0.9,0.3,1.2-0.2c-0.1,0-0.3,0.1-0.4,0.2c-0.4,0.2-0.6,0-0.7-0.4c0-0.1-0.1-0.3-0.2-0.4c0.1,0.7-0.3,1.1-0.6,1.6
	c0,0.1-0.1,0.1,0,0.2c0.1,0.3,0,0.4-0.2,0.5c0.2,0,0.4-0.1,0.4-0.3c0.1-0.3,0.1-0.4,0.5-0.5c0.4,0.5,0.2,1.6-0.4,1.9
	c-0.2,0.1-0.4,0.2-0.6,0.3c-0.3,0.2-0.6,0.4-0.8,0.8c-0.8,1.1-1.6,2.2-2.9,2.8c-1,0.5-2,1-3.2,1.2c-0.6,0.1-1.2,0.2-1.8,0.3
	c-0.4,0.1-0.5,0-0.3,0.5c0.7,1.4,1.3,2.9,2,4.3c0.3,0.7,1,1,1.6,1.2c0.8,0.2,1,0.8,1,1.5c0,0.4,0.2,0.8-0.2,1.1
	c-0.4,0.3-0.8,0.4-1.2,0.3c-0.2,0-0.4-0.1-0.7-0.1c-0.9-0.1-1.4,0.4-1.4,1.3c0,0.1,0,0.1-0.1,0.3c-0.3-0.6-0.8-1-0.9-1.6
	c0-0.4,0-0.9,0-1.3c0-0.4,0-0.8-0.2-1.2c-0.6-0.7-0.7-1.6-1.1-2.4c-0.3-0.8-0.6-1.6-1-2.3c-0.1-0.2-0.2-0.4-0.3-0.6
	c-0.2-0.6-0.2-0.6-0.8-0.5c-0.9,0.1-1.8,0.3-2.7,0.4c-0.5,0.1-1,0.1-1.5,0.1c-1.6,0.1-2.9,0.7-4.2,1.7c-0.1,0-0.1,0.1-0.2,0.2
	c-0.4,0.4-0.4,0.6-0.2,1.1c0.1,0.2,0.1,0.5,0,0.6c-0.2,0.2-0.4,0-0.6-0.1c-0.4-0.4-0.6-0.9-0.3-1.4c0.5-0.8,1.1-1.4,1.9-1.7
	c0.9-0.4,1.6-1,2.4-1.5c1.4-1,2.8-2.1,4.2-3.1c0.2-0.2,0.2-0.3,0.1-0.5c-0.3-0.4-0.6-0.8-0.6-1.4c0-0.3-0.2-0.6-0.7-0.7
	c-0.1,0-0.2-0.1-0.2-0.2c-0.1-0.3-0.1-0.5-0.1-0.8c0-0.9-0.4-1.6-1.1-2.2c-0.4-0.3-0.5-0.7-0.6-1.1c-0.1-0.6-0.6-0.9-1.1-1.2
	c0-0.1-0.1-0.1-0.1-0.2c-0.2-0.3-0.2-0.6,0-0.9c0.3-0.6,0.9-1,1.5-1.2c0.7-0.2,1.4,0.2,1.8,1c0.1,0.3,0.7,0.5,1,0.4
	c0.1,0,0.2-0.2,0.2-0.4c0.1-0.4,0.4-0.7,0.7-0.7c0.4,0,0.5,0.2,0.6,0.7c0.1,0.4,0.2,0.6-0.1,1c-0.2,0.2-0.1,0.5,0.2,0.5
	c0-0.2,0.1-0.3,0.1-0.6c0.1,0.1,0.1,0.1,0.1,0.1c0,0.5,0,0.9-0.1,1.4c0,0.3-0.1,0.6-0.3,0.8c-0.5,0.5-0.4,1.1-0.1,1.7
	c0.3,0.6,0.5,1.2,0.6,1.9c0,0.3,0.2,0.6,0.3,0.9c0.7-0.5,1.3-1,1.9-1.4c2.1-1.6,4.2-3.2,6.3-4.8c1.1-0.8,2.1-1.6,3.2-2.4
	c0.1-0.1,0.3-0.2,0.2-0.4c-0.3-0.6-0.3-1.2-0.3-1.8c0.1-0.7-0.1-1.3-0.4-1.9c-0.3-0.5-0.4-1.2-0.5-1.8c-0.2-1-0.4-1.9-0.5-2.9
	c-0.2-1.1-0.4-2.1-0.6-3.2c-0.1-0.3-0.1-0.7-0.2-1c-0.1-0.3-0.1-0.6-0.4-0.9c-0.2-0.2-0.4-0.4-0.5-0.6c-0.2-0.2-0.2-0.6-0.3-1
	c-0.1,0-0.3-0.1-0.4-0.2c-0.3-0.2-0.3-0.6-0.2-0.9c0-0.2,0-0.4-0.2-0.5c-0.2-0.1-0.2-0.3-0.1-0.6c0.3-0.6,0.1-1.1-0.3-1.7
	c-0.7-0.9-1.3-1.9-1.9-2.9c-1-1.6-1.9-3.3-3.2-4.8c-0.4-0.5-0.7-1.2-1.1-1.8c-0.4-0.5-0.8-1-1.2-1.5c-0.1-0.1-0.1-0.2-0.2-0.2
	c-0.5,0.1-0.7-0.3-1.1-0.5c-0.5-0.3-0.6-0.9-0.3-1.3c0.3-0.4,0.5-0.8,0.8-1.2c0.3-0.4,0.7-0.6,1.3-0.6c0.1,0,0.3,0,0.4-0.1
	c0.4-0.2,0.6-0.1,0.9,0.2c0.4,0.4,0.5,0.9,0.5,1.4c-0.2,1.7,0.6,2.9,1.5,4.2c0.6,0.8,1.1,1.6,1.6,2.5c0.4,0.7,0.9,1.3,1.4,2
	c0.5,0.8,1,1.6,1.5,2.3c0.4,0.7,0.9,1.3,1.4,2c0.2,0.2,0.3,0.5,0.4,0.7c0.2,0.4,0.4,0.6,0.8,0.6c0.6,0.1,0.7,0.3,0.6,0.9
	c0,0.3,0,0.6,0,1c0.1-0.1,0.2-0.1,0.3-0.1c0.4-0.1,0.8,0.1,0.8,0.5c0,0.4,0,0.8-0.1,1.1c-0.2,0.6,0,1.1,0.2,1.6
	c0.4,1.4,0.8,2.9,1,4.3c0.2,1.1,0.4,2.2,0.6,3.3c0.2,1.2,0.4,2.4,0.5,3.6c0.1-0.1,0.3-0.2,0.5-0.3c2.7-2,5.4-4.1,8.1-6.1
	c1.2-0.9,2.3-1.7,3.5-2.6c0.4-0.3,0.6-0.7,0.9-1.1c0.7-1.1,1.7-1.7,2.8-2.2c0.3-0.1,0.7-0.1,0.9,0.1C80.2,33.6,80.3,33.8,80.3,33.8z
	 M48.4,60.6c-0.2-0.8-0.5-1.7-0.7-2.6c-1.7,1.3-3.3,2.5-4.9,3.7C44.6,61.4,46.5,61,48.4,60.6z M61.3,47.8C61.1,47.9,61,48,60.9,48
	c-1.9,1.4-3.8,2.8-5.6,4.2c-1.8,1.4-3.7,2.8-5.5,4.2c-0.2,0.1-0.2,0.2-0.1,0.4c0.2,0.5,0.4,1.1,0.6,1.6c0.2,0.6,0.4,1.1,0.6,1.7
	c1.5-0.2,2.9-0.5,4.2-1.1c1.2-0.6,2.4-1.3,3.1-2.5c0.3-0.5,0.8-0.9,1.3-1.2c0.1,0.2,0.2,0.4,0.3,0.6c0.2-0.4,0.4-0.7,0.6-1
	c-0.2,0.1-0.4,0.3-0.6,0.4c0-0.2,0-0.5-0.1-0.7c-0.2-0.3,0-0.4,0.2-0.6c0.4-0.2,0.5-0.6,0.5-1c0-0.4,0.1-0.6,0.4-0.7
	c0-0.2,0-0.3,0-0.5c0-0.1,0-0.3,0.1-0.4C61.6,50.4,61.4,49.2,61.3,47.8z M62.4,46.4c-0.1-1.2-0.3-2.4-0.8-3.6
	c-0.1-0.4-0.2-0.8-0.2-1.2c-0.1-0.4,0-0.8-0.1-1.2c-0.2-0.7-0.4-1.4-0.5-2.1c0,0-0.1,0-0.1,0c0.5,2.8,1,5.6,1.5,8.5
	c0.1,0,0.1,0,0.2,0C62.3,46.7,62.4,46.5,62.4,46.4z M64.3,54.1c0.1,0,0.1,0,0.2,0c0-0.3,0.1-0.6,0.1-0.9c-0.1,0-0.1,0-0.2,0
	C64.4,53.5,64.4,53.8,64.3,54.1z M43,49.8c0.1,0.1,0.2,0.3,0.3,0.4c0.4,0.4,0.7,0.8,0.8,1.4c0,0.2,0.2,0.4,0.3,0.5
	c0.3,0.3,0.3,0.5,0.1,0.8c-0.4,0.5-1,0.7-1.6,0.5c-0.2-0.1-0.5,0-0.8,0c-0.9,0.1-1.8,0.1-2.6-0.6c-0.3-0.3-0.6-0.4-1.1-0.2
	c-0.2,0.1-0.5,0-0.7-0.1c-0.3-0.1-0.5-0.2-0.7,0.1c-0.2,0.2-0.4,0.3-0.7,0.1c-0.6-0.4-1.2-0.3-1.8-0.5c-0.1,0-0.2-0.1-0.3-0.1
	c-0.5-0.4-0.9-0.8-1.4-1.2c-0.5-0.4-0.6-0.8-0.2-1.3c0.2-0.3,0.2-0.5,0-0.8c-0.3-0.4-0.5-0.6-0.9-0.4c-0.6,0.2-1.1,0-1.6-0.3
	c-0.3-0.2-0.4-0.6-0.5-1c-0.1-0.5-0.1-1.1,0.2-1.6c0.2-0.3,0.2-0.7,0.3-1c0.3-0.6,0.9-1,1.5-1.3c0.2-0.1,0.4-0.3,0.6-0.6
	c0.3-0.5,0.7-0.7,1.2-0.9c0.5-0.2,1-0.3,1.6-0.2c0.1,0,0.1,0,0.2,0c0.2,0,0.5-0.2,0.6,0.1c0.2,0.3,0,0.8-0.3,0.9
	c-0.8,0.5-0.7,1.7,0.1,2.2c0.1,0,0.1,0.1,0.2,0.1c0.7,0.3,0.9,0.7,0.5,1.4c-0.6,1.1-0.2,2.1,0.3,3.1c0.1,0.2,0.3,0.3,0.6,0.1
	c0.4-0.4,0.8-0.7,1.1-1.1c0.3-0.4,0.7-0.8,1.2-0.9c0.3-0.1,0.6-0.3,0.6-0.7c0-0.2,0.1-0.3,0.2-0.5c0.1-0.2,0.1-0.4-0.1-0.5
	c-0.2-0.1-0.4-0.3-0.6-0.4c-0.7-0.4-1.1-1.2-0.9-1.9c0.1-0.3,0.1-0.6,0.1-0.8c0.1-0.3,0.2-0.6,0.2-1c0.2-0.2,0.5-0.4,0.7-0.6
	c0.4-0.5,0.9-0.9,1.6-1c0.4-0.1,0.7-0.2,1-0.5c0.6-0.6,1.8-0.4,2.2,0.4c0.1,0.2,0.2,0.5,0.2,0.7c0.1,0.4,0.2,0.7,0.4,1.1
	c0.5,0.9,0.4,1.7-0.2,2.5c-0.2,0.2-0.3,0.4-0.4,0.7c-0.1,0.4-0.3,0.7-0.6,0.9c-0.1,0.1-0.1,0.2,0,0.2c0.5,0.2,1,0.3,1.4,0.5
	c0.9,0.4,1.2,1,1,1.9c0,0.1-0.2,0.1-0.2,0c0,0,0,0,0,0c-0.7-1.1-1.4-1.4-2.7-0.8c-0.6,0.3-1,0.7-1.2,1.3
	C42.4,49.3,42.6,49.7,43,49.8z M42,51.4c-0.1-0.2-0.3-0.5-0.4-0.7c-0.3-0.3-0.6-0.7-1-1c-0.3-0.2-0.8-0.3-1.1,0
	c-0.4,0.3-0.7,0.6-1.1,1c-0.1,0.1-0.1,0.1,0,0.2c0.3,0.2,0.5,0.5,0.8,0.6c0.8,0.2,1.5,0.2,2.3,0.6c0.1,0,0.1,0,0.2,0
	C42,51.9,42.1,51.6,42,51.4z M43,49.8C43,49.8,43,49.8,43,49.8C43,49.8,43,49.8,43,49.8C43,49.8,43,49.8,43,49.8z M46.6,24.6
	C46.6,24.6,46.6,24.6,46.6,24.6C46.6,24.6,46.6,24.6,46.6,24.6L46.6,24.6z M32.5,7.5c-0.3-0.8-0.3-1.7-0.2-2.5
	c0.1-0.9,0.4-1.8,1-2.5C33.7,2,34,1.6,34.4,1.2c1.5-1.3,3.2-1.6,5-0.8c0.6,0.3,1,0.8,1.4,1.3c0.2,0.3,0.5,0.7,0.7,1
	c0.1,0.2,0.2,0.4,0.2,0.6c0,0.1,0.1,0.2,0.1,0.2c0.6,0.3,0.8,0.8,0.9,1.4c0.1,0.5,0,1.1,0,1.6c0,0.2,0.1,0.4,0.1,0.6
	c0,0.7,0,1.3-0.1,2c0,0.1-0.2,0.2-0.2,0.3c-0.1,0.2-0.1,0.4-0.2,0.5c-0.1,0.1-0.3,0-0.5,0c-0.1-0.1-0.1-0.1,0.5-0.5
	c-0.3,0.1-0.5,0.1-0.6,0.1c-0.1,0.2-0.2,0.4-0.3,0.6c-0.1,0-0.2-0.1-0.3-0.1c-0.1,0-0.3,0.1-0.5,0.2c-0.1-0.2-0.1-0.3-0.2-0.5
	c0,0-0.1,0-0.1,0.1c0,0.1,0.1,0.1,0.1,0.2c0,0.1-0.1,0.2-0.1,0.3c-0.1,0.1-0.2,0-0.2,0.1c-0.1,0.2-0.2-0.2-0.4,0
	c-0.1,0.2-0.2-0.1-0.4-0.1c-0.2-0.1-0.4-0.1-0.6-0.2c-0.2,0-0.2,0.1-0.2,0.3c0.1,0.2,0.2,0.3,0.3,0.5c0,0.1,0.1,0.1,0.2,0.1
	c0.3,0.2,0.6,0.4,0.9,0.3c0,0,0.1,0.2,0.2,0.4c0.2,0,0.4-0.1,0.6-0.1c0,0,0-0.1,0-0.1c-0.1,0-0.2,0.1-0.3,0.1
	c-0.1,0-0.2-0.1-0.3-0.2c0.1,0,0.1-0.1,0.2-0.1c0.3-0.1,0.6-0.1,0.9-0.2c0.1,0,0.2,0.1,0.4,0.2c0-0.1,0-0.2,0-0.2
	c0.2-0.2,0.5-0.3,0.7-0.5c0.3,0.5,0.4,1,0.4,1.6c0,0.3-0.1,0.4-0.4,0.4c-0.5-0.1-0.9,0-1.2,0.4c-0.1,0.1-0.3,0.1-0.4,0.1
	c-0.1,0-0.2-0.1-0.3-0.1c0,0,0,0,0,0l0,0l0,0c0,0,0,0,0,0c0,0,0,0,0,0c0,0,0,0,0,0c-0.6-0.3-1.1-0.4-1.7-0.2c-0.3,0.1-0.5,0-0.7-0.3
	c-0.3-0.4-0.6-0.6-1.1-0.7c-1.4-0.3-2.6-1-3.4-2.1C33.1,9.1,32.8,8.3,32.5,7.5z M41.4,7.6c0-0.3-0.1-0.6-0.2-0.8c-0.1,0-0.2,0-0.2,0
	c0,0.3,0,0.6-0.1,0.9C41.1,7.7,41.3,7.9,41.4,7.6z M40.4,5c0,0.1,0,0.1,0,0.2c0,0.4,0.1,0.9,0.5,1.1c0.2,0.1,0.5,0,0.8,0
	c0,0,0,0,0,0c0.4,0,0.5-0.3,0.5-0.6c0.1-0.6-0.5-1.4-1.2-1.6c-0.1,0-0.3,0-0.4,0.1C40.5,4.4,40.4,4.7,40.4,5z M40.2,7.3
	c0,0.2,0.1,0.4,0.1,0.7c0.6-0.3,0.6-1,0.1-1.4C40.4,6.8,40.8,7.2,40.2,7.3z M36.9,7.4c0.3,0.1,0.7,0.3,1.1,0
	c0.1-0.1,0.3-0.3,0.4-0.3c0.5,0,0.8-0.4,1-0.7c0.1-0.1,0.1-0.2,0.1-0.3c-0.1-0.6-0.8-0.9-1.3-0.6c-0.2,0.1-0.5,0.3-0.7,0.3
	c-0.6,0.1-0.9,0.5-0.9,1.1C36.5,7.1,36.6,7.3,36.9,7.4z M73.1,94.7c0.3,0.3,0.7,0.6,0.8,1.2c-0.2,0-0.3,0-0.4-0.1
	c-0.7-0.2-1.3-0.4-2-0.6c-0.2-0.1-0.3-0.2-0.4-0.3c-0.3-0.3-0.7-0.6-1.2-0.6c-0.1,0-0.3-0.1-0.4-0.2c-0.6-0.3-0.9-1-1.6-1.2
	c-0.2,0-0.4,0-0.6,0c0.3,0.6,0.7,0.8,1.3,1c0.1,0,0.2,0.1,0.3,0.1c0.3,0.5,0.8,0.7,1.3,0.8c0.6,0.2,1.1,0.5,1.5,1c0,0,0,0.1,0.1,0.2
	c-0.7-0.1-1.4-0.1-1.9-0.6c-0.1-0.1-0.3-0.2-0.5-0.3c-0.4-0.1-0.8-0.2-1.1-0.2c-0.1,0-0.2-0.1-0.2-0.2c-0.4-0.6-0.9-1-1.7-1.1
	c-0.3,0-0.4-0.3-0.4-0.6c-0.4,0.1-0.6,0-0.5-0.4c-0.5,0-0.6-0.3-0.7-0.9c-0.1-0.4-0.2-0.9-0.6-1.1c0,0-0.1,0-0.1,0
	c0.2,0.3,0.4,0.6,0.5,0.9c0.1,0.2,0,0.5,0,0.7c0,0-0.1,0.1-0.2,0.1c-0.3-0.1-0.5-0.3-0.8-0.4c0,0,0-0.1,0-0.1
	c0.1-0.4-0.2-0.7-0.4-1.1c-0.2-0.3,0-0.4,0.3-0.4c0-0.2,0-0.5,0-0.6c-0.3-0.4-0.7-0.6-0.9-1c-0.1-0.2-0.2-0.5-0.2-0.8
	c0-0.7-0.1-1.4-0.6-2c-0.3-0.4-0.4-0.8-0.6-1.2c-0.9-1.5-1.8-3-2.7-4.5c-0.3-0.4-0.4-0.9-0.7-1.3c-0.5-0.7-1-1.4-1.5-2
	c-0.3-0.4-0.6-0.7-0.7-1.2c-0.1-0.7-0.6-1-1-1.4c-0.2-0.3-0.5-0.5-0.7-0.8c-0.1-0.1-0.1-0.3-0.1-0.5c0.5,0.2,0.9,0.1,1.3-0.2
	c0.3-0.2,0.5-0.4,0.4-0.7c0-0.3,0.1-0.5,0.1-0.8c0-0.1,0-0.2,0-0.3c-0.2-0.3-0.1-0.5,0.1-0.7c0.2-0.1,0.6-0.1,0.7,0
	c0.3,0.3,0.7,0.4,1.1,0.5c0.3,0.1,0.5,0.2,0.4,0.5c-0.1,0.9,0.4,1.5,0.8,2.2c0.7,1.2,1.5,2.4,2.2,3.6c0.2,0.3,0.2,0.7,0.4,1
	c0.4,0.7,0.8,1.4,1.3,2c0.7,1,1.2,2.2,1.4,3.4c0.1,0.9,0.6,1.7,1.1,2.4c0.3,0.4,0.6,0.7,0.8,1.1c0.3,0.4,0.3,0.9-0.1,1.2
	c-0.1,0.1-0.1,0.2-0.2,0.2c0.2-0.1,0.3,0,0.5,0.1c0.9,0.4,1.4,1.2,2.1,1.8c0.1,0.1,0.2,0.3,0.3,0.5c0,0-0.1,0.1-0.1,0.2
	c-0.1,0.1-0.2,0.1-0.4,0.1c0.2,0.1,0.4,0.2,0.5,0.3c0.1,0.1,0.3,0.1,0.4,0.2c0.3,0.4,0.6,0.5,1.1,0.6c0,0,0,0,0.1,0
	C71.1,93.4,72.2,93.9,73.1,94.7z M63.8,85.1c0-0.1,0-0.2,0-0.3c-0.2-0.4-0.3-0.8-0.5-1.2c-0.4-0.9-0.8-1.8-1.3-2.7
	c-0.6-0.9-1-1.9-1.4-2.9c-0.3-0.8-0.7-1.6-1.1-2.3c-0.3-0.6-0.8-1.1-1.2-1.6c-0.2-0.3-0.4-0.7-0.6-1c0,0-0.1,0-0.1,0
	c0,0.1,0,0.1,0,0.2c0,0.1,0,0.2,0,0.2c0.2,1.1,0.7,2,1.4,3c0.7,1,1.2,2,1.6,3.1c0.2,0.6,0.6,1.2,1,1.8c0.4,0.7,0.9,1.3,1.3,2
	C63.2,84,63.5,84.6,63.8,85.1C63.8,85.1,63.8,85.1,63.8,85.1z M65.8,88.9c0.1,0.2,0.2,0.3,0.3,0.5c0,0.3,0.2,0.3,0.4,0.4
	c0.1,0,0.3,0.1,0.4,0.1c-0.1-0.1-0.1-0.2-0.2-0.2c-0.3-0.1-0.4-0.2-0.5-0.5C66.1,89,65.9,89,65.8,88.9z M65.8,88.6
	c-0.2,0-0.3,0-0.5,0c0-0.2,0.1-0.3,0.1-0.5c0,0,0-0.1,0-0.1c-0.2,0.3-0.4,0.7-0.4,1c0,0.3-0.1,0.6-0.5,0.6c0.2,0,0.4,0.1,0.4,0
	c0.1-0.3,0.2-0.5,0.3-0.8C65.5,88.8,65.6,88.7,65.8,88.6z M67.1,91c-0.6-0.6-1.3,0.1-1.4,1.1c0.4,0,0.2-0.3,0.3-0.4
	C66.3,91.5,66.4,90.8,67.1,91z M67.5,91.8c-0.1,0.2-0.2,0.3-0.3,0.5c-0.1,0.3-0.3,0.4-0.6,0.4c-0.1,0-0.2,0.1-0.3,0.1
	C67.1,92.9,67.4,92.4,67.5,91.8z M67.5,90.7c-0.1-0.2-0.1-0.5-0.3-0.7c0-0.1-0.2-0.1-0.3-0.1c0.5,0.2,0.3,0.7,0.4,1
	C67.4,90.9,67.5,90.8,67.5,90.7z M69.3,92.8c-0.4-0.3-0.8-0.5-1.3-0.8C68.1,92.6,68.7,93,69.3,92.8z M71.7,94.3
	c-0.5-0.5-1-0.9-1.6-1C70.5,93.7,70.9,94.2,71.7,94.3z M26.1,71.6c0-0.1,0-0.2,0-0.3c-0.2-0.3-0.4-0.5-0.5-0.8
	c-0.1-0.1-0.1-0.3-0.1-0.4c0,0,0.1-0.1,0.1-0.1c0.3,0.2,0.6,0.4,0.9,0.6c0.4,0.4,0.4,0.5,0.1,1c-0.2,0.2-0.1,0.5,0,0.7
	c0.2,0.3,0.1,0.6-0.2,0.8c-0.3,0.3-0.6,0.4-0.9,0.2c-0.1-0.1-0.3-0.1-0.4-0.1c0,0,0,0.1,0,0.1c0.2,0.1,0.5,0.3,0.7,0.4
	c0.5,0.1,1.2-0.7,1.1-1.2c-0.2-0.6-0.1-0.8,0.5-1.3c0.4-0.3,0.8-0.4,1.2-0.1c0.1,0.1,0.3,0.2,0.4,0.2c0.5,0.3,0.6,0.8,0.3,1.4
	c-0.7,1.2-1,2.5-0.8,3.9c0.3,1.6,0.4,3.3,0.7,5c0.1,0.8,0.4,1.6,0.6,2.4c0.2,1.1,0.3,2.1,0.5,3.2c0,0.1-0.1,0.3-0.1,0.4
	c-0.2,0.3-0.3,0.7,0,0.9c0.6,0.6,0.6,1.4,0.8,2.1c0.2,0.7,0.3,1.5,0.5,2.3c0.1,0.5,0.5,0.9,0.7,1.4c0.1,0.1,0.2,0.3,0.2,0.5
	c0,0.1,0,0.3-0.1,0.4c-0.3,0.2-0.5,0.5-0.8,0.7c-0.4,0.2-0.9,0.2-1.3-0.1c-0.3-0.3-0.6-0.4-1-0.2c-0.3,0.1-0.5,0-0.4-0.3
	c0-0.3,0.1-0.6,0.2-1c0.1-0.4,0.2-0.8,0.1-1.2c0-0.5-0.1-1-0.2-1.5c0-0.1,0.1-0.3,0.1-0.4c0-0.1,0-0.2,0-0.2
	c-0.4-0.1-0.3-0.4-0.4-0.7c-0.1-0.2-0.1-0.4-0.1-0.7c0.1,0.2,0.2,0.3,0.4,0.5c0-0.2,0.1-0.3,0-0.4c-0.1-0.2-0.2-0.4,0.1-0.6
	c0.1,0,0.1-0.2,0.1-0.2c-0.1,0-0.2,0-0.2,0c-0.2,0.1-0.3,0.2-0.5,0.4c0-0.2-0.1-0.4-0.1-0.6c-0.1-0.9-0.2-1.8-0.4-2.7
	c-0.2-0.9-0.3-1.7-0.6-2.6c-0.3-1.1-0.6-2.2-0.7-3.3c0-0.3-0.1-0.5-0.2-0.8c-0.3-0.7-0.4-1.5-0.5-2.3c0-0.2-0.1-0.4-0.2-0.6
	c-0.3-0.5-0.4-0.9-0.4-1.4c0.1-0.5-0.1-0.9-0.5-1.3c-0.1-0.1-0.2-0.3-0.3-0.4c0.2,0,0.2,0,0.3,0c-0.1-0.1-0.1-0.2-0.2-0.3
	c0.5-0.1,1-0.2,1-0.8c-0.1-0.1-0.1-0.1-0.2-0.2c0,0.1,0,0.2-0.1,0.3c-0.1,0.1-0.2,0.3-0.3,0.3c-0.1,0-0.3,0-0.4,0
	c0-0.1,0-0.3,0.1-0.4c0.2-0.2,0.4-0.4,0.7-0.6c-0.3-0.2-0.5-0.4-0.9-0.7c0.2-0.2,0.4-0.4,0.6-0.6c0.3,0.5,0.6,1,0.9,1.5
	C25.9,71.5,26,71.6,26.1,71.6z M29.5,90c0.1,0,0.2,0,0.2,0c0.5-0.3,0.6-0.6,0-1.2c0,0.2-0.1,0.3,0,0.4c0.2,0.2,0.2,0.4-0.1,0.6
	C29.5,89.8,29.6,89.9,29.5,90z M35.1,52.8c0.2,0.3-0.1,0.4-0.3,0.5c-0.3,0.2-0.5,0.3-0.4,0.7c0,0.4-0.2,0.6-0.5,0.6
	c-0.7,0.1-0.9,0.6-1.2,1.1c-0.5,0.9-0.7,1.9-1.1,2.9c-0.2,0.5-0.4,1.1-0.6,1.6c-0.5,0.9-0.7,1.8-1,2.8c-0.4,1.3-0.8,2.7-1.1,4
	c0,0.1,0,0.3,0,0.4c-0.2,0.1-0.4,0.1-0.5,0.2c-0.1,0.1-0.1,0.4,0,0.6c0.1,0.2,0.2,0.4,0.5,0.4c-0.2-0.7-0.2-0.7,0.1-0.8
	c0.2,0.4,0.4,0.7,0.7,1.1c0.3,0.5,0.2,1.2,0.2,1.7c0,0.1-0.3,0.3-0.4,0.3c-0.5,0-1-0.1-1.5-0.1c0-0.2,0-0.3,0-0.4
	c0-0.4-0.3-0.7-0.7-0.6c-0.1,0-0.2,0.1-0.3,0.1c-0.1,0-0.4-0.1-0.4-0.1c0-0.1,0-0.3,0.1-0.4c0.1-0.1,0.2-0.1,0.4-0.2
	c-0.1-0.1-0.2-0.2-0.2-0.2c-0.2,0.1-0.5,0.3-0.6,0.5c-0.1,0.1,0,0.4,0.1,0.6c0.1,0.2,0.4,0.3,0.6,0.2c0.1,0,0.1,0,0.2-0.1
	c0.2-0.1,0.5-0.2,0.6,0.1c0.1,0.3-0.1,0.4-0.3,0.5c-0.2,0-0.4,0.1-0.6,0c-0.3-0.3-0.8-0.5-1-0.9c0,0-0.1,0-0.1-0.1c0,0-0.1,0-0.1,0
	c-0.2,0-0.4,0.1-0.7,0.1c0-0.2-0.1-0.4,0-0.6c0.2-0.6,0.3-1.2,0.9-1.6c0.7-0.5,0.9-1.4,1-2.2c0.1-0.4,0.2-0.8,0.4-1.1
	c0.4-0.5,0.5-1,0.6-1.6c0.3-1.1,0.6-2.1,0.9-3.1c0.2-0.8,0.5-1.5,0.8-2.2c0.3-0.8,0.6-1.6,1-2.4c0.3-0.7,0.4-1.4-0.1-2.1
	c-0.2-0.3-0.1-0.7,0-1c0.1-0.2,0.2-0.4,0.3-0.6c0.1-0.4,0.5-0.6,0.9-0.6c0.2,0,0.3,0.1,0.3,0.3c-0.1,0.3-0.2,0.6-0.2,0.9
	c0,0.6,0.5,0.9,0.9,1.2c0.5,0.2,0.9,0.3,1.4-0.1c0,0,0,0,0,0c0,0,0,0,0,0c0,0,0,0,0,0c0,0,0,0,0,0l0,0c0.2-0.1,0.4-0.2,0.5-0.3
	C34.7,52.5,35,52.5,35.1,52.8z M28.2,69.2c-0.2-0.1-0.3-0.3-0.4-0.5c-0.1-0.1-0.2-0.3,0-0.4c0,0,0-0.2,0-0.2c-0.1,0-0.2,0-0.2,0
	c-0.2,0.2-0.3,0-0.4-0.1c-0.1-0.1-0.1-0.2-0.2-0.3c0,0-0.1,0-0.1,0c0.1,0.3,0.2,0.6,0.4,0.9c0.1,0.2,0.4,0.3,0.5,0.4
	c0.2,0.2,0.3,0.4,0.5,0.6c0.3,0.2,0.5,0.2,0.8-0.1c-0.1,0-0.2,0-0.3-0.1C28.6,69.4,28.3,69.3,28.2,69.2z M24.4,33.4
	c-0.4-0.3-0.4-0.7,0-1c0.7-0.6,0.6-1.4,0.6-2.2c0-0.4,0-0.8,0.1-1.2c0.1-0.3,0.2-0.5,0.4-0.7c0-0.1,0.2,0,0.3-0.1
	c0.1,0,0.1-0.1,0.2-0.2c-0.1-0.1-0.1-0.1-0.2-0.1c-0.2,0-0.3,0.1-0.5,0.1c0-0.7,0-1.3,0.3-1.9c0.2-0.4,0.3-0.9,0.4-1.4
	c0.2-1.1,0.4-2.2,0.7-3.2c0.2-0.7,0.3-1.3,0.4-2c0.1-0.5,0.3-0.9,0.5-1.3c0.2-0.5,0.4-0.9,0.1-1.4c-0.2-0.5-0.1-0.6,0.5-1l0,0
	c0.6,0.1,1.3,0.2,1.7,0.7c0,0.1,0.1,0.1,0.2,0.1c0.5,0.3,0.5,0.3,0.2,0.8c-0.2,0.4-0.5,0.7-0.6,1.1c-0.3,0.7-0.5,1.4-0.6,2.1
	c-0.2,0.8-0.4,1.6-0.6,2.4c-0.4,1.5-0.9,3-1.3,4.5c-0.3,1.1-0.4,2.2-0.6,3.3c0,0.2,0,0.4,0,0.7c0,0,0.1,0,0.1-0.1
	c0-0.6,0.2-1.1,0.8-1.5c0.6-0.5,1-1.2,1.3-1.9c0.3-0.8,0.7-1.5,1-2.3c0.1-0.3,0.2-0.6,0.3-0.9c0-0.1,0.1-0.1,0.1-0.2
	c0,0,0.1,0,0.1,0.1c0,0.8,0,1.7,0,2.5c0,0.6,0,1.2-0.1,1.7c0,0.3-0.2,0.6-0.4,0.8c-0.2,0.3-0.5,0.6-0.8,0.9
	c-0.5,0.5-0.6,1.1-0.7,1.7c-0.1,0.6-0.2,1.2-0.3,1.9c0,0.1-0.2,0.3-0.3,0.3c-0.1,0-0.3,0-0.4-0.1c-0.2-0.4-0.4-0.8-0.6-1.2
	c0-0.1,0.1-0.3,0.2-0.5c0.3-0.5,0.3-0.5-0.2-0.9c0,0.1,0,0.1,0,0.1c0.2,0.3,0.2,0.6,0,0.8c-0.2,0.3-0.1,0.6,0.1,0.9
	c0.1,0.1,0.1,0.2,0.2,0.3c0.1,0.3,0.1,0.7-0.1,0.9c-0.3,0.2-0.6,0.4-1,0.2c-0.3-0.1-0.6-0.2-0.9-0.4c-0.3-0.2-0.4-0.5-0.2-0.9
	C24.6,33.8,24.6,33.6,24.4,33.4z M25.7,29.5c0.1,0,0.1,0.1,0.2,0.1c0.3,0.1,0.6-0.2,0.6-0.6c0,0-0.1-0.1-0.1-0.2
	c0,0.1-0.1,0.2-0.1,0.2c0,0.2-0.2,0.3-0.3,0.3C25.8,29.3,25.7,29.4,25.7,29.5z M42.7,14c0.5-0.2,0.7,0.1,1,0.2
	c0.2,0.1,0.3,0.1,0.4,0c0.4-0.4,0.8-0.6,1.4-0.6c0.1,0,0.3-0.1,0.4-0.1c0.3-0.1,0.7-0.2,1-0.2c0.4,0,0.7,0.3,0.7,0.6
	c0,0.3-0.3,0.7-0.6,0.8c-0.1,0-0.3,0-0.4,0c-0.7-0.2-1.3,0-1.9,0.4c0.1,0.3,0.2,0.7,0.3,1c0.1,0.6,0,1.2-0.5,1.6
	c-0.7,0.6-1.3,1.2-2.1,1.6c-0.8,0.5-1.8,0.5-2.8,0.4c-0.3,0-0.6,0-0.9-0.1c0.1-0.2,0.1-0.5,0.2-0.7c0-0.1,0.2-0.1,0.3-0.1
	c0.3,0,0.5,0,0.8,0c0.2,0,0.5-0.1,0.7-0.1c0.7,0.2,1.2-0.1,1.8-0.5c0.6-0.4,1.2-0.9,1.4-1.7c0-0.2,0.1-0.3,0.1-0.5
	c0-0.2-0.1-0.3-0.1-0.5c-0.2,0.1-0.4,0.2-0.5,0.4c-0.3,0.4-0.5,0.9-1,1.1c-0.6,0.3-1.1,0.5-1.7,0.8c0.3,0,0.5-0.1,0.8-0.1
	c0.1,0,0.3,0.1,0.3,0.1c0,0.2,0.3,0.4,0,0.6c-0.2,0.1-0.4,0.2-0.5,0.2c-0.5,0-0.9,0-1.4,0c0-0.2,0-0.4,0-0.6c-0.2,0-0.4,0.1-0.7,0.2
	c0.2-0.4,0.8-0.4,0.7-0.9c0.2-0.2,0.4-0.3,0.6-0.5c-0.2-0.2-0.3-0.4-0.5-0.6c0.8-0.3,1.6-0.6,2.5-1c-0.2-0.3-0.5-0.4-0.7-0.4
	c-0.4,0-0.5-0.1-0.4-0.4c0-0.1,0-0.3-0.1-0.4c0-0.4,0.1-0.5,0.4-0.4c0.7,0.1,1.1,0.5,1.5,1.1c0.1-0.1,0.1-0.1,0.2-0.1
	C43.1,14.4,42.9,14.2,42.7,14z M42.1,16.4c0,0,0-0.1-0.1-0.1c-0.3,0.2-0.7,0.3-1,0.5c0,0.1,0.1,0.1,0.1,0.2
	C41.5,16.7,41.8,16.5,42.1,16.4z M38.9,40.3c-0.1,0.2-0.3,0.2-0.5,0.4c-0.4,0-0.9,0-1.3,0c-0.6,0-0.9-0.4-1-1c0-0.3-0.3-0.6-0.5-0.9
	c-0.1-0.1-0.2-0.2-0.2-0.4c0-0.1,0.1-0.3,0.2-0.3c0.1,0,0.2,0,0.3,0.1c0.1,0.1,0.2,0.2,0.4,0.2c0-0.2-0.1-0.3-0.1-0.5
	c0-0.1,0-0.3,0-0.4c0-0.1-0.1-0.3-0.1-0.4c0-0.1-0.1-0.3,0-0.4c0-0.1,0.2-0.1,0.3-0.1c0.1,0.1,0.2,0.2,0.2,0.3
	c0.1,0.1,0.1,0.3,0.1,0.4c0,0,0,0,0,0c0,0,0,0,0,0l0,0c0.1,0.1,0.1,0.3,0.2,0.3c0.5,0.2,0.9,0.5,1.5,0.1c0,0,0.1,0,0.1,0
	c0.5-0.1,1-0.1,1.1-0.7c0.1,0.1,0.2,0.1,0.2,0.1c0.3-0.3,0.5-0.6,0.8-0.8c0.3-0.2,0.7-0.4,1.1-0.6c0.6-0.3,1.2-0.6,1.7-1.2
	c-0.2,0.1-0.3,0.1-0.4,0.2c-0.5,0.2-1,0.5-1.5,0.7c-0.5,0.2-1.1,0.4-1.6,0.6c0,0.1,0.1,0.2,0.1,0.2c-0.2,0.4-0.4,0.8-0.7,1.2
	c0,0.1-0.1,0.1-0.2,0.1c-0.3,0.1-0.6,0.1-0.9,0.2c-0.6,0.2-1.1,0-1.6-0.4c0-0.3,0.1-0.6,0.1-0.9c0-0.2-0.1-0.3-0.1-0.5
	c0-0.1,0-0.3,0-0.4c0-0.1,0.2-0.1,0.3,0c0.4,0.1,0.7,0.4,1,0.4c0.6,0.1,1.1,0.3,1.7,0.1c0,0,0.1-0.1,0.1-0.1c-0.3,0-0.6,0-0.9,0
	c-0.2,0-0.4-0.1-0.4-0.3c0-0.2,0-0.5,0.3-0.5c0.9-0.2,1.9-0.4,2.8-0.7c1.1-0.3,1.9-1,2.5-2c0.2-0.3,0.3-0.5,0.4-0.8
	c0,0-0.1,0-0.1,0.1c-0.9,1-2,1.6-3.3,2c-0.9,0.3-1.9,0.4-2.9,0.3c-0.3,0-0.5-0.1-0.6-0.4c0-0.3,0.2-0.4,0.5-0.5
	c0.6,0,1.1-0.1,1.7-0.1c0.1,0,0.2-0.1,0.4-0.1c0,0,0,0,0,0c0,0,0,0,0,0c0,0,0,0,0,0c0,0,0,0,0,0l0,0c0.5,0,1-0.1,1.4-0.4
	c0.7-0.4,1.4-0.8,2.1-1.3c0.3-0.2,0.5-0.7,0.8-1c0.1-0.1,0.2-0.3,0.3-0.4c0,0,0,0-0.1-0.1c-0.4,0.4-0.8,0.7-1.3,1.1
	c-0.6,0.5-1.3,0.7-2,0.9c-0.9,0.2-1.8,0.2-2.7,0c-0.3,0-0.6,0-1,0c0,0.5-0.3,0.6-0.7,0.7c-0.8,0.2-1.4,0.6-1.6,1.5
	c0,0.2-0.1,0.3-0.2,0.5c-0.1,0.1-0.3,0.3-0.3,0.2c-0.1-0.1-0.3-0.3-0.3-0.4c0-0.3,0.2-0.5,0.3-0.8c0.1-0.3,0.3-0.6,0.4-0.9
	c0.2-0.5,0.6-0.6,1-0.8c0.1-0.1,0.3-0.1,0.4-0.2c-0.2-0.2-0.5-0.4-0.7-0.7c-0.6,0.3-1.2,0.6-1.5,1.2c-0.1,0.2-0.2,0.5-0.3,0.7
	c-0.1,0.1-0.1,0.3-0.2,0.3c-0.1,0.1-0.3,0.1-0.4,0c-0.1,0-0.1-0.2-0.1-0.3c0.2-0.5,0.3-1.1,0.6-1.6c0.2-0.5,0.7-0.8,1.2-1.1
	c0.1-0.1,0.3-0.1,0.4-0.2c0.1-0.1,0.2-0.3,0.2-0.4c-0.1-0.3-0.2-0.5-0.3-0.7c0,0-0.2-0.1-0.3-0.1c-0.8,0.1-1.2,0.6-1.4,1.3
	c-0.1,0.3-0.2,0.7-0.3,1c0,0.1-0.2,0.1-0.3,0.2c0-0.1-0.1-0.2-0.1-0.3c0-0.4-0.1-0.9,0-1.3c0.1-0.8,0.8-1.2,1.5-1.5
	c0.2-0.1,0.5-0.2,0.7-0.2c0.1-0.2,0.2-0.4,0.2-0.6c0,0,0,0,0-0.1c-0.3,0.3-0.6,0.5-0.9,0.8c-0.1-0.1-0.2-0.2-0.3-0.4
	c0-0.1-0.1-0.3,0-0.4c0.3-0.4,0.3-0.4,0.1-0.8c-0.2,0.2-0.4,0.4-0.6,0.6c-0.1,0.1-0.2,0.2-0.3,0.3c-0.4,0.5-0.8,1-1.2,1.5
	c0.1,0,0.2-0.1,0.3-0.1c-0.1,0.3-0.2,0.6-0.3,0.9c-0.2,0.5-0.2,0.9,0.3,1.2c0.1,0.1,0.1,0.2,0.1,0.3c-0.1,0-0.3,0.1-0.4,0.1
	c-0.5-0.1-0.9-0.5-0.9-1c0-0.3-0.1-0.6,0.2-0.8c-0.1,0-0.3,0-0.4,0c-0.6,0-1-0.3-1-1c0-0.6,0-1.2,0.3-1.8c-0.3-0.2-0.3-0.5-0.3-0.9
	c0-0.4,0.1-0.9,0.1-1.3c0-0.1,0.1-0.3,0.1-0.4c0.1-0.1,0.2-0.1,0.4-0.2c0.1,0.1,0.2,0.3,0.2,0.4c0,0.2-0.1,0.5-0.1,0.7
	c-0.1,0.3,0,0.5,0.3,0.7c0.3,0.1,0.5,0,0.7-0.2c0.3-0.3,0.6-0.5,1.1-0.6c0.3-0.1,0.7-0.4,1-0.6c0.2-0.2,0.2-0.3,0.7-0.2
	c-0.1,0.3-0.2,0.5-0.3,0.7c0,0,0.1,0,0.1,0c0.2-0.4,0.4-0.7,0.4-1.2c0-0.2,0.2-0.4,0.3-0.7c0.1-0.2,0.2-0.3,0.1-0.5
	c0-0.4,0-0.8,0.2-1.2c0-0.1,0-0.1,0-0.2l0,0c0,0,0,0,0,0c0,0,0,0,0,0c0,0,0,0,0,0c0,0,0,0,0,0c0.1-0.1,0.1-0.2,0.2-0.3
	c0.1-0.2,0.2-0.4,0.3-0.7c0-0.1-0.1-0.2-0.1-0.4c0,0,0.1,0,0.1,0c0.1,0.1,0.2,0.2,0.3,0.3c0,0,0.1,0,0.1-0.1
	c-0.1-0.1-0.1-0.3-0.2-0.4c-0.2-0.2-0.1-0.4,0.1-0.5c0.2,0.2,0.3,0.6,0.7,0.4c0.1-0.1,0.2-0.3,0.2-0.4c0-0.3-0.4-0.6-0.6-0.6
	c-0.3,0-0.4,0.3-0.4,0.6c-0.1-0.1-0.1-0.1-0.2-0.2c-0.3,0.2-0.7,0.5-1,0.7c0,0-0.1-0.1-0.1-0.1c0.1-0.1,0.2-0.3,0.4-0.5
	c-0.5,0.1-0.7,0.3-0.6,0.7c-0.2,0-0.4,0.1-0.7,0c-0.1,0-0.3-0.1-0.3-0.2c-0.1-0.5-0.2-1.1-0.2-1.6c0-0.5,0.3-0.9,0.8-1.2
	c-0.3,0.7-0.3,1.4,0,2.1c0.2,0,0.4-0.1,0.6-0.1c0.4,0,0.7,0,0.9-0.4c-0.6,0.1-0.9-0.4-1.1-0.8c-0.1-0.3-0.1-0.7,0-1
	c0.1-0.6,0.6-1.4,1.1-1.3c-0.1,0.3-0.2,0.5-0.4,0.8c-0.3,0.5,0,0.9,0.2,1.4c0,0.1,0.2,0.2,0.4,0.2c0.4,0.1,0.5,0.2,0.4,0.6
	c0,0.1,0,0.2,0.1,0.3c-0.1-0.5,0.3-0.7,0.5-1c0.1-0.2,0.2-0.4,0.3-0.6c0.1-0.4,0.2-0.5,0.6-0.4c0.2,0,0.3,0,0.5-0.1
	c-0.3,0-0.6,0-0.9,0c-0.5,0-0.7-0.3-0.6-0.7c0.1-0.2-0.2-0.5-0.5-0.6c-0.2,0-0.3,0-0.5,0c0.1-0.3,0.4-0.6,0.7-0.6
	c0.4,0,0.8,0.3,0.9,0.6c0.2,0.6,0.5,0.9,1.1,1c0.1,0,0.2,0.1,0.4,0.1c-0.1,0.1-0.2,0.1-0.3,0.2c0.2,0,0.3,0,0.4,0
	c0.2,0.3,0.3,0.6,0.5,0.8c0,0,0,0.1,0,0.1C39.1,17.3,39,17,39,16.7c0,0-0.1,0-0.1,0c0,0.2-0.1,0.3-0.1,0.5c0,0-0.1,0.1-0.1,0.1
	c-0.1-0.2-0.3-0.4-0.4-0.6c0,0-0.1,0.1-0.1,0.1c0.1,0.5,0.7,0.6,0.6,1.2c-0.2-0.2-0.3-0.3-0.5-0.5c-0.2-0.2-0.4-0.1-0.5,0.2
	c-0.1-0.1-0.3-0.2-0.4-0.3c0,0-0.1,0.1-0.1,0.1c0.3,0.4,0.6,0.8,0.9,1.2c0,0,0.1-0.1,0.1-0.1c-0.1-0.1-0.1-0.2-0.2-0.3
	c-0.1-0.1-0.2-0.2-0.2-0.3c0-0.1,0-0.2,0.1-0.2c0,0,0.2,0,0.2,0c0.5,0.4,0.6,0.9,0.3,1.4c-0.2,0.2-0.3,0.5-0.2,0.8
	c0,0.1-0.1,0.3-0.2,0.4c-0.7,0.3-0.7,0.9-0.7,1.5c0.1-0.3,0.3-0.3,0.4-0.1c0.2,0.3,0.5,0.6,0.9,0.6c0.1,0,0.2,0.3,0.4,0.4
	c0.1,0.1,0.2,0.2,0.3,0.2c0.7,0.3,1.5,0.1,2.2,0.3c0.5,0.1,1,0,1.5-0.1c0.9-0.1,1.6-0.4,2.3-0.9c1-0.7,1.3-1.8,1.1-2.9
	c-0.1-0.5-0.3-0.9-0.4-1.3c0,0-0.1,0-0.1,0c0,0.1,0,0.2,0,0.3c0,1.4-0.8,2.7-2.2,3.1c-0.5,0.2-1.1,0.2-1.6,0.3
	c-0.4,0.1-0.9,0.2-1.3,0.1c-0.8-0.1-1.6-0.3-2.3-0.5c-0.2-0.1-0.4-0.3-0.7-0.5c0,0,0-0.2,0-0.2c0.2-0.1,0.4-0.3,0.8-0.2
	c0.4,0.1,0.8,0.3,1.3,0.2c0.2-0.1,0.5-0.1,0.7,0.2c0,0,0.1,0,0.2,0c0.8-0.1,1.7-0.1,2.4-0.4c0.6-0.3,1.2-0.6,1.6-1.2
	c0.4-0.6,0.4-1.2,0.4-1.9c0-0.4,0-0.9,0-1.4c0.7,0.4,0.6,1,0.8,1.5c0-0.1,0-0.3,0.1-0.5c1.3,1.3,1.6,2.8,1.2,4.6
	c-0.1,0.5-0.4,0.9-0.8,1.3c-0.5,0.5-1,0.9-1.6,1.2c-0.4,0.2-0.8,0.3-1.2,0.3c-0.5,0.1-1.1,0.1-1.6,0.2c-0.4,0.1-0.8,0.1-1.2-0.1
	c-0.3-0.1-0.7-0.1-1.1-0.2c-0.2,0-0.3-0.2-0.5-0.2c-0.4-0.1-0.5-0.6-0.9-0.6c0,0-0.1,0-0.1-0.1c-0.3-0.4-0.6-0.8-1-1.1
	c-0.5,0.3-0.8,0.7-0.6,1.3c0,0,0,0,0,0c-0.2,0.5-0.4,0.9-0.6,1.4c-0.1,0.2-0.2,0.3-0.2,0.5c0,0.2,0,0.4-0.1,0.6
	c0,0.2-0.1,0.4-0.4,0.3c-0.2-0.1-0.4,0.1-0.6,0.2c0.2,0,0.5,0,0.7-0.1c0.1,0.5,0.8,0.7,0.5,1.3c0.3,0,0.6-0.1,1-0.1
	c-0.2-0.2-0.3-0.4-0.4-0.5c-0.1-0.3-0.2-0.5-0.3-0.8c-0.1-0.2-0.1-0.4-0.2-0.6c0-0.1-0.1-0.1-0.1-0.2c0.2-0.3,0.3-0.7,0.5-1
	c0,0,0.1,0,0.1,0c0,0.2,0,0.4,0.1,0.6c0,0.2,0.1,0.4,0.2,0.6c0.3,0.4,0.7,0.8,1.1,1.3c0.1,0.2,0.2,0.5,0.2,0.7
	c0,0.1,0.1,0.2,0.1,0.2c0.8,0.1,1.7,0.3,2.5,0.2c0.9-0.1,1.8,0,2.7-0.4c1-0.5,1.8-1.2,2.2-2.2c0-0.1,0.2-0.2,0.3-0.3
	c0.2-0.2,0.4-0.4,0.5-0.6c0.3,0.1,0.2,0.3,0.2,0.5c-0.2,0.8-0.5,1.5-1,2.1c-0.1,0.1-0.1,0.1-0.1,0.2c0-0.1,0.1-0.1,0.1-0.2
	c0.1-0.1,0.3-0.2,0.4-0.2c0.2,0.1,0.1,0.3,0,0.4c-0.4,0.7-0.8,1.3-1.1,1.9c0.1,0,0.3-0.1,0.5-0.2c-0.1,0.8-0.3,1.4-0.8,2
	c-0.1,0.1-0.1,0.2-0.1,0.2c0.1-0.1,0.2-0.1,0.3-0.3c0,0.5,0,0.9-0.3,1.3c-0.1,0.3-0.3,0.5-0.5,0.8c0,0.1-0.1,0.1-0.1,0.2
	c0.1,0.8-0.3,1.3-0.8,1.8c0.2,0.3,0,1-0.4,1.3c-0.3,0.3-0.7,0.6-1.1,0.8c-0.1,0.1-0.3,0-0.5,0.1c0.1-0.2,0-0.5,0.2-0.6
	c0.3-0.3,0.7-0.4,1-0.7c0.2-0.1,0.4-0.4,0.5-0.6c-0.8,0.6-1.6,1.2-2.4,1.7c-0.3,0.2-0.6,0.2-0.9,0.1c-0.1,0.5-0.3,0.9-0.4,1.4
	c0.1,0,0.1-0.1,0.2-0.1c0.1,0,0.2,0,0.2,0c0.1,0,0.1,0.1,0.1,0.2c0,0.1-0.1,0.2-0.2,0.3C39.3,39.4,39.2,39.9,38.9,40.3z M37.5,18.5
	c0.1,0,0.3,0,0.4,0c0,0,0,0.1,0,0.1c-0.1,0-0.2,0.1-0.4,0.1c0,0,0,0.1,0,0.1c0.1,0,0.3,0,0.4,0c0.1,0,0.2-0.2,0.2-0.3
	c0-0.1-0.2-0.2-0.3-0.3s-0.3,0-0.4,0c0,0,0-0.1,0-0.1c0.1,0,0.2-0.1,0.3-0.1c0,0,0-0.1,0-0.1c-0.1,0-0.3,0-0.4,0.1
	c-0.1,0-0.1,0.2-0.1,0.3C37.2,18.4,37.3,18.5,37.5,18.5z M34.6,24.8c-0.4,0.4-0.8,0.7-1.3,0.9c-0.4,0.2-0.8,0.4-1.1,0.6
	c-0.2,0.1-0.4,0.4-0.7,0.5c-0.3,0.1-0.4,0.3-0.5,0.5c-0.1,0.1-0.1,0.3-0.1,0.4c-0.1,0.3-0.2,0.6,0.1,0.7c0.3,0.1,0.5-0.2,0.6-0.4
	c0.3-0.4,0.6-0.9,0.8-1.3c0.4-0.6,0.9-0.9,1.6-1c0,0.1,0.1,0.3,0.1,0.4C34.1,25.6,34.8,25.4,34.6,24.8z M38.1,30
	c0-0.2,0-0.4,0.1-0.6c-0.1-0.2-0.3-0.4-0.5-0.5c-0.1-0.1-0.2-0.2-0.3-0.2c-0.3,0-0.6,0-1,0.1c0.1,0.4,0.2,0.7,0.2,0.9
	C37.1,29.7,37.8,29.1,38.1,30z M44.8,28.4c0.3-0.2,0.6-0.4,0.8-0.7c-0.4,0.2-0.7,0.5-1.1,0.7c-0.7,0.4-1.3,0.7-2.1,0.8
	c-0.8,0-1.7,0.1-2.5,0.2c0.2,0,0.3,0,0.5,0c0.8,0,0.8,0,0.6,0.7c0,0.1,0,0.1,0,0.2c0,0.2-0.2,0.3-0.4,0.3c-0.3,0-0.6-0.1-0.9,0
	c-0.5,0.1-1,0-1.4-0.1c-0.3-0.1-0.3-0.2-0.1-0.5c-0.3,0-0.2,0.3-0.3,0.4c0.7,0.3,1.3,0.5,2,0.3c0.1,0,0.3,0,0.4,0c0.3,0,0.7,0,1-0.1
	c0.5-0.1,1-0.4,1.5-0.5c0.7-0.2,1.2-0.6,1.6-1.2C44.3,28.7,44.5,28.5,44.8,28.4z M38.2,39.1c0.2-0.1,0.5-0.1,0.7-0.1
	c0.2-0.1,0.3-0.2,0.4-0.3c-0.1,0-0.1,0-0.2,0c-0.5,0.4-1.1,0.1-1.6,0.4c0,0-0.1,0-0.1,0c-0.4-0.1-0.8-0.3-1.2-0.4
	c0,0-0.1,0.1-0.1,0.1c0.1,0,0.2,0.1,0.2,0.1C37,39.2,37.6,39.3,38.2,39.1z M32.9,95.6c-0.1-0.2-0.2-0.3-0.4-0.2
	c-0.1,0-0.3,0.1-0.4,0.2c-0.2,0.1-0.5,0.1-0.7,0.3c-0.6,0.4-1.3,0.5-1.9-0.1c-0.1-0.1-0.3-0.2-0.4-0.2c-0.4,0-0.7,0-0.9-0.4
	c0,0,0,0-0.1,0c-0.1,0.1-0.1,0.3-0.2,0.4c-0.1,0.1-0.1,0.3-0.2,0.4c-0.5,0.2-0.9,0.5-1.4,0.7c-0.4,0.2-0.9,0.3-1.3,0.5
	c0,0,0,0.1,0,0.1c0.4,0.2,0.9,0.5,1.3,0.6c0.3,0.1,0.5,0.2,0.6,0.5c0,0.2,0.2,0.3,0.4,0.2c0.4-0.1,0.8-0.2,1.2-0.4
	c0.2-0.1,0.5-0.2,0.7-0.1c0.3,0.2,0.6,0.1,1,0c0.8-0.2,1.6-0.4,2.5-0.5c0.4-0.1,0.7-0.3,0.9-0.7c0.1-0.2,0-0.4-0.1-0.6
	C33.2,96,33,95.8,32.9,95.6z M37.4,42.2c-0.3,0-0.6,0-0.9-0.1c-0.2-0.1-0.4,0-0.3,0.2c0,0.3-0.2,0.4-0.4,0.5
	c-0.2,0.1-0.4,0.3-0.4,0.6c0,0.2,0,0.4,0.1,0.6c0,0.3,0.2,0.5,0.5,0.7c0.3,0.2,0.6,0.4,0.8,0.6c0.1,0.1,0.2,0.2,0.4,0.3
	c0.2,0.1,0.3,0.3,0.3,0.5c0,0.5,0.4,0.8,0.9,0.6c0.3-0.1,0.5-0.1,0.5,0.3c0,0.2,0.2,0.4,0.4,0.3c0.2,0,0.3,0,0.4,0
	c0.2-0.3,0.4-0.6,0.6-0.9c0.1-0.2,0.1-0.3-0.1-0.4c-0.1,0-0.2-0.1-0.3-0.1c-0.9-0.3-1.2-0.9-1.3-1.7c-0.1-0.6,0.1-1.2,0.3-1.9
	C38.4,42.5,37.9,42.2,37.4,42.2z M47.3,23c0-0.1-0.1-0.4-0.2-0.4c-0.1,0-0.4,0-0.5,0.2c-0.2,0.2-0.3,0.5-0.4,0.7
	c-0.4,0.6-0.8,1.2-1.5,1.5c-0.4,0.1-0.8,0.3-1.1,0.4c-1.1,0.4-2.2,0.5-3.3,0.3c-0.3-0.1-0.6,0-0.9-0.1c0.1,0.4,0.1,0.7-0.4,0.8
	c-0.4,0.1-0.4,0.1-0.2,0.4c-0.1,0.4-0.2,0.7-0.3,1.1c0.5,0.1,0.9,0.2,1.3,0.2c0.4,0,0.7,0,1.1-0.1c0.1,0,0.2-0.1,0.2-0.1
	c0.1-0.3,0.1-0.6,0.2-0.9c-0.6,0-1.1,0-1.7,0c0.5-0.1,1-0.1,1.4-0.1c0.2,0,0.4,0,0.6,0c0.4-0.1,0.7-0.1,1.1-0.2
	c0.7-0.1,1.3-0.3,1.8-0.6c0.2-0.1,0.4-0.3,0.6-0.4c0.3-0.2,0.6-0.4,0.9-0.6c0.2-0.1,0.4-0.3,0.6-0.5c0-0.1,0.1-0.2,0.1-0.3
	C46.9,23.9,47.1,23.5,47.3,23z M46.6,24.6C46.6,24.6,46.6,24.6,46.6,24.6C46.6,24.6,46.6,24.6,46.6,24.6
	C46.6,24.6,46.6,24.6,46.6,24.6z M64.6,51.6C64.6,51.6,64.6,51.6,64.6,51.6C64.6,51.6,64.6,51.6,64.6,51.6
	C64.6,51.6,64.6,51.6,64.6,51.6C64.6,51.6,64.6,51.6,64.6,51.6z M26.4,98.2c0,0.3-0.1,0.5-0.4,0.4c-0.6-0.2-1,0.1-1.5,0.3
	c-0.1,0.1-0.3,0.2-0.4,0.2c-0.1,0-0.2-0.1-0.4-0.1c-0.5,0.7-3.1,1.1-4,0.9c0.1-0.2,0.3-0.3,0.4-0.4c0.4-0.3,0.8-0.6,1.2-0.8
	c0.1-0.1,0.2-0.1,0.4-0.1c0.3-0.1,0.7-0.1,1-0.2c0.3-0.1,0.5-0.1,0.6,0.2c0,0,0.1,0,0.2,0.1c0-0.1-0.1-0.2-0.1-0.3
	c0-0.1,0.1-0.3,0.1-0.4c0.3-0.2,0.6-0.4,0.8-0.5c0.3-0.2,0.9,0,1,0.3c0,0.1-0.1,0.2-0.2,0.3c-0.3,0.1-0.7,0.2-1,0.3c0,0,0,0.1,0,0.1
	c0.5-0.1,1-0.2,1.5-0.5C26.1,97.8,26.4,97.9,26.4,98.2z M23.2,98.6c-0.4,0.2-0.7,0.3-1,0.4C22.8,99.1,23.1,98.9,23.2,98.6z M32,21.2
	c0.1-0.3,0-0.6-0.1-0.9c-0.1,0-0.2,0.1-0.2,0.1c-0.3,0.6-0.6,1.2-0.9,1.8c0,0,0,0.1,0,0.1c0,0.2,0,0.4-0.1,0.6
	c-0.1,0.2-0.1,0.4,0.1,0.6c0.2,0.2,0.3,0.3,0.4,0.5c0.3,0.4,0.5,0.5,1,0.3c0.7-0.3,1.3-0.7,2.1-0.7c0.1,0,0.3-0.1,0.3-0.2
	c0.2-0.4,0.7-0.8,0.3-1.3c-0.2,0.2-0.5,0.3-0.6,0.5C34,22.9,33.5,23,33,23.1c-0.2,0-0.4,0.1-0.6,0.2c-0.4,0.2-0.6,0-0.8-0.2
	c-0.2-0.2-0.1-0.4-0.1-0.5C31.7,22.1,31.9,21.6,32,21.2z M54.3,72.9c0.1,0,0.1,0,0.2,0c0.4-0.1,0.7-0.3,0.8-0.7
	c0.1-0.4,0.2-0.8,0.2-1.2c0-0.1-0.1-0.2-0.2-0.2c-0.4-0.2-0.8-0.4-1.3-0.5c-0.5-0.1-1.3,0.5-1.1,1.1c0.1,0.2,0.1,0.5,0.1,0.7
	c0,0.3,0.1,0.4,0.4,0.5c0.2,0,0.3,0.1,0.5,0.2C54.1,72.9,54.2,72.9,54.3,72.9z M35.5,20.4c-0.2-0.2-0.5-0.2-0.6-0.1
	c-0.4,0.5-1,0.3-1.4,0.6c-0.2,0.1-0.5,0.2-0.5-0.2c-0.2-0.9-0.1-1.8,0.3-2.6c0-0.1,0.1-0.2,0.1-0.3c0,0-0.1-0.1-0.1-0.1
	c-0.2,0.1-0.4,0.3-0.5,0.4c-0.3,0.7-0.5,1.3-0.7,2c-0.1,0.4,0.2,0.8,0.2,1.2c0.1,0.6,0.3,0.7,0.9,0.6c0.5-0.2,1.1-0.3,1.6-0.5
	c0.2-0.1,0.4-0.3,0.7-0.4c0,0,0-0.1,0-0.1C35.5,20.7,35.7,20.6,35.5,20.4z M39.7,40.3c-0.1-0.3-0.4-0.4-0.6-0.1
	c-0.2,0.3-0.4,0.5-0.8,0.4c0,0,0,0,0,0c0,0,0,0,0,0c0,0,0,0,0,0c-0.4,0.1-0.7,0.2-1.1,0.1c-0.5-0.1-0.9-0.2-1.2-0.6
	c-0.1-0.1-0.3,0-0.4,0.1c-0.1,0.1-0.1,0.3,0,0.4c0.5,0.3,0.6,0.8,0.6,1.3c0.4,0,0.8,0.3,1.2,0c0,0,0.1,0,0.2,0
	c0.6,0.2,1.2,0.1,1.6-0.3c0.1-0.4,0.2-0.8,0.5-1C39.7,40.6,39.7,40.4,39.7,40.3z M39.2,41.6C39.2,41.6,39.2,41.6,39.2,41.6
	L39.2,41.6L39.2,41.6C39.2,41.6,39.2,41.6,39.2,41.6C39.2,41.6,39.2,41.6,39.2,41.6C39.2,41.6,39.2,41.6,39.2,41.6
	C39.2,41.6,39.2,41.6,39.2,41.6C39.2,41.6,39.2,41.6,39.2,41.6z M28.6,15.7c0.5,0.2,0.9,0.5,1.4,0.7c0.1,0.1,0.3,0.2,0.3,0.2
	c0.1-0.1,0.3-0.3,0.3-0.3c-0.1-0.3-0.1-0.6,0.2-0.8c0,0,0,0,0,0c0-0.6-0.2-0.8-0.8-1c-0.3-0.1-0.6,0-0.9-0.1c-0.5-0.2-1,0-1.1,0.6
	c0,0.2-0.1,0.4-0.2,0.6c-0.1,0.3-0.1,0.4,0.3,0.4c0,0,0,0,0,0C28.2,15.8,28.4,15.6,28.6,15.7z M30.8,11c0.2,0.2,0.3,0.4,0.5,0.6
	c0.2-0.1,0.3-0.3,0.5-0.3c0.5-0.1,1-0.2,1.4-0.3c0.1,0,0.2,0.1,0.4,0.1c0.4,0.1,0.7,0.2,1.1,0.3c0-0.1,0.1-0.1,0.1-0.2
	c-0.4-0.3-0.8-0.5-1.2-0.7c-0.4-0.2-0.8-0.3-1.2-0.4c-0.1,0-0.3,0-0.4,0c-0.2,0-0.4,0.1-0.7,0.1c-0.3,0.1-0.5,0.1-0.8,0.2
	c-0.2,0.1-0.4,0.2-0.6,0.3c-0.1,0.1-0.1,0.2-0.2,0.3c0.1,0,0.2,0.1,0.3,0.1C30.4,10.7,30.6,10.8,30.8,11z M36.5,34.4
	c0.1,0.3,0.4,0.5,0.2,0.8c0,0,0,0,0,0c0.5,0.3,1,0.5,1.6,0.5c0-0.8,0.2-1,0.9-1c0.6,0,0.6,0,0.8-0.7c-1,0-2,0.3-2.7-0.6
	c-0.3,0.2-0.5,0.5-0.8,0.7C36.4,34.3,36.5,34.4,36.5,34.4z M38.1,31.8c-0.1,0-0.2,0.1-0.3,0.2c-0.1,0.2-0.2,0.4-0.5,0.4
	c-0.1,0-0.3,0.1-0.4,0.2c-0.1,0.2-0.1,0.5-0.2,0.7c0.2,0.1,0.3,0.2,0.4,0.2c0,0,0,0,0,0c0,0,0,0,0,0l0,0c0,0,0,0,0,0c0,0,0,0,0,0
	c0.1-0.1,0.2-0.1,0.2-0.2c0.1-0.4,0.4-0.5,0.8-0.5c0.7,0,1.3,0,2,0c0.2-0.3,0.3-0.7,0.5-1C39.8,31.9,38.9,31.8,38.1,31.8z
	 M30.3,14.1c-0.6-0.1-1.2-0.3-1.8-0.4c0.1-0.2,0.1-0.3,0.2-0.4c0.6-0.5,0.7-1.2,1-1.8c0.1-0.3,0.3-0.5,0.6-0.5
	c0.3,0,0.4,0.2,0.6,0.4c0.1,0.1,0.1,0.2,0.2,0.4C30.4,12.4,30.1,13.2,30.3,14.1z M29.5,13.2c0.5-0.4,0.8-0.9,0.9-1.6
	C29.9,12.1,29.6,12.6,29.5,13.2z M34,52.1c-0.1-0.1-0.2-0.2-0.3-0.3c-0.4-0.3-0.8-0.7-1.2-1c-0.1-0.1-0.3-0.2-0.4-0.1
	c-0.1,0-0.2,0.2-0.2,0.4c0,0.1,0,0.1,0,0.2c-0.2,0.7,0.4,1.5,1.1,1.5c0.4,0,0.7,0,1.1,0C34.3,52.5,34.3,52.5,34,52.1z M37.6,23.2
	c0-0.2-0.3-0.3-0.5-0.5c-0.1,0.2-0.2,0.3-0.3,0.5c0.1,0.3,0.2,0.5,0.2,0.6c0.3,0.6,0.7,1.3,1,1.9c0.1,0.2,0.3,0.4,0.4,0.5
	c0.3,0.2,0.7,0,0.7-0.3c0-0.3-0.1-0.7-0.4-0.9C38.2,24.6,37.7,24,37.6,23.2z M39.6,25.5c0.3,0,0.6,0,0.8,0.1c0.4,0,0.8,0.1,1.3,0.2
	c0-0.4,0-0.8,0-1.1c-0.8-0.1-1.6-0.3-2.3-0.4c0,0,0,0.1,0,0.1c-0.1,0.2-0.1,0.4-0.2,0.6C39.1,25.4,39.2,25.5,39.6,25.5z M39,15.3
	c0.4-0.5,0.9-0.5,1.4-0.6c0.5-0.1,0.7-0.3,0.7-0.9c0-0.6,0-0.6-0.5-0.4c0,0-0.1,0-0.1,0c-0.6,0.2-1.2,0.4-1.8,0.6
	c0,0.2,0.1,0.3,0.1,0.4C39,14.7,38.8,15.1,39,15.3z M39.6,16.1c0.2-0.1,0.4-0.1,0.6-0.1c0.9-0.1,1.2-0.6,1-1.4c-0.1,0-0.1,0-0.2,0.1
	c-0.3,0.3-0.6,0.5-1.1,0.5c-0.2,0-0.5,0.2-0.6,0.3c-0.1,0.1-0.1,0.4-0.1,0.6C39.2,16.2,39.4,16.1,39.6,16.1z M35.8,15.9
	c0,0.2,0,0.5,0.1,0.7c0.1,0.3,0.5,0.7,0.8,0.7c0.1,0,0.2,0,0.2-0.1c0.3-0.3,0.2-0.5-0.1-0.8c0,0,0-0.1-0.1-0.1
	c-0.4-0.3-0.3-0.7-0.2-1.1C36.2,15.2,35.8,15.5,35.8,15.9z M39.6,13.1c0.1,0,0.1,0,0.2-0.1c-0.6-0.4-1-0.1-1.4,0.1
	c-0.1,0-0.1,0.2-0.1,0.2c0,0.1,0.1,0.1,0.2,0.1c0.1,0,0.2,0,0.3-0.1c0,0,0.1,0.1,0.1,0.1c-0.2,0.1-0.4,0.2-0.5,0.3
	c0,0,0.1,0.1,0.1,0.1c0.1,0,0.2,0,0.3,0c0.4-0.1,0.8-0.3,1.2-0.4c0.1,0,0.3-0.1,0.4-0.1c0.2-0.1,0.2-0.2,0.1-0.3
	C40.2,13.1,39.9,13.1,39.6,13.1C39.6,13.1,39.6,13.1,39.6,13.1z M46.1,14.9c-0.1,0.1-0.1,0.6,0,0.8c0.1,0.4,0.3,0.6,0.5,0.5
	c0.2-0.4,0.4-0.7,0.6-1c0.1-0.2,0-0.4-0.2-0.5C46.6,14.8,46.3,14.7,46.1,14.9z M37.6,15.2c0.2,0.2,0.5,0.4,0.7,0.5
	c0.1,0,0.3,0,0.4-0.1c0.1,0,0.1-0.2,0.1-0.3c0-0.3-0.1-0.5-0.1-0.8c-0.2,0.1-0.5,0.1-0.7,0.2C37.7,14.8,37.5,15,37.6,15.2z
	 M38.7,14.5C38.7,14.5,38.7,14.5,38.7,14.5C38.7,14.5,38.7,14.5,38.7,14.5C38.7,14.5,38.7,14.5,38.7,14.5
	C38.7,14.5,38.7,14.5,38.7,14.5C38.7,14.5,38.7,14.5,38.7,14.5z M47.9,13.7c0.3,0,0.7,0,1.1-0.1c-0.3-0.4-0.7-0.4-1-0.4
	c-0.1,0-0.2,0.1-0.3,0.1C47.8,13.5,47.8,13.7,47.9,13.7z M37.1,19.1c-0.1-0.2-0.2-0.3-0.3-0.6c-0.1,0.2-0.2,0.3-0.2,0.3
	c0.1,0.2,0.2,0.3,0.3,0.5C37,19.2,37.1,19.1,37.1,19.1z M24.8,71.2c-0.1-0.1-0.2-0.1-0.3-0.2c-0.1,0.2-0.1,0.4-0.2,0.6
	c0.1,0,0.1,0.1,0.2,0.1C24.5,71.5,24.7,71.3,24.8,71.2z M40.2,22.7c-0.1-0.2-0.3-0.4-0.5-0.7c-0.1,0.2-0.1,0.4-0.2,0.6
	c0.2,0.1,0.5,0.2,0.7,0.2C40.2,22.8,40.2,22.8,40.2,22.7z"/>
</svg>
