<?xml version="1.0" encoding="utf-8"?>
<!-- Generator: Adobe Illustrator 27.9.0, SVG Export Plug-In . SVG Version: 6.00 Build 0)  -->
<svg version="1.1" id="Layer_1" xmlns="http://www.w3.org/2000/svg" xmlns:xlink="http://www.w3.org/1999/xlink" x="0px" y="0px"
	 viewBox="0 0 100 100" style="enable-background:new 0 0 100 100;" xml:space="preserve">
<g>
	<path d="M7.4,40.9c6-3.1,9.7,1.5,10.4,1.9c0.6,0.5,3.8,5.7,9.5,5.1c5.8-0.6,5.9-4.7,5.9-6.5c0-1.8-2.3-6.2-5-9.8
		c-2.7-3.6-1.8-6.2-1.8-6.2c0.6-3,4.5-6.2,9.2-6.3c4.3-0.1,7.4,4.3,7.4,4.3s1.1,1.6,2.5,3.7c0,0-0.1,0-0.1,0c-1,0-1.9,0.9-1.9,1.9
		s0.9,1.9,1.9,1.9c0.8,0,1.5-0.5,1.8-1.3c0.8,1.3,1.7,2.5,2.3,3.4c2,3.1,7,10,11.5,10.2c4.5,0.2,4.7-0.1,8.1-2
		c3.4-1.8,7.8-3.8,11.4-1.8c3.5,2,4.4,8.2,1.4,10.5c-3,2.4-7.7,0.9-8.1-1.7c-0.3-2.1-0.2-3.8,1.3-3.9c0,0,1.1,0,1.2,1.7
		c0.1,1.7,0,2.7,1.7,2.7c1.6,0,3.8-1.2,2.7-4.4c-1.1-3.1-3.9-3.8-6.6-2.7c-2.7,1.1-6.9,3.8-8.6,4.1c-1.8,0.4-4.4,1.3-8.9-0.7
		c0,0,4.4,3.1,12.6,6.3c8.2,3.2,14.6,7.7,15.6,15.2c0,0,7.7,0,7-6.7c0,0-0.8-3.5-4.4-2.6c-3.7,0.9-3.8,2.2-5.4,1.1
		c0,0-1.9-2.3,3.1-4.1c0,0,7.1-2.5,9.8,4.1c2.8,6.8-4.3,10.7-9.4,11c0,0,1.2,1.4,1.1,2.6c-0.1,1.2-0.5,2.6-2.4,4.7
		c-1.9,2.1-0.6,4.8-0.4,5c0.1,0.3,0.1,1.2-0.4,1.1c-0.5,0-3.7-5.9-0.4-13.4c0,0-7.9,0.1-13.2-2.8c-5.3-2.9-11.2-5.7-21.4-23.1
		c0,0,3.5,7.4,3.8,12.6c0.3,5.3-1,11.3-0.3,17.5c0,0,0.7,6.9,6.2,7.8c5.5,1,5-3.9,4.9-4.4c-0.2-0.4-0.7-1.6-2.1-1.1
		c-1.4,0.5-2-0.3-2.4-1.3c-0.4-1,0.2-2.2,2.2-2.6c2-0.5,5.2,0.8,5.7,4.4c0.5,3.7-2,8-7.1,8.3c-5.2,0.2-10-2.8-11-11.7
		c-0.9-8.8,2.5-16.2-2.9-26.8c0.3,2.7,0.3,7.2-1.8,11.9c-1.4,3.2-6.3,10.6-7.9,18c0.3,0.1,0.7,0.2,1.1,0.2c4.6,0.1,5.8-2.2,6.1-3.3
		c0.3-1.2-0.6-1.1-0.6-1.1s-0.4,0.9-1.4,0.3c-1-0.6-0.8-1.5-0.8-1.5c0-1.4,4.7-2.9,5.2,1.8c0.6,6.5-6.5,7.2-6.5,7.2
		c-1.4,0.1-2.5,0-3.5-0.2c-0.3,3.9,0.6,7.6,3.8,10.5c0,0,1.5-0.6,3,0.6c1.6,1.2,6.7,6.3,6.8,8.4c0,0,0.1,0.7-0.3,0.9
		c-0.5,0.1-0.9-1-0.9-1s-1.1-2.8-5.3-3.5c-4.3-0.7-3.8-3.7-3.9-3.9c0,0-4.6-2.8-5.1-9.1c0,0-0.1-1.3,0.2-3.5
		c-4.4-2.1-4.8-7.2-4.8-7.2c-1-10.1,5.5-17.2,8.2-20.2c2.7-3.1,1.7-5.9,1.7-5.9C27.1,58,15.9,46.5,15.9,46.5
		c-1.6-1.6-4.5-3.6-6.2-1.8c-1.5,1.5,0,2.6,1.4,4.1c1.5,1.5-0.2,2.7-0.2,2.7C6.7,54.4,1.3,44,7.4,40.9z M82.7,66.7
		c0,0-1.7-7.6-10.1-11.5c-8.4-3.9-16.4-7.3-17.1-8.2C54.8,46.1,65,68,82.7,66.7z M37.7,55.7c-5.7,6.6-5.6,11-5.8,12.4
		c-0.1,1.1,0.1,5.2,2.2,7.2c0.7-2.9,1.9-6.6,4.2-10.6c5.3-9.3,5.6-14.2,4.6-19.4C42.5,50.2,37.7,55.7,37.7,55.7z M34.6,30.6
		c0-1-0.9-1.9-1.9-1.9c-1.1,0-1.9,0.9-1.9,1.9c0,1.1,0.9,1.9,1.9,1.9C33.8,32.5,34.6,31.7,34.6,30.6z"/>
	<path d="M27.1,6.2c-0.2,0.6-0.4,0.6-0.4,0.6c-3.6-3.6-8.2-6.7-8.2-6.7c0.9-0.4,7.7,2,8.6,2.5c1,0.6,0.7,1.2,0.7,1.2
		S27.3,5.6,27.1,6.2z"/>
	<path d="M18.3,10.2c-0.6-0.1-4.8-0.8-4.9-1.9c-0.1-1.2,1.8-8.2,2.5-7.2c0,0,0.1,2.9,2.6,8.7C18.4,9.8,18.8,10.3,18.3,10.2z"/>
	<path d="M37.2,18.7c-0.6,0-3.2-0.7-6.8,1.2c-3.7,1.9-4.6,5-4.6,5s-0.5,0.8-0.8,0c-5.6-13-8.2-22.4-8.5-23.4
		c-0.3-1.1,0.3-1.4,0.3-1.4s0.8-0.3,1.5,0.4C18.9,1.1,24,4,37.3,18.1C37.3,18.1,37.8,18.8,37.2,18.7z"/>
	<circle cx="32.2" cy="30.1" r="1.2"/>
	<circle cx="44.7" cy="28.5" r="1.2"/>
</g>
</svg>
