<?xml version="1.0" encoding="utf-8"?>
<!-- Generator: Adobe Illustrator 27.9.0, SVG Export Plug-In . SVG Version: 6.00 Build 0)  -->
<svg version="1.1" id="Layer_1" xmlns="http://www.w3.org/2000/svg" xmlns:xlink="http://www.w3.org/1999/xlink" x="0px" y="0px"
	 viewBox="0 0 100 100" style="enable-background:new 0 0 100 100;" xml:space="preserve">
<g>
	<path d="M4,54.5v7.6c0,0.9,0,1.6,0,1.6H1.7c0,0,0-0.7,0-1.6v-7.1c0-9.9,7.4-17.9,17.3-17.9h7.2l0,0c0,0,9.1,8.8,29.6,6.1
		c-0.3,0-4.4,0.2-9.8-0.7c-0.7-0.1-1.4-0.2-2.1-0.4c-4.4-0.9-9.3-2.4-13.7-5.1c-5.1-3.4-7.9-7.2-7.9-7.2l11.2,3.1
		c-12.8-3.8-16.8-11.8-16.8-11.8l15,5.1c-10.8-3.8-17.6-11.5-17.6-11.5l20.8,6.7c7.8,2.5,14.7,7.4,19.4,14.1
		c0.4,0.6,0.8,1.1,1.2,1.6h0c0,0,0,0,0,0c0,0,0,0,0,0c0.2,0.2,0.3,0.4,0.5,0.5c0.3,0.3,0.5,0.5,0.8,0.8c0.4,0.4,0.9,0.8,1.3,1.1
		c0,0,0,0,0.1,0c0,0,0,0,0,0c0,0,0,0,0.1,0c0,0,0.1,0,0.1,0.1c0,0,0.1,0.1,0.1,0.1c0,0,0,0,0.1,0c0.1,0.1,0.2,0.2,0.4,0.3
		c1.5,1,3.6,2,5.9,2.2c-0.3-0.1-4.8-1.3-7.1-5.3h4.2l3.6-0.5l-3.7-1.8c3.9-3.3,7.5-3,7.5-3l-3.9-1.1c2-2.2,5.3-2.1,5.3-2.1l-2.5-1.1
		c3.5-2.1,6.2-1.9,6.2-1.9l-2.1-1.3c7.8-2.4,14.4,1.3,14.4,1.3l5.9,2.6V30l6.3,2.6l0,0l0,0l1,0.4l-0.4,0.8l-0.9,0.6l0,0l0,0.2
		c0.1,0.6,0.1,1.2-0.2,1.7l-0.4,0.8L97.6,37l0.5,0.2l-0.9,1.5l-0.3-2.1l-3.3-1.5c-1.1-0.4-2.3,0.1-2.8,1.1h0c-0.5,1.1,0,2.3,1.1,2.8
		l2.9,1.3h0l1.8-0.9L96,40.9h0l-1.9,2.5L92.8,43c0,0-0.1,0-0.1,0c-3.9-0.8-7.1,3-5.7,6.7l0.7,1.9c1.4,3.6,0,7.4-2.8,9.4l0,0
		l-3.5,8.5l5,9.8h2.2c3.2,0,5.8,2.6,5.8,5.8h-9.9l-9.9-11v-2l6.5-8.7l-6.5,6.5v0l-3.9,3.9l1.1,5.6h1.1c3.2,0,5.8,2.6,5.8,5.8H67
		l-6.4-12.3l3.4-6.9h0l-1.6,0.3l-18.4-2.1l-0.9-0.1c-1.2,2.7-3.6,5.2-8.4,5.9l3.3,9.4h1.5c3.2,0,5.8,2.6,5.8,5.8v0h-12l-8.7-15.3
		c0,0-0.1-0.2-0.3-0.6v0c-1,0.3-2,0.6-3.2,0.7l1,9.4h1c3.2,0,5.8,2.6,5.8,5.8H16l-5.1-15.3c0,0-0.9-2.5-0.9-4c0-3.5,2.6-5.8,4.5-8.6
		c0-0.1,0.1-0.1,0.1-0.2l0,0h0c0,0,1.3-2.9,1.3-8.5c0-5,2-7.2,4.4-8.1h-2C10.6,40.5,4,46.8,4,54.5z M90,30l0.8-0.8l-3.6-0.7L90,30z
		 M35.1,63c1.2-1.3,2.3-2.7,3.2-4.5h-2.8c0,0,0,0,0,0c0,0,0,0,0,0c0,0,0,0,0,0c0,0,0,0.1,0,0.1c-0.1,0.3-0.4,1-1,1.9c0,0,0,0,0,0
		c0,0,0,0.1,0,0.1c0,0,0,0,0,0c-0.1,0.2-0.3,0.5-0.4,0.7c-0.3,0.5-0.6,1-1,1.5c-0.7,0.9-1.5,1.8-2.4,2.7c-1.7,1.6-3.8,2.9-6.4,3.8
		C24.7,69.1,30.5,67.9,35.1,63z"/>
	<path d="M2.7,64.2c1.4,0,2.6,1.1,2.7,2.6c0.1,4.1-2,7.9-2,7.9c-1.9-3.5-1.9-7.6-1.9-7.6l-0.6,3.5C0.2,69.5,0,68.1,0,66.9
		C0,65.4,1.2,64.2,2.7,64.2z"/>
</g>
</svg>
