<?xml version="1.0" encoding="utf-8"?>
<!-- Generator: Adobe Illustrator 27.9.0, SVG Export Plug-In . SVG Version: 6.00 Build 0)  -->
<svg version="1.1" id="Layer_1" xmlns="http://www.w3.org/2000/svg" xmlns:xlink="http://www.w3.org/1999/xlink" x="0px" y="0px"
	 viewBox="0 0 100 100" style="enable-background:new 0 0 100 100;" xml:space="preserve">
<g>
	<g>
		<path d="M71.4,19.9l-0.6-0.3c0.2,1.3,0.4,2.5,0.7,2.7c0.2,0.1,0.9-0.6,1.3-0.9c-0.2-0.2-0.5-1-0.7-1.9L71.4,19.9z M76.1,6.4
			l-4.7-1.8L66.7,7l-0.6,6l3.6,1.6l2.1,0.4l4-2.4L76.1,6.4z M25.8,91.2c0.4-1,0.7-2.2,0.4-3.1c-0.2-0.4-0.3-0.9-0.3-1.3
			c-4.4-0.9-8.1-2.2-8.1-2.2c2.5-3.3,3.7-11.8,4.2-20.2c-1.8-3.4-2.8-7-3.2-10.8c0-0.3,0-0.7,0.1-0.9c1.3-1.3,0.8-2.7,0.5-4.2
			c-0.3-1.6-0.7-3.4-0.4-4.9c0.5-2.6,1.6-5,2.4-7.5c0.1-0.5,0.2-1.1,0-1.5c-1.4-2.3-1.4-2.3,0.4-3.8c-0.2-0.9-0.8-2-0.5-2.3
			c1.1-1.3,2.6-2.3,3.9-3.5c-0.2-1.3-0.3-2.6-0.5-4.2c1.5,0.6,2.5,1.1,3.6,1.4c1.9,0.4,3.9,1.2,5.2-1.2c0.2-0.3,1.3-0.4,1.6-0.2
			c0.6,0.6,1.1,0.7,1.7,0.6c0.2-0.3,0.3-0.6,0.3-0.7c0-0.3,0.4,0.3,0.6,0.4c0,0,0.1,0,0.1-0.1c0.1-0.3-0.4-1-0.2-1.2
			c0.2-0.2,0.7-0.2,0.7-0.2c0-0.1,0-0.8,0-0.9c0-0.1,0.8-0.2,0.8-0.4c0-0.2-0.4-0.6-0.3-0.7s0.6,0,0.7-0.2c0.1-0.2-0.5-0.1-0.1-0.7
			c0.2-0.4,2-0.3,3.4-0.1c-0.1-0.3-0.1-0.6-0.2-0.8c-0.4-1.2-0.5-1.8-0.7-2.2c0.4-0.3,0.3-4.3,0.3-5.1c0.5,0.9,1.8,5,2.5,6.2
			c0.6-3.1,2.3-4.8,5.1-5.1c0,0,5.6-0.9,6.9,4.7c0.1,0.3,0.2,0.6,0.3,0.9c0.4-0.3,4.1-3.5,4.4-3.8c0.2,0.1-1.8,2.9-2,4.8
			c-0.5,0.4-0.8,0.9-1.1,1.9l4,0.2c0,0-0.6,1.9-0.6,2.3c0.1,0.3-0.5-0.4-0.6-0.2c-0.1,0.2,0.5,0.7,0.4,1c-0.1,0.2-0.5,0.3-0.5,0.4
			c0,0,0,0.1,0,0.1c0.1,0.1,0.3,0.1,0.5,0.2c0.6,0.2,1.1,0.8,1.6,1.3c0.4,0.4,0.5,1,0.8,1.4c1.7,1.7,3,3.5,3,6
			C66.1,30.8,65,31,65,31.4l7,10.8l0.3-1.3c0.4-1.5,0.6-2.9,2.6-2.7c-0.2-1.3-0.2-2.5-0.5-3.6c-0.3-1.2-0.7-2.3-1.2-3.5
			c-0.5-1.3-1.5-2.6-1.5-3.8c0.1-2.2-1-2.3-2.1-2.2c-0.8-1.2-1.4-2.2-2-3.1c0.1-0.4,0.2-2.1,0.3-3.7l-5.2-2.6l-1.2-9.8L71.4,0
			L80,4.4l0.7,8.9l-5.3,3.8c0.1,2,0.2,5.6-0.1,6c-1.1,2.1-1.1,2.7,0.8,4.2c0.9,0.7,2,1.3,2.8,2.1c0.4,0.4,0.2,1.2,0.3,1.8
			c-0.5,0-1,0-1.5,0c-0.4-0.1-0.7-0.3-1.6-0.6c0.7,2.2,1.2,3.9,1.7,5.6c0.1,0.3,0.5,0.5,0.8,0.6c3.9,1.2,4.3,4.6,2.6,7.9
			c-1.3,2.5-2.7,4.8-2.6,7.9c0.1,3.7-0.2,7.5-2.2,11c-0.4,0.7-0.5,1.5-0.7,2.3c-1.2,5.4-1.8,10.8-1.3,16.4c0.4,5,0.6,10,0.8,15
			c0,0.6-0.7,1.7-1.3,1.8c-1,0.3-1.7-0.4-1.8-1.6c-0.1-3.9-0.2-7.8-0.4-11.7c0-0.9,0-1.8-0.1-2.8c-0.4-7.9-0.7-15.7,3-23
			c0.1-0.3,0.2-0.6,0.2-0.9c0.3-2.6,0.5-5.3,0.7-8.1c-0.3,0.2-0.5,0.3-0.7,0.5c-2.5,1.6-4.9,1.3-6.7-0.7c-0.4-0.7-0.7-1.5-0.8-2
			c-0.1-1.2-6.5-6.8-6.5-6.8L59,41.5c-0.5,3.1-1,5.9-1.4,8.7c0.5,1.4,0.9,2.7,1.3,3.6c0.6,1.4,0.6,3.4,0.4,5.7
			c0.2,0.2,0.4,0.4,0.7,0.6c1.6,1.3,2.8,3.2,4,5c0.8,1.3,1.5,2.8,1.5,4.3c0.1,1.7-0.7,3.5-1,5.2c-0.3,1.5-0.7,3.1-0.6,4.7
			c0.1,1.2,0.4,2.1-0.6,3c-0.4,0.4-0.3,1.1-0.5,1.7c-0.2,0.6-0.3,1.3-0.6,1.9c-0.7,1.2-0.5,2.6,0.8,3.3c0.8,0.4,1.8,0.6,2.6,0.6
			c1.9,0,3.3,1.2,3.5,3.3c0.2,1.7-0.4,2.5-2.6,2.7c-1.5,0.2-3.1,0.3-4.6,0.1c-2.2-0.3-4.4-0.9-6.6-1.4C53,94,52.7,93.5,52.7,91
			c0-2.5,1.5-4.9,0.3-7.4c-0.1-0.1,0-0.4,0.1-0.5c0.1-1.1,0.3-2.1,0.4-3.2c-0.9,2.4-1.5,3.9-1.5,3.9c-0.3-0.3-1.5-0.5-3.2-0.3
			c-0.4,1.5-0.8,3-1.2,4.6c-0.5-1.1-0.7-1.6-1-2.4c-0.5,1.4-0.9,2.4-1.5,3.9c-0.7-1.7-1.2-3.4-1.5-5.1c-1.8,0.5-3.8,1.2-5.7,2.1
			c-0.5,0.2-1,0.4-1.5,0.6c-0.2,0.5-0.6,1-1,1.4c-0.2,0.2-0.4,0.8-0.3,1.2c0.7,1.8,0.2,3.3-0.9,4.8c-0.4,0.5-0.5,1.4-0.5,2.1
			c0,1.6-0.9,2.6-2.3,3c-1.2,0.3-2.4,0.5-3.6,0.4c-3.5-0.1-5.1-3-3.4-6.1C24.7,93,25.5,92.2,25.8,91.2"/>
	</g>
</g>
</svg>
