<?xml version="1.0" encoding="utf-8"?>
<!-- Generator: Adobe Illustrator 27.9.0, SVG Export Plug-In . SVG Version: 6.00 Build 0)  -->
<svg version="1.1" id="Layer_1" xmlns="http://www.w3.org/2000/svg" xmlns:xlink="http://www.w3.org/1999/xlink" x="0px" y="0px"
	 viewBox="0 0 100 100" style="enable-background:new 0 0 100 100;" xml:space="preserve">
<g>
	<g>
		<path d="M60.4,69.4c0.7,2,0.6,4.2,1.3,6.2c0.8,2.3,2,4.7,2.4,7.1c0.4,2.4,1.2,4.3,3.8,4.9c1.7,0.4,5.9,0.9,7.3-0.4
			c2-1.9-2.5-3.4-3.4-3.8c-2.6-1-3.2-3.3-3.6-5.9c-1-5.9-0.6-12.2,0-18.1c0.2-2.4,1.6-2.8,3.3-4.1c2-1.5,3.2-3.8,4.9-5.6
			c1.8-1.9,2.6-4.4,4.3-6.2c1.8-2,2.5-3.4,3-6.1c0.4-2.6,1.3-5.2,2.4-7.6c1.1-2.4,0-5.1,2.3-6.7c2.1-1.5,4.3-2.1,5.5-4.5
			c0.3-0.6,0.5-2-0.3-2.4c0,0-2.3-0.3-2.2-0.4c-0.1,0.2-0.1,0.5,0,0.7c-0.1,0-1.5-0.8-1.1,0c0.5,1.1-2,1.1-1-0.3
			c1-1.3,2.1-2.6,2.2-4.3c0.1-1.2-0.8-4.5-2.5-4.2c-2.9,0.6-6.2,6.3-9.5,4.8c-2.9-1.3-7.5,2.5-9.8,4.1c-2.7,1.8-5.1,3.2-7.3,5.6
			c-0.5,0.5-1.2,1.1-1.1,1.9c0.1,0.5,0.9,1.1,0.3,1.5c-1.5,1.1-3.2,2-5,2.4c-3.6,0.8-7.7-0.5-11.4-0.7c-4.4-0.3-8.9-0.1-13.3-0.6
			c-3.8-0.4-7.5,0.4-11,1.9c-3.3,1.4-7.4,2.4-9,5.8c-1.6,3.2-1.8,7-1.8,10.5c0.1,4-0.7,8-2.1,11.8c-1,2.7-2.9,7.1-1,9.9
			c1,1.4,2,0.5,2.4,2.5c0.5,2.2,0,4.4-0.1,6.7c-0.1,1.3-1.3,3.6-0.8,4.8c0.3,0.7,2.5,1,3.1,1.2c1.2,0.4,3.5,0.8,4.7,0.5
			c1.9-0.5,0.8-2.6-0.2-3.4c-1.1-0.9-2.1-1.5-2.1-3.1c0-1.6-0.3-3.2-0.2-4.9c0.2-4.1,2.3-6.4,5.4-8.8c1.3-1,2.5-2.2,3.6-3.5
			c1.2-1.5,1.6-1.4,2.1,0.5c0.4,1.8,0.5,3.6,0.4,5.4c0,1.7-1.1,4.3-0.5,5.9c1.1,3.1,4.4,5.3,5.5,8.4c0.5,1.4,0.8,2.5,2.3,3.1
			c1.5,0.6,3.9,0.9,5.5,0.4c1.3-0.4,2.1-0.9,1.2-2.1c-1-1.5-2.2-1.5-3.6-2.5c-2.6-1.8-4.9-6.8-4.6-9.9c0.4-3.6,2.9-6.5,3.9-9.9
			c0.3-0.9,0.4-2.6,1.7-2.5c2,0.2,3.9,1,5.9,1.2c1.8,0.2,3.6,0.5,5.4,0.5c1.3,0.1,3.2-0.6,3.8,1.1c1.2,3.7,0.6,7.2,0.7,11
			c0.2,3.7,0.5,7.6,0.9,11.3c0.2,1.8,0.5,3.7,1.4,5.4c1,1.9,0.9,3.5,2.6,4.9c1.4,1.2,2.1,0.7,3.9,1c1.3,0.2,3.3,0.7,3.9-1
			c0.6-1.5-1.7-3-2.6-3.8C61,86,60,84.4,59.6,82.5c-0.4-2.1-0.1-4.5,0-6.6C59.7,73.9,59.6,71.3,60.4,69.4
			C60.7,70.4,60.3,69.7,60.4,69.4"/>
	</g>
</g>
</svg>
