<?xml version="1.0" encoding="utf-8"?>
<!-- Generator: Adobe Illustrator 27.9.0, SVG Export Plug-In . SVG Version: 6.00 Build 0)  -->
<svg version="1.1" id="Layer_1" xmlns="http://www.w3.org/2000/svg" xmlns:xlink="http://www.w3.org/1999/xlink" x="0px" y="0px"
	 viewBox="0 0 100 100" style="enable-background:new 0 0 100 100;" xml:space="preserve">
<g>
	<g>
		<path d="M79.2,66c0.1-1.8,0.1-3.3,0.2-5.1C76.5,62.5,76.4,63.9,79.2,66 M83.4,61c0.3,2.2,0.7,3.9,0.8,5.7c0.1,3.1-1.8,5.1-4.2,6.5
			c-2.3,1.3-3.4,1-5.4-2.6c-1.4-2.5-3.6-3.3-5.9-4.1c-1.9-0.6-4.1-0.7-6.1-0.5c-7.4,0.8-14.2,3.4-20.3,7.5c-1.4,1-2.4,2.7-3.6,3.9
			c-0.9,0.9-1.9,1.7-3,2c-0.7,0.2-1.5,0.2-2.2,0.5c-6.1,3.1-12.1,6.3-18.5,9.1c0.3-0.4,0.5-0.8,1-1.5c-0.9,0-1.5-0.2-1.9,0
			c-3.4,1.5-6.6,0.1-9.8-0.8c-2-0.6-5-4.2-4.1-5.3c2-2.4,0.3-5.3,1.8-7.7c0.2,0.2,0.5,0.5,1,0.8c0.6-1.7,1.1-3.4,1.8-5.5
			c0.3,0.9,0.4,1.5,0.7,2.2c0.8-0.9,1.4-1.7,2-2.4c0.2,0.1,0.4,0.2,0.6,0.4c-1.2,2.1-2.4,4.2-3.7,6.3c-2.1,3.4-1.5,8.3,1.6,10
			c1.4,0.8,3.6,1.2,5.2,0.9c9.5-2,18.1-5.9,25.4-12.4c0.4-0.3,0.6-0.8,1-1.4c-0.7-0.2-1.3-0.4-1.9-0.5c-0.1-0.1-0.2-0.3-0.3-0.4
			c0.2,0,0.5,0,0.7-0.1c4.7-1,8.1-4,11.1-7.5c1.1-1.3,2.1-3.1,0.6-4.4c-0.9-0.7-2.8-0.2-4.3-0.3c-0.3,0-0.5,0.2-1,0.4
			c0.9-1.5,1.8-2.7,2.3-4.1c0.7-1.9-0.2-3.6-2.1-3.5c-4.8,0.3-9.6,0.3-14.3,2.6c0.8-0.8,1.5-1.8,2.3-2.5c5.3-5,9.6-10.8,11.3-18.1
			c1.2-5.1,0.3-6.1-3.7-9.4c-6.7-5.6-15.1-7.8-22.4-12.2c-1.4-0.8-3.1-0.9-4.8-1.9c3.1,0,6.3-0.3,9.3,0.2c7.8,1.3,15.4,3.6,22.7,7.1
			c2.5,1.2,5.1,2,7.7,2.9c1,0.4,2.2,0.4,3.6,0.1c-0.6-0.6-1.2-1.1-1.8-1.7c0.1-0.2,0.2-0.3,0.3-0.5c1.3,1,2.7,2,3.9,3.1
			c2,2,3.8,4.2,5.9,6c1,0.9,2.6,1.1,3.9,1.6c0.2-1.2,0.4-2.5,0.7-3.7c0.1-0.1,0.2-0.1,0.2-0.2c0.2,1.9,1,4,0.4,5.6
			c-2.9,9-1.3,17.5,1.9,26.2c1.6-0.5,3.1-0.8,4.5-1.5c0.8-0.4,1.8-1.3,1.7-1.9c0-0.9-1-1.7-1.7-2.4c-0.2-1.1,2.2-2.7-0.7-3.5
			c0.6-1.1,1.2-2.4,2.1-4.2c-1.6,0-2.5,0-3.4,0c0-0.1-0.1-0.2-0.1-0.4c2.3-0.5,4.6-1,7.3-1.6c-0.8-0.8-1.2-1.2-2.1-2.1
			c2.4,0.6,4.4,0.7,6.1,1.5c2.5,1.1,3.8,4.6,2.6,6.4c-1-0.5-2-1.5-2.9-1.5c-1.2,0.1-2.8,0.8-3.4,1.8c-0.8,1.2-0.9,3-0.9,4.5
			c0,0.3,1.8,1.1,2.6,1c4.1-0.5,8.1-1.3,11.8-1.9c-0.8,1.4,0.3,2.4,1.7,3.5c2.5,2.1,4.6,4.4,5.2,8c-0.6-0.6-1.1-1-1.7-1.5
			c-1.6,2.4-1,4.6,0,6.7c1.7,4,2.3,8.1,0.6,12.7c-1.2-5.7-1.9-11.2-6.4-15.8c-0.3,1.9-0.6,3.1-0.8,4.4C90.9,65.2,88,62.6,83.4,61"/>
	</g>
</g>
</svg>
