<?xml version="1.0" encoding="utf-8"?>
<!-- Generator: Adobe Illustrator 28.0.0, SVG Export Plug-In . SVG Version: 6.00 Build 0)  -->
<svg version="1.1" id="Layer_1" xmlns="http://www.w3.org/2000/svg" xmlns:xlink="http://www.w3.org/1999/xlink" x="0px" y="0px"
	 viewBox="0 0 183.2 150" style="enable-background:new 0 0 183.2 150;" xml:space="preserve">
<path d="M124.8,20.2c1.4-0.8,2.9-1.3,4.6-1.3c1.7,0.1,3.5-0.2,5.2-0.3c0.8,0,1.6,0,2.4,0.2c2.7,0.5,5.2,0,7.7-0.9
	c1.5-0.6,3-1.1,4.6-0.7c0.2,0,0.4-0.1,0.5-0.1c2.2-1,4.4-1.2,6.7-0.6c0.2,0,0.4,0.1,0.6,0.1c1.6-0.1,3.2-0.2,4.8-0.2
	c1.6-0.1,3.3-0.2,4.9-0.2c4.7,0.3,9.3,0.6,14,0.9c0.6,0,1.3,0.3,1.9,0.5c0,0.1,0.1,0.2,0.1,0.3c-1.9,0.9-3.8,1.8-5.5,2.5
	c2.2,0.1,4.7,0.2,7.5,0.3c-1.6,2.7-4.3,3.2-6.7,3.9c0,0.1,0,0.2,0.1,0.3c1.5,0.1,2.9,0.3,4.7,0.4c-1.5,1.5-2.8,2.5-4.7,2.9
	c-0.6,0.1-1.1,0.3-1.8,0.5c0.3,0.2,0.5,0.3,0.7,0.5c-0.5,0.1-0.8,0.2-1.1,0.2c0,0.1,0,0.1,0,0.2c0.9,0.9,0.9,1.2-0.3,1.8
	c-0.3,0.2-0.7,0.3-1,0.5c-0.3,0.2-0.7,0.3-1.2,0.5c0.4,0.1,0.7,0.1,0.9,0.1c0,0.1,0,0.1,0,0.2c-1.6,0.4-3.1,0.7-4.8,1.1
	c0.4,0.2,0.8,0.4,1.2,0.6c0.9,0.6,1,1,0,1.4c-1.1,0.4-2.2,0.6-3.4,0.9c0-0.1-0.1-0.2-0.1-0.2c0.1,0.1,0.2,0.1,0.4,0.2
	c0,0.1,0,0.1,0,0.2c-1.2,0.1-2.4,0.3-3.7,0.4c0.1,0.9-0.5,1.2-1.2,1.4c-1.3,0.3-2.7,0.4-4,0.7c-0.6,0.1-1.1,0.4-1.6,0.7
	c-1.5,1-2.1,1.1-3.8,0.1c-0.4,1.6-1.5,1.4-2.7,1.1c-1-0.2-2.1-0.4-3.1-0.5c-0.4,1.2-0.9,2.5-1.3,3.7c0,0.1-0.1,0.2-0.1,0.2
	c-1.2,0.6-1.1,1.6-1.1,2.7c0,0.8-0.5,1.4-1.3,1.2c-0.2,0.8-0.3,1.7-0.5,2.5c-0.1,0.6-0.2,1.2-1.1,1.2c-0.2,0-0.4,0.5-0.6,0.7
	c-0.7,0.9-1.2,1.1-1.8,0.6c-0.6,0.6-1.2,1.2-1.8,1.8c0.2,0.1,0.5,0.2,1.1,0.5c-0.6,0-0.9,0-1.4,0c0,0.3-0.1,0.5-0.1,0.7
	c-2.2,0.5-4.1-0.6-6-1.7c0.1,0.9,0.2,1.7,0.4,2.7c-0.9-0.7-1.7-1.3-2.4-1.8c-0.4-0.3-0.9-0.7-1.3-0.9c-0.3-0.2-0.7-0.3-1.1-0.4
	c-0.1,0.4-0.1,0.7-0.3,1.3c-1.3-0.8-2.7-1.6-4-2.4c-0.9-0.6-1.8-1.3-2.7-1.9c-0.7-0.4-0.7-0.4-1.1,0.7c-0.7-1-1.2-1.8-1.8-2.6
	c-0.3-0.4-0.8-0.7-1.2-0.9c-0.6-0.3-1.2-0.6-2-0.9c-0.1,0.4-0.1,0.8-0.2,1.2c-1.1-0.6-2.2-1.2-3.4-1.9c0,0.8,0,1.3,0,1.9
	c-0.5-0.1-0.8-0.2-1.1-0.3c1.1,3.1,2.1,6.3,3.2,9.4c0.2,0.5,0.6,1,1,1.4c0.4,0.5,0.5,0.7-0.2,0.9c-1.7,0.6-3.3,1.1-5.1,0.9
	c-0.1,0-0.3,0-0.6,0.1c1.3,2.7,2.5,5.2,3.7,7.8c0.5,0.9,1.1,1.8,1.4,2.8c0.4,1,0.5,2,0.8,3.1c1.1-0.2,0.9-1.2,1.4-2.1
	c0.6,0.9,1.1,1.7,1.6,2.5c0.3-0.8,0.6-1.6,0.9-2.3c0.1-0.1,0.2-0.4,0.3-0.3c0.8,0.3,0.9-0.6,1.4-0.8c0.1,0.1,0.2,0.2,0.3,0.3
	c0.4-0.4,0.9-0.8,1.3-1.3c0.1,0,0.1,0.1,0.2,0.1c-0.1,0.5-0.2,1-0.3,1.5c0.7-1,1.1-2.1,2.4-2.6c-0.4,1.1-0.8,2.1-1.2,3.2
	c1-0.9,1.7-2.2,3.2-2c-0.8,1-1.6,2-2.5,3.1c0.7-0.3,1.2-0.5,1.7-0.7c0,0,0.1,0.1,0.1,0.1c-0.3,0.4-0.7,0.9-1.1,1.4
	c0.6-0.1,1.1-0.2,1.4-0.2c-1.2,1.3-2.4,2.5-3.5,3.7c0.4,1.9,2,1.9,3.5,2.4c-0.8,0.2-1.6,0.1-1.9,0.5c-0.3,0.3-0.3,1.1-0.4,1.8
	c1,0.1,1.9,0.2,2.9,0.3c-0.4,0.2-0.8,0.4-1.4,0.6c0.7,0.4,1.2,0.7,1.7,1c0,0,0,0.1,0,0.1c-0.3-0.1-0.6-0.2-1.2-0.3
	c0.4,0.4,0.5,0.6,0.8,0.8c7.3,7.2,14.6,14.3,21.9,21.5c1.3,1.2,2.5,2.4,4,3.5c2,1.5,2.9,3.8,4.3,5.7c-2.1-1.2-4.3-2-6-3.8
	c-2.6-2.6-5.3-5.1-8.1-7.6c-4.3-3.8-8.6-7.6-12.9-11.5c-2.1-1.9-4.2-3.8-6.5-5.8c0.1,0.4,0.1,0.7,0.2,0.9c0,0-0.1,0-0.1,0
	c-0.3-0.4-0.6-0.8-1-1.4c-0.2,0.6-0.4,1.1-0.5,1.5c-0.2-0.9-0.3-1.8-0.5-2.7c-1.8,0.3-1.8,0.3-2.2,2.3c-0.5-1.5-0.8-2.9-2.5-3.2
	c-1.1,1.1-2.3,2.4-3.4,3.7c0-0.3,0.1-0.7,0.1-1.3c-0.5,0.4-0.9,0.8-1.3,1.1c-0.1,0-0.1-0.1-0.2-0.1c0.2-0.5,0.4-1.1,0.6-1.8
	c-1,0.9-2,1.8-2.9,2.7c-0.3-1.4,0.8-2.1,1.4-3.1c-0.9,0.4-1.8,0.8-2.8,1.3c0.4-1.3,1.4-2,2.5-2.6c-0.5,0.1-1.1,0.3-1.9,0.5
	c0.5-0.7,0.9-1.2,1.2-1.6c0,0-0.1,0-0.1,0c0.3-0.7,0.4-1.5,0.9-2c0.6-0.6,1.5-0.8,2.3-1.2c-0.4-0.2-0.8-0.3-1.2-0.5
	c-0.4-0.2-0.8-0.6-1.3-0.9c0.7-0.3,1.2-0.6,1.7-0.8c-0.7-0.4-1.4-0.8-1.9-1.3c-0.6-0.5-0.9-1.2-0.3-1.8c-1.7-2-3.3-3.9-4.9-5.8
	c-0.1,0-0.2,0.1-0.3,0.1c0.1,0.6,0.1,1.2,0.2,1.8c0.2,1.4,0.3,2.8,0.6,4.2c0.1,0.6,0.6,1.1,1,1.8c-0.3,0.1-0.8,0.1-1.3,0.2
	c-0.3,1.6,0.8,3.1,0.2,4.7c-0.1,0-0.2,0-0.3,0c-0.2-0.5-0.4-1-0.8-1.7c-1.3,6-3.7,11.5-4.6,17.6c0.6-0.6,1.1-1,1.6-1.5
	c0.1,0.2,0.2,0.4,0.3,0.6c0.1,0,0.2-0.1,0.3-0.1c0.3-0.1,0.7-0.2,1-0.3c0,0.5,0.1,1-0.1,1.3c-0.3,0.5-0.9,0.9-1.4,1.3
	c-0.5,0.4-1,0.7-0.4,1.5c0.3,0.4-0.1,1.1-0.2,1.7c0,0.5-0.1,1,0,1.5c0.2,0.8,0.9,1.6-0.3,2.2c0,0,0,0.1-0.1,0.2
	c-1.2,4.7-2.3,9.4-3.4,14.1c-0.1,0.4,0.1,0.8,0.2,1.4c1-1.5,1.5-1.6,2.7-0.8c0.2,0.1,0.6,0.1,0.8,0.1c1.1-0.3,2.2-0.4,3.2,0
	c0.3,0.1,0.5,0.3,0.8,0.5c-0.2,0.3-0.4,0.7-0.6,0.8c-1.5,0.7-3,1.4-4.5,2c-0.6,0.3-1-0.1-1-0.8c0-0.2,0-0.4,0-0.6
	c-0.1,0-0.2-0.1-0.3-0.1c-0.1,0.3-0.4,0.7-0.4,1c0.2,1.8,0.4,3.7,0.6,5.5c0.2,1.5,0.3,2.9,0.4,4.4c0,0.2-0.3,0.6-0.6,0.7
	c-0.5,0.1-1.1,0.1-1.8,0.2c0.1,0.9-0.3,1.2-1.2,1.3c-1.2,0.1-2.3,0.3-3.5,0.3c-0.2,0-0.6-0.3-0.6-0.5c0-1.1-0.1-2.1,0.1-3.2
	c0.4-2.7,0.9-5.4,1.3-8.2c0.1-0.6-0.4-1.2-0.6-1.8c-0.2,0.1-0.3,0.1-0.3,0.2c-0.4,0.5-0.7,1.2-1.2,1.4c-0.4,0.1-1.1-0.3-1.6-0.6
	c-0.7-0.4-1.4-0.8-2.1-1.2c0.9-1.4,1.9-1.7,3.6-1c1.3-1.2,1.5-1.2,3,0.2c0-0.7,0.1-1.4,0-2c-1-4.2-2.1-8.4-3.3-12.6
	c-0.1-0.3-0.5-0.6-0.9-0.6c-0.7-0.1-0.8-0.4-0.7-0.9c0.1-0.3,0.2-0.7,0.3-1c0.1-0.6,0.2-1.1-0.1-1.7c-0.3-0.5,0-1.5,0.1-2.2
	c0.1,0,0.2-0.1,0.4-0.1c-0.4-0.3-0.9-0.6-1.2-1c-0.5-0.5-0.9-1-1.3-1.6c-0.1-0.2,0.1-0.6,0.2-0.8c0.3,0.1,0.5,0.1,0.8,0.2
	c0.1,0.1,0.2,0.2,0.4,0.3c0.1-0.2,0.2-0.4,0.5-0.8c0.6,0.6,1.1,1.1,1.6,1.6c-0.1-1.3-0.4-2.7-0.9-4c-1.1-2.7-2.2-5.3-3.3-8
	c-0.6-1.7-1.1-3.5-1.6-5.4c-0.2,0.5-0.4,0.9-0.6,1.3c-0.1,0-0.2,0-0.3,0.1c-0.1-0.3-0.2-0.6-0.2-0.9c0.1-1.3,0.3-2.6,0.5-3.9
	c-0.6-0.1-1.1-0.2-1.6-0.3c1.1-0.7,1.3-1.2,1.3-2.3c0-0.7,0.2-1.4,0.3-2.2c0.1-1,0.3-2,0.4-3c0.1-0.7,0-1.2-0.4-1.8
	c-0.6-0.8-0.1-1.6,0.5-2.2c0.5-0.5,0.8-0.9,0.7-1.6c0-0.2,0.3-0.4,0.4-0.6c0.1,0.1,0.2,0.1,0.3,0.2c0.1-0.3,0.1-0.6,0.2-1
	c0.5,0.3,1,0.5,1.5,0.8c0.2-0.4,0.4-0.7,0.5-1c0.3-0.8,0-1.2-0.9-1.3c-1,0-2-0.2-3.1-0.3c-0.6,1.2-1.1,2.5-1.8,3.7
	c-0.1,0.3-0.5,0.4-0.8,0.6c-0.2-1.6-0.3-3.2-0.5-4.8c-0.1,0-0.2,0-0.2,0c0.2,1.6,0.5,3.2,0.7,4.7c0.1,1,0.2,2,0.2,3.1
	c0,0.7,0.4,1.6,0.7,1.6c0.1,1.1,0.4,2.2,0.3,3.3c-0.1,0.7-0.7,1.2-1.2,1.9c0,0.4-0.2,0.9-0.1,1.5c0,0.3,0.4,0.6,0.5,0.8
	c-0.2,1.7-0.3,3.2-0.5,4.8c-0.5,0-0.7,0.4-0.6,1.1c0.2,0.9-0.1,1.9,1,2.4c0.2,0.1,0.3,0.7,0.2,0.9c-0.5,0.8,0.1,1.3,0.3,1.9
	c0.2,0.4,0.3,0.9,0.5,1.3c-0.1,0-0.1,0.1-0.2,0.1c-0.3-0.4-0.5-0.8-0.8-1.1c-0.3-0.2-0.9-0.5-1-0.4c-0.3,0.2-0.5,0.7-0.7,1.1
	c-0.1,0.4-0.1,0.9-0.2,1.4c0,0.5-0.1,0.9-0.1,1.4c0,0.3,0.1,0.6,0.2,1.1c-0.5-0.4-0.8-0.6-1.2-0.8c-0.1,1.2-0.3,2.3-0.4,3.5
	c-0.1,0-0.2,0-0.3,0c-0.2-1.2-0.4-2.4-0.7-3.6c-0.1-0.2-0.2-0.5-0.4-0.7c-0.3-0.3-0.7-0.5-1.2-0.8c-0.2,0.3-0.4,0.6-0.8,1.2
	c0.3-2.1-0.7-3.2-1.9-4.4c-0.7-0.7-1.1-1.9-1.6-2.8c-0.1-0.3-0.2-0.6-0.4-1c-0.3,0.3-0.6,0.5-0.8,0.7c-2.2,2-4.5,4-6.7,6
	c-0.3,0.3-0.6,0.6-0.9,1c-1.2,1.8-2.9,3.1-4.6,4.4c-0.4,0.3-1,0.5-1.5,0.7c0.1-0.2,0.1-0.5,0.2-0.9c-0.3,0.2-0.4,0.3-0.6,0.4
	c0,0-0.1-0.1-0.1-0.1c0.5-1.2,1.3-2.2,2.3-3c0.1,0,0.1-0.1,0.1-0.1c0.2-2,2-1.7,3.2-2.4c0.2-0.1,0.4-0.3,0.6-0.4
	c2.6-2.3,5.2-4.5,7.8-6.8c0.4-0.4,0.4-0.7,0.3-1.2c-0.3-1.1-0.4-2.2-0.7-3.2c-0.3-1.2-0.8-2.4-1.2-3.6c-0.2-0.6-0.3-1.2-0.5-1.9
	c-0.2,0.1-0.5,0.2-0.7,0.4c-4,2.4-8.1,4.8-12.1,7.3c-0.9,0.6-1.7,1.4-2.6,2c-1.5,1-3.1,1.9-4.7,2.7c-0.5,0.3-1.1,0.3-1.8,0.5
	c0.7-0.6,0.6-1.1-0.1-1.6c-0.2-0.1-0.3-0.5-0.3-0.7c0-0.1,0.3-0.3,0.5-0.4c0.4-0.2,0.7-0.4,1.1-0.5c0.2-0.1,0.4-0.3,0.6-0.3
	c1.9-0.6,3.8-1.2,5.6-1.9c0.1,0,0.3-0.1,0.4-0.2c4.3-2.6,8.6-5.2,12.9-7.7c0.1,0,0.1-0.1,0.3-0.2c-0.7-0.4-1.4-0.8-2.4-1.3
	c0.7-0.5,1.2-1,1.8-1.2c0.8-0.3,1-0.8,0.9-1.6c-0.2-0.8-0.8-0.4-1.2-0.5c-0.4-0.1-0.8-0.2-1.2-0.2c-0.7,0-0.8-0.4-0.7-1.1
	c0.5,0,1.1,0,1.6,0c1.1,0.1,1.6-0.4,1.7-1.5c0.1-1.6,0.2-3.2,0.3-5c-1-0.1-2-0.1-3-0.2c-4.2-0.2-8.4-0.5-12.6-0.6
	c-1.1,0-2.3,0.3-3.5,0.4c-1.5,0.2-2.8-0.3-4.3-0.8c0.1-0.2,0.3-0.4,0.4-0.5c-0.3-0.4-0.6-0.7-0.8-1c1-0.6,1.9-0.7,3-0.5
	c2,0.3,4,0.4,5.9,1c2.8,1,5.7,0.6,8.5,0.9c2.1,0.2,4.2,0.3,6.3,0.4c0.1-0.8,0.2-1.7,0.4-2.5c0.6-2.9,1.6-5.5,3.1-8.1
	c0.2-0.4,0.3-1,0.3-1.5c-1.3,0.6-2.8,0.7-3.4,2.3c-0.3,0.7-1.1,1.2-1.8,2c0-1.2-0.6-1-1.1-0.6c-0.9,0.6-1.7,1.3-2.6,1.8
	c-1.3,0.8-2.7,1.6-4.2,2.5c0-0.4,0.1-0.6,0.1-0.8c0.1-0.7-0.2-0.9-0.8-0.5c-1,0.6-1.9,1.3-2.9,2c-0.4,0.3-0.8,0.6-1.4,1.1
	c0.2-1,0.3-1.8,0.4-2.6c-1.1,0.5-1.9,1-2.9,1.3c-0.9,0.3-1.9,0.3-2.8,0.3c-0.2,0-0.4-0.4-0.6-0.7c-0.3,0-0.6,0-1.2,0
	c0.5-0.2,0.9-0.4,1.1-0.5c-0.6-0.6-1.2-1.2-1.9-1.8c-0.6,0.5-1.2,0.3-1.8-0.6c-0.2-0.3-0.6-0.5-0.9-0.8c-0.2-0.2-0.5-0.5-0.6-0.8
	c-0.3-0.9-0.4-1.8-0.6-2.8c-1.1-0.1-1.6-0.8-1.4-2.1c0.1-0.6,0.1-1.1-0.6-1.4c-0.2-0.1-0.4-0.3-0.5-0.5c-0.5-1.3-1-2.6-1.5-4
	c-1,0.2-2.1,0.4-3.3,0.7c-1.3,0.3-1.9,0.1-2.6-1.2c-0.8,0.6-1.8,1.1-2.8,0.5c-0.7-0.4-1.6-0.6-2.2-1.3c0-0.1-0.2-0.1-0.3,0
	c-1.4,0.4-2.7-0.4-4-0.7c-0.7-0.2-1.3-0.5-1.3-1.4c-1.2-0.1-2.4-0.3-3.9-0.4c0.4-0.2,0.5-0.3,0.8-0.4c-0.3,0-0.5,0-0.7,0
	c-1.2,0.3-2.2-0.2-3.3-0.8c-0.6-0.3-0.6-0.7,0-1.1c0.4-0.3,0.9-0.5,1.4-0.9c-1.6-0.4-3.2-0.7-4.8-1.1c0-0.1,0-0.1,0-0.2
	c0.3,0,0.5-0.1,1-0.1c-0.9-0.4-1.5-0.6-2.2-0.9c-1.2-0.6-1.3-0.9-0.4-2c-0.3-0.1-0.6-0.1-1-0.2c0.1-0.2,0.2-0.3,0.5-0.5
	c-0.6-0.2-1.2-0.3-1.7-0.5c-1.8-0.4-3.2-1.4-4.6-2.9c1.7-0.1,3.2-0.3,4.7-0.4c0-0.1,0.1-0.2,0.1-0.3c-2.5-0.8-5.2-1.3-6.8-3.9
	c2.8-0.1,5.4-0.2,7.5-0.3c-1.5-0.7-3.5-1.6-5.4-2.4c0-0.1,0-0.3,0-0.4C1.5,17.4,2.4,17,3.4,17c6.2-0.2,12.3-1.2,18.5-0.7
	c1.5,0.1,2.9,0.2,4.4,0.2c0.6,0,1.2-0.2,1.8-0.3c1.9-0.2,3.7,0,5.4,0.8c0.2,0.1,0.4,0.2,0.6,0.1c1.4-0.4,2.7,0,4,0.5
	c2.9,1.1,5.8,1.5,9,1c2-0.3,4,0,6.1,0.1c0.9,0,1.7,0.2,2.6,0.3c2.6,0.2,3.8,2.2,4.9,4.1c0.3,0.6,0.5,1.3,0.7,2
	c0.4,2.1,0.8,4.2,1.2,6.3c0.2,1,0.4,1.9,0.5,3c0,0,0.2,0,0.2,0c0.2,0.8,0.1,1.7,0.6,2.2c0.7,0.7,0.3,1.5,0.6,2.2
	c0.2,0.5,0.6,0.9,0.9,1.4c0.4-1.2,1.4-0.1,2.1-0.4c0,0.3,0,0.5,0,0.8c0.1,0,0.2,0,0.2,0c1.2-1.1,2.8-1.6,4.3-2.1
	c2.7-0.9,4.9-2.5,6.8-4.5c1.2-1.3,2.6-1.9,4.4-2.1c0.1,2.1,1.1,3.9,2.4,5.7c0.5-0.4,1-0.8,1.7-1.4c0.2,1,0.3,2,0.4,2.8
	c1.4-1,1.8-2.4,1-4c-0.7-1.3-1.3-2.7-1.8-4.1c-0.2-0.7,0-1.4-0.1-2.2c0-0.2-0.1-0.4-0.2-0.6c-0.2-0.5-0.3-1-0.5-1.5
	c0.2-0.1,0.5-0.2,0.8-0.3c0.1-0.7,0.2-1.4,0.3-2.1c-0.5,0.8-1.3,1.4-1,2.5c-0.4-0.9-0.2-1.6,0.3-2.4c0.6-0.9,1.1-1.8,1.7-2.7
	c0.6-0.8,1.3-1.4,1.9-2.1c-0.6,0.8-1.6,1.4-1.5,2.5c0.1,0.1,0.2,0.2,0.3,0.3c0.5-0.6,1-1.3,1.6-1.9c1.1-0.6,2.3-1.2,3.4-1.7
	c0-0.1,0-0.2-0.1-0.3c-0.7,0.2-1.4,0.4-2.2,0.6c-0.1-0.1-0.2-0.1-0.2-0.2c1.1-0.6,2.2-1.1,3.6-0.5c0.8,0.4,1.9,0.3,2.8,0.6
	c0.6,0.2,1,0.7,1.5,1.2c1.1,1.2,2.6,1.7,4.2,1.8c1.7,0,2.4-1.3,1.8-2.9c-0.2-0.5,0-1.1,0-1.6c0-0.1-0.1-0.2-0.2-0.3l-0.1-0.1
	c1.3-1.1,2.6-1.4,4.3-1c1,0.2,2.1-0.1,3.2,0.1c1.2,0.1,2.2,0.2,2.7-1.2c2.1-1.2,5.2-1.4,6.3,1.8c0.3,0.9,0.6,1.7,1.1,2.5
	c0.3,0.4,0.9,0.9,1.4,0.8c0.7-0.1,0.8-0.8,0.8-1.4c0,0,0-0.1,0.2-0.1C124.8,19.1,124.8,19.7,124.8,20.2c-1.6,0.8-2.5-0.1-3.3-1.3
	c-0.5-0.7-0.9-1.5-1.3-2.2c-0.7-1.1-2.7-1.6-4-0.6c0.2,0.4,0.4,0.8,0.5,1.3c0.3,0.8,0.3,0.9-0.3,1c0-0.1,0.1-0.3,0.2-0.6
	c-1.7,1.3-3.1-0.4-4.9,0.1c1,0.3,1.8,0.5,2.6,0.7c-0.3,0.1-0.6,0-0.9,0c-1.3-0.2-2.5-0.4-3.8-0.4c-0.4,0-1.1,0.4-1.2,0.8
	c-0.1,0.3,0.2,1.1,0.6,1.3c1,0.5,0.6,1.1,0.3,1.7c-0.2,0.5-0.6,0.8-0.9,1.2c0.4-0.1,0.7-0.3,1-0.6c0.1-0.2,0.1-0.5,0.3-0.7
	c1.7-2.1,4-2.6,6.5-2.5c0.2,0,0.5,0.4,0.7,0.6c1.7,1.3,3,2.9,3.9,4.9c0.1,0,0.1-0.1,0.2-0.1c-0.4-1.1-0.9-2.2-1.3-3.3
	c0.1,0,0.1-0.1,0.2-0.1c0.6,1.3,1.3,2.5,1.9,3.8C122.3,23.2,123.6,21.7,124.8,20.2z M112.3,20.7c0.3-0.1,0.6-0.3,1-0.3
	c0.8,0,1.6,0,2.4,0c0.3,0,0.5-0.2,0.8-0.3c0-0.1-0.1-0.3-0.1-0.4c-1.3,0.2-2.6,0.3-3.9,0.5c-0.3,0-0.5,0.5-0.7,0.8
	c-0.1,0.1-0.1,0.2-0.4,0.5c1.5-0.8,2.8-0.6,4.1-0.1c0.8,0.3,1.8,0.4,2.7,0.5c0-0.1,0.1-0.2,0.1-0.2c-0.5-0.3-0.9-0.8-1.4-0.8
	C115.3,20.7,113.8,20.7,112.3,20.7z M99.4,34.6c-0.2,0-0.5,0-0.7,0.1c-0.4,0.1-0.7,0.4-1.1,0.5c0-0.1-0.1-0.1-0.1-0.2
	c0.2-0.1,0.5-0.3,0.8-0.5c-0.4-0.1-0.6-0.2-0.6-0.2c0.2-0.4,0.7-0.8,0.6-1.1c-0.2-0.5-0.7-0.9-1.1-1.1c-0.2-0.1-0.6,0.2-0.9,0.3
	c0,0.1,0.1,0.2,0.1,0.3c0.2,0,0.5,0,0.8,0c-1.6,0.9-1.9,2.4-2.1,3.8c-0.2,1.1,0.6,2.1,1.6,3c0.2-1,0.4-1.9,0.5-2.7
	c0.3,0.2,0.5,0.3,0.8,0.5C98.5,36.4,99,35.5,99.4,34.6c0.1-0.3,0.2-0.5,0.3-0.8c0.4-1.4,0.2-1.7-1.3-1.7
	C98.8,32.9,99.1,33.8,99.4,34.6z M120.3,33.8c-0.9,0.4-1.7,1-2.5,1c-1.7,0.2-3.5,0-5.2,0c0,0,0,0,0,0c0.7-0.1,1.4-0.2,2.1-0.2
	c0-0.1,0.1-0.3,0.1-0.4c-0.9-0.3-1.7-0.7-2.6-1c-1.2-0.4-2.2-1-3-2c-1.4-1.7-3.2-2.8-4.7-0.2c0.2,0.2,0.4,0.5,0.6,0.7
	c-0.5-0.1-0.7-0.4-1.1-0.7c-0.2-0.1-0.6-0.2-0.7-0.2c-0.7,0.3-1.3,0.7-2.2,1.1c1.7,0.4,2.8,1.5,3.9,2.5c1.7,1.4,3.5,2.7,5.4,3.7
	c1.7,0.8,3.7,1.1,5.3,2.6c0-0.4,0.1-0.6,0.1-0.9c0.8,0.2,1.7-0.7,2.2,0.6c0-0.2,1.4-3.4,1.4-3.5C119.7,36.1,120,35,120.3,33.8z
	 M112.1,26.8c-0.3-0.8-0.7-1-1.4-0.7c-0.9,0.4-1.7,1.4-2.9,0.7c-0.1-0.1-0.4,0.2-0.8,0.3c1.2,0.1,2.1,0.3,3.1,0.4
	c-0.1,0.1-0.2,0.1-0.2,0.1c0.7,0.7,1.5,1.4,2.2,2.1c0.8,0.8,1.5,1.8,2.8,1.9c1.6,0.1,3.1,0.2,4.6-0.5c0.4-0.2,1.1-0.2,1.2-0.5
	c0.3-0.9,0.5-1.9,0.7-2.9c-2.3,0.2-3.6-0.9-4.3-2.8c-0.2-0.6-0.7-1.1-1.1-1.6c-0.5-0.5-2.2-0.8-2.8-0.4c-0.6,0.4-1.3,2.2-1.1,2.9
	c0.3,1.3,0.1,1.5-1.4,1.5C111.3,27.1,111.6,26.9,112.1,26.8z M101.5,63.7c0.8-0.1,0.8-0.1,0.8,0.5c0,0.3-0.1,0.6,0.1,0.8
	c0.5,0.9,0.8,2,1.5,2.6c1.3,1.3,2.5,2.9,4.7,3.3c-1.4-1.8-2.6-3.4-3.9-5c-1.2-1.6-2.3-3.3-3.6-5.2c-0.4,0.2-1.3,0.3-1.8,0.8
	c-0.3,0.3,0.2,1.2,0.3,1.9c0.7-0.4,1.2-0.6,1.7-0.9C101.5,63.1,101.5,63.3,101.5,63.7z M118,32.5c-1.2-0.2-2.4-0.2-3.4-0.6
	c-1-0.4-1.9-1.1-2.7-1.6C112.8,33.1,116.2,34.3,118,32.5z M120.5,32.3c-1.5,0.8-3,1.6-4.3,2.3C117.9,35,120.2,33.9,120.5,32.3z
	 M119.6,26.3c0.1-0.1,0.2-0.2,0.3-0.3c-0.4-0.3-0.8-0.5-1.1-0.8c-0.3-0.3-0.6-0.6-0.8-1c-0.6-1-0.5-1.1-1.8-1.2
	C117.5,23.9,117.9,25.8,119.6,26.3z M108.3,28.5c1.1,0.8,2,1.4,3,2.2C111,29.1,109.9,28.3,108.3,28.5z M101.4,22.1
	c-1.3-0.8-2.5-1.5-3.8-2.4C98.3,21.4,99.8,21.7,101.4,22.1z M118.3,80c0.1,1.1,0.7,1.2,1.8,0.6C119.9,79.9,119.9,79.9,118.3,80z
	 M118.3,26.2c0.6,0.9,1.9,1.3,3.2,0.8C120.4,26.7,119.3,26.4,118.3,26.2z M119.5,81c-0.4,0.3-0.6,0.5-0.9,0.6
	c0.4,0.3,0.7,0.6,1.1,0.8c0.1,0,0.5-0.3,0.5-0.4C120,81.7,119.8,81.4,119.5,81z M116.7,84.6c0-0.7,0.1-1.3,0.1-1.9
	c-0.1,0-0.2-0.1-0.4-0.1c-0.2,0.2-0.4,0.4-0.5,0.7C115.7,83.8,115.9,84.2,116.7,84.6z M117.9,82.7c-0.9,0.6-0.8,1.1-0.3,1.5
	c0.2,0.1,0.5,0,0.8,0C118.2,83.7,118.1,83.2,117.9,82.7z M111.4,32.9c0.1-0.1,0.2-0.2,0.3-0.3c-0.8-0.7-1.7-1.5-2.5-2.2
	c-0.1,0.1-0.2,0.2-0.2,0.3C109.8,31.4,110.6,32.1,111.4,32.9z M106,18.6c0.3-0.7,0.7-1.4,1-2.2C105.8,16.7,105.5,17.6,106,18.6z
	 M92.1,76.8c0.2,0.7,0.4,1.3,0.6,2.2c0.1-0.9,0.2-1.5,0.4-2.3C92.8,76.7,92.5,76.7,92.1,76.8z M77.4,85.6c0.2-0.1,0.4-0.2,0.5-0.2
	c-0.3-0.5-0.5-1.1-0.8-1.6c-0.1,0-0.2,0.1-0.4,0.1C77,84.4,77.2,85,77.4,85.6z M75.8,89.2c0.8-0.6,0.8-0.8-0.3-1.9
	C75.7,88,75.7,88.6,75.8,89.2z"/>
</svg>
