<?xml version="1.0" encoding="utf-8"?>
<!-- Generator: Adobe Illustrator 27.9.0, SVG Export Plug-In . SVG Version: 6.00 Build 0)  -->
<svg version="1.1" id="Layer_1" xmlns="http://www.w3.org/2000/svg" xmlns:xlink="http://www.w3.org/1999/xlink" x="0px" y="0px"
	 viewBox="0 0 100 100" style="enable-background:new 0 0 100 100;" xml:space="preserve">
<g>
	<path d="M67,25.6c-0.3-0.5-0.7-1-1.1-1.4c-0.4-0.4-0.9-0.8-1.5-1.1L27.5,60.9l2.6,2.5L67,25.6z"/>
	<path d="M6.1,79.2l-1.3,1.4l6.3,6.1l3.6-3.7c-0.5,0-1.1-0.1-1.6-0.2C10.6,82.3,8.4,81,6.1,79.2z"/>
	<path d="M10.6,88.2l-7.3-7.1c-0.4-0.4-1.1-0.4-1.5,0c-0.2,0.2-0.3,0.5-0.3,0.8s0.1,0.6,0.3,0.7l7.3,7.1c0.4,0.4,1.1,0.4,1.5,0
		c0.2-0.2,0.3-0.5,0.3-0.8C10.9,88.6,10.8,88.4,10.6,88.2z"/>
	<path d="M67.6,19.5c0,0.2-0.1,0.4-0.2,0.5l-1.9,2c0.5,0.3,1,0.7,1.4,1.1c0.4,0.4,0.8,0.9,1.2,1.4l1.9-2c0.3-0.3,0.7-0.3,1,0
		l1.7,1.6l3-10.1l-10,3.2l1.7,1.6C67.5,19.2,67.6,19.3,67.6,19.5z"/>
	<path d="M54.8,30.9l8.6-8.8c-2.6-3.9-5.9-7-9.9-8.9c-3.9-2-8.4-3-13.7-3.2c4.4,2.7,7.9,5.9,10.4,9.4C52.6,22.9,54.2,26.7,54.8,30.9
		z"/>
	<path d="M10.4,74.8l-3.3,3.3c2.8,2.2,5.4,3.6,9,3.4l3.1-3.2c-0.7,0-1.3-0.1-2-0.2C14.9,77.7,12.7,76.6,10.4,74.8z"/>
	<path d="M31.5,66.8l-7.3-7.1c-0.2-0.2-0.3-0.2-0.5-0.3c-0.3-0.1-0.7,0-1,0.3c-0.2,0.2-0.3,0.5-0.3,0.8c0,0.3,0.1,0.6,0.3,0.7
		l7.3,7.1c0.4,0.4,1.1,0.4,1.5,0c0.2-0.2,0.3-0.5,0.3-0.8C31.8,67.2,31.7,67,31.5,66.8z"/>
	<path d="M65.1,62c1.1,0.2,3.2,0.3,5.8-0.2c3.7-0.7,9.3-2.7,15-8.6c5.8-5.9,7.6-11.6,8.2-15.3c0.4-2.7,0.2-4.7,0-5.8
		c-8.6,4-18.2,2.1-26.3-5.4L59,35.9C66.7,43.8,68.9,53.4,65.1,62z"/>
	<path d="M14.5,70.6l-3.1,3.2c3.1,2.4,5.9,3.4,9.2,3.1l2.8-2.9c-0.7,0-1.4-0.1-2.1-0.2C18.9,73.4,16.7,72.3,14.5,70.6z"/>
	<path d="M98.4,37.4c0.3-3.4-0.2-6.1-0.5-7.4c-0.8,0.5-1.6,1-2.4,1.5c0.2,1,0.6,3.4,0.1,6.6C95,42.1,93.1,48,87,54.3
		c-6.1,6.2-12,8.3-15.9,9c-3.2,0.6-5.6,0.3-6.6,0.1c-0.4,0.8-0.9,1.6-1.4,2.4c1.3,0.3,4,0.7,7.5,0.3c4.6-0.5,11.5-2.7,18.5-9.8
		C96.1,49.1,98,42,98.4,37.4z"/>
	<path d="M18.4,66.6l-2.8,2.9c3,2.3,5.9,3.3,9.3,3l2.9-3c-1,0-2-0.1-3-0.3C22.5,68.9,20.3,68,18.4,66.6z"/>
	<path d="M22.2,62.7l-2.8,2.9c2.6,1.7,5.4,2.5,8.4,2.5L22.2,62.7z"/>
</g>
</svg>
