<?xml version="1.0" encoding="utf-8"?>
<!-- Generator: Adobe Illustrator 27.9.0, SVG Export Plug-In . SVG Version: 6.00 Build 0)  -->
<svg version="1.1" id="Layer_1" xmlns="http://www.w3.org/2000/svg" xmlns:xlink="http://www.w3.org/1999/xlink" x="0px" y="0px"
	 viewBox="0 0 100 100" style="enable-background:new 0 0 100 100;" xml:space="preserve">
<path d="M95,49l-12.1-5.8c-0.4-0.2-0.8-0.1-1.1,0.1c-0.3,0.2-0.5,0.6-0.5,1v4.6H65.1v-15c0-0.5-0.3-0.9-0.8-1.1l0,0
	c-15.5-5.3-26.6-29.8-26.7-30c-0.2-0.5-0.8-0.8-1.3-0.7c-0.3,0.1-0.6,0.3-0.8,0.6l0,0L14,43.5H5.5c-0.5,0-0.9,0.3-1.1,0.8
	c-0.2,0.5,0,1,0.3,1.3L10,50l-5.3,4.4c-0.4,0.3-0.5,0.8-0.3,1.3c0.2,0.5,0.6,0.8,1.1,0.8H14l21.5,40.9l0,0c0.2,0.3,0.4,0.5,0.8,0.6
	c0.1,0,0.2,0,0.2,0c0.4,0,0.9-0.3,1.1-0.7c0.1-0.2,11.2-24.7,26.7-30l0,0c0.5-0.2,0.8-0.6,0.8-1.1v-15h16.2v4.6c0,0.4,0.2,0.8,0.5,1
	c0.2,0.1,0.4,0.2,0.6,0.2c0.2,0,0.3,0,0.5-0.1L95,51c0.4-0.2,0.7-0.6,0.7-1S95.4,49.2,95,49z M8.6,54.2l3.6-3h8.5l-3.6,3H8.6z
	 M52.6,65.6c-2.8,1.9-15.1,10.9-17,27.1l-19-36.2h1c0.3,0,0.5-0.1,0.7-0.3l6-5h28.3V65.6z M52.6,48.8H24.3l-6-5
	c-0.2-0.2-0.5-0.3-0.7-0.3h-1l19-36.2c1.9,16.2,14.2,25.2,17,27.1V48.8z M83.6,54v-2.8h5.9L83.6,54z"/>
</svg>
