<?xml version="1.0" encoding="utf-8"?>
<!-- Generator: Adobe Illustrator 27.9.0, SVG Export Plug-In . SVG Version: 6.00 Build 0)  -->
<svg version="1.1" id="Layer_1" xmlns="http://www.w3.org/2000/svg" xmlns:xlink="http://www.w3.org/1999/xlink" x="0px" y="0px"
	 viewBox="0 0 100 100" style="enable-background:new 0 0 100 100;" xml:space="preserve">
<path d="M68.5,50.6c-0.1-2.7,5-9.4,5-9.4l-1.3-6.8c0,0-6.3-3.7-7.3-5.8c-1-2.2,0.2-9.8,0.2-9.8s-3.1-6.3-5-7.5
	c-1.7-1.1-5.9-1.5-7.9-1.1c-1.5,0.3-4.2,1.6-5.4,2.5c-0.9,0.7-2.5,2.2-3.2,3c-0.8,1-2.5,3-3.1,4.1c-0.4,0.9-1.1,3-1,4
	c0.1,0.8,0.7,2.3,1.2,3.5c-0.7,1-2.7,4.3-4,4.2c-1.1,0-3-3-3-3s0-3.7-0.9-4.5c-0.4-0.3-2,0-2,0l-3.5,10.1l-1.4,17.2L28.4,70l2.1,6.2
	c0,0,2.2,0.8,2.7,0.4c1.1-0.8,0.9-5.5,0.9-5.5s2.2-2.3,3.2-2.4c1.2-0.1,3.3,1.8,3.9,2.9c0.6,1.2,0,4.2,0,5.6
	c-0.1,1.2,0.1,3.8,0.5,4.9c0.4,1,2,2.7,2.8,3.4c1.3,1.1,4.4,2.6,6,3.2c1.3,0.5,4.2,1,5.7,1.2c1.1,0.1,3.4-0.1,4.4-0.7
	c2-1.3,5.5-7.8,5.5-7.8S64.3,75,65,72.9c0.9-2.6,7.7-7.6,7.7-7.6l1.1-6.1C73.9,59.3,68.6,53.2,68.5,50.6z M48.1,17.3
	c3.6-3,8.7-2.8,11.3,0.4c2.6,3.2,1.8,8.2-1.8,11.2c-3.6,3-8.7,2.8-11.3-0.4C43.7,25.3,44.5,20.3,48.1,17.3z M39.4,63.8
	c0,0-6.3-2.7-6.8-13.5c-0.5-10.9,7.9-14.2,7.9-14.2s5.1-0.4,6.1,0.7c1.1,1.2,0.2,6.4,0.2,6.4s2.3,4.8,2.4,6.6
	c0.1,1.9-1.9,7.4-1.9,7.4s0.8,5.2-0.3,6.3C45.6,64.9,39.4,63.8,39.4,63.8z M58,82.8c-2.9,2.4-7.4,1.7-10-1.6
	c-2.7-3.2-2.6-7.8,0.3-10.2c2.9-2.4,7.4-1.7,10,1.6C61,75.9,60.9,80.4,58,82.8z M68,62.1c-1.1,3.7-5.4,5.6-9.6,4.3
	c-4.2-1.3-6.6-5.3-5.5-9c1.1-3.7,5.4-5.6,9.6-4.3C66.7,54.4,69.1,58.4,68,62.1z M61.2,48.1c-4.6,0.7-8.8-2-9.4-6.1
	c-0.6-4,2.6-7.9,7.2-8.6c4.6-0.7,8.8,2,9.4,6.1C69,43.5,65.8,47.4,61.2,48.1z"/>
</svg>
