<?xml version="1.0" encoding="utf-8"?>
<!-- Generator: Adobe Illustrator 27.9.0, SVG Export Plug-In . SVG Version: 6.00 Build 0)  -->
<svg version="1.1" id="Layer_1" xmlns="http://www.w3.org/2000/svg" xmlns:xlink="http://www.w3.org/1999/xlink" x="0px" y="0px"
	 viewBox="0 0 100 100" style="enable-background:new 0 0 100 100;" xml:space="preserve">
<g>
	<circle cx="4.3" cy="95.7" r="3.8"/>
	<path d="M28.2,92l1.2-1.2C21.8,84,15,77.3,9.1,70.4l-1.3,1.2C14,78.8,20.8,85.6,28.2,92z"/>
	<path d="M8.2,93.6l10.4-9.3c-1.1-0.7-2.1-1.6-2.9-2.9L6.3,91.6C7.5,92.1,7.9,92.8,8.2,93.6z"/>
	<path d="M23.4,83.8c0,0,62-63.9,67-69c5.1-5.2,9.1-14.3,9.1-14.3s-9.3,4-14.3,9.1c-5.1,4.9-69.1,66.9-69.1,66.9
		C18.2,79.3,20.7,81.8,23.4,83.8z M19.8,77.2l52.3-49.4L21,79C20.4,78.6,20,78.1,19.8,77.2z"/>
</g>
</svg>
