<?xml version="1.0" encoding="utf-8"?>
<!-- Generator: Adobe Illustrator 27.9.0, SVG Export Plug-In . SVG Version: 6.00 Build 0)  -->
<svg version="1.1" id="Layer_1" xmlns="http://www.w3.org/2000/svg" xmlns:xlink="http://www.w3.org/1999/xlink" x="0px" y="0px"
	 viewBox="0 0 100 100" style="enable-background:new 0 0 100 100;" xml:space="preserve">
<g>
	<polygon points="45.5,31.4 48.5,27.1 48.6,25.3 29.7,23.8 39,37.2 	"/>
	<polygon points="56.9,9.7 59.7,5.1 42.8,1.5 50.8,16.7 	"/>
	<polygon points="83.7,18 82.3,20.7 79.4,29.2 78.7,32.4 96.5,28.9 	"/>
	<polygon points="71.2,41.7 61.9,49.7 61.8,50.6 78,54.8 73,41.2 	"/>
	<polygon points="72,39.4 71.9,39.4 76.1,33.4 79.4,21.6 82,15.7 81.8,11.5 78,3.5 68,1 61.9,5.4 59.7,9.1 52.1,18.2 52.1,18.2 
		50.3,25.5 50,28.3 45.1,34.8 39.9,39.4 19.8,72.1 3.5,92.8 9.8,99 36.5,71 60.2,50 60.6,48.2 70.4,39.9 	"/>
</g>
</svg>
