<?xml version="1.0" encoding="utf-8"?>
<!-- Generator: Adobe Illustrator 27.8.1, SVG Export Plug-In . SVG Version: 6.00 Build 0)  -->
<svg version="1.1" id="Layer_1" xmlns="http://www.w3.org/2000/svg" xmlns:xlink="http://www.w3.org/1999/xlink" x="0px" y="0px"
	 viewBox="0 0 100 100" style="enable-background:new 0 0 100 100;" xml:space="preserve">
<path d="M46.7,64c0.9,0.9,0.9,2.3,0,3.2c-0.9,0.9-2.3,0.9-3.2,0l-5.8-5.8L32,55.6c-0.9-0.9-0.9-2.3,0-3.2c0.9-0.9,2.3-0.9,3.2,0
	l5.8,5.8L46.7,64z M34.9,60.5c-1.1-1.1-3-1.1-4.1,0c-1.1,1.1-1.1,3,0,4.1l3.8,3.8c1.1,1.1,3,1.1,4.1,0c1.1-1.1,1.1-3,0-4.1
	L34.9,60.5z M30.2,65.2c-1.1-1.1-3-1.1-4.1,0c-1.1,1.1-1.1,3,0,4.1l3.8,3.8c1.1,1.1,3,1.1,4.1,0c1.1-1.1,1.1-3,0-4.1L30.2,65.2z
	 M25.5,69.9c-1.1-1.1-3-1.1-4.1,0c-0.6,0.6-0.9,1.5-0.8,2.3c1.6,0.1,3.2,0.7,4.5,2c1.2,1.2,1.9,2.8,2,4.5c0.8,0.1,1.7-0.2,2.3-0.8
	c1.1-1.1,1.1-3,0-4.1L25.5,69.9z M16.4,75.4c-2,2-2,5.3,0,7.4c2,2,5.3,2,7.4,0c2-2,2-5.3,0-7.4C21.8,73.3,18.5,73.3,16.4,75.4z
	 M38.2,53.1l3.5,3.5l33.5-32.7L42.5,57.4l3.5,3.5l31.2-31.2l7.7-15.5L69.4,22L38.2,53.1z"/>
</svg>
