<?xml version="1.0" encoding="utf-8"?>
<!-- Generator: Adobe Illustrator 27.9.0, SVG Export Plug-In . SVG Version: 6.00 Build 0)  -->
<svg version="1.1" id="Layer_1" xmlns="http://www.w3.org/2000/svg" xmlns:xlink="http://www.w3.org/1999/xlink" x="0px" y="0px"
	 viewBox="0 0 100 100" style="enable-background:new 0 0 100 100;" xml:space="preserve">
<g>
	<rect x="17.7" y="79" transform="matrix(0.7071 -0.7071 0.7071 0.7071 -55.7051 39.3237)" width="3.9" height="15.7"/>
	<path d="M12.7,93.9c1.5,1.5,4,1.5,5.6,0l-5.6-5.6C11.1,89.8,11.1,92.3,12.7,93.9z"/>
	<path d="M72.9,46.7L72.5,47l-4.7,2.5c-3.5,1.9-6.7,4.3-9.6,7.1c-1.6,1.6-3,3.3-4.3,5.1L50,67.2l3.7,3.7l0.3-0.7
		c1.9-4.4,4.6-8.4,8-11.8c3.4-3.4,7.4-6.1,11.8-8l3.1-1.3c10.4-10.6,14.2-26,9.9-40.3L85.5,5L85,5.8C88.2,20.6,83.7,35.9,72.9,46.7z
		"/>
	<polygon points="33.5,67.5 21,80 26.6,85.5 39.1,73 48.8,82.7 54.3,77.2 29.3,52.2 23.8,57.7 	"/>
	<path d="M50.7,59.4c1.4-2,3-3.9,4.7-5.6c3.1-3.1,6.6-5.7,10.5-7.8l4.4-2.4c8.9-9,13-21.3,11.3-33.7l-7.3,9.5
		c-3.1,4.1-6.5,8-10.2,11.6L63.4,32c-8.3,8.3-17.7,15.2-28,20.6l11.8,11.8L50.7,59.4z"/>
</g>
</svg>
