<?xml version="1.0" encoding="utf-8"?>
<!-- Generator: Adobe Illustrator 27.9.0, SVG Export Plug-In . SVG Version: 6.00 Build 0)  -->
<svg version="1.1" id="Layer_1" xmlns="http://www.w3.org/2000/svg" xmlns:xlink="http://www.w3.org/1999/xlink" x="0px" y="0px"
	 viewBox="0 0 100 100" style="enable-background:new 0 0 100 100;" xml:space="preserve">
<g>
	<path d="M51.2,11.9c1.7,1.6,3.4,3,5.1,4.5c1.6,1.3,3.2,2.6,4.6,4c3,2.6,5.5,5.8,7.4,9.3c0.8,1.7,1.4,3.4,1.8,5.3
		c0.1,0.3,0.1,0.5,0.1,0.8c2.3-0.3,4.4,1.4,4.7,3.6c0.2,1.9-1.1,3.6-3,3.9c-0.1,0-0.2,0-0.4,0c-1.4,0-2.7-1.1-2.8-2.5
		c-0.2-1.3,0.8-2.5,2.1-2.7c1.1-0.1,2.1,0.6,2.3,1.7c0,0.3-0.1,0.5-0.4,0.5c-0.3,0-0.5-0.1-0.5-0.4c0,0,0,0,0,0
		c-0.1-0.6-0.6-1-1.2-0.9c-0.8,0.1-1.4,0.8-1.2,1.6c0,0,0,0,0,0c0.1,1.1,1.1,1.8,2.2,1.7c1.4-0.2,2.4-1.4,2.2-2.8
		c-0.2-1.8-1.9-3.1-3.7-2.8c0,0,0,0,0,0c-2.2,0.8-3.3,3.2-2.5,5.4c0.8,2.2,3.2,3.3,5.4,2.5c1.7-0.6,2.8-2.2,2.8-3.9c0,0,0-0.1,0-0.1
		c0,0,0,0,0-0.1c-0.1-2.2-0.4-4.3-1-6.4c-0.6-2.1-1.4-4.2-2.6-6.1c-2.4-3.8-5.4-7.2-9-9.9c-1.7-1.3-3.4-2.6-5.1-3.9
		c-1.8-1.3-3.6-2.6-5.3-4c-1.6-1.3-3.1-2.7-4.3-4.3c-1.2-1.5-2.1-3.3-2.6-5.1C46,0.3,45.6,0,45.2,0c0,0-0.1,0-0.1,0
		c-0.2,0-0.5,0.2-0.6,0.4c-0.1,0.2-0.2,0.4-0.1,0.6c0.4,2.1,1.3,4.2,2.5,6C48.1,8.8,49.6,10.4,51.2,11.9z"/>
	<path d="M58.3,85.9c1.7-1.2,3.4-2.5,5.1-3.9c3.6-2.7,6.6-6.1,9-9.9c1.1-1.9,2-4,2.6-6.1c0.6-2.1,0.9-4.3,1-6.4c0,0,0,0,0-0.1
		c0,0,0-0.1,0-0.1c0-1.8-1.1-3.3-2.8-3.9c-2.2-0.8-4.6,0.3-5.4,2.5c-0.8,2.2,0.3,4.6,2.5,5.4c0,0,0,0,0,0c1.8,0.2,3.4-1,3.7-2.8
		c0.2-1.4-0.8-2.7-2.2-2.8c-1.1-0.1-2,0.6-2.2,1.7c0,0,0,0,0,0c-0.1,0.8,0.5,1.5,1.2,1.6c0.6,0.1,1.1-0.3,1.2-0.9
		c0-0.3,0.3-0.4,0.5-0.4c0.3,0,0.4,0.3,0.4,0.5c-0.1,1.1-1.2,1.9-2.3,1.7c-1.3-0.2-2.2-1.4-2.1-2.7c0.2-1.4,1.4-2.5,2.8-2.5
		c0.1,0,0.2,0,0.4,0c1.9,0.3,3.2,2,3,3.9c-0.3,2.3-2.4,3.9-4.7,3.6c0,0.3-0.1,0.5-0.1,0.8c-0.4,1.8-1,3.6-1.8,5.3
		C66.5,73.9,64,77,61,79.6c-1.5,1.4-3.1,2.7-4.6,4c-1.7,1.4-3.5,2.9-5.1,4.5c-1.6,1.5-3.1,3.1-4.3,5c-1.2,1.8-2.1,3.8-2.5,6
		c0,0.2,0,0.4,0.1,0.6c0.1,0.2,0.4,0.3,0.6,0.4c0,0,0.1,0,0.1,0c0.4,0,0.8-0.3,0.9-0.6c0.5-1.9,1.4-3.6,2.6-5.1
		c1.3-1.6,2.7-3.1,4.3-4.3C54.7,88.5,56.6,87.2,58.3,85.9z"/>
	<polygon points="82.2,51.1 82.2,49.5 4.7,49.5 4.7,51.1 81.7,51.1 	"/>
	<polygon points="82.9,51.1 82.9,51.8 84.9,53.5 97.1,50.3 84.9,47.1 82.9,48.7 82.9,49.5 	"/>
	<polygon points="19.3,51.8 5.4,51.8 2.9,53.8 16.8,53.8 	"/>
	<polygon points="16.8,46.7 2.9,46.7 5.4,48.7 19.3,48.7 	"/>
	<path d="M9,54.6H7.9l37,40.6c0.1-0.3,0.3-0.6,0.4-0.9L9,54.6z"/>
	<path d="M45.1,5.3L8.2,46l1.2,0L45.6,6.2C45.4,5.9,45.3,5.6,45.1,5.3z"/>
	<path d="M69.7,45.2c-0.2,1.2-0.4,2.3-0.4,3.5H73c0.1-1.2,0.2-2.3,0.5-3.4C72.3,45.7,70.9,45.7,69.7,45.2z"/>
	<path d="M69.7,54.8c1.2-0.5,2.6-0.5,3.8-0.1c-0.2-1-0.4-1.9-0.4-2.9h-3.7C69.4,52.8,69.6,53.8,69.7,54.8z"/>
</g>
</svg>
