<?xml version="1.0" encoding="utf-8"?>
<!-- Generator: Adobe Illustrator 27.9.0, SVG Export Plug-In . SVG Version: 6.00 Build 0)  -->
<svg version="1.1" id="Layer_1" xmlns="http://www.w3.org/2000/svg" xmlns:xlink="http://www.w3.org/1999/xlink" x="0px" y="0px"
	 viewBox="0 0 100 100" style="enable-background:new 0 0 100 100;" xml:space="preserve">
<g>
	<path d="M1.3,82c0,0-2.3,2.6,0.7,5.5s5.5,0.7,5.5,0.7l1.7-1.7L3,80.3L1.3,82z"/>
	<rect x="23.8" y="31.3" transform="matrix(0.7071 -0.7071 0.7071 0.7071 -9.479 48.4956)" width="59.9" height="8.7"/>
	<rect x="29.6" y="54.3" transform="matrix(0.7071 -0.7071 0.7071 0.7071 -32.4407 38.9845)" width="2.5" height="8.7"/>
	<path d="M71.5,80.8l8.7,4.9l-6-7.6c1.3-1.7,2.1-3.6,2.5-5.5l10.3-4.1l-10.1-0.1c-0.1-0.8-0.3-1.6-0.5-2.3c0.6,0.1,1.3,0,1.8-0.5
		c0.2-0.2,0.3-0.4,0.4-0.6c0.4,0.3,1,0.5,1.6,0.4l3.4-0.6c0.3-0.1,0.5-0.2,0.8-0.3c0.9,0.2,1.8-0.2,2.3-1l1.6-3
		c0.1-0.1,0.1-0.2,0.2-0.4l2.7-2.1c0.2-0.2,0.4-0.4,0.6-0.7c0.5-0.1,0.9-0.3,1.2-0.7l2.1-2.7c0.2-0.3,0.3-0.6,0.4-0.9
		c0.3-0.2,0.5-0.5,0.6-0.8l1.2-3.2c0.1-0.3,0.2-0.7,0.1-1l1.8-2.8c0.3-0.5,0.4-1,0.3-1.5c0-0.1-0.1-0.2-0.1-0.3
		c0-0.1,0.1-0.1,0.1-0.2c0.2-0.5,0.3-1,0.1-1.5l-1.1-3.3c-0.1-0.4-0.3-0.6-0.6-0.9c0-0.4-0.2-0.8-0.5-1.2L95,33.5
		c-0.1-0.2-0.3-0.3-0.5-0.4c0,0,0,0,0,0c-0.1-0.5-0.3-1-0.8-1.3L91,29.6c0,0-0.1,0-0.1,0c0-0.1-0.1-0.2-0.2-0.3l-1.6-2.8l1.1-2.9
		c0.1-0.3,0.1-0.6,0.1-1c0.1-0.1,0.2-0.3,0.3-0.4l1.6-3c0.3-0.6,0.3-1.2,0-1.8c0-0.1,0.1-0.1,0.1-0.2c0.2-0.5,0.2-1,0-1.5l-1.3-3.2
		c-0.1-0.4-0.4-0.6-0.7-0.8c-0.1-0.4-0.3-0.8-0.6-1.1l-2.5-2.4C87,7.7,86.5,7.5,86,7.5c-0.1,0-0.2,0-0.3,0c-0.1,0-0.1-0.1-0.2-0.1
		C85.1,7,84.6,6.9,84,7l-3.4,0.4c-0.5,0.1-1,0.3-1.3,0.7c-0.2,0.3-0.4,0.6-0.4,1c-0.7-0.2-1.5-0.1-2.1,0.5c-0.1,0.1-0.2,0.2-0.3,0.3
		c-2.2-0.9-3.7,0.7-3.7,0.7l6.2,6.2c0,0,1.4-1.8,0.3-4.1c0.1-0.1,0.2-0.2,0.3-0.3c0.2-0.2,0.3-0.4,0.4-0.6c0.3,0.2,0.7,0.3,1.1,0.2
		l3.2-0.4l2.2,2.2c0,0,0.1,0.1,0.1,0.1c0,0.1,0,0.2,0.1,0.3l1.2,3L86.5,20c-0.2,0.4-0.3,0.8-0.2,1.2c-0.2,0.2-0.3,0.4-0.4,0.7
		l-1.2,3.2c-0.2,0.6-0.1,1.3,0.2,1.8c0,0.1-0.1,0.1-0.1,0.2c-0.1,0.5-0.1,1.1,0.2,1.5l1.7,3c0.1,0.2,0.2,0.3,0.3,0.4
		c0.1,0.1,0.3,0.2,0.5,0.3c0.1,0.3,0.2,0.6,0.5,0.9c0.1,0.1,0.1,0.1,0.2,0.2l2.7,2.1c0,0,0.1,0,0.1,0.1c0,0.4,0.2,0.8,0.5,1.1
		l2.3,2.6c0,0,0.1,0.1,0.1,0.1c0,0,0,0,0,0c0,0.1,0,0.2,0,0.3l1,3l-1.7,2.6c-0.3,0.4-0.4,0.9-0.3,1.4c-0.1,0.1-0.1,0.2-0.2,0.3
		l-1.2,3.2c0,0.1,0,0.2-0.1,0.3c-0.1,0.1-0.2,0.2-0.3,0.3l-2.1,2.7c-0.1,0.1-0.1,0.2-0.2,0.3c-0.3,0.1-0.6,0.2-0.8,0.4l-2.7,2.1
		c-0.4,0.3-0.6,0.7-0.7,1.1c-0.3,0.2-0.5,0.4-0.6,0.7L83,60c-0.1,0-0.2,0-0.3,0l-3.4,0.6c-0.5,0.1-1,0.4-1.3,0.8
		c-0.2,0.2-0.3,0.5-0.3,0.8c-0.8-0.4-1.7-0.3-2.4,0.3c-0.1,0.1-0.2,0.2-0.3,0.4c-0.6-1-1.3-2-2.2-2.9c-0.1-0.1-0.3-0.2-0.4-0.4
		l3.6-9.3l-6.7,7.1c-2.1-1.1-4.5-1.6-6.8-1.5l-4.4-10.2L58.3,57c-1.8,0.7-3.5,1.7-4.9,3.1c-0.3,0.3-0.6,0.6-0.8,0.9l-9.7-4l7.5,7.5
		c-0.9,2.2-1.3,4.7-1,7.1l-10.2,4.8l11.4-0.6c0.7,1.4,1.5,2.6,2.7,3.8c1,1,2.2,1.9,3.4,2.5L55,93.1l5.9-9.6
		C64.6,84.1,68.4,83.2,71.5,80.8z M83.9,62.7c-0.4-0.2-0.5-0.7-0.3-1l0.1-0.2c0.1,0.1,0.1,0.2,0.2,0.3l0.1,0.7
		C83.9,62.6,83.9,62.7,83.9,62.7L83.9,62.7z M85.2,63.1c0-0.2,0.1-0.5,0-0.7L85,61.7c-0.1-0.5-0.4-0.9-0.8-1.2L85,59
		c0,0,0,0.1,0.1,0.1l0.4,0.5c0,0.1,0.1,0.1,0.2,0.2c0.3,0.3,0.7,0.5,1.1,0.5l-1.3,2.4C85.4,62.9,85.3,63,85.2,63.1z M92,52.4
		c0.2,0.2,0.4,0.3,0.7,0.5l0.6,0.2c0.1,0.1,0.3,0,0.4,0.1l-1.9,2.5c0,0-0.1,0.1-0.1,0.1c-0.1-0.2-0.2-0.5-0.4-0.7l-0.4-0.5
		c-0.2-0.2-0.4-0.4-0.6-0.5l1.4-1.9C91.8,52.2,91.9,52.3,92,52.4z M92.7,51.2c0.2,0,0.4,0,0.5,0.2l0.5,0.4c0,0,0.1,0.1,0.1,0.1
		c0,0-0.1,0-0.1,0l-0.6-0.2C92.9,51.6,92.8,51.4,92.7,51.2z M88.7,55.2c0.1,0.3,0.2,0.7,0.5,0.9c0.1,0.1,0.1,0.1,0.2,0.2l0.5,0.4
		c0.1,0.1,0.1,0.1,0.2,0.1l-2,1.6c-0.2-0.4-0.5-0.7-0.8-0.9l-0.6-0.3c-0.1-0.1-0.3-0.1-0.4-0.2L88.7,55.2z M87.1,59.1
		c-0.1,0-0.1,0-0.2,0c-0.2,0-0.4-0.1-0.5-0.3l-0.4-0.5c0,0,0.1,0,0.1,0l0.6,0.3c0.1,0,0.1,0.1,0.2,0.1C87.1,58.9,87.1,59,87.1,59.1z
		 M96.5,46.4c-0.2-0.1-0.3-0.2-0.5-0.3l-0.6-0.2c-0.3-0.1-0.7-0.1-1-0.1l1.3-2c0.1,0.1,0.2,0.2,0.3,0.2c0.5,0.2,1,0.3,1.5,0.1
		l0.6-0.2c0,0.1-0.1,0.2-0.1,0.3L96.5,46.4z M95.7,47.4c-0.2,0.1-0.5,0.1-0.7-0.1L94.5,47c0.1,0,0.3,0,0.4,0l0.6,0.2
		C95.6,47.3,95.7,47.4,95.7,47.4z M96.4,42.8c0.1,0,0.1-0.1,0.2-0.1c0.2,0,0.4,0,0.6,0.1l0.1,0.1L97.1,43c-0.2,0.1-0.4,0-0.6,0
		C96.4,42.9,96.4,42.8,96.4,42.8z M98.2,41.8c0,0.1,0,0.2,0,0.3l-0.4-0.3c-0.5-0.3-1-0.4-1.5-0.3c-0.2,0-0.3,0.1-0.4,0.2l-0.6-1.8
		c0.5,0,0.9-0.2,1.3-0.5l0.5-0.5c0.1,0,0.1-0.1,0.1-0.2L98.2,41.8z M93.7,35.1l0.4-0.5c0,0,0-0.1,0.1-0.1l2,2.3
		c-0.1,0-0.3,0-0.4,0.1l-0.7,0.2c-0.4,0.1-0.7,0.4-1,0.7l-1.7-2C92.9,35.7,93.4,35.5,93.7,35.1z M95.5,38.3l0.6-0.2l-0.4,0.4
		c-0.2,0.2-0.4,0.2-0.6,0.2C95.2,38.4,95.3,38.3,95.5,38.3z M93,32.7L93,32.7C93,32.7,93,32.8,93,32.7c0.1,0.1,0.1,0.1,0.1,0.1
		c-0.3,0.1-0.7,0.2-0.9,0.4l-0.5,0.5c-0.1,0.1-0.3,0.3-0.4,0.4L89,32.5c0.1,0,0.3-0.1,0.4-0.2L90,32c0.4-0.2,0.6-0.5,0.8-0.9
		L93,32.7z M89.2,30.8c0.1-0.2,0.3-0.3,0.6-0.3c-0.1,0.2-0.2,0.3-0.3,0.4l-0.6,0.3L89.2,30.8z M86.8,26.7l0.2-0.1
		c0.2-0.1,0.5-0.1,0.7,0c-0.1,0.1-0.1,0.1-0.2,0.1c-0.2,0.1-0.4,0.1-0.6,0L86.8,26.7z M89.7,21.3c-0.2-0.1-0.4-0.3-0.6-0.4l-0.6-0.2
		c-0.3-0.1-0.6-0.1-0.9-0.1c0,0,0,0,0-0.1l1.2-2.2c0.1,0.1,0.2,0.1,0.4,0.2c0.5,0.2,1,0.2,1.5,0l0.6-0.2c0,0.1,0,0.2-0.1,0.3
		L89.7,21.3z M89.5,17.2c0.1,0,0.1-0.1,0.2-0.1c0.2-0.1,0.4,0,0.6,0.1l0.1,0.1l-0.2,0.1c-0.2,0.1-0.4,0.1-0.6,0
		C89.6,17.3,89.6,17.3,89.5,17.2z M91.3,16.1c0,0.1,0,0.2,0.1,0.2l-0.5-0.2c-0.5-0.3-1-0.3-1.5-0.1c-0.2,0-0.3,0.1-0.4,0.2l-0.7-1.8
		c0.5,0,0.9-0.2,1.2-0.6l0.5-0.5c0.1-0.1,0.1-0.1,0.1-0.2L91.3,16.1z M88.3,12.8l0.6-0.3l-0.4,0.4c-0.2,0.2-0.4,0.2-0.6,0.2
		C88,13,88.1,12.8,88.3,12.8z M86.5,9l2.3,2.3c-0.1,0-0.3,0.1-0.4,0.1l-0.6,0.3c-0.4,0.2-0.7,0.4-0.9,0.8l-1.3-1.2
		c0.1-0.1,0.2-0.2,0.3-0.3c0.3-0.4,0.5-0.9,0.4-1.5l-0.1-0.6C86.4,8.8,86.4,8.9,86.5,9z M84.8,10c0-0.2,0.1-0.4,0.2-0.5l0.1-0.1
		l0,0.2c0,0.2,0,0.4-0.2,0.6c0,0-0.1,0.1-0.1,0.1C84.8,10.1,84.8,10.1,84.8,10z M78.1,11c-0.2-0.2-0.4-0.3-0.5-0.5
		c0,0,0-0.1,0.1-0.1c0.3-0.3,0.8-0.3,1.1,0c0.3,0.3,0.3,0.8,0,1.1c0,0-0.1,0-0.1,0.1C78.5,11.4,78.3,11.2,78.1,11z M81,10.8L81,10.8
		c-0.2,0-0.4,0-0.6-0.2c-0.2-0.1-0.3-0.3-0.3-0.5l-0.1-0.7c0-0.2,0-0.4,0.2-0.6c0.1-0.2,0.3-0.3,0.5-0.3l3.4-0.4c0.1,0,0.2,0,0.3,0
		l-0.4,0.4C83.7,9,83.5,9.5,83.5,10c0,0.2,0,0.3,0.1,0.5L81,10.8z M87,22.4c0.1,0.1,0.2,0.2,0.3,0.3L88,23c0.3,0.2,0.7,0.3,1.1,0.2
		l-0.9,2.3c-0.6-0.3-1.3-0.3-1.9,0l-0.5,0.3c0-0.1,0-0.2,0-0.3L87,22.4z M86.1,28c0-0.1-0.1-0.2-0.1-0.2l0.5,0.2
		c0.5,0.2,1,0.2,1.5,0c0.1-0.1,0.3-0.1,0.4-0.2l0.9,1.7c-0.4,0.1-0.9,0.3-1.2,0.7l-0.4,0.5c0,0.1-0.1,0.1-0.1,0.2L86.1,28z M93.7,48
		C93.7,48,93.8,48,93.7,48l0.7,0.4c0.4,0.3,0.9,0.4,1.4,0.3l-0.9,2.4c-0.1-0.1-0.2-0.2-0.3-0.3L94,50.4c-0.3-0.2-0.7-0.4-1.1-0.4
		L93.7,48z M79.5,61.9l2.8-0.5c-0.3,0.7-0.1,1.6,0.4,2.1c0,0,0,0,0,0l-2.9,0.5c-0.4,0.1-0.8-0.2-0.9-0.6l-0.1-0.7
		c0-0.2,0-0.4,0.1-0.6C79.2,62,79.3,61.9,79.5,61.9z M77.3,63.5c0.3,0.3,0.3,0.8,0,1.1c-0.3,0.3-0.8,0.3-1.1,0
		c-0.3-0.3-0.3-0.8,0-1.1C76.5,63.2,77,63.2,77.3,63.5z"/>
	<polygon points="17.1,66.2 29.5,66.2 30.7,65 18.4,65 	"/>
	<polygon points="14.6,68.7 27,68.7 28.2,67.5 15.9,67.5 	"/>
	<polygon points="20.9,62.5 19.6,63.7 32,63.7 32.2,63.5 31.1,62.5 	"/>
	<polygon points="26.1,57.5 25.8,57.5 24.6,58.7 27.4,58.7 	"/>
	<polygon points="12.1,71.2 24.5,71.2 25.7,69.9 13.4,69.9 	"/>
	<polygon points="28.6,60 23.3,60 22.1,61.2 29.9,61.2 	"/>
	<polygon points="7.1,76.2 19.5,76.2 20.7,74.9 8.4,74.9 	"/>
	<polygon points="10.1,85.6 10.7,84.9 9.4,84.9 	"/>
	<polygon points="8.2,83.7 12,83.7 13.2,82.4 6.9,82.4 	"/>
	<polygon points="5.7,81.2 14.5,81.2 15.7,79.9 4.4,79.9 	"/>
	<polygon points="9.6,73.7 22,73.7 23.2,72.4 10.9,72.4 	"/>
	<polygon points="4.6,78.7 17,78.7 18.2,77.4 5.9,77.4 	"/>
</g>
</svg>
