<?xml version="1.0" encoding="utf-8"?>
<!-- Generator: Adobe Illustrator 27.9.0, SVG Export Plug-In . SVG Version: 6.00 Build 0)  -->
<svg version="1.1" id="Layer_1" xmlns="http://www.w3.org/2000/svg" xmlns:xlink="http://www.w3.org/1999/xlink" x="0px" y="0px"
	 viewBox="0 0 100 100" style="enable-background:new 0 0 100 100;" xml:space="preserve">
<g>
	<path d="M25.4,79.5c-0.6-0.6-1.4-0.7-2-0.1l0,0L13.1,89.8c0,0-5.1,4.3-8.1,6.9H4.9c0.4,0.9,0.3,2-0.3,2.5c-1,1-2.9,0.7-3.9-0.8
		c-0.4-0.8-0.6-1.8-0.2-2.4c0.7-1.2,2-1.4,3.1-0.8c2.4-3,6.8-8.2,6.8-8.2l10.3-10.5c0.4-0.4,0.4-1.3-0.1-1.9c-1.7-1.8-5.2-5.5-8-7.3
		l1.1-1.1l8.4,8.3c0.3-0.3,2.8-2.8,6.4-6.4c-0.4-0.7-1.5-2.3-2.2-3.3c-0.8-1.2-1.5-3-1.5-3l4.8,4.6c2.2-3,4.4-3.9,7.3-5.4
		c3.3-1.7,6.1-6.1,6.1-6.1s1.7-5.2,6.5-6.4s6.1-6.1,6.1-6.1s1.7-5.2,6.5-6.4s6.1-6.1,6.1-6.1s1.7-5.2,6.5-6.4
		c4.9-1.3,6.1-6.1,6.1-6.1s1.7-5.2,6.5-6.5c3.7-1,5.2-3.9,5.9-5.3C93.4,5,93.8,4.5,94.2,4c1.1-1.2,1.7-1.5,2.4-2.2
		c1.4-1.1,3-1.5,3-1.5s-0.6,1.3-2,2.7c-0.8,0.8-0.7,0.6-1.4,1.7c-0.6,0.8-1.1,1.5-1.4,2.3c-0.7,1.5-2.3,4.2-5.6,5.1
		c-4.8,1.3-6.4,6.5-6.4,6.5s-1.2,4.9-6.1,6.2c-4.8,1.3-6.4,6.6-6.4,6.6s-1.2,4.9-6,6.2c-4.8,1.3-6.4,6.6-6.4,6.6s-1.2,4.9-6,6.2
		c-4.8,1.3-6.4,6.6-6.4,6.6s-3,5.4-5.6,7.2c-1.4,0.9-3.9,3.2-6.5,5.8l5,5c0,0-1.8-0.7-3-1.4c-1.1-0.7-2.8-1.8-3.4-2.3
		c-3.9,4-6.3,6.5-6.3,6.5s7.5,7.5,9,8.9c-0.2,0.2-0.8,1-1.1,1.3C31.4,85.2,27.4,81.4,25.4,79.5z"/>
</g>
</svg>
