<?xml version="1.0" encoding="utf-8"?>
<!-- Generator: Adobe Illustrator 27.9.0, SVG Export Plug-In . SVG Version: 6.00 Build 0)  -->
<svg version="1.1" id="Layer_1" xmlns="http://www.w3.org/2000/svg" xmlns:xlink="http://www.w3.org/1999/xlink" x="0px" y="0px"
	 viewBox="0 0 100 100" style="enable-background:new 0 0 100 100;" xml:space="preserve">
<g>
	<path d="M11.5,78.7c-0.5,0.6-0.7,1.4-0.4,2.1l2.5,7.1c0.5,1.5,1.7,2.6,3.2,3l2.4,0.7c0.2,0,0.4,0,0.6,0l4.2,0.9
		c0.9,0.2,1.8-0.3,2.1-1.2c0.1-0.4,0.1-0.8-0.1-1.2l-1.2-2.5l12.1-12.1l-0.7-2c-0.5-1.3-0.1-2.7,0.8-3.7c1.4-1.4,3.7-1.4,5.2,0
		c0,0,0,0,0,0l0.2,0.2l3.2-3.2l-11-11L11.5,78.7z"/>
	<path d="M77.7,16.2c-0.3,0.1-0.5,0.3-0.8,0.4c-1.6,0.7-3.4,1.3-5.1,1.7L35.6,54.5l1.9,1.9L77.7,16.2z"/>
	<path d="M88.3,7.5c-1.5,2-3.3,3.8-5.3,5.4L38.6,57.4l10.9,10.8l-0.7-6.3l3-3l-0.3-4l5.3,0.4l-0.4-5.3l5.3,0.4L61.4,45l5.3,0.4
		L66.4,40l4,0.3l12.9-12.9c2.4-2.4,4.1-5.3,5.1-8.5C89.4,15.2,89.4,11.2,88.3,7.5z"/>
</g>
</svg>
