<?xml version="1.0" encoding="utf-8"?>
<!-- Generator: Adobe Illustrator 27.9.0, SVG Export Plug-In . SVG Version: 6.00 Build 0)  -->
<svg version="1.1" id="Layer_1" xmlns="http://www.w3.org/2000/svg" xmlns:xlink="http://www.w3.org/1999/xlink" x="0px" y="0px"
	 viewBox="0 0 100 100" style="enable-background:new 0 0 100 100;" xml:space="preserve">
<g>
	<path d="M59.9,9.5c0-0.1,0.1-0.1,0.1-0.2c0.4-0.4,0.9-0.8,1.4-1.2l-2.5-3l0.6,5L59.9,9.5z"/>
	<path d="M89,14l3.8-5.3l-6,2.7c0,0,0,0,0.1,0.1C87.6,12.2,88.4,13.1,89,14z"/>
	<polygon points="82,43.5 86,46.3 84.3,41.9 	"/>
	<polygon points="55.1,68.6 55.6,61.8 52.5,64 	"/>
	<polygon points="31.2,52.5 24.5,54.5 29,55.9 	"/>
	<path d="M15.7,82l-8,8.2l2,2.1l8-8.2c-0.4-0.3-0.8-0.6-1.1-0.9C16.2,82.8,15.9,82.4,15.7,82z"/>
	<path d="M4.6,90.5c-0.4-0.4-0.9-0.6-1.4-0.6c-0.5,0-1,0.2-1.4,0.6l-0.5,0.5c-1.3,1.3-1.3,3.4,0,4.7l2.9,3c1.2,1.2,3.3,1.2,4.5,0
		l0.4-0.4c0.8-0.8,0.8-2.1,0-2.9L4.6,90.5z"/>
	<path d="M85,34.4c-0.2,0-0.4,0-0.6-0.1c-0.1,0-0.2,0-0.3,0c-0.9-0.2-1.7-0.7-2.2-1.6c-0.9-1.4-1.1-3.5-0.7-5.6
		c0.8-3.5,3.3-5.9,5.7-5.4c0.1,0,0.2,0,0.3,0.1c0.3,0,0.6,0.1,0.8,0.3l2.8,1.5c-0.8-3.7-2.6-7.3-5.6-10.4c-2.1-2.1-4.6-3.8-7.2-4.8
		l0.3,6.7c0,0.3,0,0.6-0.1,0.9c0,0.1,0,0.2-0.1,0.3c-0.5,2.1-2.7,3.4-5.5,3.4c-0.5,0-1.1-0.1-1.6-0.2c-2-0.4-3.7-1.4-4.6-2.8
		c-0.6-0.9-0.8-1.9-0.6-2.9c0-0.1,0-0.2,0.1-0.3c0-0.3,0.1-0.6,0.3-0.8l2.9-5.4c-2.8,0.5-5.4,1.7-7.3,3.7l-6.3,9.4l2.4-0.2
		c0.3,0,0.6,0,0.9,0.1c0.1,0,0.2,0,0.3,0c0.9,0.2,1.7,0.7,2.2,1.6c0.9,1.4,1.2,3.5,0.7,5.6c-0.7,3.2-2.9,5.5-5.1,5.5
		c-0.2,0-0.4,0-0.6-0.1c-0.1,0-0.2,0-0.3-0.1c-0.3,0-0.6-0.1-0.8-0.2l-5.7-3l-5.2,7.8l1.7-0.3c0.3-0.1,0.6,0,0.9,0
		c0.1,0,0.2,0,0.3,0c0.9,0.1,1.7,0.6,2.4,1.4c1,1.3,1.4,3.4,1.1,5.5c-0.5,3.4-2.6,5.9-4.9,5.9c-0.1,0-0.2,0-0.3,0
		c-0.1,0-0.2,0-0.3,0c-0.3,0-0.6-0.1-0.9-0.2l-6.4-2.7L17.4,77.4c-0.8,1.1-0.4,2.9,0.7,4.1c1.2,1.2,2.9,1.5,4,0.8l18.5-12.9
		l-3.5-11.1C37,58,37,57.7,37,57.5c0-0.1,0-0.2,0-0.3c0-0.9,0.4-1.8,1.1-2.5c1.2-1.2,3.1-1.9,5.3-1.8c3.6,0.1,6.4,2,6.5,4.5
		c0,0.1,0,0.2,0,0.3c0,0.3,0,0.6-0.1,0.9l-1.6,5.6l10.5-7.3l-3.5-4.1c-0.2-0.2-0.3-0.5-0.4-0.8c-0.1-0.1-0.1-0.2-0.1-0.2
		c-1-2.2,0.8-5.3,3.9-6.9c1.9-1,4-1.2,5.6-0.6c1,0.4,1.7,1,2.1,1.8c0,0.1,0.1,0.1,0.1,0.3c0.1,0.3,0.2,0.5,0.3,0.8l0.5,3.9l5.8-4
		l-8-9.9c-0.2-0.2-0.3-0.5-0.4-0.8c-0.1-0.1-0.1-0.2-0.1-0.3c-0.9-2.3,0.9-5.2,4.1-6.8c1.9-0.9,4-1.1,5.6-0.5c1,0.4,1.7,1,2,1.9
		c0,0.1,0.1,0.2,0.1,0.3c0.1,0.3,0.2,0.5,0.3,0.8l1.3,11.9l9.6-6.6c0.9-0.9,1.6-2,2.2-3.1l-4.3,0.4C85.1,34.4,85,34.4,85,34.4z"/>
	<path d="M86.4,23.9c-1-0.1-2.5,1.4-3,3.7c-0.4,1.8-0.1,3.1,0.4,3.8c0.2,0.3,0.5,0.5,0.8,0.6c0.1,0,0.2,0,0.3,0c0.1,0,0.2,0,0.3,0.1
		l14.4-1.4L86.9,24C86.7,24,86.6,23.9,86.4,23.9z"/>
	<path d="M68.2,13.8c0,0.1,0,0.2-0.1,0.3c-0.1,0.4,0,0.7,0.2,1.1c0.5,0.8,1.7,1.5,3.1,1.8c2.3,0.4,4.2-0.4,4.5-1.5c0,0,0,0,0,0
		c0-0.1,0-0.2,0-0.3c0-0.1,0-0.2,0.1-0.2L75.3,0.5l-7.2,13.2C68.2,13.7,68.2,13.8,68.2,13.8z"/>
	<path d="M56.6,30.6c1,0.2,2.5-1.4,3-3.7c0.4-1.8,0.1-3.2-0.4-3.8c-0.2-0.3-0.5-0.5-0.7-0.6h-0.1c-0.1,0-0.1,0-0.2,0
		c-0.1,0-0.2,0-0.3-0.1l-14.5,1.5l12.6,6.7C56.3,30.5,56.5,30.5,56.6,30.6z"/>
	<path d="M66.7,35.4c0,0.1,0.1,0.2,0.1,0.3l9,11.1L74.2,32c-0.1-0.1-0.1-0.2-0.1-0.3c0,0,0-0.1,0-0.1c-0.1-0.3-0.4-0.5-0.7-0.6
		c-0.9-0.4-2.4-0.2-3.7,0.5c-2.2,1-3.4,2.9-2.9,3.8c0,0,0,0,0,0C66.6,35.3,66.7,35.4,66.7,35.4z"/>
	<path d="M63.4,46.4c-1-0.3-2.4-0.1-3.7,0.5c-2.1,1.1-3.3,2.9-2.9,3.9c0.1,0.1,0.1,0.2,0.1,0.2c0,0.1,0.1,0.2,0.1,0.3l9.3,10.9
		l-1.9-14.7c-0.1-0.1-0.1-0.2-0.2-0.3c0,0,0-0.1,0-0.1c0,0,0,0,0,0C64,46.7,63.8,46.5,63.4,46.4z"/>
	<path d="M45.5,47.5c1.1,0.1,2.4-1.6,2.8-3.9c0.2-1.5,0-2.9-0.7-3.8c-0.2-0.3-0.5-0.5-0.8-0.5c0,0,0,0,0,0c-0.1,0-0.2,0-0.3,0
		c-0.1,0-0.2,0-0.3-0.1l-14.3,2.7L45,47.4C45.1,47.4,45.3,47.4,45.5,47.5z"/>
	<path d="M43.4,55.1c-1.5,0-2.9,0.4-3.6,1.1c-0.3,0.3-0.4,0.6-0.4,0.9c0,0,0,0,0,0c0,0.1,0,0.2,0,0.3c0,0.1,0,0.2,0,0.3l4.4,13.9
		l3.8-13.7c0-0.2,0-0.3,0-0.5C47.6,56.3,45.7,55.2,43.4,55.1z"/>
</g>
</svg>
