<?xml version="1.0" encoding="utf-8"?>
<!-- Generator: Adobe Illustrator 27.9.0, SVG Export Plug-In . SVG Version: 6.00 Build 0)  -->
<svg version="1.1" id="Layer_1" xmlns="http://www.w3.org/2000/svg" xmlns:xlink="http://www.w3.org/1999/xlink" x="0px" y="0px"
	 viewBox="0 0 100 100" style="enable-background:new 0 0 100 100;" xml:space="preserve">
<g>
	<path d="M98.9,1c-0.2,0.1-0.3,0.2-0.5,0.3C93.9,4,89.3,6.7,84.8,9.4c-6.7,3.9-12.9,8.4-18.4,13.9C51.6,38.1,36.8,52.9,22,67.7
		c-0.1,0.1-0.1,0.2-0.1,0.2c1.2,1.2,2.3,2.3,3.5,3.5c0.1-0.1,0.3-0.2,0.4-0.3c5.1-4.2,10.2-8.4,15.3-12.6c0.2-0.1,0.3-0.3,0.5-0.4
		c0.1,0,0.2,0,0.3,0c0,0.1,0,0.2,0,0.3c0,0.1-0.1,0.2-0.2,0.3c-4.1,4.9-8.1,9.9-12.2,14.8c-0.3,0.4-0.6,0.8-0.8,1
		c1.2,1.2,2.3,2.4,3.5,3.6c0.4-0.4,0.7-0.8,1.1-1.2c14.1-14.1,28.3-28.3,42.4-42.4c5.4-5.4,10.1-11.4,14-17.9
		c2.7-4.5,5.3-8.9,8-13.4C98.1,2.5,98.6,1.8,98.9,1C99,1.1,98.9,1,98.9,1z"/>
	<path d="M18.6,77.3c-3.4,3.4-6.8,6.8-10.3,10.3c1.8,0.9,3.2,2.3,4.1,4.1c3.5-3.5,6.9-6.9,10.3-10.3c4,2.8,8.1,3.2,12.3,1.1
		C29.2,76.6,23.3,70.8,17.5,65C16,67.6,15.2,72.7,18.6,77.3z"/>
	<path d="M7.5,88.2C6.8,88,6,87.9,5.3,88c-2.5,0.3-4.4,2.9-4.3,5.5c0.1,3.7,3.4,6.2,7,5.3c3.2-0.8,4.9-3.8,3.6-6.8
		C10.8,90.2,9.4,88.9,7.5,88.2z M8.7,94.6c-0.4,0.9-1.2,1.3-2.1,1.3c-1.2,0-2.1-0.7-2.4-1.7c-0.3-1,0.1-2.2,0.9-2.8
		c0.5-0.4,1.1-0.5,1.7-0.2c0.5,0.3,1,0.6,1.4,1C8.8,93,9.1,93.7,8.7,94.6z"/>
</g>
</svg>
