<?xml version="1.0" encoding="UTF-8"?>
<svg id="Layer_1" xmlns="http://www.w3.org/2000/svg" version="1.1" viewBox="0 0 100 100">
  <!-- Generator: Adobe Illustrator 29.4.0, SVG Export Plug-In . SVG Version: 2.1.0 Build 152)  -->
  <path d="M64.8,59.7c-2.9-2.6-5.2-4.8-5.5-8.8h3.6v4.4l12.2-5.3-12.3-5.3v4.4h-3.6c.3-4.1,2.6-6.2,5.5-8.8,3.3-3,7.4-6.7,7.4-13.9s-4.1-10.9-7.4-13.9c-3.1-2.8-5.6-5.1-5.6-9.7.1-1.6-1.1-2.8-2.7-2.8s-1.5.3-2,.8-.8,1.2-.8,2,.1,2,.2,2.8L10.4,49.1l-.9.9.9.9,43.4,43.4c0,1-.2,1.9-.2,2.9,0,1.5,1.2,2.8,2.8,2.8s2.8-1.2,2.8-2.8c0-4.7,2.5-6.9,5.6-9.7,3.3-3,7.4-6.7,7.4-13.9s-4.1-10.9-7.4-13.9ZM54.2,7c1.2,4.5,4.3,7.3,6.9,9.7,3.1,2.8,5.6,5.1,5.6,9.7s-2.5,6.9-5.6,9.7c-3.2,2.9-7,6.4-7.4,12.9H12.1L54.2,7ZM61,83.3c-2.6,2.3-5.7,5.2-6.9,9.7L12.1,50.9h41.6c.3,6.6,4.2,10.1,7.3,13,3.1,2.8,5.6,5.1,5.6,9.7s-2.5,6.9-5.6,9.7Z"/>
</svg>