<?xml version="1.0" encoding="utf-8"?>
<!-- Generator: Adobe Illustrator 27.9.0, SVG Export Plug-In . SVG Version: 6.00 Build 0)  -->
<svg version="1.1" id="Layer_1" xmlns="http://www.w3.org/2000/svg" xmlns:xlink="http://www.w3.org/1999/xlink" x="0px" y="0px"
	 viewBox="0 0 100 100" style="enable-background:new 0 0 100 100;" xml:space="preserve">
<g>
	<path d="M55.4,39.8c0.6-0.5,1.4-1.2,2.4-2.1l-5.5-5.5l-1.7,1.7C52.9,35.1,54.6,37.2,55.4,39.8z"/>
	<path d="M60.2,44.5c2.5,0.8,4.6,2.6,5.9,4.9l1.7-1.7l-5.5-5.5C61.5,43.2,60.7,44,60.2,44.5z"/>
	<path d="M99.2,0.8L99.2,0.8L99.2,0.8c0.2-0.2,0.3-0.3,0.3-0.3C87.4,7,75.9,14.6,65.2,23.1c0,0,1.2,3.8-2.1,10.1
		c4.3-3.5,6.2-4.7,7.2-4.9l0,0c0.7-0.3,1.4-0.7,1.9-1.2l15.1-14.3l0,0L72.9,27.8c-0.5,0.5-0.9,1.2-1.2,1.9l0,0
		c-0.2,1-1.4,2.9-4.9,7.1c6.2-3.3,10.1-2.1,10.1-2.1C85.4,24,93,12.6,99.5,0.5C99.5,0.5,99.4,0.6,99.2,0.8z"/>
	<path d="M54.6,49.9c-1.8-1.1-3.3-2.7-4.4-4.4c-0.1-0.2-0.5-0.3-0.7-0.2c-0.2,0.1-0.3,0.5-0.2,0.7c0,0,0,0,0,0
		c1.2,1.9,2.8,3.5,4.8,4.8c0.2,0.1,0.5,0.1,0.7-0.2C54.8,50.4,54.8,50.1,54.6,49.9C54.6,49.9,54.6,49.9,54.6,49.9z"/>
	<path d="M70.7,29.3c-1-1-14.4,10.9-15.4,11.9l-4.2,3.9c0.5,0.7,1,1.4,1.7,2c0.6,0.6,1.3,1.2,2,1.7l3.9-4.2
		C59.7,43.7,71.6,30.3,70.7,29.3z"/>
	<path d="M49,47.4L0.5,95.9c0.5,0.7,1,1.4,1.6,2c0.6,0.6,1.3,1.1,2,1.6L52.6,51C51.1,50.1,49.8,48.9,49,47.4z"/>
</g>
</svg>
