<?xml version="1.0" encoding="utf-8"?>
<!-- Generator: Adobe Illustrator 27.9.0, SVG Export Plug-In . SVG Version: 6.00 Build 0)  -->
<svg version="1.1" id="Layer_1" xmlns="http://www.w3.org/2000/svg" xmlns:xlink="http://www.w3.org/1999/xlink" x="0px" y="0px"
	 viewBox="0 0 100 100" style="enable-background:new 0 0 100 100;" xml:space="preserve">
<path d="M0.8,96L4,99.2l0.2,0.2c0.7,0.7,1.9,0.7,2.7,0l20.5-20.5c0.7-0.7,0.7-1.7,0-2.4c0,0,0,0,0,0l-0.4-0.4l27.5-27.5
	c0.5-0.5,0.5-1.2,0-1.7c-0.3-0.3-0.5-0.5-0.8-0.8s-0.5-0.5-0.8-0.8c-0.5-0.5-1.2-0.4-1.7,0L23.8,72.9l-0.4-0.4
	c-0.7-0.7-1.7-0.7-2.4,0c0,0,0,0,0,0L0.6,93.1c-0.7,0.7-0.7,1.9,0,2.7L0.8,96z M75.9,23.4l-5.7,2.1c-0.7,0.2-1,1-0.8,1.6
	c0.1,0.2,0.1,0.3,0.3,0.4c0.4,0.5,0.9,1,1.4,1.5c0.5,0.5,1,1,1.5,1.4c0.5,0.5,1.3,0.4,1.8-0.1c0.1-0.1,0.2-0.3,0.3-0.4l2.1-5.7
	c0.1-0.3,0-0.7-0.4-0.8C76.1,23.3,76,23.3,75.9,23.4z M42.1,15.4c8.7-7.6,17.6-8,22.2-7.6c0.7,0.1,1.4-0.5,1.5-1.2c0,0,0,0,0-0.1
	l0.3-5c0-0.7-0.5-1.3-1.2-1.4c-4.2-0.4-18.1-0.9-29.4,10.5S24.6,35.8,25,40c0.1,0.7,0.7,1.2,1.4,1.2l5-0.3c0.7,0,1.3-0.7,1.2-1.4
	c0,0,0,0,0-0.1c-0.5-4.6-0.1-13.5,7.6-22.2C40.8,16.6,41.4,16,42.1,15.4z M99.8,35.1c-0.1-0.7-0.7-1.2-1.4-1.2l-5,0.3
	c-0.7,0-1.3,0.7-1.2,1.4c0,0,0,0,0,0.1c0.5,4.6,0.1,13.5-7.6,22.2c-0.6,0.7-1.2,1.3-1.8,1.8c-8.7,7.6-17.6,8-22.2,7.5
	c-0.7-0.1-1.4,0.5-1.5,1.2c0,0,0,0,0,0.1l-0.3,5c0,0.7,0.5,1.3,1.2,1.4c4.2,0.4,18.1,0.9,29.4-10.5S100.3,39.3,99.8,35.1z
	 M37.9,34.1c11.1-1.2,29.2,16.9,28,28c-0.1,0.5,0.3,1,0.8,1.1c0.1,0,0.2,0,0.3,0c3.8-0.6,8.5-2.3,13.2-6.4c0.5-0.5,1-0.9,1.5-1.5
	c4.1-4.7,5.8-9.3,6.4-13.2c0.1-0.5-0.3-1-0.8-1.1c-0.1,0-0.2,0-0.3,0c-11.1,1.2-29.2-16.9-28-28c0.1-0.5-0.3-1-0.8-1.1
	c-0.1,0-0.2,0-0.3,0c-3.8,0.6-8.5,2.3-13.2,6.4c-0.5,0.5-1,0.9-1.5,1.5c-4.1,4.7-5.8,9.3-6.4,13.2c-0.1,0.5,0.3,1,0.8,1.1
	C37.7,34.1,37.8,34.1,37.9,34.1z"/>
</svg>
