<?xml version="1.0" encoding="utf-8"?>
<!-- Generator: Adobe Illustrator 27.9.0, SVG Export Plug-In . SVG Version: 6.00 Build 0)  -->
<svg version="1.1" id="Layer_1" xmlns="http://www.w3.org/2000/svg" xmlns:xlink="http://www.w3.org/1999/xlink" x="0px" y="0px"
	 viewBox="0 0 100 100" style="enable-background:new 0 0 100 100;" xml:space="preserve">
<path d="M59.1,38l1,4.9l17.9-17.9l-3-2.8L59.1,38z M13.9,83.3l3,2.8l25.4-25.4l-1-4.9L13.9,83.3z M42.4,54.7l0.2,0.9l0.8,4
	c0.8,0.4,2.4-1.2,2.2-2.2l-1-4.9C43.8,52.1,42.2,53.7,42.4,54.7z M45.8,51.3l0.2,0.9l0.8,4c0.8,0.4,2.4-1.2,2.2-2.2l-1-4.9
	C47.1,48.8,45.6,50.3,45.8,51.3z M49.1,48l0.2,0.9l0.8,4c0.8,0.4,2.4-1.2,2.2-2.2l-1-4.9C50.5,45.4,48.9,47,49.1,48z M52.4,44.6
	l0.2,0.9l0.8,4c0.8,0.4,2.4-1.2,2.2-2.2l-1-4.9C53.8,42.1,52.2,43.7,52.4,44.6z M55.7,41.3l0.2,0.9l0.8,4c0.8,0.4,2.4-1.2,2.2-2.2
	l-1-4.9C57.1,38.7,55.6,40.3,55.7,41.3z M81.1,15.2c-0.8-0.8-2.2-0.8-3,0c-0.8,0.8-0.8,2.1,0,2.9c-0.7-0.6-1.5-0.3-2.1,0.3
	c-0.7,0.7-0.6,1.8,0,2.4l3,2.9c0.7,0.6,1.8,0.6,2.5,0c0.7-0.7,1-1.4,0.3-2.1c0.8,0.8,2.2,0.8,3,0c0.8-0.8,0.8-2.1,0-2.9L81.1,15.2z
	 M13.3,84.9c-0.7-0.7-1.9-0.7-2.6,0l-0.8,0.8c-0.7,0.7-0.7,1.9,0,2.6l1.9,1.8c0.7,0.7,1.9,0.7,2.6,0l0.8-0.8c0.7-0.7,0.7-1.9,0-2.6
	L13.3,84.9z M3.9,89.9c-1.4,1.5-1.2,4,0.6,5.7c1.8,1.7,4.4,1.9,5.8,0.4s1.2-4-0.6-5.7C8,88.7,5.4,88.5,3.9,89.9z M94.7,5.1
	c-3-2.9-7.9-2.8-10.8,0.1c-2.9,3-2.9,7.7,0.1,10.6c3,2.9,7.9,2.8,10.8-0.1S97.7,8,94.7,5.1z"/>
</svg>
