<?xml version="1.0" encoding="utf-8"?>
<!-- Generator: Adobe Illustrator 27.9.0, SVG Export Plug-In . SVG Version: 6.00 Build 0)  -->
<svg version="1.1" id="Layer_1" xmlns="http://www.w3.org/2000/svg" xmlns:xlink="http://www.w3.org/1999/xlink" x="0px" y="0px"
	 viewBox="0 0 100 100" style="enable-background:new 0 0 100 100;" xml:space="preserve">
<g transform="translate(0.000000,1280.000000) scale(0.100000,-0.100000)">
	<path d="M31.1,11811.6c2.9-1.7,8.2-3.8,11.8-4.8l6.7-1.8l-0.7,3c-1.4,6.7-1.2,13,0.5,18.5c1.8,5.9,2.1,6.2,14.9,18.7
		c7.2,7,16.8,15.6,21.5,19.2c7.8,5.8,8.4,6.6,8.7,9.3c0.5,4.1,1.8,5.3,5.4,4.5c2.4-0.5,4,0.2,7.7,3.4c4.1,3.4,4.8,4.5,5.1,7.8
		c0.4,4.6,1.1,5.3,8.7,9.9c3.4,2.1,13,10.3,24.3,20.7c10.2,9.5,24.8,22.3,32.5,28.4c7.6,6.2,19.4,16.8,26.2,23.6
		c8.1,8.1,12.7,12.1,13.3,11.6c7.4-7.4,41.2-37.5,50.3-45c19.2-15.5,42.1-30.9,55.2-37l4.1-2l-2.1,5.5c-1.1,3.1-4.3,11.4-7,18.6
		l-5,13.1l-6.7,0.8c-19.5,2.3-39.1,14.3-68.7,41.8l-15.1,14l4.1,5c4.2,5.3,11.6,9.8,24.3,14.9c5,2,6.1,3,102.5,100.8
		c155.3,157.6,308.3,312.8,449.4,455.5c72.1,73,137,139.2,144.2,147.2c14,15.7,23.9,29.2,31.1,42.5c5.5,10.1,16.9,34.9,16.4,35.4
		c-0.7,0.7-29.3-12.8-38.9-18.3c-12.9-7.2-23.5-15.2-39.5-29.6c-7.8-7-73.8-71.7-146.9-143.8c-142.7-141.1-297.8-293.9-455.7-449.6
		c-56.1-55.3-99.1-98.2-99.5-99.4c-0.3-1.1-2.8-6.6-5.6-12.5c-4.5-9.2-5.7-11.1-10.3-14.7l-5.1-4.2l-14,15.1
		c-27.7,29.6-40.6,51.1-42.1,69.7l-0.4,5.7l-13.1,4.9c-7.2,2.8-15.6,6-18.7,7.1l-5.5,2.1l2-4.1c6.1-13.1,21.5-36,37-55.2
		c7.5-9.1,37.6-42.9,45-50.4c0.6-0.6-2.5-4.2-10.1-11.7c-6-5.9-16.5-17.5-23.3-25.8c-6.8-8.3-19.4-22.8-28-32.2
		s-17.8-20.4-20.6-24.4c-6.7-9.8-8.1-11-12.4-11.1c-3.4-0.2-4.3-0.8-7.7-4.8c-3.4-4-3.8-5.2-3-7.4c1.1-3.1-1.1-5.9-5-6.1
		c-2.3-0.2-3.3-1-9.1-8.5c-3.6-4.5-11.2-13.5-17.1-19.8c-15.1-16.3-22.7-20-37.1-17.6l-4.9,0.8l1.6-6.5
		C9.8,11830.8,19.6,11818.3,31.1,11811.6z"/>
</g>
</svg>
