<?xml version="1.0" encoding="utf-8"?>
<!-- Generator: Adobe Illustrator 27.9.0, SVG Export Plug-In . SVG Version: 6.00 Build 0)  -->
<svg version="1.1" id="Layer_1" xmlns="http://www.w3.org/2000/svg" xmlns:xlink="http://www.w3.org/1999/xlink" x="0px" y="0px"
	 viewBox="0 0 100 100" style="enable-background:new 0 0 100 100;" xml:space="preserve">
<path d="M53,90.9c12.8-6.5,26-19.1,29.2-34l10.5,6.7l4.9-8.4l0-10.8l-4.9-8.3L82.1,43C78.8,28.1,65.6,15.5,52.9,9L53,3.3l-2.4,0
	l0,38.3L2.5,44.1l0,11.9l48.1,2.4l0,38.2l2.4,0L53,90.9z M91.5,40.8l2.8,4.7l0,9l-2.8,4.7l-7.4-4.8l0-8.8L91.5,40.8z M10.3,52.2
	l0-4.2l48.2,0l0,4.2L10.3,52.2z M64.2,40.9l-11.3,0.6l0-26.8c10,4.8,18.6,16.9,20.9,29.1L64.2,40.9z M53,85.3l0-26.8l11.3,0.6
	l9.6-2.9C71.5,68.4,62.9,80.5,53,85.3z"/>
</svg>
