<?xml version="1.0" encoding="utf-8"?>
<!-- Generator: Adobe Illustrator 27.9.0, SVG Export Plug-In . SVG Version: 6.00 Build 0)  -->
<svg version="1.1" id="Layer_1" xmlns="http://www.w3.org/2000/svg" xmlns:xlink="http://www.w3.org/1999/xlink" x="0px" y="0px"
	 viewBox="0 0 100 100" style="enable-background:new 0 0 100 100;" xml:space="preserve">
<g>
	<g>
		<path d="M97.4,2.8c-1.1,2.7-2.7,5.1-4.7,7.1L59.2,43.5c-3,3-7.9,3-11,0c0,0,0,0,0,0l-4.4,4.4c0,7.7-6.3,14-14,14l0,0l-3.8,3.8
			L1.2,90.4c-1.5,1.5-1.7,3.9-0.3,5.5c1.4,1.6,3.9,1.7,5.5,0.3c0.1,0,0.1-0.1,0.2-0.1l1-1l0,0c0-3.3,2.6-5.9,5.9-5.9c0,0,0,0,0,0
			l0,0l2.2-2.2h19.2l0,0l15.7-15.7l13.9-13.9l29.2-29.2C100.4,21.4,101.9,11.1,97.4,2.8z M93.5,14.6c1.2,1.2,1.2,3.2,0,4.4L65,47.5
			c-0.7,0.5-1.7,0.4-2.2-0.3c-0.4-0.6-0.4-1.3,0-1.9L93.5,14.6z M60.5,49.8c0.8,0.8,0.8,2,0,2.7c-0.8,0.8-2,0.8-2.7,0s-0.8-2,0-2.7
			c0,0,0,0,0,0C58.5,49.1,59.7,49.1,60.5,49.8C60.5,49.8,60.5,49.8,60.5,49.8L60.5,49.8z M55.5,54.8c0.8,0.8,0.8,2,0,2.7
			c-0.8,0.8-2,0.8-2.7,0c-0.8-0.8-0.8-2,0-2.7c0,0,0,0,0,0C53.5,54,54.7,54,55.5,54.8C55.5,54.8,55.5,54.8,55.5,54.8L55.5,54.8z
			 M50.5,59.8c0.8,0.8,0.8,2,0,2.7c-0.8,0.8-2,0.8-2.7,0c-0.8-0.8-0.8-2,0-2.7c0,0,0,0,0,0C48.5,59,49.8,59,50.5,59.8
			C50.5,59.8,50.5,59.8,50.5,59.8L50.5,59.8z M23.5,81.5h-2.3l10.3-10.3c2.1,2.1,4.8,3.4,7.7,3.8C35,79.2,29.4,81.5,23.5,81.5z"/>
	</g>
</g>
</svg>
