<?xml version="1.0" encoding="utf-8"?>
<!-- Generator: Adobe Illustrator 27.9.0, SVG Export Plug-In . SVG Version: 6.00 Build 0)  -->
<svg version="1.1" id="Layer_1" xmlns="http://www.w3.org/2000/svg" xmlns:xlink="http://www.w3.org/1999/xlink" x="0px" y="0px"
	 viewBox="0 0 100 100" style="enable-background:new 0 0 100 100;" xml:space="preserve">
<g>
	<g>
		<rect x="55.6" y="37.3" transform="matrix(0.7071 -0.7071 0.7071 0.7071 -9.0763 57.1182)" width="17.7" height="4.4"/>
		<path d="M46.6,65.7l3.1-3.1c-1.4-1.4-1.4-3.8,0-5.2l8.3-8.3L54.8,46L38.6,62.3c-0.6,0.4-1.4,0.3-1.8-0.3c-0.3-0.5-0.3-1.1,0-1.5
			L87.5,9.8c1,1,1,2.6,0,3.5L70.9,29.9L74,33l7.5-7.5c1.4-1.4,3.8-1.4,5.2,0l6.1-6.1c5.2-5.2,5.2-13.7,0-19L45,48.3H28.5L8.4,68.4
			l20.1-13.6h10l-8.1,8.1c-4.7,0.6-8,4.8-7.5,9.5c0.1,1,0.4,2,0.9,2.9L4.1,94.9c-1,1-1.1,2.6-0.2,3.7c1,1.1,2.6,1.2,3.7,0.2
			c0,0,0.1-0.1,0.1-0.1L27.5,79c4.2,2.2,9.3,0.5,11.5-3.7c0.5-0.9,0.8-1.9,0.9-2.9l3.1-3.1c2.4,5.1,0.3,11.2-4.8,13.6
			c-2.7,1.3-5.8,1.3-8.5,0.1l-3.7,3.7c7.2,4.3,16.5,2,20.8-5.2C49.7,76.6,49.6,70.5,46.6,65.7L46.6,65.7z M34.2,66.8
			c2.5,1.5,3.3,4.8,1.8,7.2l-7.3-7.3C30.4,65.8,32.5,65.8,34.2,66.8z M28.6,75.9c-2.5-1.5-3.3-4.8-1.8-7.3l7.3,7.3
			C32.4,77,30.3,77,28.6,75.9L28.6,75.9z"/>
	</g>
</g>
</svg>
