<?xml version="1.0" encoding="utf-8"?>
<!-- Generator: Adobe Illustrator 27.9.0, SVG Export Plug-In . SVG Version: 6.00 Build 0)  -->
<svg version="1.1" id="Layer_1" xmlns="http://www.w3.org/2000/svg" xmlns:xlink="http://www.w3.org/1999/xlink" x="0px" y="0px"
	 viewBox="0 0 100 100" style="enable-background:new 0 0 100 100;" xml:space="preserve">
<style type="text/css">
	.{stroke:#000000;stroke-width:0.95;stroke-miterlimit:10;}
</style>
<path class="" d="M28.2,78.2c0,0,2.5,5.8,6.9,6.9c5.2,0.8-5.4,7.4-4.4,4.9c-0.1-1.4-8-8-8-8c-8.9,6.7-12.5,12.5-14.3,14.9
	c-1.9,2.5-7.5-3.5-5.3-5.3c2.2-1.8,8.7-5.9,14.9-14.3c0,0-6.2-8.3-8-8c-1.7,0.3,3.8-9.2,4.9-4.4c1.1,4.8,6.6,6.6,6.6,6.6l3.9,1.8
	l1.1,1.1L28.2,78.2z M23.1,69.8L87.5,5.5l10-3l-3.3,9.7L29.8,76.6l-1.5-3.4L91.9,8.1L26.6,71.4L23.1,69.8z"/>
</svg>
