<?xml version="1.0" encoding="utf-8"?>
<!-- Generator: Adobe Illustrator 27.9.0, SVG Export Plug-In . SVG Version: 6.00 Build 0)  -->
<svg version="1.1" id="Layer_1" xmlns="http://www.w3.org/2000/svg" xmlns:xlink="http://www.w3.org/1999/xlink" x="0px" y="0px"
	 viewBox="0 0 100 100" style="enable-background:new 0 0 100 100;" xml:space="preserve">
<g>
	<g>
		<path d="M21.9,74.5l-1.2-1.2L3.7,90.2c-1.7,1.7-1.7,4.4,0,6.1s4.4,1.7,6.1,0l16.9-16.9l-1.2-1.2L21.9,74.5z"/>
		<polygon points="55.1,41.3 53.9,40 29.1,64.8 35.2,70.9 60,46.1 58.7,44.9 		"/>
		<polygon points="26.7,64.8 26.4,64.5 20.4,70.5 20.7,70.8 21.9,72.1 27.9,78.1 29.2,79.3 29.5,79.6 35.5,73.6 35.2,73.3 		"/>
		<path d="M67.8,41.8l-4.8-4.7c0,0,0,0-0.1-0.1l-4.8-4.8l-1.2-1.2l-4.8,4.8l1.8,1.8l1.2,1.2l6.1,6.1l1.2,1.2l1.8,1.8l4.8-4.8
			L67.8,41.8C67.8,41.8,67.8,41.8,67.8,41.8z"/>
		<path d="M63,32.1L63,32.1L87.7,7.3L88.9,6l-3.5-3.5c-3.9,3.9-9.1,6.1-14.6,6.1h-3.5c0,7.4-2.8,14.5-7.9,19.9
			c-0.2,0.2-0.4,0.5-0.7,0.8l-0.5,0.5l3.6,3.6L63,32.1z"/>
		<path d="M93.8,10.9l-1.2,1.2L67.9,37l-1.2,1.2l3.6,3.6l0.5-0.5c0.2-0.2,0.5-0.5,0.8-0.7c2.6-2.5,5.5-4.4,8.7-5.7
			c3.5-1.5,7.3-2.2,11.2-2.2v-3.5c0-5.5,2.2-10.7,6.1-14.6L93.8,10.9z"/>
		<polygon points="64.2,33.3 63,34.5 65.5,37 66.7,35.8 91.4,10.9 92.6,9.7 90.2,7.3 88.9,8.5 		"/>
	</g>
</g>
</svg>
