<?xml version="1.0" encoding="utf-8"?>
<!-- Generator: Adobe Illustrator 27.9.0, SVG Export Plug-In . SVG Version: 6.00 Build 0)  -->
<svg version="1.1" id="Layer_1" xmlns="http://www.w3.org/2000/svg" xmlns:xlink="http://www.w3.org/1999/xlink" x="0px" y="0px"
	 viewBox="0 0 100 100" style="enable-background:new 0 0 100 100;" xml:space="preserve">
<g>
	<path d="M59.5,33.8c-0.5-0.5-1.2-0.6-1.8-0.2l-5.4,3.8c-0.6,0.5-0.7,1.4-0.2,1.9c0.2,0.2,0.4,0.3,0.6,0.4l1.9,0.6L42.9,52.3
		c-0.3-0.2-0.7-0.3-1.1-0.2l-6.2,1.6c-0.5,0.1-0.9,0.5-1,1l-1.6,6.2c-0.1,0.4,0,0.8,0.2,1.1L16.2,79L16,79l-4.5,1.2
		c-0.5,0.1-0.9,0.5-1,1l-0.9,3.3l-5.1,1.4c-0.5,0.1-0.9,0.5-1,1L2,92.3c-0.1,0.5,0,1,0.4,1.3l4,4c0.3,0.3,0.8,0.5,1.3,0.4l5.4-1.5
		c0.5-0.1,0.9-0.5,1-1l1.4-5.2l3.4-0.8c0.5-0.1,0.9-0.5,1-1L21,84l0-0.2L38,66.9c0.3,0.2,0.7,0.3,1.1,0.2l6.2-1.6
		c0.5-0.1,0.9-0.5,1-1l1.6-6.2c0.1-0.4,0-0.8-0.2-1.1l11.9-11.9l0.6,1.9c0.3,0.7,1.1,1.1,1.8,0.8c0.2-0.1,0.4-0.2,0.6-0.4l3.8-5.4
		c0.4-0.6,0.3-1.3-0.2-1.8L59.5,33.8z M11.8,94.1l-4,1.1l-2.9-2.9l1.1-4l3.9-1.1l2.9,2.9L11.8,94.1z M17.4,87l-3.1,0.9l-2.2-2.2
		l0.9-3.1l3.1-0.9l2.2,2.2L17.4,87z M43.8,63.1l-4.6,1.3l-3.5-3.5l1.2-4.7l4.7-1.2l3.4,3.4L43.8,63.1z"/>
	<path d="M40.7,56l-2.2,0.6c-0.5,0.1-0.9,0.5-1,1l-0.6,2.2c-0.1,0.5,0,1,0.4,1.3l1.6,1.6c0.3,0.3,0.8,0.5,1.3,0.4l2.2-0.6
		c0.5-0.1,0.9-0.5,1-1l0.6-2.2c0.1-0.5,0-1-0.3-1.3L42,56.4C41.7,56.1,41.2,55.9,40.7,56z M41,60.1l-0.7,0.2l-0.5-0.5l0.2-0.7
		l0.7-0.2l0.5,0.5L41,60.1z"/>
	<path d="M97.6,12.5l-2.3-2.3c-0.5-0.5-1.4-0.5-2,0L89.7,14c0,0,0,0-0.1,0.1c-0.1,0.1-0.2,0.3-0.3,0.5c0,0,0,0-0.1,0.1l-1.8,6.8
		l-6,1.7L77,18.6l1.6-6.1l6.8-1.8c0,0,0,0,0.1-0.1c0.2-0.1,0.3-0.2,0.5-0.3c0,0,0,0,0.1-0.1l3.7-3.7c0.5-0.5,0.5-1.4,0-2l-2.2-2.2
		c-0.3-0.3-0.8-0.5-1.3-0.4L72.4,5.8c-0.5,0.1-0.9,0.5-1,1l-3.7,13.8c-0.1,0.5,0,1,0.4,1.3L78.2,32c0.3,0.3,0.8,0.5,1.3,0.4
		l13.8-3.7c0.5-0.1,0.8-0.5,0.9-0.9l3.7-13.8C98.1,13.4,98,12.9,97.6,12.5z"/>
	<path d="M79.5,38.2L77,32.3c-0.1-0.2-0.2-0.3-0.3-0.4l-8.5-8.5c-0.1-0.1-0.3-0.2-0.4-0.3l-5.9-2.5c-0.1,0-0.3-0.1-0.4-0.1l-0.1,0
		c-0.1,0-0.2,0-0.3,0.1l-0.1,0.1c-0.1,0.1-0.3,0.2-0.4,0.3l-3.7,3.7c-0.1,0.1-0.2,0.2-0.2,0.3c0,0-0.1,0.1-0.1,0.1c0,0,0,0-0.1,0.1
		c0,0.1-0.1,0.3-0.1,0.4l0,0c0,0.2,0,0.3,0.1,0.4l2.5,5.9c0.1,0.2,0.2,0.3,0.3,0.4l8.4,8.4c0.1,0.1,0.3,0.2,0.4,0.3l5.9,2.5
		c0.1,0.1,0.3,0.1,0.5,0.1c0.4,0,0.7-0.2,0.9-0.4l3.7-3.7c0.1-0.1,0.2-0.2,0.3-0.3l0.1-0.1c0-0.1,0.1-0.2,0.1-0.3l0-0.2
		C79.6,38.5,79.5,38.3,79.5,38.2z"/>
</g>
</svg>
