<?xml version="1.0" encoding="utf-8"?>
<!-- Generator: Adobe Illustrator 27.9.0, SVG Export Plug-In . SVG Version: 6.00 Build 0)  -->
<svg version="1.1" id="Layer_1" xmlns="http://www.w3.org/2000/svg" xmlns:xlink="http://www.w3.org/1999/xlink" x="0px" y="0px"
	 viewBox="0 0 100 100" style="enable-background:new 0 0 100 100;" xml:space="preserve">
<g>
	<path d="M95.6,22.1C95.6,22.1,95.6,22.1,95.6,22.1c-6-5-14.8-14-18.6-17.8c-1-1-2.6-1.1-3.6-0.2c-8,6.6-18.5,13-22.3,15.2
		c-0.8,0.5-1.4,1.4-1.3,2.4c0.3,12-3.5,24.9-5.1,29.7c-0.4,1.3-1.4,2.3-2.6,2.8l-12.5,5c-2.1,0.9-3.8,2.7-4.4,4.9L22,74.9
		c-0.3,1-0.8,1.8-1.6,2.5c-2.6,2.3-10.6,11.9-16.4,17c-1.1,0.9,0.1,2.7,1.4,2c7.2-3.8,16.6-11.6,20.5-13.4c1.4-0.6,2.4-1.9,2.8-3.4
		c1-3.6,2.4-7.1,3.5-9.3c0.8-1.6,2.1-2.9,3.7-3.6c4-1.8,9.5-3.7,12.8-4.8c1.6-0.5,2.8-2,3.1-3.7c1.4-10.3,4-20.5,7.8-30.2
		c1.1-2.9,2.9-5.5,5.2-7.7c4.7-4.3,9.2-4.5,12.3-3.8c2.7,0.6,5.1,2.3,6.6,4.6c3.9,6.2-2.5,11.4-2.5,11.4c-3.3,2.6-8.3,1.7-10.6,1.2
		c-0.5-0.1-1.1,0.2-1.2,0.7c0,0.1,0,0.1,0,0.2L69,37.6c0,0.3,0.1,0.6,0.4,0.8l6.8,5.3c1.3,1,3.1,0.8,4.2-0.4l15.5-17.4
		C96.8,24.8,96.7,23.1,95.6,22.1z"/>
	<path d="M74.2,30.3C74.2,30.3,74.2,30.3,74.2,30.3c2.6,0.1,4.8-1.9,4.9-4.6c0.1-2.6-1.9-4.8-4.6-4.9c-2.6-0.1-4.8,1.9-4.9,4.6
		C69.5,28,71.6,30.2,74.2,30.3z"/>
</g>
</svg>
