<?xml version="1.0" encoding="utf-8"?>
<!-- Generator: Adobe Illustrator 27.9.0, SVG Export Plug-In . SVG Version: 6.00 Build 0)  -->
<svg version="1.1" id="Layer_1" xmlns="http://www.w3.org/2000/svg" xmlns:xlink="http://www.w3.org/1999/xlink" x="0px" y="0px"
	 viewBox="0 0 100 100" style="enable-background:new 0 0 100 100;" xml:space="preserve">
<g>
	<polygon points="89.6,29 86.8,8.7 27.5,68 39,79.6 	"/>
	<polygon points="40.1,80.7 45.8,86.4 97.5,34.7 95,0.5 88.3,7.3 91.2,29.6 	"/>
	<rect x="34.3" y="64.6" transform="matrix(0.7071 -0.7071 0.7071 0.7071 -47.1782 49.2914)" width="3.2" height="34.1"/>
	<path d="M4.4,88.4c-2.5,2.5-2.5,6.6,0,9.2c2.5,2.5,6.6,2.5,9.2,0c2.5-2.5,2.5-6.6,0-9.2C11.1,85.9,7,85.9,4.4,88.4z"/>
	<path d="M10.4,85.1c1.6,0.3,3.1,1,4.3,2.2c1.2,1.2,2,2.7,2.2,4.3l11.9-11.9l-6.5-6.5L10.4,85.1z"/>
</g>
</svg>
