<?xml version="1.0" encoding="utf-8"?>
<!-- Generator: Adobe Illustrator 27.9.0, SVG Export Plug-In . SVG Version: 6.00 Build 0)  -->
<svg version="1.1" id="Layer_1" xmlns="http://www.w3.org/2000/svg" xmlns:xlink="http://www.w3.org/1999/xlink" x="0px" y="0px"
	 viewBox="0 0 100 100" style="enable-background:new 0 0 100 100;" xml:space="preserve">
<g>
	<path d="M64.8,1.4l13.4,1.9l-0.6,7.5L74,19.6l5.8-8.8l9.8-4.2L95.1,19l-9.4,7.1L97,33.8l-5.2,7.3l-16.1-1.9l-0.8-3.6L74,39.9
		L69,43.3L55.4,28l3.6-3.4l-6.3-7.7l2.9-6.5l9,1.7L64.8,1.4z M53.6,29.6l13,14.8l-5.6,4.1L47.9,34.6L53.6,29.6z M46.5,36.4
		l12.7,13.5L54.6,53L38.7,86.5L5.3,98.6L3,94l28.2-16.9l13.4-38.9L46.5,36.4z"/>
</g>
</svg>
