<?xml version="1.0" encoding="utf-8"?>
<!-- Generator: Adobe Illustrator 27.9.0, SVG Export Plug-In . SVG Version: 6.00 Build 0)  -->
<svg version="1.1" id="Layer_1" xmlns="http://www.w3.org/2000/svg" xmlns:xlink="http://www.w3.org/1999/xlink" x="0px" y="0px"
	 viewBox="0 0 100 100" style="enable-background:new 0 0 100 100;" xml:space="preserve">
<path d="M8.7,55.2l11.7-1.1c0.6-0.1,1.1-0.3,1.4-0.7l9.7,1l30.8,29.5l0,0l0,0.6c0,1.2,1,2.2,2.2,2.2c1.2,0,2.2-1,2.2-2.2l0-4.2
	c0-0.7,0.3-1.4,0.8-1.9l5.9-5.9c9.4-9.4,7.7-20.6,7.9-21.8l6.2,0l-1.3,2c-0.9,1.4,0.6,3,2.1,2.3l8.4-4.2c0.5-0.3,0.9-0.8,0.9-1.5
	c0-0.6-0.4-1.2-0.9-1.4l-8.2-4.1c-1.5-0.7-3,0.9-2.1,2.3l1.5,2.3l0,0h-6.6c-0.1-0.8,1.3-11.8-7.9-20.9l-5.9-5.9
	c-0.5-0.5-0.8-1.2-0.8-1.9l0-4.2c0-1.2-1-2.2-2.2-2.2c-1.2,0-2.2,1-2.2,2.2l0,0.6L31.6,44.7l-9.8,1c-0.4-0.4-0.8-0.7-1.4-0.7
	L8.6,43.9c-3.2-0.3-6.1,2.2-6.1,5.6C2.5,52.9,5.4,55.5,8.7,55.2z M30.8,50.6l46,0c0,2.4,0.1,3.6-0.1,5.3l-8.1-0.5
	c-1.2-0.1-2.4-0.6-3.2-1.5c-2-2.3-5.4-2.5-7.7-0.6c-1.1,0.9-2.3,1.3-3.6,1.1l-21.7-2.2L30.8,50.6z M54.1,44.6
	c1.2-0.1,2.5,0.3,3.6,1.1c2.3,1.9,5.7,1.6,7.7-0.6c0.8-0.9,2-1.5,3.2-1.5l7.9-0.5c0.3,2.2,0.2,3.9,0.2,5.3l-46,0l1.7-1.6L54.1,44.6z
	 M27.2,48.8c-0.4,0.4-0.4,0.9-0.2,1.2c0.1,0.4,0.8,0.9,1.9,1.9l-6.5-0.7l0-3.4l6.5-0.7C28.8,47.3,27.1,48.9,27.2,48.8z M70.2,69.4
	l-5.9,5.9c-2.4,2.4-2.1,5.4-2.1,5.6L35,54.7l18.9,1.9c1.8,0.2,3.6-0.4,5.2-1.6c1.5-1.2,3.5-0.9,4.7,0.4c1.2,1.4,2.9,2.2,4.7,2.3
	l7.9,0.5C75.4,62.4,73.3,66.3,70.2,69.4z M62.2,19.1l0,0.6c0,1.9,0.7,3.7,2.1,5.1l5.9,5.9c2.9,2.9,4.9,6.4,5.9,10.3l-7.6,0.5
	c-1.8,0.1-3.5,0.9-4.7,2.3c-1.7,1.2-3.1,1.7-4.7,0.4c-1.5-1.2-3.4-1.8-5.2-1.6l-18.6,1.9L62.2,19.1z"/>
</svg>
