<?xml version="1.0" encoding="utf-8"?>
<!-- Generator: Adobe Illustrator 27.9.0, SVG Export Plug-In . SVG Version: 6.00 Build 0)  -->
<svg version="1.1" id="Layer_1" xmlns="http://www.w3.org/2000/svg" xmlns:xlink="http://www.w3.org/1999/xlink" x="0px" y="0px"
	 viewBox="0 0 100 100" style="enable-background:new 0 0 100 100;" xml:space="preserve">
<style type="text/css">
	.{fill-rule:evenodd;clip-rule:evenodd;}
</style>
<g>
	<g>
		<path class="" d="M99.6,0.5l-9.8,22.7L35.4,72.4l12.1,12.1l-3.9,3.9L29.1,78.1L13.2,92.3l-3.7,7.2l-7.8-1.2l-1.3-7.9l7.2-3.7
			l14.3-15.9L11.5,56.2l3.9-3.9l12.1,12.1l49.1-54.3L99.6,0.5z M7.9,92.2c0.6,0.6,0.6,1.8,0,2.4c-0.7,0.7-1.8,0.6-2.4,0
			c-0.7-0.7-0.7-1.7,0-2.4C6.1,91.6,7.2,91.5,7.9,92.2z M76.8,23.2l-1.5,2.9L34.6,66.9c-0.7,0.7-1.5,0.8-1.9,0.5
			c-0.6-0.6-0.1-1.5,0.4-2l40.7-40.7L76.8,23.2z"/>
	</g>
</g>
</svg>
