<?xml version="1.0" encoding="utf-8"?>
<!-- Generator: Adobe Illustrator 27.9.0, SVG Export Plug-In . SVG Version: 6.00 Build 0)  -->
<svg version="1.1" id="Layer_1" xmlns="http://www.w3.org/2000/svg" xmlns:xlink="http://www.w3.org/1999/xlink" x="0px" y="0px"
	 viewBox="0 0 100 100" style="enable-background:new 0 0 100 100;" xml:space="preserve">
<path d="M69,62.8c2.3-3.5,7.3-12.2,6.8-18.4c6.4,0.5,15-4.5,18.4-6.8c0.5-0.3,0.8-0.8,0.8-1.5c0-0.5-0.3-1.1-0.8-1.5
	c-8.8-5.5-16-2.5-19.6-0.1c3.2-3.3,6.5-8,2.8-11.6c0,0,0,0-0.1,0c0,0,0,0,0-0.1c-3.6-3.6-8.3-0.4-11.6,2.8
	c2.4-3.6,5.2-10.8-0.1-19.6c-0.3-0.5-0.8-0.8-1.5-0.8c-0.5,0-1.1,0.3-1.5,0.8c-2.3,3.5-7.3,12.2-6.8,18.4c-6.4-0.5-15,4.5-18.4,6.8
	c-0.5,0.3-0.8,0.8-0.8,1.5c0,0.4,0.1,0.9,0.5,1.2c0.1,0.1,0.1,0.1,0.3,0.3c10.9,6.7,19.4,0.7,21.6-1.3l0.9,0.9l-7.5,7.5
	c-0.9,0.9-1.2,2.1-0.7,3.3L16.1,80.8c-0.8-0.5-2-0.9-3.3-0.8c-2.8,0.4-6.7,6.9-7.5,8.1L5,88.7l3.1,3.1c0,0,0,0,0.1,0c0,0,0,0,0,0.1
	l3.1,3.1l0.5-0.3c1.3-0.8,7.7-4.7,8.1-7.5c0.3-1.3-0.3-2.5-0.8-3.3l36.5-35.7c1.2,0.4,2.4,0.3,3.3-0.7l7.5-7.5l0.9,0.9
	c-2,2.3-8,10.7-1.3,21.6c0.1,0.1,0.1,0.3,0.3,0.3c0.3,0.3,0.7,0.5,1.2,0.5C68.2,63.4,68.7,63.2,69,62.8z"/>
</svg>
