<?xml version="1.0" encoding="utf-8"?>
<!-- Generator: Adobe Illustrator 27.9.0, SVG Export Plug-In . SVG Version: 6.00 Build 0)  -->
<svg version="1.1" id="Layer_1" xmlns="http://www.w3.org/2000/svg" xmlns:xlink="http://www.w3.org/1999/xlink" x="0px" y="0px"
	 viewBox="0 0 100 100" style="enable-background:new 0 0 100 100;" xml:space="preserve">
<g>
	<path d="M34.3,34.1c0.3-0.5,0.7-0.8,1.1-1.1c0.1-0.1,0.3-0.2,0.4-0.3c0.2-0.1,0.5-0.2,0.8-0.3l-0.4,2.2c0,0.1,0,0.3,0,0.4
		c0,0.1,0.1,0.1,0.1,0.2c0.1,0.1,0.2,0.2,0.3,0.2c0.1,0.1,0.2,0.1,0.3,0.2l12.7,3c0.2,0.1,0.4,0,0.6-0.1c0.2-0.1,0.3-0.3,0.4-0.5
		c0.1-0.4-0.2-0.9-0.6-1l-10.8-2.6l2-1.2l0.6,0.1c-0.1-0.1-0.1-0.2-0.2-0.4l7.6-4.7c0.2-0.1,0.3-0.3,0.4-0.5c0.1-0.2,0-0.4-0.1-0.6
		c-0.2-0.4-0.7-0.5-1.1-0.3l-7.7,4.7c-0.2-0.2-0.5-0.4-0.8-0.6c-0.4-0.2-0.8-0.4-1.3-0.5l1.5-8.6c0-0.2,0-0.4-0.1-0.6
		c-0.1-0.2-0.3-0.3-0.5-0.3c-0.4-0.1-0.9,0.2-1,0.7l-1.5,8.8c-0.3,0-0.5,0.1-0.8,0.1c-1.3,0.3-2.3,1.1-3,2.3L31.9,35l1.4,0.9
		L34.3,34.1z M39,32.7l-0.9,0.6l0.1-0.7L39,32.7z"/>
	<polygon points="39.6,37.9 38.9,39.2 40.3,40 41.3,38.4 	"/>
	<path d="M60.3,49.9c-0.5-0.4-1.1-0.6-1.6-0.7l0.7,2.7c1.2,1.1,1.5,2.9,0.6,4.3l-2.2,3.3c-0.2,0.3-0.5,0.6-0.7,0.8l-0.2,2.3
		c0.8-0.4,1.5-1,2-1.7l2.7-4.1C63.1,54.5,62.5,51.4,60.3,49.9z"/>
	<path d="M54.5,52.8l-0.5-2.1c-0.2,0.2-0.3,0.4-0.5,0.6l-2.7,4.1c-1.5,2.2-0.9,5.2,1.3,6.8l0.2-3c-0.5-1-0.5-2.2,0.2-3.2L54.5,52.8z
		"/>
	<path d="M49.1,35.1c0.2-0.1,0.3-0.1,0.5-0.1c0.9-0.2,1.7,0,2.4,0.5l3.3,2.2c1.2,0.8,1.7,2.3,1.3,3.6l0.7,2.9
		c0.2-0.2,0.5-0.5,0.6-0.8c1.5-2.3,0.9-5.3-1.4-6.9l-4.1-2.8c-1.1-0.7-2.4-1-3.7-0.8c-0.1,0-0.2,0-0.3,0.1c-0.9,0.2-1.7,0.7-2.3,1.3
		L49.1,35.1z"/>
	<path d="M47.5,39.8l-2.3-0.5c0.3,1.1,1,2.1,2,2.8l4.1,2.8c0.4,0.3,0.9,0.5,1.4,0.7L52,43.3c-0.1-0.1-0.2-0.1-0.3-0.2l-3.3-2.2
		C48,40.6,47.7,40.2,47.5,39.8z"/>
	<path d="M13.7,80.5l-2.8-1.7L9.5,78c-0.2-0.1-0.4-0.1-0.6-0.1c-0.2,0.1-0.4,0.2-0.5,0.4c-0.2,0.4-0.1,0.9,0.3,1.1c0,0,0,0,0,0
		l4.2,2.5c0.2,0.1,0.4,0.1,0.6,0.1c0.2-0.1,0.4-0.2,0.5-0.4C14.2,81.3,14.1,80.8,13.7,80.5z"/>
	<path d="M12,83.4l-4.2-2.5c-0.2-0.1-0.4-0.1-0.6-0.1c-0.2,0.1-0.4,0.2-0.5,0.4C6.5,81.5,6.6,82,7,82.3l0,0l2.8,1.7l1.4,0.8
		c0.4,0.2,0.9,0.1,1.1-0.3C12.6,84.1,12.4,83.6,12,83.4z"/>
	<path d="M10.4,86.2l-4.2-2.5c-0.2-0.1-0.4-0.1-0.6-0.1C5.3,83.6,5.1,83.8,5,84c-0.1,0.2-0.1,0.4-0.1,0.6C5,84.8,5.1,85,5.3,85.1
		l4.2,2.5c0.4,0.2,0.9,0.1,1.1-0.3C10.9,86.9,10.8,86.4,10.4,86.2z"/>
	<path d="M8.7,89l-4.2-2.5c-0.2-0.1-0.4-0.1-0.6-0.1c-0.2,0.1-0.4,0.2-0.5,0.4c-0.2,0.4-0.1,0.9,0.3,1.1l4.2,2.5
		c0.4,0.2,0.9,0.1,1.1-0.3C9.2,89.8,9.1,89.3,8.7,89z"/>
	<path d="M4.9,90.6c-0.8-0.5-1.6-0.6-2.5-0.4c-0.8,0.2-1.6,0.7-2,1.5c-0.9,1.6-0.4,3.6,1.2,4.5c0.8,0.4,1.6,0.6,2.5,0.4
		c0.8-0.2,1.6-0.8,2-1.5C7,93.6,6.5,91.5,4.9,90.6z"/>
	<polygon points="32.5,46.8 29.7,45.2 11,77 13.8,78.7 	"/>
	<path d="M35.1,36.1l-0.3,0.6l2.7,1.6l0.5-0.8l-1.3-0.3C35.9,37.1,35.4,36.7,35.1,36.1z"/>
	<path d="M50.4,40.3l1.2,0.8c0.1-1,0.8-1.9,1.8-2.2c0.2,0,0.4-0.1,0.6-0.1l-1.7-1.2c0,0.3,0,0.5-0.1,0.8c-0.1,0.6-0.5,1.2-1.1,1.5
		C51,40.1,50.7,40.2,50.4,40.3C50.5,40.3,50.5,40.3,50.4,40.3z"/>
	<path d="M55,54.9l-0.8,1.2c0.2,0,0.4-0.1,0.6,0c1,0.1,1.9,0.8,2.2,1.7l0.8-1.2C56.6,56.7,55.4,56,55,54.9z"/>
	<path d="M58.1,53.9l-3.3-12.8c-0.1-0.4-0.6-0.7-1-0.6c-0.4,0.1-0.7,0.6-0.6,1l3.3,12.8c0.1,0.4,0.6,0.7,1,0.6
		C58,54.7,58.2,54.3,58.1,53.9z"/>
	<path d="M54.9,68.5l0.6-10c0-0.4-0.3-0.8-0.8-0.9c-0.2,0-0.4,0.1-0.6,0.2c-0.2,0.1-0.3,0.3-0.3,0.6l-0.7,10.9
		c0.2,0.1,0.4,0.1,0.5,0.2L54.9,68.5z"/>
	<polygon points="40.2,41.9 30.3,36 27,41.6 36.9,47.5 	"/>
	<path d="M39.5,75.5c0.4-0.8,0.8-1.6,1.4-2.4l-4.5-1.5L39.5,75.5z"/>
	<path d="M42.5,89.4l-1.7,5.4l4.4-3.7c-0.6-0.3-1.1-0.6-1.7-0.9C43.2,90,42.9,89.7,42.5,89.4z"/>
	<path d="M58,88.7l5.4,1.8L59.9,86C59.4,87,58.7,87.9,58,88.7z"/>
	<path d="M57.5,72l1.4-4.7l-3.6,3.1c0.2,0.1,0.5,0.3,0.7,0.4C56.6,71.1,57.1,71.5,57.5,72z"/>
	<path d="M58.8,82.8c-0.9-0.6-1.6-1.8-1.9-3.1c-0.4-1.9,0.2-3.5,1.2-4.3c-0.8-1.3-1.8-2.4-3-3.3c-1-0.7-2-1.1-3.1-1.4
		c-0.1,1.3-1.3,2.5-3.1,3c-0.1,0-0.2,0-0.3,0.1c-1.3,0.3-2.6,0.1-3.5-0.5c-0.4-0.3-0.7-0.6-0.9-1c-2.1,1.5-3.6,3.9-4,6.6
		c0.3,0.1,0.6,0.2,0.9,0.4c0.9,0.6,1.6,1.8,1.8,3.2c0.3,1.7,0,3.2-0.9,4c0.7,0.9,1.5,1.8,2.5,2.4c1,0.7,2.1,1.2,3.2,1.4
		c0.3-1.3,1.6-2.4,3.4-2.8c1.3-0.3,2.6-0.1,3.5,0.5c0.3,0.2,0.5,0.5,0.7,0.7c1.9-1.4,3.3-3.4,3.9-5.7C59.1,83,58.9,82.9,58.8,82.8z
		 M50.9,84.9c-0.1,0-0.2,0-0.3,0.1c-1.1,0.2-2.3,0-3.3-0.7c-1-0.7-1.7-1.7-1.9-3c-0.5-2.5,1.1-4.9,3.5-5.4c1.2-0.2,2.3,0,3.3,0.7
		c1,0.7,1.7,1.7,1.9,3C54.7,82,53.2,84.3,50.9,84.9z"/>
	<path d="M54.1,89.9c0-0.2-0.2-0.3-0.4-0.5c-0.5-0.4-1.4-0.5-2.2-0.3c-1.4,0.3-2.3,1.1-2.1,1.7c0,0.1,0,0.1,0.1,0.2c0,0,0,0.1,0,0.1
		l4,7.8l0.8-8.8c0-0.1,0-0.1,0-0.2C54.1,90,54.1,89.9,54.1,89.9z"/>
	<path d="M41.3,82.7c-0.2-0.9-0.6-1.7-1.2-2.1c-0.2-0.1-0.4-0.2-0.5-0.2c-0.1,0-0.1,0-0.2,0.1c0,0-0.1,0-0.1,0l-7.7,4.1l8.6,0.9
		c0.1,0,0.1,0,0.1,0c0.1,0,0.1,0,0.2,0C41.1,85.3,41.6,84.2,41.3,82.7z"/>
	<path d="M45.6,71.4c0,0.2,0.2,0.3,0.4,0.5c0.5,0.4,1.4,0.5,2.3,0.3c1.4-0.3,2.3-1.1,2.1-1.7c0-0.1,0-0.1-0.1-0.2c0,0,0-0.1,0-0.1
		l-4-7.9l-0.8,8.8c0,0.1,0,0.1,0,0.2C45.6,71.3,45.6,71.4,45.6,71.4z"/>
	<path d="M59.4,76.6c-0.1,0-0.1,0-0.2,0c-0.5,0.1-1,1.2-0.7,2.7c0.2,0.9,0.6,1.7,1.2,2.1c0.2,0.1,0.4,0.2,0.5,0.2
		c0.1,0,0.1,0,0.2-0.1c0,0,0.1,0,0.1,0l7.7-4.1l-8.6-0.9C59.5,76.6,59.5,76.6,59.4,76.6z"/>
	<path d="M51.3,78c-0.6-0.4-1.4-0.6-2.1-0.4c-1.5,0.3-2.5,1.8-2.2,3.4c0.2,0.8,0.6,1.5,1.2,1.9c0.6,0.4,1.4,0.6,2.1,0.4
		c1.5-0.3,2.5-1.8,2.2-3.4C52.4,79.2,52,78.5,51.3,78z"/>
	<path d="M71.2,40.2c0.3-0.8,0.4-1.7,0.2-2.6l-1-4.8c-0.5-2.7-3.1-4.4-5.8-3.9C64,29,63.5,29.2,63,29.5l2.4,1.4
		c1.6-0.1,3.1,1,3.5,2.6l0.8,3.9c0.1,0.4,0.1,0.7,0,1.1L71.2,40.2z"/>
	<path d="M67.4,43.4l-2-2.3c-1.1-0.4-1.9-1.3-2.1-2.4L62.6,35l-1.9-1.1c0,0.2,0,0.5,0.1,0.8l1,4.8C62.3,42.1,64.8,43.8,67.4,43.4z"
		/>
	<path d="M46.6,25.9c0.5-0.7,1.2-1.2,2.1-1.4l3.9-0.7c1.4-0.3,2.8,0.4,3.5,1.6l2.6,1.5c0-0.3,0-0.7-0.1-1c-0.5-2.7-3.1-4.4-5.8-3.9
		L47.8,23c-1.3,0.2-2.4,1-3.1,2.1c-0.1,0.1-0.1,0.2-0.1,0.2c-0.5,0.8-0.7,1.7-0.7,2.6l2.5-1.5C46.4,26.2,46.5,26,46.6,25.9z"/>
	<path d="M48.4,30.8l-2,1.2c1,0.6,2.2,0.8,3.3,0.6l4.8-0.9c0.5-0.1,1-0.3,1.5-0.5L54.1,30c-0.1,0-0.2,0.1-0.4,0.1l-3.9,0.7
		C49.4,31,48.9,30.9,48.4,30.8z"/>
	<path d="M52.4,25.4l-2,0.4c0.2,0.2,0.4,0.4,0.5,0.6c0.3,0.6,0.5,1.2,0.3,1.9c-0.1,0.3-0.2,0.5-0.3,0.7c0,0,0,0,0,0.1l1.4-0.3
		c-0.7-0.8-0.8-1.9-0.2-2.8C52.1,25.7,52.3,25.6,52.4,25.4z"/>
	<path d="M65.1,37c0.8-0.7,1.9-0.8,2.7-0.3l-0.3-1.4c-0.7,1-2,1.4-3.1,0.8l0.3,1.4C64.8,37.3,65,37.2,65.1,37z"/>
	<path d="M66.2,34.3c0.2-0.4,0.1-0.9-0.3-1.1l-11.4-6.7c-0.4-0.2-0.9-0.1-1.1,0.3s-0.1,0.9,0.3,1.1l11.4,6.7
		C65.5,34.8,66,34.7,66.2,34.3z"/>
	<path d="M73.9,47.4l0.1-1.5l-6.6-7.5c-0.3-0.3-0.8-0.4-1.2-0.1c-0.2,0.1-0.3,0.3-0.3,0.6s0.1,0.4,0.2,0.6l7.2,8.2
		C73.5,47.6,73.7,47.5,73.9,47.4z"/>
	<path d="M68,61.6c-0.3-0.9-0.6-1.8-0.7-2.7l-4.3,2.1L68,61.6z"/>
	<path d="M80,69.3l2.7,5l0.5-5.7c-0.6,0.2-1.2,0.4-1.9,0.5C80.9,69.3,80.5,69.3,80,69.3z"/>
	<path d="M90.4,57.9l5.1-2.6l-5.7-0.6C90.2,55.7,90.4,56.8,90.4,57.9z"/>
	<path d="M78.3,46.4L75.9,42l-0.4,4.8c0.3-0.1,0.5-0.1,0.8-0.2C77,46.5,77.6,46.4,78.3,46.4z"/>
	<path d="M88.6,59.8c0.4-2.3-0.1-4.7-1.3-6.8c-0.2,0.1-0.3,0.1-0.5,0.1c-1.1,0.2-2.4-0.1-3.5-0.9c-1.6-1.1-2.4-2.6-2.2-3.9
		c-1.4-0.4-3-0.5-4.5-0.2c-1.2,0.2-2.2,0.6-3.2,1.2c0.9,1,0.8,2.7-0.1,4.3c-0.1,0.1-0.1,0.2-0.2,0.3c-0.7,1.1-1.8,1.9-2.9,2.1
		c-0.5,0.1-0.9,0-1.3-0.1c-0.4,2.6,0.3,5.3,1.9,7.5c0.3-0.2,0.6-0.3,0.9-0.4c1.1-0.2,2.4,0.1,3.5,0.9c1.4,0.9,2.2,2.3,2.2,3.5
		c1.1,0.2,2.3,0.2,3.5,0c1.2-0.2,2.3-0.7,3.3-1.3c-0.7-1.1-0.6-2.8,0.4-4.4c0.7-1.1,1.8-1.9,2.9-2.1C88,59.7,88.3,59.7,88.6,59.8z
		 M82.8,60.2c0,0.1-0.1,0.1-0.1,0.2c-0.7,1-1.7,1.6-2.8,1.9c-1.2,0.2-2.4,0-3.5-0.7c-2.1-1.4-2.7-4.2-1.3-6.3c0.7-1,1.7-1.6,2.8-1.9
		c1.2-0.2,2.4,0,3.5,0.7C83.4,55.5,84,58.2,82.8,60.2z"/>
	<path d="M88.6,61.6c0,0-0.1-0.1-0.1-0.1c-0.2-0.1-0.4-0.1-0.6-0.1c-0.6,0.1-1.3,0.6-1.8,1.4c-0.8,1.2-0.8,2.4-0.3,2.7
		c0.1,0,0.1,0,0.2,0.1c0,0,0.1,0.1,0.1,0.1l8.4,2.7l-5.7-6.7C88.7,61.6,88.7,61.6,88.6,61.6z"/>
	<path d="M74.4,65.5c-0.8-0.5-1.7-0.8-2.3-0.7c-0.2,0-0.4,0.1-0.5,0.2c0,0.1,0,0.1-0.1,0.2c0,0-0.1,0.1-0.1,0.1l-2.5,8.3l6.7-5.5
		c0-0.1,0-0.1,0.1-0.1c0,0,0.1-0.1,0.1-0.1C76.1,67.5,75.7,66.4,74.4,65.5z"/>
	<path d="M69.3,54.4c0,0,0.1,0.1,0.1,0.1c0.2,0.1,0.4,0.1,0.6,0.1c0.6-0.1,1.3-0.6,1.8-1.4c0.8-1.2,0.8-2.4,0.3-2.7
		c-0.1,0-0.1-0.1-0.2-0.1c0,0-0.1-0.1-0.1-0.1l-8.4-2.7l5.7,6.7C69.2,54.3,69.3,54.3,69.3,54.4z"/>
	<path d="M84.2,50.9c0.8,0.5,1.7,0.8,2.3,0.7c0.2,0,0.4-0.1,0.5-0.2c0-0.1,0.1-0.1,0.1-0.2c0,0,0.1-0.1,0.1-0.1l2.5-8.3L83,48.2
		c0,0.1,0,0.1-0.1,0.1c0,0-0.1,0.1-0.1,0.1C82.6,48.9,83,50.1,84.2,50.9z"/>
	<path d="M80.4,55.5c-0.7-0.4-1.5-0.6-2.2-0.5c-0.7,0.1-1.4,0.6-1.8,1.2c-0.9,1.3-0.5,3.1,0.8,4c0.7,0.4,1.5,0.6,2.2,0.5
		c0.7-0.1,1.4-0.6,1.8-1.2C82.2,58.2,81.8,56.4,80.4,55.5z"/>
	<path d="M56.9,10.6l3.4,2c0.3,0.2,0.6,0.4,0.8,0.7l2.3,0c-0.4-0.8-1.1-1.4-1.8-1.9l-4.3-2.5C55,7.6,52,8.4,50.6,10.7
		c-0.3,0.5-0.5,1.1-0.6,1.7l2.7-0.9C53.7,10.2,55.5,9.8,56.9,10.6z"/>
	<path d="M51.8,17c0.2,0.2,0.4,0.3,0.6,0.4l4.3,2.5c2.3,1.3,5.3,0.6,6.7-1.7l-3,0c-1,0.6-2.2,0.6-3.2,0l-3.3-1.9L51.8,17z"/>
	<path d="M34.6,23.4c0.3,0.9,0.8,1.6,1.5,2.2l0.5-2.9c-0.1-0.2-0.1-0.3-0.2-0.5c-0.2-0.8-0.1-1.7,0.3-2.5l2-3.4
		c0.7-1.2,2.2-1.8,3.5-1.5l2.9-0.9c-0.2-0.2-0.5-0.4-0.8-0.6c-2.4-1.4-5.4-0.6-6.8,1.8l-2.5,4.2c-0.7,1.1-0.8,2.5-0.5,3.7
		C34.6,23.2,34.6,23.3,34.6,23.4z"/>
	<path d="M43.6,24.3l2.5-4.2c0.3-0.5,0.5-0.9,0.6-1.4l-2.1,0.7c0,0.1-0.1,0.2-0.2,0.3l-2,3.4c-0.3,0.4-0.6,0.8-1,1.1L41,26.5
		C42,26.1,43,25.4,43.6,24.3z"/>
	<path d="M40,18.2C40,18,40,17.8,39.9,17.6l-1,1.8c0.3,0,0.5,0,0.8,0c0.7,0.1,1.2,0.5,1.6,1c0.1,0.2,0.3,0.4,0.3,0.7c0,0,0,0,0,0.1
		l0.7-1.2C41.3,19.9,40.4,19.2,40,18.2z"/>
	<path d="M55.9,15.6l1.2,0.7c0-0.2-0.1-0.4-0.1-0.6c0-1,0.6-1.9,1.5-2.3l-1.3-0.7C57.6,13.9,57,15.1,55.9,15.6z"/>
	<path d="M54.7,12.6l-12.5,4.1c-0.4,0.1-0.7,0.6-0.5,1c0.1,0.4,0.6,0.7,1,0.5l12.5-4.1c0.4-0.1,0.7-0.6,0.5-1
		C55.6,12.7,55.1,12.4,54.7,12.6z"/>
	<path d="M59.5,14.9c-0.4,0-0.8,0.4-0.8,0.8c0,0.2,0.1,0.4,0.2,0.6c0.2,0.2,0.4,0.2,0.6,0.2l10.9,0c0-0.2,0.1-0.4,0.2-0.5l-1.1-1.1
		L59.5,14.9z"/>
	<path d="M75,28.5l-1.2,4.6l3.6-3.3C76.6,29.5,75.8,29,75,28.5z"/>
	<path d="M91.9,24.8c-0.2,0.4-0.5,0.7-0.7,1.1l5.5,1.3l-4-4.1C92.5,23.6,92.2,24.2,91.9,24.8z"/>
	<path d="M90.9,4.9l-4.2,3.9c1,0.4,1.9,1,2.8,1.7L90.9,4.9z"/>
	<path d="M71.7,13.6c0.3-0.6,0.7-1.1,1.1-1.5L68,10.9l3.3,3.4C71.4,14.1,71.5,13.8,71.7,13.6z"/>
	<path d="M75.1,20.6c0,0.1,0.1,0.2,0.1,0.3c0.3,1.3,0.2,2.6-0.3,3.5c-0.2,0.4-0.6,0.7-0.9,0.9c1.7,2,4.2,3.3,6.9,3.6
		c0-0.3,0.2-0.6,0.3-0.9c0.6-0.9,1.7-1.7,3-2c1.6-0.4,3.2-0.2,4.1,0.6c0.9-0.7,1.7-1.6,2.3-2.6c0.6-1,1-2.2,1.2-3.3
		c-1.3-0.2-2.5-1.4-3-3.2c-0.3-1.3-0.2-2.6,0.3-3.5c0.2-0.3,0.4-0.6,0.7-0.8c-1.5-1.8-3.6-3.1-5.9-3.5c-0.1,0.2-0.1,0.3-0.2,0.5
		c-0.5,0.9-1.7,1.7-3,2c-1.8,0.5-3.5,0-4.3-0.9c-1.2,0.8-2.3,1.9-3.1,3.3c-0.6,1-1,2.1-1.2,3.2C73.2,17.6,74.5,18.8,75.1,20.6z
		 M77.8,17c0.6-1.1,1.6-1.8,2.8-2.1c2.4-0.6,4.8,0.7,5.5,2.9c0,0.1,0,0.2,0.1,0.3c0.3,1.1,0.1,2.3-0.5,3.4c-0.6,1.1-1.6,1.8-2.8,2.1
		c-2.4,0.6-4.9-0.8-5.6-3.2C77,19.2,77.2,18,77.8,17z"/>
	<path d="M90.4,14.7c-0.3,0.5-0.4,1.4-0.1,2.3c0.4,1.4,1.3,2.2,1.9,2c0.1,0,0.1,0,0.2-0.1c0,0,0.1,0,0.1,0l7.6-4.5l-8.8-0.2
		c-0.1,0-0.1,0-0.2,0c-0.1,0-0.1,0-0.2,0C90.7,14.4,90.5,14.5,90.4,14.7z"/>
	<path d="M87.4,28.4c0-0.1,0-0.1,0-0.1c0-0.1,0-0.1,0-0.2c-0.2-0.5-1.3-0.9-2.7-0.5c-0.9,0.2-1.7,0.7-2,1.3
		c-0.1,0.2-0.2,0.4-0.1,0.5c0,0.1,0.1,0.1,0.1,0.2c0,0,0,0.1,0,0.1l4.5,7.4L87.4,28.4z"/>
	<path d="M72.8,24c0.1,0,0.1,0,0.2,0c0.2-0.1,0.3-0.2,0.5-0.4c0.3-0.5,0.4-1.4,0.2-2.3c-0.4-1.3-1.3-2.2-1.9-2c-0.1,0-0.1,0-0.2,0.1
		c0,0-0.1,0-0.1,0l-7.6,4.5l8.8,0.2C72.7,24,72.8,24,72.8,24z"/>
	<path d="M77.4,10c0.2,0.5,1.3,0.9,2.8,0.5c0.9-0.2,1.7-0.7,2-1.3c0.1-0.2,0.2-0.4,0.1-0.5c0-0.1,0-0.1-0.1-0.2c0,0,0-0.1,0-0.1
		L77.6,1l-0.3,8.7c0,0.1,0,0.1,0,0.1C77.3,9.9,77.4,9.9,77.4,10z"/>
	<path d="M82.5,21.9c0.8-0.2,1.4-0.7,1.8-1.4c0.4-0.6,0.5-1.4,0.3-2.1c-0.4-1.5-2-2.4-3.6-2c-0.8,0.2-1.4,0.7-1.8,1.4
		c-0.4,0.6-0.5,1.4-0.3,2.1C79.3,21.4,80.9,22.3,82.5,21.9z"/>
</g>
</svg>
