<?xml version="1.0" encoding="utf-8"?>
<!-- Generator: Adobe Illustrator 27.9.0, SVG Export Plug-In . SVG Version: 6.00 Build 0)  -->
<svg version="1.1" id="Layer_1" xmlns="http://www.w3.org/2000/svg" xmlns:xlink="http://www.w3.org/1999/xlink" x="0px" y="0px"
	 viewBox="0 0 100 100" style="enable-background:new 0 0 100 100;" xml:space="preserve">
<g>
	<path d="M68.4,16c-5.9,5.9-11.9,11.9-17.8,17.8c5.2,5.2,10.4,10.4,15.6,15.6c5.9-5.9,11.9-11.9,17.8-17.8
		C78.8,26.4,73.6,21.2,68.4,16z"/>
	<path d="M47,33.8c0.5,0,0.8-0.1,1.2-0.5c6.8-6.8,13.6-13.7,20.4-20.4c1.3-1.3,2.3-2.5,1.8-4.1c0-1,0-1.8,0-2.5
		c0-0.3-0.1-0.6-0.3-0.8c-1.6-1.6-3.2-3.2-4.8-4.8c-0.2-0.2-0.5-0.3-0.7-0.3c-1.4,0-2.8,0-4.2,0c-0.3,0-0.7,0.2-0.9,0.4
		c-7.3,7.3-14.7,14.7-22,22c-0.2,0.2-0.3,0.5-0.3,0.8c0,1.4,0,2.8,0,4.3c0,0.3,0.1,0.6,0.3,0.8c1.5,1.6,3.1,3.1,4.7,4.7
		c0.2,0.2,0.6,0.3,0.9,0.4C44.4,33.8,45.7,33.8,47,33.8z"/>
	<path d="M89.6,29.6c-0.5,0-0.8,0.2-1.1,0.5C81.7,36.9,74.9,43.7,68,50.5c-1.3,1.3-2.3,2.5-1.8,4c0,1.1,0,1.8,0,2.6
		c0,0.2,0.1,0.5,0.3,0.7c1.6,1.6,3.2,3.2,4.8,4.8c0.2,0.2,0.4,0.3,0.7,0.3c1.4,0,2.9,0,4.3,0c0.3,0,0.6-0.1,0.8-0.3
		c7.4-7.3,14.7-14.7,22-22.1c0.2-0.2,0.3-0.5,0.3-0.8c0-1.4,0-2.8,0-4.2c0-0.3-0.2-0.7-0.4-0.9c-1.5-1.6-3-3.1-4.6-4.6
		c-0.2-0.2-0.6-0.4-0.9-0.4C92.2,29.6,90.9,29.6,89.6,29.6z"/>
	<path d="M7.6,99c5.4-5.4,10.9-10.9,16.3-16.3c0.7-0.7,0.7-1.5,0-2.1c-1.5-1.5-2.9-3-4.4-4.4c-0.3-0.3-0.7-0.4-1.1-0.6
		c-0.4,0.2-0.8,0.3-1.1,0.6C11.9,81.6,6.4,87,1,92.4c-0.7,0.7-0.7,1.5,0,2.2c1.4,1.5,2.9,2.9,4.4,4.4C6.1,99.7,6.9,99.7,7.6,99z"/>
	<path d="M69.8,14.5c5.2,5.2,10.4,10.4,15.7,15.7c0.3-1.2,0.6-2.5,0.9-3.8c0-0.2-0.1-0.4-0.2-0.6c-0.7-0.8-1.5-1.5-2.2-2.3
		c-3.2-3.2-6.4-6.4-9.6-9.6c-0.2-0.2-0.5-0.4-0.7-0.3C72.4,13.9,71.1,14.2,69.8,14.5z"/>
	<path d="M56.8,47.2c0.8-0.8,1.6-1.6,2.3-2.3c-1.3-1.3-2.6-2.6-3.9-3.9c-1.3,1.3-2.6,2.6-4,4c1.7,0.8,3.4,1.5,5.1,2.3
		C56.4,47.3,56.7,47.3,56.8,47.2z"/>
	<path d="M28.4,75.4c-1.7-0.7-3.4-1.5-5.1-2.3c-0.1,0-0.3,0-0.4,0.1c-0.7,0.7-1.5,1.4-2.2,2.1c1.4,1.4,2.6,2.7,3.9,3.9
		C25.9,77.9,27.1,76.7,28.4,75.4z"/>
	<path d="M54,50c0.8-0.8,1.6-1.5,2.4-2.4c-1.8-0.8-3.5-1.6-5.3-2.4c-0.1,0-0.3,0-0.4,0.1c-0.8,0.8-1.6,1.5-2.4,2.4
		c1.8,0.8,3.6,1.6,5.3,2.4C53.7,50.1,53.9,50,54,50z"/>
	<path d="M51.3,52.7c0.8-0.7,1.5-1.5,2.4-2.3c-1.8-0.8-3.5-1.6-5.2-2.3c-0.1,0-0.3-0.1-0.4,0c-0.8,0.8-1.6,1.6-2.5,2.4
		c1.8,0.8,3.5,1.6,5.2,2.3C50.9,52.9,51.1,52.8,51.3,52.7z"/>
	<path d="M42.9,61.1c0.8-0.7,1.5-1.5,2.4-2.3c-1.8-0.8-3.5-1.6-5.2-2.3c-0.1-0.1-0.4-0.1-0.5,0c-0.8,0.8-1.6,1.6-2.5,2.4
		c1.8,0.8,3.4,1.6,5.1,2.3C42.5,61.2,42.8,61.2,42.9,61.1z"/>
	<path d="M31.7,72.3c0.8-0.8,1.6-1.6,2.4-2.4c-1.8-0.8-3.5-1.6-5.3-2.4c-0.1,0-0.3,0-0.4,0.1c-0.8,0.7-1.5,1.5-2.4,2.4
		c1.8,0.8,3.5,1.6,5.3,2.4C31.4,72.4,31.6,72.4,31.7,72.3z"/>
	<path d="M48.4,55.6c0.8-0.8,1.6-1.6,2.4-2.4c-1.8-0.8-3.4-1.6-5.1-2.3c-0.1-0.1-0.4,0-0.5,0.1c-0.8,0.7-1.6,1.5-2.4,2.3
		c1.8,0.8,3.5,1.6,5.2,2.3C48.1,55.7,48.3,55.6,48.4,55.6z"/>
	<path d="M45.6,58.3c0.8-0.8,1.6-1.5,2.4-2.4c-1.8-0.8-3.5-1.6-5.1-2.3c-0.2-0.1-0.5,0-0.6,0.1c-0.8,0.7-1.5,1.5-2.3,2.3
		c1.8,0.8,3.5,1.6,5.3,2.4C45.4,58.5,45.6,58.4,45.6,58.3z"/>
	<path d="M34.4,69.5c0.8-0.8,1.6-1.6,2.5-2.4c-1.9-0.8-3.6-1.6-5.3-2.4c-0.1-0.1-0.4,0-0.5,0.1c-0.8,0.7-1.6,1.5-2.4,2.3
		c1.8,0.8,3.5,1.6,5.2,2.3C34.1,69.6,34.4,69.6,34.4,69.5z"/>
	<path d="M40,63.9c0.8-0.8,1.6-1.6,2.4-2.4c-1.8-0.8-3.5-1.6-5.2-2.3c-0.1-0.1-0.4,0-0.4,0c-0.8,0.8-1.6,1.6-2.4,2.4
		c1.8,0.8,3.5,1.6,5.2,2.3C39.7,64,40,64,40,63.9z"/>
	<path d="M37.3,66.7c0.8-0.8,1.6-1.6,2.4-2.4c-1.8-0.8-3.5-1.6-5.2-2.3c-0.1,0-0.3,0-0.4,0.1c-0.8,0.8-1.6,1.6-2.4,2.4
		c1.8,0.8,3.5,1.6,5.2,2.3C36.9,66.8,37.2,66.8,37.3,66.7z"/>
	<path d="M29,75c0.8-0.7,1.5-1.5,2.4-2.3c-1.8-0.8-3.5-1.6-5.2-2.3c-0.1-0.1-0.4,0-0.4,0c-0.8,0.8-1.6,1.6-2.4,2.4
		c1.8,0.8,3.5,1.6,5.2,2.3C28.6,75.2,28.9,75.1,29,75z"/>
</g>
</svg>
