<?xml version="1.0" encoding="utf-8"?>
<!-- Generator: Adobe Illustrator 27.9.0, SVG Export Plug-In . SVG Version: 6.00 Build 0)  -->
<svg version="1.1" id="Layer_1" xmlns="http://www.w3.org/2000/svg" xmlns:xlink="http://www.w3.org/1999/xlink" x="0px" y="0px"
	 viewBox="0 0 100 100" style="enable-background:new 0 0 100 100;" xml:space="preserve">
<g>
	<path d="M63.2,51.9l-35.7,0c0.1-0.4,0-3.5,0-3.8l35.7,0C63.3,49.4,63.3,50.6,63.2,51.9z"/>
	<path d="M79.4,51.9h-4.4c0-1.3,0-2.5,0-3.8h4.4V51.9z"/>
	<path d="M93.2,50.6l-10.2,5.5c-0.3,0.2-0.7,0.1-0.9-0.2C82,55.8,82,55.7,82,55.5c0-5.5,0-4.8,0-11.1c0-0.4,0.3-0.6,0.6-0.6
		c0.1,0,0.2,0,0.3,0.1l10.2,5.5c0.3,0.2,0.4,0.5,0.3,0.9C93.4,50.4,93.3,50.5,93.2,50.6z"/>
	<path d="M17.6,42.3l-3.3,0L42.9,8.5c0.5,0.7,1.1,1.3,1.7,1.9L17.6,42.3z"/>
	<path d="M42.9,91.5L14.3,57.7l3.3,0l27,31.9C44,90.1,43.4,90.8,42.9,91.5z"/>
	<path d="M44.3,95.5c0-2.5,0.9-3,3.6-5.6C60,78.3,65.6,67.2,65.9,50C65.6,32.8,60,21.7,48,10.1c-2.7-2.6-3.7-3.1-3.6-5.6
		c0-2.3,2.8-5.2,2.6-2.2c-0.1,2.2,0.4,3.7,3.9,5.6c5.2,3.4,9.6,7.8,12.9,13c11.8,17.7,11.8,40.7,0,58.3c-3.3,5.2-7.7,9.6-12.9,13
		c-3.5,1.9-4,3.4-3.9,5.6C47.1,100.7,44.3,97.8,44.3,95.5z"/>
	<path d="M24.8,52.1L20,54.9c-0.3,0.2-0.7,0.3-1,0.3H6.9c-0.2,0-0.4-0.2-0.4-0.4c0-0.1,0.1-0.2,0.1-0.3l5.7-4.5l-5.7-4.5
		c-0.2-0.1-0.2-0.4-0.1-0.5c0.1-0.1,0.2-0.1,0.3-0.1c2.7,0,9.5,0,12.1,0c0.4,0,0.7,0.1,1,0.3l4.7,2.8c0.2,0.1,0.3,0.3,0.3,0.5
		c0,0,0,0,0,0v3.1c0,0,0,0,0,0C25.1,51.8,24.9,52,24.8,52.1z"/>
</g>
</svg>
