<?xml version="1.0" encoding="utf-8"?>
<!-- Generator: Adobe Illustrator 28.0.0, SVG Export Plug-In . SVG Version: 6.00 Build 0)  -->
<svg version="1.1" id="Layer_1" xmlns="http://www.w3.org/2000/svg" xmlns:xlink="http://www.w3.org/1999/xlink" x="0px" y="0px"
	 viewBox="0 0 100 100" style="enable-background:new 0 0 100 100;" xml:space="preserve">
<g>
	<rect x="28.4" y="60.4" width="2.4" height="19.1"/>
	<circle cx="3.4" cy="28.2" r="3.6"/>
	<rect x="33.2" y="60.4" width="2.4" height="19.1"/>
	<rect x="28.4" y="53.3" width="11.9" height="4.8"/>
	<rect x="37.9" y="60.4" width="2.4" height="19.1"/>
	<path d="M99.2,34c-1.9-2.4-3.8-4.7-5.7-7.1c-0.2-0.2-0.3-0.5-0.5-0.9c1-0.4,1.9-0.7,2.8-1.1c0.9-0.4,1.8-0.8,2.5-1.1
		c-0.6-1.7-1.3-3.3-1.7-4.9c-0.2-0.8-0.4-1.1-1.1-1.4c-0.4-0.2-0.8-0.7-1-1.1c-0.4-0.9-0.6-1.8-0.9-2.7c-0.5-1.2-1.5-2.4-0.5-3.8
		c0.1-0.2,0-0.5-0.1-0.7c-0.7-1.7-1.5-3.4-2.4-5.3c-2.9,1.1-6,2.2-9,3.3c0.6,1.5,1.2,2.8,1.6,4.1c0.3,1,0.3,1.9,1.7,2.1
		c0.4,0,0.8,0.8,1.1,1.3c0.1,0.1-0.2,0.7-0.4,0.7c-1.5,0.6-3,1.2-4.7,1.8c-0.6-2.3-1.2-4.4-1.7-6.5c-1.9,1.4-4.5,1.5-6.1,0.4
		c-1.9,1.2-3.6,0.5-5.6-0.1c-0.1,0.7-0.2,1.4-0.3,2.1c-0.3,1.9-0.6,3.9-0.7,5.8c-0.1,0.6,0.1,1.3,0.3,1.9c0.3,0.8,0.4,1.4-0.7,1.8
		c-2.5,0.8-5.2,0.9-7.4,2.8c-0.9,0.8-2.2,1.1-3.4,1.4c-1.3,0.3-2.8,1.9-4.1-0.2c0,0-0.1,0-0.1-0.1c-1.8-0.7-3.5,0.1-5.1,0.6
		c-0.3,0.1-0.5,0.3-0.7,0.6v-3.1h-2.4v3.4c-0.5-0.4-1.1-0.7-1.6-1c-0.3-0.2-0.5-0.3-0.8-0.4v-4.3h-2.4v3.2c-0.8-0.3-1.6-0.6-2.4-0.7
		v-4.9h-2.4v4.9c-0.8,0.1-1.6,0.4-2.4,0.7v-3.2h-2.4v4.3c-0.3,0.1-0.5,0.3-0.8,0.4c-0.5,0.3-1.1,0.7-1.6,1v-3.4h-2.4v5.1
		c-0.8,0.6-1.6,1.2-2.4,1.8v-2.1h-2.4v3.9c-0.8,0.6-1.6,1.2-2.4,1.7v-3.2h-2.4v4.8c-0.2,0.1-0.3,0.2-0.5,0.3c-0.7,0.4-1.3,0.7-1.9,1
		v-1.4H9.3v2.2C8.9,38.9,8.5,39,8.1,39H6.9v-4.8h-7.2v45.3h7.2V41.4h1.2c0.4,0,0.8,0,1.2-0.1v38.2h2.4V40.6c0.8-0.3,1.6-0.7,2.4-1.2
		v40.1h2.4V37.9c0.8-0.5,1.6-1.1,2.4-1.7v43.2h2.4V58h2.4v21.5H26V31c0.8-0.6,1.6-1.1,2.4-1.6v21.5h2.4V28.1
		c0.9-0.4,1.7-0.7,2.4-0.9v23.7h2.4V27.2c0.7,0.2,1.5,0.5,2.4,0.9v22.8h2.4V29.4c0.8,0.5,1.6,1,2.4,1.6c-0.2,0.2-0.4,0.4-0.7,0.6
		c-0.5,0.4-1.3,0.7-1.6,1.3c-0.2,0.4,0.2,1.6,0.6,1.7c0.5,0.2,1.1,0.2,1.7,0.1v44.8h2.4V58h2.4v21.5h2.4V42.1
		c0.2,0.3,0.4,0.5,0.5,0.8c0.6,0.8,1.2,1.4,1.8,1.7v34.9h2.4V45c0.7-0.2,1.5-0.5,2.3-1.2c0,0,0,0,0.1,0v35.7h2.4v-0.2
		c0.5,0.5,1.4,0.8,3.1,1.4c0.1,0.8,0.3,1.5,0.4,2.3c0.1,1.1,0.1,2.1,0.1,3.2c0,0.3-0.1,0.6-0.1,1c0.2,1.9-0.4,2.7-2.2,2.9
		c-2.1,0.2-3.2,1.2-3.6,3.3c-0.1,0.7,0,1,0.7,1.2c0.5,0.1,1.1,0.2,1.6,0.2c4.3,0.4,8.4-1.2,12.7-1.5c0.1,0,0.3,0,0.4-0.1
		c0.2-0.4,0.6-0.8,0.7-1.2c0-2.8-0.1-5.5-0.1-8.3c0-0.9,0.2-1.7,0.3-2.5c2.2-0.2,4.3-0.4,6.5-0.6c0.1,1.1,0.1,2.1,0.4,3
		c0.8,2.6,1.4,5.1,0.4,7.9c-0.6,1.7,0.2,3.3,1.6,3.6c2.3,0.6,4.6,1,6.9,0.3c2.5-0.8,3-2.4,1.6-4.6c-0.4-0.6-0.8-1.3-0.8-2
		c0.1-3.1,0.3-6.2,0.5-9.3c0.1,0.1,0.3,0.2,0.4,0.3c0.6-0.4,1.8-0.8,1.8-1.1c-0.2-2.8-0.7-5.6-1-8.4c-0.1-0.8-0.2-1.5-0.2-2.3
		c0.1-1.4,0.4-2.7,0.4-4.1c0-4.7-1.9-8.9-3.3-13.6c1.1-0.9,2.5-2,3.9-2.9c0.8-0.5,1.4-0.9,1.2-2c-0.1-0.3,0.3-0.7,0.5-1
		c1.6-1.5,3.2-2.9,4.8-4.4C99.9,38.4,100.2,35.3,99.2,34z M23.6,55.7h-2.4V34.5c0.2-0.2,0.5-0.4,0.7-0.5c0.6-0.4,1.1-0.8,1.7-1.2
		V55.7z M53,30.9c1.2-0.5,2.5-0.9,3.7-1.3c0.1,0.1,0.2,0.2,0.2,0.2c-0.8,1.1-1.5,2.2-2.4,3.4v-1.4h-2.2C52.4,31.5,52.7,31,53,30.9z
		 M45.1,55.7V34.6c0.3-0.1,0.5-0.2,0.8-0.2c0.4,0.8,1.4,1.8,1.3,2.7c0,0.6,0.1,1.1,0.2,1.6v17.1H45.1z M59.4,49.4v-7
		c0,0,0.1,0,0.1,0c0.3,1.7,0.4,3.1,0.7,4.5C60.4,48,60.3,48.8,59.4,49.4z M87.7,20.2c-0.3,0.6-1,1.2-1.7,1.3
		c-1.1,0.2-2.2,0.1-3.4,0.1c-0.2-0.3-0.5-0.7-0.9-1.3c1.6-0.6,3.2-1.2,4.9-1.7C87.3,18.3,88.1,19.4,87.7,20.2z"/>
</g>
</svg>
