<?xml version="1.0" encoding="utf-8"?>
<!-- Generator: Adobe Illustrator 28.0.0, SVG Export Plug-In . SVG Version: 6.00 Build 0)  -->
<svg version="1.1" id="Layer_1" xmlns="http://www.w3.org/2000/svg" xmlns:xlink="http://www.w3.org/1999/xlink" x="0px" y="0px"
	 viewBox="0 0 100 100" style="enable-background:new 0 0 100 100;" xml:space="preserve">
<g>
	<g transform="translate(0,0)">
		<path d="M48.3,6.9v7c-1.1,0.2-2.3,0.5-3.4,1v-4.6h-3.4v6.3c-0.4,0.2-0.7,0.4-1.1,0.6c-0.8,0.5-1.6,1-2.3,1.5v-5h-3.4v7.4
			c-1.1,0.8-2.3,1.7-3.4,2.5v-3h-3.4v5.6c-1.2,0.9-2.3,1.7-3.4,2.5v-4.6h-3.4V31c-0.2,0.1-0.5,0.3-0.7,0.4c-1,0.6-1.9,1.1-2.8,1.5
			v-2h-3.4v3.2c-0.6,0.1-1.2,0.2-1.7,0.2h-1.7v-6.9H0v65.5h10.3v-55H12c0.6,0,1.1,0,1.7-0.1v55.3h3.4V36.8c1.1-0.5,2.3-1,3.4-1.7v58
			h3.4V33c1.1-0.8,2.3-1.6,3.4-2.4v62.5H31v-31h3.4v31h3.4V22.9c1.2-0.8,2.3-1.6,3.4-2.3v31.1h3.4v-33c1.2-0.6,2.4-1,3.4-1.3v34.3
			h3.4V17.5c1,0.2,2.2,0.7,3.4,1.3v33h3.4V20.6c1.1,0.7,2.3,1.5,3.4,2.3v70.2H65v-31h4v31h3.4V30.6c1.2,0.8,2.3,1.6,3.4,2.4v60.1
			h3.4v-58c1.2,0.7,2.3,1.2,3.4,1.7v56.3H86V37.8c0.6,0.1,1.2,0.1,1.7,0.1h1.7v55.2H100V27.6H89.7v6.9H88c-0.5,0-1.1-0.1-1.7-0.2V31
			h-3.4v2c-0.9-0.4-1.8-0.9-2.8-1.5c-0.2-0.1-0.4-0.3-0.7-0.4v-6.9H76v4.6c-1.1-0.8-2.3-1.6-3.4-2.5v-5.6H69v3
			c-1.1-0.9-2.3-1.7-3.4-2.5v-7.4h-3.4v5c-0.8-0.5-1.6-1-2.3-1.5c-0.4-0.2-0.7-0.4-1.1-0.6v-6.3h-3.4V15c-1.2-0.5-2.3-0.8-3.4-1V7
			L48.3,6.9L48.3,6.9z M5.2,13.8C2.3,13.8,0,16.1,0,19s2.3,5.2,5.2,5.2s5.2-2.3,5.2-5.2S8,13.8,5.2,13.8z M94.8,13.8
			c-2.9,0-5.2,2.3-5.2,5.2s2.3,5.2,5.2,5.2c2.9,0,5.2-2.3,5.2-5.2S97.7,13.8,94.8,13.8z M34.5,25.4v33.2H31V28
			c0.3-0.3,0.7-0.5,1-0.8C32.9,26.6,33.7,26,34.5,25.4z M65.5,25.4c0.8,0.6,1.6,1.2,2.4,1.8c0.3,0.3,0.7,0.5,1,0.8v30.6h-3.4V25.4z
			 M41.4,55.2v6.9h17.2v-6.9H41.4z M41.4,65.5v27.6h3.4V65.5H41.4z M48.3,65.5v27.6h3.4V65.5H48.3z M55.2,65.5v27.6h3.4V65.5H55.2z"
			/>
	</g>
</g>
</svg>
