<?xml version="1.0" encoding="utf-8"?>
<!-- Generator: Adobe Illustrator 28.0.0, SVG Export Plug-In . SVG Version: 6.00 Build 0)  -->
<svg version="1.1" id="Layer_1" xmlns="http://www.w3.org/2000/svg" xmlns:xlink="http://www.w3.org/1999/xlink" x="0px" y="0px"
	 viewBox="0 0 100 100" style="enable-background:new 0 0 100 100;" xml:space="preserve">
<path d="M100,58.6c0.1-5.6-1.2-10.7-0.7-16.6c0.2-2.6,1-5.5,0.3-8c-0.9-3.2-4-8.2-4.8-12.1c-2.7-1.5-1.6-7.1-4.4-9.1
	c-1.8-0.2-5.9-0.3-5.9-1.6c-1.3,0-10.2,0-10.2-1.3c-4.4,0-8.7-1.8-13.2-2.2C57.1,7.5,53.4,7.4,48.8,9c-6.8-0.3-14,0.1-20.9,0.1
	L13,9.4c-1.5,0-2.7,0.5-5,1.8c-1.2,1.1-3,1.8-4.6,3.2c-0.9,1.7-2.9,2.9-3.1,5.1C-0.2,26-0.2,31.1,1,37.6l3,23.2
	c0.6,5.4-0.2,12-0.8,17.4c-0.2,3.1,1.5,7,2.4,9.7c0.3,0,2.6,3.2,3.8,3.6c5.2-0.6,13.6-1.6,16.8-1.1c4.6,0.7,12.5,2.5,19.3,1.6
	c2.8-0.3,13.9-0.4,17.3-1.7l19.1-0.2c4.6,0,9.5-1.2,13.1-3.2c2.5-4.1,4-9.3,4.6-12.8l0,0C100.4,70.1,97.5,63.3,100,58.6z M42.8,68.2
	c-0.1,1.1-0.3,2.2-0.5,3.4c-0.2-0.2-0.4-0.3-0.5-0.5c-0.7-1.1-1.3-2.2-2-3.2c-0.5-0.7-0.5-1.5-0.1-2.2c0.7-1.5,1.2-3.1,0.9-4.8
	c0-0.3,0.1-0.6,0.3-0.8c0.4-0.8,0.9-1.6,1.5-2.4c0.1,1.2,1.6,1.9,0.9,3.4c-0.2,0.4,0.1,1,0.3,1.6c-0.9,0.3-0.9,1.2-0.9,2.1
	c0,0.8-0.1,1.5-0.1,2C42.6,67.5,42.9,67.9,42.8,68.2z M48.1,84.4c-0.4-1.6-0.8-3.2-0.4-4.8c0.2-0.7,0.4-1.4,0.5-2.1
	c0.4-2.6,0.4-2.6,3-2.1c0.6,0.1,1,0.4,1,1c0,2,0.7,4,0.6,6.1c0,0.8,0,1.6,0,2.4c0,0.1,0,0.1,0,0.2c-1.8,0.1-3.3,0.3-4.6,0.5
	C48.2,85.2,48.2,84.8,48.1,84.4z M49.7,73.1c0.3-0.6,0.5-1.1,0.8-1.7c0.4,0.7,0.8,1.2,1.2,2C50.9,73.3,50.3,73.2,49.7,73.1z
	 M61.8,80.8c-1.1,0.7-2.2,0.4-3.3-0.3c-0.2-0.2-0.4-0.6-0.3-0.9c0.1-1,0.4-2,0.6-3.2c1.2,0.2,2.6,0.3,3.9,0.5c0.2,0,0.5,0.4,0.5,0.7
	C63.3,79,62.9,80.1,61.8,80.8z M58.2,83.4c0.7,0.5,1.4,0.9,2.2,1.2c-0.8,0-1.6,0.1-2.4,0.1C58,84.3,58.1,83.9,58.2,83.4z M94.3,65.8
	c-0.8,1.5-3,4.3-2.2,6c-0.3,0.5-0.3,0.3,0,0.8c-0.3,0.7,0,3.3-1.6,3.3c0,0.5-3.5,2.6-4,2.6c-0.9,1.8-1,3.5-1.8,3.5
	c0,1.1-1.9,1.5-2.8,1.8h0c-2,1.3-8.2,0.8-9.6,0.8c-2.1-0.1-4.1-0.1-6-0.1c-0.2-1.4-0.5-2.9-0.6-4.3c-0.1-1.1-0.2-2.4,1.2-3
	c0.5-0.2,0.4-1.4-0.1-1.8C66,74.7,65,74.7,64,74.7c-1.9-0.1-3.8-0.1-5.5-0.2c-0.2-2.1-0.2-4-0.5-5.8c-0.3-1.8-0.9-3.7-1.5-5.4
	c-0.3-1-0.9-1.8-0.5-2.9c0.2-0.4-0.1-1-0.2-1.6c0.3,0.2,0.4,0.4,0.4,0.6c0.2,1.8,1.2,3.2,2.4,4.5c0.8,0.9,1.3,1.6,0.9,2.9
	c-0.2,0.6,0.2,1.7,0.7,2c0.5,0.4,1.4,0.7,2.3,0.2c1.6-1,2.1-2.9,0.8-4.4c-0.7-0.8-0.9-1.6-1.1-2.6c-0.2-1.1-0.7-2.1-1.1-3.4
	c0.7-0.5-0.2-1.2-0.3-2c-0.1-0.8-0.3-1.7-0.4-2.5c0.4-0.4,0.8-0.8,0.7-1.2c-0.2-0.7,0-1,0.6-1.3c0.2-0.1,0.5-0.4,0.8-0.6
	c-0.6-0.1-1.1-0.2-1.6-0.3c-0.6-2.2-0.6-2.2-0.2-3.1c-0.4,0-1,0.2-1.2,0c-0.2-0.2-0.1-0.8-0.1-0.9c-1-0.1-1.9-0.2-2.9-0.3
	c0-0.7,0.1-1.1,0.1-1.7c-0.9,0.7-1.5,1.8-2.7,1.2c0-0.7,0.1-1.3,0.1-2c-0.1-0.1-0.2-0.1-0.3-0.2c-0.1,0.3-0.2,0.5-0.3,0.8
	c-0.7-1.5-1.6-2.4-3.1-2.5c-1.7-0.2-2.4,1-3,2.3c-0.3-0.3-0.6-0.4-1-0.8c0.1,1,0.2,1.7,0.3,2.3c-1.2,0.7-2.3,1.3-3.4,2
	c-0.1,0.1-0.3,0.1-0.5,0.2c-1.7,0.5-3.3,1-5,1.4c-0.6,0.2-0.6,0.5-0.3,0.9c0.1,0.2,0.3,0.3,0.3,0.3c-0.3,1.2-0.6,2.3-0.8,3.3
	c-0.2,1.2-0.3,2.3-0.5,3.5c0,0.2-0.1,0.3-0.2,0.5C35,60,34.6,62.3,35,64.7c0.3,1.6,0.6,3.2,0.9,4.9c-1.2-0.3-1.3,0.6-1.4,1.3
	c-0.2,0.9,0.5,0.9,1.1,1.1c0.2,0.1,0.4,0.1,0.5,0.2c0.7,0.6,1.3,1.3,2,1.9c1.2,1,1.8,0.9,3-0.2c0.2-0.2,0.7-0.2,1.2-0.3
	c0.1,2.4-0.2,4.6,0.9,6.7c0.4,0.8,0.2,2.1,0.2,3.1c0,0.4-0.5,0.7-0.9,1c-0.2,0.2-0.4,0.2-0.5,0.4c-0.5,0.6-0.8,1.3-1,2.1
	c-2.2,0.4-5.2-0.2-6-1.5c-2.2-3.8-3.6-10.8-3.3-15.7c0.1-2.7-2.5-2.5-2.5,0c0,1.4,0,4.7-0.5,5.7c-0.7,1.6-1.7,4.6-3,5
	c-0.4,3-6.7,0.8-8.9,1.1c-2.5,0.2-4.6,1.7-6.2,2.8l-1.7-13C8.7,70,8.6,67,8,65.8C8,62.3,7.5,56.4,7.2,53.9L6.9,38.6L7.5,26
	c0-0.7,0.5-3.9,1.3-5.4c1.4,0,2.5,0.4,2.7,1.6c1.3,0.4,2.3,3.4,3,5c0.5,1.1,0.5,4.4,0.5,5.7c0,2.5,2.7,2.7,2.5,0
	c-0.3-4.9,1-11.8,3.2-15.7c0.9-1.6,5-2.1,7.1-1.2c1.3,0.6,1.5,2.5,1.7,3.6c0.1,0.7,0.4,4.1,0.4,6.2c0,2.4,2.3,2,2.3,0.1
	c0-1.5,0.4-4.2,0.9-7c0.2-1.3,0.6-2.7,1.1-3.4c0,0,0.1,0,0.1,0l10.6,0.1l16.5,0c1.4,0,8-0.5,8,1c3.6,0,4.1,7.8,4.5,10.2
	c0.7,4.1,1.8,8.3,1.8,13.2c-0.2,1.8,2,2.2,2,0c0-4.7,2.2-8.1,4.4-12.1c2.7,5.2,6.8,9.2,6.8,15.8c0,0.8,0.3,4.3,0.2,6.7
	c0,1.3,1.9,1.4,1.9,0.2c0-0.7,0.9-6.2,1.2-7.1c0.2-0.9,0.8-3.4,1.4-4c1.5,3.4,1.9,10.9,1.9,14.3C95.4,57.7,96,62.6,94.3,65.8z"/>
</svg>
